<?xml version="1.0" encoding="UTF-8" standalone="no"?>
<!DOCTYPE svg PUBLIC "-//W3C//DTD SVG 1.1//EN"
 "http://www.w3.org/Graphics/SVG/1.1/DTD/svg11.dtd">
<!-- Generated by graphviz version 12.2.0 (20241103.1931)
 -->
<!-- Title: iop/cdvd/cdvdman/include/cdvdman.h Pages: 1 -->
<svg width="4149pt" height="305pt"
 viewBox="0.00 0.00 4149.38 304.50" xmlns="http://www.w3.org/2000/svg" xmlns:xlink="http://www.w3.org/1999/xlink">
<g id="graph0" class="graph" transform="scale(1 1) rotate(0) translate(4 300.5)">
<title>iop/cdvd/cdvdman/include/cdvdman.h</title>
<!-- Node1 -->
<g id="Node000001" class="node">
<title>Node1</title>
<g id="a_Node000001"><a xlink:title=" ">
<polygon fill="#999999" stroke="#666666" points="2316.62,-296.5 2187.38,-296.5 2187.38,-266 2316.62,-266 2316.62,-296.5"/>
<text text-anchor="start" x="2195.38" y="-283" font-family="Helvetica,sans-Serif" font-size="10.00">iop/cdvd/cdvdman/include</text>
<text text-anchor="middle" x="2252" y="-271.75" font-family="Helvetica,sans-Serif" font-size="10.00">/cdvdman.h</text>
</a>
</g>
</g>
<!-- Node2 -->
<g id="Node000002" class="node">
<title>Node2</title>
<g id="a_Node000002"><a xlink:href="common_2sbus_2src_2irx__imports_8h_source.html" target="_top" xlink:title=" ">
<polygon fill="white" stroke="#666666" points="549.38,-230 442.62,-230 442.62,-199.5 549.38,-199.5 549.38,-230"/>
<text text-anchor="start" x="450.62" y="-216.5" font-family="Helvetica,sans-Serif" font-size="10.00">common/sbus/src/irx</text>
<text text-anchor="middle" x="496" y="-205.25" font-family="Helvetica,sans-Serif" font-size="10.00">_imports.h</text>
</a>
</g>
</g>
<!-- Node1&#45;&gt;Node2 -->
<g id="edge1_Node000001_Node000002" class="edge">
<title>Node1&#45;&gt;Node2</title>
<g id="a_edge1_Node000001_Node000002"><a xlink:title=" ">
<path fill="none" stroke="#63b8ff" d="M2175.47,-279.97C1888.62,-278.63 877.32,-271.03 558,-230 555.26,-229.65 552.47,-229.23 549.65,-228.76"/>
<polygon fill="#63b8ff" stroke="#63b8ff" points="2175.45,-283.47 2185.47,-280.02 2175.48,-276.47 2175.45,-283.47"/>
</a>
</g>
</g>
<!-- Node3 -->
<g id="Node000003" class="node">
<title>Node3</title>
<g id="a_Node000003"><a xlink:href="accdvd_8h_source.html" target="_top" xlink:title=" ">
<polygon fill="white" stroke="#666666" points="696.62,-230 567.38,-230 567.38,-199.5 696.62,-199.5 696.62,-230"/>
<text text-anchor="start" x="575.38" y="-216.5" font-family="Helvetica,sans-Serif" font-size="10.00">iop/arcade/accdvd/include</text>
<text text-anchor="middle" x="632" y="-205.25" font-family="Helvetica,sans-Serif" font-size="10.00">/accdvd.h</text>
</a>
</g>
</g>
<!-- Node1&#45;&gt;Node3 -->
<g id="edge2_Node000001_Node000003" class="edge">
<title>Node1&#45;&gt;Node3</title>
<g id="a_edge2_Node000001_Node000003"><a xlink:title=" ">
<path fill="none" stroke="#63b8ff" d="M2175.74,-279.24C1906.31,-275.43 999.82,-260.59 711,-230 706.43,-229.52 701.72,-228.92 696.99,-228.25"/>
<polygon fill="#63b8ff" stroke="#63b8ff" points="2175.39,-282.73 2185.44,-279.37 2175.49,-275.73 2175.39,-282.73"/>
</a>
</g>
</g>
<!-- Node11 -->
<g id="Node000011" class="node">
<title>Node11</title>
<g id="a_Node000011"><a xlink:href="iop_2arcade_2accdvde_2src_2irx__imports_8h_source.html" target="_top" xlink:title=" ">
<polygon fill="white" stroke="#666666" points="754.38,-163.5 653.62,-163.5 653.62,-133 754.38,-133 754.38,-163.5"/>
<text text-anchor="start" x="661.62" y="-150" font-family="Helvetica,sans-Serif" font-size="10.00">iop/arcade/accdvde</text>
<text text-anchor="middle" x="704" y="-138.75" font-family="Helvetica,sans-Serif" font-size="10.00">/src/irx_imports.h</text>
</a>
</g>
</g>
<!-- Node1&#45;&gt;Node11 -->
<g id="edge14_Node000001_Node000011" class="edge">
<title>Node1&#45;&gt;Node11</title>
<g id="a_edge14_Node000001_Node000011"><a xlink:title=" ">
<path fill="none" stroke="#63b8ff" d="M2176.21,-279.87C1878.78,-278.11 804.68,-269.07 744,-230 720.98,-215.18 710.74,-182.89 706.57,-163.93"/>
<polygon fill="#63b8ff" stroke="#63b8ff" points="2175.76,-283.37 2185.78,-279.93 2175.8,-276.37 2175.76,-283.37"/>
</a>
</g>
</g>
<!-- Node15 -->
<g id="Node000015" class="node">
<title>Node15</title>
<g id="a_Node000015"><a xlink:href="iop_2arcade_2acrtc_2src_2irx__imports_8h_source.html" target="_top" xlink:title=" ">
<polygon fill="white" stroke="#666666" points="855.12,-230 752.88,-230 752.88,-199.5 855.12,-199.5 855.12,-230"/>
<text text-anchor="start" x="760.88" y="-216.5" font-family="Helvetica,sans-Serif" font-size="10.00">iop/arcade/acrtc/src</text>
<text text-anchor="middle" x="804" y="-205.25" font-family="Helvetica,sans-Serif" font-size="10.00">/irx_imports.h</text>
</a>
</g>
</g>
<!-- Node1&#45;&gt;Node15 -->
<g id="edge15_Node000001_Node000015" class="edge">
<title>Node1&#45;&gt;Node15</title>
<g id="a_edge15_Node000001_Node000015"><a xlink:title=" ">
<path fill="none" stroke="#63b8ff" d="M2175.74,-279.47C1923.96,-276.57 1120.66,-264.78 864,-230 861.24,-229.63 858.42,-229.18 855.59,-228.68"/>
<polygon fill="#63b8ff" stroke="#63b8ff" points="2175.4,-282.96 2185.44,-279.58 2175.48,-275.96 2175.4,-282.96"/>
</a>
</g>
</g>
<!-- Node17 -->
<g id="Node000017" class="node">
<title>Node17</title>
<g id="a_Node000017"><a xlink:href="iop_2cdvd_2cdfs_2src_2irx__imports_8h_source.html" target="_top" xlink:title=" ">
<polygon fill="white" stroke="#666666" points="976.88,-230 873.12,-230 873.12,-199.5 976.88,-199.5 976.88,-230"/>
<text text-anchor="start" x="881.12" y="-216.5" font-family="Helvetica,sans-Serif" font-size="10.00">iop/cdvd/cdfs/src/irx</text>
<text text-anchor="middle" x="925" y="-205.25" font-family="Helvetica,sans-Serif" font-size="10.00">_imports.h</text>
</a>
</g>
</g>
<!-- Node1&#45;&gt;Node17 -->
<g id="edge17_Node000001_Node000017" class="edge">
<title>Node1&#45;&gt;Node17</title>
<g id="a_edge17_Node000001_Node000017"><a xlink:title=" ">
<path fill="none" stroke="#63b8ff" d="M2175.71,-279.12C1938.82,-275.32 1217.89,-261.4 986,-230 983.09,-229.61 980.12,-229.14 977.12,-228.61"/>
<polygon fill="#63b8ff" stroke="#63b8ff" points="2175.39,-282.62 2185.44,-279.28 2175.5,-275.62 2175.39,-282.62"/>
</a>
</g>
</g>
<!-- Node18 -->
<g id="Node000018" class="node">
<title>Node18</title>
<g id="a_Node000018"><a xlink:href="iop_2cdvd_2cdvdfsv_2src_2irx__imports_8h_source.html" target="_top" xlink:title=" ">
<polygon fill="white" stroke="#666666" points="1101.38,-230 994.62,-230 994.62,-199.5 1101.38,-199.5 1101.38,-230"/>
<text text-anchor="start" x="1002.62" y="-216.5" font-family="Helvetica,sans-Serif" font-size="10.00">iop/cdvd/cdvdfsv/src</text>
<text text-anchor="middle" x="1048" y="-205.25" font-family="Helvetica,sans-Serif" font-size="10.00">/irx_imports.h</text>
</a>
</g>
</g>
<!-- Node1&#45;&gt;Node18 -->
<g id="edge18_Node000001_Node000018" class="edge">
<title>Node1&#45;&gt;Node18</title>
<g id="a_edge18_Node000001_Node000018"><a xlink:title=" ">
<path fill="none" stroke="#63b8ff" d="M2175.78,-278.71C1954.86,-273.94 1316.84,-258.08 1110,-230 1107.26,-229.63 1104.47,-229.19 1101.66,-228.71"/>
<polygon fill="#63b8ff" stroke="#63b8ff" points="2175.64,-282.2 2185.72,-278.92 2175.79,-275.21 2175.64,-282.2"/>
</a>
</g>
</g>
<!-- Node20 -->
<g id="Node000020" class="node">
<title>Node20</title>
<g id="a_Node000020"><a xlink:href="cdvdman_8c_source.html" target="_top" xlink:title=" ">
<polygon fill="white" stroke="#666666" points="1231,-230 1119,-230 1119,-199.5 1231,-199.5 1231,-230"/>
<text text-anchor="start" x="1127" y="-216.5" font-family="Helvetica,sans-Serif" font-size="10.00">iop/cdvd/cdvdman/src</text>
<text text-anchor="middle" x="1175" y="-205.25" font-family="Helvetica,sans-Serif" font-size="10.00">/cdvdman.c</text>
</a>
</g>
</g>
<!-- Node1&#45;&gt;Node20 -->
<g id="edge20_Node000001_Node000020" class="edge">
<title>Node1&#45;&gt;Node20</title>
<g id="a_edge20_Node000001_Node000020"><a xlink:title=" ">
<path fill="none" stroke="#63b8ff" d="M2175.62,-280.77C2006.34,-281 1587.11,-276.34 1240,-230 1237.14,-229.62 1234.21,-229.17 1231.27,-228.69"/>
<polygon fill="#63b8ff" stroke="#63b8ff" points="2175.63,-284.28 2185.62,-280.75 2175.61,-277.28 2175.63,-284.28"/>
</a>
</g>
</g>
<!-- Node21 -->
<g id="Node000021" class="node">
<title>Node21</title>
<g id="a_Node000021"><a xlink:href="iop_2cdvd_2cdvdstm_2src_2irx__imports_8h_source.html" target="_top" xlink:title=" ">
<polygon fill="white" stroke="#666666" points="1358.88,-230 1249.12,-230 1249.12,-199.5 1358.88,-199.5 1358.88,-230"/>
<text text-anchor="start" x="1257.12" y="-216.5" font-family="Helvetica,sans-Serif" font-size="10.00">iop/cdvd/cdvdstm/src</text>
<text text-anchor="middle" x="1304" y="-205.25" font-family="Helvetica,sans-Serif" font-size="10.00">/irx_imports.h</text>
</a>
</g>
</g>
<!-- Node1&#45;&gt;Node21 -->
<g id="edge21_Node000001_Node000021" class="edge">
<title>Node1&#45;&gt;Node21</title>
<g id="a_edge21_Node000001_Node000021"><a xlink:title=" ">
<path fill="none" stroke="#63b8ff" d="M2175.91,-280.07C2022.39,-278.8 1664.9,-271.21 1368,-230 1365.07,-229.59 1362.07,-229.12 1359.05,-228.6"/>
<polygon fill="#63b8ff" stroke="#63b8ff" points="2175.5,-283.57 2185.53,-280.14 2175.56,-276.57 2175.5,-283.57"/>
</a>
</g>
</g>
<!-- Node23 -->
<g id="Node000023" class="node">
<title>Node23</title>
<g id="a_Node000023"><a xlink:href="iop_2debug_2iop__sbusdbg_2src_2irx__imports_8h_source.html" target="_top" xlink:title=" ">
<polygon fill="white" stroke="#666666" points="1492.88,-230 1377.12,-230 1377.12,-199.5 1492.88,-199.5 1492.88,-230"/>
<text text-anchor="start" x="1385.12" y="-216.5" font-family="Helvetica,sans-Serif" font-size="10.00">iop/debug/iop_sbusdbg</text>
<text text-anchor="middle" x="1435" y="-205.25" font-family="Helvetica,sans-Serif" font-size="10.00">/src/irx_imports.h</text>
</a>
</g>
</g>
<!-- Node1&#45;&gt;Node23 -->
<g id="edge23_Node000001_Node000023" class="edge">
<title>Node1&#45;&gt;Node23</title>
<g id="a_edge23_Node000001_Node000023"><a xlink:title=" ">
<path fill="none" stroke="#63b8ff" d="M2175.48,-278.72C2039.39,-275.21 1746.6,-264.03 1502,-230 1499.06,-229.59 1496.05,-229.12 1493.02,-228.62"/>
<polygon fill="#63b8ff" stroke="#63b8ff" points="2175.38,-282.22 2185.46,-278.97 2175.55,-275.22 2175.38,-282.22"/>
</a>
</g>
</g>
<!-- Node24 -->
<g id="Node000024" class="node">
<title>Node24</title>
<g id="a_Node000024"><a xlink:href="iop_2debug_2iopdebug_2src_2irx__imports_8h_source.html" target="_top" xlink:title=" ">
<polygon fill="white" stroke="#666666" points="1611,-230 1511,-230 1511,-199.5 1611,-199.5 1611,-230"/>
<text text-anchor="start" x="1519" y="-216.5" font-family="Helvetica,sans-Serif" font-size="10.00">iop/debug/iopdebug</text>
<text text-anchor="middle" x="1561" y="-205.25" font-family="Helvetica,sans-Serif" font-size="10.00">/src/irx_imports.h</text>
</a>
</g>
</g>
<!-- Node1&#45;&gt;Node24 -->
<g id="edge24_Node000001_Node000024" class="edge">
<title>Node1&#45;&gt;Node24</title>
<g id="a_edge24_Node000001_Node000024"><a xlink:title=" ">
<path fill="none" stroke="#63b8ff" d="M2175.84,-278.07C2056.64,-273.78 1819.01,-261.74 1620,-230 1617.19,-229.55 1614.32,-229.04 1611.42,-228.48"/>
<polygon fill="#63b8ff" stroke="#63b8ff" points="2175.38,-281.55 2185.49,-278.41 2175.62,-274.56 2175.38,-281.55"/>
</a>
</g>
</g>
<!-- Node25 -->
<g id="Node000025" class="node">
<title>Node25</title>
<g id="a_Node000025"><a xlink:href="iop_2fs_2bdmfs__fatfs_2src_2irx__imports_8h_source.html" target="_top" xlink:title=" ">
<polygon fill="white" stroke="#666666" points="1723.38,-230 1628.62,-230 1628.62,-199.5 1723.38,-199.5 1723.38,-230"/>
<text text-anchor="start" x="1636.62" y="-216.5" font-family="Helvetica,sans-Serif" font-size="10.00">iop/fs/bdmfs_fatfs</text>
<text text-anchor="middle" x="1676" y="-205.25" font-family="Helvetica,sans-Serif" font-size="10.00">/src/irx_imports.h</text>
</a>
</g>
</g>
<!-- Node1&#45;&gt;Node25 -->
<g id="edge25_Node000001_Node000025" class="edge">
<title>Node1&#45;&gt;Node25</title>
<g id="a_edge25_Node000001_Node000025"><a xlink:title=" ">
<path fill="none" stroke="#63b8ff" d="M2175.9,-276.43C2074.33,-270.52 1889.12,-256.92 1733,-230 1729.98,-229.48 1726.89,-228.89 1723.78,-228.24"/>
<polygon fill="#63b8ff" stroke="#63b8ff" points="2175.57,-279.91 2185.75,-276.99 2175.97,-272.92 2175.57,-279.91"/>
</a>
</g>
</g>
<!-- Node26 -->
<g id="Node000026" class="node">
<title>Node26</title>
<g id="a_Node000026"><a xlink:href="iop_2fs_2bdmfs__fatfs_2src_2main_8c_source.html" target="_top" xlink:title=" ">
<polygon fill="white" stroke="#666666" points="1836.38,-230 1741.62,-230 1741.62,-199.5 1836.38,-199.5 1836.38,-230"/>
<text text-anchor="start" x="1749.62" y="-216.5" font-family="Helvetica,sans-Serif" font-size="10.00">iop/fs/bdmfs_fatfs</text>
<text text-anchor="middle" x="1789" y="-205.25" font-family="Helvetica,sans-Serif" font-size="10.00">/src/main.c</text>
</a>
</g>
</g>
<!-- Node1&#45;&gt;Node26 -->
<g id="edge26_Node000001_Node000026" class="edge">
<title>Node1&#45;&gt;Node26</title>
<g id="a_edge26_Node000001_Node000026"><a xlink:title=" ">
<path fill="none" stroke="#63b8ff" d="M2175.48,-273.58C2093.54,-265.79 1959.92,-251.21 1846,-230 1842.99,-229.44 1839.91,-228.82 1836.8,-228.15"/>
<polygon fill="#63b8ff" stroke="#63b8ff" points="2175.14,-277.07 2185.43,-274.52 2175.8,-270.1 2175.14,-277.07"/>
</a>
</g>
</g>
<!-- Node27 -->
<g id="Node000027" class="node">
<title>Node27</title>
<g id="a_Node000027"><a xlink:href="iop_2fs_2bdmfs__vfat_2src_2irx__imports_8h_source.html" target="_top" xlink:title=" ">
<polygon fill="white" stroke="#666666" points="1963.12,-230 1854.88,-230 1854.88,-199.5 1963.12,-199.5 1963.12,-230"/>
<text text-anchor="start" x="1862.88" y="-216.5" font-family="Helvetica,sans-Serif" font-size="10.00">iop/fs/bdmfs_vfat/src</text>
<text text-anchor="middle" x="1909" y="-205.25" font-family="Helvetica,sans-Serif" font-size="10.00">/irx_imports.h</text>
</a>
</g>
</g>
<!-- Node1&#45;&gt;Node27 -->
<g id="edge27_Node000001_Node000027" class="edge">
<title>Node1&#45;&gt;Node27</title>
<g id="a_edge27_Node000001_Node000027"><a xlink:title=" ">
<path fill="none" stroke="#63b8ff" d="M2175.73,-267.51C2119.33,-257.86 2040.72,-243.93 1972,-230 1969.25,-229.44 1966.44,-228.86 1963.6,-228.26"/>
<polygon fill="#63b8ff" stroke="#63b8ff" points="2175.12,-270.96 2185.57,-269.19 2176.3,-264.06 2175.12,-270.96"/>
</a>
</g>
</g>
<!-- Node28 -->
<g id="Node000028" class="node">
<title>Node28</title>
<g id="a_Node000028"><a xlink:href="fat__write_8c_source.html" target="_top" xlink:title=" ">
<polygon fill="white" stroke="#666666" points="2071.12,-230 1980.88,-230 1980.88,-199.5 2071.12,-199.5 2071.12,-230"/>
<text text-anchor="start" x="1988.88" y="-216.5" font-family="Helvetica,sans-Serif" font-size="10.00">iop/fs/vfat/src/fat</text>
<text text-anchor="middle" x="2026" y="-205.25" font-family="Helvetica,sans-Serif" font-size="10.00">_write.c</text>
</a>
</g>
</g>
<!-- Node1&#45;&gt;Node28 -->
<g id="edge28_Node000001_Node000028" class="edge">
<title>Node1&#45;&gt;Node28</title>
<g id="a_edge28_Node000001_Node000028"><a xlink:title=" ">
<path fill="none" stroke="#63b8ff" d="M2189.66,-262.46C2152.26,-251.79 2105.54,-238.45 2071.6,-228.76"/>
<polygon fill="#63b8ff" stroke="#63b8ff" points="2188.4,-265.74 2198.98,-265.12 2190.32,-259.01 2188.4,-265.74"/>
</a>
</g>
</g>
<!-- Node29 -->
<g id="Node000029" class="node">
<title>Node29</title>
<g id="a_Node000029"><a xlink:href="iop_2hdd_2apa_2src_2irx__imports_8h_source.html" target="_top" xlink:title=" ">
<polygon fill="white" stroke="#666666" points="2184.75,-230 2089.25,-230 2089.25,-199.5 2184.75,-199.5 2184.75,-230"/>
<text text-anchor="start" x="2097.25" y="-216.5" font-family="Helvetica,sans-Serif" font-size="10.00">iop/hdd/apa/src/irx</text>
<text text-anchor="middle" x="2137" y="-205.25" font-family="Helvetica,sans-Serif" font-size="10.00">_imports.h</text>
</a>
</g>
</g>
<!-- Node1&#45;&gt;Node29 -->
<g id="edge29_Node000001_Node000029" class="edge">
<title>Node1&#45;&gt;Node29</title>
<g id="a_edge29_Node000001_Node000029"><a xlink:title=" ">
<path fill="none" stroke="#63b8ff" d="M2216.18,-260.16C2198.96,-250.5 2178.7,-239.14 2162.99,-230.33"/>
<polygon fill="#63b8ff" stroke="#63b8ff" points="2214.15,-263.03 2224.58,-264.87 2217.57,-256.93 2214.15,-263.03"/>
</a>
</g>
</g>
<!-- Node30 -->
<g id="Node000030" class="node">
<title>Node30</title>
<g id="a_Node000030"><a xlink:href="iop_2hdd_2fsck_2src_2irx__imports_8h_source.html" target="_top" xlink:title=" ">
<polygon fill="white" stroke="#666666" points="2301.25,-230 2202.75,-230 2202.75,-199.5 2301.25,-199.5 2301.25,-230"/>
<text text-anchor="start" x="2210.75" y="-216.5" font-family="Helvetica,sans-Serif" font-size="10.00">iop/hdd/fsck/src/irx</text>
<text text-anchor="middle" x="2252" y="-205.25" font-family="Helvetica,sans-Serif" font-size="10.00">_imports.h</text>
</a>
</g>
</g>
<!-- Node1&#45;&gt;Node30 -->
<g id="edge30_Node000001_Node000030" class="edge">
<title>Node1&#45;&gt;Node30</title>
<g id="a_edge30_Node000001_Node000030"><a xlink:title=" ">
<path fill="none" stroke="#63b8ff" d="M2252,-254.31C2252,-246.14 2252,-237.41 2252,-230.33"/>
<polygon fill="#63b8ff" stroke="#63b8ff" points="2248.5,-254.1 2252,-264.1 2255.5,-254.1 2248.5,-254.1"/>
</a>
</g>
</g>
<!-- Node31 -->
<g id="Node000031" class="node">
<title>Node31</title>
<g id="a_Node000031"><a xlink:href="iop_2hdd_2fssk_2src_2irx__imports_8h_source.html" target="_top" xlink:title=" ">
<polygon fill="white" stroke="#666666" points="2418.25,-230 2319.75,-230 2319.75,-199.5 2418.25,-199.5 2418.25,-230"/>
<text text-anchor="start" x="2327.75" y="-216.5" font-family="Helvetica,sans-Serif" font-size="10.00">iop/hdd/fssk/src/irx</text>
<text text-anchor="middle" x="2369" y="-205.25" font-family="Helvetica,sans-Serif" font-size="10.00">_imports.h</text>
</a>
</g>
</g>
<!-- Node1&#45;&gt;Node31 -->
<g id="edge31_Node000001_Node000031" class="edge">
<title>Node1&#45;&gt;Node31</title>
<g id="a_edge31_Node000001_Node000031"><a xlink:title=" ">
<path fill="none" stroke="#63b8ff" d="M2288.45,-260.16C2305.96,-250.5 2326.57,-239.14 2342.56,-230.33"/>
<polygon fill="#63b8ff" stroke="#63b8ff" points="2286.94,-256.99 2279.87,-264.88 2290.32,-263.12 2286.94,-256.99"/>
</a>
</g>
</g>
<!-- Node32 -->
<g id="Node000032" class="node">
<title>Node32</title>
<g id="a_Node000032"><a xlink:href="iop_2hdd_2hdck_2src_2irx__imports_8h_source.html" target="_top" xlink:title=" ">
<polygon fill="white" stroke="#666666" points="2537.38,-230 2436.62,-230 2436.62,-199.5 2537.38,-199.5 2537.38,-230"/>
<text text-anchor="start" x="2444.62" y="-216.5" font-family="Helvetica,sans-Serif" font-size="10.00">iop/hdd/hdck/src/irx</text>
<text text-anchor="middle" x="2487" y="-205.25" font-family="Helvetica,sans-Serif" font-size="10.00">_imports.h</text>
</a>
</g>
</g>
<!-- Node1&#45;&gt;Node32 -->
<g id="edge32_Node000001_Node000032" class="edge">
<title>Node1&#45;&gt;Node32</title>
<g id="a_edge32_Node000001_Node000032"><a xlink:title=" ">
<path fill="none" stroke="#63b8ff" d="M2316.52,-262.54C2354.31,-252.17 2401.34,-239.26 2436.43,-229.63"/>
<polygon fill="#63b8ff" stroke="#63b8ff" points="2315.8,-259.11 2307.08,-265.13 2317.65,-265.86 2315.8,-259.11"/>
</a>
</g>
</g>
<!-- Node33 -->
<g id="Node000033" class="node">
<title>Node33</title>
<g id="a_Node000033"><a xlink:href="iop_2hdd_2hdsk_2src_2irx__imports_8h_source.html" target="_top" xlink:title=" ">
<polygon fill="white" stroke="#666666" points="2656.38,-230 2555.62,-230 2555.62,-199.5 2656.38,-199.5 2656.38,-230"/>
<text text-anchor="start" x="2563.62" y="-216.5" font-family="Helvetica,sans-Serif" font-size="10.00">iop/hdd/hdsk/src/irx</text>
<text text-anchor="middle" x="2606" y="-205.25" font-family="Helvetica,sans-Serif" font-size="10.00">_imports.h</text>
</a>
</g>
</g>
<!-- Node1&#45;&gt;Node33 -->
<g id="edge33_Node000001_Node000033" class="edge">
<title>Node1&#45;&gt;Node33</title>
<g id="a_edge33_Node000001_Node000033"><a xlink:title=" ">
<path fill="none" stroke="#63b8ff" d="M2328.21,-268.59C2387.71,-259.16 2472.36,-245.02 2546,-230 2549.04,-229.38 2552.17,-228.72 2555.31,-228.03"/>
<polygon fill="#63b8ff" stroke="#63b8ff" points="2327.86,-265.11 2318.53,-270.12 2328.95,-272.02 2327.86,-265.11"/>
</a>
</g>
</g>
<!-- Node34 -->
<g id="Node000034" class="node">
<title>Node34</title>
<g id="a_Node000034"><a xlink:href="iop_2hdd_2pfs_2src_2irx__imports_8h_source.html" target="_top" xlink:title=" ">
<polygon fill="white" stroke="#666666" points="2767.62,-230 2674.38,-230 2674.38,-199.5 2767.62,-199.5 2767.62,-230"/>
<text text-anchor="start" x="2682.38" y="-216.5" font-family="Helvetica,sans-Serif" font-size="10.00">iop/hdd/pfs/src/irx</text>
<text text-anchor="middle" x="2721" y="-205.25" font-family="Helvetica,sans-Serif" font-size="10.00">_imports.h</text>
</a>
</g>
</g>
<!-- Node1&#45;&gt;Node34 -->
<g id="edge34_Node000001_Node000034" class="edge">
<title>Node1&#45;&gt;Node34</title>
<g id="a_edge34_Node000001_Node000034"><a xlink:title=" ">
<path fill="none" stroke="#63b8ff" d="M2328.15,-273.93C2411.36,-266.34 2548.37,-251.84 2665,-230 2667.96,-229.45 2670.99,-228.83 2674.04,-228.16"/>
<polygon fill="#63b8ff" stroke="#63b8ff" points="2327.93,-270.44 2318.28,-274.82 2328.56,-277.41 2327.93,-270.44"/>
</a>
</g>
</g>
<!-- Node35 -->
<g id="Node000035" class="node">
<title>Node35</title>
<g id="a_Node000035"><a xlink:href="iop_2i_link_2_i_e_e_e1394__bd_2src_2irx__imports_8h_source.html" target="_top" xlink:title=" ">
<polygon fill="white" stroke="#666666" points="2892,-230 2786,-230 2786,-199.5 2892,-199.5 2892,-230"/>
<text text-anchor="start" x="2794" y="-216.5" font-family="Helvetica,sans-Serif" font-size="10.00">iop/iLink/IEEE1394</text>
<text text-anchor="middle" x="2839" y="-205.25" font-family="Helvetica,sans-Serif" font-size="10.00">_bd/src/irx_imports.h</text>
</a>
</g>
</g>
<!-- Node1&#45;&gt;Node35 -->
<g id="edge35_Node000001_Node000035" class="edge">
<title>Node1&#45;&gt;Node35</title>
<g id="a_edge35_Node000001_Node000035"><a xlink:title=" ">
<path fill="none" stroke="#63b8ff" d="M2328.48,-276.07C2431.05,-269.74 2618.61,-255.67 2777,-230 2779.83,-229.54 2782.73,-229.03 2785.65,-228.48"/>
<polygon fill="#63b8ff" stroke="#63b8ff" points="2328.29,-272.57 2318.52,-276.67 2328.71,-279.56 2328.29,-272.57"/>
</a>
</g>
</g>
<!-- Node36 -->
<g id="Node000036" class="node">
<title>Node36</title>
<g id="a_Node000036"><a xlink:href="iop_2i_link_2_i_e_e_e1394__disk_2src_2irx__imports_8h_source.html" target="_top" xlink:title=" ">
<polygon fill="white" stroke="#666666" points="3023.75,-230 2910.25,-230 2910.25,-199.5 3023.75,-199.5 3023.75,-230"/>
<text text-anchor="start" x="2918.25" y="-216.5" font-family="Helvetica,sans-Serif" font-size="10.00">iop/iLink/IEEE1394</text>
<text text-anchor="middle" x="2967" y="-205.25" font-family="Helvetica,sans-Serif" font-size="10.00">_disk/src/irx_imports.h</text>
</a>
</g>
</g>
<!-- Node1&#45;&gt;Node36 -->
<g id="edge36_Node000001_Node000036" class="edge">
<title>Node1&#45;&gt;Node36</title>
<g id="a_edge36_Node000001_Node000036"><a xlink:title=" ">
<path fill="none" stroke="#63b8ff" d="M2328.18,-277.69C2449.82,-272.86 2695.17,-260.05 2901,-230 2903.9,-229.58 2906.86,-229.1 2909.85,-228.58"/>
<polygon fill="#63b8ff" stroke="#63b8ff" points="2328.17,-274.19 2318.31,-278.08 2328.44,-281.19 2328.17,-274.19"/>
</a>
</g>
</g>
<!-- Node37 -->
<g id="Node000037" class="node">
<title>Node37</title>
<g id="a_Node000037"><a xlink:href="i_link__internal_8c_source.html" target="_top" xlink:title=" ">
<polygon fill="white" stroke="#666666" points="3142.38,-230 3041.62,-230 3041.62,-199.5 3142.38,-199.5 3142.38,-230"/>
<text text-anchor="start" x="3049.62" y="-216.5" font-family="Helvetica,sans-Serif" font-size="10.00">iop/iLink/iLinkman</text>
<text text-anchor="middle" x="3092" y="-205.25" font-family="Helvetica,sans-Serif" font-size="10.00">/src/iLink_internal.c</text>
</a>
</g>
</g>
<!-- Node1&#45;&gt;Node37 -->
<g id="edge37_Node000001_Node000037" class="edge">
<title>Node1&#45;&gt;Node37</title>
<g id="a_edge37_Node000001_Node000037"><a xlink:title=" ">
<path fill="none" stroke="#63b8ff" d="M2328.38,-279.7C2468.73,-277.72 2776.74,-268.89 3033,-230 3035.71,-229.59 3038.48,-229.11 3041.26,-228.59"/>
<polygon fill="#63b8ff" stroke="#63b8ff" points="2328.41,-276.2 2318.46,-279.83 2328.51,-283.2 2328.41,-276.2"/>
</a>
</g>
</g>
<!-- Node38 -->
<g id="Node000038" class="node">
<title>Node38</title>
<g id="a_Node000038"><a xlink:href="iop_2i_link_2i_linkman_2src_2irx__imports_8h_source.html" target="_top" xlink:title=" ">
<polygon fill="white" stroke="#666666" points="3255.75,-230 3160.25,-230 3160.25,-199.5 3255.75,-199.5 3255.75,-230"/>
<text text-anchor="start" x="3168.25" y="-216.5" font-family="Helvetica,sans-Serif" font-size="10.00">iop/iLink/iLinkman</text>
<text text-anchor="middle" x="3208" y="-205.25" font-family="Helvetica,sans-Serif" font-size="10.00">/src/irx_imports.h</text>
</a>
</g>
</g>
<!-- Node1&#45;&gt;Node38 -->
<g id="edge38_Node000001_Node000038" class="edge">
<title>Node1&#45;&gt;Node38</title>
<g id="a_edge38_Node000001_Node000038"><a xlink:title=" ">
<path fill="none" stroke="#63b8ff" d="M2328.31,-280.83C2483.96,-280.95 2848.87,-275.79 3151,-230 3153.92,-229.56 3156.92,-229.03 3159.93,-228.45"/>
<polygon fill="#63b8ff" stroke="#63b8ff" points="2328.54,-277.33 2318.54,-280.81 2328.53,-284.33 2328.54,-277.33"/>
</a>
</g>
</g>
<!-- Node39 -->
<g id="Node000039" class="node">
<title>Node39</title>
<g id="a_Node000039"><a xlink:href="iop_2memorycard_2mcman_2src_2irx__imports_8h_source.html" target="_top" xlink:title=" ">
<polygon fill="white" stroke="#666666" points="3394.12,-230 3273.88,-230 3273.88,-199.5 3394.12,-199.5 3394.12,-230"/>
<text text-anchor="start" x="3281.88" y="-216.5" font-family="Helvetica,sans-Serif" font-size="10.00">iop/memorycard/mcman</text>
<text text-anchor="middle" x="3334" y="-205.25" font-family="Helvetica,sans-Serif" font-size="10.00">/src/irx_imports.h</text>
</a>
</g>
</g>
<!-- Node1&#45;&gt;Node39 -->
<g id="edge39_Node000001_Node000039" class="edge">
<title>Node1&#45;&gt;Node39</title>
<g id="a_edge39_Node000001_Node000039"><a xlink:title=" ">
<path fill="none" stroke="#63b8ff" d="M2328.16,-280.47C2497.36,-280.08 2917.09,-274.29 3265,-230 3267.79,-229.64 3270.64,-229.24 3273.51,-228.79"/>
<polygon fill="#63b8ff" stroke="#63b8ff" points="2328.4,-276.97 2318.41,-280.48 2328.41,-283.97 2328.4,-276.97"/>
</a>
</g>
</g>
<!-- Node40 -->
<g id="Node000040" class="node">
<title>Node40</title>
<g id="a_Node000040"><a xlink:href="_mecha_auth_8c_source.html" target="_top" xlink:title=" ">
<polygon fill="white" stroke="#666666" points="3518,-230 3412,-230 3412,-199.5 3518,-199.5 3518,-230"/>
<text text-anchor="start" x="3420" y="-216.5" font-family="Helvetica,sans-Serif" font-size="10.00">iop/security/secrman</text>
<text text-anchor="middle" x="3465" y="-205.25" font-family="Helvetica,sans-Serif" font-size="10.00">/src/MechaAuth.c</text>
</a>
</g>
</g>
<!-- Node1&#45;&gt;Node40 -->
<g id="edge40_Node000001_Node000040" class="edge">
<title>Node1&#45;&gt;Node40</title>
<g id="a_edge40_Node000001_Node000040"><a xlink:title=" ">
<path fill="none" stroke="#63b8ff" d="M2328.1,-278.74C2550.09,-274.04 3194.3,-258.3 3403,-230 3405.85,-229.61 3408.75,-229.16 3411.68,-228.65"/>
<polygon fill="#63b8ff" stroke="#63b8ff" points="2328.35,-275.23 2318.43,-278.94 2328.5,-282.23 2328.35,-275.23"/>
</a>
</g>
</g>
<!-- Node41 -->
<g id="Node000041" class="node">
<title>Node41</title>
<g id="a_Node000041"><a xlink:href="iop_2security_2secrman_2src_2irx__imports_8h_source.html" target="_top" xlink:title=" ">
<polygon fill="white" stroke="#666666" points="3642,-230 3536,-230 3536,-199.5 3642,-199.5 3642,-230"/>
<text text-anchor="start" x="3544" y="-216.5" font-family="Helvetica,sans-Serif" font-size="10.00">iop/security/secrman</text>
<text text-anchor="middle" x="3589" y="-205.25" font-family="Helvetica,sans-Serif" font-size="10.00">/src/irx_imports.h</text>
</a>
</g>
</g>
<!-- Node1&#45;&gt;Node41 -->
<g id="edge41_Node000001_Node000041" class="edge">
<title>Node1&#45;&gt;Node41</title>
<g id="a_edge41_Node000001_Node000041"><a xlink:title=" ">
<path fill="none" stroke="#63b8ff" d="M2328.41,-279.11C2566.55,-275.25 3293.27,-261.19 3527,-230 3529.85,-229.62 3532.75,-229.17 3535.68,-228.67"/>
<polygon fill="#63b8ff" stroke="#63b8ff" points="2328.57,-275.61 2318.62,-279.27 2328.68,-282.6 2328.57,-275.61"/>
</a>
</g>
</g>
<!-- Node42 -->
<g id="Node000042" class="node">
<title>Node42</title>
<g id="a_Node000042"><a xlink:href="cdrom_8c.html" target="_top" xlink:title=" ">
<polygon fill="white" stroke="#666666" points="3766.38,-230 3659.62,-230 3659.62,-199.5 3766.38,-199.5 3766.38,-230"/>
<text text-anchor="start" x="3667.62" y="-216.5" font-family="Helvetica,sans-Serif" font-size="10.00">iop/sound/audsrv/src</text>
<text text-anchor="middle" x="3713" y="-205.25" font-family="Helvetica,sans-Serif" font-size="10.00">/cdrom.c</text>
</a>
</g>
</g>
<!-- Node1&#45;&gt;Node42 -->
<g id="edge42_Node000001_Node000042" class="edge">
<title>Node1&#45;&gt;Node42</title>
<g id="a_edge42_Node000001_Node000042"><a xlink:title=" ">
<path fill="none" stroke="#63b8ff" d="M2327.98,-279.42C2580.74,-276.38 3391.89,-264.12 3651,-230 3653.74,-229.64 3656.53,-229.21 3659.35,-228.74"/>
<polygon fill="#63b8ff" stroke="#63b8ff" points="2328.2,-275.92 2318.24,-279.54 2328.28,-282.92 2328.2,-275.92"/>
</a>
</g>
</g>
<!-- Node43 -->
<g id="Node000043" class="node">
<title>Node43</title>
<g id="a_Node000043"><a xlink:href="iop_2sound_2audsrv_2src_2irx__imports_8h_source.html" target="_top" xlink:title=" ">
<polygon fill="white" stroke="#666666" points="3891.38,-230 3784.62,-230 3784.62,-199.5 3891.38,-199.5 3891.38,-230"/>
<text text-anchor="start" x="3792.62" y="-216.5" font-family="Helvetica,sans-Serif" font-size="10.00">iop/sound/audsrv/src</text>
<text text-anchor="middle" x="3838" y="-205.25" font-family="Helvetica,sans-Serif" font-size="10.00">/irx_imports.h</text>
</a>
</g>
</g>
<!-- Node1&#45;&gt;Node43 -->
<g id="edge43_Node000001_Node000043" class="edge">
<title>Node1&#45;&gt;Node43</title>
<g id="a_edge43_Node000001_Node000043"><a xlink:title=" ">
<path fill="none" stroke="#63b8ff" d="M2328.27,-279.64C2595.79,-277.22 3490.59,-266.52 3775,-230 3778,-229.61 3781.07,-229.15 3784.16,-228.63"/>
<polygon fill="#63b8ff" stroke="#63b8ff" points="2328.24,-276.14 2318.27,-279.73 2328.3,-283.14 2328.24,-276.14"/>
</a>
</g>
</g>
<!-- Node44 -->
<g id="Node000044" class="node">
<title>Node44</title>
<g id="a_Node000044"><a xlink:href="api_8c_source.html" target="_top" xlink:title=" ">
<polygon fill="white" stroke="#666666" points="4016.38,-230 3909.62,-230 3909.62,-199.5 4016.38,-199.5 4016.38,-230"/>
<text text-anchor="start" x="3917.62" y="-216.5" font-family="Helvetica,sans-Serif" font-size="10.00">iop/usb/usbhdfsd/src</text>
<text text-anchor="middle" x="3963" y="-205.25" font-family="Helvetica,sans-Serif" font-size="10.00">/api.c</text>
</a>
</g>
</g>
<!-- Node1&#45;&gt;Node44 -->
<g id="edge44_Node000001_Node000044" class="edge">
<title>Node1&#45;&gt;Node44</title>
<g id="a_edge44_Node000001_Node000044"><a xlink:title=" ">
<path fill="none" stroke="#63b8ff" d="M2328.34,-279.87C2609.93,-278.15 3589.99,-269.42 3900,-230 3903,-229.62 3906.07,-229.16 3909.16,-228.64"/>
<polygon fill="#63b8ff" stroke="#63b8ff" points="2328.53,-276.37 2318.55,-279.93 2328.57,-283.37 2328.53,-276.37"/>
</a>
</g>
</g>
<!-- Node45 -->
<g id="Node000045" class="node">
<title>Node45</title>
<g id="a_Node000045"><a xlink:href="iop_2usb_2usbhdfsd_2src_2irx__imports_8h_source.html" target="_top" xlink:title=" ">
<polygon fill="white" stroke="#666666" points="4141.38,-230 4034.62,-230 4034.62,-199.5 4141.38,-199.5 4141.38,-230"/>
<text text-anchor="start" x="4042.62" y="-216.5" font-family="Helvetica,sans-Serif" font-size="10.00">iop/usb/usbhdfsd/src</text>
<text text-anchor="middle" x="4088" y="-205.25" font-family="Helvetica,sans-Serif" font-size="10.00">/irx_imports.h</text>
</a>
</g>
</g>
<!-- Node1&#45;&gt;Node45 -->
<g id="edge45_Node000001_Node000045" class="edge">
<title>Node1&#45;&gt;Node45</title>
<g id="a_edge45_Node000001_Node000045"><a xlink:title=" ">
<path fill="none" stroke="#63b8ff" d="M2328.14,-280.06C2622.89,-279.01 3689.21,-272.33 4025,-230 4028,-229.62 4031.08,-229.16 4034.17,-228.65"/>
<polygon fill="#63b8ff" stroke="#63b8ff" points="2328.24,-276.56 2318.25,-280.09 2328.26,-283.56 2328.24,-276.56"/>
</a>
</g>
</g>
<!-- Node4 -->
<g id="Node000004" class="node">
<title>Node4</title>
<g id="a_Node000004"><a xlink:href="accdvd__internal_8h_source.html" target="_top" xlink:title=" ">
<polygon fill="white" stroke="#666666" points="502,-163.5 390,-163.5 390,-133 502,-133 502,-163.5"/>
<text text-anchor="start" x="398" y="-150" font-family="Helvetica,sans-Serif" font-size="10.00">iop/arcade/accdvd/src</text>
<text text-anchor="middle" x="446" y="-138.75" font-family="Helvetica,sans-Serif" font-size="10.00">/accdvd_internal.h</text>
</a>
</g>
</g>
<!-- Node3&#45;&gt;Node4 -->
<g id="edge3_Node000003_Node000004" class="edge">
<title>Node3&#45;&gt;Node4</title>
<g id="a_edge3_Node000003_Node000004"><a xlink:title=" ">
<path fill="none" stroke="#63b8ff" d="M579.12,-195.41C550.37,-185.44 515.29,-173.28 488.36,-163.94"/>
<polygon fill="#63b8ff" stroke="#63b8ff" points="577.77,-198.65 588.36,-198.62 580.06,-192.03 577.77,-198.65"/>
</a>
</g>
</g>
<!-- Node3&#45;&gt;Node11 -->
<g id="edge10_Node000003_Node000011" class="edge">
<title>Node3&#45;&gt;Node11</title>
<g id="a_edge10_Node000003_Node000011"><a xlink:title=" ">
<path fill="none" stroke="#63b8ff" d="M656.88,-191.46C667.09,-182.32 678.62,-171.98 687.73,-163.83"/>
<polygon fill="#63b8ff" stroke="#63b8ff" points="654.58,-188.82 649.47,-198.1 659.25,-194.04 654.58,-188.82"/>
</a>
</g>
</g>
<!-- Node5 -->
<g id="Node000005" class="node">
<title>Node5</title>
<g id="a_Node000005"><a xlink:href="accdvdi-entry_8c_source.html" target="_top" xlink:title=" ">
<polygon fill="white" stroke="#666666" points="112,-97 0,-97 0,-66.5 112,-66.5 112,-97"/>
<text text-anchor="start" x="8" y="-83.5" font-family="Helvetica,sans-Serif" font-size="10.00">iop/arcade/accdvd/src</text>
<text text-anchor="middle" x="56" y="-72.25" font-family="Helvetica,sans-Serif" font-size="10.00">/accdvdi&#45;entry.c</text>
</a>
</g>
</g>
<!-- Node4&#45;&gt;Node5 -->
<g id="edge4_Node000004_Node000005" class="edge">
<title>Node4&#45;&gt;Node5</title>
<g id="a_edge4_Node000004_Node000005"><a xlink:title=" ">
<path fill="none" stroke="#63b8ff" d="M378.7,-138.09C312.83,-128.84 209.73,-113.57 121,-97 118.16,-96.47 115.26,-95.91 112.33,-95.32"/>
<polygon fill="#63b8ff" stroke="#63b8ff" points="377.86,-141.51 388.25,-139.43 378.83,-134.58 377.86,-141.51"/>
</a>
</g>
</g>
<!-- Node6 -->
<g id="Node000006" class="node">
<title>Node6</title>
<g id="a_Node000006"><a xlink:href="acd_8c_source.html" target="_top" xlink:title=" ">
<polygon fill="white" stroke="#666666" points="242,-97 130,-97 130,-66.5 242,-66.5 242,-97"/>
<text text-anchor="start" x="138" y="-83.5" font-family="Helvetica,sans-Serif" font-size="10.00">iop/arcade/accdvd/src</text>
<text text-anchor="middle" x="186" y="-72.25" font-family="Helvetica,sans-Serif" font-size="10.00">/acd.c</text>
</a>
</g>
</g>
<!-- Node4&#45;&gt;Node6 -->
<g id="edge5_Node000004_Node000006" class="edge">
<title>Node4&#45;&gt;Node6</title>
<g id="a_edge5_Node000004_Node000006"><a xlink:title=" ">
<path fill="none" stroke="#63b8ff" d="M378.54,-130.51C336.23,-120.02 282.31,-106.64 242.31,-96.72"/>
<polygon fill="#63b8ff" stroke="#63b8ff" points="377.57,-133.88 388.11,-132.89 379.25,-127.09 377.57,-133.88"/>
</a>
</g>
</g>
<!-- Node7 -->
<g id="Node000007" class="node">
<title>Node7</title>
<g id="a_Node000007"><a xlink:href="cdc_8c_source.html" target="_top" xlink:title=" ">
<polygon fill="white" stroke="#666666" points="372,-97 260,-97 260,-66.5 372,-66.5 372,-97"/>
<text text-anchor="start" x="268" y="-83.5" font-family="Helvetica,sans-Serif" font-size="10.00">iop/arcade/accdvd/src</text>
<text text-anchor="middle" x="316" y="-72.25" font-family="Helvetica,sans-Serif" font-size="10.00">/cdc.c</text>
</a>
</g>
</g>
<!-- Node4&#45;&gt;Node7 -->
<g id="edge6_Node000004_Node000007" class="edge">
<title>Node4&#45;&gt;Node7</title>
<g id="a_edge6_Node000004_Node000007"><a xlink:title=" ">
<path fill="none" stroke="#63b8ff" d="M406.32,-127.56C386.68,-117.82 363.39,-106.26 345.38,-97.33"/>
<polygon fill="#63b8ff" stroke="#63b8ff" points="404.63,-130.63 415.15,-131.94 407.74,-124.36 404.63,-130.63"/>
</a>
</g>
</g>
<!-- Node8 -->
<g id="Node000008" class="node">
<title>Node8</title>
<g id="a_Node000008"><a xlink:href="cddrv_8c_source.html" target="_top" xlink:title=" ">
<polygon fill="white" stroke="#666666" points="502,-97 390,-97 390,-66.5 502,-66.5 502,-97"/>
<text text-anchor="start" x="398" y="-83.5" font-family="Helvetica,sans-Serif" font-size="10.00">iop/arcade/accdvd/src</text>
<text text-anchor="middle" x="446" y="-72.25" font-family="Helvetica,sans-Serif" font-size="10.00">/cddrv.c</text>
</a>
</g>
</g>
<!-- Node4&#45;&gt;Node8 -->
<g id="edge7_Node000004_Node000008" class="edge">
<title>Node4&#45;&gt;Node8</title>
<g id="a_edge7_Node000004_Node000008"><a xlink:title=" ">
<path fill="none" stroke="#63b8ff" d="M446,-121.31C446,-113.14 446,-104.41 446,-97.33"/>
<polygon fill="#63b8ff" stroke="#63b8ff" points="442.5,-121.1 446,-131.1 449.5,-121.1 442.5,-121.1"/>
</a>
</g>
</g>
<!-- Node9 -->
<g id="Node000009" class="node">
<title>Node9</title>
<g id="a_Node000009"><a xlink:href="cdfs_8c_source.html" target="_top" xlink:title=" ">
<polygon fill="white" stroke="#666666" points="632,-97 520,-97 520,-66.5 632,-66.5 632,-97"/>
<text text-anchor="start" x="528" y="-83.5" font-family="Helvetica,sans-Serif" font-size="10.00">iop/arcade/accdvd/src</text>
<text text-anchor="middle" x="576" y="-72.25" font-family="Helvetica,sans-Serif" font-size="10.00">/cdfs.c</text>
</a>
</g>
</g>
<!-- Node4&#45;&gt;Node9 -->
<g id="edge8_Node000004_Node000009" class="edge">
<title>Node4&#45;&gt;Node9</title>
<g id="a_edge8_Node000004_Node000009"><a xlink:title=" ">
<path fill="none" stroke="#63b8ff" d="M485.68,-127.56C505.32,-117.82 528.61,-106.26 546.62,-97.33"/>
<polygon fill="#63b8ff" stroke="#63b8ff" points="484.26,-124.36 476.85,-131.94 487.37,-130.63 484.26,-124.36"/>
</a>
</g>
</g>
<!-- Node10 -->
<g id="Node000010" class="node">
<title>Node10</title>
<g id="a_Node000010"><a xlink:href="cdi_8c_source.html" target="_top" xlink:title=" ">
<polygon fill="white" stroke="#666666" points="762,-97 650,-97 650,-66.5 762,-66.5 762,-97"/>
<text text-anchor="start" x="658" y="-83.5" font-family="Helvetica,sans-Serif" font-size="10.00">iop/arcade/accdvd/src</text>
<text text-anchor="middle" x="706" y="-72.25" font-family="Helvetica,sans-Serif" font-size="10.00">/cdi.c</text>
</a>
</g>
</g>
<!-- Node4&#45;&gt;Node10 -->
<g id="edge9_Node000004_Node000010" class="edge">
<title>Node4&#45;&gt;Node10</title>
<g id="a_edge9_Node000004_Node000010"><a xlink:title=" ">
<path fill="none" stroke="#63b8ff" d="M513.46,-130.51C555.77,-120.02 609.69,-106.64 649.69,-96.72"/>
<polygon fill="#63b8ff" stroke="#63b8ff" points="512.75,-127.09 503.89,-132.89 514.43,-133.88 512.75,-127.09"/>
</a>
</g>
</g>
<!-- Node12 -->
<g id="Node000012" class="node">
<title>Node12</title>
<g id="a_Node000012"><a xlink:href="accdvde__internal_8h_source.html" target="_top" xlink:title=" ">
<polygon fill="white" stroke="#666666" points="896.25,-97 779.75,-97 779.75,-66.5 896.25,-66.5 896.25,-97"/>
<text text-anchor="start" x="787.75" y="-83.5" font-family="Helvetica,sans-Serif" font-size="10.00">iop/arcade/accdvde</text>
<text text-anchor="middle" x="838" y="-72.25" font-family="Helvetica,sans-Serif" font-size="10.00">/src/accdvde_internal.h</text>
</a>
</g>
</g>
<!-- Node11&#45;&gt;Node12 -->
<g id="edge11_Node000011_Node000012" class="edge">
<title>Node11&#45;&gt;Node12</title>
<g id="a_edge11_Node000011_Node000012"><a xlink:title=" ">
<path fill="none" stroke="#63b8ff" d="M744.62,-127.7C764.92,-117.93 789.06,-106.31 807.71,-97.33"/>
<polygon fill="#63b8ff" stroke="#63b8ff" points="743.26,-124.47 735.77,-131.96 746.3,-130.77 743.26,-124.47"/>
</a>
</g>
</g>
<!-- Node13 -->
<g id="Node000013" class="node">
<title>Node13</title>
<g id="a_Node000013"><a xlink:href="accdvde-entry_8c_source.html" target="_top" xlink:title=" ">
<polygon fill="white" stroke="#666666" points="829.88,-30.5 726.12,-30.5 726.12,0 829.88,0 829.88,-30.5"/>
<text text-anchor="start" x="734.12" y="-17" font-family="Helvetica,sans-Serif" font-size="10.00">iop/arcade/accdvde</text>
<text text-anchor="middle" x="778" y="-5.75" font-family="Helvetica,sans-Serif" font-size="10.00">/src/accdvde&#45;entry.c</text>
</a>
</g>
</g>
<!-- Node12&#45;&gt;Node13 -->
<g id="edge12_Node000012_Node000013" class="edge">
<title>Node12&#45;&gt;Node13</title>
<g id="a_edge12_Node000012_Node000013"><a xlink:title=" ">
<path fill="none" stroke="#63b8ff" d="M816.75,-57.91C808.37,-48.9 798.99,-38.82 791.56,-30.83"/>
<polygon fill="#63b8ff" stroke="#63b8ff" points="813.98,-60.07 823.35,-65.01 819.11,-55.3 813.98,-60.07"/>
</a>
</g>
</g>
<!-- Node14 -->
<g id="Node000014" class="node">
<title>Node14</title>
<g id="a_Node000014"><a xlink:href="cde_8c_source.html" target="_top" xlink:title=" ">
<polygon fill="white" stroke="#666666" points="948.38,-30.5 847.62,-30.5 847.62,0 948.38,0 948.38,-30.5"/>
<text text-anchor="start" x="855.62" y="-17" font-family="Helvetica,sans-Serif" font-size="10.00">iop/arcade/accdvde</text>
<text text-anchor="middle" x="898" y="-5.75" font-family="Helvetica,sans-Serif" font-size="10.00">/src/cde.c</text>
</a>
</g>
</g>
<!-- Node12&#45;&gt;Node14 -->
<g id="edge13_Node000012_Node000014" class="edge">
<title>Node12&#45;&gt;Node14</title>
<g id="a_edge13_Node000012_Node000014"><a xlink:title=" ">
<path fill="none" stroke="#63b8ff" d="M859.25,-57.91C867.63,-48.9 877.01,-38.82 884.44,-30.83"/>
<polygon fill="#63b8ff" stroke="#63b8ff" points="856.89,-55.3 852.65,-65.01 862.02,-60.07 856.89,-55.3"/>
</a>
</g>
</g>
<!-- Node16 -->
<g id="Node000016" class="node">
<title>Node16</title>
<g id="a_Node000016"><a xlink:href="iopmain_8c_source.html" target="_top" xlink:title=" ">
<polygon fill="white" stroke="#666666" points="875.12,-163.5 772.88,-163.5 772.88,-133 875.12,-133 875.12,-163.5"/>
<text text-anchor="start" x="780.88" y="-150" font-family="Helvetica,sans-Serif" font-size="10.00">iop/arcade/acrtc/src</text>
<text text-anchor="middle" x="824" y="-138.75" font-family="Helvetica,sans-Serif" font-size="10.00">/iopmain.c</text>
</a>
</g>
</g>
<!-- Node15&#45;&gt;Node16 -->
<g id="edge16_Node000015_Node000016" class="edge">
<title>Node15&#45;&gt;Node16</title>
<g id="a_edge16_Node000015_Node000016"><a xlink:title=" ">
<path fill="none" stroke="#63b8ff" d="M811.87,-188.38C814.45,-180.05 817.23,-171.08 819.48,-163.83"/>
<polygon fill="#63b8ff" stroke="#63b8ff" points="808.61,-187.08 808.99,-197.67 815.29,-189.15 808.61,-187.08"/>
</a>
</g>
</g>
<!-- Node19 -->
<g id="Node000019" class="node">
<title>Node19</title>
<g id="a_Node000019"><a xlink:href="cdvdfsv_8c_source.html" target="_top" xlink:title=" ">
<polygon fill="white" stroke="#666666" points="1101.38,-163.5 994.62,-163.5 994.62,-133 1101.38,-133 1101.38,-163.5"/>
<text text-anchor="start" x="1002.62" y="-150" font-family="Helvetica,sans-Serif" font-size="10.00">iop/cdvd/cdvdfsv/src</text>
<text text-anchor="middle" x="1048" y="-138.75" font-family="Helvetica,sans-Serif" font-size="10.00">/cdvdfsv.c</text>
</a>
</g>
</g>
<!-- Node18&#45;&gt;Node19 -->
<g id="edge19_Node000018_Node000019" class="edge">
<title>Node18&#45;&gt;Node19</title>
<g id="a_edge19_Node000018_Node000019"><a xlink:title=" ">
<path fill="none" stroke="#63b8ff" d="M1048,-187.81C1048,-179.64 1048,-170.91 1048,-163.83"/>
<polygon fill="#63b8ff" stroke="#63b8ff" points="1044.5,-187.6 1048,-197.6 1051.5,-187.6 1044.5,-187.6"/>
</a>
</g>
</g>
<!-- Node22 -->
<g id="Node000022" class="node">
<title>Node22</title>
<g id="a_Node000022"><a xlink:href="cdvdstm_8c_source.html" target="_top" xlink:title=" ">
<polygon fill="white" stroke="#666666" points="1358.88,-163.5 1249.12,-163.5 1249.12,-133 1358.88,-133 1358.88,-163.5"/>
<text text-anchor="start" x="1257.12" y="-150" font-family="Helvetica,sans-Serif" font-size="10.00">iop/cdvd/cdvdstm/src</text>
<text text-anchor="middle" x="1304" y="-138.75" font-family="Helvetica,sans-Serif" font-size="10.00">/cdvdstm.c</text>
</a>
</g>
</g>
<!-- Node21&#45;&gt;Node22 -->
<g id="edge22_Node000021_Node000022" class="edge">
<title>Node21&#45;&gt;Node22</title>
<g id="a_edge22_Node000021_Node000022"><a xlink:title=" ">
<path fill="none" stroke="#63b8ff" d="M1304,-187.81C1304,-179.64 1304,-170.91 1304,-163.83"/>
<polygon fill="#63b8ff" stroke="#63b8ff" points="1300.5,-187.6 1304,-197.6 1307.5,-187.6 1300.5,-187.6"/>
</a>
</g>
</g>
</g>
</svg>
