<?xml version="1.0" encoding="UTF-8" standalone="no"?>
<!DOCTYPE svg PUBLIC "-//W3C//DTD SVG 1.1//EN"
 "http://www.w3.org/Graphics/SVG/1.1/DTD/svg11.dtd">
<!-- Generated by graphviz version 12.2.0 (20241103.1931)
 -->
<!-- Title: iop/system/iopmgr/src/commandline.c Pages: 1 -->
<!--zoomable 315 -->

<svg id="main" version="1.1" xmlns="http://www.w3.org/2000/svg" xmlns:xlink="http://www.w3.org/1999/xlink" xml:space="preserve" onload="init(evt)">

<style type="text/css"><![CDATA[
.node, .edge {opacity: 0.7;}
.node.selected, .edge.selected {opacity: 1;}
.edge:hover path { stroke: red; }
.edge:hover polygon { stroke: red; fill: red; }
]]></style>

<defs>
  <circle id="rim" cx="0" cy="0" r="7"/>
  <circle id="rim2" cx="0" cy="0" r="3.5"/>
  <g id="zoomPlus">
    <use xlink:href="#rim" fill="#404040"><set attributeName="fill" to="#808080" begin="zoomplus.mouseover" end="zoomplus.mouseout"/></use>
    <path d="M-4,0h8M0,-4v8" fill="none" stroke="white" stroke-width="1.5" pointer-events="none"/>
  </g>
  <g id="zoomMin">
    <use xlink:href="#rim" fill="#404040"><set attributeName="fill" to="#808080" begin="zoomminus.mouseover" end="zoomminus.mouseout"/></use>
    <path d="M-4,0h8" fill="none" stroke="white" stroke-width="1.5" pointer-events="none"/>
  </g>
  <g id="arrowUp" transform="translate(30 24)">
    <use xlink:href="#rim"/>
    <path pointer-events="none" fill="none" stroke="white" stroke-width="1.5" d="M0,-3.0v7 M-2.5,-0.5L0,-3.0L2.5,-0.5"/>
  </g>
  <g id="arrowRight" transform="rotate(90) translate(36 -43)">
    <use xlink:href="#rim"/>
    <path pointer-events="none" fill="none" stroke="white" stroke-width="1.5" d="M0,-3.0v7 M-2.5,-0.5L0,-3.0L2.5,-0.5"/>
  </g>
  <g id="arrowDown" transform="rotate(180) translate(-30 -48)">
    <use xlink:href="#rim"/>
    <path pointer-events="none" fill="none" stroke="white" stroke-width="1.5" d="M0,-3.0v7 M-2.5,-0.5L0,-3.0L2.5,-0.5"/>
  </g>
  <g id="arrowLeft" transform="rotate(270) translate(-36 17)">
    <use xlink:href="#rim"/>
    <path pointer-events="none" fill="none" stroke="white" stroke-width="1.5" d="M0,-3.0v7 M-2.5,-0.5L0,-3.0L2.5,-0.5"/>
  </g>
  <g id="resetDef">
    <use xlink:href="#rim2" fill="#404040"><set attributeName="fill" to="#808080" begin="reset.mouseover" end="reset.mouseout"/></use>
  </g>
</defs>
<script type="application/ecmascript">
var viewWidth = 568;
var viewHeight = 315;
var sectionId = 'dynsection-0';
</script>
<script type="application/ecmascript" xlink:href="svg.min.js"/>
<svg id="graph" class="graph">
<g id="viewport">
<title>iop/system/iopmgr/src/commandline.c</title>
<!-- Node1 -->
<g id="Node000001" class="node">
<title>Node1</title>
<g id="a_Node000001"><a xlink:title=" ">
<polygon fill="#999999" stroke="#666666" points="463.12,-306.75 351.12,-306.75 351.12,-276.25 463.12,-276.25 463.12,-306.75"/>
<text text-anchor="start" x="359.12" y="-293.25" font-family="Helvetica,sans-Serif" font-size="10.00">iop/system/iopmgr/src</text>
<text text-anchor="middle" x="407.12" y="-282" font-family="Helvetica,sans-Serif" font-size="10.00">/commandline.c</text>
</a>
</g>
</g>
<!-- Node2 -->
<g id="Node000002" class="node">
<title>Node2</title>
<g id="a_Node000002"><a xlink:href="defs_8h.html" target="_top" xlink:title=" ">
<polygon fill="white" stroke="#666666" points="556.25,-240.25 514,-240.25 514,-221 556.25,-221 556.25,-240.25"/>
<text text-anchor="middle" x="535.12" y="-226.75" font-family="Helvetica,sans-Serif" font-size="10.00">defs.h</text>
</a>
</g>
</g>
<!-- Node1&#45;&gt;Node2 -->
<g id="edge1_Node000001_Node000002" class="edge">
<title>Node1&#45;&gt;Node2</title>
<g id="a_edge1_Node000001_Node000002"><a xlink:title=" ">
<path fill="none" stroke="#63b8ff" d="M439.09,-275.8C459.34,-266.48 485.34,-254.52 505.18,-245.4"/>
<polygon fill="#63b8ff" stroke="#63b8ff" points="506.5,-248.65 514.12,-241.29 503.57,-242.29 506.5,-248.65"/>
</a>
</g>
</g>
<!-- Node6 -->
<g id="Node000006" class="node">
<title>Node6</title>
<g id="a_Node000006"><a xlink:href="ioman_x_8h.html" target="_top" xlink:title=" ">
<polygon fill="white" stroke="#666666" points="145.38,-185 88.88,-185 88.88,-165.75 145.38,-165.75 145.38,-185"/>
<text text-anchor="middle" x="117.12" y="-171.5" font-family="Helvetica,sans-Serif" font-size="10.00">iomanX.h</text>
</a>
</g>
</g>
<!-- Node1&#45;&gt;Node6 -->
<g id="edge5_Node000001_Node000006" class="edge">
<title>Node1&#45;&gt;Node6</title>
<g id="a_edge5_Node000001_Node000006"><a xlink:title=" ">
<path fill="none" stroke="#63b8ff" d="M362.7,-275.81C334.31,-266.2 296.83,-253.08 264.12,-240.25 223.01,-224.12 176.37,-203.44 146.86,-190.05"/>
<polygon fill="#63b8ff" stroke="#63b8ff" points="148.37,-186.89 137.81,-185.92 145.46,-193.26 148.37,-186.89"/>
</a>
</g>
</g>
<!-- Node15 -->
<g id="Node000015" class="node">
<title>Node15</title>
<g id="a_Node000015"><a xlink:href="stdio_8h.html" target="_top" xlink:title=" ">
<polygon fill="white" stroke="#666666" points="429.38,-185 384.88,-185 384.88,-165.75 429.38,-165.75 429.38,-185"/>
<text text-anchor="middle" x="407.12" y="-171.5" font-family="Helvetica,sans-Serif" font-size="10.00">stdio.h</text>
</a>
</g>
</g>
<!-- Node1&#45;&gt;Node15 -->
<g id="edge14_Node000001_Node000015" class="edge">
<title>Node1&#45;&gt;Node15</title>
<g id="a_edge14_Node000001_Node000015"><a xlink:title=" ">
<path fill="none" stroke="#63b8ff" d="M407.12,-276.05C407.12,-256 407.12,-219.65 407.12,-196.82"/>
<polygon fill="#63b8ff" stroke="#63b8ff" points="410.63,-196.96 407.13,-186.96 403.63,-196.96 410.63,-196.96"/>
</a>
</g>
</g>
<!-- Node17 -->
<g id="Node000017" class="node">
<title>Node17</title>
<g id="a_Node000017"><a xlink:href="sysclib_8h.html" target="_top" xlink:title=" ">
<polygon fill="white" stroke="#666666" points="500.88,-185 447.38,-185 447.38,-165.75 500.88,-165.75 500.88,-185"/>
<text text-anchor="middle" x="474.12" y="-171.5" font-family="Helvetica,sans-Serif" font-size="10.00">sysclib.h</text>
</a>
</g>
</g>
<!-- Node1&#45;&gt;Node17 -->
<g id="edge18_Node000001_Node000017" class="edge">
<title>Node1&#45;&gt;Node17</title>
<g id="a_edge18_Node000001_Node000017"><a xlink:title=" ">
<path fill="none" stroke="#63b8ff" d="M415.61,-276.05C427.65,-255.53 449.72,-217.95 463.04,-195.25"/>
<polygon fill="#63b8ff" stroke="#63b8ff" points="465.99,-197.15 468.03,-186.75 459.95,-193.6 465.99,-197.15"/>
</a>
</g>
</g>
<!-- Node20 -->
<g id="Node000020" class="node">
<title>Node20</title>
<g id="a_Node000020"><a xlink:href="iopmgr_8h.html" target="_top" xlink:title=" ">
<polygon fill="white" stroke="#666666" points="325.5,-240.25 272.75,-240.25 272.75,-221 325.5,-221 325.5,-240.25"/>
<text text-anchor="middle" x="299.12" y="-226.75" font-family="Helvetica,sans-Serif" font-size="10.00">iopmgr.h</text>
</a>
</g>
</g>
<!-- Node1&#45;&gt;Node20 -->
<g id="edge25_Node000001_Node000020" class="edge">
<title>Node1&#45;&gt;Node20</title>
<g id="a_edge25_Node000001_Node000020"><a xlink:title=" ">
<path fill="none" stroke="#63b8ff" d="M380.15,-275.8C363.55,-266.74 342.35,-255.19 325.8,-246.16"/>
<polygon fill="#63b8ff" stroke="#63b8ff" points="327.47,-243.09 317.02,-241.38 324.12,-249.24 327.47,-243.09"/>
</a>
</g>
</g>
<!-- Node3 -->
<g id="Node000003" class="node">
<title>Node3</title>
<g id="a_Node000003"><a xlink:href="iop_2kernel_2include_2types_8h_source.html" target="_top" xlink:title=" ">
<polygon fill="white" stroke="#666666" points="555.5,-74.5 508.75,-74.5 508.75,-55.25 555.5,-55.25 555.5,-74.5"/>
<text text-anchor="middle" x="532.12" y="-61" font-family="Helvetica,sans-Serif" font-size="10.00">types.h</text>
</a>
</g>
</g>
<!-- Node2&#45;&gt;Node3 -->
<g id="edge2_Node000002_Node000003" class="edge">
<title>Node2&#45;&gt;Node3</title>
<g id="a_edge2_Node000002_Node000003"><a xlink:title=" ">
<path fill="none" stroke="#63b8ff" d="M536.88,-220.63C540.51,-200.72 548.1,-151.45 543.12,-110.5 542.14,-102.38 540.18,-93.62 538.19,-86.02"/>
<polygon fill="#63b8ff" stroke="#63b8ff" points="541.57,-85.11 535.47,-76.44 534.83,-87.02 541.57,-85.11"/>
</a>
</g>
</g>
<!-- Node4 -->
<g id="Node000004" class="node">
<title>Node4</title>
<g id="a_Node000004"><a xlink:title=" ">
<polygon fill="#e0e0e0" stroke="#999999" points="560.38,-19.25 509.88,-19.25 509.88,0 560.38,0 560.38,-19.25"/>
<text text-anchor="middle" x="535.12" y="-5.75" font-family="Helvetica,sans-Serif" font-size="10.00">stddef.h</text>
</a>
</g>
</g>
<!-- Node3&#45;&gt;Node4 -->
<g id="edge3_Node000003_Node000004" class="edge">
<title>Node3&#45;&gt;Node4</title>
<g id="a_edge3_Node000003_Node000004"><a xlink:title=" ">
<path fill="none" stroke="#63b8ff" d="M532.62,-55.08C532.99,-48.49 533.51,-39.21 533.99,-30.82"/>
<polygon fill="#63b8ff" stroke="#63b8ff" points="537.47,-31.3 534.53,-21.12 530.48,-30.91 537.47,-31.3"/>
</a>
</g>
</g>
<!-- Node5 -->
<g id="Node000005" class="node">
<title>Node5</title>
<g id="a_Node000005"><a xlink:href="tamtypes_8h.html" target="_top" xlink:title=" ">
<polygon fill="white" stroke="#666666" points="491.75,-19.25 428.5,-19.25 428.5,0 491.75,0 491.75,-19.25"/>
<text text-anchor="middle" x="460.12" y="-5.75" font-family="Helvetica,sans-Serif" font-size="10.00">tamtypes.h</text>
</a>
</g>
</g>
<!-- Node3&#45;&gt;Node5 -->
<g id="edge4_Node000003_Node000005" class="edge">
<title>Node3&#45;&gt;Node5</title>
<g id="a_edge4_Node000003_Node000005"><a xlink:title=" ">
<path fill="none" stroke="#63b8ff" d="M519.91,-54.84C509.3,-46.99 493.69,-35.45 481.08,-26.12"/>
<polygon fill="#63b8ff" stroke="#63b8ff" points="483.5,-23.56 473.38,-20.42 479.33,-29.19 483.5,-23.56"/>
</a>
</g>
</g>
<!-- Node7 -->
<g id="Node000007" class="node">
<title>Node7</title>
<g id="a_Node000007"><a xlink:title=" ">
<polygon fill="#e0e0e0" stroke="#999999" points="279.5,-129.75 232.75,-129.75 232.75,-110.5 279.5,-110.5 279.5,-129.75"/>
<text text-anchor="middle" x="256.12" y="-116.25" font-family="Helvetica,sans-Serif" font-size="10.00">types.h</text>
</a>
</g>
</g>
<!-- Node6&#45;&gt;Node7 -->
<g id="edge6_Node000006_Node000007" class="edge">
<title>Node6&#45;&gt;Node7</title>
<g id="a_edge6_Node000006_Node000007"><a xlink:title=" ">
<path fill="none" stroke="#63b8ff" d="M140.7,-165.34C162.97,-156.81 196.62,-143.92 221.85,-134.26"/>
<polygon fill="#63b8ff" stroke="#63b8ff" points="222.93,-137.59 231.02,-130.74 220.43,-131.05 222.93,-137.59"/>
</a>
</g>
</g>
<!-- Node8 -->
<g id="Node000008" class="node">
<title>Node8</title>
<g id="a_Node000008"><a xlink:href="errno_8h.html" target="_top" xlink:title=" ">
<polygon fill="white" stroke="#666666" points="214.75,-129.75 169.5,-129.75 169.5,-110.5 214.75,-110.5 214.75,-129.75"/>
<text text-anchor="middle" x="192.12" y="-116.25" font-family="Helvetica,sans-Serif" font-size="10.00">errno.h</text>
</a>
</g>
</g>
<!-- Node6&#45;&gt;Node8 -->
<g id="edge7_Node000006_Node000008" class="edge">
<title>Node6&#45;&gt;Node8</title>
<g id="a_edge7_Node000006_Node000008"><a xlink:title=" ">
<path fill="none" stroke="#63b8ff" d="M129.85,-165.34C140.84,-157.54 156.97,-146.09 170.06,-136.79"/>
<polygon fill="#63b8ff" stroke="#63b8ff" points="171.98,-139.72 178.11,-131.08 167.93,-134.01 171.98,-139.72"/>
</a>
</g>
</g>
<!-- Node9 -->
<g id="Node000009" class="node">
<title>Node9</title>
<g id="a_Node000009"><a xlink:title=" ">
<polygon fill="#e0e0e0" stroke="#999999" points="432.38,-129.75 381.88,-129.75 381.88,-110.5 432.38,-110.5 432.38,-129.75"/>
<text text-anchor="middle" x="407.12" y="-116.25" font-family="Helvetica,sans-Serif" font-size="10.00">stdarg.h</text>
</a>
</g>
</g>
<!-- Node6&#45;&gt;Node9 -->
<g id="edge8_Node000006_Node000009" class="edge">
<title>Node6&#45;&gt;Node9</title>
<g id="a_edge8_Node000006_Node000009"><a xlink:title=" ">
<path fill="none" stroke="#63b8ff" d="M145.77,-167.5C148.59,-166.88 151.41,-166.29 154.12,-165.75 247.38,-147.24 274.62,-149.68 370.48,-130.15"/>
<polygon fill="#63b8ff" stroke="#63b8ff" points="370.99,-133.62 380.08,-128.17 369.58,-126.76 370.99,-133.62"/>
</a>
</g>
</g>
<!-- Node10 -->
<g id="Node000010" class="node">
<title>Node10</title>
<g id="a_Node000010"><a xlink:href="io__common_8h.html" target="_top" xlink:title=" ">
<polygon fill="white" stroke="#666666" points="151,-129.75 77.25,-129.75 77.25,-110.5 151,-110.5 151,-129.75"/>
<text text-anchor="middle" x="114.12" y="-116.25" font-family="Helvetica,sans-Serif" font-size="10.00">io_common.h</text>
</a>
</g>
</g>
<!-- Node6&#45;&gt;Node10 -->
<g id="edge9_Node000006_Node000010" class="edge">
<title>Node6&#45;&gt;Node10</title>
<g id="a_edge9_Node000006_Node000010"><a xlink:title=" ">
<path fill="none" stroke="#63b8ff" d="M116.63,-165.58C116.26,-158.99 115.74,-149.71 115.26,-141.32"/>
<polygon fill="#63b8ff" stroke="#63b8ff" points="118.77,-141.41 114.72,-131.62 111.78,-141.8 118.77,-141.41"/>
</a>
</g>
</g>
<!-- Node13 -->
<g id="Node000013" class="node">
<title>Node13</title>
<g id="a_Node000013"><a xlink:href="iox__stat_8h.html" target="_top" xlink:title=" ">
<polygon fill="white" stroke="#666666" points="58.75,-129.75 1.5,-129.75 1.5,-110.5 58.75,-110.5 58.75,-129.75"/>
<text text-anchor="middle" x="30.12" y="-116.25" font-family="Helvetica,sans-Serif" font-size="10.00">iox_stat.h</text>
</a>
</g>
</g>
<!-- Node6&#45;&gt;Node13 -->
<g id="edge12_Node000006_Node000013" class="edge">
<title>Node6&#45;&gt;Node13</title>
<g id="a_edge12_Node000006_Node000013"><a xlink:title=" ">
<path fill="none" stroke="#63b8ff" d="M102.37,-165.34C89.24,-157.31 69.8,-145.41 54.39,-135.98"/>
<polygon fill="#63b8ff" stroke="#63b8ff" points="56.6,-133.23 46.25,-130.99 52.95,-139.2 56.6,-133.23"/>
</a>
</g>
</g>
<!-- Node11 -->
<g id="Node000011" class="node">
<title>Node11</title>
<g id="a_Node000011"><a xlink:href="fcntl_8h_source.html" target="_top" xlink:title=" ">
<polygon fill="white" stroke="#666666" points="225.25,-74.5 165,-74.5 165,-55.25 225.25,-55.25 225.25,-74.5"/>
<text text-anchor="middle" x="195.12" y="-61" font-family="Helvetica,sans-Serif" font-size="10.00">sys/fcntl.h</text>
</a>
</g>
</g>
<!-- Node10&#45;&gt;Node11 -->
<g id="edge10_Node000010_Node000011" class="edge">
<title>Node10&#45;&gt;Node11</title>
<g id="a_edge10_Node000010_Node000011"><a xlink:title=" ">
<path fill="none" stroke="#63b8ff" d="M127.87,-110.09C139.85,-102.21 157.5,-90.61 171.71,-81.27"/>
<polygon fill="#63b8ff" stroke="#63b8ff" points="173.62,-84.2 180.05,-75.78 169.77,-78.35 173.62,-84.2"/>
</a>
</g>
</g>
<!-- Node12 -->
<g id="Node000012" class="node">
<title>Node12</title>
<g id="a_Node000012"><a xlink:href="unistd_8h_source.html" target="_top" xlink:title=" ">
<polygon fill="white" stroke="#666666" points="147,-74.5 79.25,-74.5 79.25,-55.25 147,-55.25 147,-74.5"/>
<text text-anchor="middle" x="113.12" y="-61" font-family="Helvetica,sans-Serif" font-size="10.00">sys/unistd.h</text>
</a>
</g>
</g>
<!-- Node10&#45;&gt;Node12 -->
<g id="edge11_Node000010_Node000012" class="edge">
<title>Node10&#45;&gt;Node12</title>
<g id="a_edge11_Node000010_Node000012"><a xlink:title=" ">
<path fill="none" stroke="#63b8ff" d="M113.96,-110.33C113.84,-103.82 113.67,-94.67 113.51,-86.37"/>
<polygon fill="#63b8ff" stroke="#63b8ff" points="117.01,-86.3 113.32,-76.37 110.01,-86.44 117.01,-86.3"/>
</a>
</g>
</g>
<!-- Node14 -->
<g id="Node000014" class="node">
<title>Node14</title>
<g id="a_Node000014"><a xlink:href="time_8h.html" target="_top" xlink:title=" ">
<polygon fill="white" stroke="#666666" points="60.25,-74.5 0,-74.5 0,-55.25 60.25,-55.25 60.25,-74.5"/>
<text text-anchor="middle" x="30.12" y="-61" font-family="Helvetica,sans-Serif" font-size="10.00">sys/time.h</text>
</a>
</g>
</g>
<!-- Node13&#45;&gt;Node14 -->
<g id="edge13_Node000013_Node000014" class="edge">
<title>Node13&#45;&gt;Node14</title>
<g id="a_edge13_Node000013_Node000014"><a xlink:title=" ">
<path fill="none" stroke="#63b8ff" d="M30.12,-110.33C30.12,-103.82 30.12,-94.67 30.12,-86.37"/>
<polygon fill="#63b8ff" stroke="#63b8ff" points="33.63,-86.37 30.13,-76.37 26.63,-86.37 33.63,-86.37"/>
</a>
</g>
</g>
<!-- Node15&#45;&gt;Node9 -->
<g id="edge15_Node000015_Node000009" class="edge">
<title>Node15&#45;&gt;Node9</title>
<g id="a_edge15_Node000015_Node000009"><a xlink:title=" ">
<path fill="none" stroke="#63b8ff" d="M407.12,-165.58C407.12,-159.07 407.12,-149.92 407.12,-141.62"/>
<polygon fill="#63b8ff" stroke="#63b8ff" points="410.63,-141.62 407.13,-131.62 403.63,-141.62 410.63,-141.62"/>
</a>
</g>
</g>
<!-- Node16 -->
<g id="Node000016" class="node">
<title>Node16</title>
<g id="a_Node000016"><a xlink:href="irx_8h.html" target="_top" xlink:title=" ">
<polygon fill="white" stroke="#666666" points="363.75,-129.75 330.5,-129.75 330.5,-110.5 363.75,-110.5 363.75,-129.75"/>
<text text-anchor="middle" x="347.12" y="-116.25" font-family="Helvetica,sans-Serif" font-size="10.00">irx.h</text>
</a>
</g>
</g>
<!-- Node15&#45;&gt;Node16 -->
<g id="edge16_Node000015_Node000016" class="edge">
<title>Node15&#45;&gt;Node16</title>
<g id="a_edge16_Node000015_Node000016"><a xlink:title=" ">
<path fill="none" stroke="#63b8ff" d="M396.95,-165.34C388.36,-157.72 375.86,-146.62 365.52,-137.45"/>
<polygon fill="#63b8ff" stroke="#63b8ff" points="368.09,-135.05 358.28,-131.03 363.44,-140.29 368.09,-135.05"/>
</a>
</g>
</g>
<!-- Node16&#45;&gt;Node3 -->
<g id="edge17_Node000016_Node000003" class="edge">
<title>Node16&#45;&gt;Node3</title>
<g id="a_edge17_Node000016_Node000003"><a xlink:title=" ">
<path fill="none" stroke="#63b8ff" d="M364.15,-113.35C367.13,-112.38 370.21,-111.39 373.12,-110.5 415.61,-97.5 464.92,-83.89 497.23,-75.17"/>
<polygon fill="#63b8ff" stroke="#63b8ff" points="498.11,-78.55 506.86,-72.58 496.29,-71.79 498.11,-78.55"/>
</a>
</g>
</g>
<!-- Node17&#45;&gt;Node7 -->
<g id="edge19_Node000017_Node000007" class="edge">
<title>Node17&#45;&gt;Node7</title>
<g id="a_edge19_Node000017_Node000007"><a xlink:title=" ">
<path fill="none" stroke="#63b8ff" d="M446.96,-167.74C407.54,-158.11 334.48,-140.26 291.09,-129.67"/>
<polygon fill="#63b8ff" stroke="#63b8ff" points="291.97,-126.28 281.43,-127.31 290.31,-133.08 291.97,-126.28"/>
</a>
</g>
</g>
<!-- Node17&#45;&gt;Node9 -->
<g id="edge21_Node000017_Node000009" class="edge">
<title>Node17&#45;&gt;Node9</title>
<g id="a_edge21_Node000017_Node000009"><a xlink:title=" ">
<path fill="none" stroke="#63b8ff" d="M462.76,-165.34C453.08,-157.65 438.93,-146.4 427.32,-137.18"/>
<polygon fill="#63b8ff" stroke="#63b8ff" points="429.51,-134.45 419.51,-130.97 425.16,-139.93 429.51,-134.45"/>
</a>
</g>
</g>
<!-- Node17&#45;&gt;Node16 -->
<g id="edge20_Node000017_Node000016" class="edge">
<title>Node17&#45;&gt;Node16</title>
<g id="a_edge20_Node000017_Node000016"><a xlink:title=" ">
<path fill="none" stroke="#63b8ff" d="M452.58,-165.34C431.05,-156.31 397.88,-142.4 374.49,-132.6"/>
<polygon fill="#63b8ff" stroke="#63b8ff" points="375.87,-129.38 365.29,-128.74 373.16,-135.84 375.87,-129.38"/>
</a>
</g>
</g>
<!-- Node18 -->
<g id="Node000018" class="node">
<title>Node18</title>
<g id="a_Node000018"><a xlink:href="setjmp_8h.html" target="_top" xlink:title=" ">
<polygon fill="white" stroke="#666666" points="486.5,-74.5 433.75,-74.5 433.75,-55.25 486.5,-55.25 486.5,-74.5"/>
<text text-anchor="middle" x="460.12" y="-61" font-family="Helvetica,sans-Serif" font-size="10.00">setjmp.h</text>
</a>
</g>
</g>
<!-- Node17&#45;&gt;Node18 -->
<g id="edge22_Node000017_Node000018" class="edge">
<title>Node17&#45;&gt;Node18</title>
<g id="a_edge22_Node000017_Node000018"><a xlink:title=" ">
<path fill="none" stroke="#63b8ff" d="M472.98,-165.5C470.75,-148.25 465.8,-109.83 462.73,-86.06"/>
<polygon fill="#63b8ff" stroke="#63b8ff" points="466.23,-85.85 461.48,-76.38 459.29,-86.74 466.23,-85.85"/>
</a>
</g>
</g>
<!-- Node19 -->
<g id="Node000019" class="node">
<title>Node19</title>
<g id="a_Node000019"><a xlink:href="ctype_8h.html" target="_top" xlink:title=" ">
<polygon fill="white" stroke="#666666" points="534.5,-129.75 487.75,-129.75 487.75,-110.5 534.5,-110.5 534.5,-129.75"/>
<text text-anchor="middle" x="511.12" y="-116.25" font-family="Helvetica,sans-Serif" font-size="10.00">ctype.h</text>
</a>
</g>
</g>
<!-- Node17&#45;&gt;Node19 -->
<g id="edge24_Node000017_Node000019" class="edge">
<title>Node17&#45;&gt;Node19</title>
<g id="a_edge24_Node000017_Node000019"><a xlink:title=" ">
<path fill="none" stroke="#63b8ff" d="M480.23,-165.58C485.19,-158.46 492.33,-148.18 498.5,-139.3"/>
<polygon fill="#63b8ff" stroke="#63b8ff" points="501.19,-141.56 504.02,-131.35 495.44,-137.57 501.19,-141.56"/>
</a>
</g>
</g>
<!-- Node18&#45;&gt;Node5 -->
<g id="edge23_Node000018_Node000005" class="edge">
<title>Node18&#45;&gt;Node5</title>
<g id="a_edge23_Node000018_Node000005"><a xlink:title=" ">
<path fill="none" stroke="#63b8ff" d="M460.12,-55.08C460.12,-48.57 460.12,-39.42 460.12,-31.12"/>
<polygon fill="#63b8ff" stroke="#63b8ff" points="463.63,-31.12 460.13,-21.12 456.63,-31.12 463.63,-31.12"/>
</a>
</g>
</g>
<!-- Node20&#45;&gt;Node7 -->
<g id="edge26_Node000020_Node000007" class="edge">
<title>Node20&#45;&gt;Node7</title>
<g id="a_edge26_Node000020_Node000007"><a xlink:title=" ">
<path fill="none" stroke="#63b8ff" d="M287.99,-220.68C278.71,-212.48 266.08,-199.46 260.12,-185 254.48,-171.28 253.63,-154.5 254.12,-141.58"/>
<polygon fill="#63b8ff" stroke="#63b8ff" points="257.6,-141.94 254.81,-131.72 250.62,-141.45 257.6,-141.94"/>
</a>
</g>
</g>
<!-- Node20&#45;&gt;Node16 -->
<g id="edge27_Node000020_Node000016" class="edge">
<title>Node20&#45;&gt;Node16</title>
<g id="a_edge27_Node000020_Node000016"><a xlink:title=" ">
<path fill="none" stroke="#63b8ff" d="M309.98,-220.56C319.09,-212.29 331.62,-199.22 338.12,-185 344.42,-171.25 346.57,-154.24 347.21,-141.23"/>
<polygon fill="#63b8ff" stroke="#63b8ff" points="350.71,-141.4 347.4,-131.34 343.71,-141.27 350.71,-141.4"/>
</a>
</g>
</g>
<!-- Node21 -->
<g id="Node000021" class="node">
<title>Node21</title>
<g id="a_Node000021"><a xlink:href="ioman_8h.html" target="_top" xlink:title=" ">
<polygon fill="white" stroke="#666666" points="213,-185 163.25,-185 163.25,-165.75 213,-165.75 213,-185"/>
<text text-anchor="middle" x="188.12" y="-171.5" font-family="Helvetica,sans-Serif" font-size="10.00">ioman.h</text>
</a>
</g>
</g>
<!-- Node20&#45;&gt;Node21 -->
<g id="edge28_Node000020_Node000021" class="edge">
<title>Node20&#45;&gt;Node21</title>
<g id="a_edge28_Node000020_Node000021"><a xlink:title=" ">
<path fill="none" stroke="#63b8ff" d="M280.3,-220.59C263.07,-212.33 237.32,-199.98 217.42,-190.43"/>
<polygon fill="#63b8ff" stroke="#63b8ff" points="218.94,-187.28 208.41,-186.11 215.91,-193.59 218.94,-187.28"/>
</a>
</g>
</g>
<!-- Node22 -->
<g id="Node000022" class="node">
<title>Node22</title>
<g id="a_Node000022"><a xlink:href="loadcore_8h.html" target="_top" xlink:title=" ">
<polygon fill="white" stroke="#666666" points="329.25,-185 269,-185 269,-165.75 329.25,-165.75 329.25,-185"/>
<text text-anchor="middle" x="299.12" y="-171.5" font-family="Helvetica,sans-Serif" font-size="10.00">loadcore.h</text>
</a>
</g>
</g>
<!-- Node20&#45;&gt;Node22 -->
<g id="edge33_Node000020_Node000022" class="edge">
<title>Node20&#45;&gt;Node22</title>
<g id="a_edge33_Node000020_Node000022"><a xlink:title=" ">
<path fill="none" stroke="#63b8ff" d="M299.12,-220.83C299.12,-214.32 299.12,-205.17 299.12,-196.87"/>
<polygon fill="#63b8ff" stroke="#63b8ff" points="302.63,-196.87 299.13,-186.87 295.63,-196.87 302.63,-196.87"/>
</a>
</g>
</g>
<!-- Node21&#45;&gt;Node7 -->
<g id="edge30_Node000021_Node000007" class="edge">
<title>Node21&#45;&gt;Node7</title>
<g id="a_edge30_Node000021_Node000007"><a xlink:title=" ">
<path fill="none" stroke="#63b8ff" d="M199.66,-165.34C209.59,-157.57 224.14,-146.17 235.98,-136.9"/>
<polygon fill="#63b8ff" stroke="#63b8ff" points="237.85,-139.88 243.57,-130.96 233.54,-134.37 237.85,-139.88"/>
</a>
</g>
</g>
<!-- Node21&#45;&gt;Node8 -->
<g id="edge29_Node000021_Node000008" class="edge">
<title>Node21&#45;&gt;Node8</title>
<g id="a_edge29_Node000021_Node000008"><a xlink:title=" ">
<path fill="none" stroke="#63b8ff" d="M188.79,-165.58C189.28,-158.99 189.98,-149.71 190.61,-141.32"/>
<polygon fill="#63b8ff" stroke="#63b8ff" points="194.08,-141.85 191.34,-131.62 187.1,-141.33 194.08,-141.85"/>
</a>
</g>
</g>
<!-- Node21&#45;&gt;Node10 -->
<g id="edge32_Node000021_Node000010" class="edge">
<title>Node21&#45;&gt;Node10</title>
<g id="a_edge32_Node000021_Node000010"><a xlink:title=" ">
<path fill="none" stroke="#63b8ff" d="M175.57,-165.34C164.66,-157.49 148.62,-145.95 135.66,-136.62"/>
<polygon fill="#63b8ff" stroke="#63b8ff" points="137.88,-133.91 127.72,-130.91 133.79,-139.59 137.88,-133.91"/>
</a>
</g>
</g>
<!-- Node21&#45;&gt;Node16 -->
<g id="edge31_Node000021_Node000016" class="edge">
<title>Node21&#45;&gt;Node16</title>
<g id="a_edge31_Node000021_Node000016"><a xlink:title=" ">
<path fill="none" stroke="#63b8ff" d="M213.32,-165.94C242.23,-156.25 289.5,-140.42 319.42,-130.4"/>
<polygon fill="#63b8ff" stroke="#63b8ff" points="320.53,-133.72 328.91,-127.23 318.31,-127.08 320.53,-133.72"/>
</a>
</g>
</g>
<!-- Node22&#45;&gt;Node7 -->
<g id="edge34_Node000022_Node000007" class="edge">
<title>Node22&#45;&gt;Node7</title>
<g id="a_edge34_Node000022_Node000007"><a xlink:title=" ">
<path fill="none" stroke="#63b8ff" d="M292.02,-165.58C286.21,-158.38 277.79,-147.96 270.57,-139.01"/>
<polygon fill="#63b8ff" stroke="#63b8ff" points="273.34,-136.87 264.33,-131.29 267.89,-141.27 273.34,-136.87"/>
</a>
</g>
</g>
<!-- Node22&#45;&gt;Node16 -->
<g id="edge35_Node000022_Node000016" class="edge">
<title>Node22&#45;&gt;Node16</title>
<g id="a_edge35_Node000022_Node000016"><a xlink:title=" ">
<path fill="none" stroke="#63b8ff" d="M307.05,-165.58C313.68,-158.23 323.34,-147.51 331.51,-138.44"/>
<polygon fill="#63b8ff" stroke="#63b8ff" points="333.92,-141 338.01,-131.23 328.72,-136.32 333.92,-141"/>
</a>
</g>
</g>
</g>
</svg>

<g id="navigator" transform="translate(0 0)" fill="#404254">
  <rect fill="#f2f5e9" fill-opacity="0.5" stroke="#606060" stroke-width=".5" x="0" y="0" width="60" height="60"/>
  <use id="zoomplus" xlink:href="#zoomPlus" x="17" y="9" onmousedown="handleZoom(evt,'in')"/>
  <use id="zoomminus" xlink:href="#zoomMin" x="42" y="9" onmousedown="handleZoom(evt,'out')"/>
  <use id="reset" xlink:href="#resetDef" x="30" y="36" onmousedown="handleReset()"/>
   <use id="arrowup" xlink:href="#arrowUp" x="0" y="0" onmousedown="handlePan(0,-1)"/>
  <use id="arrowright" xlink:href="#arrowRight" x="0" y="0" onmousedown="handlePan(1,0)"/>
  <use id="arrowdown" xlink:href="#arrowDown" x="0" y="0" onmousedown="handlePan(0,1)"/>
  <use id="arrowleft" xlink:href="#arrowLeft" x="0" y="0" onmousedown="handlePan(-1,0)"/>
</g>
<svg viewBox="0 0 15 15" width="100%" height="30px" preserveAspectRatio="xMaxYMin meet">
 <g id="arrow_out" transform="scale(0.3 0.3)">
  <a xlink:href="commandline_8c__incl_org.svg" target="_base">
   <rect id="button" ry="5" rx="5" y="6" x="6" height="38" width="38"
        fill="#f2f5e9" fill-opacity="0.5" stroke="#606060" stroke-width="1.0"/>
   <path id="arrow"
     d="M 11.500037,31.436501 C 11.940474,20.09759 22.043105,11.32322 32.158766,21.979434 L 37.068811,17.246167 C 37.068811,17.246167 37.088388,32 37.088388,32 L 22.160133,31.978069 C 22.160133,31.978069 26.997745,27.140456 26.997745,27.140456 C 18.528582,18.264221 13.291696,25.230495 11.500037,31.436501 z"
     style="fill:#404040;"/>
  </a>
 </g>
</svg>

<style type='text/css'>
<![CDATA[
[data-mouse-over-selected='false'] { opacity: 0.7; }
[data-mouse-over-selected='true']  { opacity: 1.0; }
]]>
</style>
<script type="application/ecmascript"><![CDATA[
document.addEventListener('DOMContentLoaded', (event) => {
  highlightEdges();
  highlightAdjacentNodes();
});
]]></script>
</svg>
