<?xml version="1.0" encoding="UTF-8" standalone="no"?>
<!DOCTYPE svg PUBLIC "-//W3C//DTD SVG 1.1//EN"
 "http://www.w3.org/Graphics/SVG/1.1/DTD/svg11.dtd">
<!-- Generated by graphviz version 12.2.0 (20241103.1931)
 -->
<!-- Title: iop/kernel/include/defs.h Pages: 1 -->
<svg width="4711pt" height="216pt"
 viewBox="0.00 0.00 4710.50 215.50" xmlns="http://www.w3.org/2000/svg" xmlns:xlink="http://www.w3.org/1999/xlink">
<g id="graph0" class="graph" transform="scale(1 1) rotate(0) translate(4 211.5)">
<title>iop/kernel/include/defs.h</title>
<!-- Node1 -->
<g id="Node000001" class="node">
<title>Node1</title>
<g id="a_Node000001"><a xlink:title=" ">
<polygon fill="#999999" stroke="#666666" points="2184.25,-207.5 2092.5,-207.5 2092.5,-177 2184.25,-177 2184.25,-207.5"/>
<text text-anchor="start" x="2100.5" y="-194" font-family="Helvetica,sans-Serif" font-size="10.00">iop/kernel/include</text>
<text text-anchor="middle" x="2138.38" y="-182.75" font-family="Helvetica,sans-Serif" font-size="10.00">/defs.h</text>
</a>
</g>
</g>
<!-- Node2 -->
<g id="Node000002" class="node">
<title>Node2</title>
<g id="a_Node000002"><a xlink:href="ioptrap_8c.html" target="_top" xlink:title=" ">
<polygon fill="white" stroke="#666666" points="106.75,-141 0,-141 0,-110.5 106.75,-110.5 106.75,-141"/>
<text text-anchor="start" x="8" y="-127.5" font-family="Helvetica,sans-Serif" font-size="10.00">iop/debug/ioptrap/src</text>
<text text-anchor="middle" x="53.38" y="-116.25" font-family="Helvetica,sans-Serif" font-size="10.00">/ioptrap.c</text>
</a>
</g>
</g>
<!-- Node1&#45;&gt;Node2 -->
<g id="edge1_Node000001_Node000002" class="edge">
<title>Node1&#45;&gt;Node2</title>
<g id="a_edge1_Node000001_Node000002"><a xlink:title=" ">
<path fill="none" stroke="#63b8ff" d="M2081.06,-191.38C1794,-191.81 510.75,-190.83 115.38,-141 112.64,-140.65 109.84,-140.24 107.03,-139.78"/>
<polygon fill="#63b8ff" stroke="#63b8ff" points="2080.91,-194.88 2090.9,-191.37 2080.9,-187.88 2080.91,-194.88"/>
</a>
</g>
</g>
<!-- Node3 -->
<g id="Node000003" class="node">
<title>Node3</title>
<g id="a_Node000003"><a xlink:href="sior_8c_source.html" target="_top" xlink:title=" ">
<polygon fill="white" stroke="#666666" points="218,-141 124.75,-141 124.75,-110.5 218,-110.5 218,-141"/>
<text text-anchor="start" x="132.75" y="-127.5" font-family="Helvetica,sans-Serif" font-size="10.00">iop/debug/sior/src</text>
<text text-anchor="middle" x="171.38" y="-116.25" font-family="Helvetica,sans-Serif" font-size="10.00">/sior.c</text>
</a>
</g>
</g>
<!-- Node1&#45;&gt;Node3 -->
<g id="edge2_Node000001_Node000003" class="edge">
<title>Node1&#45;&gt;Node3</title>
<g id="a_edge2_Node000001_Node000003"><a xlink:title=" ">
<path fill="none" stroke="#63b8ff" d="M2080.66,-191.46C1802.52,-192.23 598.66,-192.46 227.38,-141 224.39,-140.59 221.34,-140.07 218.28,-139.49"/>
<polygon fill="#63b8ff" stroke="#63b8ff" points="2080.56,-194.96 2090.55,-191.44 2080.54,-187.96 2080.56,-194.96"/>
</a>
</g>
</g>
<!-- Node4 -->
<g id="Node000004" class="node">
<title>Node4</title>
<g id="a_Node000004"><a xlink:href="ps2atad_8c.html" target="_top" xlink:title=" ">
<polygon fill="white" stroke="#666666" points="372.38,-135.38 236.38,-135.38 236.38,-116.12 372.38,-116.12 372.38,-135.38"/>
<text text-anchor="middle" x="304.38" y="-121.88" font-family="Helvetica,sans-Serif" font-size="10.00">iop/dev9/atad/src/ps2atad.c</text>
</a>
</g>
</g>
<!-- Node1&#45;&gt;Node4 -->
<g id="edge3_Node000001_Node000004" class="edge">
<title>Node1&#45;&gt;Node4</title>
<g id="a_edge3_Node000001_Node000004"><a xlink:title=" ">
<path fill="none" stroke="#63b8ff" d="M2081.15,-190.8C1817.98,-188.56 722.24,-177.2 381.38,-141 370.15,-139.81 358.12,-137.89 346.97,-135.85"/>
<polygon fill="#63b8ff" stroke="#63b8ff" points="2080.79,-194.3 2090.82,-190.88 2080.85,-187.3 2080.79,-194.3"/>
</a>
</g>
</g>
<!-- Node5 -->
<g id="Node000005" class="node">
<title>Node5</title>
<g id="a_Node000005"><a xlink:href="ps2dev9_8c.html" target="_top" xlink:title=" ">
<polygon fill="white" stroke="#666666" points="530.62,-135.38 390.12,-135.38 390.12,-116.12 530.62,-116.12 530.62,-135.38"/>
<text text-anchor="middle" x="460.38" y="-121.88" font-family="Helvetica,sans-Serif" font-size="10.00">iop/dev9/dev9/src/ps2dev9.c</text>
</a>
</g>
</g>
<!-- Node1&#45;&gt;Node5 -->
<g id="edge4_Node000001_Node000005" class="edge">
<title>Node1&#45;&gt;Node5</title>
<g id="a_edge4_Node000001_Node000005"><a xlink:title=" ">
<path fill="none" stroke="#63b8ff" d="M2080.74,-190.58C1831.76,-187.49 847.3,-173.43 539.38,-141 527.87,-139.79 515.52,-137.86 504.09,-135.82"/>
<polygon fill="#63b8ff" stroke="#63b8ff" points="2080.48,-194.07 2090.52,-190.7 2080.56,-187.07 2080.48,-194.07"/>
</a>
</g>
</g>
<!-- Node6 -->
<g id="Node000006" class="node">
<title>Node6</title>
<g id="a_Node000006"><a xlink:href="extflash_8c_source.html" target="_top" xlink:title=" ">
<polygon fill="white" stroke="#666666" points="654,-141 548.75,-141 548.75,-110.5 654,-110.5 654,-141"/>
<text text-anchor="start" x="556.75" y="-127.5" font-family="Helvetica,sans-Serif" font-size="10.00">iop/dev9/extflash/src</text>
<text text-anchor="middle" x="601.38" y="-116.25" font-family="Helvetica,sans-Serif" font-size="10.00">/extflash.c</text>
</a>
</g>
</g>
<!-- Node1&#45;&gt;Node6 -->
<g id="edge5_Node000001_Node000006" class="edge">
<title>Node1&#45;&gt;Node6</title>
<g id="a_edge5_Node000001_Node000006"><a xlink:title=" ">
<path fill="none" stroke="#63b8ff" d="M2080.59,-190.76C1843.53,-188.53 944.76,-177.78 663.38,-141 660.42,-140.61 657.4,-140.15 654.35,-139.63"/>
<polygon fill="#63b8ff" stroke="#63b8ff" points="2080.48,-194.26 2090.51,-190.85 2080.55,-187.26 2080.48,-194.26"/>
</a>
</g>
</g>
<!-- Node7 -->
<g id="Node000007" class="node">
<title>Node7</title>
<g id="a_Node000007"><a xlink:href="hdproatad_8c_source.html" target="_top" xlink:title=" ">
<polygon fill="white" stroke="#666666" points="776.25,-141 672.5,-141 672.5,-110.5 776.25,-110.5 776.25,-141"/>
<text text-anchor="start" x="680.5" y="-127.5" font-family="Helvetica,sans-Serif" font-size="10.00">iop/dev9/hdpro_atad</text>
<text text-anchor="middle" x="724.38" y="-116.25" font-family="Helvetica,sans-Serif" font-size="10.00">/src/hdproatad.c</text>
</a>
</g>
</g>
<!-- Node1&#45;&gt;Node7 -->
<g id="edge6_Node000001_Node000007" class="edge">
<title>Node1&#45;&gt;Node7</title>
<g id="a_edge6_Node000001_Node000007"><a xlink:title=" ">
<path fill="none" stroke="#63b8ff" d="M2080.6,-190.61C1856,-187.91 1040.7,-175.85 784.38,-141 781.83,-140.65 779.23,-140.25 776.62,-139.79"/>
<polygon fill="#63b8ff" stroke="#63b8ff" points="2080.53,-194.11 2090.57,-190.73 2080.62,-187.11 2080.53,-194.11"/>
</a>
</g>
</g>
<!-- Node8 -->
<g id="Node000008" class="node">
<title>Node8</title>
<g id="a_Node000008"><a xlink:href="iop_2dev9_2poweroff_2src_2poweroff_8c_source.html" target="_top" xlink:title=" ">
<polygon fill="white" stroke="#666666" points="902.88,-141 793.88,-141 793.88,-110.5 902.88,-110.5 902.88,-141"/>
<text text-anchor="start" x="801.88" y="-127.5" font-family="Helvetica,sans-Serif" font-size="10.00">iop/dev9/poweroff/src</text>
<text text-anchor="middle" x="848.38" y="-116.25" font-family="Helvetica,sans-Serif" font-size="10.00">/poweroff.c</text>
</a>
</g>
</g>
<!-- Node1&#45;&gt;Node8 -->
<g id="edge7_Node000001_Node000008" class="edge">
<title>Node1&#45;&gt;Node8</title>
<g id="a_edge7_Node000001_Node000008"><a xlink:title=" ">
<path fill="none" stroke="#63b8ff" d="M2080.94,-190.25C1870.61,-186.39 1142.75,-171.12 912.38,-141 909.33,-140.6 906.21,-140.13 903.07,-139.6"/>
<polygon fill="#63b8ff" stroke="#63b8ff" points="2080.73,-193.75 2090.79,-190.43 2080.86,-186.75 2080.73,-193.75"/>
</a>
</g>
</g>
<!-- Node9 -->
<g id="Node000009" class="node">
<title>Node9</title>
<g id="a_Node000009"><a xlink:href="devfs_8c.html" target="_top" xlink:title=" ">
<polygon fill="white" stroke="#666666" points="1039.38,-135.38 921.38,-135.38 921.38,-116.12 1039.38,-116.12 1039.38,-135.38"/>
<text text-anchor="middle" x="980.38" y="-121.88" font-family="Helvetica,sans-Serif" font-size="10.00">iop/fs/devfs/src/devfs.c</text>
</a>
</g>
</g>
<!-- Node1&#45;&gt;Node9 -->
<g id="edge8_Node000001_Node000009" class="edge">
<title>Node1&#45;&gt;Node9</title>
<g id="a_edge8_Node000001_Node000009"><a xlink:title=" ">
<path fill="none" stroke="#63b8ff" d="M2081.04,-191.84C1918.47,-192.81 1440.89,-190.85 1048.38,-141 1038.56,-139.75 1028.06,-137.84 1018.32,-135.82"/>
<polygon fill="#63b8ff" stroke="#63b8ff" points="2080.71,-195.34 2090.68,-191.77 2080.66,-188.34 2080.71,-195.34"/>
</a>
</g>
</g>
<!-- Node10 -->
<g id="Node000010" class="node">
<title>Node10</title>
<g id="a_Node000010"><a xlink:href="devscan_8c.html" target="_top" xlink:title=" ">
<polygon fill="white" stroke="#666666" points="1185.62,-135.38 1057.12,-135.38 1057.12,-116.12 1185.62,-116.12 1185.62,-135.38"/>
<text text-anchor="middle" x="1121.38" y="-121.88" font-family="Helvetica,sans-Serif" font-size="10.00">iop/fs/netfs/src/devscan.c</text>
</a>
</g>
</g>
<!-- Node1&#45;&gt;Node10 -->
<g id="edge9_Node000001_Node000010" class="edge">
<title>Node1&#45;&gt;Node10</title>
<g id="a_edge9_Node000001_Node000010"><a xlink:title=" ">
<path fill="none" stroke="#63b8ff" d="M2080.55,-190.97C1932.56,-189.66 1528.2,-182.26 1194.38,-141 1183.99,-139.72 1172.87,-137.82 1162.52,-135.82"/>
<polygon fill="#63b8ff" stroke="#63b8ff" points="2080.46,-194.47 2090.49,-191.06 2080.52,-187.47 2080.46,-194.47"/>
</a>
</g>
</g>
<!-- Node11 -->
<g id="Node000011" class="node">
<title>Node11</title>
<g id="a_Node000011"><a xlink:href="ps2__fio_8c.html" target="_top" xlink:title=" ">
<polygon fill="white" stroke="#666666" points="1303.38,-141 1203.38,-141 1203.38,-110.5 1303.38,-110.5 1303.38,-141"/>
<text text-anchor="start" x="1211.38" y="-127.5" font-family="Helvetica,sans-Serif" font-size="10.00">iop/fs/netfs/src/ps2</text>
<text text-anchor="middle" x="1253.38" y="-116.25" font-family="Helvetica,sans-Serif" font-size="10.00">_fio.c</text>
</a>
</g>
</g>
<!-- Node1&#45;&gt;Node11 -->
<g id="edge10_Node000001_Node000011" class="edge">
<title>Node1&#45;&gt;Node11</title>
<g id="a_edge10_Node000001_Node000011"><a xlink:title=" ">
<path fill="none" stroke="#63b8ff" d="M2081.18,-191.23C1946.44,-190.42 1598.84,-183.96 1312.38,-141 1309.56,-140.58 1306.68,-140.09 1303.79,-139.54"/>
<polygon fill="#63b8ff" stroke="#63b8ff" points="2080.88,-194.73 2090.9,-191.28 2080.92,-187.73 2080.88,-194.73"/>
</a>
</g>
</g>
<!-- Node12 -->
<g id="Node000012" class="node">
<title>Node12</title>
<g id="a_Node000012"><a xlink:href="ps2netfs_8c.html" target="_top" xlink:title=" ">
<polygon fill="white" stroke="#666666" points="1451,-135.38 1321.75,-135.38 1321.75,-116.12 1451,-116.12 1451,-135.38"/>
<text text-anchor="middle" x="1386.38" y="-121.88" font-family="Helvetica,sans-Serif" font-size="10.00">iop/fs/netfs/src/ps2netfs.c</text>
</a>
</g>
</g>
<!-- Node1&#45;&gt;Node12 -->
<g id="edge11_Node000001_Node000012" class="edge">
<title>Node1&#45;&gt;Node12</title>
<g id="a_edge11_Node000001_Node000012"><a xlink:title=" ">
<path fill="none" stroke="#63b8ff" d="M2080.98,-189.25C1963.87,-184.67 1689.1,-171.39 1460.38,-141 1450.13,-139.64 1439.16,-137.76 1428.89,-135.81"/>
<polygon fill="#63b8ff" stroke="#63b8ff" points="2080.51,-192.73 2090.64,-189.62 2080.78,-185.74 2080.51,-192.73"/>
</a>
</g>
</g>
<!-- Node13 -->
<g id="Node000013" class="node">
<title>Node13</title>
<g id="a_Node000013"><a xlink:href="xpadman_8h.html" target="_top" xlink:title=" ">
<polygon fill="white" stroke="#666666" points="1561.25,-141 1469.5,-141 1469.5,-110.5 1561.25,-110.5 1561.25,-141"/>
<text text-anchor="start" x="1477.5" y="-127.5" font-family="Helvetica,sans-Serif" font-size="10.00">iop/kernel/include</text>
<text text-anchor="middle" x="1515.38" y="-116.25" font-family="Helvetica,sans-Serif" font-size="10.00">/xpadman.h</text>
</a>
</g>
</g>
<!-- Node1&#45;&gt;Node13 -->
<g id="edge12_Node000001_Node000013" class="edge">
<title>Node1&#45;&gt;Node13</title>
<g id="a_edge12_Node000001_Node000013"><a xlink:title=" ">
<path fill="none" stroke="#63b8ff" d="M2080.64,-189.29C1977.53,-185.1 1755.19,-172.89 1570.38,-141 1567.46,-140.5 1564.47,-139.92 1561.47,-139.28"/>
<polygon fill="#63b8ff" stroke="#63b8ff" points="2080.38,-192.79 2090.51,-189.68 2080.66,-185.79 2080.38,-192.79"/>
</a>
</g>
</g>
<!-- Node14 -->
<g id="Node000014" class="node">
<title>Node14</title>
<g id="a_Node000014"><a xlink:href="iop_2network_2smap_2src_2main_8c_source.html" target="_top" xlink:title=" ">
<polygon fill="white" stroke="#666666" points="1689.25,-141 1579.5,-141 1579.5,-110.5 1689.25,-110.5 1689.25,-141"/>
<text text-anchor="start" x="1587.5" y="-127.5" font-family="Helvetica,sans-Serif" font-size="10.00">iop/network/smap/src</text>
<text text-anchor="middle" x="1634.38" y="-116.25" font-family="Helvetica,sans-Serif" font-size="10.00">/main.c</text>
</a>
</g>
</g>
<!-- Node1&#45;&gt;Node14 -->
<g id="edge13_Node000001_Node000014" class="edge">
<title>Node1&#45;&gt;Node14</title>
<g id="a_edge13_Node000001_Node000014"><a xlink:title=" ">
<path fill="none" stroke="#63b8ff" d="M2080.86,-186.63C1996.57,-179.42 1834.7,-163.9 1698.38,-141 1695.46,-140.51 1692.47,-139.97 1689.46,-139.4"/>
<polygon fill="#63b8ff" stroke="#63b8ff" points="2080.46,-190.11 2090.72,-187.46 2081.05,-183.13 2080.46,-190.11"/>
</a>
</g>
</g>
<!-- Node15 -->
<g id="Node000015" class="node">
<title>Node15</title>
<g id="a_Node000015"><a xlink:href="smap_8c_source.html" target="_top" xlink:title=" ">
<polygon fill="white" stroke="#666666" points="1817.25,-141 1707.5,-141 1707.5,-110.5 1817.25,-110.5 1817.25,-141"/>
<text text-anchor="start" x="1715.5" y="-127.5" font-family="Helvetica,sans-Serif" font-size="10.00">iop/network/smap/src</text>
<text text-anchor="middle" x="1762.38" y="-116.25" font-family="Helvetica,sans-Serif" font-size="10.00">/smap.c</text>
</a>
</g>
</g>
<!-- Node1&#45;&gt;Node15 -->
<g id="edge14_Node000001_Node000015" class="edge">
<title>Node1&#45;&gt;Node15</title>
<g id="a_edge14_Node000001_Node000015"><a xlink:title=" ">
<path fill="none" stroke="#63b8ff" d="M2081.01,-183.05C2018.28,-173.85 1914.89,-157.97 1826.38,-141 1823.47,-140.44 1820.49,-139.85 1817.49,-139.24"/>
<polygon fill="#63b8ff" stroke="#63b8ff" points="2080.33,-186.49 2090.74,-184.48 2081.35,-179.57 2080.33,-186.49"/>
</a>
</g>
</g>
<!-- Node16 -->
<g id="Node000016" class="node">
<title>Node16</title>
<g id="a_Node000016"><a xlink:href="auth_8c_source.html" target="_top" xlink:title=" ">
<polygon fill="white" stroke="#666666" points="1941.75,-141 1835,-141 1835,-110.5 1941.75,-110.5 1941.75,-141"/>
<text text-anchor="start" x="1843" y="-127.5" font-family="Helvetica,sans-Serif" font-size="10.00">iop/network/smbman</text>
<text text-anchor="middle" x="1888.38" y="-116.25" font-family="Helvetica,sans-Serif" font-size="10.00">/src/auth.c</text>
</a>
</g>
</g>
<!-- Node1&#45;&gt;Node16 -->
<g id="edge15_Node000001_Node000016" class="edge">
<title>Node1&#45;&gt;Node16</title>
<g id="a_edge15_Node000001_Node000016"><a xlink:title=" ">
<path fill="none" stroke="#63b8ff" d="M2081.12,-176.48C2039.31,-165.69 1983.02,-151.17 1942.07,-140.6"/>
<polygon fill="#63b8ff" stroke="#63b8ff" points="2080.21,-179.86 2090.76,-178.97 2081.96,-173.08 2080.21,-179.86"/>
</a>
</g>
</g>
<!-- Node17 -->
<g id="Node000017" class="node">
<title>Node17</title>
<g id="a_Node000017"><a xlink:href="md4_8c_source.html" target="_top" xlink:title=" ">
<polygon fill="white" stroke="#666666" points="2066.75,-141 1960,-141 1960,-110.5 2066.75,-110.5 2066.75,-141"/>
<text text-anchor="start" x="1968" y="-127.5" font-family="Helvetica,sans-Serif" font-size="10.00">iop/network/smbman</text>
<text text-anchor="middle" x="2013.38" y="-116.25" font-family="Helvetica,sans-Serif" font-size="10.00">/src/md4.c</text>
</a>
</g>
</g>
<!-- Node1&#45;&gt;Node17 -->
<g id="edge16_Node000001_Node000017" class="edge">
<title>Node1&#45;&gt;Node17</title>
<g id="a_edge16_Node000001_Node000017"><a xlink:title=" ">
<path fill="none" stroke="#63b8ff" d="M2099.96,-171.43C2081.13,-161.71 2058.87,-150.22 2041.63,-141.33"/>
<polygon fill="#63b8ff" stroke="#63b8ff" points="2098.17,-174.44 2108.67,-175.92 2101.38,-168.22 2098.17,-174.44"/>
</a>
</g>
</g>
<!-- Node18 -->
<g id="Node000018" class="node">
<title>Node18</title>
<g id="a_Node000018"><a xlink:href="poll_8c_source.html" target="_top" xlink:title=" ">
<polygon fill="white" stroke="#666666" points="2191.75,-141 2085,-141 2085,-110.5 2191.75,-110.5 2191.75,-141"/>
<text text-anchor="start" x="2093" y="-127.5" font-family="Helvetica,sans-Serif" font-size="10.00">iop/network/smbman</text>
<text text-anchor="middle" x="2138.38" y="-116.25" font-family="Helvetica,sans-Serif" font-size="10.00">/src/poll.c</text>
</a>
</g>
</g>
<!-- Node1&#45;&gt;Node18 -->
<g id="edge17_Node000001_Node000018" class="edge">
<title>Node1&#45;&gt;Node18</title>
<g id="a_edge17_Node000001_Node000018"><a xlink:title=" ">
<path fill="none" stroke="#63b8ff" d="M2138.38,-165.31C2138.38,-157.14 2138.38,-148.41 2138.38,-141.33"/>
<polygon fill="#63b8ff" stroke="#63b8ff" points="2134.88,-165.1 2138.38,-175.1 2141.88,-165.1 2134.88,-165.1"/>
</a>
</g>
</g>
<!-- Node19 -->
<g id="Node000019" class="node">
<title>Node19</title>
<g id="a_Node000019"><a xlink:href="smb__fio_8c_source.html" target="_top" xlink:title=" ">
<polygon fill="white" stroke="#666666" points="2316.75,-141 2210,-141 2210,-110.5 2316.75,-110.5 2316.75,-141"/>
<text text-anchor="start" x="2218" y="-127.5" font-family="Helvetica,sans-Serif" font-size="10.00">iop/network/smbman</text>
<text text-anchor="middle" x="2263.38" y="-116.25" font-family="Helvetica,sans-Serif" font-size="10.00">/src/smb_fio.c</text>
</a>
</g>
</g>
<!-- Node1&#45;&gt;Node19 -->
<g id="edge18_Node000001_Node000019" class="edge">
<title>Node1&#45;&gt;Node19</title>
<g id="a_edge18_Node000001_Node000019"><a xlink:title=" ">
<path fill="none" stroke="#63b8ff" d="M2176.79,-171.43C2195.62,-161.71 2217.88,-150.22 2235.12,-141.33"/>
<polygon fill="#63b8ff" stroke="#63b8ff" points="2175.37,-168.22 2168.08,-175.92 2178.58,-174.44 2175.37,-168.22"/>
</a>
</g>
</g>
<!-- Node20 -->
<g id="Node000020" class="node">
<title>Node20</title>
<g id="a_Node000020"><a xlink:href="smbman_8c_source.html" target="_top" xlink:title=" ">
<polygon fill="white" stroke="#666666" points="2441.75,-141 2335,-141 2335,-110.5 2441.75,-110.5 2441.75,-141"/>
<text text-anchor="start" x="2343" y="-127.5" font-family="Helvetica,sans-Serif" font-size="10.00">iop/network/smbman</text>
<text text-anchor="middle" x="2388.38" y="-116.25" font-family="Helvetica,sans-Serif" font-size="10.00">/src/smbman.c</text>
</a>
</g>
</g>
<!-- Node1&#45;&gt;Node20 -->
<g id="edge19_Node000001_Node000020" class="edge">
<title>Node1&#45;&gt;Node20</title>
<g id="a_edge19_Node000001_Node000020"><a xlink:title=" ">
<path fill="none" stroke="#63b8ff" d="M2195.63,-176.48C2237.44,-165.69 2293.73,-151.17 2334.68,-140.6"/>
<polygon fill="#63b8ff" stroke="#63b8ff" points="2194.79,-173.08 2185.99,-178.97 2196.54,-179.86 2194.79,-173.08"/>
</a>
</g>
</g>
<!-- Node21 -->
<g id="Node000021" class="node">
<title>Node21</title>
<g id="a_Node000021"><a xlink:href="alloc_8c.html" target="_top" xlink:title=" ">
<polygon fill="white" stroke="#666666" points="2562.88,-141 2459.88,-141 2459.88,-110.5 2562.88,-110.5 2562.88,-141"/>
<text text-anchor="start" x="2467.88" y="-127.5" font-family="Helvetica,sans-Serif" font-size="10.00">iop/system/alloc/src</text>
<text text-anchor="middle" x="2511.38" y="-116.25" font-family="Helvetica,sans-Serif" font-size="10.00">/alloc.c</text>
</a>
</g>
</g>
<!-- Node1&#45;&gt;Node21 -->
<g id="edge20_Node000001_Node000021" class="edge">
<title>Node1&#45;&gt;Node21</title>
<g id="a_edge20_Node000001_Node000021"><a xlink:title=" ">
<path fill="none" stroke="#63b8ff" d="M2195.78,-183.23C2258.53,-174.18 2361.95,-158.43 2450.38,-141 2453.36,-140.41 2456.43,-139.78 2459.51,-139.12"/>
<polygon fill="#63b8ff" stroke="#63b8ff" points="2195.45,-179.74 2186.04,-184.63 2196.44,-186.67 2195.45,-179.74"/>
</a>
</g>
</g>
<!-- Node22 -->
<g id="Node000022" class="node">
<title>Node22</title>
<g id="a_Node000022"><a xlink:href="commandline_8c.html" target="_top" xlink:title=" ">
<polygon fill="white" stroke="#666666" points="2693.38,-141 2581.38,-141 2581.38,-110.5 2693.38,-110.5 2693.38,-141"/>
<text text-anchor="start" x="2589.38" y="-127.5" font-family="Helvetica,sans-Serif" font-size="10.00">iop/system/iopmgr/src</text>
<text text-anchor="middle" x="2637.38" y="-116.25" font-family="Helvetica,sans-Serif" font-size="10.00">/commandline.c</text>
</a>
</g>
</g>
<!-- Node1&#45;&gt;Node22 -->
<g id="edge21_Node000001_Node000022" class="edge">
<title>Node1&#45;&gt;Node22</title>
<g id="a_edge21_Node000001_Node000022"><a xlink:title=" ">
<path fill="none" stroke="#63b8ff" d="M2195.76,-186.46C2279.07,-179.08 2438.22,-163.41 2572.38,-141 2575.22,-140.52 2578.14,-140.01 2581.07,-139.46"/>
<polygon fill="#63b8ff" stroke="#63b8ff" points="2195.68,-182.95 2186.03,-187.31 2196.29,-189.92 2195.68,-182.95"/>
</a>
</g>
</g>
<!-- Node23 -->
<g id="Node000023" class="node">
<title>Node23</title>
<g id="a_Node000023"><a xlink:href="devices_8c.html" target="_top" xlink:title=" ">
<polygon fill="white" stroke="#666666" points="2823.38,-141 2711.38,-141 2711.38,-110.5 2823.38,-110.5 2823.38,-141"/>
<text text-anchor="start" x="2719.38" y="-127.5" font-family="Helvetica,sans-Serif" font-size="10.00">iop/system/iopmgr/src</text>
<text text-anchor="middle" x="2767.38" y="-116.25" font-family="Helvetica,sans-Serif" font-size="10.00">/devices.c</text>
</a>
</g>
</g>
<!-- Node1&#45;&gt;Node23 -->
<g id="edge22_Node000001_Node000023" class="edge">
<title>Node1&#45;&gt;Node23</title>
<g id="a_edge22_Node000001_Node000023"><a xlink:title=" ">
<path fill="none" stroke="#63b8ff" d="M2195.97,-188.54C2298.35,-183.18 2518.53,-169.23 2702.38,-141 2705.23,-140.56 2708.15,-140.07 2711.09,-139.55"/>
<polygon fill="#63b8ff" stroke="#63b8ff" points="2195.99,-185.03 2186.18,-189.04 2196.35,-192.02 2195.99,-185.03"/>
</a>
</g>
</g>
<!-- Node24 -->
<g id="Node000024" class="node">
<title>Node24</title>
<g id="a_Node000024"><a xlink:href="iop_2system_2iopmgr_2src_2main_8c.html" target="_top" xlink:title=" ">
<polygon fill="white" stroke="#666666" points="2953.38,-141 2841.38,-141 2841.38,-110.5 2953.38,-110.5 2953.38,-141"/>
<text text-anchor="start" x="2849.38" y="-127.5" font-family="Helvetica,sans-Serif" font-size="10.00">iop/system/iopmgr/src</text>
<text text-anchor="middle" x="2897.38" y="-116.25" font-family="Helvetica,sans-Serif" font-size="10.00">/main.c</text>
</a>
</g>
</g>
<!-- Node1&#45;&gt;Node24 -->
<g id="edge23_Node000001_Node000024" class="edge">
<title>Node1&#45;&gt;Node24</title>
<g id="a_edge23_Node000001_Node000024"><a xlink:title=" ">
<path fill="none" stroke="#63b8ff" d="M2195.86,-189.88C2315.11,-186.41 2597.8,-175.03 2832.38,-141 2835.23,-140.59 2838.15,-140.12 2841.1,-139.61"/>
<polygon fill="#63b8ff" stroke="#63b8ff" points="2195.91,-186.37 2186.02,-190.15 2196.11,-193.37 2195.91,-186.37"/>
</a>
</g>
</g>
<!-- Node25 -->
<g id="Node000025" class="node">
<title>Node25</title>
<g id="a_Node000025"><a xlink:href="iop_2system_2iopmgr_2src_2slib_8c.html" target="_top" xlink:title=" ">
<polygon fill="white" stroke="#666666" points="3083.38,-141 2971.38,-141 2971.38,-110.5 3083.38,-110.5 3083.38,-141"/>
<text text-anchor="start" x="2979.38" y="-127.5" font-family="Helvetica,sans-Serif" font-size="10.00">iop/system/iopmgr/src</text>
<text text-anchor="middle" x="3027.38" y="-116.25" font-family="Helvetica,sans-Serif" font-size="10.00">/slib.c</text>
</a>
</g>
</g>
<!-- Node1&#45;&gt;Node25 -->
<g id="edge24_Node000001_Node000025" class="edge">
<title>Node1&#45;&gt;Node25</title>
<g id="a_edge24_Node000001_Node000025"><a xlink:title=" ">
<path fill="none" stroke="#63b8ff" d="M2195.86,-190.8C2330.5,-189.08 2676.51,-180.81 2962.38,-141 2965.24,-140.6 2968.16,-140.15 2971.1,-139.65"/>
<polygon fill="#63b8ff" stroke="#63b8ff" points="2196.1,-187.3 2186.15,-190.92 2196.19,-194.3 2196.1,-187.3"/>
</a>
</g>
</g>
<!-- Node26 -->
<g id="Node000026" class="node">
<title>Node26</title>
<g id="a_Node000026"><a xlink:href="iop_2system_2iopmgr_2src_2smod_8c.html" target="_top" xlink:title=" ">
<polygon fill="white" stroke="#666666" points="3213.38,-141 3101.38,-141 3101.38,-110.5 3213.38,-110.5 3213.38,-141"/>
<text text-anchor="start" x="3109.38" y="-127.5" font-family="Helvetica,sans-Serif" font-size="10.00">iop/system/iopmgr/src</text>
<text text-anchor="middle" x="3157.38" y="-116.25" font-family="Helvetica,sans-Serif" font-size="10.00">/smod.c</text>
</a>
</g>
</g>
<!-- Node1&#45;&gt;Node26 -->
<g id="edge25_Node000001_Node000026" class="edge">
<title>Node1&#45;&gt;Node26</title>
<g id="a_edge25_Node000001_Node000026"><a xlink:title=" ">
<path fill="none" stroke="#63b8ff" d="M2195.81,-191.48C2344.63,-191.37 2754.71,-186.6 3092.38,-141 3095.24,-140.61 3098.16,-140.17 3101.11,-139.67"/>
<polygon fill="#63b8ff" stroke="#63b8ff" points="2195.81,-187.98 2185.81,-191.48 2195.81,-194.98 2195.81,-187.98"/>
</a>
</g>
</g>
<!-- Node27 -->
<g id="Node000027" class="node">
<title>Node27</title>
<g id="a_Node000027"><a xlink:href="sbusintr_8c.html" target="_top" xlink:title=" ">
<polygon fill="white" stroke="#666666" points="3331.75,-141 3231,-141 3231,-110.5 3331.75,-110.5 3331.75,-141"/>
<text text-anchor="start" x="3239" y="-127.5" font-family="Helvetica,sans-Serif" font-size="10.00">iop/system/sbusintr</text>
<text text-anchor="middle" x="3281.38" y="-116.25" font-family="Helvetica,sans-Serif" font-size="10.00">/src/sbusintr.c</text>
</a>
</g>
</g>
<!-- Node1&#45;&gt;Node27 -->
<g id="edge26_Node000001_Node000027" class="edge">
<title>Node1&#45;&gt;Node27</title>
<g id="a_edge26_Node000001_Node000027"><a xlink:title=" ">
<path fill="none" stroke="#63b8ff" d="M2195.83,-190.03C2390.08,-185.69 3021.32,-169.67 3222.38,-141 3225.09,-140.61 3227.86,-140.16 3230.65,-139.65"/>
<polygon fill="#63b8ff" stroke="#63b8ff" points="2195.92,-186.53 2186,-190.25 2196.07,-193.53 2195.92,-186.53"/>
</a>
</g>
</g>
<!-- Node28 -->
<g id="Node000028" class="node">
<title>Node28</title>
<g id="a_Node000028"><a xlink:href="pipe_8c.html" target="_top" xlink:title=" ">
<polygon fill="white" stroke="#666666" points="3456.75,-141 3350,-141 3350,-110.5 3456.75,-110.5 3456.75,-141"/>
<text text-anchor="start" x="3358" y="-127.5" font-family="Helvetica,sans-Serif" font-size="10.00">iop/system/siftoo/src</text>
<text text-anchor="middle" x="3403.38" y="-116.25" font-family="Helvetica,sans-Serif" font-size="10.00">/pipe.c</text>
</a>
</g>
</g>
<!-- Node1&#45;&gt;Node28 -->
<g id="edge27_Node000001_Node000028" class="edge">
<title>Node1&#45;&gt;Node28</title>
<g id="a_edge27_Node000001_Node000028"><a xlink:title=" ">
<path fill="none" stroke="#63b8ff" d="M2195.74,-190.23C2403.32,-186.31 3114.95,-170.96 3340.38,-141 3343.38,-140.6 3346.45,-140.13 3349.53,-139.6"/>
<polygon fill="#63b8ff" stroke="#63b8ff" points="2195.96,-186.72 2186.03,-190.41 2196.09,-193.72 2195.96,-186.72"/>
</a>
</g>
</g>
<!-- Node29 -->
<g id="Node000029" class="node">
<title>Node29</title>
<g id="a_Node000029"><a xlink:href="siftoo_8c_source.html" target="_top" xlink:title=" ">
<polygon fill="white" stroke="#666666" points="3581.75,-141 3475,-141 3475,-110.5 3581.75,-110.5 3581.75,-141"/>
<text text-anchor="start" x="3483" y="-127.5" font-family="Helvetica,sans-Serif" font-size="10.00">iop/system/siftoo/src</text>
<text text-anchor="middle" x="3528.38" y="-116.25" font-family="Helvetica,sans-Serif" font-size="10.00">/siftoo.c</text>
</a>
</g>
</g>
<!-- Node1&#45;&gt;Node29 -->
<g id="edge28_Node000001_Node000029" class="edge">
<title>Node1&#45;&gt;Node29</title>
<g id="a_edge28_Node000001_Node000029"><a xlink:title=" ">
<path fill="none" stroke="#63b8ff" d="M2195.72,-190.49C2416.85,-187.33 3214.27,-173.87 3465.38,-141 3468.38,-140.61 3471.45,-140.14 3474.54,-139.61"/>
<polygon fill="#63b8ff" stroke="#63b8ff" points="2195.88,-186.99 2185.93,-190.63 2195.97,-193.98 2195.88,-186.99"/>
</a>
</g>
</g>
<!-- Node30 -->
<g id="Node000030" class="node">
<title>Node30</title>
<g id="a_Node000030"><a xlink:href="sio2man_8c.html" target="_top" xlink:title=" ">
<polygon fill="white" stroke="#666666" points="3702.88,-141 3599.88,-141 3599.88,-110.5 3702.88,-110.5 3702.88,-141"/>
<text text-anchor="start" x="3607.88" y="-127.5" font-family="Helvetica,sans-Serif" font-size="10.00">iop/system/sio2man</text>
<text text-anchor="middle" x="3651.38" y="-116.25" font-family="Helvetica,sans-Serif" font-size="10.00">/src/sio2man.c</text>
</a>
</g>
</g>
<!-- Node1&#45;&gt;Node30 -->
<g id="edge29_Node000001_Node000030" class="edge">
<title>Node1&#45;&gt;Node30</title>
<g id="a_edge29_Node000001_Node000030"><a xlink:title=" ">
<path fill="none" stroke="#63b8ff" d="M2196.04,-190.75C2430.6,-188.51 3313.75,-177.74 3590.38,-141 3593.39,-140.6 3596.48,-140.12 3599.59,-139.57"/>
<polygon fill="#63b8ff" stroke="#63b8ff" points="2196.2,-187.25 2186.23,-190.85 2196.27,-194.25 2196.2,-187.25"/>
</a>
</g>
</g>
<!-- Node31 -->
<g id="Node000031" class="node">
<title>Node31</title>
<g id="a_Node000031"><a xlink:href="driver_8c.html" target="_top" xlink:title=" ">
<polygon fill="white" stroke="#666666" points="3868.62,-19.25 3746.12,-19.25 3746.12,0 3868.62,0 3868.62,-19.25"/>
<text text-anchor="middle" x="3807.38" y="-5.75" font-family="Helvetica,sans-Serif" font-size="10.00">iop/usb/usbd/src/driver.c</text>
</a>
</g>
</g>
<!-- Node1&#45;&gt;Node31 -->
<g id="edge30_Node000001_Node000031" class="edge">
<title>Node1&#45;&gt;Node31</title>
<g id="a_edge30_Node000001_Node000031"><a xlink:title=" ">
<path fill="none" stroke="#63b8ff" d="M2195.91,-191.05C2471.66,-189.91 3647.34,-182.59 3712.38,-141 3748.29,-118.03 3729.13,-88.85 3755.38,-55.25 3766.51,-41 3782.75,-27.94 3794.11,-19.68"/>
<polygon fill="#63b8ff" stroke="#63b8ff" points="2196.09,-187.55 2186.11,-191.09 2196.12,-194.55 2196.09,-187.55"/>
</a>
</g>
</g>
<!-- Node32 -->
<g id="Node000032" class="node">
<title>Node32</title>
<g id="a_Node000032"><a xlink:href="hub_8c.html" target="_top" xlink:title=" ">
<polygon fill="white" stroke="#666666" points="4424.5,-19.25 4310.25,-19.25 4310.25,0 4424.5,0 4424.5,-19.25"/>
<text text-anchor="middle" x="4367.38" y="-5.75" font-family="Helvetica,sans-Serif" font-size="10.00">iop/usb/usbd/src/hub.c</text>
</a>
</g>
</g>
<!-- Node1&#45;&gt;Node32 -->
<g id="edge31_Node000001_Node000032" class="edge">
<title>Node1&#45;&gt;Node32</title>
<g id="a_edge31_Node000001_Node000032"><a xlink:title=" ">
<path fill="none" stroke="#63b8ff" d="M2195.73,-191.55C2488.6,-192.82 3819.42,-195.44 4228.38,-141 4351.31,-124.64 4422.84,-172.09 4499.38,-74.5 4523.65,-43.55 4470.54,-26.69 4424.62,-18.19"/>
<polygon fill="#63b8ff" stroke="#63b8ff" points="2196.08,-188.05 2186.06,-191.51 2196.05,-195.05 2196.08,-188.05"/>
</a>
</g>
</g>
<!-- Node33 -->
<g id="Node000033" class="node">
<title>Node33</title>
<g id="a_Node000033"><a xlink:href="interface_8c.html" target="_top" xlink:title=" ">
<polygon fill="white" stroke="#666666" points="4022.38,-19.25 3886.38,-19.25 3886.38,0 4022.38,0 4022.38,-19.25"/>
<text text-anchor="middle" x="3954.38" y="-5.75" font-family="Helvetica,sans-Serif" font-size="10.00">iop/usb/usbd/src/interface.c</text>
</a>
</g>
</g>
<!-- Node1&#45;&gt;Node33 -->
<g id="edge32_Node000001_Node000033" class="edge">
<title>Node1&#45;&gt;Node33</title>
<g id="a_edge32_Node000001_Node000033"><a xlink:title=" ">
<path fill="none" stroke="#63b8ff" d="M2196.03,-191.46C2465.09,-192.15 3590.48,-191.98 3738.38,-141 3799.33,-119.99 3799.68,-87.73 3855.38,-55.25 3880.13,-40.81 3910.39,-27.79 3930.89,-19.59"/>
<polygon fill="#63b8ff" stroke="#63b8ff" points="2196.12,-187.96 2186.12,-191.43 2196.11,-194.96 2196.12,-187.96"/>
</a>
</g>
</g>
<!-- Node34 -->
<g id="Node000034" class="node">
<title>Node34</title>
<g id="a_Node000034"><a xlink:href="usbdpriv_8h.html" target="_top" xlink:title=" ">
<polygon fill="white" stroke="#666666" points="4219,-135.38 4083.75,-135.38 4083.75,-116.12 4219,-116.12 4219,-135.38"/>
<text text-anchor="middle" x="4151.38" y="-121.88" font-family="Helvetica,sans-Serif" font-size="10.00">iop/usb/usbd/src/usbdpriv.h</text>
</a>
</g>
</g>
<!-- Node1&#45;&gt;Node34 -->
<g id="edge33_Node000001_Node000034" class="edge">
<title>Node1&#45;&gt;Node34</title>
<g id="a_edge33_Node000001_Node000034"><a xlink:title=" ">
<path fill="none" stroke="#63b8ff" d="M2195.91,-189.66C2407.36,-183.79 3161.56,-162.54 3783.38,-141 3888.17,-137.37 4009.72,-132.54 4083.56,-129.54"/>
<polygon fill="#63b8ff" stroke="#63b8ff" points="2195.91,-186.16 2186.01,-189.94 2196.11,-193.16 2195.91,-186.16"/>
</a>
</g>
</g>
<!-- Node34&#45;&gt;Node31 -->
<g id="edge34_Node000034_Node000031" class="edge">
<title>Node34&#45;&gt;Node31</title>
<g id="a_edge34_Node000034_Node000031"><a xlink:title=" ">
<path fill="none" stroke="#63b8ff" d="M4072.12,-117.94C3997.12,-110.32 3890.89,-96.14 3855.38,-74.5 3833.34,-61.07 3817.99,-33.44 3811.24,-19.33"/>
<polygon fill="#63b8ff" stroke="#63b8ff" points="4071.61,-121.41 4081.9,-118.91 4072.3,-114.44 4071.61,-121.41"/>
</a>
</g>
</g>
<!-- Node34&#45;&gt;Node32 -->
<g id="edge45_Node000034_Node000032" class="edge">
<title>Node34&#45;&gt;Node32</title>
<g id="a_edge45_Node000034_Node000032"><a xlink:title=" ">
<path fill="none" stroke="#63b8ff" d="M4230.98,-124.13C4318.39,-121.56 4450.6,-111.46 4482.38,-74.5 4505.75,-47.31 4457.2,-29.45 4416.16,-19.7"/>
<polygon fill="#63b8ff" stroke="#63b8ff" points="4230.91,-120.63 4221,-124.39 4231.09,-127.63 4230.91,-120.63"/>
</a>
</g>
</g>
<!-- Node34&#45;&gt;Node33 -->
<g id="edge50_Node000034_Node000033" class="edge">
<title>Node34&#45;&gt;Node33</title>
<g id="a_edge50_Node000034_Node000033"><a xlink:title=" ">
<path fill="none" stroke="#63b8ff" d="M4071.93,-121.95C3996.37,-117.41 3890.45,-105.54 3864.38,-74.5 3843.92,-50.15 3887.83,-30.52 3921.24,-19.73"/>
<polygon fill="#63b8ff" stroke="#63b8ff" points="4071.62,-125.43 4081.81,-122.5 4072.02,-118.44 4071.62,-125.43"/>
</a>
</g>
</g>
<!-- Node35 -->
<g id="Node000035" class="node">
<title>Node35</title>
<g id="a_Node000035"><a xlink:href="driver_8h.html" target="_top" xlink:title=" ">
<polygon fill="white" stroke="#666666" points="3995.62,-74.5 3873.12,-74.5 3873.12,-55.25 3995.62,-55.25 3995.62,-74.5"/>
<text text-anchor="middle" x="3934.38" y="-61" font-family="Helvetica,sans-Serif" font-size="10.00">iop/usb/usbd/src/driver.h</text>
</a>
</g>
</g>
<!-- Node34&#45;&gt;Node35 -->
<g id="edge35_Node000034_Node000035" class="edge">
<title>Node34&#45;&gt;Node35</title>
<g id="a_edge35_Node000034_Node000035"><a xlink:title=" ">
<path fill="none" stroke="#63b8ff" d="M4106.85,-112.67C4065.59,-101.48 4005.13,-85.07 3967.84,-74.96"/>
<polygon fill="#63b8ff" stroke="#63b8ff" points="4105.92,-116.04 4116.48,-115.28 4107.75,-109.29 4105.92,-116.04"/>
</a>
</g>
</g>
<!-- Node36 -->
<g id="Node000036" class="node">
<title>Node36</title>
<g id="a_Node000036"><a xlink:href="hcd_8c.html" target="_top" xlink:title=" ">
<polygon fill="white" stroke="#666666" points="4154.5,-19.25 4040.25,-19.25 4040.25,0 4154.5,0 4154.5,-19.25"/>
<text text-anchor="middle" x="4097.38" y="-5.75" font-family="Helvetica,sans-Serif" font-size="10.00">iop/usb/usbd/src/hcd.c</text>
</a>
</g>
</g>
<!-- Node34&#45;&gt;Node36 -->
<g id="edge40_Node000034_Node000036" class="edge">
<title>Node34&#45;&gt;Node36</title>
<g id="a_edge40_Node000034_Node000036"><a xlink:title=" ">
<path fill="none" stroke="#63b8ff" d="M4094.23,-112C4074.34,-104.53 4054.09,-92.8 4042.38,-74.5 4028.73,-53.18 4058.64,-31.5 4079.48,-19.69"/>
<polygon fill="#63b8ff" stroke="#63b8ff" points="4092.85,-115.23 4103.44,-115.14 4095.11,-108.6 4092.85,-115.23"/>
</a>
</g>
</g>
<!-- Node37 -->
<g id="Node000037" class="node">
<title>Node37</title>
<g id="a_Node000037"><a xlink:href="hcd_8h.html" target="_top" xlink:title=" ">
<polygon fill="white" stroke="#666666" points="4335.5,-74.5 4221.25,-74.5 4221.25,-55.25 4335.5,-55.25 4335.5,-74.5"/>
<text text-anchor="middle" x="4278.38" y="-61" font-family="Helvetica,sans-Serif" font-size="10.00">iop/usb/usbd/src/hcd.h</text>
</a>
</g>
</g>
<!-- Node34&#45;&gt;Node37 -->
<g id="edge41_Node000034_Node000037" class="edge">
<title>Node34&#45;&gt;Node37</title>
<g id="a_edge41_Node000034_Node000037"><a xlink:title=" ">
<path fill="none" stroke="#63b8ff" d="M4181.26,-110.89C4205.28,-99.76 4238.31,-84.45 4259,-74.86"/>
<polygon fill="#63b8ff" stroke="#63b8ff" points="4179.91,-107.66 4172.31,-115.04 4182.86,-114.01 4179.91,-107.66"/>
</a>
</g>
</g>
<!-- Node38 -->
<g id="Node000038" class="node">
<title>Node38</title>
<g id="a_Node000038"><a xlink:href="usbd_8c.html" target="_top" xlink:title=" ">
<polygon fill="white" stroke="#666666" points="4292.12,-19.25 4172.62,-19.25 4172.62,0 4292.12,0 4292.12,-19.25"/>
<text text-anchor="middle" x="4232.38" y="-5.75" font-family="Helvetica,sans-Serif" font-size="10.00">iop/usb/usbd/src/usbd.c</text>
</a>
</g>
</g>
<!-- Node34&#45;&gt;Node38 -->
<g id="edge60_Node000034_Node000038" class="edge">
<title>Node34&#45;&gt;Node38</title>
<g id="a_edge60_Node000034_Node000038"><a xlink:title=" ">
<path fill="none" stroke="#63b8ff" d="M4164.39,-106.41C4182.03,-81.56 4212.83,-38.17 4226.05,-19.54"/>
<polygon fill="#63b8ff" stroke="#63b8ff" points="4161.54,-104.38 4158.61,-114.56 4167.25,-108.43 4161.54,-104.38"/>
</a>
</g>
</g>
<!-- Node39 -->
<g id="Node000039" class="node">
<title>Node39</title>
<g id="a_Node000039"><a xlink:href="hub_8h.html" target="_top" xlink:title=" ">
<polygon fill="white" stroke="#666666" points="4165.5,-74.5 4051.25,-74.5 4051.25,-55.25 4165.5,-55.25 4165.5,-74.5"/>
<text text-anchor="middle" x="4108.38" y="-61" font-family="Helvetica,sans-Serif" font-size="10.00">iop/usb/usbd/src/hub.h</text>
</a>
</g>
</g>
<!-- Node34&#45;&gt;Node39 -->
<g id="edge46_Node000034_Node000039" class="edge">
<title>Node34&#45;&gt;Node39</title>
<g id="a_edge46_Node000034_Node000039"><a xlink:title=" ">
<path fill="none" stroke="#63b8ff" d="M4138.15,-106.64C4130.46,-96.11 4121.11,-83.32 4114.97,-74.9"/>
<polygon fill="#63b8ff" stroke="#63b8ff" points="4135.23,-108.57 4143.95,-114.59 4140.88,-104.45 4135.23,-108.57"/>
</a>
</g>
</g>
<!-- Node40 -->
<g id="Node000040" class="node">
<title>Node40</title>
<g id="a_Node000040"><a xlink:href="mem_8c.html" target="_top" xlink:title=" ">
<polygon fill="white" stroke="#666666" points="4702.5,-19.25 4582.25,-19.25 4582.25,0 4702.5,0 4702.5,-19.25"/>
<text text-anchor="middle" x="4642.38" y="-5.75" font-family="Helvetica,sans-Serif" font-size="10.00">iop/usb/usbd/src/mem.c</text>
</a>
</g>
</g>
<!-- Node34&#45;&gt;Node40 -->
<g id="edge51_Node000034_Node000040" class="edge">
<title>Node34&#45;&gt;Node40</title>
<g id="a_edge51_Node000034_Node000040"><a xlink:title=" ">
<path fill="none" stroke="#63b8ff" d="M4230.57,-121.53C4305.85,-116.7 4421.49,-104.63 4517.38,-74.5 4560.39,-60.99 4606.51,-33.65 4628.79,-19.52"/>
<polygon fill="#63b8ff" stroke="#63b8ff" points="4230.58,-118.02 4220.82,-122.13 4231.01,-125.01 4230.58,-118.02"/>
</a>
</g>
</g>
<!-- Node41 -->
<g id="Node000041" class="node">
<title>Node41</title>
<g id="a_Node000041"><a xlink:href="mem_8h.html" target="_top" xlink:title=" ">
<polygon fill="white" stroke="#666666" points="4473.5,-74.5 4353.25,-74.5 4353.25,-55.25 4473.5,-55.25 4473.5,-74.5"/>
<text text-anchor="middle" x="4413.38" y="-61" font-family="Helvetica,sans-Serif" font-size="10.00">iop/usb/usbd/src/mem.h</text>
</a>
</g>
</g>
<!-- Node34&#45;&gt;Node41 -->
<g id="edge52_Node000034_Node000041" class="edge">
<title>Node34&#45;&gt;Node41</title>
<g id="a_edge52_Node000034_Node000041"><a xlink:title=" ">
<path fill="none" stroke="#63b8ff" d="M4202.91,-113.17C4252.76,-101.97 4327.27,-85.22 4372.97,-74.96"/>
<polygon fill="#63b8ff" stroke="#63b8ff" points="4202.2,-109.74 4193.22,-115.35 4203.74,-116.57 4202.2,-109.74"/>
</a>
</g>
</g>
<!-- Node42 -->
<g id="Node000042" class="node">
<title>Node42</title>
<g id="a_Node000042"><a xlink:href="usbio_8c.html" target="_top" xlink:title=" ">
<polygon fill="white" stroke="#666666" points="4564.25,-19.25 4442.5,-19.25 4442.5,0 4564.25,0 4564.25,-19.25"/>
<text text-anchor="middle" x="4503.38" y="-5.75" font-family="Helvetica,sans-Serif" font-size="10.00">iop/usb/usbd/src/usbio.c</text>
</a>
</g>
</g>
<!-- Node34&#45;&gt;Node42 -->
<g id="edge61_Node000034_Node000042" class="edge">
<title>Node34&#45;&gt;Node42</title>
<g id="a_edge61_Node000034_Node000042"><a xlink:title=" ">
<path fill="none" stroke="#63b8ff" d="M4230.93,-124.46C4322.31,-122.28 4464.2,-112.64 4499.38,-74.5 4513.24,-59.47 4509.24,-33.05 4505.89,-19.37"/>
<polygon fill="#63b8ff" stroke="#63b8ff" points="4230.93,-120.96 4221.01,-124.67 4231.08,-127.96 4230.93,-120.96"/>
</a>
</g>
</g>
<!-- Node35&#45;&gt;Node31 -->
<g id="edge36_Node000035_Node000031" class="edge">
<title>Node35&#45;&gt;Node31</title>
<g id="a_edge36_Node000035_Node000031"><a xlink:title=" ">
<path fill="none" stroke="#63b8ff" d="M3902.24,-50.4C3879.33,-40.79 3849.13,-28.13 3829.02,-19.7"/>
<polygon fill="#63b8ff" stroke="#63b8ff" points="3900.86,-53.62 3911.44,-54.26 3903.57,-47.16 3900.86,-53.62"/>
</a>
</g>
</g>
<!-- Node35&#45;&gt;Node32 -->
<g id="edge38_Node000035_Node000032" class="edge">
<title>Node35&#45;&gt;Node32</title>
<g id="a_edge38_Node000035_Node000032"><a xlink:title=" ">
<path fill="none" stroke="#63b8ff" d="M4007.13,-55.22C4081.2,-46.37 4199.31,-32.12 4301.38,-19.25 4304.13,-18.9 4306.94,-18.55 4309.79,-18.18"/>
<polygon fill="#63b8ff" stroke="#63b8ff" points="4007.1,-51.7 3997.59,-56.36 4007.93,-58.65 4007.1,-51.7"/>
</a>
</g>
</g>
<!-- Node35&#45;&gt;Node33 -->
<g id="edge39_Node000035_Node000033" class="edge">
<title>Node35&#45;&gt;Node33</title>
<g id="a_edge39_Node000035_Node000033"><a xlink:title=" ">
<path fill="none" stroke="#63b8ff" d="M3941.65,-44.5C3944.85,-35.99 3948.45,-26.4 3951,-19.61"/>
<polygon fill="#63b8ff" stroke="#63b8ff" points="3938.45,-43.07 3938.21,-53.66 3945,-45.53 3938.45,-43.07"/>
</a>
</g>
</g>
<!-- Node35&#45;&gt;Node36 -->
<g id="edge37_Node000035_Node000036" class="edge">
<title>Node35&#45;&gt;Node36</title>
<g id="a_edge37_Node000035_Node000036"><a xlink:title=" ">
<path fill="none" stroke="#63b8ff" d="M3972.84,-51.31C4002.55,-41.6 4042.96,-28.4 4069.59,-19.7"/>
<polygon fill="#63b8ff" stroke="#63b8ff" points="3971.88,-47.94 3963.46,-54.37 3974.06,-54.59 3971.88,-47.94"/>
</a>
</g>
</g>
<!-- Node37&#45;&gt;Node32 -->
<g id="edge42_Node000037_Node000032" class="edge">
<title>Node37&#45;&gt;Node32</title>
<g id="a_edge42_Node000037_Node000032"><a xlink:title=" ">
<path fill="none" stroke="#63b8ff" d="M4303.11,-49.07C4318.86,-39.65 4338.75,-27.75 4352.2,-19.7"/>
<polygon fill="#63b8ff" stroke="#63b8ff" points="4301.56,-45.93 4294.77,-54.06 4305.15,-51.93 4301.56,-45.93"/>
</a>
</g>
</g>
<!-- Node37&#45;&gt;Node33 -->
<g id="edge43_Node000037_Node000033" class="edge">
<title>Node37&#45;&gt;Node33</title>
<g id="a_edge43_Node000037_Node000033"><a xlink:title=" ">
<path fill="none" stroke="#63b8ff" d="M4211.86,-52.94C4152.21,-43.14 4065.71,-28.92 4009.75,-19.73"/>
<polygon fill="#63b8ff" stroke="#63b8ff" points="4211.12,-56.37 4221.55,-54.54 4212.25,-49.46 4211.12,-56.37"/>
</a>
</g>
</g>
<!-- Node37&#45;&gt;Node38 -->
<g id="edge44_Node000037_Node000038" class="edge">
<title>Node37&#45;&gt;Node38</title>
<g id="a_edge44_Node000037_Node000038"><a xlink:title=" ">
<path fill="none" stroke="#63b8ff" d="M4263.37,-46.51C4255.62,-37.53 4246.47,-26.95 4240.14,-19.61"/>
<polygon fill="#63b8ff" stroke="#63b8ff" points="4260.6,-48.66 4269.79,-53.94 4265.9,-44.08 4260.6,-48.66"/>
</a>
</g>
</g>
<!-- Node39&#45;&gt;Node31 -->
<g id="edge47_Node000039_Node000031" class="edge">
<title>Node39&#45;&gt;Node31</title>
<g id="a_edge47_Node000039_Node000031"><a xlink:title=" ">
<path fill="none" stroke="#63b8ff" d="M4045.89,-52.82C3990.5,-43.02 3910.59,-28.88 3858.82,-19.73"/>
<polygon fill="#63b8ff" stroke="#63b8ff" points="4045.03,-56.22 4055.48,-54.52 4046.25,-49.33 4045.03,-56.22"/>
</a>
</g>
</g>
<!-- Node39&#45;&gt;Node36 -->
<g id="edge48_Node000039_Node000036" class="edge">
<title>Node39&#45;&gt;Node36</title>
<g id="a_edge48_Node000039_Node000036"><a xlink:title=" ">
<path fill="none" stroke="#63b8ff" d="M4104.25,-43.92C4102.52,-35.55 4100.6,-26.25 4099.23,-19.61"/>
<polygon fill="#63b8ff" stroke="#63b8ff" points="4100.8,-44.51 4106.25,-53.6 4107.66,-43.1 4100.8,-44.51"/>
</a>
</g>
</g>
<!-- Node39&#45;&gt;Node38 -->
<g id="edge49_Node000039_Node000038" class="edge">
<title>Node39&#45;&gt;Node38</title>
<g id="a_edge49_Node000039_Node000038"><a xlink:title=" ">
<path fill="none" stroke="#63b8ff" d="M4139.75,-50.4C4162.12,-40.79 4191.61,-28.13 4211.24,-19.7"/>
<polygon fill="#63b8ff" stroke="#63b8ff" points="4138.61,-47.08 4130.8,-54.24 4141.37,-53.51 4138.61,-47.08"/>
</a>
</g>
</g>
<!-- Node41&#45;&gt;Node31 -->
<g id="edge53_Node000041_Node000031" class="edge">
<title>Node41&#45;&gt;Node31</title>
<g id="a_edge53_Node000041_Node000031"><a xlink:title=" ">
<path fill="none" stroke="#63b8ff" d="M4341.59,-55.01C4135.36,-34.52 4080.87,-39.62 3877.38,-19.25 3874.57,-18.97 3871.71,-18.67 3868.82,-18.36"/>
<polygon fill="#63b8ff" stroke="#63b8ff" points="4341.01,-58.47 4351.31,-55.99 4341.7,-51.51 4341.01,-58.47"/>
</a>
</g>
</g>
<!-- Node41&#45;&gt;Node32 -->
<g id="edge55_Node000041_Node000032" class="edge">
<title>Node41&#45;&gt;Node32</title>
<g id="a_edge55_Node000041_Node000032"><a xlink:title=" ">
<path fill="none" stroke="#63b8ff" d="M4398.37,-46.51C4390.62,-37.53 4381.47,-26.95 4375.14,-19.61"/>
<polygon fill="#63b8ff" stroke="#63b8ff" points="4395.6,-48.66 4404.79,-53.94 4400.9,-44.08 4395.6,-48.66"/>
</a>
</g>
</g>
<!-- Node41&#45;&gt;Node33 -->
<g id="edge56_Node000041_Node000033" class="edge">
<title>Node41&#45;&gt;Node33</title>
<g id="a_edge56_Node000041_Node000033"><a xlink:title=" ">
<path fill="none" stroke="#63b8ff" d="M4341.56,-54.93C4267.08,-46.1 4112.46,-28.53 4022.56,-18.34"/>
<polygon fill="#63b8ff" stroke="#63b8ff" points="4340.95,-58.38 4351.29,-56.09 4341.78,-51.43 4340.95,-58.38"/>
</a>
</g>
</g>
<!-- Node41&#45;&gt;Node36 -->
<g id="edge54_Node000041_Node000036" class="edge">
<title>Node41&#45;&gt;Node36</title>
<g id="a_edge54_Node000041_Node000036"><a xlink:title=" ">
<path fill="none" stroke="#63b8ff" d="M4348.14,-52.88C4289.98,-43.08 4205.85,-28.9 4151.38,-19.73"/>
<polygon fill="#63b8ff" stroke="#63b8ff" points="4347.48,-56.32 4357.92,-54.53 4348.64,-49.42 4347.48,-56.32"/>
</a>
</g>
</g>
<!-- Node41&#45;&gt;Node38 -->
<g id="edge58_Node000041_Node000038" class="edge">
<title>Node41&#45;&gt;Node38</title>
<g id="a_edge58_Node000041_Node000038"><a xlink:title=" ">
<path fill="none" stroke="#63b8ff" d="M4371.97,-51.69C4338.86,-41.95 4293.19,-28.52 4263.23,-19.7"/>
<polygon fill="#63b8ff" stroke="#63b8ff" points="4370.64,-54.95 4381.22,-54.41 4372.61,-48.23 4370.64,-54.95"/>
</a>
</g>
</g>
<!-- Node41&#45;&gt;Node40 -->
<g id="edge57_Node000041_Node000040" class="edge">
<title>Node41&#45;&gt;Node40</title>
<g id="a_edge57_Node000041_Node000040"><a xlink:title=" ">
<path fill="none" stroke="#63b8ff" d="M4463.59,-52.2C4505.67,-42.41 4564.87,-28.65 4603.43,-19.68"/>
<polygon fill="#63b8ff" stroke="#63b8ff" points="4462.9,-48.76 4453.96,-54.44 4464.49,-55.58 4462.9,-48.76"/>
</a>
</g>
</g>
<!-- Node41&#45;&gt;Node42 -->
<g id="edge59_Node000041_Node000042" class="edge">
<title>Node41&#45;&gt;Node42</title>
<g id="a_edge59_Node000041_Node000042"><a xlink:title=" ">
<path fill="none" stroke="#63b8ff" d="M4438.39,-49.07C4454.32,-39.65 4474.43,-27.75 4488.03,-19.7"/>
<polygon fill="#63b8ff" stroke="#63b8ff" points="4436.77,-45.97 4429.94,-54.07 4440.33,-51.99 4436.77,-45.97"/>
</a>
</g>
</g>
</g>
</svg>
