<?xml version="1.0" encoding="UTF-8" standalone="no"?>
<!DOCTYPE svg PUBLIC "-//W3C//DTD SVG 1.1//EN"
 "http://www.w3.org/Graphics/SVG/1.1/DTD/svg11.dtd">
<!-- Generated by graphviz version 12.2.0 (20241103.1931)
 -->
<!-- Title: iop/kernel/include/defs.h Pages: 1 -->
<svg width="4202pt" height="160pt"
 viewBox="0.00 0.00 4202.25 160.25" xmlns="http://www.w3.org/2000/svg" xmlns:xlink="http://www.w3.org/1999/xlink">
<g id="graph0" class="graph" transform="scale(1 1) rotate(0) translate(4 156.25)">
<title>iop/kernel/include/defs.h</title>
<!-- Node1 -->
<g id="Node000001" class="node">
<title>Node1</title>
<g id="a_Node000001"><a xlink:title=" ">
<polygon fill="#999999" stroke="#666666" points="1949.25,-152.25 1857.5,-152.25 1857.5,-121.75 1949.25,-121.75 1949.25,-152.25"/>
<text text-anchor="start" x="1865.5" y="-138.75" font-family="Helvetica,sans-Serif" font-size="10.00">iop/kernel/include</text>
<text text-anchor="middle" x="1903.38" y="-127.5" font-family="Helvetica,sans-Serif" font-size="10.00">/defs.h</text>
</a>
</g>
</g>
<!-- Node2 -->
<g id="Node000002" class="node">
<title>Node2</title>
<g id="a_Node000002"><a xlink:href="ioptrap_8c.html" target="_top" xlink:title=" ">
<polygon fill="white" stroke="#666666" points="106.75,-85.75 0,-85.75 0,-55.25 106.75,-55.25 106.75,-85.75"/>
<text text-anchor="start" x="8" y="-72.25" font-family="Helvetica,sans-Serif" font-size="10.00">iop/debug/ioptrap/src</text>
<text text-anchor="middle" x="53.38" y="-61" font-family="Helvetica,sans-Serif" font-size="10.00">/ioptrap.c</text>
</a>
</g>
</g>
<!-- Node1&#45;&gt;Node2 -->
<g id="edge1_Node000001_Node000002" class="edge">
<title>Node1&#45;&gt;Node2</title>
<g id="a_edge1_Node000001_Node000002"><a xlink:title=" ">
<path fill="none" stroke="#63b8ff" d="M1845.98,-135.91C1579.56,-135.28 461.77,-129.98 115.38,-85.75 112.64,-85.4 109.84,-84.98 107.03,-84.51"/>
<polygon fill="#63b8ff" stroke="#63b8ff" points="1845.77,-139.41 1855.78,-135.94 1845.79,-132.41 1845.77,-139.41"/>
</a>
</g>
</g>
<!-- Node3 -->
<g id="Node000003" class="node">
<title>Node3</title>
<g id="a_Node000003"><a xlink:href="sior_8c_source.html" target="_top" xlink:title=" ">
<polygon fill="white" stroke="#666666" points="218,-85.75 124.75,-85.75 124.75,-55.25 218,-55.25 218,-85.75"/>
<text text-anchor="start" x="132.75" y="-72.25" font-family="Helvetica,sans-Serif" font-size="10.00">iop/debug/sior/src</text>
<text text-anchor="middle" x="171.38" y="-61" font-family="Helvetica,sans-Serif" font-size="10.00">/sior.c</text>
</a>
</g>
</g>
<!-- Node1&#45;&gt;Node3 -->
<g id="edge2_Node000001_Node000003" class="edge">
<title>Node1&#45;&gt;Node3</title>
<g id="a_edge2_Node000001_Node000003"><a xlink:title=" ">
<path fill="none" stroke="#63b8ff" d="M1845.84,-135.97C1589.51,-135.55 549.97,-131.07 227.38,-85.75 224.39,-85.33 221.34,-84.82 218.28,-84.23"/>
<polygon fill="#63b8ff" stroke="#63b8ff" points="1845.58,-139.47 1855.59,-135.98 1845.59,-132.47 1845.58,-139.47"/>
</a>
</g>
</g>
<!-- Node4 -->
<g id="Node000004" class="node">
<title>Node4</title>
<g id="a_Node000004"><a xlink:href="ps2atad_8c.html" target="_top" xlink:title=" ">
<polygon fill="white" stroke="#666666" points="372.38,-80.12 236.38,-80.12 236.38,-60.88 372.38,-60.88 372.38,-80.12"/>
<text text-anchor="middle" x="304.38" y="-66.62" font-family="Helvetica,sans-Serif" font-size="10.00">iop/dev9/atad/src/ps2atad.c</text>
</a>
</g>
</g>
<!-- Node1&#45;&gt;Node4 -->
<g id="edge3_Node000001_Node000004" class="edge">
<title>Node1&#45;&gt;Node4</title>
<g id="a_edge3_Node000001_Node000004"><a xlink:title=" ">
<path fill="none" stroke="#63b8ff" d="M1845.77,-135.26C1604.38,-131.96 673.27,-117.4 381.38,-85.75 370.16,-84.53 358.12,-82.61 346.97,-80.56"/>
<polygon fill="#63b8ff" stroke="#63b8ff" points="1845.51,-138.75 1855.56,-135.39 1845.61,-131.75 1845.51,-138.75"/>
</a>
</g>
</g>
<!-- Node5 -->
<g id="Node000005" class="node">
<title>Node5</title>
<g id="a_Node000005"><a xlink:href="ps2dev9_8c.html" target="_top" xlink:title=" ">
<polygon fill="white" stroke="#666666" points="530.62,-80.12 390.12,-80.12 390.12,-60.88 530.62,-60.88 530.62,-80.12"/>
<text text-anchor="middle" x="460.38" y="-66.62" font-family="Helvetica,sans-Serif" font-size="10.00">iop/dev9/dev9/src/ps2dev9.c</text>
</a>
</g>
</g>
<!-- Node1&#45;&gt;Node5 -->
<g id="edge4_Node000001_Node000005" class="edge">
<title>Node1&#45;&gt;Node5</title>
<g id="a_edge4_Node000001_Node000005"><a xlink:title=" ">
<path fill="none" stroke="#63b8ff" d="M1845.94,-134.97C1620.89,-130.76 798.73,-113.78 539.38,-85.75 528.01,-84.52 515.82,-82.62 504.5,-80.6"/>
<polygon fill="#63b8ff" stroke="#63b8ff" points="1845.56,-138.46 1855.62,-135.15 1845.69,-131.46 1845.56,-138.46"/>
</a>
</g>
</g>
<!-- Node6 -->
<g id="Node000006" class="node">
<title>Node6</title>
<g id="a_Node000006"><a xlink:href="extflash_8c_source.html" target="_top" xlink:title=" ">
<polygon fill="white" stroke="#666666" points="654,-85.75 548.75,-85.75 548.75,-55.25 654,-55.25 654,-85.75"/>
<text text-anchor="start" x="556.75" y="-72.25" font-family="Helvetica,sans-Serif" font-size="10.00">iop/dev9/extflash/src</text>
<text text-anchor="middle" x="601.38" y="-61" font-family="Helvetica,sans-Serif" font-size="10.00">/extflash.c</text>
</a>
</g>
</g>
<!-- Node1&#45;&gt;Node6 -->
<g id="edge5_Node000001_Node000006" class="edge">
<title>Node1&#45;&gt;Node6</title>
<g id="a_edge5_Node000001_Node000006"><a xlink:title=" ">
<path fill="none" stroke="#63b8ff" d="M1845.64,-135.08C1633.35,-131.48 896.41,-116.98 663.38,-85.75 660.42,-85.35 657.4,-84.88 654.36,-84.36"/>
<polygon fill="#63b8ff" stroke="#63b8ff" points="1845.53,-138.58 1855.59,-135.25 1845.65,-131.58 1845.53,-138.58"/>
</a>
</g>
</g>
<!-- Node7 -->
<g id="Node000007" class="node">
<title>Node7</title>
<g id="a_Node000007"><a xlink:href="hdproatad_8c_source.html" target="_top" xlink:title=" ">
<polygon fill="white" stroke="#666666" points="776.25,-85.75 672.5,-85.75 672.5,-55.25 776.25,-55.25 776.25,-85.75"/>
<text text-anchor="start" x="680.5" y="-72.25" font-family="Helvetica,sans-Serif" font-size="10.00">iop/dev9/hdpro_atad</text>
<text text-anchor="middle" x="724.38" y="-61" font-family="Helvetica,sans-Serif" font-size="10.00">/src/hdproatad.c</text>
</a>
</g>
</g>
<!-- Node1&#45;&gt;Node7 -->
<g id="edge6_Node000001_Node000007" class="edge">
<title>Node1&#45;&gt;Node7</title>
<g id="a_edge6_Node000001_Node000007"><a xlink:title=" ">
<path fill="none" stroke="#63b8ff" d="M1845.78,-134.82C1647.42,-130.52 993.43,-114.48 785.38,-85.75 782.47,-85.35 779.49,-84.87 776.5,-84.34"/>
<polygon fill="#63b8ff" stroke="#63b8ff" points="1845.5,-138.31 1855.57,-135.03 1845.65,-131.31 1845.5,-138.31"/>
</a>
</g>
</g>
<!-- Node8 -->
<g id="Node000008" class="node">
<title>Node8</title>
<g id="a_Node000008"><a xlink:href="iop_2dev9_2poweroff_2src_2poweroff_8c_source.html" target="_top" xlink:title=" ">
<polygon fill="white" stroke="#666666" points="902.88,-85.75 793.88,-85.75 793.88,-55.25 902.88,-55.25 902.88,-85.75"/>
<text text-anchor="start" x="801.88" y="-72.25" font-family="Helvetica,sans-Serif" font-size="10.00">iop/dev9/poweroff/src</text>
<text text-anchor="middle" x="848.38" y="-61" font-family="Helvetica,sans-Serif" font-size="10.00">/poweroff.c</text>
</a>
</g>
</g>
<!-- Node1&#45;&gt;Node8 -->
<g id="edge7_Node000001_Node000008" class="edge">
<title>Node1&#45;&gt;Node8</title>
<g id="a_edge7_Node000001_Node000008"><a xlink:title=" ">
<path fill="none" stroke="#63b8ff" d="M1845.81,-136.46C1692.98,-136.94 1264.67,-133.55 912.38,-85.75 909.33,-85.34 906.21,-84.85 903.08,-84.32"/>
<polygon fill="#63b8ff" stroke="#63b8ff" points="1845.68,-139.96 1855.67,-136.42 1845.66,-132.96 1845.68,-139.96"/>
</a>
</g>
</g>
<!-- Node9 -->
<g id="Node000009" class="node">
<title>Node9</title>
<g id="a_Node000009"><a xlink:href="devfs_8c.html" target="_top" xlink:title=" ">
<polygon fill="white" stroke="#666666" points="1039.38,-80.12 921.38,-80.12 921.38,-60.88 1039.38,-60.88 1039.38,-80.12"/>
<text text-anchor="middle" x="980.38" y="-66.62" font-family="Helvetica,sans-Serif" font-size="10.00">iop/fs/devfs/src/devfs.c</text>
</a>
</g>
</g>
<!-- Node1&#45;&gt;Node9 -->
<g id="edge8_Node000001_Node000009" class="edge">
<title>Node1&#45;&gt;Node9</title>
<g id="a_edge8_Node000001_Node000009"><a xlink:title=" ">
<path fill="none" stroke="#63b8ff" d="M1845.76,-135.55C1707.57,-133.82 1346.62,-125.54 1048.38,-85.75 1038.69,-84.46 1028.33,-82.56 1018.68,-80.56"/>
<polygon fill="#63b8ff" stroke="#63b8ff" points="1845.71,-139.05 1855.76,-135.66 1845.8,-132.05 1845.71,-139.05"/>
</a>
</g>
</g>
<!-- Node10 -->
<g id="Node000010" class="node">
<title>Node10</title>
<g id="a_Node000010"><a xlink:href="devscan_8c.html" target="_top" xlink:title=" ">
<polygon fill="white" stroke="#666666" points="1185.62,-80.12 1057.12,-80.12 1057.12,-60.88 1185.62,-60.88 1185.62,-80.12"/>
<text text-anchor="middle" x="1121.38" y="-66.62" font-family="Helvetica,sans-Serif" font-size="10.00">iop/fs/netfs/src/devscan.c</text>
</a>
</g>
</g>
<!-- Node1&#45;&gt;Node10 -->
<g id="edge9_Node000001_Node000010" class="edge">
<title>Node1&#45;&gt;Node10</title>
<g id="a_edge9_Node000001_Node000010"><a xlink:title=" ">
<path fill="none" stroke="#63b8ff" d="M1845.97,-134.31C1725.01,-130.22 1435.24,-117.67 1194.38,-85.75 1184.26,-84.41 1173.44,-82.54 1163.31,-80.59"/>
<polygon fill="#63b8ff" stroke="#63b8ff" points="1845.52,-137.79 1855.63,-134.63 1845.75,-130.8 1845.52,-137.79"/>
</a>
</g>
</g>
<!-- Node11 -->
<g id="Node000011" class="node">
<title>Node11</title>
<g id="a_Node000011"><a xlink:href="ps2__fio_8c.html" target="_top" xlink:title=" ">
<polygon fill="white" stroke="#666666" points="1303.38,-85.75 1203.38,-85.75 1203.38,-55.25 1303.38,-55.25 1303.38,-85.75"/>
<text text-anchor="start" x="1211.38" y="-72.25" font-family="Helvetica,sans-Serif" font-size="10.00">iop/fs/netfs/src/ps2</text>
<text text-anchor="middle" x="1253.38" y="-61" font-family="Helvetica,sans-Serif" font-size="10.00">_fio.c</text>
</a>
</g>
</g>
<!-- Node1&#45;&gt;Node11 -->
<g id="edge10_Node000001_Node000011" class="edge">
<title>Node1&#45;&gt;Node11</title>
<g id="a_edge10_Node000001_Node000011"><a xlink:title=" ">
<path fill="none" stroke="#63b8ff" d="M1845.71,-134.01C1739.57,-129.7 1506.36,-117.23 1312.38,-85.75 1309.57,-85.29 1306.69,-84.78 1303.8,-84.21"/>
<polygon fill="#63b8ff" stroke="#63b8ff" points="1845.46,-137.5 1855.59,-134.4 1845.74,-130.51 1845.46,-137.5"/>
</a>
</g>
</g>
<!-- Node12 -->
<g id="Node000012" class="node">
<title>Node12</title>
<g id="a_Node000012"><a xlink:href="ps2netfs_8c.html" target="_top" xlink:title=" ">
<polygon fill="white" stroke="#666666" points="1451,-80.12 1321.75,-80.12 1321.75,-60.88 1451,-60.88 1451,-80.12"/>
<text text-anchor="middle" x="1386.38" y="-66.62" font-family="Helvetica,sans-Serif" font-size="10.00">iop/fs/netfs/src/ps2netfs.c</text>
</a>
</g>
</g>
<!-- Node1&#45;&gt;Node12 -->
<g id="edge11_Node000001_Node000012" class="edge">
<title>Node1&#45;&gt;Node12</title>
<g id="a_edge11_Node000001_Node000012"><a xlink:title=" ">
<path fill="none" stroke="#63b8ff" d="M1845.89,-130.91C1761.22,-123.09 1598.13,-106.79 1460.38,-85.75 1450.68,-84.27 1440.31,-82.43 1430.5,-80.58"/>
<polygon fill="#63b8ff" stroke="#63b8ff" points="1845.52,-134.39 1855.8,-131.82 1846.16,-127.42 1845.52,-134.39"/>
</a>
</g>
</g>
<!-- Node13 -->
<g id="Node000013" class="node">
<title>Node13</title>
<g id="a_Node000013"><a xlink:href="iop_2network_2smap_2src_2main_8c_source.html" target="_top" xlink:title=" ">
<polygon fill="white" stroke="#666666" points="1579.25,-85.75 1469.5,-85.75 1469.5,-55.25 1579.25,-55.25 1579.25,-85.75"/>
<text text-anchor="start" x="1477.5" y="-72.25" font-family="Helvetica,sans-Serif" font-size="10.00">iop/network/smap/src</text>
<text text-anchor="middle" x="1524.38" y="-61" font-family="Helvetica,sans-Serif" font-size="10.00">/main.c</text>
</a>
</g>
</g>
<!-- Node1&#45;&gt;Node13 -->
<g id="edge12_Node000001_Node000013" class="edge">
<title>Node1&#45;&gt;Node13</title>
<g id="a_edge12_Node000001_Node000013"><a xlink:title=" ">
<path fill="none" stroke="#63b8ff" d="M1845.72,-127.88C1782.42,-118.71 1677.86,-102.83 1588.38,-85.75 1585.47,-85.2 1582.49,-84.61 1579.49,-83.99"/>
<polygon fill="#63b8ff" stroke="#63b8ff" points="1845.16,-131.33 1855.55,-129.3 1846.15,-124.41 1845.16,-131.33"/>
</a>
</g>
</g>
<!-- Node14 -->
<g id="Node000014" class="node">
<title>Node14</title>
<g id="a_Node000014"><a xlink:href="smap_8c_source.html" target="_top" xlink:title=" ">
<polygon fill="white" stroke="#666666" points="1707.25,-85.75 1597.5,-85.75 1597.5,-55.25 1707.25,-55.25 1707.25,-85.75"/>
<text text-anchor="start" x="1605.5" y="-72.25" font-family="Helvetica,sans-Serif" font-size="10.00">iop/network/smap/src</text>
<text text-anchor="middle" x="1652.38" y="-61" font-family="Helvetica,sans-Serif" font-size="10.00">/smap.c</text>
</a>
</g>
</g>
<!-- Node1&#45;&gt;Node14 -->
<g id="edge13_Node000001_Node000014" class="edge">
<title>Node1&#45;&gt;Node14</title>
<g id="a_edge13_Node000001_Node000014"><a xlink:title=" ">
<path fill="none" stroke="#63b8ff" d="M1846,-121.26C1804.47,-110.59 1748.66,-96.24 1707.63,-85.7"/>
<polygon fill="#63b8ff" stroke="#63b8ff" points="1845.02,-124.62 1855.58,-123.72 1846.77,-117.84 1845.02,-124.62"/>
</a>
</g>
</g>
<!-- Node15 -->
<g id="Node000015" class="node">
<title>Node15</title>
<g id="a_Node000015"><a xlink:href="auth_8c_source.html" target="_top" xlink:title=" ">
<polygon fill="white" stroke="#666666" points="1831.75,-85.75 1725,-85.75 1725,-55.25 1831.75,-55.25 1831.75,-85.75"/>
<text text-anchor="start" x="1733" y="-72.25" font-family="Helvetica,sans-Serif" font-size="10.00">iop/network/smbman</text>
<text text-anchor="middle" x="1778.38" y="-61" font-family="Helvetica,sans-Serif" font-size="10.00">/src/auth.c</text>
</a>
</g>
</g>
<!-- Node1&#45;&gt;Node15 -->
<g id="edge14_Node000001_Node000015" class="edge">
<title>Node1&#45;&gt;Node15</title>
<g id="a_edge14_Node000001_Node000015"><a xlink:title=" ">
<path fill="none" stroke="#63b8ff" d="M1864.96,-116.18C1846.13,-106.46 1823.87,-94.97 1806.63,-86.08"/>
<polygon fill="#63b8ff" stroke="#63b8ff" points="1863.17,-119.19 1873.67,-120.67 1866.38,-112.97 1863.17,-119.19"/>
</a>
</g>
</g>
<!-- Node16 -->
<g id="Node000016" class="node">
<title>Node16</title>
<g id="a_Node000016"><a xlink:href="md4_8c_source.html" target="_top" xlink:title=" ">
<polygon fill="white" stroke="#666666" points="1956.75,-85.75 1850,-85.75 1850,-55.25 1956.75,-55.25 1956.75,-85.75"/>
<text text-anchor="start" x="1858" y="-72.25" font-family="Helvetica,sans-Serif" font-size="10.00">iop/network/smbman</text>
<text text-anchor="middle" x="1903.38" y="-61" font-family="Helvetica,sans-Serif" font-size="10.00">/src/md4.c</text>
</a>
</g>
</g>
<!-- Node1&#45;&gt;Node16 -->
<g id="edge15_Node000001_Node000016" class="edge">
<title>Node1&#45;&gt;Node16</title>
<g id="a_edge15_Node000001_Node000016"><a xlink:title=" ">
<path fill="none" stroke="#63b8ff" d="M1903.38,-110.06C1903.38,-101.89 1903.38,-93.16 1903.38,-86.08"/>
<polygon fill="#63b8ff" stroke="#63b8ff" points="1899.88,-109.85 1903.38,-119.85 1906.88,-109.85 1899.88,-109.85"/>
</a>
</g>
</g>
<!-- Node17 -->
<g id="Node000017" class="node">
<title>Node17</title>
<g id="a_Node000017"><a xlink:href="poll_8c_source.html" target="_top" xlink:title=" ">
<polygon fill="white" stroke="#666666" points="2081.75,-85.75 1975,-85.75 1975,-55.25 2081.75,-55.25 2081.75,-85.75"/>
<text text-anchor="start" x="1983" y="-72.25" font-family="Helvetica,sans-Serif" font-size="10.00">iop/network/smbman</text>
<text text-anchor="middle" x="2028.38" y="-61" font-family="Helvetica,sans-Serif" font-size="10.00">/src/poll.c</text>
</a>
</g>
</g>
<!-- Node1&#45;&gt;Node17 -->
<g id="edge16_Node000001_Node000017" class="edge">
<title>Node1&#45;&gt;Node17</title>
<g id="a_edge16_Node000001_Node000017"><a xlink:title=" ">
<path fill="none" stroke="#63b8ff" d="M1941.79,-116.18C1960.62,-106.46 1982.88,-94.97 2000.12,-86.08"/>
<polygon fill="#63b8ff" stroke="#63b8ff" points="1940.37,-112.97 1933.08,-120.67 1943.58,-119.19 1940.37,-112.97"/>
</a>
</g>
</g>
<!-- Node18 -->
<g id="Node000018" class="node">
<title>Node18</title>
<g id="a_Node000018"><a xlink:href="smb__fio_8c_source.html" target="_top" xlink:title=" ">
<polygon fill="white" stroke="#666666" points="2206.75,-85.75 2100,-85.75 2100,-55.25 2206.75,-55.25 2206.75,-85.75"/>
<text text-anchor="start" x="2108" y="-72.25" font-family="Helvetica,sans-Serif" font-size="10.00">iop/network/smbman</text>
<text text-anchor="middle" x="2153.38" y="-61" font-family="Helvetica,sans-Serif" font-size="10.00">/src/smb_fio.c</text>
</a>
</g>
</g>
<!-- Node1&#45;&gt;Node18 -->
<g id="edge17_Node000001_Node000018" class="edge">
<title>Node1&#45;&gt;Node18</title>
<g id="a_edge17_Node000001_Node000018"><a xlink:title=" ">
<path fill="none" stroke="#63b8ff" d="M1960.63,-121.23C2002.44,-110.44 2058.73,-95.92 2099.68,-85.35"/>
<polygon fill="#63b8ff" stroke="#63b8ff" points="1959.79,-117.83 1950.99,-123.72 1961.54,-124.61 1959.79,-117.83"/>
</a>
</g>
</g>
<!-- Node19 -->
<g id="Node000019" class="node">
<title>Node19</title>
<g id="a_Node000019"><a xlink:href="smbman_8c_source.html" target="_top" xlink:title=" ">
<polygon fill="white" stroke="#666666" points="2331.75,-85.75 2225,-85.75 2225,-55.25 2331.75,-55.25 2331.75,-85.75"/>
<text text-anchor="start" x="2233" y="-72.25" font-family="Helvetica,sans-Serif" font-size="10.00">iop/network/smbman</text>
<text text-anchor="middle" x="2278.38" y="-61" font-family="Helvetica,sans-Serif" font-size="10.00">/src/smbman.c</text>
</a>
</g>
</g>
<!-- Node1&#45;&gt;Node19 -->
<g id="edge18_Node000001_Node000019" class="edge">
<title>Node1&#45;&gt;Node19</title>
<g id="a_edge18_Node000001_Node000019"><a xlink:title=" ">
<path fill="none" stroke="#63b8ff" d="M1960.75,-127.86C2023.49,-118.71 2126.89,-102.87 2215.38,-85.75 2218.46,-85.15 2221.62,-84.52 2224.81,-83.86"/>
<polygon fill="#63b8ff" stroke="#63b8ff" points="1960.42,-124.37 1951.02,-129.27 1961.42,-131.3 1960.42,-124.37"/>
</a>
</g>
</g>
<!-- Node20 -->
<g id="Node000020" class="node">
<title>Node20</title>
<g id="a_Node000020"><a xlink:href="alloc_8c.html" target="_top" xlink:title=" ">
<polygon fill="white" stroke="#666666" points="2452.88,-85.75 2349.88,-85.75 2349.88,-55.25 2452.88,-55.25 2452.88,-85.75"/>
<text text-anchor="start" x="2357.88" y="-72.25" font-family="Helvetica,sans-Serif" font-size="10.00">iop/system/alloc/src</text>
<text text-anchor="middle" x="2401.38" y="-61" font-family="Helvetica,sans-Serif" font-size="10.00">/alloc.c</text>
</a>
</g>
</g>
<!-- Node1&#45;&gt;Node20 -->
<g id="edge19_Node000001_Node000020" class="edge">
<title>Node1&#45;&gt;Node20</title>
<g id="a_edge19_Node000001_Node000020"><a xlink:title=" ">
<path fill="none" stroke="#63b8ff" d="M1960.86,-131.51C2044.71,-124.49 2205.28,-109.22 2340.38,-85.75 2343.38,-85.23 2346.45,-84.65 2349.54,-84.04"/>
<polygon fill="#63b8ff" stroke="#63b8ff" points="1960.74,-128.01 1951.06,-132.32 1961.32,-134.99 1960.74,-128.01"/>
</a>
</g>
</g>
<!-- Node21 -->
<g id="Node000021" class="node">
<title>Node21</title>
<g id="a_Node000021"><a xlink:href="commandline_8c.html" target="_top" xlink:title=" ">
<polygon fill="white" stroke="#666666" points="2583.38,-85.75 2471.38,-85.75 2471.38,-55.25 2583.38,-55.25 2583.38,-85.75"/>
<text text-anchor="start" x="2479.38" y="-72.25" font-family="Helvetica,sans-Serif" font-size="10.00">iop/system/iopmgr/src</text>
<text text-anchor="middle" x="2527.38" y="-61" font-family="Helvetica,sans-Serif" font-size="10.00">/commandline.c</text>
</a>
</g>
</g>
<!-- Node1&#45;&gt;Node21 -->
<g id="edge20_Node000001_Node000021" class="edge">
<title>Node1&#45;&gt;Node21</title>
<g id="a_edge20_Node000001_Node000021"><a xlink:title=" ">
<path fill="none" stroke="#63b8ff" d="M1960.85,-133.23C2062.49,-127.8 2280.39,-113.76 2462.38,-85.75 2465.23,-85.31 2468.15,-84.82 2471.09,-84.3"/>
<polygon fill="#63b8ff" stroke="#63b8ff" points="1960.94,-129.72 1951.14,-133.74 1961.31,-136.71 1960.94,-129.72"/>
</a>
</g>
</g>
<!-- Node22 -->
<g id="Node000022" class="node">
<title>Node22</title>
<g id="a_Node000022"><a xlink:href="devices_8c.html" target="_top" xlink:title=" ">
<polygon fill="white" stroke="#666666" points="2713.38,-85.75 2601.38,-85.75 2601.38,-55.25 2713.38,-55.25 2713.38,-85.75"/>
<text text-anchor="start" x="2609.38" y="-72.25" font-family="Helvetica,sans-Serif" font-size="10.00">iop/system/iopmgr/src</text>
<text text-anchor="middle" x="2657.38" y="-61" font-family="Helvetica,sans-Serif" font-size="10.00">/devices.c</text>
</a>
</g>
</g>
<!-- Node1&#45;&gt;Node22 -->
<g id="edge21_Node000001_Node000022" class="edge">
<title>Node1&#45;&gt;Node22</title>
<g id="a_edge21_Node000001_Node000022"><a xlink:title=" ">
<path fill="none" stroke="#63b8ff" d="M1960.89,-134.58C2079.52,-131.05 2359.78,-119.55 2592.38,-85.75 2595.23,-85.33 2598.15,-84.86 2601.1,-84.35"/>
<polygon fill="#63b8ff" stroke="#63b8ff" points="1960.99,-131.08 1951.09,-134.87 1961.19,-138.08 1960.99,-131.08"/>
</a>
</g>
</g>
<!-- Node23 -->
<g id="Node000023" class="node">
<title>Node23</title>
<g id="a_Node000023"><a xlink:href="iop_2system_2iopmgr_2src_2main_8c.html" target="_top" xlink:title=" ">
<polygon fill="white" stroke="#666666" points="2843.38,-85.75 2731.38,-85.75 2731.38,-55.25 2843.38,-55.25 2843.38,-85.75"/>
<text text-anchor="start" x="2739.38" y="-72.25" font-family="Helvetica,sans-Serif" font-size="10.00">iop/system/iopmgr/src</text>
<text text-anchor="middle" x="2787.38" y="-61" font-family="Helvetica,sans-Serif" font-size="10.00">/main.c</text>
</a>
</g>
</g>
<!-- Node1&#45;&gt;Node23 -->
<g id="edge22_Node000001_Node000023" class="edge">
<title>Node1&#45;&gt;Node23</title>
<g id="a_edge22_Node000001_Node000023"><a xlink:title=" ">
<path fill="none" stroke="#63b8ff" d="M1960.51,-135.52C2094.33,-133.75 2438.25,-125.37 2722.38,-85.75 2725.24,-85.35 2728.16,-84.89 2731.1,-84.39"/>
<polygon fill="#63b8ff" stroke="#63b8ff" points="1960.82,-132.02 1950.87,-135.64 1960.91,-139.02 1960.82,-132.02"/>
</a>
</g>
</g>
<!-- Node24 -->
<g id="Node000024" class="node">
<title>Node24</title>
<g id="a_Node000024"><a xlink:href="iop_2system_2iopmgr_2src_2slib_8c.html" target="_top" xlink:title=" ">
<polygon fill="white" stroke="#666666" points="2973.38,-85.75 2861.38,-85.75 2861.38,-55.25 2973.38,-55.25 2973.38,-85.75"/>
<text text-anchor="start" x="2869.38" y="-72.25" font-family="Helvetica,sans-Serif" font-size="10.00">iop/system/iopmgr/src</text>
<text text-anchor="middle" x="2917.38" y="-61" font-family="Helvetica,sans-Serif" font-size="10.00">/slib.c</text>
</a>
</g>
</g>
<!-- Node1&#45;&gt;Node24 -->
<g id="edge23_Node000001_Node000024" class="edge">
<title>Node1&#45;&gt;Node24</title>
<g id="a_edge23_Node000001_Node000024"><a xlink:title=" ">
<path fill="none" stroke="#63b8ff" d="M1961.03,-136.21C2109.51,-136.03 2516.88,-131.1 2852.38,-85.75 2855.24,-85.36 2858.16,-84.92 2861.1,-84.42"/>
<polygon fill="#63b8ff" stroke="#63b8ff" points="1961.06,-132.71 1951.06,-136.21 1961.06,-139.71 1961.06,-132.71"/>
</a>
</g>
</g>
<!-- Node25 -->
<g id="Node000025" class="node">
<title>Node25</title>
<g id="a_Node000025"><a xlink:href="iop_2system_2iopmgr_2src_2smod_8c.html" target="_top" xlink:title=" ">
<polygon fill="white" stroke="#666666" points="3103.38,-85.75 2991.38,-85.75 2991.38,-55.25 3103.38,-55.25 3103.38,-85.75"/>
<text text-anchor="start" x="2999.38" y="-72.25" font-family="Helvetica,sans-Serif" font-size="10.00">iop/system/iopmgr/src</text>
<text text-anchor="middle" x="3047.38" y="-61" font-family="Helvetica,sans-Serif" font-size="10.00">/smod.c</text>
</a>
</g>
</g>
<!-- Node1&#45;&gt;Node25 -->
<g id="edge24_Node000001_Node000025" class="edge">
<title>Node1&#45;&gt;Node25</title>
<g id="a_edge24_Node000001_Node000025"><a xlink:title=" ">
<path fill="none" stroke="#63b8ff" d="M1960.88,-134.61C2154.54,-129.72 2782.07,-112.18 2982.38,-85.75 2985.24,-85.37 2988.16,-84.93 2991.11,-84.45"/>
<polygon fill="#63b8ff" stroke="#63b8ff" points="1960.98,-131.1 1951.07,-134.85 1961.16,-138.1 1960.98,-131.1"/>
</a>
</g>
</g>
<!-- Node26 -->
<g id="Node000026" class="node">
<title>Node26</title>
<g id="a_Node000026"><a xlink:href="xpadman_8h.html" target="_top" xlink:title=" ">
<polygon fill="white" stroke="#666666" points="3255.62,-85.75 3121.12,-85.75 3121.12,-55.25 3255.62,-55.25 3255.62,-85.75"/>
<text text-anchor="start" x="3129.12" y="-72.25" font-family="Helvetica,sans-Serif" font-size="10.00">iop/system/padman/include</text>
<text text-anchor="middle" x="3188.38" y="-61" font-family="Helvetica,sans-Serif" font-size="10.00">/xpadman.h</text>
</a>
</g>
</g>
<!-- Node1&#45;&gt;Node26 -->
<g id="edge25_Node000001_Node000026" class="edge">
<title>Node1&#45;&gt;Node26</title>
<g id="a_edge25_Node000001_Node000026"><a xlink:title=" ">
<path fill="none" stroke="#63b8ff" d="M1961.12,-136.54C2135.47,-137.53 2671.65,-135.96 3112.38,-85.75 3115.18,-85.43 3118.03,-85.07 3120.91,-84.67"/>
<polygon fill="#63b8ff" stroke="#63b8ff" points="1961.21,-133.04 1951.19,-136.47 1961.17,-140.04 1961.21,-133.04"/>
</a>
</g>
</g>
<!-- Node27 -->
<g id="Node000027" class="node">
<title>Node27</title>
<g id="a_Node000027"><a xlink:href="sbusintr_8c.html" target="_top" xlink:title=" ">
<polygon fill="white" stroke="#666666" points="3374.75,-85.75 3274,-85.75 3274,-55.25 3374.75,-55.25 3374.75,-85.75"/>
<text text-anchor="start" x="3282" y="-72.25" font-family="Helvetica,sans-Serif" font-size="10.00">iop/system/sbusintr</text>
<text text-anchor="middle" x="3324.38" y="-61" font-family="Helvetica,sans-Serif" font-size="10.00">/src/sbusintr.c</text>
</a>
</g>
</g>
<!-- Node1&#45;&gt;Node27 -->
<g id="edge26_Node000001_Node000027" class="edge">
<title>Node1&#45;&gt;Node27</title>
<g id="a_edge26_Node000001_Node000027"><a xlink:title=" ">
<path fill="none" stroke="#63b8ff" d="M1961.07,-135.38C2186.29,-132.72 3006.58,-120.78 3264.38,-85.75 3267.45,-85.33 3270.6,-84.83 3273.77,-84.26"/>
<polygon fill="#63b8ff" stroke="#63b8ff" points="1961.03,-131.88 1951.07,-135.49 1961.11,-138.88 1961.03,-131.88"/>
</a>
</g>
</g>
<!-- Node28 -->
<g id="Node000028" class="node">
<title>Node28</title>
<g id="a_Node000028"><a xlink:href="pipe_8c.html" target="_top" xlink:title=" ">
<polygon fill="white" stroke="#666666" points="3499.75,-85.75 3393,-85.75 3393,-55.25 3499.75,-55.25 3499.75,-85.75"/>
<text text-anchor="start" x="3401" y="-72.25" font-family="Helvetica,sans-Serif" font-size="10.00">iop/system/siftoo/src</text>
<text text-anchor="middle" x="3446.38" y="-61" font-family="Helvetica,sans-Serif" font-size="10.00">/pipe.c</text>
</a>
</g>
</g>
<!-- Node1&#45;&gt;Node28 -->
<g id="edge27_Node000001_Node000028" class="edge">
<title>Node1&#45;&gt;Node28</title>
<g id="a_edge27_Node000001_Node000028"><a xlink:title=" ">
<path fill="none" stroke="#63b8ff" d="M1960.95,-135.5C2198.2,-133.19 3100.81,-122.17 3383.38,-85.75 3386.38,-85.36 3389.45,-84.9 3392.54,-84.38"/>
<polygon fill="#63b8ff" stroke="#63b8ff" points="1960.99,-131.99 1951.03,-135.59 1961.06,-138.99 1960.99,-131.99"/>
</a>
</g>
</g>
<!-- Node29 -->
<g id="Node000029" class="node">
<title>Node29</title>
<g id="a_Node000029"><a xlink:href="siftoo_8c_source.html" target="_top" xlink:title=" ">
<polygon fill="white" stroke="#666666" points="3624.75,-85.75 3518,-85.75 3518,-55.25 3624.75,-55.25 3624.75,-85.75"/>
<text text-anchor="start" x="3526" y="-72.25" font-family="Helvetica,sans-Serif" font-size="10.00">iop/system/siftoo/src</text>
<text text-anchor="middle" x="3571.38" y="-61" font-family="Helvetica,sans-Serif" font-size="10.00">/siftoo.c</text>
</a>
</g>
</g>
<!-- Node1&#45;&gt;Node29 -->
<g id="edge28_Node000001_Node000029" class="edge">
<title>Node1&#45;&gt;Node29</title>
<g id="a_edge28_Node000001_Node000029"><a xlink:title=" ">
<path fill="none" stroke="#63b8ff" d="M1960.86,-135.67C2210.25,-134.03 3199.91,-125.1 3508.38,-85.75 3511.38,-85.37 3514.45,-84.91 3517.54,-84.39"/>
<polygon fill="#63b8ff" stroke="#63b8ff" points="1961.04,-132.17 1951.06,-135.74 1961.08,-139.17 1961.04,-132.17"/>
</a>
</g>
</g>
<!-- Node30 -->
<g id="Node000030" class="node">
<title>Node30</title>
<g id="a_Node000030"><a xlink:href="usbdpriv_8h.html" target="_top" xlink:title=" ">
<polygon fill="white" stroke="#666666" points="3778,-80.12 3642.75,-80.12 3642.75,-60.88 3778,-60.88 3778,-80.12"/>
<text text-anchor="middle" x="3710.38" y="-66.62" font-family="Helvetica,sans-Serif" font-size="10.00">iop/usb/usbd/src/usbdpriv.h</text>
</a>
</g>
</g>
<!-- Node1&#45;&gt;Node30 -->
<g id="edge29_Node000001_Node000030" class="edge">
<title>Node1&#45;&gt;Node30</title>
<g id="a_edge29_Node000001_Node000030"><a xlink:title=" ">
<path fill="none" stroke="#63b8ff" d="M1960.96,-135.52C2222.28,-133.16 3298.28,-121.41 3633.38,-85.75 3644.6,-84.56 3656.63,-82.64 3667.78,-80.59"/>
<polygon fill="#63b8ff" stroke="#63b8ff" points="1960.98,-132.02 1951.01,-135.61 1961.04,-139.02 1960.98,-132.02"/>
</a>
</g>
</g>
<!-- Node31 -->
<g id="Node000031" class="node">
<title>Node31</title>
<g id="a_Node000031"><a xlink:href="driver_8c.html" target="_top" xlink:title=" ">
<polygon fill="white" stroke="#666666" points="3360.62,-19.25 3238.12,-19.25 3238.12,0 3360.62,0 3360.62,-19.25"/>
<text text-anchor="middle" x="3299.38" y="-5.75" font-family="Helvetica,sans-Serif" font-size="10.00">iop/usb/usbd/src/driver.c</text>
</a>
</g>
</g>
<!-- Node30&#45;&gt;Node31 -->
<g id="edge30_Node000030_Node000031" class="edge">
<title>Node30&#45;&gt;Node31</title>
<g id="a_edge30_Node000030_Node000031"><a xlink:title=" ">
<path fill="none" stroke="#63b8ff" d="M3651.99,-58.38C3645.71,-57.28 3639.42,-56.21 3633.38,-55.25 3582.32,-47.12 3442.55,-28.94 3360.9,-18.47"/>
<polygon fill="#63b8ff" stroke="#63b8ff" points="3651.25,-61.8 3661.71,-60.12 3652.49,-54.91 3651.25,-61.8"/>
</a>
</g>
</g>
<!-- Node32 -->
<g id="Node000032" class="node">
<title>Node32</title>
<g id="a_Node000032"><a xlink:href="hcd_8c.html" target="_top" xlink:title=" ">
<polygon fill="white" stroke="#666666" points="3492.5,-19.25 3378.25,-19.25 3378.25,0 3492.5,0 3492.5,-19.25"/>
<text text-anchor="middle" x="3435.38" y="-5.75" font-family="Helvetica,sans-Serif" font-size="10.00">iop/usb/usbd/src/hcd.c</text>
</a>
</g>
</g>
<!-- Node30&#45;&gt;Node32 -->
<g id="edge31_Node000030_Node000032" class="edge">
<title>Node30&#45;&gt;Node32</title>
<g id="a_edge31_Node000030_Node000032"><a xlink:title=" ">
<path fill="none" stroke="#63b8ff" d="M3656.94,-58.06C3604.62,-46.86 3525.95,-30.02 3477.79,-19.71"/>
<polygon fill="#63b8ff" stroke="#63b8ff" points="3656.02,-61.44 3666.53,-60.11 3657.48,-54.6 3656.02,-61.44"/>
</a>
</g>
</g>
<!-- Node33 -->
<g id="Node000033" class="node">
<title>Node33</title>
<g id="a_Node000033"><a xlink:href="hub_8c.html" target="_top" xlink:title=" ">
<polygon fill="white" stroke="#666666" points="3624.5,-19.25 3510.25,-19.25 3510.25,0 3624.5,0 3624.5,-19.25"/>
<text text-anchor="middle" x="3567.38" y="-5.75" font-family="Helvetica,sans-Serif" font-size="10.00">iop/usb/usbd/src/hub.c</text>
</a>
</g>
</g>
<!-- Node30&#45;&gt;Node33 -->
<g id="edge32_Node000030_Node000033" class="edge">
<title>Node30&#45;&gt;Node33</title>
<g id="a_edge32_Node000030_Node000033"><a xlink:title=" ">
<path fill="none" stroke="#63b8ff" d="M3677.81,-56.09C3650.68,-44.92 3612.8,-29.33 3589.2,-19.61"/>
<polygon fill="#63b8ff" stroke="#63b8ff" points="3676.37,-59.28 3686.95,-59.85 3679.03,-52.81 3676.37,-59.28"/>
</a>
</g>
</g>
<!-- Node34 -->
<g id="Node000034" class="node">
<title>Node34</title>
<g id="a_Node000034"><a xlink:href="interface_8c.html" target="_top" xlink:title=" ">
<polygon fill="white" stroke="#666666" points="3778.38,-19.25 3642.38,-19.25 3642.38,0 3778.38,0 3778.38,-19.25"/>
<text text-anchor="middle" x="3710.38" y="-5.75" font-family="Helvetica,sans-Serif" font-size="10.00">iop/usb/usbd/src/interface.c</text>
</a>
</g>
</g>
<!-- Node30&#45;&gt;Node34 -->
<g id="edge33_Node000030_Node000034" class="edge">
<title>Node30&#45;&gt;Node34</title>
<g id="a_edge33_Node000030_Node000034"><a xlink:title=" ">
<path fill="none" stroke="#63b8ff" d="M3710.38,-49.07C3710.38,-39.04 3710.38,-27.46 3710.38,-19.65"/>
<polygon fill="#63b8ff" stroke="#63b8ff" points="3706.88,-49.04 3710.38,-59.04 3713.88,-49.04 3706.88,-49.04"/>
</a>
</g>
</g>
<!-- Node35 -->
<g id="Node000035" class="node">
<title>Node35</title>
<g id="a_Node000035"><a xlink:href="mem_8c.html" target="_top" xlink:title=" ">
<polygon fill="white" stroke="#666666" points="3916.5,-19.25 3796.25,-19.25 3796.25,0 3916.5,0 3916.5,-19.25"/>
<text text-anchor="middle" x="3856.38" y="-5.75" font-family="Helvetica,sans-Serif" font-size="10.00">iop/usb/usbd/src/mem.c</text>
</a>
</g>
</g>
<!-- Node30&#45;&gt;Node35 -->
<g id="edge34_Node000030_Node000035" class="edge">
<title>Node30&#45;&gt;Node35</title>
<g id="a_edge34_Node000030_Node000035"><a xlink:title=" ">
<path fill="none" stroke="#63b8ff" d="M3743.25,-56.24C3770.97,-45.06 3809.89,-29.37 3834.1,-19.61"/>
<polygon fill="#63b8ff" stroke="#63b8ff" points="3742.24,-52.88 3734.27,-59.86 3744.85,-59.37 3742.24,-52.88"/>
</a>
</g>
</g>
<!-- Node36 -->
<g id="Node000036" class="node">
<title>Node36</title>
<g id="a_Node000036"><a xlink:href="usbd_8c.html" target="_top" xlink:title=" ">
<polygon fill="white" stroke="#666666" points="4054.12,-19.25 3934.62,-19.25 3934.62,0 4054.12,0 4054.12,-19.25"/>
<text text-anchor="middle" x="3994.38" y="-5.75" font-family="Helvetica,sans-Serif" font-size="10.00">iop/usb/usbd/src/usbd.c</text>
</a>
</g>
</g>
<!-- Node30&#45;&gt;Node36 -->
<g id="edge35_Node000030_Node000036" class="edge">
<title>Node30&#45;&gt;Node36</title>
<g id="a_edge35_Node000030_Node000036"><a xlink:title=" ">
<path fill="none" stroke="#63b8ff" d="M3765.22,-58.13C3819.25,-46.93 3900.73,-30.04 3950.57,-19.71"/>
<polygon fill="#63b8ff" stroke="#63b8ff" points="3764.69,-54.67 3755.61,-60.12 3766.11,-61.52 3764.69,-54.67"/>
</a>
</g>
</g>
<!-- Node37 -->
<g id="Node000037" class="node">
<title>Node37</title>
<g id="a_Node000037"><a xlink:href="usbio_8c.html" target="_top" xlink:title=" ">
<polygon fill="white" stroke="#666666" points="4194.25,-19.25 4072.5,-19.25 4072.5,0 4194.25,0 4194.25,-19.25"/>
<text text-anchor="middle" x="4133.38" y="-5.75" font-family="Helvetica,sans-Serif" font-size="10.00">iop/usb/usbd/src/usbio.c</text>
</a>
</g>
</g>
<!-- Node30&#45;&gt;Node37 -->
<g id="edge36_Node000030_Node000037" class="edge">
<title>Node30&#45;&gt;Node37</title>
<g id="a_edge36_Node000030_Node000037"><a xlink:title=" ">
<path fill="none" stroke="#63b8ff" d="M3786.77,-58.87C3868.6,-47.48 3996.85,-29.63 4072.26,-19.13"/>
<polygon fill="#63b8ff" stroke="#63b8ff" points="3786.46,-55.38 3777.04,-60.22 3787.43,-62.31 3786.46,-55.38"/>
</a>
</g>
</g>
</g>
</svg>
