<?xml version="1.0" encoding="UTF-8" standalone="no"?>
<!DOCTYPE svg PUBLIC "-//W3C//DTD SVG 1.1//EN"
 "http://www.w3.org/Graphics/SVG/1.1/DTD/svg11.dtd">
<!-- Generated by graphviz version 12.2.0 (20241103.1931)
 -->
<!-- Title: iop/kernel/include/defs.h Pages: 1 -->
<svg width="4589pt" height="216pt"
 viewBox="0.00 0.00 4588.50 215.50" xmlns="http://www.w3.org/2000/svg" xmlns:xlink="http://www.w3.org/1999/xlink">
<g id="graph0" class="graph" transform="scale(1 1) rotate(0) translate(4 211.5)">
<title>iop/kernel/include/defs.h</title>
<!-- Node1 -->
<g id="Node000001" class="node">
<title>Node1</title>
<g id="a_Node000001"><a xlink:title=" ">
<polygon fill="#999999" stroke="#666666" points="2121.25,-207.5 2029.5,-207.5 2029.5,-177 2121.25,-177 2121.25,-207.5"/>
<text text-anchor="start" x="2037.5" y="-194" font-family="Helvetica,sans-Serif" font-size="10.00">iop/kernel/include</text>
<text text-anchor="middle" x="2075.38" y="-182.75" font-family="Helvetica,sans-Serif" font-size="10.00">/defs.h</text>
</a>
</g>
</g>
<!-- Node2 -->
<g id="Node000002" class="node">
<title>Node2</title>
<g id="a_Node000002"><a xlink:href="ioptrap_8c.html" target="_top" xlink:title=" ">
<polygon fill="white" stroke="#666666" points="106.75,-141 0,-141 0,-110.5 106.75,-110.5 106.75,-141"/>
<text text-anchor="start" x="8" y="-127.5" font-family="Helvetica,sans-Serif" font-size="10.00">iop/debug/ioptrap/src</text>
<text text-anchor="middle" x="53.38" y="-116.25" font-family="Helvetica,sans-Serif" font-size="10.00">/ioptrap.c</text>
</a>
</g>
</g>
<!-- Node1&#45;&gt;Node2 -->
<g id="edge1_Node000001_Node000002" class="edge">
<title>Node1&#45;&gt;Node2</title>
<g id="a_edge1_Node000001_Node000002"><a xlink:title=" ">
<path fill="none" stroke="#63b8ff" d="M2018.02,-191.33C1736.32,-191.48 497.59,-189.33 115.38,-141 112.64,-140.65 109.84,-140.24 107.03,-139.77"/>
<polygon fill="#63b8ff" stroke="#63b8ff" points="2017.66,-194.83 2027.66,-191.32 2017.66,-187.83 2017.66,-194.83"/>
</a>
</g>
</g>
<!-- Node3 -->
<g id="Node000003" class="node">
<title>Node3</title>
<g id="a_Node000003"><a xlink:href="sior_8c_source.html" target="_top" xlink:title=" ">
<polygon fill="white" stroke="#666666" points="218,-141 124.75,-141 124.75,-110.5 218,-110.5 218,-141"/>
<text text-anchor="start" x="132.75" y="-127.5" font-family="Helvetica,sans-Serif" font-size="10.00">iop/debug/sior/src</text>
<text text-anchor="middle" x="171.38" y="-116.25" font-family="Helvetica,sans-Serif" font-size="10.00">/sior.c</text>
</a>
</g>
</g>
<!-- Node1&#45;&gt;Node3 -->
<g id="edge2_Node000001_Node000003" class="edge">
<title>Node1&#45;&gt;Node3</title>
<g id="a_edge2_Node000001_Node000003"><a xlink:title=" ">
<path fill="none" stroke="#63b8ff" d="M2018.23,-191.4C1746.78,-191.87 585.82,-190.85 227.38,-141 224.39,-140.59 221.34,-140.07 218.28,-139.49"/>
<polygon fill="#63b8ff" stroke="#63b8ff" points="2017.87,-194.9 2027.86,-191.38 2017.85,-187.9 2017.87,-194.9"/>
</a>
</g>
</g>
<!-- Node4 -->
<g id="Node000004" class="node">
<title>Node4</title>
<g id="a_Node000004"><a xlink:href="ps2atad_8c.html" target="_top" xlink:title=" ">
<polygon fill="white" stroke="#666666" points="372.38,-135.38 236.38,-135.38 236.38,-116.12 372.38,-116.12 372.38,-135.38"/>
<text text-anchor="middle" x="304.38" y="-121.88" font-family="Helvetica,sans-Serif" font-size="10.00">iop/dev9/atad/src/ps2atad.c</text>
</a>
</g>
</g>
<!-- Node1&#45;&gt;Node4 -->
<g id="edge3_Node000001_Node000004" class="edge">
<title>Node1&#45;&gt;Node4</title>
<g id="a_edge3_Node000001_Node000004"><a xlink:title=" ">
<path fill="none" stroke="#63b8ff" d="M2017.72,-190.73C1759.64,-188.21 708.95,-175.96 381.38,-141 370.15,-139.8 358.12,-137.88 346.97,-135.84"/>
<polygon fill="#63b8ff" stroke="#63b8ff" points="2017.5,-194.23 2027.53,-190.82 2017.57,-187.23 2017.5,-194.23"/>
</a>
</g>
</g>
<!-- Node5 -->
<g id="Node000005" class="node">
<title>Node5</title>
<g id="a_Node000005"><a xlink:href="ps2dev9_8c.html" target="_top" xlink:title=" ">
<polygon fill="white" stroke="#666666" points="530.62,-135.38 390.12,-135.38 390.12,-116.12 530.62,-116.12 530.62,-135.38"/>
<text text-anchor="middle" x="460.38" y="-121.88" font-family="Helvetica,sans-Serif" font-size="10.00">iop/dev9/dev9/src/ps2dev9.c</text>
</a>
</g>
</g>
<!-- Node1&#45;&gt;Node5 -->
<g id="edge4_Node000001_Node000005" class="edge">
<title>Node1&#45;&gt;Node5</title>
<g id="a_edge4_Node000001_Node000005"><a xlink:title=" ">
<path fill="none" stroke="#63b8ff" d="M2017.65,-190.49C1774.69,-187.11 834.2,-172.24 539.38,-141 527.87,-139.78 515.52,-137.85 504.09,-135.81"/>
<polygon fill="#63b8ff" stroke="#63b8ff" points="2017.46,-193.99 2027.51,-190.62 2017.56,-186.99 2017.46,-193.99"/>
</a>
</g>
</g>
<!-- Node6 -->
<g id="Node000006" class="node">
<title>Node6</title>
<g id="a_Node000006"><a xlink:href="extflash_8c_source.html" target="_top" xlink:title=" ">
<polygon fill="white" stroke="#666666" points="654,-141 548.75,-141 548.75,-110.5 654,-110.5 654,-141"/>
<text text-anchor="start" x="556.75" y="-127.5" font-family="Helvetica,sans-Serif" font-size="10.00">iop/dev9/extflash/src</text>
<text text-anchor="middle" x="601.38" y="-116.25" font-family="Helvetica,sans-Serif" font-size="10.00">/extflash.c</text>
</a>
</g>
</g>
<!-- Node1&#45;&gt;Node6 -->
<g id="edge5_Node000001_Node000006" class="edge">
<title>Node1&#45;&gt;Node6</title>
<g id="a_edge5_Node000001_Node000006"><a xlink:title=" ">
<path fill="none" stroke="#63b8ff" d="M2017.81,-190.66C1787.5,-188.09 931.85,-176.3 663.38,-141 660.42,-140.61 657.4,-140.15 654.35,-139.62"/>
<polygon fill="#63b8ff" stroke="#63b8ff" points="2017.7,-194.16 2027.74,-190.77 2017.78,-187.16 2017.7,-194.16"/>
</a>
</g>
</g>
<!-- Node7 -->
<g id="Node000007" class="node">
<title>Node7</title>
<g id="a_Node000007"><a xlink:href="hdproatad_8c_source.html" target="_top" xlink:title=" ">
<polygon fill="white" stroke="#666666" points="776.25,-141 672.5,-141 672.5,-110.5 776.25,-110.5 776.25,-141"/>
<text text-anchor="start" x="680.5" y="-127.5" font-family="Helvetica,sans-Serif" font-size="10.00">iop/dev9/hdpro_atad</text>
<text text-anchor="middle" x="724.38" y="-116.25" font-family="Helvetica,sans-Serif" font-size="10.00">/src/hdproatad.c</text>
</a>
</g>
</g>
<!-- Node1&#45;&gt;Node7 -->
<g id="edge6_Node000001_Node000007" class="edge">
<title>Node1&#45;&gt;Node7</title>
<g id="a_edge6_Node000001_Node000007"><a xlink:title=" ">
<path fill="none" stroke="#63b8ff" d="M2017.8,-190.5C1800.17,-187.41 1027.82,-174.32 784.38,-141 781.83,-140.65 779.23,-140.24 776.62,-139.79"/>
<polygon fill="#63b8ff" stroke="#63b8ff" points="2017.68,-193.99 2027.73,-190.63 2017.77,-187 2017.68,-193.99"/>
</a>
</g>
</g>
<!-- Node8 -->
<g id="Node000008" class="node">
<title>Node8</title>
<g id="a_Node000008"><a xlink:href="iop_2dev9_2poweroff_2src_2poweroff_8c_source.html" target="_top" xlink:title=" ">
<polygon fill="white" stroke="#666666" points="902.88,-141 793.88,-141 793.88,-110.5 902.88,-110.5 902.88,-141"/>
<text text-anchor="start" x="801.88" y="-127.5" font-family="Helvetica,sans-Serif" font-size="10.00">iop/dev9/poweroff/src</text>
<text text-anchor="middle" x="848.38" y="-116.25" font-family="Helvetica,sans-Serif" font-size="10.00">/poweroff.c</text>
</a>
</g>
</g>
<!-- Node1&#45;&gt;Node8 -->
<g id="edge7_Node000001_Node000008" class="edge">
<title>Node1&#45;&gt;Node8</title>
<g id="a_edge7_Node000001_Node000008"><a xlink:title=" ">
<path fill="none" stroke="#63b8ff" d="M2017.86,-190.11C1814.48,-185.85 1129.81,-169.68 912.38,-141 909.33,-140.6 906.21,-140.12 903.07,-139.59"/>
<polygon fill="#63b8ff" stroke="#63b8ff" points="2017.57,-193.6 2027.64,-190.31 2017.72,-186.6 2017.57,-193.6"/>
</a>
</g>
</g>
<!-- Node9 -->
<g id="Node000009" class="node">
<title>Node9</title>
<g id="a_Node000009"><a xlink:href="devfs_8c.html" target="_top" xlink:title=" ">
<polygon fill="white" stroke="#666666" points="1039.38,-135.38 921.38,-135.38 921.38,-116.12 1039.38,-116.12 1039.38,-135.38"/>
<text text-anchor="middle" x="980.38" y="-121.88" font-family="Helvetica,sans-Serif" font-size="10.00">iop/fs/devfs/src/devfs.c</text>
</a>
</g>
</g>
<!-- Node1&#45;&gt;Node9 -->
<g id="edge8_Node000001_Node000009" class="edge">
<title>Node1&#45;&gt;Node9</title>
<g id="a_edge8_Node000001_Node000009"><a xlink:title=" ">
<path fill="none" stroke="#63b8ff" d="M2017.89,-191.6C1861.5,-191.89 1415.44,-188.14 1048.38,-141 1038.56,-139.74 1028.06,-137.83 1018.32,-135.8"/>
<polygon fill="#63b8ff" stroke="#63b8ff" points="2017.58,-195.1 2027.57,-191.58 2017.56,-188.1 2017.58,-195.1"/>
</a>
</g>
</g>
<!-- Node10 -->
<g id="Node000010" class="node">
<title>Node10</title>
<g id="a_Node000010"><a xlink:href="devscan_8c.html" target="_top" xlink:title=" ">
<polygon fill="white" stroke="#666666" points="1185.62,-135.38 1057.12,-135.38 1057.12,-116.12 1185.62,-116.12 1185.62,-135.38"/>
<text text-anchor="middle" x="1121.38" y="-121.88" font-family="Helvetica,sans-Serif" font-size="10.00">iop/fs/netfs/src/devscan.c</text>
</a>
</g>
</g>
<!-- Node1&#45;&gt;Node10 -->
<g id="edge9_Node000001_Node000010" class="edge">
<title>Node1&#45;&gt;Node10</title>
<g id="a_edge9_Node000001_Node000010"><a xlink:title=" ">
<path fill="none" stroke="#63b8ff" d="M2018,-190.67C1877.16,-188.66 1503.38,-179.79 1194.38,-141 1184.13,-139.71 1173.15,-137.84 1162.91,-135.87"/>
<polygon fill="#63b8ff" stroke="#63b8ff" points="2017.76,-194.17 2027.8,-190.8 2017.85,-187.17 2017.76,-194.17"/>
</a>
</g>
</g>
<!-- Node11 -->
<g id="Node000011" class="node">
<title>Node11</title>
<g id="a_Node000011"><a xlink:href="ps2__fio_8c.html" target="_top" xlink:title=" ">
<polygon fill="white" stroke="#666666" points="1303.38,-141 1203.38,-141 1203.38,-110.5 1303.38,-110.5 1303.38,-141"/>
<text text-anchor="start" x="1211.38" y="-127.5" font-family="Helvetica,sans-Serif" font-size="10.00">iop/fs/netfs/src/ps2</text>
<text text-anchor="middle" x="1253.38" y="-116.25" font-family="Helvetica,sans-Serif" font-size="10.00">_fio.c</text>
</a>
</g>
</g>
<!-- Node1&#45;&gt;Node11 -->
<g id="edge10_Node000001_Node000011" class="edge">
<title>Node1&#45;&gt;Node11</title>
<g id="a_edge10_Node000001_Node000011"><a xlink:title=" ">
<path fill="none" stroke="#63b8ff" d="M2017.65,-190.81C1889.84,-189.11 1573.58,-180.84 1312.38,-141 1309.56,-140.57 1306.69,-140.07 1303.79,-139.53"/>
<polygon fill="#63b8ff" stroke="#63b8ff" points="2017.51,-194.31 2027.55,-190.93 2017.59,-187.31 2017.51,-194.31"/>
</a>
</g>
</g>
<!-- Node12 -->
<g id="Node000012" class="node">
<title>Node12</title>
<g id="a_Node000012"><a xlink:href="ps2netfs_8c.html" target="_top" xlink:title=" ">
<polygon fill="white" stroke="#666666" points="1451,-135.38 1321.75,-135.38 1321.75,-116.12 1451,-116.12 1451,-135.38"/>
<text text-anchor="middle" x="1386.38" y="-121.88" font-family="Helvetica,sans-Serif" font-size="10.00">iop/fs/netfs/src/ps2netfs.c</text>
</a>
</g>
</g>
<!-- Node1&#45;&gt;Node12 -->
<g id="edge11_Node000001_Node000012" class="edge">
<title>Node1&#45;&gt;Node12</title>
<g id="a_edge11_Node000001_Node000012"><a xlink:title=" ">
<path fill="none" stroke="#63b8ff" d="M2017.91,-188.64C1908.83,-183.23 1664.42,-168.9 1460.38,-141 1450.26,-139.62 1439.44,-137.75 1429.29,-135.83"/>
<polygon fill="#63b8ff" stroke="#63b8ff" points="2017.61,-192.13 2027.77,-189.13 2017.96,-185.14 2017.61,-192.13"/>
</a>
</g>
</g>
<!-- Node13 -->
<g id="Node000013" class="node">
<title>Node13</title>
<g id="a_Node000013"><a xlink:href="xpadman_8h.html" target="_top" xlink:title=" ">
<polygon fill="white" stroke="#666666" points="1561.25,-141 1469.5,-141 1469.5,-110.5 1561.25,-110.5 1561.25,-141"/>
<text text-anchor="start" x="1477.5" y="-127.5" font-family="Helvetica,sans-Serif" font-size="10.00">iop/kernel/include</text>
<text text-anchor="middle" x="1515.38" y="-116.25" font-family="Helvetica,sans-Serif" font-size="10.00">/xpadman.h</text>
</a>
</g>
</g>
<!-- Node1&#45;&gt;Node13 -->
<g id="edge12_Node000001_Node000013" class="edge">
<title>Node1&#45;&gt;Node13</title>
<g id="a_edge12_Node000001_Node000013"><a xlink:title=" ">
<path fill="none" stroke="#63b8ff" d="M2017.83,-188.42C1923.68,-183.14 1731.08,-169.64 1570.38,-141 1567.46,-140.48 1564.48,-139.89 1561.47,-139.24"/>
<polygon fill="#63b8ff" stroke="#63b8ff" points="2017.4,-191.9 2027.58,-188.96 2017.79,-184.91 2017.4,-191.9"/>
</a>
</g>
</g>
<!-- Node14 -->
<g id="Node000014" class="node">
<title>Node14</title>
<g id="a_Node000014"><a xlink:href="iop_2network_2smap_2src_2main_8c_source.html" target="_top" xlink:title=" ">
<polygon fill="white" stroke="#666666" points="1689.25,-141 1579.5,-141 1579.5,-110.5 1689.25,-110.5 1689.25,-141"/>
<text text-anchor="start" x="1587.5" y="-127.5" font-family="Helvetica,sans-Serif" font-size="10.00">iop/network/smap/src</text>
<text text-anchor="middle" x="1634.38" y="-116.25" font-family="Helvetica,sans-Serif" font-size="10.00">/main.c</text>
</a>
</g>
</g>
<!-- Node1&#45;&gt;Node14 -->
<g id="edge13_Node000001_Node000014" class="edge">
<title>Node1&#45;&gt;Node14</title>
<g id="a_edge13_Node000001_Node000014"><a xlink:title=" ">
<path fill="none" stroke="#63b8ff" d="M2017.65,-185.13C1943.47,-176.9 1810.84,-160.98 1698.38,-141 1695.46,-140.48 1692.48,-139.92 1689.47,-139.34"/>
<polygon fill="#63b8ff" stroke="#63b8ff" points="2017.21,-188.6 2027.53,-186.22 2017.98,-181.64 2017.21,-188.6"/>
</a>
</g>
</g>
<!-- Node15 -->
<g id="Node000015" class="node">
<title>Node15</title>
<g id="a_Node000015"><a xlink:href="smap_8c_source.html" target="_top" xlink:title=" ">
<polygon fill="white" stroke="#666666" points="1817.25,-141 1707.5,-141 1707.5,-110.5 1817.25,-110.5 1817.25,-141"/>
<text text-anchor="start" x="1715.5" y="-127.5" font-family="Helvetica,sans-Serif" font-size="10.00">iop/network/smap/src</text>
<text text-anchor="middle" x="1762.38" y="-116.25" font-family="Helvetica,sans-Serif" font-size="10.00">/smap.c</text>
</a>
</g>
</g>
<!-- Node1&#45;&gt;Node15 -->
<g id="edge14_Node000001_Node000015" class="edge">
<title>Node1&#45;&gt;Node15</title>
<g id="a_edge14_Node000001_Node000015"><a xlink:title=" ">
<path fill="none" stroke="#63b8ff" d="M2018.41,-180.09C1967.9,-170.11 1892.15,-154.96 1826.38,-141 1823.48,-140.39 1820.51,-139.75 1817.52,-139.1"/>
<polygon fill="#63b8ff" stroke="#63b8ff" points="2017.45,-183.47 2027.94,-181.97 2018.81,-176.6 2017.45,-183.47"/>
</a>
</g>
</g>
<!-- Node16 -->
<g id="Node000016" class="node">
<title>Node16</title>
<g id="a_Node000016"><a xlink:href="auth_8c_source.html" target="_top" xlink:title=" ">
<polygon fill="white" stroke="#666666" points="1941.75,-141 1835,-141 1835,-110.5 1941.75,-110.5 1941.75,-141"/>
<text text-anchor="start" x="1843" y="-127.5" font-family="Helvetica,sans-Serif" font-size="10.00">iop/network/smbman</text>
<text text-anchor="middle" x="1888.38" y="-116.25" font-family="Helvetica,sans-Serif" font-size="10.00">/src/auth.c</text>
</a>
</g>
</g>
<!-- Node1&#45;&gt;Node16 -->
<g id="edge15_Node000001_Node000016" class="edge">
<title>Node1&#45;&gt;Node16</title>
<g id="a_edge15_Node000001_Node000016"><a xlink:title=" ">
<path fill="none" stroke="#63b8ff" d="M2022.21,-172.91C1993.3,-162.94 1958.04,-150.78 1930.96,-141.44"/>
<polygon fill="#63b8ff" stroke="#63b8ff" points="2020.92,-176.17 2031.51,-176.12 2023.2,-169.55 2020.92,-176.17"/>
</a>
</g>
</g>
<!-- Node17 -->
<g id="Node000017" class="node">
<title>Node17</title>
<g id="a_Node000017"><a xlink:href="md4_8c_source.html" target="_top" xlink:title=" ">
<polygon fill="white" stroke="#666666" points="2066.75,-141 1960,-141 1960,-110.5 2066.75,-110.5 2066.75,-141"/>
<text text-anchor="start" x="1968" y="-127.5" font-family="Helvetica,sans-Serif" font-size="10.00">iop/network/smbman</text>
<text text-anchor="middle" x="2013.38" y="-116.25" font-family="Helvetica,sans-Serif" font-size="10.00">/src/md4.c</text>
</a>
</g>
</g>
<!-- Node1&#45;&gt;Node17 -->
<g id="edge16_Node000001_Node000017" class="edge">
<title>Node1&#45;&gt;Node17</title>
<g id="a_edge16_Node000001_Node000017"><a xlink:title=" ">
<path fill="none" stroke="#63b8ff" d="M2053.42,-168.41C2044.76,-159.4 2035.07,-149.32 2027.39,-141.33"/>
<polygon fill="#63b8ff" stroke="#63b8ff" points="2050.8,-170.74 2060.26,-175.52 2055.85,-165.89 2050.8,-170.74"/>
</a>
</g>
</g>
<!-- Node18 -->
<g id="Node000018" class="node">
<title>Node18</title>
<g id="a_Node000018"><a xlink:href="poll_8c_source.html" target="_top" xlink:title=" ">
<polygon fill="white" stroke="#666666" points="2191.75,-141 2085,-141 2085,-110.5 2191.75,-110.5 2191.75,-141"/>
<text text-anchor="start" x="2093" y="-127.5" font-family="Helvetica,sans-Serif" font-size="10.00">iop/network/smbman</text>
<text text-anchor="middle" x="2138.38" y="-116.25" font-family="Helvetica,sans-Serif" font-size="10.00">/src/poll.c</text>
</a>
</g>
</g>
<!-- Node1&#45;&gt;Node18 -->
<g id="edge17_Node000001_Node000018" class="edge">
<title>Node1&#45;&gt;Node18</title>
<g id="a_edge17_Node000001_Node000018"><a xlink:title=" ">
<path fill="none" stroke="#63b8ff" d="M2097.68,-168.41C2106.48,-159.4 2116.33,-149.32 2124.14,-141.33"/>
<polygon fill="#63b8ff" stroke="#63b8ff" points="2095.21,-165.93 2090.73,-175.53 2100.22,-170.82 2095.21,-165.93"/>
</a>
</g>
</g>
<!-- Node19 -->
<g id="Node000019" class="node">
<title>Node19</title>
<g id="a_Node000019"><a xlink:href="smb__fio_8c_source.html" target="_top" xlink:title=" ">
<polygon fill="white" stroke="#666666" points="2316.75,-141 2210,-141 2210,-110.5 2316.75,-110.5 2316.75,-141"/>
<text text-anchor="start" x="2218" y="-127.5" font-family="Helvetica,sans-Serif" font-size="10.00">iop/network/smbman</text>
<text text-anchor="middle" x="2263.38" y="-116.25" font-family="Helvetica,sans-Serif" font-size="10.00">/src/smb_fio.c</text>
</a>
</g>
</g>
<!-- Node1&#45;&gt;Node19 -->
<g id="edge18_Node000001_Node000019" class="edge">
<title>Node1&#45;&gt;Node19</title>
<g id="a_edge18_Node000001_Node000019"><a xlink:title=" ">
<path fill="none" stroke="#63b8ff" d="M2128.83,-172.91C2157.89,-162.94 2193.34,-150.78 2220.56,-141.44"/>
<polygon fill="#63b8ff" stroke="#63b8ff" points="2127.79,-169.57 2119.47,-176.12 2130.06,-176.19 2127.79,-169.57"/>
</a>
</g>
</g>
<!-- Node20 -->
<g id="Node000020" class="node">
<title>Node20</title>
<g id="a_Node000020"><a xlink:href="smbman_8c_source.html" target="_top" xlink:title=" ">
<polygon fill="white" stroke="#666666" points="2441.75,-141 2335,-141 2335,-110.5 2441.75,-110.5 2441.75,-141"/>
<text text-anchor="start" x="2343" y="-127.5" font-family="Helvetica,sans-Serif" font-size="10.00">iop/network/smbman</text>
<text text-anchor="middle" x="2388.38" y="-116.25" font-family="Helvetica,sans-Serif" font-size="10.00">/src/smbman.c</text>
</a>
</g>
</g>
<!-- Node1&#45;&gt;Node20 -->
<g id="edge19_Node000001_Node000020" class="edge">
<title>Node1&#45;&gt;Node20</title>
<g id="a_edge19_Node000001_Node000020"><a xlink:title=" ">
<path fill="none" stroke="#63b8ff" d="M2132.58,-180.16C2183.3,-170.23 2259.36,-155.1 2325.38,-141 2328.45,-140.34 2331.6,-139.66 2334.78,-138.97"/>
<polygon fill="#63b8ff" stroke="#63b8ff" points="2132.15,-176.68 2123.01,-182.03 2133.49,-183.55 2132.15,-176.68"/>
</a>
</g>
</g>
<!-- Node21 -->
<g id="Node000021" class="node">
<title>Node21</title>
<g id="a_Node000021"><a xlink:href="alloc_8c.html" target="_top" xlink:title=" ">
<polygon fill="white" stroke="#666666" points="2562.88,-141 2459.88,-141 2459.88,-110.5 2562.88,-110.5 2562.88,-141"/>
<text text-anchor="start" x="2467.88" y="-127.5" font-family="Helvetica,sans-Serif" font-size="10.00">iop/system/alloc/src</text>
<text text-anchor="middle" x="2511.38" y="-116.25" font-family="Helvetica,sans-Serif" font-size="10.00">/alloc.c</text>
</a>
</g>
</g>
<!-- Node1&#45;&gt;Node21 -->
<g id="edge20_Node000001_Node000021" class="edge">
<title>Node1&#45;&gt;Node21</title>
<g id="a_edge20_Node000001_Node000021"><a xlink:title=" ">
<path fill="none" stroke="#63b8ff" d="M2132.83,-185.29C2206.65,-177.24 2338.6,-161.49 2450.38,-141 2453.37,-140.45 2456.44,-139.85 2459.53,-139.22"/>
<polygon fill="#63b8ff" stroke="#63b8ff" points="2132.56,-181.8 2123,-186.35 2133.32,-188.76 2132.56,-181.8"/>
</a>
</g>
</g>
<!-- Node22 -->
<g id="Node000022" class="node">
<title>Node22</title>
<g id="a_Node000022"><a xlink:href="commandline_8c.html" target="_top" xlink:title=" ">
<polygon fill="white" stroke="#666666" points="2693.38,-141 2581.38,-141 2581.38,-110.5 2693.38,-110.5 2693.38,-141"/>
<text text-anchor="start" x="2589.38" y="-127.5" font-family="Helvetica,sans-Serif" font-size="10.00">iop/system/iopmgr/src</text>
<text text-anchor="middle" x="2637.38" y="-116.25" font-family="Helvetica,sans-Serif" font-size="10.00">/commandline.c</text>
</a>
</g>
</g>
<!-- Node1&#45;&gt;Node22 -->
<g id="edge21_Node000001_Node000022" class="edge">
<title>Node1&#45;&gt;Node22</title>
<g id="a_edge21_Node000001_Node000022"><a xlink:title=" ">
<path fill="none" stroke="#63b8ff" d="M2132.89,-187.59C2225.75,-181.21 2414.28,-166.24 2572.38,-141 2575.23,-140.54 2578.14,-140.04 2581.08,-139.51"/>
<polygon fill="#63b8ff" stroke="#63b8ff" points="2132.76,-184.09 2123.02,-188.26 2133.24,-191.08 2132.76,-184.09"/>
</a>
</g>
</g>
<!-- Node23 -->
<g id="Node000023" class="node">
<title>Node23</title>
<g id="a_Node000023"><a xlink:href="devices_8c.html" target="_top" xlink:title=" ">
<polygon fill="white" stroke="#666666" points="2823.38,-141 2711.38,-141 2711.38,-110.5 2823.38,-110.5 2823.38,-141"/>
<text text-anchor="start" x="2719.38" y="-127.5" font-family="Helvetica,sans-Serif" font-size="10.00">iop/system/iopmgr/src</text>
<text text-anchor="middle" x="2767.38" y="-116.25" font-family="Helvetica,sans-Serif" font-size="10.00">/devices.c</text>
</a>
</g>
</g>
<!-- Node1&#45;&gt;Node23 -->
<g id="edge22_Node000001_Node000023" class="edge">
<title>Node1&#45;&gt;Node23</title>
<g id="a_edge22_Node000001_Node000023"><a xlink:title=" ">
<path fill="none" stroke="#63b8ff" d="M2132.86,-189.26C2243.6,-184.84 2494,-172.04 2702.38,-141 2705.23,-140.57 2708.15,-140.1 2711.09,-139.58"/>
<polygon fill="#63b8ff" stroke="#63b8ff" points="2133.01,-185.75 2123.15,-189.63 2133.28,-192.74 2133.01,-185.75"/>
</a>
</g>
</g>
<!-- Node24 -->
<g id="Node000024" class="node">
<title>Node24</title>
<g id="a_Node000024"><a xlink:href="iop_2system_2iopmgr_2src_2main_8c.html" target="_top" xlink:title=" ">
<polygon fill="white" stroke="#666666" points="2953.38,-141 2841.38,-141 2841.38,-110.5 2953.38,-110.5 2953.38,-141"/>
<text text-anchor="start" x="2849.38" y="-127.5" font-family="Helvetica,sans-Serif" font-size="10.00">iop/system/iopmgr/src</text>
<text text-anchor="middle" x="2897.38" y="-116.25" font-family="Helvetica,sans-Serif" font-size="10.00">/main.c</text>
</a>
</g>
</g>
<!-- Node1&#45;&gt;Node24 -->
<g id="edge23_Node000001_Node000024" class="edge">
<title>Node1&#45;&gt;Node24</title>
<g id="a_edge23_Node000001_Node000024"><a xlink:title=" ">
<path fill="none" stroke="#63b8ff" d="M2133.05,-190.36C2260.04,-187.75 2573.14,-177.81 2832.38,-141 2835.23,-140.59 2838.16,-140.13 2841.1,-139.63"/>
<polygon fill="#63b8ff" stroke="#63b8ff" points="2133.15,-186.86 2123.22,-190.55 2133.29,-193.85 2133.15,-186.86"/>
</a>
</g>
</g>
<!-- Node25 -->
<g id="Node000025" class="node">
<title>Node25</title>
<g id="a_Node000025"><a xlink:href="iop_2system_2iopmgr_2src_2slib_8c.html" target="_top" xlink:title=" ">
<polygon fill="white" stroke="#666666" points="3083.38,-141 2971.38,-141 2971.38,-110.5 3083.38,-110.5 3083.38,-141"/>
<text text-anchor="start" x="2979.38" y="-127.5" font-family="Helvetica,sans-Serif" font-size="10.00">iop/system/iopmgr/src</text>
<text text-anchor="middle" x="3027.38" y="-116.25" font-family="Helvetica,sans-Serif" font-size="10.00">/slib.c</text>
</a>
</g>
</g>
<!-- Node1&#45;&gt;Node25 -->
<g id="edge24_Node000001_Node000025" class="edge">
<title>Node1&#45;&gt;Node25</title>
<g id="a_edge24_Node000001_Node000025"><a xlink:title=" ">
<path fill="none" stroke="#63b8ff" d="M2132.69,-191.15C2274.23,-190.24 2651.36,-183.63 2962.38,-141 2965.24,-140.61 2968.16,-140.16 2971.1,-139.66"/>
<polygon fill="#63b8ff" stroke="#63b8ff" points="2132.82,-187.65 2122.84,-191.21 2132.86,-194.65 2132.82,-187.65"/>
</a>
</g>
</g>
<!-- Node26 -->
<g id="Node000026" class="node">
<title>Node26</title>
<g id="a_Node000026"><a xlink:href="iop_2system_2iopmgr_2src_2smod_8c.html" target="_top" xlink:title=" ">
<polygon fill="white" stroke="#666666" points="3213.38,-141 3101.38,-141 3101.38,-110.5 3213.38,-110.5 3213.38,-141"/>
<text text-anchor="start" x="3109.38" y="-127.5" font-family="Helvetica,sans-Serif" font-size="10.00">iop/system/iopmgr/src</text>
<text text-anchor="middle" x="3157.38" y="-116.25" font-family="Helvetica,sans-Serif" font-size="10.00">/smod.c</text>
</a>
</g>
</g>
<!-- Node1&#45;&gt;Node26 -->
<g id="edge25_Node000001_Node000026" class="edge">
<title>Node1&#45;&gt;Node26</title>
<g id="a_edge25_Node000001_Node000026"><a xlink:title=" ">
<path fill="none" stroke="#63b8ff" d="M2132.87,-191.75C2288.29,-192.38 2729.54,-189.39 3092.38,-141 3095.24,-140.62 3098.16,-140.18 3101.11,-139.69"/>
<polygon fill="#63b8ff" stroke="#63b8ff" points="2133.27,-188.25 2123.26,-191.7 2133.24,-195.25 2133.27,-188.25"/>
</a>
</g>
</g>
<!-- Node27 -->
<g id="Node000027" class="node">
<title>Node27</title>
<g id="a_Node000027"><a xlink:href="sbusintr_8c.html" target="_top" xlink:title=" ">
<polygon fill="white" stroke="#666666" points="3331.75,-141 3231,-141 3231,-110.5 3331.75,-110.5 3331.75,-141"/>
<text text-anchor="start" x="3239" y="-127.5" font-family="Helvetica,sans-Serif" font-size="10.00">iop/system/sbusintr</text>
<text text-anchor="middle" x="3281.38" y="-116.25" font-family="Helvetica,sans-Serif" font-size="10.00">/src/sbusintr.c</text>
</a>
</g>
</g>
<!-- Node1&#45;&gt;Node27 -->
<g id="edge26_Node000001_Node000027" class="edge">
<title>Node1&#45;&gt;Node27</title>
<g id="a_edge26_Node000001_Node000027"><a xlink:title=" ">
<path fill="none" stroke="#63b8ff" d="M2133.1,-190.2C2334.95,-186.28 3008.55,-171.22 3222.38,-141 3225.09,-140.62 3227.86,-140.16 3230.65,-139.66"/>
<polygon fill="#63b8ff" stroke="#63b8ff" points="2133.05,-186.7 2123.12,-190.39 2133.18,-193.7 2133.05,-186.7"/>
</a>
</g>
</g>
<!-- Node28 -->
<g id="Node000028" class="node">
<title>Node28</title>
<g id="a_Node000028"><a xlink:href="pipe_8c.html" target="_top" xlink:title=" ">
<polygon fill="white" stroke="#666666" points="3456.75,-141 3350,-141 3350,-110.5 3456.75,-110.5 3456.75,-141"/>
<text text-anchor="start" x="3358" y="-127.5" font-family="Helvetica,sans-Serif" font-size="10.00">iop/system/siftoo/src</text>
<text text-anchor="middle" x="3403.38" y="-116.25" font-family="Helvetica,sans-Serif" font-size="10.00">/pipe.c</text>
</a>
</g>
</g>
<!-- Node1&#45;&gt;Node28 -->
<g id="edge27_Node000001_Node000028" class="edge">
<title>Node1&#45;&gt;Node28</title>
<g id="a_edge27_Node000001_Node000028"><a xlink:title=" ">
<path fill="none" stroke="#63b8ff" d="M2132.86,-190.36C2347.54,-186.83 3102.07,-172.42 3340.38,-141 3343.38,-140.6 3346.45,-140.13 3349.54,-139.61"/>
<polygon fill="#63b8ff" stroke="#63b8ff" points="2133.02,-186.86 2123.08,-190.52 2133.14,-193.86 2133.02,-186.86"/>
</a>
</g>
</g>
<!-- Node29 -->
<g id="Node000029" class="node">
<title>Node29</title>
<g id="a_Node000029"><a xlink:href="siftoo_8c_source.html" target="_top" xlink:title=" ">
<polygon fill="white" stroke="#666666" points="3581.75,-141 3475,-141 3475,-110.5 3581.75,-110.5 3581.75,-141"/>
<text text-anchor="start" x="3483" y="-127.5" font-family="Helvetica,sans-Serif" font-size="10.00">iop/system/siftoo/src</text>
<text text-anchor="middle" x="3528.38" y="-116.25" font-family="Helvetica,sans-Serif" font-size="10.00">/siftoo.c</text>
</a>
</g>
</g>
<!-- Node1&#45;&gt;Node29 -->
<g id="edge28_Node000001_Node000029" class="edge">
<title>Node1&#45;&gt;Node29</title>
<g id="a_edge28_Node000001_Node000029"><a xlink:title=" ">
<path fill="none" stroke="#63b8ff" d="M2132.79,-190.6C2360.62,-187.8 3201.32,-175.33 3465.38,-141 3468.38,-140.61 3471.45,-140.14 3474.54,-139.62"/>
<polygon fill="#63b8ff" stroke="#63b8ff" points="2132.94,-187.1 2122.99,-190.72 2133.03,-194.1 2132.94,-187.1"/>
</a>
</g>
</g>
<!-- Node30 -->
<g id="Node000030" class="node">
<title>Node30</title>
<g id="a_Node000030"><a xlink:href="driver_8c.html" target="_top" xlink:title=" ">
<polygon fill="white" stroke="#666666" points="3746.62,-19.25 3624.12,-19.25 3624.12,0 3746.62,0 3746.62,-19.25"/>
<text text-anchor="middle" x="3685.38" y="-5.75" font-family="Helvetica,sans-Serif" font-size="10.00">iop/usb/usbd/src/driver.c</text>
</a>
</g>
</g>
<!-- Node1&#45;&gt;Node30 -->
<g id="edge29_Node000001_Node000030" class="edge">
<title>Node1&#45;&gt;Node30</title>
<g id="a_edge29_Node000001_Node000030"><a xlink:title=" ">
<path fill="none" stroke="#63b8ff" d="M2132.91,-190.98C2402.22,-189.5 3527.97,-180.96 3590.38,-141 3626.28,-118.01 3607.13,-88.85 3633.38,-55.25 3644.51,-41 3660.75,-27.94 3672.11,-19.68"/>
<polygon fill="#63b8ff" stroke="#63b8ff" points="2132.96,-187.48 2122.98,-191.03 2133,-194.48 2132.96,-187.48"/>
</a>
</g>
</g>
<!-- Node31 -->
<g id="Node000031" class="node">
<title>Node31</title>
<g id="a_Node000031"><a xlink:href="hub_8c.html" target="_top" xlink:title=" ">
<polygon fill="white" stroke="#666666" points="4302.5,-19.25 4188.25,-19.25 4188.25,0 4302.5,0 4302.5,-19.25"/>
<text text-anchor="middle" x="4245.38" y="-5.75" font-family="Helvetica,sans-Serif" font-size="10.00">iop/usb/usbd/src/hub.c</text>
</a>
</g>
</g>
<!-- Node1&#45;&gt;Node31 -->
<g id="edge30_Node000001_Node000031" class="edge">
<title>Node1&#45;&gt;Node31</title>
<g id="a_edge30_Node000001_Node000031"><a xlink:title=" ">
<path fill="none" stroke="#63b8ff" d="M2132.93,-191.5C2421.2,-192.51 3709.82,-193.93 4106.38,-141 4229.3,-124.59 4300.84,-172.09 4377.38,-74.5 4401.65,-43.55 4348.54,-26.69 4302.62,-18.19"/>
<polygon fill="#63b8ff" stroke="#63b8ff" points="2133.05,-188 2123.04,-191.47 2133.03,-195 2133.05,-188"/>
</a>
</g>
</g>
<!-- Node32 -->
<g id="Node000032" class="node">
<title>Node32</title>
<g id="a_Node000032"><a xlink:href="interface_8c.html" target="_top" xlink:title=" ">
<polygon fill="white" stroke="#666666" points="3900.38,-19.25 3764.38,-19.25 3764.38,0 3900.38,0 3900.38,-19.25"/>
<text text-anchor="middle" x="3832.38" y="-5.75" font-family="Helvetica,sans-Serif" font-size="10.00">iop/usb/usbd/src/interface.c</text>
</a>
</g>
</g>
<!-- Node1&#45;&gt;Node32 -->
<g id="edge31_Node000001_Node000032" class="edge">
<title>Node1&#45;&gt;Node32</title>
<g id="a_edge31_Node000001_Node000032"><a xlink:title=" ">
<path fill="none" stroke="#63b8ff" d="M2132.62,-191.38C2394.79,-191.72 3474.27,-190.08 3616.38,-141 3677.31,-119.95 3677.68,-87.73 3733.38,-55.25 3758.13,-40.81 3788.39,-27.79 3808.89,-19.59"/>
<polygon fill="#63b8ff" stroke="#63b8ff" points="2132.99,-187.88 2122.98,-191.37 2132.98,-194.88 2132.99,-187.88"/>
</a>
</g>
</g>
<!-- Node33 -->
<g id="Node000033" class="node">
<title>Node33</title>
<g id="a_Node000033"><a xlink:href="usbdpriv_8h.html" target="_top" xlink:title=" ">
<polygon fill="white" stroke="#666666" points="4097,-135.38 3961.75,-135.38 3961.75,-116.12 4097,-116.12 4097,-135.38"/>
<text text-anchor="middle" x="4029.38" y="-121.88" font-family="Helvetica,sans-Serif" font-size="10.00">iop/usb/usbd/src/usbdpriv.h</text>
</a>
</g>
</g>
<!-- Node1&#45;&gt;Node33 -->
<g id="edge32_Node000001_Node000033" class="edge">
<title>Node1&#45;&gt;Node33</title>
<g id="a_edge32_Node000001_Node000033"><a xlink:title=" ">
<path fill="none" stroke="#63b8ff" d="M2132.88,-189.57C2339.52,-183.52 3063.84,-162.03 3661.38,-141 3766.17,-137.31 3887.72,-132.5 3961.55,-129.52"/>
<polygon fill="#63b8ff" stroke="#63b8ff" points="2132.85,-186.07 2122.95,-189.86 2133.05,-193.07 2132.85,-186.07"/>
</a>
</g>
</g>
<!-- Node33&#45;&gt;Node30 -->
<g id="edge33_Node000033_Node000030" class="edge">
<title>Node33&#45;&gt;Node30</title>
<g id="a_edge33_Node000033_Node000030"><a xlink:title=" ">
<path fill="none" stroke="#63b8ff" d="M3950.12,-117.94C3875.12,-110.32 3768.89,-96.14 3733.38,-74.5 3711.34,-61.07 3695.99,-33.44 3689.24,-19.33"/>
<polygon fill="#63b8ff" stroke="#63b8ff" points="3949.61,-121.41 3959.9,-118.91 3950.3,-114.44 3949.61,-121.41"/>
</a>
</g>
</g>
<!-- Node33&#45;&gt;Node31 -->
<g id="edge44_Node000033_Node000031" class="edge">
<title>Node33&#45;&gt;Node31</title>
<g id="a_edge44_Node000033_Node000031"><a xlink:title=" ">
<path fill="none" stroke="#63b8ff" d="M4108.98,-124.13C4196.39,-121.56 4328.6,-111.46 4360.38,-74.5 4383.75,-47.31 4335.2,-29.45 4294.16,-19.7"/>
<polygon fill="#63b8ff" stroke="#63b8ff" points="4108.91,-120.63 4099,-124.39 4109.09,-127.63 4108.91,-120.63"/>
</a>
</g>
</g>
<!-- Node33&#45;&gt;Node32 -->
<g id="edge49_Node000033_Node000032" class="edge">
<title>Node33&#45;&gt;Node32</title>
<g id="a_edge49_Node000033_Node000032"><a xlink:title=" ">
<path fill="none" stroke="#63b8ff" d="M3949.93,-121.95C3874.37,-117.41 3768.45,-105.54 3742.38,-74.5 3721.92,-50.15 3765.83,-30.52 3799.24,-19.73"/>
<polygon fill="#63b8ff" stroke="#63b8ff" points="3949.62,-125.43 3959.81,-122.5 3950.02,-118.44 3949.62,-125.43"/>
</a>
</g>
</g>
<!-- Node34 -->
<g id="Node000034" class="node">
<title>Node34</title>
<g id="a_Node000034"><a xlink:href="driver_8h.html" target="_top" xlink:title=" ">
<polygon fill="white" stroke="#666666" points="3873.62,-74.5 3751.12,-74.5 3751.12,-55.25 3873.62,-55.25 3873.62,-74.5"/>
<text text-anchor="middle" x="3812.38" y="-61" font-family="Helvetica,sans-Serif" font-size="10.00">iop/usb/usbd/src/driver.h</text>
</a>
</g>
</g>
<!-- Node33&#45;&gt;Node34 -->
<g id="edge34_Node000033_Node000034" class="edge">
<title>Node33&#45;&gt;Node34</title>
<g id="a_edge34_Node000033_Node000034"><a xlink:title=" ">
<path fill="none" stroke="#63b8ff" d="M3984.85,-112.67C3943.59,-101.48 3883.13,-85.07 3845.84,-74.96"/>
<polygon fill="#63b8ff" stroke="#63b8ff" points="3983.92,-116.04 3994.48,-115.28 3985.75,-109.29 3983.92,-116.04"/>
</a>
</g>
</g>
<!-- Node35 -->
<g id="Node000035" class="node">
<title>Node35</title>
<g id="a_Node000035"><a xlink:href="hcd_8c.html" target="_top" xlink:title=" ">
<polygon fill="white" stroke="#666666" points="4032.5,-19.25 3918.25,-19.25 3918.25,0 4032.5,0 4032.5,-19.25"/>
<text text-anchor="middle" x="3975.38" y="-5.75" font-family="Helvetica,sans-Serif" font-size="10.00">iop/usb/usbd/src/hcd.c</text>
</a>
</g>
</g>
<!-- Node33&#45;&gt;Node35 -->
<g id="edge39_Node000033_Node000035" class="edge">
<title>Node33&#45;&gt;Node35</title>
<g id="a_edge39_Node000033_Node000035"><a xlink:title=" ">
<path fill="none" stroke="#63b8ff" d="M3972.23,-112C3952.34,-104.53 3932.09,-92.8 3920.38,-74.5 3906.73,-53.18 3936.64,-31.5 3957.48,-19.69"/>
<polygon fill="#63b8ff" stroke="#63b8ff" points="3970.85,-115.23 3981.44,-115.14 3973.11,-108.6 3970.85,-115.23"/>
</a>
</g>
</g>
<!-- Node36 -->
<g id="Node000036" class="node">
<title>Node36</title>
<g id="a_Node000036"><a xlink:href="hcd_8h.html" target="_top" xlink:title=" ">
<polygon fill="white" stroke="#666666" points="4213.5,-74.5 4099.25,-74.5 4099.25,-55.25 4213.5,-55.25 4213.5,-74.5"/>
<text text-anchor="middle" x="4156.38" y="-61" font-family="Helvetica,sans-Serif" font-size="10.00">iop/usb/usbd/src/hcd.h</text>
</a>
</g>
</g>
<!-- Node33&#45;&gt;Node36 -->
<g id="edge40_Node000033_Node000036" class="edge">
<title>Node33&#45;&gt;Node36</title>
<g id="a_edge40_Node000033_Node000036"><a xlink:title=" ">
<path fill="none" stroke="#63b8ff" d="M4059.26,-110.89C4083.28,-99.76 4116.31,-84.45 4137,-74.86"/>
<polygon fill="#63b8ff" stroke="#63b8ff" points="4057.91,-107.66 4050.31,-115.04 4060.86,-114.01 4057.91,-107.66"/>
</a>
</g>
</g>
<!-- Node37 -->
<g id="Node000037" class="node">
<title>Node37</title>
<g id="a_Node000037"><a xlink:href="usbd_8c.html" target="_top" xlink:title=" ">
<polygon fill="white" stroke="#666666" points="4170.12,-19.25 4050.62,-19.25 4050.62,0 4170.12,0 4170.12,-19.25"/>
<text text-anchor="middle" x="4110.38" y="-5.75" font-family="Helvetica,sans-Serif" font-size="10.00">iop/usb/usbd/src/usbd.c</text>
</a>
</g>
</g>
<!-- Node33&#45;&gt;Node37 -->
<g id="edge59_Node000033_Node000037" class="edge">
<title>Node33&#45;&gt;Node37</title>
<g id="a_edge59_Node000033_Node000037"><a xlink:title=" ">
<path fill="none" stroke="#63b8ff" d="M4042.39,-106.41C4060.03,-81.56 4090.83,-38.17 4104.05,-19.54"/>
<polygon fill="#63b8ff" stroke="#63b8ff" points="4039.54,-104.38 4036.61,-114.56 4045.25,-108.43 4039.54,-104.38"/>
</a>
</g>
</g>
<!-- Node38 -->
<g id="Node000038" class="node">
<title>Node38</title>
<g id="a_Node000038"><a xlink:href="hub_8h.html" target="_top" xlink:title=" ">
<polygon fill="white" stroke="#666666" points="4043.5,-74.5 3929.25,-74.5 3929.25,-55.25 4043.5,-55.25 4043.5,-74.5"/>
<text text-anchor="middle" x="3986.38" y="-61" font-family="Helvetica,sans-Serif" font-size="10.00">iop/usb/usbd/src/hub.h</text>
</a>
</g>
</g>
<!-- Node33&#45;&gt;Node38 -->
<g id="edge45_Node000033_Node000038" class="edge">
<title>Node33&#45;&gt;Node38</title>
<g id="a_edge45_Node000033_Node000038"><a xlink:title=" ">
<path fill="none" stroke="#63b8ff" d="M4016.15,-106.64C4008.46,-96.11 3999.11,-83.32 3992.97,-74.9"/>
<polygon fill="#63b8ff" stroke="#63b8ff" points="4013.23,-108.57 4021.95,-114.59 4018.88,-104.45 4013.23,-108.57"/>
</a>
</g>
</g>
<!-- Node39 -->
<g id="Node000039" class="node">
<title>Node39</title>
<g id="a_Node000039"><a xlink:href="mem_8c.html" target="_top" xlink:title=" ">
<polygon fill="white" stroke="#666666" points="4580.5,-19.25 4460.25,-19.25 4460.25,0 4580.5,0 4580.5,-19.25"/>
<text text-anchor="middle" x="4520.38" y="-5.75" font-family="Helvetica,sans-Serif" font-size="10.00">iop/usb/usbd/src/mem.c</text>
</a>
</g>
</g>
<!-- Node33&#45;&gt;Node39 -->
<g id="edge50_Node000033_Node000039" class="edge">
<title>Node33&#45;&gt;Node39</title>
<g id="a_edge50_Node000033_Node000039"><a xlink:title=" ">
<path fill="none" stroke="#63b8ff" d="M4108.57,-121.53C4183.85,-116.7 4299.49,-104.63 4395.38,-74.5 4438.39,-60.99 4484.51,-33.65 4506.79,-19.52"/>
<polygon fill="#63b8ff" stroke="#63b8ff" points="4108.58,-118.02 4098.82,-122.13 4109.01,-125.01 4108.58,-118.02"/>
</a>
</g>
</g>
<!-- Node40 -->
<g id="Node000040" class="node">
<title>Node40</title>
<g id="a_Node000040"><a xlink:href="mem_8h.html" target="_top" xlink:title=" ">
<polygon fill="white" stroke="#666666" points="4351.5,-74.5 4231.25,-74.5 4231.25,-55.25 4351.5,-55.25 4351.5,-74.5"/>
<text text-anchor="middle" x="4291.38" y="-61" font-family="Helvetica,sans-Serif" font-size="10.00">iop/usb/usbd/src/mem.h</text>
</a>
</g>
</g>
<!-- Node33&#45;&gt;Node40 -->
<g id="edge51_Node000033_Node000040" class="edge">
<title>Node33&#45;&gt;Node40</title>
<g id="a_edge51_Node000033_Node000040"><a xlink:title=" ">
<path fill="none" stroke="#63b8ff" d="M4080.91,-113.17C4130.76,-101.97 4205.27,-85.22 4250.97,-74.96"/>
<polygon fill="#63b8ff" stroke="#63b8ff" points="4080.2,-109.74 4071.22,-115.35 4081.74,-116.57 4080.2,-109.74"/>
</a>
</g>
</g>
<!-- Node41 -->
<g id="Node000041" class="node">
<title>Node41</title>
<g id="a_Node000041"><a xlink:href="usbio_8c.html" target="_top" xlink:title=" ">
<polygon fill="white" stroke="#666666" points="4442.25,-19.25 4320.5,-19.25 4320.5,0 4442.25,0 4442.25,-19.25"/>
<text text-anchor="middle" x="4381.38" y="-5.75" font-family="Helvetica,sans-Serif" font-size="10.00">iop/usb/usbd/src/usbio.c</text>
</a>
</g>
</g>
<!-- Node33&#45;&gt;Node41 -->
<g id="edge60_Node000033_Node000041" class="edge">
<title>Node33&#45;&gt;Node41</title>
<g id="a_edge60_Node000033_Node000041"><a xlink:title=" ">
<path fill="none" stroke="#63b8ff" d="M4108.93,-124.46C4200.31,-122.28 4342.2,-112.64 4377.38,-74.5 4391.24,-59.47 4387.24,-33.05 4383.89,-19.37"/>
<polygon fill="#63b8ff" stroke="#63b8ff" points="4108.93,-120.96 4099.01,-124.67 4109.08,-127.96 4108.93,-120.96"/>
</a>
</g>
</g>
<!-- Node34&#45;&gt;Node30 -->
<g id="edge35_Node000034_Node000030" class="edge">
<title>Node34&#45;&gt;Node30</title>
<g id="a_edge35_Node000034_Node000030"><a xlink:title=" ">
<path fill="none" stroke="#63b8ff" d="M3780.24,-50.4C3757.33,-40.79 3727.13,-28.13 3707.02,-19.7"/>
<polygon fill="#63b8ff" stroke="#63b8ff" points="3778.86,-53.62 3789.44,-54.26 3781.57,-47.16 3778.86,-53.62"/>
</a>
</g>
</g>
<!-- Node34&#45;&gt;Node31 -->
<g id="edge37_Node000034_Node000031" class="edge">
<title>Node34&#45;&gt;Node31</title>
<g id="a_edge37_Node000034_Node000031"><a xlink:title=" ">
<path fill="none" stroke="#63b8ff" d="M3885.13,-55.22C3959.2,-46.37 4077.31,-32.12 4179.38,-19.25 4182.13,-18.9 4184.94,-18.55 4187.79,-18.18"/>
<polygon fill="#63b8ff" stroke="#63b8ff" points="3885.1,-51.7 3875.59,-56.36 3885.93,-58.65 3885.1,-51.7"/>
</a>
</g>
</g>
<!-- Node34&#45;&gt;Node32 -->
<g id="edge38_Node000034_Node000032" class="edge">
<title>Node34&#45;&gt;Node32</title>
<g id="a_edge38_Node000034_Node000032"><a xlink:title=" ">
<path fill="none" stroke="#63b8ff" d="M3819.65,-44.5C3822.85,-35.99 3826.45,-26.4 3829,-19.61"/>
<polygon fill="#63b8ff" stroke="#63b8ff" points="3816.45,-43.07 3816.21,-53.66 3823,-45.53 3816.45,-43.07"/>
</a>
</g>
</g>
<!-- Node34&#45;&gt;Node35 -->
<g id="edge36_Node000034_Node000035" class="edge">
<title>Node34&#45;&gt;Node35</title>
<g id="a_edge36_Node000034_Node000035"><a xlink:title=" ">
<path fill="none" stroke="#63b8ff" d="M3850.84,-51.31C3880.55,-41.6 3920.96,-28.4 3947.59,-19.7"/>
<polygon fill="#63b8ff" stroke="#63b8ff" points="3849.88,-47.94 3841.46,-54.37 3852.06,-54.59 3849.88,-47.94"/>
</a>
</g>
</g>
<!-- Node36&#45;&gt;Node31 -->
<g id="edge41_Node000036_Node000031" class="edge">
<title>Node36&#45;&gt;Node31</title>
<g id="a_edge41_Node000036_Node000031"><a xlink:title=" ">
<path fill="none" stroke="#63b8ff" d="M4181.11,-49.07C4196.86,-39.65 4216.75,-27.75 4230.2,-19.7"/>
<polygon fill="#63b8ff" stroke="#63b8ff" points="4179.56,-45.93 4172.77,-54.06 4183.15,-51.93 4179.56,-45.93"/>
</a>
</g>
</g>
<!-- Node36&#45;&gt;Node32 -->
<g id="edge42_Node000036_Node000032" class="edge">
<title>Node36&#45;&gt;Node32</title>
<g id="a_edge42_Node000036_Node000032"><a xlink:title=" ">
<path fill="none" stroke="#63b8ff" d="M4089.86,-52.94C4030.21,-43.14 3943.71,-28.92 3887.75,-19.73"/>
<polygon fill="#63b8ff" stroke="#63b8ff" points="4089.12,-56.37 4099.55,-54.54 4090.25,-49.46 4089.12,-56.37"/>
</a>
</g>
</g>
<!-- Node36&#45;&gt;Node37 -->
<g id="edge43_Node000036_Node000037" class="edge">
<title>Node36&#45;&gt;Node37</title>
<g id="a_edge43_Node000036_Node000037"><a xlink:title=" ">
<path fill="none" stroke="#63b8ff" d="M4141.37,-46.51C4133.62,-37.53 4124.47,-26.95 4118.14,-19.61"/>
<polygon fill="#63b8ff" stroke="#63b8ff" points="4138.6,-48.66 4147.79,-53.94 4143.9,-44.08 4138.6,-48.66"/>
</a>
</g>
</g>
<!-- Node38&#45;&gt;Node30 -->
<g id="edge46_Node000038_Node000030" class="edge">
<title>Node38&#45;&gt;Node30</title>
<g id="a_edge46_Node000038_Node000030"><a xlink:title=" ">
<path fill="none" stroke="#63b8ff" d="M3923.89,-52.82C3868.5,-43.02 3788.59,-28.88 3736.82,-19.73"/>
<polygon fill="#63b8ff" stroke="#63b8ff" points="3923.03,-56.22 3933.48,-54.52 3924.25,-49.33 3923.03,-56.22"/>
</a>
</g>
</g>
<!-- Node38&#45;&gt;Node35 -->
<g id="edge47_Node000038_Node000035" class="edge">
<title>Node38&#45;&gt;Node35</title>
<g id="a_edge47_Node000038_Node000035"><a xlink:title=" ">
<path fill="none" stroke="#63b8ff" d="M3982.25,-43.92C3980.52,-35.55 3978.6,-26.25 3977.23,-19.61"/>
<polygon fill="#63b8ff" stroke="#63b8ff" points="3978.8,-44.51 3984.25,-53.6 3985.66,-43.1 3978.8,-44.51"/>
</a>
</g>
</g>
<!-- Node38&#45;&gt;Node37 -->
<g id="edge48_Node000038_Node000037" class="edge">
<title>Node38&#45;&gt;Node37</title>
<g id="a_edge48_Node000038_Node000037"><a xlink:title=" ">
<path fill="none" stroke="#63b8ff" d="M4017.75,-50.4C4040.12,-40.79 4069.61,-28.13 4089.24,-19.7"/>
<polygon fill="#63b8ff" stroke="#63b8ff" points="4016.61,-47.08 4008.8,-54.24 4019.37,-53.51 4016.61,-47.08"/>
</a>
</g>
</g>
<!-- Node40&#45;&gt;Node30 -->
<g id="edge52_Node000040_Node000030" class="edge">
<title>Node40&#45;&gt;Node30</title>
<g id="a_edge52_Node000040_Node000030"><a xlink:title=" ">
<path fill="none" stroke="#63b8ff" d="M4219.59,-55.01C4013.36,-34.52 3958.87,-39.62 3755.38,-19.25 3752.57,-18.97 3749.71,-18.67 3746.82,-18.36"/>
<polygon fill="#63b8ff" stroke="#63b8ff" points="4219.01,-58.47 4229.31,-55.99 4219.7,-51.51 4219.01,-58.47"/>
</a>
</g>
</g>
<!-- Node40&#45;&gt;Node31 -->
<g id="edge54_Node000040_Node000031" class="edge">
<title>Node40&#45;&gt;Node31</title>
<g id="a_edge54_Node000040_Node000031"><a xlink:title=" ">
<path fill="none" stroke="#63b8ff" d="M4276.37,-46.51C4268.62,-37.53 4259.47,-26.95 4253.14,-19.61"/>
<polygon fill="#63b8ff" stroke="#63b8ff" points="4273.6,-48.66 4282.79,-53.94 4278.9,-44.08 4273.6,-48.66"/>
</a>
</g>
</g>
<!-- Node40&#45;&gt;Node32 -->
<g id="edge55_Node000040_Node000032" class="edge">
<title>Node40&#45;&gt;Node32</title>
<g id="a_edge55_Node000040_Node000032"><a xlink:title=" ">
<path fill="none" stroke="#63b8ff" d="M4219.56,-54.93C4145.08,-46.1 3990.46,-28.53 3900.56,-18.34"/>
<polygon fill="#63b8ff" stroke="#63b8ff" points="4218.95,-58.38 4229.29,-56.09 4219.78,-51.43 4218.95,-58.38"/>
</a>
</g>
</g>
<!-- Node40&#45;&gt;Node35 -->
<g id="edge53_Node000040_Node000035" class="edge">
<title>Node40&#45;&gt;Node35</title>
<g id="a_edge53_Node000040_Node000035"><a xlink:title=" ">
<path fill="none" stroke="#63b8ff" d="M4226.14,-52.88C4167.98,-43.08 4083.85,-28.9 4029.38,-19.73"/>
<polygon fill="#63b8ff" stroke="#63b8ff" points="4225.48,-56.32 4235.92,-54.53 4226.64,-49.42 4225.48,-56.32"/>
</a>
</g>
</g>
<!-- Node40&#45;&gt;Node37 -->
<g id="edge57_Node000040_Node000037" class="edge">
<title>Node40&#45;&gt;Node37</title>
<g id="a_edge57_Node000040_Node000037"><a xlink:title=" ">
<path fill="none" stroke="#63b8ff" d="M4249.97,-51.69C4216.86,-41.95 4171.19,-28.52 4141.23,-19.7"/>
<polygon fill="#63b8ff" stroke="#63b8ff" points="4248.64,-54.95 4259.22,-54.41 4250.61,-48.23 4248.64,-54.95"/>
</a>
</g>
</g>
<!-- Node40&#45;&gt;Node39 -->
<g id="edge56_Node000040_Node000039" class="edge">
<title>Node40&#45;&gt;Node39</title>
<g id="a_edge56_Node000040_Node000039"><a xlink:title=" ">
<path fill="none" stroke="#63b8ff" d="M4341.59,-52.2C4383.67,-42.41 4442.87,-28.65 4481.43,-19.68"/>
<polygon fill="#63b8ff" stroke="#63b8ff" points="4340.9,-48.76 4331.96,-54.44 4342.49,-55.58 4340.9,-48.76"/>
</a>
</g>
</g>
<!-- Node40&#45;&gt;Node41 -->
<g id="edge58_Node000040_Node000041" class="edge">
<title>Node40&#45;&gt;Node41</title>
<g id="a_edge58_Node000040_Node000041"><a xlink:title=" ">
<path fill="none" stroke="#63b8ff" d="M4316.39,-49.07C4332.32,-39.65 4352.43,-27.75 4366.03,-19.7"/>
<polygon fill="#63b8ff" stroke="#63b8ff" points="4314.77,-45.97 4307.94,-54.07 4318.33,-51.99 4314.77,-45.97"/>
</a>
</g>
</g>
</g>
</svg>
