<?xml version="1.0" encoding="UTF-8" standalone="no"?>
<!DOCTYPE svg PUBLIC "-//W3C//DTD SVG 1.1//EN"
 "http://www.w3.org/Graphics/SVG/1.1/DTD/svg11.dtd">
<!-- Generated by graphviz version 12.2.0 (20241103.1931)
 -->
<!-- Title: iop/fs/devfs/src/devfs.c Pages: 1 -->
<!--zoomable 248 -->

<svg id="main" version="1.1" xmlns="http://www.w3.org/2000/svg" xmlns:xlink="http://www.w3.org/1999/xlink" xml:space="preserve" onload="init(evt)">

<style type="text/css"><![CDATA[
.node, .edge {opacity: 0.7;}
.node.selected, .edge.selected {opacity: 1;}
.edge:hover path { stroke: red; }
.edge:hover polygon { stroke: red; fill: red; }
]]></style>

<defs>
  <circle id="rim" cx="0" cy="0" r="7"/>
  <circle id="rim2" cx="0" cy="0" r="3.5"/>
  <g id="zoomPlus">
    <use xlink:href="#rim" fill="#404040"><set attributeName="fill" to="#808080" begin="zoomplus.mouseover" end="zoomplus.mouseout"/></use>
    <path d="M-4,0h8M0,-4v8" fill="none" stroke="white" stroke-width="1.5" pointer-events="none"/>
  </g>
  <g id="zoomMin">
    <use xlink:href="#rim" fill="#404040"><set attributeName="fill" to="#808080" begin="zoomminus.mouseover" end="zoomminus.mouseout"/></use>
    <path d="M-4,0h8" fill="none" stroke="white" stroke-width="1.5" pointer-events="none"/>
  </g>
  <g id="arrowUp" transform="translate(30 24)">
    <use xlink:href="#rim"/>
    <path pointer-events="none" fill="none" stroke="white" stroke-width="1.5" d="M0,-3.0v7 M-2.5,-0.5L0,-3.0L2.5,-0.5"/>
  </g>
  <g id="arrowRight" transform="rotate(90) translate(36 -43)">
    <use xlink:href="#rim"/>
    <path pointer-events="none" fill="none" stroke="white" stroke-width="1.5" d="M0,-3.0v7 M-2.5,-0.5L0,-3.0L2.5,-0.5"/>
  </g>
  <g id="arrowDown" transform="rotate(180) translate(-30 -48)">
    <use xlink:href="#rim"/>
    <path pointer-events="none" fill="none" stroke="white" stroke-width="1.5" d="M0,-3.0v7 M-2.5,-0.5L0,-3.0L2.5,-0.5"/>
  </g>
  <g id="arrowLeft" transform="rotate(270) translate(-36 17)">
    <use xlink:href="#rim"/>
    <path pointer-events="none" fill="none" stroke="white" stroke-width="1.5" d="M0,-3.0v7 M-2.5,-0.5L0,-3.0L2.5,-0.5"/>
  </g>
  <g id="resetDef">
    <use xlink:href="#rim2" fill="#404040"><set attributeName="fill" to="#808080" begin="reset.mouseover" end="reset.mouseout"/></use>
  </g>
</defs>
<script type="application/ecmascript">
var viewWidth = 980;
var viewHeight = 248;
var sectionId = 'dynsection-0';
</script>
<script type="application/ecmascript" xlink:href="svg.min.js"/>
<svg id="graph" class="graph">
<g id="viewport">
<title>iop/fs/devfs/src/devfs.c</title>
<!-- Node1 -->
<g id="Node000001" class="node">
<title>Node1</title>
<g id="a_Node000001"><a xlink:title=" ">
<polygon fill="#999999" stroke="#666666" points="494.27,-240.25 376.27,-240.25 376.27,-221 494.27,-221 494.27,-240.25"/>
<text text-anchor="middle" x="435.27" y="-226.75" font-family="Helvetica,sans-Serif" font-size="10.00">iop/fs/devfs/src/devfs.c</text>
</a>
</g>
</g>
<!-- Node2 -->
<g id="Node000002" class="node">
<title>Node2</title>
<g id="a_Node000002"><a xlink:title=" ">
<polygon fill="#e0e0e0" stroke="#999999" points="420.65,-129.75 373.9,-129.75 373.9,-110.5 420.65,-110.5 420.65,-129.75"/>
<text text-anchor="middle" x="397.27" y="-116.25" font-family="Helvetica,sans-Serif" font-size="10.00">types.h</text>
</a>
</g>
</g>
<!-- Node1&#45;&gt;Node2 -->
<g id="edge1_Node000001_Node000002" class="edge">
<title>Node1&#45;&gt;Node2</title>
<g id="a_edge1_Node000001_Node000002"><a xlink:title=" ">
<path fill="none" stroke="#63b8ff" d="M439.97,-220.55C445.89,-207.8 454.37,-184.07 446.27,-165.75 441.11,-154.07 431.21,-144.13 421.66,-136.61"/>
<polygon fill="#63b8ff" stroke="#63b8ff" points="423.79,-133.83 413.63,-130.82 419.69,-139.51 423.79,-133.83"/>
</a>
</g>
</g>
<!-- Node3 -->
<g id="Node000003" class="node">
<title>Node3</title>
<g id="a_Node000003"><a xlink:href="defs_8h.html" target="_top" xlink:title=" ">
<polygon fill="white" stroke="#666666" points="728.4,-129.75 686.15,-129.75 686.15,-110.5 728.4,-110.5 728.4,-129.75"/>
<text text-anchor="middle" x="707.27" y="-116.25" font-family="Helvetica,sans-Serif" font-size="10.00">defs.h</text>
</a>
</g>
</g>
<!-- Node1&#45;&gt;Node3 -->
<g id="edge2_Node000001_Node000003" class="edge">
<title>Node1&#45;&gt;Node3</title>
<g id="a_edge2_Node000001_Node000003"><a xlink:title=" ">
<path fill="none" stroke="#63b8ff" d="M494.49,-227.25C562.6,-223.23 668.62,-212.61 696.27,-185 707.6,-173.68 709.73,-155.21 709.39,-141.03"/>
<polygon fill="#63b8ff" stroke="#63b8ff" points="712.91,-141.21 708.73,-131.48 705.93,-141.7 712.91,-141.21"/>
</a>
</g>
</g>
<!-- Node7 -->
<g id="Node000007" class="node">
<title>Node7</title>
<g id="a_Node000007"><a xlink:href="irx_8h.html" target="_top" xlink:title=" ">
<polygon fill="white" stroke="#666666" points="346.9,-129.75 313.65,-129.75 313.65,-110.5 346.9,-110.5 346.9,-129.75"/>
<text text-anchor="middle" x="330.27" y="-116.25" font-family="Helvetica,sans-Serif" font-size="10.00">irx.h</text>
</a>
</g>
</g>
<!-- Node1&#45;&gt;Node7 -->
<g id="edge6_Node000001_Node000007" class="edge">
<title>Node1&#45;&gt;Node7</title>
<g id="a_edge6_Node000001_Node000007"><a xlink:title=" ">
<path fill="none" stroke="#63b8ff" d="M375.97,-227.81C263.62,-223.75 28.71,-212.09 4.27,-185 -1.46,-178.65 -1.35,-172.2 4.27,-165.75 42.97,-121.4 230.62,-119.53 302.33,-120.49"/>
<polygon fill="#63b8ff" stroke="#63b8ff" points="301.99,-123.99 312.05,-120.66 302.11,-116.99 301.99,-123.99"/>
</a>
</g>
</g>
<!-- Node8 -->
<g id="Node000008" class="node">
<title>Node8</title>
<g id="a_Node000008"><a xlink:href="loadcore_8h.html" target="_top" xlink:title=" ">
<polygon fill="white" stroke="#666666" points="213.4,-185 153.15,-185 153.15,-165.75 213.4,-165.75 213.4,-185"/>
<text text-anchor="middle" x="183.27" y="-171.5" font-family="Helvetica,sans-Serif" font-size="10.00">loadcore.h</text>
</a>
</g>
</g>
<!-- Node1&#45;&gt;Node8 -->
<g id="edge8_Node000001_Node000008" class="edge">
<title>Node1&#45;&gt;Node8</title>
<g id="a_edge8_Node000001_Node000008"><a xlink:title=" ">
<path fill="none" stroke="#63b8ff" d="M391.81,-220.54C351.3,-212.06 288.87,-198.95 224.95,-185.35"/>
<polygon fill="#63b8ff" stroke="#63b8ff" points="225.83,-181.96 215.32,-183.3 224.37,-188.81 225.83,-181.96"/>
</a>
</g>
</g>
<!-- Node9 -->
<g id="Node000009" class="node">
<title>Node9</title>
<g id="a_Node000009"><a xlink:href="thbase_8h.html" target="_top" xlink:title=" ">
<polygon fill="white" stroke="#666666" points="284.65,-185 231.9,-185 231.9,-165.75 284.65,-165.75 284.65,-185"/>
<text text-anchor="middle" x="258.27" y="-171.5" font-family="Helvetica,sans-Serif" font-size="10.00">thbase.h</text>
</a>
</g>
</g>
<!-- Node1&#45;&gt;Node9 -->
<g id="edge11_Node000001_Node000009" class="edge">
<title>Node1&#45;&gt;Node9</title>
<g id="a_edge11_Node000001_Node000009"><a xlink:title=" ">
<path fill="none" stroke="#63b8ff" d="M405.25,-220.59C375.07,-211.51 328.48,-197.5 295.87,-187.69"/>
<polygon fill="#63b8ff" stroke="#63b8ff" points="297,-184.37 286.41,-184.84 294.98,-191.07 297,-184.37"/>
</a>
</g>
</g>
<!-- Node10 -->
<g id="Node000010" class="node">
<title>Node10</title>
<g id="a_Node000010"><a xlink:href="thevent_8h.html" target="_top" xlink:title=" ">
<polygon fill="white" stroke="#666666" points="358.15,-185 302.4,-185 302.4,-165.75 358.15,-165.75 358.15,-185"/>
<text text-anchor="middle" x="330.27" y="-171.5" font-family="Helvetica,sans-Serif" font-size="10.00">thevent.h</text>
</a>
</g>
</g>
<!-- Node1&#45;&gt;Node10 -->
<g id="edge14_Node000001_Node000010" class="edge">
<title>Node1&#45;&gt;Node10</title>
<g id="a_edge14_Node000001_Node000010"><a xlink:title=" ">
<path fill="none" stroke="#63b8ff" d="M417.46,-220.59C401.24,-212.37 377.04,-200.09 358.24,-190.56"/>
<polygon fill="#63b8ff" stroke="#63b8ff" points="360.02,-187.54 349.52,-186.14 356.86,-193.78 360.02,-187.54"/>
</a>
</g>
</g>
<!-- Node11 -->
<g id="Node000011" class="node">
<title>Node11</title>
<g id="a_Node000011"><a xlink:href="thsemap_8h.html" target="_top" xlink:title=" ">
<polygon fill="white" stroke="#666666" points="436.77,-185 375.77,-185 375.77,-165.75 436.77,-165.75 436.77,-185"/>
<text text-anchor="middle" x="406.27" y="-171.5" font-family="Helvetica,sans-Serif" font-size="10.00">thsemap.h</text>
</a>
</g>
</g>
<!-- Node1&#45;&gt;Node11 -->
<g id="edge17_Node000001_Node000011" class="edge">
<title>Node1&#45;&gt;Node11</title>
<g id="a_edge17_Node000001_Node000011"><a xlink:title=" ">
<path fill="none" stroke="#63b8ff" d="M430.48,-220.83C426.73,-213.94 421.36,-204.09 416.64,-195.41"/>
<polygon fill="#63b8ff" stroke="#63b8ff" points="419.74,-193.8 411.89,-186.69 413.6,-197.14 419.74,-193.8"/>
</a>
</g>
</g>
<!-- Node12 -->
<g id="Node000012" class="node">
<title>Node12</title>
<g id="a_Node000012"><a xlink:href="intrman_8h.html" target="_top" xlink:title=" ">
<polygon fill="white" stroke="#666666" points="69.15,-185 13.4,-185 13.4,-165.75 69.15,-165.75 69.15,-185"/>
<text text-anchor="middle" x="41.27" y="-171.5" font-family="Helvetica,sans-Serif" font-size="10.00">intrman.h</text>
</a>
</g>
</g>
<!-- Node1&#45;&gt;Node12 -->
<g id="edge20_Node000001_Node000012" class="edge">
<title>Node1&#45;&gt;Node12</title>
<g id="a_edge20_Node000001_Node000012"><a xlink:title=" ">
<path fill="none" stroke="#63b8ff" d="M375.92,-224.13C307.21,-217.33 190.42,-204.47 80.76,-185.27"/>
<polygon fill="#63b8ff" stroke="#63b8ff" points="81.44,-181.84 70.98,-183.54 80.21,-188.73 81.44,-181.84"/>
</a>
</g>
</g>
<!-- Node13 -->
<g id="Node000013" class="node">
<title>Node13</title>
<g id="a_Node000013"><a xlink:href="stdio_8h.html" target="_top" xlink:title=" ">
<polygon fill="white" stroke="#666666" points="615.52,-185 571.02,-185 571.02,-165.75 615.52,-165.75 615.52,-185"/>
<text text-anchor="middle" x="593.27" y="-171.5" font-family="Helvetica,sans-Serif" font-size="10.00">stdio.h</text>
</a>
</g>
</g>
<!-- Node1&#45;&gt;Node13 -->
<g id="edge23_Node000001_Node000013" class="edge">
<title>Node1&#45;&gt;Node13</title>
<g id="a_edge23_Node000001_Node000013"><a xlink:title=" ">
<path fill="none" stroke="#63b8ff" d="M462.07,-220.59C489.12,-211.48 530.95,-197.38 560.08,-187.56"/>
<polygon fill="#63b8ff" stroke="#63b8ff" points="561.15,-190.89 569.51,-184.38 558.91,-184.26 561.15,-190.89"/>
</a>
</g>
</g>
<!-- Node15 -->
<g id="Node000015" class="node">
<title>Node15</title>
<g id="a_Node000015"><a xlink:href="sysclib_8h.html" target="_top" xlink:title=" ">
<polygon fill="white" stroke="#666666" points="687.02,-185 633.52,-185 633.52,-165.75 687.02,-165.75 687.02,-185"/>
<text text-anchor="middle" x="660.27" y="-171.5" font-family="Helvetica,sans-Serif" font-size="10.00">sysclib.h</text>
</a>
</g>
</g>
<!-- Node1&#45;&gt;Node15 -->
<g id="edge26_Node000001_Node000015" class="edge">
<title>Node1&#45;&gt;Node15</title>
<g id="a_edge26_Node000001_Node000015"><a xlink:title=" ">
<path fill="none" stroke="#63b8ff" d="M474.01,-220.52C509.91,-212.07 565.09,-199.06 622.1,-185.51"/>
<polygon fill="#63b8ff" stroke="#63b8ff" points="622.76,-188.95 631.67,-183.23 621.14,-182.14 622.76,-188.95"/>
</a>
</g>
</g>
<!-- Node18 -->
<g id="Node000018" class="node">
<title>Node18</title>
<g id="a_Node000018"><a xlink:href="errno_8h.html" target="_top" xlink:title=" ">
<polygon fill="white" stroke="#666666" points="959.9,-129.75 914.65,-129.75 914.65,-110.5 959.9,-110.5 959.9,-129.75"/>
<text text-anchor="middle" x="937.27" y="-116.25" font-family="Helvetica,sans-Serif" font-size="10.00">errno.h</text>
</a>
</g>
</g>
<!-- Node1&#45;&gt;Node18 -->
<g id="edge33_Node000001_Node000018" class="edge">
<title>Node1&#45;&gt;Node18</title>
<g id="a_edge33_Node000001_Node000018"><a xlink:title=" ">
<path fill="none" stroke="#63b8ff" d="M494.54,-228.96C569.74,-226.67 702.73,-217.82 811.27,-185 849.27,-173.51 889.59,-151.01 914.11,-136.02"/>
<polygon fill="#63b8ff" stroke="#63b8ff" points="915.67,-139.17 922.31,-130.91 911.97,-133.23 915.67,-139.17"/>
</a>
</g>
</g>
<!-- Node19 -->
<g id="Node000019" class="node">
<title>Node19</title>
<g id="a_Node000019"><a xlink:href="devfs_8h.html" target="_top" xlink:title=" ">
<polygon fill="white" stroke="#666666" points="135.02,-185 87.52,-185 87.52,-165.75 135.02,-165.75 135.02,-185"/>
<text text-anchor="middle" x="111.27" y="-171.5" font-family="Helvetica,sans-Serif" font-size="10.00">devfs.h</text>
</a>
</g>
</g>
<!-- Node1&#45;&gt;Node19 -->
<g id="edge34_Node000001_Node000019" class="edge">
<title>Node1&#45;&gt;Node19</title>
<g id="a_edge34_Node000001_Node000019"><a xlink:title=" ">
<path fill="none" stroke="#63b8ff" d="M375.87,-222.35C319.31,-215.01 231.6,-202.56 146.52,-185.28"/>
<polygon fill="#63b8ff" stroke="#63b8ff" points="147.34,-181.87 136.84,-183.28 145.92,-188.73 147.34,-181.87"/>
</a>
</g>
</g>
<!-- Node20 -->
<g id="Node000020" class="node">
<title>Node20</title>
<g id="a_Node000020"><a xlink:href="sysmem_8h.html" target="_top" xlink:title=" ">
<polygon fill="white" stroke="#666666" points="553.4,-185 493.15,-185 493.15,-165.75 553.4,-165.75 553.4,-185"/>
<text text-anchor="middle" x="523.27" y="-171.5" font-family="Helvetica,sans-Serif" font-size="10.00">sysmem.h</text>
</a>
</g>
</g>
<!-- Node1&#45;&gt;Node20 -->
<g id="edge37_Node000001_Node000020" class="edge">
<title>Node1&#45;&gt;Node20</title>
<g id="a_edge37_Node000001_Node000020"><a xlink:title=" ">
<path fill="none" stroke="#63b8ff" d="M450.2,-220.59C463.47,-212.56 483.14,-200.66 498.72,-191.23"/>
<polygon fill="#63b8ff" stroke="#63b8ff" points="500.23,-194.41 506.97,-186.24 496.61,-188.42 500.23,-194.41"/>
</a>
</g>
</g>
<!-- Node21 -->
<g id="Node000021" class="node">
<title>Node21</title>
<g id="a_Node000021"><a xlink:href="ioman_x_8h.html" target="_top" xlink:title=" ">
<polygon fill="white" stroke="#666666" points="802.52,-185 746.02,-185 746.02,-165.75 802.52,-165.75 802.52,-185"/>
<text text-anchor="middle" x="774.27" y="-171.5" font-family="Helvetica,sans-Serif" font-size="10.00">iomanX.h</text>
</a>
</g>
</g>
<!-- Node1&#45;&gt;Node21 -->
<g id="edge41_Node000001_Node000021" class="edge">
<title>Node1&#45;&gt;Node21</title>
<g id="a_edge41_Node000001_Node000021"><a xlink:title=" ">
<path fill="none" stroke="#63b8ff" d="M494.51,-221.32C553.96,-212.83 648.11,-198.93 729.27,-185 731.02,-184.7 732.81,-184.39 734.61,-184.06"/>
<polygon fill="#63b8ff" stroke="#63b8ff" points="735.04,-187.54 744.25,-182.29 733.78,-180.66 735.04,-187.54"/>
</a>
</g>
</g>
<!-- Node4 -->
<g id="Node000004" class="node">
<title>Node4</title>
<g id="a_Node000004"><a xlink:href="iop_2kernel_2include_2types_8h_source.html" target="_top" xlink:title=" ">
<polygon fill="white" stroke="#666666" points="609.65,-74.5 562.9,-74.5 562.9,-55.25 609.65,-55.25 609.65,-74.5"/>
<text text-anchor="middle" x="586.27" y="-61" font-family="Helvetica,sans-Serif" font-size="10.00">types.h</text>
</a>
</g>
</g>
<!-- Node3&#45;&gt;Node4 -->
<g id="edge3_Node000003_Node000004" class="edge">
<title>Node3&#45;&gt;Node4</title>
<g id="a_edge3_Node000003_Node000004"><a xlink:title=" ">
<path fill="none" stroke="#63b8ff" d="M686.74,-110.09C667.71,-101.72 639.12,-89.13 617.3,-79.53"/>
<polygon fill="#63b8ff" stroke="#63b8ff" points="618.85,-76.39 608.28,-75.56 616.03,-82.79 618.85,-76.39"/>
</a>
</g>
</g>
<!-- Node5 -->
<g id="Node000005" class="node">
<title>Node5</title>
<g id="a_Node000005"><a xlink:title=" ">
<polygon fill="#e0e0e0" stroke="#999999" points="608.52,-19.25 558.02,-19.25 558.02,0 608.52,0 608.52,-19.25"/>
<text text-anchor="middle" x="583.27" y="-5.75" font-family="Helvetica,sans-Serif" font-size="10.00">stddef.h</text>
</a>
</g>
</g>
<!-- Node4&#45;&gt;Node5 -->
<g id="edge4_Node000004_Node000005" class="edge">
<title>Node4&#45;&gt;Node5</title>
<g id="a_edge4_Node000004_Node000005"><a xlink:title=" ">
<path fill="none" stroke="#63b8ff" d="M585.78,-55.08C585.4,-48.49 584.88,-39.21 584.41,-30.82"/>
<polygon fill="#63b8ff" stroke="#63b8ff" points="587.92,-30.91 583.86,-21.12 580.93,-31.3 587.92,-30.91"/>
</a>
</g>
</g>
<!-- Node6 -->
<g id="Node000006" class="node">
<title>Node6</title>
<g id="a_Node000006"><a xlink:href="tamtypes_8h.html" target="_top" xlink:title=" ">
<polygon fill="white" stroke="#666666" points="689.9,-19.25 626.65,-19.25 626.65,0 689.9,0 689.9,-19.25"/>
<text text-anchor="middle" x="658.27" y="-5.75" font-family="Helvetica,sans-Serif" font-size="10.00">tamtypes.h</text>
</a>
</g>
</g>
<!-- Node4&#45;&gt;Node6 -->
<g id="edge5_Node000004_Node000006" class="edge">
<title>Node4&#45;&gt;Node6</title>
<g id="a_edge5_Node000004_Node000006"><a xlink:title=" ">
<path fill="none" stroke="#63b8ff" d="M598.48,-54.84C609.1,-46.99 624.71,-35.45 637.31,-26.12"/>
<polygon fill="#63b8ff" stroke="#63b8ff" points="639.06,-29.19 645.02,-20.42 634.9,-23.56 639.06,-29.19"/>
</a>
</g>
</g>
<!-- Node7&#45;&gt;Node4 -->
<g id="edge7_Node000007_Node000004" class="edge">
<title>Node7&#45;&gt;Node4</title>
<g id="a_edge7_Node000007_Node000004"><a xlink:title=" ">
<path fill="none" stroke="#63b8ff" d="M347.33,-114.77C353.02,-113.35 359.41,-111.81 365.27,-110.5 430.87,-95.8 507.93,-80.74 551.54,-72.42"/>
<polygon fill="#63b8ff" stroke="#63b8ff" points="551.99,-75.89 561.17,-70.59 550.69,-69.02 551.99,-75.89"/>
</a>
</g>
</g>
<!-- Node8&#45;&gt;Node2 -->
<g id="edge9_Node000008_Node000002" class="edge">
<title>Node8&#45;&gt;Node2</title>
<g id="a_edge9_Node000008_Node000002"><a xlink:title=" ">
<path fill="none" stroke="#63b8ff" d="M213.48,-166.86C252.68,-157.1 320.93,-140.12 362.32,-129.82"/>
<polygon fill="#63b8ff" stroke="#63b8ff" points="363.16,-133.22 372.02,-127.41 361.47,-126.43 363.16,-133.22"/>
</a>
</g>
</g>
<!-- Node8&#45;&gt;Node7 -->
<g id="edge10_Node000008_Node000007" class="edge">
<title>Node8&#45;&gt;Node7</title>
<g id="a_edge10_Node000008_Node000007"><a xlink:title=" ">
<path fill="none" stroke="#63b8ff" d="M208.21,-165.34C234.44,-155.84 275.61,-140.92 302.77,-131.09"/>
<polygon fill="#63b8ff" stroke="#63b8ff" points="303.84,-134.42 312.05,-127.73 301.45,-127.84 303.84,-134.42"/>
</a>
</g>
</g>
<!-- Node9&#45;&gt;Node2 -->
<g id="edge12_Node000009_Node000002" class="edge">
<title>Node9&#45;&gt;Node2</title>
<g id="a_edge12_Node000009_Node000002"><a xlink:title=" ">
<path fill="none" stroke="#63b8ff" d="M281.85,-165.34C304.12,-156.81 337.76,-143.92 362.99,-134.26"/>
<polygon fill="#63b8ff" stroke="#63b8ff" points="364.08,-137.59 372.16,-130.74 361.57,-131.05 364.08,-137.59"/>
</a>
</g>
</g>
<!-- Node9&#45;&gt;Node7 -->
<g id="edge13_Node000009_Node000007" class="edge">
<title>Node9&#45;&gt;Node7</title>
<g id="a_edge13_Node000009_Node000007"><a xlink:title=" ">
<path fill="none" stroke="#63b8ff" d="M270.48,-165.34C281.1,-157.49 296.71,-145.95 309.31,-136.62"/>
<polygon fill="#63b8ff" stroke="#63b8ff" points="311.06,-139.69 317.02,-130.92 306.9,-134.06 311.06,-139.69"/>
</a>
</g>
</g>
<!-- Node10&#45;&gt;Node2 -->
<g id="edge15_Node000010_Node000002" class="edge">
<title>Node10&#45;&gt;Node2</title>
<g id="a_edge15_Node000010_Node000002"><a xlink:title=" ">
<path fill="none" stroke="#63b8ff" d="M341.64,-165.34C351.32,-157.65 365.47,-146.4 377.08,-137.18"/>
<polygon fill="#63b8ff" stroke="#63b8ff" points="379.24,-139.93 384.89,-130.97 374.88,-134.45 379.24,-139.93"/>
</a>
</g>
</g>
<!-- Node10&#45;&gt;Node7 -->
<g id="edge16_Node000010_Node000007" class="edge">
<title>Node10&#45;&gt;Node7</title>
<g id="a_edge16_Node000010_Node000007"><a xlink:title=" ">
<path fill="none" stroke="#63b8ff" d="M330.27,-165.58C330.27,-159.07 330.27,-149.92 330.27,-141.62"/>
<polygon fill="#63b8ff" stroke="#63b8ff" points="333.77,-141.62 330.27,-131.62 326.77,-141.62 333.77,-141.62"/>
</a>
</g>
</g>
<!-- Node11&#45;&gt;Node2 -->
<g id="edge18_Node000011_Node000002" class="edge">
<title>Node11&#45;&gt;Node2</title>
<g id="a_edge18_Node000011_Node000002"><a xlink:title=" ">
<path fill="none" stroke="#63b8ff" d="M404.78,-165.58C403.67,-158.99 402.1,-149.71 400.68,-141.32"/>
<polygon fill="#63b8ff" stroke="#63b8ff" points="404.16,-140.88 399.04,-131.6 397.26,-142.05 404.16,-140.88"/>
</a>
</g>
</g>
<!-- Node11&#45;&gt;Node7 -->
<g id="edge19_Node000011_Node000007" class="edge">
<title>Node11&#45;&gt;Node7</title>
<g id="a_edge19_Node000011_Node000007"><a xlink:title=" ">
<path fill="none" stroke="#63b8ff" d="M393.38,-165.34C382.24,-157.54 365.9,-146.09 352.63,-136.79"/>
<polygon fill="#63b8ff" stroke="#63b8ff" points="354.66,-133.94 344.47,-131.07 350.65,-139.68 354.66,-133.94"/>
</a>
</g>
</g>
<!-- Node12&#45;&gt;Node2 -->
<g id="edge21_Node000012_Node000002" class="edge">
<title>Node12&#45;&gt;Node2</title>
<g id="a_edge21_Node000012_Node000002"><a xlink:title=" ">
<path fill="none" stroke="#63b8ff" d="M69.49,-167.49C72.45,-166.86 75.42,-166.27 78.27,-165.75 200.87,-143.58 233.44,-150.59 356.27,-129.75 358.28,-129.41 360.34,-129.04 362.42,-128.65"/>
<polygon fill="#63b8ff" stroke="#63b8ff" points="362.87,-132.13 372,-126.75 361.51,-125.26 362.87,-132.13"/>
</a>
</g>
</g>
<!-- Node12&#45;&gt;Node7 -->
<g id="edge22_Node000012_Node000007" class="edge">
<title>Node12&#45;&gt;Node7</title>
<g id="a_edge22_Node000012_Node000007"><a xlink:title=" ">
<path fill="none" stroke="#63b8ff" d="M69.52,-167.63C72.47,-166.97 75.43,-166.33 78.27,-165.75 159.18,-149.17 255.46,-133.14 302.13,-125.6"/>
<polygon fill="#63b8ff" stroke="#63b8ff" points="302.59,-129.07 311.91,-124.03 301.48,-122.16 302.59,-129.07"/>
</a>
</g>
</g>
<!-- Node13&#45;&gt;Node7 -->
<g id="edge25_Node000013_Node000007" class="edge">
<title>Node13&#45;&gt;Node7</title>
<g id="a_edge25_Node000013_Node000007"><a xlink:title=" ">
<path fill="none" stroke="#63b8ff" d="M570.64,-167.82C567.83,-167.09 564.99,-166.38 562.27,-165.75 475.53,-145.8 452.3,-148.41 365.27,-129.75 362.98,-129.26 360.6,-128.73 358.22,-128.17"/>
<polygon fill="#63b8ff" stroke="#63b8ff" points="359.33,-124.84 348.78,-125.9 357.69,-131.64 359.33,-124.84"/>
</a>
</g>
</g>
<!-- Node14 -->
<g id="Node000014" class="node">
<title>Node14</title>
<g id="a_Node000014"><a xlink:title=" ">
<polygon fill="#e0e0e0" stroke="#999999" points="565.52,-129.75 515.02,-129.75 515.02,-110.5 565.52,-110.5 565.52,-129.75"/>
<text text-anchor="middle" x="540.27" y="-116.25" font-family="Helvetica,sans-Serif" font-size="10.00">stdarg.h</text>
</a>
</g>
</g>
<!-- Node13&#45;&gt;Node14 -->
<g id="edge24_Node000013_Node000014" class="edge">
<title>Node13&#45;&gt;Node14</title>
<g id="a_edge24_Node000013_Node000014"><a xlink:title=" ">
<path fill="none" stroke="#63b8ff" d="M584.52,-165.58C577.12,-158.15 566.31,-147.29 557.23,-138.16"/>
<polygon fill="#63b8ff" stroke="#63b8ff" points="559.82,-135.8 550.28,-131.18 554.85,-140.74 559.82,-135.8"/>
</a>
</g>
</g>
<!-- Node15&#45;&gt;Node2 -->
<g id="edge27_Node000015_Node000002" class="edge">
<title>Node15&#45;&gt;Node2</title>
<g id="a_edge27_Node000015_Node000002"><a xlink:title=" ">
<path fill="none" stroke="#63b8ff" d="M633.17,-167.76C630.17,-167.06 627.16,-166.38 624.27,-165.75 556.37,-150.95 476.55,-135.77 431.95,-127.48"/>
<polygon fill="#63b8ff" stroke="#63b8ff" points="432.82,-124.09 422.35,-125.71 431.55,-130.97 432.82,-124.09"/>
</a>
</g>
</g>
<!-- Node15&#45;&gt;Node7 -->
<g id="edge28_Node000015_Node000007" class="edge">
<title>Node15&#45;&gt;Node7</title>
<g id="a_edge28_Node000015_Node000007"><a xlink:title=" ">
<path fill="none" stroke="#63b8ff" d="M633.2,-167.59C630.2,-166.93 627.18,-166.3 624.27,-165.75 510.07,-144.19 479.4,-151.68 365.27,-129.75 362.97,-129.31 360.59,-128.81 358.2,-128.28"/>
<polygon fill="#63b8ff" stroke="#63b8ff" points="359.29,-124.94 348.76,-126.04 357.68,-131.75 359.29,-124.94"/>
</a>
</g>
</g>
<!-- Node15&#45;&gt;Node14 -->
<g id="edge29_Node000015_Node000014" class="edge">
<title>Node15&#45;&gt;Node14</title>
<g id="a_edge29_Node000015_Node000014"><a xlink:title=" ">
<path fill="none" stroke="#63b8ff" d="M639.91,-165.34C621.04,-156.97 592.68,-144.38 571.04,-134.78"/>
<polygon fill="#63b8ff" stroke="#63b8ff" points="572.67,-131.67 562.11,-130.82 569.83,-138.07 572.67,-131.67"/>
</a>
</g>
</g>
<!-- Node16 -->
<g id="Node000016" class="node">
<title>Node16</title>
<g id="a_Node000016"><a xlink:href="setjmp_8h.html" target="_top" xlink:title=" ">
<polygon fill="white" stroke="#666666" points="684.65,-74.5 631.9,-74.5 631.9,-55.25 684.65,-55.25 684.65,-74.5"/>
<text text-anchor="middle" x="658.27" y="-61" font-family="Helvetica,sans-Serif" font-size="10.00">setjmp.h</text>
</a>
</g>
</g>
<!-- Node15&#45;&gt;Node16 -->
<g id="edge30_Node000015_Node000016" class="edge">
<title>Node15&#45;&gt;Node16</title>
<g id="a_edge30_Node000015_Node000016"><a xlink:title=" ">
<path fill="none" stroke="#63b8ff" d="M660.11,-165.5C659.79,-148.25 659.08,-109.83 658.64,-86.06"/>
<polygon fill="#63b8ff" stroke="#63b8ff" points="662.15,-86.32 658.46,-76.39 655.15,-86.45 662.15,-86.32"/>
</a>
</g>
</g>
<!-- Node17 -->
<g id="Node000017" class="node">
<title>Node17</title>
<g id="a_Node000017"><a xlink:href="ctype_8h.html" target="_top" xlink:title=" ">
<polygon fill="white" stroke="#666666" points="630.65,-129.75 583.9,-129.75 583.9,-110.5 630.65,-110.5 630.65,-129.75"/>
<text text-anchor="middle" x="607.27" y="-116.25" font-family="Helvetica,sans-Serif" font-size="10.00">ctype.h</text>
</a>
</g>
</g>
<!-- Node15&#45;&gt;Node17 -->
<g id="edge32_Node000015_Node000017" class="edge">
<title>Node15&#45;&gt;Node17</title>
<g id="a_edge32_Node000015_Node000017"><a xlink:title=" ">
<path fill="none" stroke="#63b8ff" d="M651.52,-165.58C644.12,-158.15 633.31,-147.29 624.23,-138.16"/>
<polygon fill="#63b8ff" stroke="#63b8ff" points="626.82,-135.8 617.28,-131.18 621.85,-140.74 626.82,-135.8"/>
</a>
</g>
</g>
<!-- Node16&#45;&gt;Node6 -->
<g id="edge31_Node000016_Node000006" class="edge">
<title>Node16&#45;&gt;Node6</title>
<g id="a_edge31_Node000016_Node000006"><a xlink:title=" ">
<path fill="none" stroke="#63b8ff" d="M658.27,-55.08C658.27,-48.57 658.27,-39.42 658.27,-31.12"/>
<polygon fill="#63b8ff" stroke="#63b8ff" points="661.77,-31.12 658.27,-21.12 654.77,-31.12 661.77,-31.12"/>
</a>
</g>
</g>
<!-- Node19&#45;&gt;Node2 -->
<g id="edge35_Node000019_Node000002" class="edge">
<title>Node19&#45;&gt;Node2</title>
<g id="a_edge35_Node000019_Node000002"><a xlink:title=" ">
<path fill="none" stroke="#63b8ff" d="M135.36,-167.82C138.35,-167.08 141.38,-166.37 144.27,-165.75 237.7,-145.65 262.38,-147.59 356.27,-129.75 358.27,-129.37 360.33,-128.97 362.4,-128.56"/>
<polygon fill="#63b8ff" stroke="#63b8ff" points="362.87,-132.03 371.97,-126.6 361.47,-125.17 362.87,-132.03"/>
</a>
</g>
</g>
<!-- Node19&#45;&gt;Node7 -->
<g id="edge36_Node000019_Node000007" class="edge">
<title>Node19&#45;&gt;Node7</title>
<g id="a_edge36_Node000019_Node000007"><a xlink:title=" ">
<path fill="none" stroke="#63b8ff" d="M135.41,-168.01C138.39,-167.24 141.4,-166.47 144.27,-165.75 200.13,-151.75 265.65,-136.24 302.12,-127.69"/>
<polygon fill="#63b8ff" stroke="#63b8ff" points="302.9,-131.1 311.84,-125.42 301.31,-124.29 302.9,-131.1"/>
</a>
</g>
</g>
<!-- Node20&#45;&gt;Node2 -->
<g id="edge38_Node000020_Node000002" class="edge">
<title>Node20&#45;&gt;Node2</title>
<g id="a_edge38_Node000020_Node000002"><a xlink:title=" ">
<path fill="none" stroke="#63b8ff" d="M501.9,-165.34C481.99,-156.93 452.03,-144.27 429.27,-134.65"/>
<polygon fill="#63b8ff" stroke="#63b8ff" points="430.72,-131.46 420.14,-130.79 427.99,-137.91 430.72,-131.46"/>
</a>
</g>
</g>
<!-- Node20&#45;&gt;Node7 -->
<g id="edge39_Node000020_Node000007" class="edge">
<title>Node20&#45;&gt;Node7</title>
<g id="a_edge39_Node000020_Node000007"><a xlink:title=" ">
<path fill="none" stroke="#63b8ff" d="M492.69,-165.94C455.73,-155.74 394.07,-138.73 358.3,-128.86"/>
<polygon fill="#63b8ff" stroke="#63b8ff" points="359.26,-125.49 348.69,-126.21 357.4,-132.24 359.26,-125.49"/>
</a>
</g>
</g>
<!-- Node20&#45;&gt;Node14 -->
<g id="edge40_Node000020_Node000014" class="edge">
<title>Node20&#45;&gt;Node14</title>
<g id="a_edge40_Node000020_Node000014"><a xlink:title=" ">
<path fill="none" stroke="#63b8ff" d="M526.08,-165.58C528.21,-158.92 531.22,-149.49 533.92,-141.03"/>
<polygon fill="#63b8ff" stroke="#63b8ff" points="537.24,-142.14 536.94,-131.55 530.57,-140.01 537.24,-142.14"/>
</a>
</g>
</g>
<!-- Node21&#45;&gt;Node2 -->
<g id="edge42_Node000021_Node000002" class="edge">
<title>Node21&#45;&gt;Node2</title>
<g id="a_edge42_Node000021_Node000002"><a xlink:title=" ">
<path fill="none" stroke="#63b8ff" d="M745.63,-170.33C677.45,-160.7 505.74,-136.45 431.9,-126.02"/>
<polygon fill="#63b8ff" stroke="#63b8ff" points="432.81,-122.61 422.42,-124.68 431.83,-129.54 432.81,-122.61"/>
</a>
</g>
</g>
<!-- Node21&#45;&gt;Node14 -->
<g id="edge44_Node000021_Node000014" class="edge">
<title>Node21&#45;&gt;Node14</title>
<g id="a_edge44_Node000021_Node000014"><a xlink:title=" ">
<path fill="none" stroke="#63b8ff" d="M745.56,-168.13C708.88,-160.12 643.16,-145.62 576.93,-130.1"/>
<polygon fill="#63b8ff" stroke="#63b8ff" points="577.88,-126.73 567.34,-127.85 576.28,-133.54 577.88,-126.73"/>
</a>
</g>
</g>
<!-- Node21&#45;&gt;Node18 -->
<g id="edge43_Node000021_Node000018" class="edge">
<title>Node21&#45;&gt;Node18</title>
<g id="a_edge43_Node000021_Node000018"><a xlink:title=" ">
<path fill="none" stroke="#63b8ff" d="M801.92,-165.34C829.95,-156.19 873.36,-142 903.43,-132.18"/>
<polygon fill="#63b8ff" stroke="#63b8ff" points="904.38,-135.55 912.8,-129.12 902.2,-128.9 904.38,-135.55"/>
</a>
</g>
</g>
<!-- Node22 -->
<g id="Node000022" class="node">
<title>Node22</title>
<g id="a_Node000022"><a xlink:href="io__common_8h.html" target="_top" xlink:title=" ">
<polygon fill="white" stroke="#666666" points="896.15,-129.75 822.4,-129.75 822.4,-110.5 896.15,-110.5 896.15,-129.75"/>
<text text-anchor="middle" x="859.27" y="-116.25" font-family="Helvetica,sans-Serif" font-size="10.00">io_common.h</text>
</a>
</g>
</g>
<!-- Node21&#45;&gt;Node22 -->
<g id="edge45_Node000021_Node000022" class="edge">
<title>Node21&#45;&gt;Node22</title>
<g id="a_edge45_Node000021_Node000022"><a xlink:title=" ">
<path fill="none" stroke="#63b8ff" d="M788.69,-165.34C801.39,-157.39 820.14,-145.64 835.13,-136.25"/>
<polygon fill="#63b8ff" stroke="#63b8ff" points="836.88,-139.28 843.5,-131.01 833.17,-133.35 836.88,-139.28"/>
</a>
</g>
</g>
<!-- Node25 -->
<g id="Node000025" class="node">
<title>Node25</title>
<g id="a_Node000025"><a xlink:href="iox__stat_8h.html" target="_top" xlink:title=" ">
<polygon fill="white" stroke="#666666" points="803.9,-129.75 746.65,-129.75 746.65,-110.5 803.9,-110.5 803.9,-129.75"/>
<text text-anchor="middle" x="775.27" y="-116.25" font-family="Helvetica,sans-Serif" font-size="10.00">iox_stat.h</text>
</a>
</g>
</g>
<!-- Node21&#45;&gt;Node25 -->
<g id="edge48_Node000021_Node000025" class="edge">
<title>Node21&#45;&gt;Node25</title>
<g id="a_edge48_Node000021_Node000025"><a xlink:title=" ">
<path fill="none" stroke="#63b8ff" d="M774.44,-165.58C774.56,-159.07 774.73,-149.92 774.89,-141.62"/>
<polygon fill="#63b8ff" stroke="#63b8ff" points="778.39,-141.69 775.07,-131.62 771.39,-141.55 778.39,-141.69"/>
</a>
</g>
</g>
<!-- Node23 -->
<g id="Node000023" class="node">
<title>Node23</title>
<g id="a_Node000023"><a xlink:href="fcntl_8h_source.html" target="_top" xlink:title=" ">
<polygon fill="white" stroke="#666666" points="886.4,-74.5 826.15,-74.5 826.15,-55.25 886.4,-55.25 886.4,-74.5"/>
<text text-anchor="middle" x="856.27" y="-61" font-family="Helvetica,sans-Serif" font-size="10.00">sys/fcntl.h</text>
</a>
</g>
</g>
<!-- Node22&#45;&gt;Node23 -->
<g id="edge46_Node000022_Node000023" class="edge">
<title>Node22&#45;&gt;Node23</title>
<g id="a_edge46_Node000022_Node000023"><a xlink:title=" ">
<path fill="none" stroke="#63b8ff" d="M858.78,-110.33C858.4,-103.74 857.88,-94.46 857.41,-86.07"/>
<polygon fill="#63b8ff" stroke="#63b8ff" points="860.92,-86.16 856.86,-76.37 853.93,-86.55 860.92,-86.16"/>
</a>
</g>
</g>
<!-- Node24 -->
<g id="Node000024" class="node">
<title>Node24</title>
<g id="a_Node000024"><a xlink:href="unistd_8h_source.html" target="_top" xlink:title=" ">
<polygon fill="white" stroke="#666666" points="972.15,-74.5 904.4,-74.5 904.4,-55.25 972.15,-55.25 972.15,-74.5"/>
<text text-anchor="middle" x="938.27" y="-61" font-family="Helvetica,sans-Serif" font-size="10.00">sys/unistd.h</text>
</a>
</g>
</g>
<!-- Node22&#45;&gt;Node24 -->
<g id="edge47_Node000022_Node000024" class="edge">
<title>Node22&#45;&gt;Node24</title>
<g id="a_edge47_Node000022_Node000024"><a xlink:title=" ">
<path fill="none" stroke="#63b8ff" d="M872.67,-110.09C884.36,-102.21 901.57,-90.61 915.43,-81.27"/>
<polygon fill="#63b8ff" stroke="#63b8ff" points="917.21,-84.29 923.55,-75.8 913.3,-78.49 917.21,-84.29"/>
</a>
</g>
</g>
<!-- Node26 -->
<g id="Node000026" class="node">
<title>Node26</title>
<g id="a_Node000026"><a xlink:href="time_8h.html" target="_top" xlink:title=" ">
<polygon fill="white" stroke="#666666" points="805.4,-74.5 745.15,-74.5 745.15,-55.25 805.4,-55.25 805.4,-74.5"/>
<text text-anchor="middle" x="775.27" y="-61" font-family="Helvetica,sans-Serif" font-size="10.00">sys/time.h</text>
</a>
</g>
</g>
<!-- Node25&#45;&gt;Node26 -->
<g id="edge49_Node000025_Node000026" class="edge">
<title>Node25&#45;&gt;Node26</title>
<g id="a_edge49_Node000025_Node000026"><a xlink:title=" ">
<path fill="none" stroke="#63b8ff" d="M775.27,-110.33C775.27,-103.82 775.27,-94.67 775.27,-86.37"/>
<polygon fill="#63b8ff" stroke="#63b8ff" points="778.77,-86.37 775.27,-76.37 771.77,-86.37 778.77,-86.37"/>
</a>
</g>
</g>
</g>
</svg>

<g id="navigator" transform="translate(0 0)" fill="#404254">
  <rect fill="#f2f5e9" fill-opacity="0.5" stroke="#606060" stroke-width=".5" x="0" y="0" width="60" height="60"/>
  <use id="zoomplus" xlink:href="#zoomPlus" x="17" y="9" onmousedown="handleZoom(evt,'in')"/>
  <use id="zoomminus" xlink:href="#zoomMin" x="42" y="9" onmousedown="handleZoom(evt,'out')"/>
  <use id="reset" xlink:href="#resetDef" x="30" y="36" onmousedown="handleReset()"/>
   <use id="arrowup" xlink:href="#arrowUp" x="0" y="0" onmousedown="handlePan(0,-1)"/>
  <use id="arrowright" xlink:href="#arrowRight" x="0" y="0" onmousedown="handlePan(1,0)"/>
  <use id="arrowdown" xlink:href="#arrowDown" x="0" y="0" onmousedown="handlePan(0,1)"/>
  <use id="arrowleft" xlink:href="#arrowLeft" x="0" y="0" onmousedown="handlePan(-1,0)"/>
</g>
<svg viewBox="0 0 15 15" width="100%" height="30px" preserveAspectRatio="xMaxYMin meet">
 <g id="arrow_out" transform="scale(0.3 0.3)">
  <a xlink:href="devfs_8c__incl_org.svg" target="_base">
   <rect id="button" ry="5" rx="5" y="6" x="6" height="38" width="38"
        fill="#f2f5e9" fill-opacity="0.5" stroke="#606060" stroke-width="1.0"/>
   <path id="arrow"
     d="M 11.500037,31.436501 C 11.940474,20.09759 22.043105,11.32322 32.158766,21.979434 L 37.068811,17.246167 C 37.068811,17.246167 37.088388,32 37.088388,32 L 22.160133,31.978069 C 22.160133,31.978069 26.997745,27.140456 26.997745,27.140456 C 18.528582,18.264221 13.291696,25.230495 11.500037,31.436501 z"
     style="fill:#404040;"/>
  </a>
 </g>
</svg>

<style type='text/css'>
<![CDATA[
[data-mouse-over-selected='false'] { opacity: 0.7; }
[data-mouse-over-selected='true']  { opacity: 1.0; }
]]>
</style>
<script type="application/ecmascript"><![CDATA[
document.addEventListener('DOMContentLoaded', (event) => {
  highlightEdges();
  highlightAdjacentNodes();
});
]]></script>
</svg>
