<?xml version="1.0" encoding="UTF-8" standalone="no"?>
<!DOCTYPE svg PUBLIC "-//W3C//DTD SVG 1.1//EN"
 "http://www.w3.org/Graphics/SVG/1.1/DTD/svg11.dtd">
<!-- Generated by graphviz version 12.2.0 (20241103.1931)
 -->
<!-- Title: iop/system/iopmgr/src/devices.c Pages: 1 -->
<svg width="571pt" height="315pt"
 viewBox="0.00 0.00 571.25 314.75" xmlns="http://www.w3.org/2000/svg" xmlns:xlink="http://www.w3.org/1999/xlink">
<g id="graph0" class="graph" transform="scale(1 1) rotate(0) translate(4 310.75)">
<title>iop/system/iopmgr/src/devices.c</title>
<!-- Node1 -->
<g id="Node000001" class="node">
<title>Node1</title>
<g id="a_Node000001"><a xlink:title=" ">
<polygon fill="#999999" stroke="#666666" points="212.12,-306.75 100.12,-306.75 100.12,-276.25 212.12,-276.25 212.12,-306.75"/>
<text text-anchor="start" x="108.12" y="-293.25" font-family="Helvetica,sans-Serif" font-size="10.00">iop/system/iopmgr/src</text>
<text text-anchor="middle" x="156.12" y="-282" font-family="Helvetica,sans-Serif" font-size="10.00">/devices.c</text>
</a>
</g>
</g>
<!-- Node2 -->
<g id="Node000002" class="node">
<title>Node2</title>
<g id="a_Node000002"><a xlink:href="defs_8h.html" target="_top" xlink:title=" ">
<polygon fill="white" stroke="#666666" points="42.25,-240.25 0,-240.25 0,-221 42.25,-221 42.25,-240.25"/>
<text text-anchor="middle" x="21.12" y="-226.75" font-family="Helvetica,sans-Serif" font-size="10.00">defs.h</text>
</a>
</g>
</g>
<!-- Node1&#45;&gt;Node2 -->
<g id="edge1_Node000001_Node000002" class="edge">
<title>Node1&#45;&gt;Node2</title>
<g id="a_edge1_Node000001_Node000002"><a xlink:title=" ">
<path fill="none" stroke="#63b8ff" d="M122.41,-275.8C100.86,-266.4 73.12,-254.3 52.13,-245.14"/>
<polygon fill="#63b8ff" stroke="#63b8ff" points="53.78,-242.05 43.22,-241.26 50.98,-248.46 53.78,-242.05"/>
</a>
</g>
</g>
<!-- Node6 -->
<g id="Node000006" class="node">
<title>Node6</title>
<g id="a_Node000006"><a xlink:href="stdio_8h.html" target="_top" xlink:title=" ">
<polygon fill="white" stroke="#666666" points="178.38,-185 133.88,-185 133.88,-165.75 178.38,-165.75 178.38,-185"/>
<text text-anchor="middle" x="156.12" y="-171.5" font-family="Helvetica,sans-Serif" font-size="10.00">stdio.h</text>
</a>
</g>
</g>
<!-- Node1&#45;&gt;Node6 -->
<g id="edge5_Node000001_Node000006" class="edge">
<title>Node1&#45;&gt;Node6</title>
<g id="a_edge5_Node000001_Node000006"><a xlink:title=" ">
<path fill="none" stroke="#63b8ff" d="M156.12,-276.05C156.12,-256 156.12,-219.65 156.12,-196.82"/>
<polygon fill="#63b8ff" stroke="#63b8ff" points="159.63,-196.96 156.13,-186.96 152.63,-196.96 159.63,-196.96"/>
</a>
</g>
</g>
<!-- Node9 -->
<g id="Node000009" class="node">
<title>Node9</title>
<g id="a_Node000009"><a xlink:href="sysclib_8h.html" target="_top" xlink:title=" ">
<polygon fill="white" stroke="#666666" points="115.88,-185 62.38,-185 62.38,-165.75 115.88,-165.75 115.88,-185"/>
<text text-anchor="middle" x="89.12" y="-171.5" font-family="Helvetica,sans-Serif" font-size="10.00">sysclib.h</text>
</a>
</g>
</g>
<!-- Node1&#45;&gt;Node9 -->
<g id="edge9_Node000001_Node000009" class="edge">
<title>Node1&#45;&gt;Node9</title>
<g id="a_edge9_Node000001_Node000009"><a xlink:title=" ">
<path fill="none" stroke="#63b8ff" d="M147.64,-276.05C135.6,-255.53 113.53,-217.95 100.21,-195.25"/>
<polygon fill="#63b8ff" stroke="#63b8ff" points="103.3,-193.6 95.22,-186.75 97.26,-197.15 103.3,-193.6"/>
</a>
</g>
</g>
<!-- Node13 -->
<g id="Node000013" class="node">
<title>Node13</title>
<g id="a_Node000013"><a xlink:href="ioman_x_8h.html" target="_top" xlink:title=" ">
<polygon fill="white" stroke="#666666" points="474.38,-185 417.88,-185 417.88,-165.75 474.38,-165.75 474.38,-185"/>
<text text-anchor="middle" x="446.12" y="-171.5" font-family="Helvetica,sans-Serif" font-size="10.00">iomanX.h</text>
</a>
</g>
</g>
<!-- Node1&#45;&gt;Node13 -->
<g id="edge16_Node000001_Node000013" class="edge">
<title>Node1&#45;&gt;Node13</title>
<g id="a_edge16_Node000001_Node000013"><a xlink:title=" ">
<path fill="none" stroke="#63b8ff" d="M200.55,-275.81C228.94,-266.2 266.42,-253.08 299.12,-240.25 340.24,-224.12 386.88,-203.44 416.39,-190.05"/>
<polygon fill="#63b8ff" stroke="#63b8ff" points="417.79,-193.26 425.44,-185.92 414.88,-186.89 417.79,-193.26"/>
</a>
</g>
</g>
<!-- Node20 -->
<g id="Node000020" class="node">
<title>Node20</title>
<g id="a_Node000020"><a xlink:href="iopmgr_8h.html" target="_top" xlink:title=" ">
<polygon fill="white" stroke="#666666" points="290.5,-240.25 237.75,-240.25 237.75,-221 290.5,-221 290.5,-240.25"/>
<text text-anchor="middle" x="264.12" y="-226.75" font-family="Helvetica,sans-Serif" font-size="10.00">iopmgr.h</text>
</a>
</g>
</g>
<!-- Node1&#45;&gt;Node20 -->
<g id="edge25_Node000001_Node000020" class="edge">
<title>Node1&#45;&gt;Node20</title>
<g id="a_edge25_Node000001_Node000020"><a xlink:title=" ">
<path fill="none" stroke="#63b8ff" d="M183.1,-275.8C199.7,-266.74 220.9,-255.19 237.45,-246.16"/>
<polygon fill="#63b8ff" stroke="#63b8ff" points="239.13,-249.24 246.23,-241.38 235.78,-243.09 239.13,-249.24"/>
</a>
</g>
</g>
<!-- Node3 -->
<g id="Node000003" class="node">
<title>Node3</title>
<g id="a_Node000003"><a xlink:href="iop_2kernel_2include_2types_8h_source.html" target="_top" xlink:title=" ">
<polygon fill="white" stroke="#666666" points="133.5,-74.5 86.75,-74.5 86.75,-55.25 133.5,-55.25 133.5,-74.5"/>
<text text-anchor="middle" x="110.12" y="-61" font-family="Helvetica,sans-Serif" font-size="10.00">types.h</text>
</a>
</g>
</g>
<!-- Node2&#45;&gt;Node3 -->
<g id="edge2_Node000002_Node000003" class="edge">
<title>Node2&#45;&gt;Node3</title>
<g id="a_edge2_Node000002_Node000003"><a xlink:title=" ">
<path fill="none" stroke="#63b8ff" d="M22.09,-220.51C24.67,-199.52 33.25,-146.77 57.12,-110.5 64.64,-99.08 75.93,-89 86.17,-81.33"/>
<polygon fill="#63b8ff" stroke="#63b8ff" points="88.11,-84.24 94.26,-75.61 84.07,-78.52 88.11,-84.24"/>
</a>
</g>
</g>
<!-- Node4 -->
<g id="Node000004" class="node">
<title>Node4</title>
<g id="a_Node000004"><a xlink:title=" ">
<polygon fill="#e0e0e0" stroke="#999999" points="138.38,-19.25 87.88,-19.25 87.88,0 138.38,0 138.38,-19.25"/>
<text text-anchor="middle" x="113.12" y="-5.75" font-family="Helvetica,sans-Serif" font-size="10.00">stddef.h</text>
</a>
</g>
</g>
<!-- Node3&#45;&gt;Node4 -->
<g id="edge3_Node000003_Node000004" class="edge">
<title>Node3&#45;&gt;Node4</title>
<g id="a_edge3_Node000003_Node000004"><a xlink:title=" ">
<path fill="none" stroke="#63b8ff" d="M110.62,-55.08C110.99,-48.49 111.51,-39.21 111.99,-30.82"/>
<polygon fill="#63b8ff" stroke="#63b8ff" points="115.47,-31.3 112.53,-21.12 108.48,-30.91 115.47,-31.3"/>
</a>
</g>
</g>
<!-- Node5 -->
<g id="Node000005" class="node">
<title>Node5</title>
<g id="a_Node000005"><a xlink:href="tamtypes_8h.html" target="_top" xlink:title=" ">
<polygon fill="white" stroke="#666666" points="69.75,-19.25 6.5,-19.25 6.5,0 69.75,0 69.75,-19.25"/>
<text text-anchor="middle" x="38.12" y="-5.75" font-family="Helvetica,sans-Serif" font-size="10.00">tamtypes.h</text>
</a>
</g>
</g>
<!-- Node3&#45;&gt;Node5 -->
<g id="edge4_Node000003_Node000005" class="edge">
<title>Node3&#45;&gt;Node5</title>
<g id="a_edge4_Node000003_Node000005"><a xlink:title=" ">
<path fill="none" stroke="#63b8ff" d="M97.91,-54.84C87.3,-46.99 71.69,-35.45 59.08,-26.12"/>
<polygon fill="#63b8ff" stroke="#63b8ff" points="61.5,-23.56 51.38,-20.42 57.33,-29.19 61.5,-23.56"/>
</a>
</g>
</g>
<!-- Node7 -->
<g id="Node000007" class="node">
<title>Node7</title>
<g id="a_Node000007"><a xlink:title=" ">
<polygon fill="#e0e0e0" stroke="#999999" points="181.38,-129.75 130.88,-129.75 130.88,-110.5 181.38,-110.5 181.38,-129.75"/>
<text text-anchor="middle" x="156.12" y="-116.25" font-family="Helvetica,sans-Serif" font-size="10.00">stdarg.h</text>
</a>
</g>
</g>
<!-- Node6&#45;&gt;Node7 -->
<g id="edge6_Node000006_Node000007" class="edge">
<title>Node6&#45;&gt;Node7</title>
<g id="a_edge6_Node000006_Node000007"><a xlink:title=" ">
<path fill="none" stroke="#63b8ff" d="M156.12,-165.58C156.12,-159.07 156.12,-149.92 156.12,-141.62"/>
<polygon fill="#63b8ff" stroke="#63b8ff" points="159.63,-141.62 156.13,-131.62 152.63,-141.62 159.63,-141.62"/>
</a>
</g>
</g>
<!-- Node8 -->
<g id="Node000008" class="node">
<title>Node8</title>
<g id="a_Node000008"><a xlink:href="irx_8h.html" target="_top" xlink:title=" ">
<polygon fill="white" stroke="#666666" points="232.75,-129.75 199.5,-129.75 199.5,-110.5 232.75,-110.5 232.75,-129.75"/>
<text text-anchor="middle" x="216.12" y="-116.25" font-family="Helvetica,sans-Serif" font-size="10.00">irx.h</text>
</a>
</g>
</g>
<!-- Node6&#45;&gt;Node8 -->
<g id="edge7_Node000006_Node000008" class="edge">
<title>Node6&#45;&gt;Node8</title>
<g id="a_edge7_Node000006_Node000008"><a xlink:title=" ">
<path fill="none" stroke="#63b8ff" d="M166.3,-165.34C174.89,-157.72 187.39,-146.62 197.73,-137.45"/>
<polygon fill="#63b8ff" stroke="#63b8ff" points="199.81,-140.29 204.97,-131.03 195.16,-135.05 199.81,-140.29"/>
</a>
</g>
</g>
<!-- Node8&#45;&gt;Node3 -->
<g id="edge8_Node000008_Node000003" class="edge">
<title>Node8&#45;&gt;Node3</title>
<g id="a_edge8_Node000008_Node000003"><a xlink:title=" ">
<path fill="none" stroke="#63b8ff" d="M199.09,-110.57C182.7,-102.33 157.61,-89.73 138.25,-80.01"/>
<polygon fill="#63b8ff" stroke="#63b8ff" points="140.04,-76.98 129.53,-75.62 136.89,-83.24 140.04,-76.98"/>
</a>
</g>
</g>
<!-- Node9&#45;&gt;Node7 -->
<g id="edge12_Node000009_Node000007" class="edge">
<title>Node9&#45;&gt;Node7</title>
<g id="a_edge12_Node000009_Node000007"><a xlink:title=" ">
<path fill="none" stroke="#63b8ff" d="M100.49,-165.34C110.17,-157.65 124.32,-146.4 135.93,-137.18"/>
<polygon fill="#63b8ff" stroke="#63b8ff" points="138.09,-139.93 143.74,-130.97 133.74,-134.45 138.09,-139.93"/>
</a>
</g>
</g>
<!-- Node9&#45;&gt;Node8 -->
<g id="edge11_Node000009_Node000008" class="edge">
<title>Node9&#45;&gt;Node8</title>
<g id="a_edge11_Node000009_Node000008"><a xlink:title=" ">
<path fill="none" stroke="#63b8ff" d="M110.67,-165.34C132.2,-156.31 165.37,-142.4 188.76,-132.6"/>
<polygon fill="#63b8ff" stroke="#63b8ff" points="190.09,-135.84 197.96,-128.74 187.38,-129.38 190.09,-135.84"/>
</a>
</g>
</g>
<!-- Node10 -->
<g id="Node000010" class="node">
<title>Node10</title>
<g id="a_Node000010"><a xlink:title=" ">
<polygon fill="#e0e0e0" stroke="#999999" points="330.5,-129.75 283.75,-129.75 283.75,-110.5 330.5,-110.5 330.5,-129.75"/>
<text text-anchor="middle" x="307.12" y="-116.25" font-family="Helvetica,sans-Serif" font-size="10.00">types.h</text>
</a>
</g>
</g>
<!-- Node9&#45;&gt;Node10 -->
<g id="edge10_Node000009_Node000010" class="edge">
<title>Node9&#45;&gt;Node10</title>
<g id="a_edge10_Node000009_Node000010"><a xlink:title=" ">
<path fill="none" stroke="#63b8ff" d="M116.29,-167.74C155.71,-158.11 228.77,-140.26 272.16,-129.67"/>
<polygon fill="#63b8ff" stroke="#63b8ff" points="272.94,-133.08 281.82,-127.31 271.28,-126.28 272.94,-133.08"/>
</a>
</g>
</g>
<!-- Node11 -->
<g id="Node000011" class="node">
<title>Node11</title>
<g id="a_Node000011"><a xlink:href="setjmp_8h.html" target="_top" xlink:title=" ">
<polygon fill="white" stroke="#666666" points="64.5,-74.5 11.75,-74.5 11.75,-55.25 64.5,-55.25 64.5,-74.5"/>
<text text-anchor="middle" x="38.12" y="-61" font-family="Helvetica,sans-Serif" font-size="10.00">setjmp.h</text>
</a>
</g>
</g>
<!-- Node9&#45;&gt;Node11 -->
<g id="edge13_Node000009_Node000011" class="edge">
<title>Node9&#45;&gt;Node11</title>
<g id="a_edge13_Node000009_Node000011"><a xlink:title=" ">
<path fill="none" stroke="#63b8ff" d="M81.29,-165.38C74.12,-156.75 63.67,-143.11 57.12,-129.75 50.26,-115.74 45.35,-98.76 42.25,-85.83"/>
<polygon fill="#63b8ff" stroke="#63b8ff" points="45.73,-85.38 40.15,-76.38 38.9,-86.9 45.73,-85.38"/>
</a>
</g>
</g>
<!-- Node12 -->
<g id="Node000012" class="node">
<title>Node12</title>
<g id="a_Node000012"><a xlink:href="ctype_8h.html" target="_top" xlink:title=" ">
<polygon fill="white" stroke="#666666" points="112.5,-129.75 65.75,-129.75 65.75,-110.5 112.5,-110.5 112.5,-129.75"/>
<text text-anchor="middle" x="89.12" y="-116.25" font-family="Helvetica,sans-Serif" font-size="10.00">ctype.h</text>
</a>
</g>
</g>
<!-- Node9&#45;&gt;Node12 -->
<g id="edge15_Node000009_Node000012" class="edge">
<title>Node9&#45;&gt;Node12</title>
<g id="a_edge15_Node000009_Node000012"><a xlink:title=" ">
<path fill="none" stroke="#63b8ff" d="M89.12,-165.58C89.12,-159.07 89.12,-149.92 89.12,-141.62"/>
<polygon fill="#63b8ff" stroke="#63b8ff" points="92.63,-141.62 89.13,-131.62 85.63,-141.62 92.63,-141.62"/>
</a>
</g>
</g>
<!-- Node11&#45;&gt;Node5 -->
<g id="edge14_Node000011_Node000005" class="edge">
<title>Node11&#45;&gt;Node5</title>
<g id="a_edge14_Node000011_Node000005"><a xlink:title=" ">
<path fill="none" stroke="#63b8ff" d="M38.12,-55.08C38.12,-48.57 38.12,-39.42 38.12,-31.12"/>
<polygon fill="#63b8ff" stroke="#63b8ff" points="41.63,-31.12 38.13,-21.12 34.63,-31.12 41.63,-31.12"/>
</a>
</g>
</g>
<!-- Node13&#45;&gt;Node7 -->
<g id="edge19_Node000013_Node000007" class="edge">
<title>Node13&#45;&gt;Node7</title>
<g id="a_edge19_Node000013_Node000007"><a xlink:title=" ">
<path fill="none" stroke="#63b8ff" d="M417.48,-167.5C414.66,-166.88 411.84,-166.29 409.12,-165.75 315.87,-147.24 288.63,-149.68 192.77,-130.15"/>
<polygon fill="#63b8ff" stroke="#63b8ff" points="193.67,-126.76 183.17,-128.17 192.26,-133.62 193.67,-126.76"/>
</a>
</g>
</g>
<!-- Node13&#45;&gt;Node10 -->
<g id="edge17_Node000013_Node000010" class="edge">
<title>Node13&#45;&gt;Node10</title>
<g id="a_edge17_Node000013_Node000010"><a xlink:title=" ">
<path fill="none" stroke="#63b8ff" d="M422.55,-165.34C400.28,-156.81 366.63,-143.92 341.4,-134.26"/>
<polygon fill="#63b8ff" stroke="#63b8ff" points="342.82,-131.05 332.23,-130.74 340.32,-137.59 342.82,-131.05"/>
</a>
</g>
</g>
<!-- Node14 -->
<g id="Node000014" class="node">
<title>Node14</title>
<g id="a_Node000014"><a xlink:href="errno_8h.html" target="_top" xlink:title=" ">
<polygon fill="white" stroke="#666666" points="393.75,-129.75 348.5,-129.75 348.5,-110.5 393.75,-110.5 393.75,-129.75"/>
<text text-anchor="middle" x="371.12" y="-116.25" font-family="Helvetica,sans-Serif" font-size="10.00">errno.h</text>
</a>
</g>
</g>
<!-- Node13&#45;&gt;Node14 -->
<g id="edge18_Node000013_Node000014" class="edge">
<title>Node13&#45;&gt;Node14</title>
<g id="a_edge18_Node000013_Node000014"><a xlink:title=" ">
<path fill="none" stroke="#63b8ff" d="M433.4,-165.34C422.41,-157.54 406.28,-146.09 393.19,-136.79"/>
<polygon fill="#63b8ff" stroke="#63b8ff" points="395.32,-134.01 385.14,-131.08 391.27,-139.72 395.32,-134.01"/>
</a>
</g>
</g>
<!-- Node15 -->
<g id="Node000015" class="node">
<title>Node15</title>
<g id="a_Node000015"><a xlink:href="io__common_8h.html" target="_top" xlink:title=" ">
<polygon fill="white" stroke="#666666" points="486,-129.75 412.25,-129.75 412.25,-110.5 486,-110.5 486,-129.75"/>
<text text-anchor="middle" x="449.12" y="-116.25" font-family="Helvetica,sans-Serif" font-size="10.00">io_common.h</text>
</a>
</g>
</g>
<!-- Node13&#45;&gt;Node15 -->
<g id="edge20_Node000013_Node000015" class="edge">
<title>Node13&#45;&gt;Node15</title>
<g id="a_edge20_Node000013_Node000015"><a xlink:title=" ">
<path fill="none" stroke="#63b8ff" d="M446.62,-165.58C446.99,-158.99 447.51,-149.71 447.99,-141.32"/>
<polygon fill="#63b8ff" stroke="#63b8ff" points="451.47,-141.8 448.53,-131.62 444.48,-141.41 451.47,-141.8"/>
</a>
</g>
</g>
<!-- Node18 -->
<g id="Node000018" class="node">
<title>Node18</title>
<g id="a_Node000018"><a xlink:href="iox__stat_8h.html" target="_top" xlink:title=" ">
<polygon fill="white" stroke="#666666" points="561.75,-129.75 504.5,-129.75 504.5,-110.5 561.75,-110.5 561.75,-129.75"/>
<text text-anchor="middle" x="533.12" y="-116.25" font-family="Helvetica,sans-Serif" font-size="10.00">iox_stat.h</text>
</a>
</g>
</g>
<!-- Node13&#45;&gt;Node18 -->
<g id="edge23_Node000013_Node000018" class="edge">
<title>Node13&#45;&gt;Node18</title>
<g id="a_edge23_Node000013_Node000018"><a xlink:title=" ">
<path fill="none" stroke="#63b8ff" d="M460.88,-165.34C474.01,-157.31 493.45,-145.41 508.86,-135.98"/>
<polygon fill="#63b8ff" stroke="#63b8ff" points="510.3,-139.2 517,-130.99 506.65,-133.23 510.3,-139.2"/>
</a>
</g>
</g>
<!-- Node16 -->
<g id="Node000016" class="node">
<title>Node16</title>
<g id="a_Node000016"><a xlink:href="fcntl_8h_source.html" target="_top" xlink:title=" ">
<polygon fill="white" stroke="#666666" points="398.25,-74.5 338,-74.5 338,-55.25 398.25,-55.25 398.25,-74.5"/>
<text text-anchor="middle" x="368.12" y="-61" font-family="Helvetica,sans-Serif" font-size="10.00">sys/fcntl.h</text>
</a>
</g>
</g>
<!-- Node15&#45;&gt;Node16 -->
<g id="edge21_Node000015_Node000016" class="edge">
<title>Node15&#45;&gt;Node16</title>
<g id="a_edge21_Node000015_Node000016"><a xlink:title=" ">
<path fill="none" stroke="#63b8ff" d="M435.38,-110.09C423.4,-102.21 405.75,-90.61 391.54,-81.27"/>
<polygon fill="#63b8ff" stroke="#63b8ff" points="393.48,-78.35 383.2,-75.78 389.63,-84.2 393.48,-78.35"/>
</a>
</g>
</g>
<!-- Node17 -->
<g id="Node000017" class="node">
<title>Node17</title>
<g id="a_Node000017"><a xlink:href="unistd_8h_source.html" target="_top" xlink:title=" ">
<polygon fill="white" stroke="#666666" points="484,-74.5 416.25,-74.5 416.25,-55.25 484,-55.25 484,-74.5"/>
<text text-anchor="middle" x="450.12" y="-61" font-family="Helvetica,sans-Serif" font-size="10.00">sys/unistd.h</text>
</a>
</g>
</g>
<!-- Node15&#45;&gt;Node17 -->
<g id="edge22_Node000015_Node000017" class="edge">
<title>Node15&#45;&gt;Node17</title>
<g id="a_edge22_Node000015_Node000017"><a xlink:title=" ">
<path fill="none" stroke="#63b8ff" d="M449.29,-110.33C449.41,-103.82 449.58,-94.67 449.74,-86.37"/>
<polygon fill="#63b8ff" stroke="#63b8ff" points="453.24,-86.44 449.93,-76.37 446.24,-86.3 453.24,-86.44"/>
</a>
</g>
</g>
<!-- Node19 -->
<g id="Node000019" class="node">
<title>Node19</title>
<g id="a_Node000019"><a xlink:href="time_8h.html" target="_top" xlink:title=" ">
<polygon fill="white" stroke="#666666" points="563.25,-74.5 503,-74.5 503,-55.25 563.25,-55.25 563.25,-74.5"/>
<text text-anchor="middle" x="533.12" y="-61" font-family="Helvetica,sans-Serif" font-size="10.00">sys/time.h</text>
</a>
</g>
</g>
<!-- Node18&#45;&gt;Node19 -->
<g id="edge24_Node000018_Node000019" class="edge">
<title>Node18&#45;&gt;Node19</title>
<g id="a_edge24_Node000018_Node000019"><a xlink:title=" ">
<path fill="none" stroke="#63b8ff" d="M533.12,-110.33C533.12,-103.82 533.12,-94.67 533.12,-86.37"/>
<polygon fill="#63b8ff" stroke="#63b8ff" points="536.63,-86.37 533.13,-76.37 529.63,-86.37 536.63,-86.37"/>
</a>
</g>
</g>
<!-- Node20&#45;&gt;Node8 -->
<g id="edge27_Node000020_Node000008" class="edge">
<title>Node20&#45;&gt;Node8</title>
<g id="a_edge27_Node000020_Node000008"><a xlink:title=" ">
<path fill="none" stroke="#63b8ff" d="M253.27,-220.56C244.16,-212.29 231.63,-199.22 225.12,-185 218.83,-171.25 216.68,-154.24 216.04,-141.23"/>
<polygon fill="#63b8ff" stroke="#63b8ff" points="219.54,-141.27 215.85,-131.34 212.54,-141.4 219.54,-141.27"/>
</a>
</g>
</g>
<!-- Node20&#45;&gt;Node10 -->
<g id="edge26_Node000020_Node000010" class="edge">
<title>Node20&#45;&gt;Node10</title>
<g id="a_edge26_Node000020_Node000010"><a xlink:title=" ">
<path fill="none" stroke="#63b8ff" d="M275.26,-220.68C284.54,-212.48 297.17,-199.46 303.12,-185 308.77,-171.28 309.62,-154.5 309.13,-141.58"/>
<polygon fill="#63b8ff" stroke="#63b8ff" points="312.63,-141.45 308.44,-131.72 305.65,-141.94 312.63,-141.45"/>
</a>
</g>
</g>
<!-- Node21 -->
<g id="Node000021" class="node">
<title>Node21</title>
<g id="a_Node000021"><a xlink:href="ioman_8h.html" target="_top" xlink:title=" ">
<polygon fill="white" stroke="#666666" points="400,-185 350.25,-185 350.25,-165.75 400,-165.75 400,-185"/>
<text text-anchor="middle" x="375.12" y="-171.5" font-family="Helvetica,sans-Serif" font-size="10.00">ioman.h</text>
</a>
</g>
</g>
<!-- Node20&#45;&gt;Node21 -->
<g id="edge28_Node000020_Node000021" class="edge">
<title>Node20&#45;&gt;Node21</title>
<g id="a_edge28_Node000020_Node000021"><a xlink:title=" ">
<path fill="none" stroke="#63b8ff" d="M282.95,-220.59C300.18,-212.33 325.93,-199.98 345.83,-190.43"/>
<polygon fill="#63b8ff" stroke="#63b8ff" points="347.34,-193.59 354.84,-186.11 344.31,-187.28 347.34,-193.59"/>
</a>
</g>
</g>
<!-- Node22 -->
<g id="Node000022" class="node">
<title>Node22</title>
<g id="a_Node000022"><a xlink:href="loadcore_8h.html" target="_top" xlink:title=" ">
<polygon fill="white" stroke="#666666" points="294.25,-185 234,-185 234,-165.75 294.25,-165.75 294.25,-185"/>
<text text-anchor="middle" x="264.12" y="-171.5" font-family="Helvetica,sans-Serif" font-size="10.00">loadcore.h</text>
</a>
</g>
</g>
<!-- Node20&#45;&gt;Node22 -->
<g id="edge33_Node000020_Node000022" class="edge">
<title>Node20&#45;&gt;Node22</title>
<g id="a_edge33_Node000020_Node000022"><a xlink:title=" ">
<path fill="none" stroke="#63b8ff" d="M264.12,-220.83C264.12,-214.32 264.12,-205.17 264.12,-196.87"/>
<polygon fill="#63b8ff" stroke="#63b8ff" points="267.63,-196.87 264.13,-186.87 260.63,-196.87 267.63,-196.87"/>
</a>
</g>
</g>
<!-- Node21&#45;&gt;Node8 -->
<g id="edge31_Node000021_Node000008" class="edge">
<title>Node21&#45;&gt;Node8</title>
<g id="a_edge31_Node000021_Node000008"><a xlink:title=" ">
<path fill="none" stroke="#63b8ff" d="M349.93,-165.94C321.02,-156.25 273.75,-140.42 243.83,-130.4"/>
<polygon fill="#63b8ff" stroke="#63b8ff" points="244.94,-127.08 234.34,-127.23 242.72,-133.72 244.94,-127.08"/>
</a>
</g>
</g>
<!-- Node21&#45;&gt;Node10 -->
<g id="edge30_Node000021_Node000010" class="edge">
<title>Node21&#45;&gt;Node10</title>
<g id="a_edge30_Node000021_Node000010"><a xlink:title=" ">
<path fill="none" stroke="#63b8ff" d="M363.59,-165.34C353.66,-157.57 339.11,-146.17 327.27,-136.9"/>
<polygon fill="#63b8ff" stroke="#63b8ff" points="329.71,-134.37 319.68,-130.96 325.4,-139.88 329.71,-134.37"/>
</a>
</g>
</g>
<!-- Node21&#45;&gt;Node14 -->
<g id="edge29_Node000021_Node000014" class="edge">
<title>Node21&#45;&gt;Node14</title>
<g id="a_edge29_Node000021_Node000014"><a xlink:title=" ">
<path fill="none" stroke="#63b8ff" d="M374.46,-165.58C373.97,-158.99 373.27,-149.71 372.64,-141.32"/>
<polygon fill="#63b8ff" stroke="#63b8ff" points="376.15,-141.33 371.91,-131.62 369.17,-141.85 376.15,-141.33"/>
</a>
</g>
</g>
<!-- Node21&#45;&gt;Node15 -->
<g id="edge32_Node000021_Node000015" class="edge">
<title>Node21&#45;&gt;Node15</title>
<g id="a_edge32_Node000021_Node000015"><a xlink:title=" ">
<path fill="none" stroke="#63b8ff" d="M387.68,-165.34C398.59,-157.49 414.63,-145.95 427.59,-136.62"/>
<polygon fill="#63b8ff" stroke="#63b8ff" points="429.46,-139.59 435.53,-130.91 425.37,-133.91 429.46,-139.59"/>
</a>
</g>
</g>
<!-- Node22&#45;&gt;Node8 -->
<g id="edge35_Node000022_Node000008" class="edge">
<title>Node22&#45;&gt;Node8</title>
<g id="a_edge35_Node000022_Node000008"><a xlink:title=" ">
<path fill="none" stroke="#63b8ff" d="M256.2,-165.58C249.57,-158.23 239.91,-147.51 231.74,-138.44"/>
<polygon fill="#63b8ff" stroke="#63b8ff" points="234.53,-136.32 225.24,-131.23 229.33,-141 234.53,-136.32"/>
</a>
</g>
</g>
<!-- Node22&#45;&gt;Node10 -->
<g id="edge34_Node000022_Node000010" class="edge">
<title>Node22&#45;&gt;Node10</title>
<g id="a_edge34_Node000022_Node000010"><a xlink:title=" ">
<path fill="none" stroke="#63b8ff" d="M271.23,-165.58C277.04,-158.38 285.46,-147.96 292.68,-139.01"/>
<polygon fill="#63b8ff" stroke="#63b8ff" points="295.36,-141.27 298.92,-131.29 289.91,-136.87 295.36,-141.27"/>
</a>
</g>
</g>
</g>
</svg>
