<?xml version="1.0" encoding="UTF-8" standalone="no"?>
<!DOCTYPE svg PUBLIC "-//W3C//DTD SVG 1.1//EN"
 "http://www.w3.org/Graphics/SVG/1.1/DTD/svg11.dtd">
<!-- Generated by graphviz version 12.2.0 (20241103.1931)
 -->
<!-- Title: iop/fs/netfs/src/devscan.c Pages: 1 -->
<svg width="824pt" height="304pt"
 viewBox="0.00 0.00 823.50 303.50" xmlns="http://www.w3.org/2000/svg" xmlns:xlink="http://www.w3.org/1999/xlink">
<g id="graph0" class="graph" transform="scale(1 1) rotate(0) translate(4 299.5)">
<title>iop/fs/netfs/src/devscan.c</title>
<!-- Node1 -->
<g id="Node000001" class="node">
<title>Node1</title>
<g id="a_Node000001"><a xlink:title=" ">
<polygon fill="#999999" stroke="#666666" points="544.38,-295.5 415.88,-295.5 415.88,-276.25 544.38,-276.25 544.38,-295.5"/>
<text text-anchor="middle" x="480.12" y="-282" font-family="Helvetica,sans-Serif" font-size="10.00">iop/fs/netfs/src/devscan.c</text>
</a>
</g>
</g>
<!-- Node2 -->
<g id="Node000002" class="node">
<title>Node2</title>
<g id="a_Node000002"><a xlink:title=" ">
<polygon fill="#e0e0e0" stroke="#999999" points="420.5,-129.75 373.75,-129.75 373.75,-110.5 420.5,-110.5 420.5,-129.75"/>
<text text-anchor="middle" x="397.12" y="-116.25" font-family="Helvetica,sans-Serif" font-size="10.00">types.h</text>
</a>
</g>
</g>
<!-- Node1&#45;&gt;Node2 -->
<g id="edge1_Node000001_Node000002" class="edge">
<title>Node1&#45;&gt;Node2</title>
<g id="a_edge1_Node000001_Node000002"><a xlink:title=" ">
<path fill="none" stroke="#63b8ff" d="M480.95,-275.99C482.44,-255.04 483.6,-201.59 461.12,-165.75 453.14,-153.02 440.06,-142.94 427.8,-135.61"/>
<polygon fill="#63b8ff" stroke="#63b8ff" points="429.59,-132.6 419.14,-130.83 426.2,-138.73 429.59,-132.6"/>
</a>
</g>
</g>
<!-- Node3 -->
<g id="Node000003" class="node">
<title>Node3</title>
<g id="a_Node000003"><a xlink:href="defs_8h.html" target="_top" xlink:title=" ">
<polygon fill="white" stroke="#666666" points="42.25,-240.25 0,-240.25 0,-221 42.25,-221 42.25,-240.25"/>
<text text-anchor="middle" x="21.12" y="-226.75" font-family="Helvetica,sans-Serif" font-size="10.00">defs.h</text>
</a>
</g>
</g>
<!-- Node1&#45;&gt;Node3 -->
<g id="edge2_Node000001_Node000003" class="edge">
<title>Node1&#45;&gt;Node3</title>
<g id="a_edge2_Node000001_Node000003"><a xlink:title=" ">
<path fill="none" stroke="#63b8ff" d="M415.45,-280.83C331.98,-274.98 182.44,-262.35 56.12,-240.25 55.29,-240.1 54.45,-239.95 53.6,-239.79"/>
<polygon fill="#63b8ff" stroke="#63b8ff" points="54.49,-236.4 43.98,-237.7 53.01,-243.24 54.49,-236.4"/>
</a>
</g>
</g>
<!-- Node7 -->
<g id="Node000007" class="node">
<title>Node7</title>
<g id="a_Node000007"><a xlink:href="irx_8h.html" target="_top" xlink:title=" ">
<polygon fill="white" stroke="#666666" points="332.75,-129.75 299.5,-129.75 299.5,-110.5 332.75,-110.5 332.75,-129.75"/>
<text text-anchor="middle" x="316.12" y="-116.25" font-family="Helvetica,sans-Serif" font-size="10.00">irx.h</text>
</a>
</g>
</g>
<!-- Node1&#45;&gt;Node7 -->
<g id="edge6_Node000001_Node000007" class="edge">
<title>Node1&#45;&gt;Node7</title>
<g id="a_edge6_Node000001_Node000007"><a xlink:title=" ">
<path fill="none" stroke="#63b8ff" d="M415.7,-278.62C314.29,-267.21 125.2,-239.05 89.12,-185 84.38,-177.88 83.69,-172.36 89.12,-165.75 113.97,-135.54 232.41,-125.47 287.64,-122.38"/>
<polygon fill="#63b8ff" stroke="#63b8ff" points="287.7,-125.88 297.51,-121.87 287.34,-118.89 287.7,-125.88"/>
</a>
</g>
</g>
<!-- Node8 -->
<g id="Node000008" class="node">
<title>Node8</title>
<g id="a_Node000008"><a xlink:href="loadcore_8h.html" target="_top" xlink:title=" ">
<polygon fill="white" stroke="#666666" points="346.25,-185 286,-185 286,-165.75 346.25,-165.75 346.25,-185"/>
<text text-anchor="middle" x="316.12" y="-171.5" font-family="Helvetica,sans-Serif" font-size="10.00">loadcore.h</text>
</a>
</g>
</g>
<!-- Node1&#45;&gt;Node8 -->
<g id="edge8_Node000001_Node000008" class="edge">
<title>Node1&#45;&gt;Node8</title>
<g id="a_edge8_Node000001_Node000008"><a xlink:title=" ">
<path fill="none" stroke="#63b8ff" d="M415.43,-277.16C388.9,-271.02 359.67,-260 339.12,-240.25 327.03,-228.62 321.28,-210.18 318.55,-196.1"/>
<polygon fill="#63b8ff" stroke="#63b8ff" points="322.07,-195.97 317.08,-186.62 315.15,-197.04 322.07,-195.97"/>
</a>
</g>
</g>
<!-- Node9 -->
<g id="Node000009" class="node">
<title>Node9</title>
<g id="a_Node000009"><a xlink:href="ioman__mod_8h.html" target="_top" xlink:title=" ">
<polygon fill="white" stroke="#666666" points="582,-185 508.25,-185 508.25,-165.75 582,-165.75 582,-185"/>
<text text-anchor="middle" x="545.12" y="-171.5" font-family="Helvetica,sans-Serif" font-size="10.00">ioman_mod.h</text>
</a>
</g>
</g>
<!-- Node1&#45;&gt;Node9 -->
<g id="edge11_Node000001_Node000009" class="edge">
<title>Node1&#45;&gt;Node9</title>
<g id="a_edge11_Node000001_Node000009"><a xlink:title=" ">
<path fill="none" stroke="#63b8ff" d="M485.44,-276C496.01,-258.35 519.86,-218.55 534,-194.95"/>
<polygon fill="#63b8ff" stroke="#63b8ff" points="536.82,-197.05 538.95,-186.68 530.81,-193.45 536.82,-197.05"/>
</a>
</g>
</g>
<!-- Node15 -->
<g id="Node000015" class="node">
<title>Node15</title>
<g id="a_Node000015"><a xlink:href="ioman_x_8h.html" target="_top" xlink:title=" ">
<polygon fill="white" stroke="#666666" points="719.38,-185 662.88,-185 662.88,-165.75 719.38,-165.75 719.38,-185"/>
<text text-anchor="middle" x="691.12" y="-171.5" font-family="Helvetica,sans-Serif" font-size="10.00">iomanX.h</text>
</a>
</g>
</g>
<!-- Node1&#45;&gt;Node15 -->
<g id="edge19_Node000001_Node000015" class="edge">
<title>Node1&#45;&gt;Node15</title>
<g id="a_edge19_Node000001_Node000015"><a xlink:title=" ">
<path fill="none" stroke="#63b8ff" d="M497.75,-275.81C534.44,-256.94 619.27,-213.32 663.37,-190.65"/>
<polygon fill="#63b8ff" stroke="#63b8ff" points="664.76,-193.87 672.05,-186.18 661.56,-187.64 664.76,-193.87"/>
</a>
</g>
</g>
<!-- Node18 -->
<g id="Node000018" class="node">
<title>Node18</title>
<g id="a_Node000018"><a xlink:href="thbase_8h.html" target="_top" xlink:title=" ">
<polygon fill="white" stroke="#666666" points="150.5,-185 97.75,-185 97.75,-165.75 150.5,-165.75 150.5,-185"/>
<text text-anchor="middle" x="124.12" y="-171.5" font-family="Helvetica,sans-Serif" font-size="10.00">thbase.h</text>
</a>
</g>
</g>
<!-- Node1&#45;&gt;Node18 -->
<g id="edge25_Node000001_Node000018" class="edge">
<title>Node1&#45;&gt;Node18</title>
<g id="a_edge25_Node000001_Node000018"><a xlink:title=" ">
<path fill="none" stroke="#63b8ff" d="M426.44,-275.79C385.11,-268.15 326.85,-255.95 277.12,-240.25 232.63,-226.2 183.14,-204.33 152.82,-190.18"/>
<polygon fill="#63b8ff" stroke="#63b8ff" points="154.47,-187.09 143.93,-185.99 151.49,-193.42 154.47,-187.09"/>
</a>
</g>
</g>
<!-- Node19 -->
<g id="Node000019" class="node">
<title>Node19</title>
<g id="a_Node000019"><a xlink:href="thsemap_8h.html" target="_top" xlink:title=" ">
<polygon fill="white" stroke="#666666" points="229.62,-185 168.62,-185 168.62,-165.75 229.62,-165.75 229.62,-185"/>
<text text-anchor="middle" x="199.12" y="-171.5" font-family="Helvetica,sans-Serif" font-size="10.00">thsemap.h</text>
</a>
</g>
</g>
<!-- Node1&#45;&gt;Node19 -->
<g id="edge28_Node000001_Node000019" class="edge">
<title>Node1&#45;&gt;Node19</title>
<g id="a_edge28_Node000001_Node000019"><a xlink:title=" ">
<path fill="none" stroke="#63b8ff" d="M440.04,-275.82C407.88,-268 361.87,-255.56 323.12,-240.25 287.62,-226.22 248.81,-205.24 224.24,-191.2"/>
<polygon fill="#63b8ff" stroke="#63b8ff" points="226.04,-188.2 215.63,-186.22 222.54,-194.26 226.04,-188.2"/>
</a>
</g>
</g>
<!-- Node20 -->
<g id="Node000020" class="node">
<title>Node20</title>
<g id="a_Node000020"><a xlink:href="stdio_8h.html" target="_top" xlink:title=" ">
<polygon fill="white" stroke="#666666" points="644.38,-185 599.88,-185 599.88,-165.75 644.38,-165.75 644.38,-185"/>
<text text-anchor="middle" x="622.12" y="-171.5" font-family="Helvetica,sans-Serif" font-size="10.00">stdio.h</text>
</a>
</g>
</g>
<!-- Node1&#45;&gt;Node20 -->
<g id="edge31_Node000001_Node000020" class="edge">
<title>Node1&#45;&gt;Node20</title>
<g id="a_edge31_Node000001_Node000020"><a xlink:title=" ">
<path fill="none" stroke="#63b8ff" d="M491.75,-276C515.77,-257.64 571.2,-215.29 601.47,-192.16"/>
<polygon fill="#63b8ff" stroke="#63b8ff" points="603.32,-195.15 609.14,-186.3 599.07,-189.59 603.32,-195.15"/>
</a>
</g>
</g>
<!-- Node21 -->
<g id="Node000021" class="node">
<title>Node21</title>
<g id="a_Node000021"><a xlink:href="sysclib_8h.html" target="_top" xlink:title=" ">
<polygon fill="white" stroke="#666666" points="790.88,-185 737.38,-185 737.38,-165.75 790.88,-165.75 790.88,-185"/>
<text text-anchor="middle" x="764.12" y="-171.5" font-family="Helvetica,sans-Serif" font-size="10.00">sysclib.h</text>
</a>
</g>
</g>
<!-- Node1&#45;&gt;Node21 -->
<g id="edge34_Node000001_Node000021" class="edge">
<title>Node1&#45;&gt;Node21</title>
<g id="a_edge34_Node000001_Node000021"><a xlink:title=" ">
<path fill="none" stroke="#63b8ff" d="M504.99,-275.76C529.29,-266.81 567.3,-252.74 600.12,-240.25 645.41,-223.01 697.52,-202.62 730.62,-189.6"/>
<polygon fill="#63b8ff" stroke="#63b8ff" points="731.65,-192.95 739.67,-186.03 729.09,-186.44 731.65,-192.95"/>
</a>
</g>
</g>
<!-- Node24 -->
<g id="Node000024" class="node">
<title>Node24</title>
<g id="a_Node000024"><a xlink:href="iopmgr_8h.html" target="_top" xlink:title=" ">
<polygon fill="white" stroke="#666666" points="400.5,-240.25 347.75,-240.25 347.75,-221 400.5,-221 400.5,-240.25"/>
<text text-anchor="middle" x="374.12" y="-226.75" font-family="Helvetica,sans-Serif" font-size="10.00">iopmgr.h</text>
</a>
</g>
</g>
<!-- Node1&#45;&gt;Node24 -->
<g id="edge41_Node000001_Node000024" class="edge">
<title>Node1&#45;&gt;Node24</title>
<g id="a_edge41_Node000001_Node000024"><a xlink:title=" ">
<path fill="none" stroke="#63b8ff" d="M462.14,-275.84C445.77,-267.62 421.34,-255.34 402.36,-245.81"/>
<polygon fill="#63b8ff" stroke="#63b8ff" points="404.05,-242.74 393.55,-241.38 400.91,-249 404.05,-242.74"/>
</a>
</g>
</g>
<!-- Node26 -->
<g id="Node000026" class="node">
<title>Node26</title>
<g id="a_Node000026"><a xlink:href="devscan_8h.html" target="_top" xlink:title=" ">
<polygon fill="white" stroke="#666666" points="720.25,-240.25 660,-240.25 660,-221 720.25,-221 720.25,-240.25"/>
<text text-anchor="middle" x="690.12" y="-226.75" font-family="Helvetica,sans-Serif" font-size="10.00">devscan.h</text>
</a>
</g>
</g>
<!-- Node1&#45;&gt;Node26 -->
<g id="edge50_Node000001_Node000026" class="edge">
<title>Node1&#45;&gt;Node26</title>
<g id="a_edge50_Node000001_Node000026"><a xlink:title=" ">
<path fill="none" stroke="#63b8ff" d="M515.75,-275.84C552.6,-266.5 610.09,-251.92 648.88,-242.08"/>
<polygon fill="#63b8ff" stroke="#63b8ff" points="649.49,-245.54 658.32,-239.69 647.77,-238.75 649.49,-245.54"/>
</a>
</g>
</g>
<!-- Node27 -->
<g id="Node000027" class="node">
<title>Node27</title>
<g id="a_Node000027"><a xlink:href="fs_2netfs_2src_2debug__printf_8h_source.html" target="_top" xlink:title=" ">
<polygon fill="white" stroke="#666666" points="815.5,-240.25 738.75,-240.25 738.75,-221 815.5,-221 815.5,-240.25"/>
<text text-anchor="middle" x="777.12" y="-226.75" font-family="Helvetica,sans-Serif" font-size="10.00">debug_printf.h</text>
</a>
</g>
</g>
<!-- Node1&#45;&gt;Node27 -->
<g id="edge51_Node000001_Node000027" class="edge">
<title>Node1&#45;&gt;Node27</title>
<g id="a_edge51_Node000001_Node000027"><a xlink:title=" ">
<path fill="none" stroke="#63b8ff" d="M530.68,-275.82C578.63,-267.23 653.01,-253.91 727.38,-240.56"/>
<polygon fill="#63b8ff" stroke="#63b8ff" points="727.64,-244.07 736.86,-238.86 726.4,-237.18 727.64,-244.07"/>
</a>
</g>
</g>
<!-- Node4 -->
<g id="Node000004" class="node">
<title>Node4</title>
<g id="a_Node000004"><a xlink:href="iop_2kernel_2include_2types_8h_source.html" target="_top" xlink:title=" ">
<polygon fill="white" stroke="#666666" points="339.5,-74.5 292.75,-74.5 292.75,-55.25 339.5,-55.25 339.5,-74.5"/>
<text text-anchor="middle" x="316.12" y="-61" font-family="Helvetica,sans-Serif" font-size="10.00">types.h</text>
</a>
</g>
</g>
<!-- Node3&#45;&gt;Node4 -->
<g id="edge3_Node000003_Node000004" class="edge">
<title>Node3&#45;&gt;Node4</title>
<g id="a_edge3_Node000003_Node000004"><a xlink:title=" ">
<path fill="none" stroke="#63b8ff" d="M27.57,-220.67C37.67,-207.2 58.42,-181.6 81.12,-165.75 145.61,-120.75 233.55,-90.16 281.49,-75.62"/>
<polygon fill="#63b8ff" stroke="#63b8ff" points="282.45,-78.98 291.04,-72.78 280.46,-72.27 282.45,-78.98"/>
</a>
</g>
</g>
<!-- Node5 -->
<g id="Node000005" class="node">
<title>Node5</title>
<g id="a_Node000005"><a xlink:title=" ">
<polygon fill="#e0e0e0" stroke="#999999" points="341.38,-19.25 290.88,-19.25 290.88,0 341.38,0 341.38,-19.25"/>
<text text-anchor="middle" x="316.12" y="-5.75" font-family="Helvetica,sans-Serif" font-size="10.00">stddef.h</text>
</a>
</g>
</g>
<!-- Node4&#45;&gt;Node5 -->
<g id="edge4_Node000004_Node000005" class="edge">
<title>Node4&#45;&gt;Node5</title>
<g id="a_edge4_Node000004_Node000005"><a xlink:title=" ">
<path fill="none" stroke="#63b8ff" d="M316.12,-55.08C316.12,-48.57 316.12,-39.42 316.12,-31.12"/>
<polygon fill="#63b8ff" stroke="#63b8ff" points="319.63,-31.12 316.13,-21.12 312.63,-31.12 319.63,-31.12"/>
</a>
</g>
</g>
<!-- Node6 -->
<g id="Node000006" class="node">
<title>Node6</title>
<g id="a_Node000006"><a xlink:href="tamtypes_8h.html" target="_top" xlink:title=" ">
<polygon fill="white" stroke="#666666" points="573.75,-19.25 510.5,-19.25 510.5,0 573.75,0 573.75,-19.25"/>
<text text-anchor="middle" x="542.12" y="-5.75" font-family="Helvetica,sans-Serif" font-size="10.00">tamtypes.h</text>
</a>
</g>
</g>
<!-- Node4&#45;&gt;Node6 -->
<g id="edge5_Node000004_Node000006" class="edge">
<title>Node4&#45;&gt;Node6</title>
<g id="a_edge5_Node000004_Node000006"><a xlink:title=" ">
<path fill="none" stroke="#63b8ff" d="M339.88,-58.28C377.57,-49.4 451.63,-31.95 498.91,-20.81"/>
<polygon fill="#63b8ff" stroke="#63b8ff" points="499.62,-24.24 508.55,-18.54 498.01,-17.42 499.62,-24.24"/>
</a>
</g>
</g>
<!-- Node7&#45;&gt;Node4 -->
<g id="edge7_Node000007_Node000004" class="edge">
<title>Node7&#45;&gt;Node4</title>
<g id="a_edge7_Node000007_Node000004"><a xlink:title=" ">
<path fill="none" stroke="#63b8ff" d="M316.12,-110.33C316.12,-103.82 316.12,-94.67 316.12,-86.37"/>
<polygon fill="#63b8ff" stroke="#63b8ff" points="319.63,-86.37 316.13,-76.37 312.63,-86.37 319.63,-86.37"/>
</a>
</g>
</g>
<!-- Node8&#45;&gt;Node2 -->
<g id="edge9_Node000008_Node000002" class="edge">
<title>Node8&#45;&gt;Node2</title>
<g id="a_edge9_Node000008_Node000002"><a xlink:title=" ">
<path fill="none" stroke="#63b8ff" d="M329.87,-165.34C341.85,-157.46 359.5,-145.86 373.71,-136.52"/>
<polygon fill="#63b8ff" stroke="#63b8ff" points="375.62,-139.45 382.05,-131.03 371.77,-133.6 375.62,-139.45"/>
</a>
</g>
</g>
<!-- Node8&#45;&gt;Node7 -->
<g id="edge10_Node000008_Node000007" class="edge">
<title>Node8&#45;&gt;Node7</title>
<g id="a_edge10_Node000008_Node000007"><a xlink:title=" ">
<path fill="none" stroke="#63b8ff" d="M316.12,-165.58C316.12,-159.07 316.12,-149.92 316.12,-141.62"/>
<polygon fill="#63b8ff" stroke="#63b8ff" points="319.63,-141.62 316.13,-131.62 312.63,-141.62 319.63,-141.62"/>
</a>
</g>
</g>
<!-- Node9&#45;&gt;Node2 -->
<g id="edge12_Node000009_Node000002" class="edge">
<title>Node9&#45;&gt;Node2</title>
<g id="a_edge12_Node000009_Node000002"><a xlink:title=" ">
<path fill="none" stroke="#63b8ff" d="M520.02,-165.34C495.66,-156.58 458.52,-143.21 431.44,-133.47"/>
<polygon fill="#63b8ff" stroke="#63b8ff" points="432.9,-130.28 422.31,-130.19 430.53,-136.86 432.9,-130.28"/>
</a>
</g>
</g>
<!-- Node9&#45;&gt;Node7 -->
<g id="edge13_Node000009_Node000007" class="edge">
<title>Node9&#45;&gt;Node7</title>
<g id="a_edge13_Node000009_Node000007"><a xlink:title=" ">
<path fill="none" stroke="#63b8ff" d="M507.82,-165.7C462.03,-155.05 385.4,-137.23 344.26,-127.67"/>
<polygon fill="#63b8ff" stroke="#63b8ff" points="345.19,-124.29 334.65,-125.43 343.6,-131.11 345.19,-124.29"/>
</a>
</g>
</g>
<!-- Node10 -->
<g id="Node000010" class="node">
<title>Node10</title>
<g id="a_Node000010"><a xlink:href="io__common_8h.html" target="_top" xlink:title=" ">
<polygon fill="white" stroke="#666666" points="512,-129.75 438.25,-129.75 438.25,-110.5 512,-110.5 512,-129.75"/>
<text text-anchor="middle" x="475.12" y="-116.25" font-family="Helvetica,sans-Serif" font-size="10.00">io_common.h</text>
</a>
</g>
</g>
<!-- Node9&#45;&gt;Node10 -->
<g id="edge14_Node000009_Node000010" class="edge">
<title>Node9&#45;&gt;Node10</title>
<g id="a_edge14_Node000009_Node000010"><a xlink:title=" ">
<path fill="none" stroke="#63b8ff" d="M533.25,-165.34C523.03,-157.57 508.05,-146.17 495.86,-136.9"/>
<polygon fill="#63b8ff" stroke="#63b8ff" points="498.11,-134.21 488.03,-130.94 493.87,-139.78 498.11,-134.21"/>
</a>
</g>
</g>
<!-- Node13 -->
<g id="Node000013" class="node">
<title>Node13</title>
<g id="a_Node000013"><a xlink:href="iox__stat_8h.html" target="_top" xlink:title=" ">
<polygon fill="white" stroke="#666666" points="650.75,-129.75 593.5,-129.75 593.5,-110.5 650.75,-110.5 650.75,-129.75"/>
<text text-anchor="middle" x="622.12" y="-116.25" font-family="Helvetica,sans-Serif" font-size="10.00">iox_stat.h</text>
</a>
</g>
</g>
<!-- Node9&#45;&gt;Node13 -->
<g id="edge17_Node000009_Node000013" class="edge">
<title>Node9&#45;&gt;Node13</title>
<g id="a_edge17_Node000009_Node000013"><a xlink:title=" ">
<path fill="none" stroke="#63b8ff" d="M558.19,-165.34C569.58,-157.46 586.35,-145.86 599.86,-136.52"/>
<polygon fill="#63b8ff" stroke="#63b8ff" points="601.52,-139.63 607.75,-131.06 597.54,-133.87 601.52,-139.63"/>
</a>
</g>
</g>
<!-- Node11 -->
<g id="Node000011" class="node">
<title>Node11</title>
<g id="a_Node000011"><a xlink:href="fcntl_8h_source.html" target="_top" xlink:title=" ">
<polygon fill="white" stroke="#666666" points="540.25,-74.5 480,-74.5 480,-55.25 540.25,-55.25 540.25,-74.5"/>
<text text-anchor="middle" x="510.12" y="-61" font-family="Helvetica,sans-Serif" font-size="10.00">sys/fcntl.h</text>
</a>
</g>
</g>
<!-- Node10&#45;&gt;Node11 -->
<g id="edge15_Node000010_Node000011" class="edge">
<title>Node10&#45;&gt;Node11</title>
<g id="a_edge15_Node000010_Node000011"><a xlink:title=" ">
<path fill="none" stroke="#63b8ff" d="M480.9,-110.33C485.54,-103.28 492.2,-93.15 497.99,-84.33"/>
<polygon fill="#63b8ff" stroke="#63b8ff" points="500.82,-86.4 503.39,-76.12 494.97,-82.56 500.82,-86.4"/>
</a>
</g>
</g>
<!-- Node12 -->
<g id="Node000012" class="node">
<title>Node12</title>
<g id="a_Node000012"><a xlink:href="unistd_8h_source.html" target="_top" xlink:title=" ">
<polygon fill="white" stroke="#666666" points="462,-74.5 394.25,-74.5 394.25,-55.25 462,-55.25 462,-74.5"/>
<text text-anchor="middle" x="428.12" y="-61" font-family="Helvetica,sans-Serif" font-size="10.00">sys/unistd.h</text>
</a>
</g>
</g>
<!-- Node10&#45;&gt;Node12 -->
<g id="edge16_Node000010_Node000012" class="edge">
<title>Node10&#45;&gt;Node12</title>
<g id="a_edge16_Node000010_Node000012"><a xlink:title=" ">
<path fill="none" stroke="#63b8ff" d="M467.36,-110.33C460.94,-103.05 451.61,-92.48 443.66,-83.48"/>
<polygon fill="#63b8ff" stroke="#63b8ff" points="446.3,-81.18 437.06,-75.99 441.05,-85.81 446.3,-81.18"/>
</a>
</g>
</g>
<!-- Node14 -->
<g id="Node000014" class="node">
<title>Node14</title>
<g id="a_Node000014"><a xlink:href="time_8h.html" target="_top" xlink:title=" ">
<polygon fill="white" stroke="#666666" points="652.25,-74.5 592,-74.5 592,-55.25 652.25,-55.25 652.25,-74.5"/>
<text text-anchor="middle" x="622.12" y="-61" font-family="Helvetica,sans-Serif" font-size="10.00">sys/time.h</text>
</a>
</g>
</g>
<!-- Node13&#45;&gt;Node14 -->
<g id="edge18_Node000013_Node000014" class="edge">
<title>Node13&#45;&gt;Node14</title>
<g id="a_edge18_Node000013_Node000014"><a xlink:title=" ">
<path fill="none" stroke="#63b8ff" d="M622.12,-110.33C622.12,-103.82 622.12,-94.67 622.12,-86.37"/>
<polygon fill="#63b8ff" stroke="#63b8ff" points="625.63,-86.37 622.13,-76.37 618.63,-86.37 625.63,-86.37"/>
</a>
</g>
</g>
<!-- Node15&#45;&gt;Node2 -->
<g id="edge20_Node000015_Node000002" class="edge">
<title>Node15&#45;&gt;Node2</title>
<g id="a_edge20_Node000015_Node000002"><a xlink:title=" ">
<path fill="none" stroke="#63b8ff" d="M662.53,-167.68C659.36,-167 656.18,-166.34 653.12,-165.75 557.61,-147.25 529.66,-150.62 431.81,-130.14"/>
<polygon fill="#63b8ff" stroke="#63b8ff" points="432.81,-126.78 422.3,-128.12 431.36,-133.63 432.81,-126.78"/>
</a>
</g>
</g>
<!-- Node15&#45;&gt;Node10 -->
<g id="edge23_Node000015_Node000010" class="edge">
<title>Node15&#45;&gt;Node10</title>
<g id="a_edge23_Node000015_Node000010"><a xlink:title=" ">
<path fill="none" stroke="#63b8ff" d="M662.44,-167.3C626.84,-158.53 565.59,-143.43 522.86,-132.89"/>
<polygon fill="#63b8ff" stroke="#63b8ff" points="523.9,-129.54 513.35,-130.55 522.22,-136.34 523.9,-129.54"/>
</a>
</g>
</g>
<!-- Node15&#45;&gt;Node13 -->
<g id="edge24_Node000015_Node000013" class="edge">
<title>Node15&#45;&gt;Node13</title>
<g id="a_edge24_Node000015_Node000013"><a xlink:title=" ">
<path fill="none" stroke="#63b8ff" d="M679.42,-165.34C669.35,-157.57 654.58,-146.17 642.56,-136.9"/>
<polygon fill="#63b8ff" stroke="#63b8ff" points="644.91,-134.29 634.86,-130.95 640.63,-139.83 644.91,-134.29"/>
</a>
</g>
</g>
<!-- Node16 -->
<g id="Node000016" class="node">
<title>Node16</title>
<g id="a_Node000016"><a xlink:href="errno_8h.html" target="_top" xlink:title=" ">
<polygon fill="white" stroke="#666666" points="575.75,-129.75 530.5,-129.75 530.5,-110.5 575.75,-110.5 575.75,-129.75"/>
<text text-anchor="middle" x="553.12" y="-116.25" font-family="Helvetica,sans-Serif" font-size="10.00">errno.h</text>
</a>
</g>
</g>
<!-- Node15&#45;&gt;Node16 -->
<g id="edge21_Node000015_Node000016" class="edge">
<title>Node15&#45;&gt;Node16</title>
<g id="a_edge21_Node000015_Node000016"><a xlink:title=" ">
<path fill="none" stroke="#63b8ff" d="M667.72,-165.34C645.48,-156.76 611.8,-143.77 586.7,-134.08"/>
<polygon fill="#63b8ff" stroke="#63b8ff" points="588.19,-130.9 577.6,-130.57 585.67,-137.43 588.19,-130.9"/>
</a>
</g>
</g>
<!-- Node17 -->
<g id="Node000017" class="node">
<title>Node17</title>
<g id="a_Node000017"><a xlink:title=" ">
<polygon fill="#e0e0e0" stroke="#999999" points="719.38,-129.75 668.88,-129.75 668.88,-110.5 719.38,-110.5 719.38,-129.75"/>
<text text-anchor="middle" x="694.12" y="-116.25" font-family="Helvetica,sans-Serif" font-size="10.00">stdarg.h</text>
</a>
</g>
</g>
<!-- Node15&#45;&gt;Node17 -->
<g id="edge22_Node000015_Node000017" class="edge">
<title>Node15&#45;&gt;Node17</title>
<g id="a_edge22_Node000015_Node000017"><a xlink:title=" ">
<path fill="none" stroke="#63b8ff" d="M691.62,-165.58C691.99,-158.99 692.51,-149.71 692.99,-141.32"/>
<polygon fill="#63b8ff" stroke="#63b8ff" points="696.47,-141.8 693.53,-131.62 689.48,-141.41 696.47,-141.8"/>
</a>
</g>
</g>
<!-- Node18&#45;&gt;Node2 -->
<g id="edge26_Node000018_Node000002" class="edge">
<title>Node18&#45;&gt;Node2</title>
<g id="a_edge26_Node000018_Node000002"><a xlink:title=" ">
<path fill="none" stroke="#63b8ff" d="M150.83,-167.82C153.96,-167.1 157.11,-166.39 160.12,-165.75 231.69,-150.45 316.01,-135.24 362.31,-127.13"/>
<polygon fill="#63b8ff" stroke="#63b8ff" points="362.76,-130.6 372.01,-125.44 361.56,-123.71 362.76,-130.6"/>
</a>
</g>
</g>
<!-- Node18&#45;&gt;Node7 -->
<g id="edge27_Node000018_Node000007" class="edge">
<title>Node18&#45;&gt;Node7</title>
<g id="a_edge27_Node000018_Node000007"><a xlink:title=" ">
<path fill="none" stroke="#63b8ff" d="M150.82,-166.97C186.99,-156.94 251.26,-139.11 288.1,-128.9"/>
<polygon fill="#63b8ff" stroke="#63b8ff" points="288.87,-132.32 297.57,-126.27 287,-125.57 288.87,-132.32"/>
</a>
</g>
</g>
<!-- Node19&#45;&gt;Node2 -->
<g id="edge29_Node000019_Node000002" class="edge">
<title>Node19&#45;&gt;Node2</title>
<g id="a_edge29_Node000019_Node000002"><a xlink:title=" ">
<path fill="none" stroke="#63b8ff" d="M230.06,-166.05C266.04,-156.38 325.26,-140.45 362.67,-130.39"/>
<polygon fill="#63b8ff" stroke="#63b8ff" points="363.33,-133.84 372.07,-127.86 361.51,-127.08 363.33,-133.84"/>
</a>
</g>
</g>
<!-- Node19&#45;&gt;Node7 -->
<g id="edge30_Node000019_Node000007" class="edge">
<title>Node19&#45;&gt;Node7</title>
<g id="a_edge30_Node000019_Node000007"><a xlink:title=" ">
<path fill="none" stroke="#63b8ff" d="M218.97,-165.34C238.18,-156.6 267.46,-143.28 288.85,-133.54"/>
<polygon fill="#63b8ff" stroke="#63b8ff" points="290.19,-136.77 297.85,-129.44 287.29,-130.4 290.19,-136.77"/>
</a>
</g>
</g>
<!-- Node20&#45;&gt;Node7 -->
<g id="edge33_Node000020_Node000007" class="edge">
<title>Node20&#45;&gt;Node7</title>
<g id="a_edge33_Node000020_Node000007"><a xlink:title=" ">
<path fill="none" stroke="#63b8ff" d="M599.51,-167.76C596.7,-167.04 593.85,-166.35 591.12,-165.75 491.75,-144.08 465.44,-146.57 365.12,-129.75 358.33,-128.61 351.02,-127.35 344.17,-126.14"/>
<polygon fill="#63b8ff" stroke="#63b8ff" points="344.84,-122.71 334.39,-124.41 343.62,-129.6 344.84,-122.71"/>
</a>
</g>
</g>
<!-- Node20&#45;&gt;Node17 -->
<g id="edge32_Node000020_Node000017" class="edge">
<title>Node20&#45;&gt;Node17</title>
<g id="a_edge32_Node000020_Node000017"><a xlink:title=" ">
<path fill="none" stroke="#63b8ff" d="M634.34,-165.34C644.95,-157.49 660.56,-145.95 673.17,-136.62"/>
<polygon fill="#63b8ff" stroke="#63b8ff" points="674.92,-139.69 680.87,-130.92 670.75,-134.06 674.92,-139.69"/>
</a>
</g>
</g>
<!-- Node21&#45;&gt;Node2 -->
<g id="edge35_Node000021_Node000002" class="edge">
<title>Node21&#45;&gt;Node2</title>
<g id="a_edge35_Node000021_Node000002"><a xlink:title=" ">
<path fill="none" stroke="#63b8ff" d="M737.07,-167.54C734.06,-166.88 731.03,-166.27 728.12,-165.75 599.98,-142.76 562.56,-154.54 432.03,-130.06"/>
<polygon fill="#63b8ff" stroke="#63b8ff" points="432.77,-126.64 422.29,-128.2 431.45,-133.52 432.77,-126.64"/>
</a>
</g>
</g>
<!-- Node21&#45;&gt;Node7 -->
<g id="edge36_Node000021_Node000007" class="edge">
<title>Node21&#45;&gt;Node7</title>
<g id="a_edge36_Node000021_Node000007"><a xlink:title=" ">
<path fill="none" stroke="#63b8ff" d="M737.08,-167.48C734.07,-166.83 731.04,-166.24 728.12,-165.75 568.26,-138.8 525.74,-151.82 365.12,-129.75 358.3,-128.81 350.98,-127.62 344.12,-126.43"/>
<polygon fill="#63b8ff" stroke="#63b8ff" points="344.81,-123 334.35,-124.66 343.57,-129.88 344.81,-123"/>
</a>
</g>
</g>
<!-- Node21&#45;&gt;Node17 -->
<g id="edge37_Node000021_Node000017" class="edge">
<title>Node21&#45;&gt;Node17</title>
<g id="a_edge37_Node000021_Node000017"><a xlink:title=" ">
<path fill="none" stroke="#63b8ff" d="M752.25,-165.34C742.03,-157.57 727.05,-146.17 714.86,-136.9"/>
<polygon fill="#63b8ff" stroke="#63b8ff" points="717.11,-134.21 707.03,-130.94 712.87,-139.78 717.11,-134.21"/>
</a>
</g>
</g>
<!-- Node22 -->
<g id="Node000022" class="node">
<title>Node22</title>
<g id="a_Node000022"><a xlink:href="setjmp_8h.html" target="_top" xlink:title=" ">
<polygon fill="white" stroke="#666666" points="780.5,-74.5 727.75,-74.5 727.75,-55.25 780.5,-55.25 780.5,-74.5"/>
<text text-anchor="middle" x="754.12" y="-61" font-family="Helvetica,sans-Serif" font-size="10.00">setjmp.h</text>
</a>
</g>
</g>
<!-- Node21&#45;&gt;Node22 -->
<g id="edge38_Node000021_Node000022" class="edge">
<title>Node21&#45;&gt;Node22</title>
<g id="a_edge38_Node000021_Node000022"><a xlink:title=" ">
<path fill="none" stroke="#63b8ff" d="M773.06,-165.44C784.13,-153.23 800.66,-130.57 793.12,-110.5 789.09,-99.75 781.16,-89.89 773.5,-82.19"/>
<polygon fill="#63b8ff" stroke="#63b8ff" points="776.3,-80.01 766.59,-75.77 771.53,-85.14 776.3,-80.01"/>
</a>
</g>
</g>
<!-- Node23 -->
<g id="Node000023" class="node">
<title>Node23</title>
<g id="a_Node000023"><a xlink:href="ctype_8h.html" target="_top" xlink:title=" ">
<polygon fill="white" stroke="#666666" points="784.5,-129.75 737.75,-129.75 737.75,-110.5 784.5,-110.5 784.5,-129.75"/>
<text text-anchor="middle" x="761.12" y="-116.25" font-family="Helvetica,sans-Serif" font-size="10.00">ctype.h</text>
</a>
</g>
</g>
<!-- Node21&#45;&gt;Node23 -->
<g id="edge40_Node000021_Node000023" class="edge">
<title>Node21&#45;&gt;Node23</title>
<g id="a_edge40_Node000021_Node000023"><a xlink:title=" ">
<path fill="none" stroke="#63b8ff" d="M763.63,-165.58C763.26,-158.99 762.74,-149.71 762.26,-141.32"/>
<polygon fill="#63b8ff" stroke="#63b8ff" points="765.77,-141.41 761.72,-131.62 758.78,-141.8 765.77,-141.41"/>
</a>
</g>
</g>
<!-- Node22&#45;&gt;Node6 -->
<g id="edge39_Node000022_Node000006" class="edge">
<title>Node22&#45;&gt;Node6</title>
<g id="a_edge39_Node000022_Node000006"><a xlink:title=" ">
<path fill="none" stroke="#63b8ff" d="M727.28,-57.13C691.45,-48.13 627.61,-32.1 585.06,-21.41"/>
<polygon fill="#63b8ff" stroke="#63b8ff" points="585.95,-18.02 575.4,-18.98 584.25,-24.81 585.95,-18.02"/>
</a>
</g>
</g>
<!-- Node24&#45;&gt;Node2 -->
<g id="edge42_Node000024_Node000002" class="edge">
<title>Node24&#45;&gt;Node2</title>
<g id="a_edge42_Node000024_Node000002"><a xlink:title=" ">
<path fill="none" stroke="#63b8ff" d="M376.01,-220.75C379.66,-203.5 387.81,-165.08 392.85,-141.31"/>
<polygon fill="#63b8ff" stroke="#63b8ff" points="396.25,-142.12 394.9,-131.61 389.41,-140.66 396.25,-142.12"/>
</a>
</g>
</g>
<!-- Node24&#45;&gt;Node7 -->
<g id="edge43_Node000024_Node000007" class="edge">
<title>Node24&#45;&gt;Node7</title>
<g id="a_edge43_Node000024_Node000007"><a xlink:title=" ">
<path fill="none" stroke="#63b8ff" d="M347.53,-225.46C324.5,-220.3 292.53,-209.04 277.12,-185 266.85,-168.96 281.13,-150.35 295.21,-137.37"/>
<polygon fill="#63b8ff" stroke="#63b8ff" points="297.25,-140.23 302.58,-131.07 292.7,-134.91 297.25,-140.23"/>
</a>
</g>
</g>
<!-- Node24&#45;&gt;Node8 -->
<g id="edge49_Node000024_Node000008" class="edge">
<title>Node24&#45;&gt;Node8</title>
<g id="a_edge49_Node000024_Node000008"><a xlink:title=" ">
<path fill="none" stroke="#63b8ff" d="M364.29,-220.59C356.07,-213.05 344.14,-202.1 334.21,-192.98"/>
<polygon fill="#63b8ff" stroke="#63b8ff" points="336.67,-190.48 326.93,-186.3 331.93,-195.64 336.67,-190.48"/>
</a>
</g>
</g>
<!-- Node25 -->
<g id="Node000025" class="node">
<title>Node25</title>
<g id="a_Node000025"><a xlink:href="ioman_8h.html" target="_top" xlink:title=" ">
<polygon fill="white" stroke="#666666" points="452,-185 402.25,-185 402.25,-165.75 452,-165.75 452,-185"/>
<text text-anchor="middle" x="427.12" y="-171.5" font-family="Helvetica,sans-Serif" font-size="10.00">ioman.h</text>
</a>
</g>
</g>
<!-- Node24&#45;&gt;Node25 -->
<g id="edge44_Node000024_Node000025" class="edge">
<title>Node24&#45;&gt;Node25</title>
<g id="a_edge44_Node000024_Node000025"><a xlink:title=" ">
<path fill="none" stroke="#63b8ff" d="M382.88,-220.83C390.27,-213.4 401.09,-202.54 410.17,-193.41"/>
<polygon fill="#63b8ff" stroke="#63b8ff" points="412.54,-195.99 417.12,-186.43 407.58,-191.05 412.54,-195.99"/>
</a>
</g>
</g>
<!-- Node25&#45;&gt;Node2 -->
<g id="edge46_Node000025_Node000002" class="edge">
<title>Node25&#45;&gt;Node2</title>
<g id="a_edge46_Node000025_Node000002"><a xlink:title=" ">
<path fill="none" stroke="#63b8ff" d="M422.17,-165.58C418.24,-158.61 412.61,-148.62 407.69,-139.87"/>
<polygon fill="#63b8ff" stroke="#63b8ff" points="410.89,-138.42 402.93,-131.43 404.79,-141.86 410.89,-138.42"/>
</a>
</g>
</g>
<!-- Node25&#45;&gt;Node7 -->
<g id="edge47_Node000025_Node000007" class="edge">
<title>Node25&#45;&gt;Node7</title>
<g id="a_edge47_Node000025_Node000007"><a xlink:title=" ">
<path fill="none" stroke="#63b8ff" d="M408.3,-165.34C390.47,-156.79 363.51,-143.86 343.34,-134.18"/>
<polygon fill="#63b8ff" stroke="#63b8ff" points="345.12,-131.15 334.59,-129.98 342.09,-137.46 345.12,-131.15"/>
</a>
</g>
</g>
<!-- Node25&#45;&gt;Node10 -->
<g id="edge48_Node000025_Node000010" class="edge">
<title>Node25&#45;&gt;Node10</title>
<g id="a_edge48_Node000025_Node000010"><a xlink:title=" ">
<path fill="none" stroke="#63b8ff" d="M435.05,-165.58C441.68,-158.23 451.34,-147.51 459.51,-138.44"/>
<polygon fill="#63b8ff" stroke="#63b8ff" points="461.92,-141 466.01,-131.23 456.72,-136.32 461.92,-141"/>
</a>
</g>
</g>
<!-- Node25&#45;&gt;Node16 -->
<g id="edge45_Node000025_Node000016" class="edge">
<title>Node25&#45;&gt;Node16</title>
<g id="a_edge45_Node000025_Node000016"><a xlink:title=" ">
<path fill="none" stroke="#63b8ff" d="M448.5,-165.34C468.41,-156.93 498.36,-144.27 521.13,-134.65"/>
<polygon fill="#63b8ff" stroke="#63b8ff" points="522.4,-137.91 530.25,-130.79 519.68,-131.46 522.4,-137.91"/>
</a>
</g>
</g>
</g>
</svg>
