<?xml version="1.0" encoding="UTF-8" standalone="no"?>
<!DOCTYPE svg PUBLIC "-//W3C//DTD SVG 1.1//EN"
 "http://www.w3.org/Graphics/SVG/1.1/DTD/svg11.dtd">
<!-- Generated by graphviz version 12.2.0 (20241103.1931)
 -->
<!-- Title: iop/dev9 Pages: 1 -->
<svg width="437pt" height="197pt"
 viewBox="0.00 0.00 437.04 197.00" xmlns="http://www.w3.org/2000/svg" xmlns:xlink="http://www.w3.org/1999/xlink">

<svg id="main" version="1.1" xmlns="http://www.w3.org/2000/svg" xmlns:xlink="http://www.w3.org/1999/xlink" xml:space="preserve">

<style type="text/css"><![CDATA[
.node, .edge {opacity: 0.7;}
.node.selected, .edge.selected {opacity: 1;}
.edge:hover path { stroke: red; }
.edge:hover polygon { stroke: red; fill: red; }
]]></style>
<script type="application/ecmascript" xlink:href="svg.min.js"/>
<svg id="graph" class="graph">
<g id="graph0" class="graph" transform="scale(1 1) rotate(0) translate(4 193)">
<title>iop/dev9</title>
<g id="clust1" class="cluster">
<title>clusterdir_0981ace215aa2029f526b70c145b9fbe</title>
<g id="a_clust1"><a xlink:href="dir_0981ace215aa2029f526b70c145b9fbe.html" target="_top" xlink:title="iop">
<polygon fill="#deebf9" stroke="#404040" stroke-dasharray="5,2" points="8,-8 8,-181 359,-181 359,-8 8,-8"/>
<text text-anchor="middle" x="183.5" y="-167.5" font-family="Helvetica,sans-Serif" font-size="10.00">iop</text>
</a>
</g>
</g>
<g id="clust2" class="cluster">
<title>clusterdir_6f16cad81de2453a6f48c5e272ba4a18</title>
<g id="a_clust2"><a xlink:href="dir_6f16cad81de2453a6f48c5e272ba4a18.html" target="_top">
<polygon fill="#deebf9" stroke="#404040" stroke-width="2" points="16,-63.25 16,-153.75 351,-153.75 351,-63.25 16,-63.25"/>
</a>
</g>
</g>
<!-- dir_9be0baa3d4a3e9f480a9ee70594037fa -->
<g id="node1" class="node">
<title>dir_9be0baa3d4a3e9f480a9ee70594037fa</title>
<g id="a_node1"><a xlink:href="dir_9be0baa3d4a3e9f480a9ee70594037fa.html" target="_top" xlink:title="kernel">
<polygon fill="#60a2e3" stroke="red" points="209.12,-35.25 166.88,-35.25 166.88,-16 209.12,-16 209.12,-35.25"/>
<text text-anchor="middle" x="188" y="-21.75" font-family="Helvetica,sans-Serif" font-size="10.00">kernel</text>
</a>
</g>
</g>
<!-- dir_6f16cad81de2453a6f48c5e272ba4a18 -->
<g id="node2" class="node">
<title>dir_6f16cad81de2453a6f48c5e272ba4a18</title>
<text text-anchor="middle" x="43" y="-132.25" font-family="Helvetica,sans-Serif" font-size="10.00">dev9</text>
</g>
<!-- dir_c9fad5ea75093c7356ef5f2b903232b1 -->
<g id="node3" class="node">
<title>dir_c9fad5ea75093c7356ef5f2b903232b1</title>
<g id="a_node3"><a xlink:href="dir_c9fad5ea75093c7356ef5f2b903232b1.html" target="_top" xlink:title="atad">
<polygon fill="#60a2e3" stroke="#404040" points="307.38,-90.5 272.62,-90.5 272.62,-71.25 307.38,-71.25 307.38,-90.5"/>
<text text-anchor="middle" x="290" y="-77" font-family="Helvetica,sans-Serif" font-size="10.00">atad</text>
</a>
</g>
</g>
<!-- dir_c9fad5ea75093c7356ef5f2b903232b1&#45;&gt;dir_9be0baa3d4a3e9f480a9ee70594037fa -->
<g id="edge1" class="edge">
<title>dir_c9fad5ea75093c7356ef5f2b903232b1&#45;&gt;dir_9be0baa3d4a3e9f480a9ee70594037fa</title>
<g id="a_edge1"><a xlink:href="dir_000029_000212.html" target="_top">
<path fill="none" stroke="#63b8ff" d="M276.42,-70.76C272.48,-68.23 268.12,-65.55 264,-63.25 249.32,-55.06 232.53,-46.85 218.48,-40.29"/>
<polygon fill="#63b8ff" stroke="#63b8ff" points="220.26,-37.26 209.71,-36.25 217.33,-43.62 220.26,-37.26"/>
</a>
</g>
<g id="a_edge1&#45;headlabel"><a xlink:href="dir_000029_000212.html" target="_top" xlink:title="14">
<text text-anchor="middle" x="223.34" y="-31.68" font-family="Helvetica,sans-Serif" font-size="10.00" fill="#63b8ff">14</text>
</a>
</g>
</g>
<!-- dir_bdd9a5d540de89e9fe90efdfc6973a4f -->
<g id="node9" class="node">
<title>dir_bdd9a5d540de89e9fe90efdfc6973a4f</title>
<g id="a_node9"><a xlink:href="dir_bdd9a5d540de89e9fe90efdfc6973a4f.html" target="_top" xlink:title="common">
<polygon fill="#deebf9" stroke="red" points="420.75,-35.25 367.25,-35.25 367.25,-16 420.75,-16 420.75,-35.25"/>
<text text-anchor="middle" x="394" y="-21.75" font-family="Helvetica,sans-Serif" font-size="10.00">common</text>
</a>
</g>
</g>
<!-- dir_c9fad5ea75093c7356ef5f2b903232b1&#45;&gt;dir_bdd9a5d540de89e9fe90efdfc6973a4f -->
<g id="edge2" class="edge">
<title>dir_c9fad5ea75093c7356ef5f2b903232b1&#45;&gt;dir_bdd9a5d540de89e9fe90efdfc6973a4f</title>
<g id="a_edge2"><a xlink:href="dir_000029_000042.html" target="_top">
<path fill="none" stroke="#63b8ff" d="M306.69,-70.82C311.31,-68.34 316.34,-65.67 321,-63.25 335.6,-55.68 351.95,-47.45 365.48,-40.71"/>
<polygon fill="#63b8ff" stroke="#63b8ff" points="366.87,-43.92 374.27,-36.34 363.76,-37.65 366.87,-43.92"/>
</a>
</g>
<g id="a_edge2&#45;headlabel"><a xlink:href="dir_000029_000042.html" target="_top" xlink:title="1">
<text text-anchor="middle" x="366.27" y="-43.52" font-family="Helvetica,sans-Serif" font-size="10.00" fill="#63b8ff">1</text>
</a>
</g>
</g>
<!-- dir_18566863331aaba44604539ca78be099 -->
<g id="node4" class="node">
<title>dir_18566863331aaba44604539ca78be099</title>
<g id="a_node4"><a xlink:href="dir_18566863331aaba44604539ca78be099.html" target="_top" xlink:title="dev9">
<polygon fill="#60a2e3" stroke="#404040" points="254.5,-90.5 217.5,-90.5 217.5,-71.25 254.5,-71.25 254.5,-90.5"/>
<text text-anchor="middle" x="236" y="-77" font-family="Helvetica,sans-Serif" font-size="10.00">dev9</text>
</a>
</g>
</g>
<!-- dir_18566863331aaba44604539ca78be099&#45;&gt;dir_9be0baa3d4a3e9f480a9ee70594037fa -->
<g id="edge3" class="edge">
<title>dir_18566863331aaba44604539ca78be099&#45;&gt;dir_9be0baa3d4a3e9f480a9ee70594037fa</title>
<g id="a_edge3"><a xlink:href="dir_000047_000212.html" target="_top">
<path fill="none" stroke="#63b8ff" d="M228.07,-71.08C221.44,-63.73 211.78,-53.01 203.61,-43.94"/>
<polygon fill="#63b8ff" stroke="#63b8ff" points="206.41,-41.82 197.11,-36.73 201.21,-46.5 206.41,-41.82"/>
</a>
</g>
<g id="a_edge3&#45;headlabel"><a xlink:href="dir_000047_000212.html" target="_top" xlink:title="20">
<text text-anchor="middle" x="209.91" y="-37.59" font-family="Helvetica,sans-Serif" font-size="10.00" fill="#63b8ff">20</text>
</a>
</g>
</g>
<!-- dir_18566863331aaba44604539ca78be099&#45;&gt;dir_bdd9a5d540de89e9fe90efdfc6973a4f -->
<g id="edge4" class="edge">
<title>dir_18566863331aaba44604539ca78be099&#45;&gt;dir_bdd9a5d540de89e9fe90efdfc6973a4f</title>
<g id="a_edge4"><a xlink:href="dir_000047_000042.html" target="_top">
<path fill="none" stroke="#63b8ff" d="M249.58,-70.85C254.04,-68.14 259.12,-65.34 264,-63.25 266.2,-62.31 318.54,-47.65 356.12,-37.17"/>
<polygon fill="#63b8ff" stroke="#63b8ff" points="356.61,-40.67 365.3,-34.61 354.73,-33.92 356.61,-40.67"/>
</a>
</g>
<g id="a_edge4&#45;headlabel"><a xlink:href="dir_000047_000042.html" target="_top" xlink:title="6">
<text text-anchor="middle" x="355.37" y="-40.09" font-family="Helvetica,sans-Serif" font-size="10.00" fill="#63b8ff">6</text>
</a>
</g>
</g>
<!-- dir_f44f46f2cd21d59a913dd7de442a4869 -->
<g id="node5" class="node">
<title>dir_f44f46f2cd21d59a913dd7de442a4869</title>
<g id="a_node5"><a xlink:href="dir_f44f46f2cd21d59a913dd7de442a4869.html" target="_top" xlink:title="extflash">
<polygon fill="#60a2e3" stroke="#404040" points="260.5,-145.75 211.5,-145.75 211.5,-126.5 260.5,-126.5 260.5,-145.75"/>
<text text-anchor="middle" x="236" y="-132.25" font-family="Helvetica,sans-Serif" font-size="10.00">extflash</text>
</a>
</g>
</g>
<!-- dir_f44f46f2cd21d59a913dd7de442a4869&#45;&gt;dir_9be0baa3d4a3e9f480a9ee70594037fa -->
<g id="edge5" class="edge">
<title>dir_f44f46f2cd21d59a913dd7de442a4869&#45;&gt;dir_9be0baa3d4a3e9f480a9ee70594037fa</title>
<g id="a_edge5"><a xlink:href="dir_000067_000212.html" target="_top">
<path fill="none" stroke="#63b8ff" d="M223.39,-126.08C213.24,-118.01 199.62,-105.22 193,-90.5 186.84,-76.8 185.79,-59.79 186.17,-46.77"/>
<polygon fill="#63b8ff" stroke="#63b8ff" points="189.66,-47.05 186.79,-36.85 182.67,-46.61 189.66,-47.05"/>
</a>
</g>
<g id="a_edge5&#45;headlabel"><a xlink:href="dir_000067_000212.html" target="_top" xlink:title="19">
<text text-anchor="middle" x="192.36" y="-45.43" font-family="Helvetica,sans-Serif" font-size="10.00" fill="#63b8ff">19</text>
</a>
</g>
</g>
<!-- dir_f44f46f2cd21d59a913dd7de442a4869&#45;&gt;dir_18566863331aaba44604539ca78be099 -->
<g id="edge7" class="edge">
<title>dir_f44f46f2cd21d59a913dd7de442a4869&#45;&gt;dir_18566863331aaba44604539ca78be099</title>
<g id="a_edge7"><a xlink:href="dir_000067_000047.html" target="_top">
<path fill="none" stroke="#63b8ff" d="M236,-126.33C236,-119.82 236,-110.67 236,-102.37"/>
<polygon fill="#63b8ff" stroke="#63b8ff" points="239.5,-102.37 236,-92.37 232.5,-102.37 239.5,-102.37"/>
</a>
</g>
<g id="a_edge7&#45;headlabel"><a xlink:href="dir_000067_000047.html" target="_top" xlink:title="1">
<text text-anchor="middle" x="242.34" y="-100.58" font-family="Helvetica,sans-Serif" font-size="10.00" fill="#63b8ff">1</text>
</a>
</g>
</g>
<!-- dir_f44f46f2cd21d59a913dd7de442a4869&#45;&gt;dir_bdd9a5d540de89e9fe90efdfc6973a4f -->
<g id="edge6" class="edge">
<title>dir_f44f46f2cd21d59a913dd7de442a4869&#45;&gt;dir_bdd9a5d540de89e9fe90efdfc6973a4f</title>
<g id="a_edge6"><a xlink:href="dir_000067_000042.html" target="_top">
<path fill="none" stroke="#63b8ff" d="M260.76,-128.57C302.53,-117.42 382.86,-95.45 387,-90.5 396.97,-78.57 398.16,-60.71 397.18,-46.9"/>
<polygon fill="#63b8ff" stroke="#63b8ff" points="400.67,-46.67 396.03,-37.15 393.72,-47.49 400.67,-46.67"/>
</a>
</g>
<g id="a_edge6&#45;headlabel"><a xlink:href="dir_000067_000042.html" target="_top" xlink:title="2">
<text text-anchor="middle" x="403.74" y="-44.53" font-family="Helvetica,sans-Serif" font-size="10.00" fill="#63b8ff">2</text>
</a>
</g>
</g>
<!-- dir_7e10c943c08a69732df0d9710348ffa0 -->
<g id="node6" class="node">
<title>dir_7e10c943c08a69732df0d9710348ffa0</title>
<g id="a_node6"><a xlink:href="dir_7e10c943c08a69732df0d9710348ffa0.html" target="_top" xlink:title="hdpro_atad">
<polygon fill="#60a2e3" stroke="#404040" points="343,-145.75 279,-145.75 279,-126.5 343,-126.5 343,-145.75"/>
<text text-anchor="middle" x="311" y="-132.25" font-family="Helvetica,sans-Serif" font-size="10.00">hdpro_atad</text>
</a>
</g>
</g>
<!-- dir_7e10c943c08a69732df0d9710348ffa0&#45;&gt;dir_9be0baa3d4a3e9f480a9ee70594037fa -->
<g id="edge8" class="edge">
<title>dir_7e10c943c08a69732df0d9710348ffa0&#45;&gt;dir_9be0baa3d4a3e9f480a9ee70594037fa</title>
<g id="a_edge8"><a xlink:href="dir_000082_000212.html" target="_top">
<path fill="none" stroke="#63b8ff" d="M278.84,-128.41C256.42,-122.15 227.34,-110.66 209,-90.5 198.06,-78.47 192.8,-60.61 190.29,-46.83"/>
<polygon fill="#63b8ff" stroke="#63b8ff" points="193.78,-46.5 188.88,-37.11 186.85,-47.51 193.78,-46.5"/>
</a>
</g>
<g id="a_edge8&#45;headlabel"><a xlink:href="dir_000082_000212.html" target="_top" xlink:title="15">
<text text-anchor="middle" x="196.89" y="-44.28" font-family="Helvetica,sans-Serif" font-size="10.00" fill="#63b8ff">15</text>
</a>
</g>
</g>
<!-- dir_7e10c943c08a69732df0d9710348ffa0&#45;&gt;dir_c9fad5ea75093c7356ef5f2b903232b1 -->
<g id="edge9" class="edge">
<title>dir_7e10c943c08a69732df0d9710348ffa0&#45;&gt;dir_c9fad5ea75093c7356ef5f2b903232b1</title>
<g id="a_edge9"><a xlink:href="dir_000082_000029.html" target="_top">
<path fill="none" stroke="#63b8ff" d="M307.53,-126.33C304.87,-119.59 301.1,-110.02 297.74,-101.49"/>
<polygon fill="#63b8ff" stroke="#63b8ff" points="301.02,-100.29 294.1,-92.27 294.51,-102.85 301.02,-100.29"/>
</a>
</g>
<g id="a_edge9&#45;headlabel"><a xlink:href="dir_000082_000029.html" target="_top" xlink:title="1">
<text text-anchor="middle" x="304.43" y="-97.31" font-family="Helvetica,sans-Serif" font-size="10.00" fill="#63b8ff">1</text>
</a>
</g>
</g>
<!-- dir_7e10c943c08a69732df0d9710348ffa0&#45;&gt;dir_bdd9a5d540de89e9fe90efdfc6973a4f -->
<g id="edge10" class="edge">
<title>dir_7e10c943c08a69732df0d9710348ffa0&#45;&gt;dir_bdd9a5d540de89e9fe90efdfc6973a4f</title>
<g id="a_edge10"><a xlink:href="dir_000082_000042.html" target="_top">
<path fill="none" stroke="#63b8ff" d="M343.41,-132.18C370.26,-127.84 406.85,-117.1 425,-90.5 435.16,-75.61 423.6,-56.89 411.81,-43.57"/>
<polygon fill="#63b8ff" stroke="#63b8ff" points="414.39,-41.2 404.93,-36.42 409.34,-46.05 414.39,-41.2"/>
</a>
</g>
<g id="a_edge10&#45;headlabel"><a xlink:href="dir_000082_000042.html" target="_top" xlink:title="1">
<text text-anchor="middle" x="417.87" y="-36.85" font-family="Helvetica,sans-Serif" font-size="10.00" fill="#63b8ff">1</text>
</a>
</g>
</g>
<!-- dir_6c63d3a31e7cac2d832eb76295920122 -->
<g id="node7" class="node">
<title>dir_6c63d3a31e7cac2d832eb76295920122</title>
<g id="a_node7"><a xlink:href="dir_6c63d3a31e7cac2d832eb76295920122.html" target="_top" xlink:title="poweroff">
<polygon fill="#60a2e3" stroke="#404040" points="132.38,-145.75 79.62,-145.75 79.62,-126.5 132.38,-126.5 132.38,-145.75"/>
<text text-anchor="middle" x="106" y="-132.25" font-family="Helvetica,sans-Serif" font-size="10.00">poweroff</text>
</a>
</g>
</g>
<!-- dir_6c63d3a31e7cac2d832eb76295920122&#45;&gt;dir_9be0baa3d4a3e9f480a9ee70594037fa -->
<g id="edge11" class="edge">
<title>dir_6c63d3a31e7cac2d832eb76295920122&#45;&gt;dir_9be0baa3d4a3e9f480a9ee70594037fa</title>
<g id="a_edge11"><a xlink:href="dir_000261_000212.html" target="_top">
<path fill="none" stroke="#63b8ff" d="M112.71,-126.25C126.16,-108.44 156.67,-68.08 174.44,-44.56"/>
<polygon fill="#63b8ff" stroke="#63b8ff" points="177.05,-46.92 180.28,-36.83 171.46,-42.7 177.05,-46.92"/>
</a>
</g>
<g id="a_edge11&#45;headlabel"><a xlink:href="dir_000261_000212.html" target="_top" xlink:title="15">
<text text-anchor="middle" x="178.06" y="-46.42" font-family="Helvetica,sans-Serif" font-size="10.00" fill="#63b8ff">15</text>
</a>
</g>
</g>
<!-- dir_6c63d3a31e7cac2d832eb76295920122&#45;&gt;dir_bdd9a5d540de89e9fe90efdfc6973a4f -->
<g id="edge12" class="edge">
<title>dir_6c63d3a31e7cac2d832eb76295920122&#45;&gt;dir_bdd9a5d540de89e9fe90efdfc6973a4f</title>
<g id="a_edge12"><a xlink:href="dir_000261_000042.html" target="_top">
<path fill="none" stroke="#63b8ff" d="M132.71,-128.63C135.84,-127.9 138.99,-127.17 142,-126.5 219.07,-109.3 244.79,-124.65 316,-90.5 333.15,-82.28 334.29,-75.31 349,-63.25 357.2,-56.53 366.26,-49.15 374.09,-42.78"/>
<polygon fill="#63b8ff" stroke="#63b8ff" points="376.16,-45.61 381.71,-36.59 371.74,-40.18 376.16,-45.61"/>
</a>
</g>
<g id="a_edge12&#45;headlabel"><a xlink:href="dir_000261_000042.html" target="_top" xlink:title="1">
<text text-anchor="middle" x="376.33" y="-45.25" font-family="Helvetica,sans-Serif" font-size="10.00" fill="#63b8ff">1</text>
</a>
</g>
</g>
<!-- dir_965b04ab41d8424e7ba3e3f78bb2fea4 -->
<g id="node8" class="node">
<title>dir_965b04ab41d8424e7ba3e3f78bb2fea4</title>
<g id="a_node8"><a xlink:href="dir_965b04ab41d8424e7ba3e3f78bb2fea4.html" target="_top" xlink:title="pvrdrv">
<polygon fill="#60a2e3" stroke="#404040" points="193.5,-145.75 150.5,-145.75 150.5,-126.5 193.5,-126.5 193.5,-145.75"/>
<text text-anchor="middle" x="172" y="-132.25" font-family="Helvetica,sans-Serif" font-size="10.00">pvrdrv</text>
</a>
</g>
</g>
<!-- dir_965b04ab41d8424e7ba3e3f78bb2fea4&#45;&gt;dir_9be0baa3d4a3e9f480a9ee70594037fa -->
<g id="edge13" class="edge">
<title>dir_965b04ab41d8424e7ba3e3f78bb2fea4&#45;&gt;dir_9be0baa3d4a3e9f480a9ee70594037fa</title>
<g id="a_edge13"><a xlink:href="dir_000267_000212.html" target="_top">
<path fill="none" stroke="#63b8ff" d="M171.06,-126.16C169.87,-112.44 168.46,-85.5 173,-63.25 174.19,-57.41 176.3,-51.33 178.56,-45.84"/>
<polygon fill="#63b8ff" stroke="#63b8ff" points="181.61,-47.59 182.56,-37.03 175.23,-44.69 181.61,-47.59"/>
</a>
</g>
<g id="a_edge13&#45;headlabel"><a xlink:href="dir_000267_000212.html" target="_top" xlink:title="15">
<text text-anchor="middle" x="183.33" y="-46.78" font-family="Helvetica,sans-Serif" font-size="10.00" fill="#63b8ff">15</text>
</a>
</g>
</g>
<!-- dir_965b04ab41d8424e7ba3e3f78bb2fea4&#45;&gt;dir_18566863331aaba44604539ca78be099 -->
<g id="edge15" class="edge">
<title>dir_965b04ab41d8424e7ba3e3f78bb2fea4&#45;&gt;dir_18566863331aaba44604539ca78be099</title>
<g id="a_edge15"><a xlink:href="dir_000267_000047.html" target="_top">
<path fill="none" stroke="#63b8ff" d="M182.86,-126.09C192.11,-118.4 205.62,-107.15 216.71,-97.93"/>
<polygon fill="#63b8ff" stroke="#63b8ff" points="218.69,-100.83 224.14,-91.74 214.21,-95.45 218.69,-100.83"/>
</a>
</g>
<g id="a_edge15&#45;headlabel"><a xlink:href="dir_000267_000047.html" target="_top" xlink:title="2">
<text text-anchor="middle" x="218.91" y="-100.47" font-family="Helvetica,sans-Serif" font-size="10.00" fill="#63b8ff">2</text>
</a>
</g>
</g>
<!-- dir_965b04ab41d8424e7ba3e3f78bb2fea4&#45;&gt;dir_bdd9a5d540de89e9fe90efdfc6973a4f -->
<g id="edge14" class="edge">
<title>dir_965b04ab41d8424e7ba3e3f78bb2fea4&#45;&gt;dir_bdd9a5d540de89e9fe90efdfc6973a4f</title>
<g id="a_edge14"><a xlink:href="dir_000267_000042.html" target="_top">
<path fill="none" stroke="#63b8ff" d="M193.99,-128.92C197.02,-128.09 200.08,-127.27 203,-126.5 267.64,-109.54 293.82,-128.2 349,-90.5 365.26,-79.39 377.55,-60.34 385.15,-45.92"/>
<polygon fill="#63b8ff" stroke="#63b8ff" points="388.28,-47.48 389.55,-36.96 382,-44.39 388.28,-47.48"/>
</a>
</g>
<g id="a_edge14&#45;headlabel"><a xlink:href="dir_000267_000042.html" target="_top" xlink:title="2">
<text text-anchor="middle" x="389.91" y="-46.72" font-family="Helvetica,sans-Serif" font-size="10.00" fill="#63b8ff">2</text>
</a>
</g>
</g>
</g>
</svg>
</svg>

<style type='text/css'>
<![CDATA[
[data-mouse-over-selected='false'] { opacity: 0.7; }
[data-mouse-over-selected='true']  { opacity: 1.0; }
]]>
</style>
<script type="application/ecmascript"><![CDATA[
document.addEventListener('DOMContentLoaded', (event) => {
  highlightEdges();
  highlightAdjacentNodes();
});
]]></script>
</svg>
