<?xml version="1.0" encoding="UTF-8" standalone="no"?>
<!DOCTYPE svg PUBLIC "-//W3C//DTD SVG 1.1//EN"
 "http://www.w3.org/Graphics/SVG/1.1/DTD/svg11.dtd">
<!-- Generated by graphviz version 12.2.0 (20241103.1931)
 -->
<!-- Title: iop/usb Pages: 1 -->
<svg width="566pt" height="197pt"
 viewBox="0.00 0.00 565.75 197.00" xmlns="http://www.w3.org/2000/svg" xmlns:xlink="http://www.w3.org/1999/xlink">
<g id="graph0" class="graph" transform="scale(1 1) rotate(0) translate(4 193)">
<title>iop/usb</title>
<g id="clust1" class="cluster">
<title>clusterdir_0981ace215aa2029f526b70c145b9fbe</title>
<g id="a_clust1"><a xlink:href="dir_0981ace215aa2029f526b70c145b9fbe.html" target="_top" xlink:title="iop">
<polygon fill="#deebf9" stroke="#404040" stroke-dasharray="5,2" points="8,-8 8,-181 494,-181 494,-8 8,-8"/>
<text text-anchor="middle" x="251" y="-167.5" font-family="Helvetica,sans-Serif" font-size="10.00">iop</text>
</a>
</g>
</g>
<g id="clust2" class="cluster">
<title>clusterdir_b6c875632944d243a548db157cd77ec2</title>
<g id="a_clust2"><a xlink:href="dir_b6c875632944d243a548db157cd77ec2.html" target="_top">
<polygon fill="#deebf9" stroke="#404040" stroke-width="2" points="16,-63.25 16,-153.75 430,-153.75 430,-63.25 16,-63.25"/>
</a>
</g>
</g>
<!-- dir_9be0baa3d4a3e9f480a9ee70594037fa -->
<g id="node1" class="node">
<title>dir_9be0baa3d4a3e9f480a9ee70594037fa</title>
<g id="a_node1"><a xlink:href="dir_9be0baa3d4a3e9f480a9ee70594037fa.html" target="_top" xlink:title="kernel">
<polygon fill="#60a2e3" stroke="red" points="271.12,-35.25 228.88,-35.25 228.88,-16 271.12,-16 271.12,-35.25"/>
<text text-anchor="middle" x="250" y="-21.75" font-family="Helvetica,sans-Serif" font-size="10.00">kernel</text>
</a>
</g>
</g>
<!-- dir_f24daea2522ffa8b6dc5fa9cdf5b8f5c -->
<g id="node2" class="node">
<title>dir_f24daea2522ffa8b6dc5fa9cdf5b8f5c</title>
<g id="a_node2"><a xlink:href="dir_f24daea2522ffa8b6dc5fa9cdf5b8f5c.html" target="_top" xlink:title="fs">
<polygon fill="#60a2e3" stroke="red" points="466.4,-90.5 437.6,-90.5 437.6,-71.25 466.4,-71.25 466.4,-90.5"/>
<text text-anchor="middle" x="452" y="-77" font-family="Helvetica,sans-Serif" font-size="10.00">fs</text>
</a>
</g>
</g>
<!-- dir_b6c875632944d243a548db157cd77ec2 -->
<g id="node3" class="node">
<title>dir_b6c875632944d243a548db157cd77ec2</title>
<text text-anchor="middle" x="40" y="-132.25" font-family="Helvetica,sans-Serif" font-size="10.00">usb</text>
</g>
<!-- dir_354d0fe30f8451f44d30d5ee272e7643 -->
<g id="node4" class="node">
<title>dir_354d0fe30f8451f44d30d5ee272e7643</title>
<g id="a_node4"><a xlink:href="dir_354d0fe30f8451f44d30d5ee272e7643.html" target="_top" xlink:title="camera">
<polygon fill="#60a2e3" stroke="#404040" points="422.12,-145.75 373.88,-145.75 373.88,-126.5 422.12,-126.5 422.12,-145.75"/>
<text text-anchor="middle" x="398" y="-132.25" font-family="Helvetica,sans-Serif" font-size="10.00">camera</text>
</a>
</g>
</g>
<!-- dir_354d0fe30f8451f44d30d5ee272e7643&#45;&gt;dir_9be0baa3d4a3e9f480a9ee70594037fa -->
<g id="edge1" class="edge">
<title>dir_354d0fe30f8451f44d30d5ee272e7643&#45;&gt;dir_9be0baa3d4a3e9f480a9ee70594037fa</title>
<g id="a_edge1"><a xlink:href="dir_000037_000212.html" target="_top">
<path fill="none" stroke="#63b8ff" d="M420.96,-126.08C450.62,-113.11 496.09,-88.05 475,-63.25 450.76,-34.74 339.53,-28.37 283.08,-26.98"/>
<polygon fill="#63b8ff" stroke="#63b8ff" points="283.17,-23.48 273.11,-26.78 283.03,-30.48 283.17,-23.48"/>
</a>
</g>
<g id="a_edge1&#45;headlabel"><a xlink:href="dir_000037_000212.html" target="_top" xlink:title="19">
<text text-anchor="middle" x="285.31" y="-16.81" font-family="Helvetica,sans-Serif" font-size="10.00" fill="#63b8ff">19</text>
</a>
</g>
</g>
<!-- dir_8f550b51c304fe10978bfd792866fae2 -->
<g id="node7" class="node">
<title>dir_8f550b51c304fe10978bfd792866fae2</title>
<g id="a_node7"><a xlink:href="dir_8f550b51c304fe10978bfd792866fae2.html" target="_top" xlink:title="usbd">
<polygon fill="#60a2e3" stroke="#404040" points="200.5,-90.5 163.5,-90.5 163.5,-71.25 200.5,-71.25 200.5,-90.5"/>
<text text-anchor="middle" x="182" y="-77" font-family="Helvetica,sans-Serif" font-size="10.00">usbd</text>
</a>
</g>
</g>
<!-- dir_354d0fe30f8451f44d30d5ee272e7643&#45;&gt;dir_8f550b51c304fe10978bfd792866fae2 -->
<g id="edge2" class="edge">
<title>dir_354d0fe30f8451f44d30d5ee272e7643&#45;&gt;dir_8f550b51c304fe10978bfd792866fae2</title>
<g id="a_edge2"><a xlink:href="dir_000037_000497.html" target="_top">
<path fill="none" stroke="#63b8ff" d="M373.52,-128.63C370.65,-127.89 367.76,-127.17 365,-126.5 297.77,-110.16 276.94,-111.19 211.63,-92.35"/>
<polygon fill="#63b8ff" stroke="#63b8ff" points="212.79,-89.04 202.21,-89.58 210.81,-95.76 212.79,-89.04"/>
</a>
</g>
<g id="a_edge2&#45;headlabel"><a xlink:href="dir_000037_000497.html" target="_top" xlink:title="3">
<text text-anchor="middle" x="215.59" y="-83.03" font-family="Helvetica,sans-Serif" font-size="10.00" fill="#63b8ff">3</text>
</a>
</g>
</g>
<!-- dir_bdd9a5d540de89e9fe90efdfc6973a4f -->
<g id="node10" class="node">
<title>dir_bdd9a5d540de89e9fe90efdfc6973a4f</title>
<g id="a_node10"><a xlink:href="dir_bdd9a5d540de89e9fe90efdfc6973a4f.html" target="_top" xlink:title="common">
<polygon fill="#deebf9" stroke="red" points="557.75,-90.5 504.25,-90.5 504.25,-71.25 557.75,-71.25 557.75,-90.5"/>
<text text-anchor="middle" x="531" y="-77" font-family="Helvetica,sans-Serif" font-size="10.00">common</text>
</a>
</g>
</g>
<!-- dir_354d0fe30f8451f44d30d5ee272e7643&#45;&gt;dir_bdd9a5d540de89e9fe90efdfc6973a4f -->
<g id="edge3" class="edge">
<title>dir_354d0fe30f8451f44d30d5ee272e7643&#45;&gt;dir_bdd9a5d540de89e9fe90efdfc6973a4f</title>
<g id="a_edge3"><a xlink:href="dir_000037_000042.html" target="_top">
<path fill="none" stroke="#63b8ff" d="M420.56,-126.09C441.77,-117.6 473.77,-104.79 497.88,-95.14"/>
<polygon fill="#63b8ff" stroke="#63b8ff" points="498.94,-98.48 506.92,-91.52 496.34,-91.98 498.94,-98.48"/>
</a>
</g>
<g id="a_edge3&#45;headlabel"><a xlink:href="dir_000037_000042.html" target="_top" xlink:title="1">
<text text-anchor="middle" x="498.06" y="-98.02" font-family="Helvetica,sans-Serif" font-size="10.00" fill="#63b8ff">1</text>
</a>
</g>
</g>
<!-- dir_dfd34f7999bdb28cb70101636e016b16 -->
<g id="node5" class="node">
<title>dir_dfd34f7999bdb28cb70101636e016b16</title>
<g id="a_node5"><a xlink:href="dir_dfd34f7999bdb28cb70101636e016b16.html" target="_top" xlink:title="keyboard">
<polygon fill="#60a2e3" stroke="#404040" points="128.5,-145.75 73.5,-145.75 73.5,-126.5 128.5,-126.5 128.5,-145.75"/>
<text text-anchor="middle" x="101" y="-132.25" font-family="Helvetica,sans-Serif" font-size="10.00">keyboard</text>
</a>
</g>
</g>
<!-- dir_dfd34f7999bdb28cb70101636e016b16&#45;&gt;dir_9be0baa3d4a3e9f480a9ee70594037fa -->
<g id="edge4" class="edge">
<title>dir_dfd34f7999bdb28cb70101636e016b16&#45;&gt;dir_9be0baa3d4a3e9f480a9ee70594037fa</title>
<g id="a_edge4"><a xlink:href="dir_000214_000212.html" target="_top">
<path fill="none" stroke="#63b8ff" d="M128.78,-126.13C156.77,-116.65 197.56,-101.59 210,-90.5 220.32,-81.3 217.76,-75.03 225,-63.25 228.82,-57.03 233.24,-50.4 237.29,-44.5"/>
<polygon fill="#63b8ff" stroke="#63b8ff" points="239.86,-46.94 242.72,-36.74 234.12,-42.93 239.86,-46.94"/>
</a>
</g>
<g id="a_edge4&#45;headlabel"><a xlink:href="dir_000214_000212.html" target="_top" xlink:title="19">
<text text-anchor="middle" x="241" y="-46.4" font-family="Helvetica,sans-Serif" font-size="10.00" fill="#63b8ff">19</text>
</a>
</g>
</g>
<!-- dir_dfd34f7999bdb28cb70101636e016b16&#45;&gt;dir_8f550b51c304fe10978bfd792866fae2 -->
<g id="edge5" class="edge">
<title>dir_dfd34f7999bdb28cb70101636e016b16&#45;&gt;dir_8f550b51c304fe10978bfd792866fae2</title>
<g id="a_edge5"><a xlink:href="dir_000214_000497.html" target="_top">
<path fill="none" stroke="#63b8ff" d="M114.74,-126.09C126.73,-118.21 144.37,-106.61 158.58,-97.27"/>
<polygon fill="#63b8ff" stroke="#63b8ff" points="160.49,-100.2 166.93,-91.78 156.65,-94.35 160.49,-100.2"/>
</a>
</g>
<g id="a_edge5&#45;headlabel"><a xlink:href="dir_000214_000497.html" target="_top" xlink:title="3">
<text text-anchor="middle" x="160.31" y="-99.84" font-family="Helvetica,sans-Serif" font-size="10.00" fill="#63b8ff">3</text>
</a>
</g>
</g>
<!-- dir_6c36fa94566b53a53d1b33c49cbff7fb -->
<g id="node6" class="node">
<title>dir_6c36fa94566b53a53d1b33c49cbff7fb</title>
<g id="a_node6"><a xlink:href="dir_6c36fa94566b53a53d1b33c49cbff7fb.html" target="_top" xlink:title="mouse">
<polygon fill="#60a2e3" stroke="#404040" points="191.62,-145.75 146.38,-145.75 146.38,-126.5 191.62,-126.5 191.62,-145.75"/>
<text text-anchor="middle" x="169" y="-132.25" font-family="Helvetica,sans-Serif" font-size="10.00">mouse</text>
</a>
</g>
</g>
<!-- dir_6c36fa94566b53a53d1b33c49cbff7fb&#45;&gt;dir_9be0baa3d4a3e9f480a9ee70594037fa -->
<g id="edge6" class="edge">
<title>dir_6c36fa94566b53a53d1b33c49cbff7fb&#45;&gt;dir_9be0baa3d4a3e9f480a9ee70594037fa</title>
<g id="a_edge6"><a xlink:href="dir_000240_000212.html" target="_top">
<path fill="none" stroke="#63b8ff" d="M184.41,-126.07C196.84,-118.08 214,-105.41 225,-90.5 234.74,-77.29 241.24,-59.79 245.16,-46.45"/>
<polygon fill="#63b8ff" stroke="#63b8ff" points="248.47,-47.64 247.67,-37.07 241.71,-45.83 248.47,-47.64"/>
</a>
</g>
<g id="a_edge6&#45;headlabel"><a xlink:href="dir_000240_000212.html" target="_top" xlink:title="18">
<text text-anchor="middle" x="250.68" y="-46.51" font-family="Helvetica,sans-Serif" font-size="10.00" fill="#63b8ff">18</text>
</a>
</g>
</g>
<!-- dir_6c36fa94566b53a53d1b33c49cbff7fb&#45;&gt;dir_8f550b51c304fe10978bfd792866fae2 -->
<g id="edge7" class="edge">
<title>dir_6c36fa94566b53a53d1b33c49cbff7fb&#45;&gt;dir_8f550b51c304fe10978bfd792866fae2</title>
<g id="a_edge7"><a xlink:href="dir_000240_000497.html" target="_top">
<path fill="none" stroke="#63b8ff" d="M171.15,-126.33C172.77,-119.67 175.08,-110.24 177.14,-101.78"/>
<polygon fill="#63b8ff" stroke="#63b8ff" points="180.48,-102.87 179.45,-92.33 173.68,-101.21 180.48,-102.87"/>
</a>
</g>
<g id="a_edge7&#45;headlabel"><a xlink:href="dir_000240_000497.html" target="_top" xlink:title="3">
<text text-anchor="middle" x="182.74" y="-101.69" font-family="Helvetica,sans-Serif" font-size="10.00" fill="#63b8ff">3</text>
</a>
</g>
</g>
<!-- dir_8f550b51c304fe10978bfd792866fae2&#45;&gt;dir_9be0baa3d4a3e9f480a9ee70594037fa -->
<g id="edge8" class="edge">
<title>dir_8f550b51c304fe10978bfd792866fae2&#45;&gt;dir_9be0baa3d4a3e9f480a9ee70594037fa</title>
<g id="a_edge8"><a xlink:href="dir_000497_000212.html" target="_top">
<path fill="none" stroke="#63b8ff" d="M193.54,-70.84C203.46,-63.07 218.01,-51.67 229.86,-42.4"/>
<polygon fill="#63b8ff" stroke="#63b8ff" points="231.73,-45.38 237.44,-36.46 227.41,-39.87 231.73,-45.38"/>
</a>
</g>
<g id="a_edge8&#45;headlabel"><a xlink:href="dir_000497_000212.html" target="_top" xlink:title="38">
<text text-anchor="middle" x="231.84" y="-45.02" font-family="Helvetica,sans-Serif" font-size="10.00" fill="#63b8ff">38</text>
</a>
</g>
</g>
<!-- dir_b8874c233d466218401f983297aca89b -->
<g id="node8" class="node">
<title>dir_b8874c233d466218401f983297aca89b</title>
<g id="a_node8"><a xlink:href="dir_b8874c233d466218401f983297aca89b.html" target="_top" xlink:title="usbhdfsd">
<polygon fill="#60a2e3" stroke="#404040" points="265.88,-145.75 210.12,-145.75 210.12,-126.5 265.88,-126.5 265.88,-145.75"/>
<text text-anchor="middle" x="238" y="-132.25" font-family="Helvetica,sans-Serif" font-size="10.00">usbhdfsd</text>
</a>
</g>
</g>
<!-- dir_b8874c233d466218401f983297aca89b&#45;&gt;dir_9be0baa3d4a3e9f480a9ee70594037fa -->
<g id="edge10" class="edge">
<title>dir_b8874c233d466218401f983297aca89b&#45;&gt;dir_9be0baa3d4a3e9f480a9ee70594037fa</title>
<g id="a_edge10"><a xlink:href="dir_000498_000212.html" target="_top">
<path fill="none" stroke="#63b8ff" d="M239.6,-126.26C241.17,-117.28 243.54,-102.96 245,-90.5 246.69,-76.07 247.96,-59.73 248.8,-47.2"/>
<polygon fill="#63b8ff" stroke="#63b8ff" points="252.29,-47.45 249.41,-37.25 245.3,-47.02 252.29,-47.45"/>
</a>
</g>
<g id="a_edge10&#45;headlabel"><a xlink:href="dir_000498_000212.html" target="_top" xlink:title="23">
<text text-anchor="middle" x="254.99" y="-45.83" font-family="Helvetica,sans-Serif" font-size="10.00" fill="#63b8ff">23</text>
</a>
</g>
</g>
<!-- dir_b8874c233d466218401f983297aca89b&#45;&gt;dir_8f550b51c304fe10978bfd792866fae2 -->
<g id="edge9" class="edge">
<title>dir_b8874c233d466218401f983297aca89b&#45;&gt;dir_8f550b51c304fe10978bfd792866fae2</title>
<g id="a_edge9"><a xlink:href="dir_000498_000497.html" target="_top">
<path fill="none" stroke="#63b8ff" d="M228.5,-126.09C220.57,-118.55 209.05,-107.6 199.46,-98.48"/>
<polygon fill="#63b8ff" stroke="#63b8ff" points="202.11,-96.17 192.46,-91.82 197.29,-101.24 202.11,-96.17"/>
</a>
</g>
<g id="a_edge9&#45;headlabel"><a xlink:href="dir_000498_000497.html" target="_top" xlink:title="3">
<text text-anchor="middle" x="205.58" y="-91.67" font-family="Helvetica,sans-Serif" font-size="10.00" fill="#63b8ff">3</text>
</a>
</g>
</g>
<!-- dir_b8874c233d466218401f983297aca89b&#45;&gt;dir_bdd9a5d540de89e9fe90efdfc6973a4f -->
<g id="edge11" class="edge">
<title>dir_b8874c233d466218401f983297aca89b&#45;&gt;dir_bdd9a5d540de89e9fe90efdfc6973a4f</title>
<g id="a_edge11"><a xlink:href="dir_000498_000042.html" target="_top">
<path fill="none" stroke="#63b8ff" d="M266.24,-128.33C269.19,-127.68 272.15,-127.06 275,-126.5 369.94,-107.79 397.77,-110.95 493.03,-91.44"/>
<polygon fill="#63b8ff" stroke="#63b8ff" points="493.48,-94.92 502.55,-89.46 492.05,-88.07 493.48,-94.92"/>
</a>
</g>
<g id="a_edge11&#45;headlabel"><a xlink:href="dir_000498_000042.html" target="_top" xlink:title="3">
<text text-anchor="middle" x="492.02" y="-94.25" font-family="Helvetica,sans-Serif" font-size="10.00" fill="#63b8ff">3</text>
</a>
</g>
</g>
<!-- dir_b21605a940872bbf5de5d8b063daf48d -->
<g id="node9" class="node">
<title>dir_b21605a940872bbf5de5d8b063daf48d</title>
<g id="a_node9"><a xlink:href="dir_b21605a940872bbf5de5d8b063daf48d.html" target="_top" xlink:title="usbmass_bd">
<polygon fill="#60a2e3" stroke="#404040" points="355.75,-145.75 284.25,-145.75 284.25,-126.5 355.75,-126.5 355.75,-145.75"/>
<text text-anchor="middle" x="320" y="-132.25" font-family="Helvetica,sans-Serif" font-size="10.00">usbmass_bd</text>
</a>
</g>
</g>
<!-- dir_b21605a940872bbf5de5d8b063daf48d&#45;&gt;dir_9be0baa3d4a3e9f480a9ee70594037fa -->
<g id="edge13" class="edge">
<title>dir_b21605a940872bbf5de5d8b063daf48d&#45;&gt;dir_9be0baa3d4a3e9f480a9ee70594037fa</title>
<g id="a_edge13"><a xlink:href="dir_000499_000212.html" target="_top">
<path fill="none" stroke="#63b8ff" d="M314.27,-126.25C302.89,-108.6 277.21,-68.8 261.98,-45.2"/>
<polygon fill="#63b8ff" stroke="#63b8ff" points="264.99,-43.4 256.63,-36.9 259.11,-47.2 264.99,-43.4"/>
</a>
</g>
<g id="a_edge13&#45;headlabel"><a xlink:href="dir_000499_000212.html" target="_top" xlink:title="15">
<text text-anchor="middle" x="268.5" y="-39.74" font-family="Helvetica,sans-Serif" font-size="10.00" fill="#63b8ff">15</text>
</a>
</g>
</g>
<!-- dir_b21605a940872bbf5de5d8b063daf48d&#45;&gt;dir_f24daea2522ffa8b6dc5fa9cdf5b8f5c -->
<g id="edge15" class="edge">
<title>dir_b21605a940872bbf5de5d8b063daf48d&#45;&gt;dir_f24daea2522ffa8b6dc5fa9cdf5b8f5c</title>
<g id="a_edge15"><a xlink:href="dir_000499_000074.html" target="_top">
<path fill="none" stroke="#63b8ff" d="M344.68,-126.07C365.55,-118.28 396.47,-106.44 426.85,-93.53"/>
<polygon fill="#63b8ff" stroke="#63b8ff" points="427.92,-96.88 435.72,-89.71 425.15,-90.45 427.92,-96.88"/>
</a>
</g>
<g id="a_edge15&#45;headlabel"><a xlink:href="dir_000499_000074.html" target="_top" xlink:title="2">
<text text-anchor="middle" x="427.13" y="-96.44" font-family="Helvetica,sans-Serif" font-size="10.00" fill="#63b8ff">2</text>
</a>
</g>
</g>
<!-- dir_b21605a940872bbf5de5d8b063daf48d&#45;&gt;dir_8f550b51c304fe10978bfd792866fae2 -->
<g id="edge12" class="edge">
<title>dir_b21605a940872bbf5de5d8b063daf48d&#45;&gt;dir_8f550b51c304fe10978bfd792866fae2</title>
<g id="a_edge12"><a xlink:href="dir_000499_000497.html" target="_top">
<path fill="none" stroke="#63b8ff" d="M296.59,-126.09C273.01,-116.99 236.58,-102.93 211.14,-93.12"/>
<polygon fill="#63b8ff" stroke="#63b8ff" points="212.65,-89.95 202.06,-89.62 210.13,-96.48 212.65,-89.95"/>
</a>
</g>
<g id="a_edge12&#45;headlabel"><a xlink:href="dir_000499_000497.html" target="_top" xlink:title="3">
<text text-anchor="middle" x="215.61" y="-84.18" font-family="Helvetica,sans-Serif" font-size="10.00" fill="#63b8ff">3</text>
</a>
</g>
</g>
<!-- dir_b21605a940872bbf5de5d8b063daf48d&#45;&gt;dir_bdd9a5d540de89e9fe90efdfc6973a4f -->
<g id="edge14" class="edge">
<title>dir_b21605a940872bbf5de5d8b063daf48d&#45;&gt;dir_bdd9a5d540de89e9fe90efdfc6973a4f</title>
<g id="a_edge14"><a xlink:href="dir_000499_000042.html" target="_top">
<path fill="none" stroke="#63b8ff" d="M356.16,-126.17C389.76,-117.83 441.48,-104.92 493.01,-91.77"/>
<polygon fill="#63b8ff" stroke="#63b8ff" points="493.7,-95.2 502.53,-89.33 491.97,-88.42 493.7,-95.2"/>
</a>
</g>
<g id="a_edge14&#45;headlabel"><a xlink:href="dir_000499_000042.html" target="_top" xlink:title="3">
<text text-anchor="middle" x="492.39" y="-94.59" font-family="Helvetica,sans-Serif" font-size="10.00" fill="#63b8ff">3</text>
</a>
</g>
</g>
</g>
</svg>
