<?xml version="1.0" encoding="UTF-8" standalone="no"?>
<!DOCTYPE svg PUBLIC "-//W3C//DTD SVG 1.1//EN"
 "http://www.w3.org/Graphics/SVG/1.1/DTD/svg11.dtd">
<!-- Generated by graphviz version 12.2.0 (20241103.1931)
 -->
<!-- Title: iop/cdvd Pages: 1 -->
<svg width="431pt" height="197pt"
 viewBox="0.00 0.00 430.86 197.00" xmlns="http://www.w3.org/2000/svg" xmlns:xlink="http://www.w3.org/1999/xlink">
<g id="graph0" class="graph" transform="scale(1 1) rotate(0) translate(4 193)">
<title>iop/cdvd</title>
<g id="clust1" class="cluster">
<title>clusterdir_0981ace215aa2029f526b70c145b9fbe</title>
<g id="a_clust1"><a xlink:href="dir_0981ace215aa2029f526b70c145b9fbe.html" target="_top" xlink:title="iop">
<polygon fill="#deebf9" stroke="#404040" stroke-dasharray="5,2" points="8,-8 8,-181 334,-181 334,-8 8,-8"/>
<text text-anchor="middle" x="171" y="-167.5" font-family="Helvetica,sans-Serif" font-size="10.00">iop</text>
</a>
</g>
</g>
<g id="clust2" class="cluster">
<title>clusterdir_a12d8da7b0731a57c6a388326ad5e612</title>
<g id="a_clust2"><a xlink:href="dir_a12d8da7b0731a57c6a388326ad5e612.html" target="_top">
<polygon fill="#deebf9" stroke="#404040" stroke-width="2" points="16,-63.25 16,-153.75 326,-153.75 326,-63.25 16,-63.25"/>
</a>
</g>
</g>
<!-- dir_9be0baa3d4a3e9f480a9ee70594037fa -->
<g id="node1" class="node">
<title>dir_9be0baa3d4a3e9f480a9ee70594037fa</title>
<g id="a_node1"><a xlink:href="dir_9be0baa3d4a3e9f480a9ee70594037fa.html" target="_top" xlink:title="kernel">
<polygon fill="#60a2e3" stroke="red" points="166.12,-35.25 123.88,-35.25 123.88,-16 166.12,-16 166.12,-35.25"/>
<text text-anchor="middle" x="145" y="-21.75" font-family="Helvetica,sans-Serif" font-size="10.00">kernel</text>
</a>
</g>
</g>
<!-- dir_40ac35421bc63b72c26b6c69b1517fd6 -->
<g id="node2" class="node">
<title>dir_40ac35421bc63b72c26b6c69b1517fd6</title>
<g id="a_node2"><a xlink:href="dir_40ac35421bc63b72c26b6c69b1517fd6.html" target="_top" xlink:title="system">
<polygon fill="#60a2e3" stroke="red" points="231.75,-35.25 184.25,-35.25 184.25,-16 231.75,-16 231.75,-35.25"/>
<text text-anchor="middle" x="208" y="-21.75" font-family="Helvetica,sans-Serif" font-size="10.00">system</text>
</a>
</g>
</g>
<!-- dir_a12d8da7b0731a57c6a388326ad5e612 -->
<g id="node3" class="node">
<title>dir_a12d8da7b0731a57c6a388326ad5e612</title>
<text text-anchor="middle" x="43" y="-132.25" font-family="Helvetica,sans-Serif" font-size="10.00">cdvd</text>
</g>
<!-- dir_ae2e5b2d61c32fda6e87ab98b4cec460 -->
<g id="node4" class="node">
<title>dir_ae2e5b2d61c32fda6e87ab98b4cec460</title>
<g id="a_node4"><a xlink:href="dir_ae2e5b2d61c32fda6e87ab98b4cec460.html" target="_top" xlink:title="cdfs">
<polygon fill="#60a2e3" stroke="#404040" points="177.38,-145.75 142.62,-145.75 142.62,-126.5 177.38,-126.5 177.38,-145.75"/>
<text text-anchor="middle" x="160" y="-132.25" font-family="Helvetica,sans-Serif" font-size="10.00">cdfs</text>
</a>
</g>
</g>
<!-- dir_ae2e5b2d61c32fda6e87ab98b4cec460&#45;&gt;dir_9be0baa3d4a3e9f480a9ee70594037fa -->
<g id="edge3" class="edge">
<title>dir_ae2e5b2d61c32fda6e87ab98b4cec460&#45;&gt;dir_9be0baa3d4a3e9f480a9ee70594037fa</title>
<g id="a_edge3"><a xlink:href="dir_000038_000238.html" target="_top">
<path fill="none" stroke="#63b8ff" d="M154.68,-126.28C149.77,-117.54 142.81,-103.62 140,-90.5 136.89,-75.98 138.39,-59.23 140.53,-46.53"/>
<polygon fill="#63b8ff" stroke="#63b8ff" points="143.93,-47.38 142.44,-36.89 137.06,-46.02 143.93,-47.38"/>
</a>
</g>
<g id="a_edge3&#45;headlabel"><a xlink:href="dir_000038_000238.html" target="_top" xlink:title="1">
<text text-anchor="middle" x="146.31" y="-46.1" font-family="Helvetica,sans-Serif" font-size="10.00" fill="#63b8ff">1</text>
</a>
</g>
</g>
<!-- dir_ae2e5b2d61c32fda6e87ab98b4cec460&#45;&gt;dir_40ac35421bc63b72c26b6c69b1517fd6 -->
<g id="edge1" class="edge">
<title>dir_ae2e5b2d61c32fda6e87ab98b4cec460&#45;&gt;dir_40ac35421bc63b72c26b6c69b1517fd6</title>
<g id="a_edge1"><a xlink:href="dir_000038_000513.html" target="_top">
<path fill="none" stroke="#63b8ff" d="M163.93,-126.25C171.66,-108.76 189.02,-69.52 199.5,-45.84"/>
<polygon fill="#63b8ff" stroke="#63b8ff" points="202.56,-47.57 203.41,-37.01 196.16,-44.74 202.56,-47.57"/>
</a>
</g>
<g id="a_edge1&#45;headlabel"><a xlink:href="dir_000038_000513.html" target="_top" xlink:title="14">
<text text-anchor="middle" x="204.31" y="-46.75" font-family="Helvetica,sans-Serif" font-size="10.00" fill="#63b8ff">14</text>
</a>
</g>
</g>
<!-- dir_f449e64e40a305c379232bc791e77932 -->
<g id="node6" class="node">
<title>dir_f449e64e40a305c379232bc791e77932</title>
<g id="a_node6"><a xlink:href="dir_f449e64e40a305c379232bc791e77932.html" target="_top" xlink:title="cdvdman">
<polygon fill="#60a2e3" stroke="#404040" points="279.88,-90.5 224.12,-90.5 224.12,-71.25 279.88,-71.25 279.88,-90.5"/>
<text text-anchor="middle" x="252" y="-77" font-family="Helvetica,sans-Serif" font-size="10.00">cdvdman</text>
</a>
</g>
</g>
<!-- dir_ae2e5b2d61c32fda6e87ab98b4cec460&#45;&gt;dir_f449e64e40a305c379232bc791e77932 -->
<g id="edge4" class="edge">
<title>dir_ae2e5b2d61c32fda6e87ab98b4cec460&#45;&gt;dir_f449e64e40a305c379232bc791e77932</title>
<g id="a_edge4"><a xlink:href="dir_000038_000042.html" target="_top">
<path fill="none" stroke="#63b8ff" d="M175.61,-126.09C189.62,-117.98 210.43,-105.93 226.8,-96.46"/>
<polygon fill="#63b8ff" stroke="#63b8ff" points="228.11,-99.75 235.01,-91.71 224.6,-93.69 228.11,-99.75"/>
</a>
</g>
<g id="a_edge4&#45;headlabel"><a xlink:href="dir_000038_000042.html" target="_top" xlink:title="1">
<text text-anchor="middle" x="227.73" y="-99.37" font-family="Helvetica,sans-Serif" font-size="10.00" fill="#63b8ff">1</text>
</a>
</g>
</g>
<!-- dir_bdd9a5d540de89e9fe90efdfc6973a4f -->
<g id="node9" class="node">
<title>dir_bdd9a5d540de89e9fe90efdfc6973a4f</title>
<g id="a_node9"><a xlink:href="dir_bdd9a5d540de89e9fe90efdfc6973a4f.html" target="_top" xlink:title="common">
<polygon fill="#deebf9" stroke="red" points="395.75,-35.25 342.25,-35.25 342.25,-16 395.75,-16 395.75,-35.25"/>
<text text-anchor="middle" x="369" y="-21.75" font-family="Helvetica,sans-Serif" font-size="10.00">common</text>
</a>
</g>
</g>
<!-- dir_ae2e5b2d61c32fda6e87ab98b4cec460&#45;&gt;dir_bdd9a5d540de89e9fe90efdfc6973a4f -->
<g id="edge2" class="edge">
<title>dir_ae2e5b2d61c32fda6e87ab98b4cec460&#45;&gt;dir_bdd9a5d540de89e9fe90efdfc6973a4f</title>
<g id="a_edge2"><a xlink:href="dir_000038_000045.html" target="_top">
<path fill="none" stroke="#63b8ff" d="M177.66,-129.26C180.76,-128.29 183.96,-127.34 187,-126.5 255.18,-107.72 287.89,-136.04 342,-90.5 355.11,-79.47 361.99,-60.96 365.51,-46.7"/>
<polygon fill="#63b8ff" stroke="#63b8ff" points="368.91,-47.54 367.51,-37.04 362.06,-46.12 368.91,-47.54"/>
</a>
</g>
<g id="a_edge2&#45;headlabel"><a xlink:href="dir_000038_000045.html" target="_top" xlink:title="3">
<text text-anchor="middle" x="371.27" y="-46.28" font-family="Helvetica,sans-Serif" font-size="10.00" fill="#63b8ff">3</text>
</a>
</g>
</g>
<!-- dir_1f6440c08895654e298b91d0ddcbd2c2 -->
<g id="node5" class="node">
<title>dir_1f6440c08895654e298b91d0ddcbd2c2</title>
<g id="a_node5"><a xlink:href="dir_1f6440c08895654e298b91d0ddcbd2c2.html" target="_top" xlink:title="cdvdfsv">
<polygon fill="#60a2e3" stroke="#404040" points="246.25,-145.75 195.75,-145.75 195.75,-126.5 246.25,-126.5 246.25,-145.75"/>
<text text-anchor="middle" x="221" y="-132.25" font-family="Helvetica,sans-Serif" font-size="10.00">cdvdfsv</text>
</a>
</g>
</g>
<!-- dir_1f6440c08895654e298b91d0ddcbd2c2&#45;&gt;dir_9be0baa3d4a3e9f480a9ee70594037fa -->
<g id="edge5" class="edge">
<title>dir_1f6440c08895654e298b91d0ddcbd2c2&#45;&gt;dir_9be0baa3d4a3e9f480a9ee70594037fa</title>
<g id="a_edge5"><a xlink:href="dir_000041_000238.html" target="_top">
<path fill="none" stroke="#63b8ff" d="M214.78,-126.25C202.37,-108.52 174.29,-68.44 157.79,-44.88"/>
<polygon fill="#63b8ff" stroke="#63b8ff" points="160.78,-43.05 152.17,-36.87 155.04,-47.06 160.78,-43.05"/>
</a>
</g>
<g id="a_edge5&#45;headlabel"><a xlink:href="dir_000041_000238.html" target="_top" xlink:title="3">
<text text-anchor="middle" x="164.3" y="-39.25" font-family="Helvetica,sans-Serif" font-size="10.00" fill="#63b8ff">3</text>
</a>
</g>
</g>
<!-- dir_1f6440c08895654e298b91d0ddcbd2c2&#45;&gt;dir_40ac35421bc63b72c26b6c69b1517fd6 -->
<g id="edge8" class="edge">
<title>dir_1f6440c08895654e298b91d0ddcbd2c2&#45;&gt;dir_40ac35421bc63b72c26b6c69b1517fd6</title>
<g id="a_edge8"><a xlink:href="dir_000041_000513.html" target="_top">
<path fill="none" stroke="#63b8ff" d="M219.74,-126.24C218.48,-117.24 216.51,-102.92 215,-90.5 213.24,-76.03 211.45,-59.7 210.12,-47.17"/>
<polygon fill="#63b8ff" stroke="#63b8ff" points="213.6,-46.82 209.08,-37.24 206.64,-47.54 213.6,-46.82"/>
</a>
</g>
<g id="a_edge8&#45;headlabel"><a xlink:href="dir_000041_000513.html" target="_top" xlink:title="10">
<text text-anchor="middle" x="216.64" y="-44.72" font-family="Helvetica,sans-Serif" font-size="10.00" fill="#63b8ff">10</text>
</a>
</g>
</g>
<!-- dir_1f6440c08895654e298b91d0ddcbd2c2&#45;&gt;dir_f449e64e40a305c379232bc791e77932 -->
<g id="edge7" class="edge">
<title>dir_1f6440c08895654e298b91d0ddcbd2c2&#45;&gt;dir_f449e64e40a305c379232bc791e77932</title>
<g id="a_edge7"><a xlink:href="dir_000041_000042.html" target="_top">
<path fill="none" stroke="#63b8ff" d="M226.12,-126.33C230.18,-119.36 235.99,-109.37 241.09,-100.62"/>
<polygon fill="#63b8ff" stroke="#63b8ff" points="244,-102.57 246.01,-92.17 237.95,-99.05 244,-102.57"/>
</a>
</g>
<g id="a_edge7&#45;headlabel"><a xlink:href="dir_000041_000042.html" target="_top" xlink:title="1">
<text text-anchor="middle" x="245.41" y="-101.92" font-family="Helvetica,sans-Serif" font-size="10.00" fill="#63b8ff">1</text>
</a>
</g>
</g>
<!-- dir_1f6440c08895654e298b91d0ddcbd2c2&#45;&gt;dir_bdd9a5d540de89e9fe90efdfc6973a4f -->
<g id="edge6" class="edge">
<title>dir_1f6440c08895654e298b91d0ddcbd2c2&#45;&gt;dir_bdd9a5d540de89e9fe90efdfc6973a4f</title>
<g id="a_edge6"><a xlink:href="dir_000041_000045.html" target="_top">
<path fill="none" stroke="#63b8ff" d="M246.5,-128.39C290.9,-116.6 377.94,-93.22 380,-90.5 389.66,-77.75 385.2,-59.46 379.32,-45.71"/>
<polygon fill="#63b8ff" stroke="#63b8ff" points="382.51,-44.28 374.99,-36.82 376.22,-47.34 382.51,-44.28"/>
</a>
</g>
<g id="a_edge6&#45;headlabel"><a xlink:href="dir_000041_000045.html" target="_top" xlink:title="2">
<text text-anchor="middle" x="385.98" y="-41.03" font-family="Helvetica,sans-Serif" font-size="10.00" fill="#63b8ff">2</text>
</a>
</g>
</g>
<!-- dir_f449e64e40a305c379232bc791e77932&#45;&gt;dir_9be0baa3d4a3e9f480a9ee70594037fa -->
<g id="edge9" class="edge">
<title>dir_f449e64e40a305c379232bc791e77932&#45;&gt;dir_9be0baa3d4a3e9f480a9ee70594037fa</title>
<g id="a_edge9"><a xlink:href="dir_000042_000238.html" target="_top">
<path fill="none" stroke="#63b8ff" d="M234.77,-70.82C230,-68.34 224.81,-65.67 220,-63.25 204.84,-55.61 187.85,-47.3 173.88,-40.52"/>
<polygon fill="#63b8ff" stroke="#63b8ff" points="175.75,-37.54 165.23,-36.34 172.71,-43.84 175.75,-37.54"/>
</a>
</g>
<g id="a_edge9&#45;headlabel"><a xlink:href="dir_000042_000238.html" target="_top" xlink:title="3">
<text text-anchor="middle" x="178.86" y="-32.01" font-family="Helvetica,sans-Serif" font-size="10.00" fill="#63b8ff">3</text>
</a>
</g>
</g>
<!-- dir_f449e64e40a305c379232bc791e77932&#45;&gt;dir_40ac35421bc63b72c26b6c69b1517fd6 -->
<g id="edge11" class="edge">
<title>dir_f449e64e40a305c379232bc791e77932&#45;&gt;dir_40ac35421bc63b72c26b6c69b1517fd6</title>
<g id="a_edge11"><a xlink:href="dir_000042_000513.html" target="_top">
<path fill="none" stroke="#63b8ff" d="M244.73,-71.08C238.72,-63.8 229.99,-53.23 222.54,-44.23"/>
<polygon fill="#63b8ff" stroke="#63b8ff" points="225.46,-42.26 216.39,-36.78 220.06,-46.71 225.46,-42.26"/>
</a>
</g>
<g id="a_edge11&#45;headlabel"><a xlink:href="dir_000042_000513.html" target="_top" xlink:title="10">
<text text-anchor="middle" x="228.97" y="-38.18" font-family="Helvetica,sans-Serif" font-size="10.00" fill="#63b8ff">10</text>
</a>
</g>
</g>
<!-- dir_f449e64e40a305c379232bc791e77932&#45;&gt;dir_bdd9a5d540de89e9fe90efdfc6973a4f -->
<g id="edge10" class="edge">
<title>dir_f449e64e40a305c379232bc791e77932&#45;&gt;dir_bdd9a5d540de89e9fe90efdfc6973a4f</title>
<g id="a_edge10"><a xlink:href="dir_000042_000045.html" target="_top">
<path fill="none" stroke="#63b8ff" d="M271.85,-70.84C290.17,-62.5 317.65,-50 338.71,-40.41"/>
<polygon fill="#63b8ff" stroke="#63b8ff" points="340.03,-43.66 347.68,-36.33 337.13,-37.29 340.03,-43.66"/>
</a>
</g>
<g id="a_edge10&#45;headlabel"><a xlink:href="dir_000042_000045.html" target="_top" xlink:title="5">
<text text-anchor="middle" x="339.31" y="-43.23" font-family="Helvetica,sans-Serif" font-size="10.00" fill="#63b8ff">5</text>
</a>
</g>
</g>
<!-- dir_c39f392af7f13c65e7a482de8f63f0c9 -->
<g id="node7" class="node">
<title>dir_c39f392af7f13c65e7a482de8f63f0c9</title>
<g id="a_node7"><a xlink:href="dir_c39f392af7f13c65e7a482de8f63f0c9.html" target="_top" xlink:title="cdvdstm">
<polygon fill="#60a2e3" stroke="#404040" points="317.75,-145.75 264.25,-145.75 264.25,-126.5 317.75,-126.5 317.75,-145.75"/>
<text text-anchor="middle" x="291" y="-132.25" font-family="Helvetica,sans-Serif" font-size="10.00">cdvdstm</text>
</a>
</g>
</g>
<!-- dir_c39f392af7f13c65e7a482de8f63f0c9&#45;&gt;dir_9be0baa3d4a3e9f480a9ee70594037fa -->
<g id="edge13" class="edge">
<title>dir_c39f392af7f13c65e7a482de8f63f0c9&#45;&gt;dir_9be0baa3d4a3e9f480a9ee70594037fa</title>
<g id="a_edge13"><a xlink:href="dir_000043_000238.html" target="_top">
<path fill="none" stroke="#63b8ff" d="M273.14,-126.01C257.31,-117.62 233.84,-104.39 215,-90.5 213.6,-89.47 183.51,-61.93 163.24,-43.35"/>
<polygon fill="#63b8ff" stroke="#63b8ff" points="165.61,-40.77 155.87,-36.6 160.88,-45.93 165.61,-40.77"/>
</a>
</g>
<g id="a_edge13&#45;headlabel"><a xlink:href="dir_000043_000238.html" target="_top" xlink:title="2">
<text text-anchor="middle" x="169.06" y="-36.21" font-family="Helvetica,sans-Serif" font-size="10.00" fill="#63b8ff">2</text>
</a>
</g>
</g>
<!-- dir_c39f392af7f13c65e7a482de8f63f0c9&#45;&gt;dir_40ac35421bc63b72c26b6c69b1517fd6 -->
<g id="edge15" class="edge">
<title>dir_c39f392af7f13c65e7a482de8f63f0c9&#45;&gt;dir_40ac35421bc63b72c26b6c69b1517fd6</title>
<g id="a_edge15"><a xlink:href="dir_000043_000513.html" target="_top">
<path fill="none" stroke="#63b8ff" d="M293.52,-126.28C297.09,-111.76 301.86,-82.58 289,-63.25 278.55,-47.54 259.62,-38.49 242.68,-33.31"/>
<polygon fill="#63b8ff" stroke="#63b8ff" points="243.97,-30.03 233.41,-30.83 242.16,-36.79 243.97,-30.03"/>
</a>
</g>
<g id="a_edge15&#45;headlabel"><a xlink:href="dir_000043_000513.html" target="_top" xlink:title="10">
<text text-anchor="middle" x="246.72" y="-23.95" font-family="Helvetica,sans-Serif" font-size="10.00" fill="#63b8ff">10</text>
</a>
</g>
</g>
<!-- dir_c39f392af7f13c65e7a482de8f63f0c9&#45;&gt;dir_f449e64e40a305c379232bc791e77932 -->
<g id="edge14" class="edge">
<title>dir_c39f392af7f13c65e7a482de8f63f0c9&#45;&gt;dir_f449e64e40a305c379232bc791e77932</title>
<g id="a_edge14"><a xlink:href="dir_000043_000042.html" target="_top">
<path fill="none" stroke="#63b8ff" d="M284.56,-126.33C279.34,-119.21 271.81,-108.93 265.31,-100.05"/>
<polygon fill="#63b8ff" stroke="#63b8ff" points="268.21,-98.08 259.47,-92.08 262.56,-102.22 268.21,-98.08"/>
</a>
</g>
<g id="a_edge14&#45;headlabel"><a xlink:href="dir_000043_000042.html" target="_top" xlink:title="1">
<text text-anchor="middle" x="271.73" y="-94.21" font-family="Helvetica,sans-Serif" font-size="10.00" fill="#63b8ff">1</text>
</a>
</g>
</g>
<!-- dir_c39f392af7f13c65e7a482de8f63f0c9&#45;&gt;dir_bdd9a5d540de89e9fe90efdfc6973a4f -->
<g id="edge12" class="edge">
<title>dir_c39f392af7f13c65e7a482de8f63f0c9&#45;&gt;dir_bdd9a5d540de89e9fe90efdfc6973a4f</title>
<g id="a_edge12"><a xlink:href="dir_000043_000045.html" target="_top">
<path fill="none" stroke="#63b8ff" d="M318.2,-134.24C348.27,-131.63 395.44,-122.34 418,-90.5 425,-80.62 423.43,-74.08 418,-63.25 413.6,-54.47 405.99,-47.26 398.07,-41.63"/>
<polygon fill="#63b8ff" stroke="#63b8ff" points="400.03,-38.73 389.71,-36.35 396.29,-44.65 400.03,-38.73"/>
</a>
</g>
<g id="a_edge12&#45;headlabel"><a xlink:href="dir_000043_000045.html" target="_top" xlink:title="2">
<text text-anchor="middle" x="403.31" y="-33.57" font-family="Helvetica,sans-Serif" font-size="10.00" fill="#63b8ff">2</text>
</a>
</g>
</g>
<!-- dir_e9f6397765e90b9450cf2a2f2169ae17 -->
<g id="node8" class="node">
<title>dir_e9f6397765e90b9450cf2a2f2169ae17</title>
<g id="a_node8"><a xlink:href="dir_e9f6397765e90b9450cf2a2f2169ae17.html" target="_top" xlink:title="xesdrv">
<polygon fill="#60a2e3" stroke="#404040" points="124.25,-145.75 79.75,-145.75 79.75,-126.5 124.25,-126.5 124.25,-145.75"/>
<text text-anchor="middle" x="102" y="-132.25" font-family="Helvetica,sans-Serif" font-size="10.00">xesdrv</text>
</a>
</g>
</g>
<!-- dir_e9f6397765e90b9450cf2a2f2169ae17&#45;&gt;dir_9be0baa3d4a3e9f480a9ee70594037fa -->
<g id="edge17" class="edge">
<title>dir_e9f6397765e90b9450cf2a2f2169ae17&#45;&gt;dir_9be0baa3d4a3e9f480a9ee70594037fa</title>
<g id="a_edge17"><a xlink:href="dir_000534_000238.html" target="_top">
<path fill="none" stroke="#63b8ff" d="M99.27,-126.19C95.49,-112.05 90.14,-83.99 100,-63.25 104.01,-54.81 111.03,-47.67 118.35,-42.01"/>
<polygon fill="#63b8ff" stroke="#63b8ff" points="120.09,-45.05 126.33,-36.49 116.11,-39.3 120.09,-45.05"/>
</a>
</g>
<g id="a_edge17&#45;headlabel"><a xlink:href="dir_000534_000238.html" target="_top" xlink:title="1">
<text text-anchor="middle" x="120" y="-44.7" font-family="Helvetica,sans-Serif" font-size="10.00" fill="#63b8ff">1</text>
</a>
</g>
</g>
<!-- dir_e9f6397765e90b9450cf2a2f2169ae17&#45;&gt;dir_40ac35421bc63b72c26b6c69b1517fd6 -->
<g id="edge16" class="edge">
<title>dir_e9f6397765e90b9450cf2a2f2169ae17&#45;&gt;dir_40ac35421bc63b72c26b6c69b1517fd6</title>
<g id="a_edge16"><a xlink:href="dir_000534_000513.html" target="_top">
<path fill="none" stroke="#63b8ff" d="M110.67,-126.25C128.3,-108.21 168.56,-67 191.39,-43.63"/>
<polygon fill="#63b8ff" stroke="#63b8ff" points="193.66,-46.31 198.15,-36.71 188.66,-41.42 193.66,-46.31"/>
</a>
</g>
<g id="a_edge16&#45;headlabel"><a xlink:href="dir_000534_000513.html" target="_top" xlink:title="4">
<text text-anchor="middle" x="194.24" y="-45.91" font-family="Helvetica,sans-Serif" font-size="10.00" fill="#63b8ff">4</text>
</a>
</g>
</g>
<!-- dir_e9f6397765e90b9450cf2a2f2169ae17&#45;&gt;dir_bdd9a5d540de89e9fe90efdfc6973a4f -->
<g id="edge18" class="edge">
<title>dir_e9f6397765e90b9450cf2a2f2169ae17&#45;&gt;dir_bdd9a5d540de89e9fe90efdfc6973a4f</title>
<g id="a_edge18"><a xlink:href="dir_000534_000045.html" target="_top">
<path fill="none" stroke="#63b8ff" d="M124.7,-128.9C127.82,-128.08 130.99,-127.26 134,-126.5 202.6,-109.29 225.35,-121.33 289,-90.5 313.6,-78.58 337.52,-57.93 352.7,-43.34"/>
<polygon fill="#63b8ff" stroke="#63b8ff" points="354.84,-46.14 359.48,-36.62 349.91,-41.17 354.84,-46.14"/>
</a>
</g>
<g id="a_edge18&#45;headlabel"><a xlink:href="dir_000534_000045.html" target="_top" xlink:title="1">
<text text-anchor="middle" x="355.35" y="-45.75" font-family="Helvetica,sans-Serif" font-size="10.00" fill="#63b8ff">1</text>
</a>
</g>
</g>
</g>
</svg>
