<?xml version="1.0" encoding="UTF-8" standalone="no"?>
<!DOCTYPE svg PUBLIC "-//W3C//DTD SVG 1.1//EN"
 "http://www.w3.org/Graphics/SVG/1.1/DTD/svg11.dtd">
<!-- Generated by graphviz version 12.2.0 (20241103.1931)
 -->
<!-- Title: iop/debug/iop_sbusdbg Pages: 1 -->
<svg width="352pt" height="142pt"
 viewBox="0.00 0.00 351.75 141.75" xmlns="http://www.w3.org/2000/svg" xmlns:xlink="http://www.w3.org/1999/xlink">
<g id="graph0" class="graph" transform="scale(1 1) rotate(0) translate(4 137.75)">
<title>iop/debug/iop_sbusdbg</title>
<g id="clust1" class="cluster">
<title>clusterdir_8494d76ae2586079db82d45fe3dd6aec</title>
<g id="a_clust1"><a xlink:href="dir_8494d76ae2586079db82d45fe3dd6aec.html" target="_top" xlink:title="debug">
<polygon fill="#deebf9" stroke="#7f7f7f" stroke-dasharray="5,2" points="8,-8 8,-125.75 222,-125.75 222,-8 8,-8"/>
<text text-anchor="middle" x="115" y="-112.25" font-family="Helvetica,sans-Serif" font-size="10.00">debug</text>
</a>
</g>
</g>
<g id="clust2" class="cluster">
<title>clusterdir_2f080771f6205bbf07c3b5e6545bd3fa</title>
<g id="a_clust2"><a xlink:href="dir_2f080771f6205bbf07c3b5e6545bd3fa.html" target="_top">
<polygon fill="#deebf9" stroke="#404040" stroke-width="2" points="16,-63.25 16,-98.5 214,-98.5 214,-63.25 16,-63.25"/>
</a>
</g>
</g>
<!-- dir_b128a11f24e38182ade4e9889f6c5833 -->
<g id="node1" class="node">
<title>dir_b128a11f24e38182ade4e9889f6c5833</title>
<g id="a_node1"><a xlink:href="dir_b128a11f24e38182ade4e9889f6c5833.html" target="_top" xlink:title="iopdebug">
<polygon fill="#60a2e3" stroke="red" points="154.5,-35.25 99.5,-35.25 99.5,-16 154.5,-16 154.5,-35.25"/>
<text text-anchor="middle" x="127" y="-21.75" font-family="Helvetica,sans-Serif" font-size="10.00">iopdebug</text>
</a>
</g>
</g>
<!-- dir_2f080771f6205bbf07c3b5e6545bd3fa -->
<g id="node2" class="node">
<title>dir_2f080771f6205bbf07c3b5e6545bd3fa</title>
<text text-anchor="middle" x="59" y="-77" font-family="Helvetica,sans-Serif" font-size="10.00">iop_sbusdbg</text>
</g>
<!-- dir_36b98ff8a35b2ed655cbfa91e3ae73e8 -->
<g id="node3" class="node">
<title>dir_36b98ff8a35b2ed655cbfa91e3ae73e8</title>
<g id="a_node3"><a xlink:href="dir_36b98ff8a35b2ed655cbfa91e3ae73e8.html" target="_top" xlink:title="include">
<polygon fill="#60a2e3" stroke="#404040" points="206.38,-90.5 159.62,-90.5 159.62,-71.25 206.38,-71.25 206.38,-90.5"/>
<text text-anchor="middle" x="183" y="-77" font-family="Helvetica,sans-Serif" font-size="10.00">include</text>
</a>
</g>
</g>
<!-- dir_bdd9a5d540de89e9fe90efdfc6973a4f -->
<g id="node5" class="node">
<title>dir_bdd9a5d540de89e9fe90efdfc6973a4f</title>
<g id="a_node5"><a xlink:href="dir_bdd9a5d540de89e9fe90efdfc6973a4f.html" target="_top" xlink:title="common">
<polygon fill="#deebf9" stroke="red" points="343.75,-35.25 290.25,-35.25 290.25,-16 343.75,-16 343.75,-35.25"/>
<text text-anchor="middle" x="317" y="-21.75" font-family="Helvetica,sans-Serif" font-size="10.00">common</text>
</a>
</g>
</g>
<!-- dir_36b98ff8a35b2ed655cbfa91e3ae73e8&#45;&gt;dir_bdd9a5d540de89e9fe90efdfc6973a4f -->
<g id="edge1" class="edge">
<title>dir_36b98ff8a35b2ed655cbfa91e3ae73e8&#45;&gt;dir_bdd9a5d540de89e9fe90efdfc6973a4f</title>
<g id="a_edge1"><a xlink:href="dir_000147_000042.html" target="_top">
<path fill="none" stroke="#63b8ff" d="M205.73,-70.84C227.1,-62.35 259.34,-49.54 283.63,-39.89"/>
<polygon fill="#63b8ff" stroke="#63b8ff" points="284.75,-43.21 292.75,-36.26 282.16,-36.7 284.75,-43.21"/>
</a>
</g>
<g id="a_edge1&#45;headlabel"><a xlink:href="dir_000147_000042.html" target="_top" xlink:title="1">
<text text-anchor="middle" x="283.86" y="-42.74" font-family="Helvetica,sans-Serif" font-size="10.00" fill="#63b8ff">1</text>
</a>
</g>
</g>
<!-- dir_b885b894e4096334a2f073c9bc278b43 -->
<g id="node4" class="node">
<title>dir_b885b894e4096334a2f073c9bc278b43</title>
<g id="a_node4"><a xlink:href="dir_b885b894e4096334a2f073c9bc278b43.html" target="_top" xlink:title="src">
<polygon fill="#60a2e3" stroke="#404040" points="141.75,-90.5 112.25,-90.5 112.25,-71.25 141.75,-71.25 141.75,-90.5"/>
<text text-anchor="middle" x="127" y="-77" font-family="Helvetica,sans-Serif" font-size="10.00">src</text>
</a>
</g>
</g>
<!-- dir_b885b894e4096334a2f073c9bc278b43&#45;&gt;dir_b128a11f24e38182ade4e9889f6c5833 -->
<g id="edge3" class="edge">
<title>dir_b885b894e4096334a2f073c9bc278b43&#45;&gt;dir_b128a11f24e38182ade4e9889f6c5833</title>
<g id="a_edge3"><a xlink:href="dir_000364_000207.html" target="_top">
<path fill="none" stroke="#63b8ff" d="M127,-71.08C127,-64.57 127,-55.42 127,-47.12"/>
<polygon fill="#63b8ff" stroke="#63b8ff" points="130.5,-47.12 127,-37.12 123.5,-47.12 130.5,-47.12"/>
</a>
</g>
<g id="a_edge3&#45;headlabel"><a xlink:href="dir_000364_000207.html" target="_top" xlink:title="4">
<text text-anchor="middle" x="133.34" y="-45.33" font-family="Helvetica,sans-Serif" font-size="10.00" fill="#63b8ff">4</text>
</a>
</g>
</g>
<!-- dir_b885b894e4096334a2f073c9bc278b43&#45;&gt;dir_bdd9a5d540de89e9fe90efdfc6973a4f -->
<g id="edge4" class="edge">
<title>dir_b885b894e4096334a2f073c9bc278b43&#45;&gt;dir_bdd9a5d540de89e9fe90efdfc6973a4f</title>
<g id="a_edge4"><a xlink:href="dir_000364_000042.html" target="_top">
<path fill="none" stroke="#63b8ff" d="M138.17,-70.78C142.04,-68.01 146.54,-65.19 151,-63.25 202.05,-41.12 221.12,-47.46 278.68,-35.62"/>
<polygon fill="#63b8ff" stroke="#63b8ff" points="279.38,-39.05 288.41,-33.51 277.89,-32.21 279.38,-39.05"/>
</a>
</g>
<g id="a_edge4&#45;headlabel"><a xlink:href="dir_000364_000042.html" target="_top" xlink:title="11">
<text text-anchor="middle" x="277.95" y="-38.39" font-family="Helvetica,sans-Serif" font-size="10.00" fill="#63b8ff">11</text>
</a>
</g>
</g>
<!-- dir_9be0baa3d4a3e9f480a9ee70594037fa -->
<g id="node6" class="node">
<title>dir_9be0baa3d4a3e9f480a9ee70594037fa</title>
<g id="a_node6"><a xlink:href="dir_9be0baa3d4a3e9f480a9ee70594037fa.html" target="_top" xlink:title="kernel">
<polygon fill="#deebf9" stroke="red" stroke-dasharray="5,2" points="272.12,-35.25 229.88,-35.25 229.88,-16 272.12,-16 272.12,-35.25"/>
<text text-anchor="middle" x="251" y="-21.75" font-family="Helvetica,sans-Serif" font-size="10.00">kernel</text>
</a>
</g>
</g>
<!-- dir_b885b894e4096334a2f073c9bc278b43&#45;&gt;dir_9be0baa3d4a3e9f480a9ee70594037fa -->
<g id="edge2" class="edge">
<title>dir_b885b894e4096334a2f073c9bc278b43&#45;&gt;dir_9be0baa3d4a3e9f480a9ee70594037fa</title>
<g id="a_edge2"><a xlink:href="dir_000364_000212.html" target="_top">
<path fill="none" stroke="#63b8ff" d="M138.83,-70.79C142.6,-68.15 146.86,-65.4 151,-63.25 157.31,-59.98 192.14,-47.42 218.93,-37.91"/>
<polygon fill="#63b8ff" stroke="#63b8ff" points="219.77,-41.33 228.03,-34.69 217.44,-34.73 219.77,-41.33"/>
</a>
</g>
<g id="a_edge2&#45;headlabel"><a xlink:href="dir_000364_000212.html" target="_top" xlink:title="30">
<text text-anchor="middle" x="218.76" y="-40.82" font-family="Helvetica,sans-Serif" font-size="10.00" fill="#63b8ff">30</text>
</a>
</g>
</g>
</g>
</svg>
