<?xml version="1.0" encoding="UTF-8" standalone="no"?>
<!DOCTYPE svg PUBLIC "-//W3C//DTD SVG 1.1//EN"
 "http://www.w3.org/Graphics/SVG/1.1/DTD/svg11.dtd">
<!-- Generated by graphviz version 12.2.0 (20241103.1931)
 -->
<!-- Title: iop/arcade Pages: 1 -->
<!--zoomable 142 -->

<svg id="main" version="1.1" xmlns="http://www.w3.org/2000/svg" xmlns:xlink="http://www.w3.org/1999/xlink" xml:space="preserve" onload="init(evt)">

<style type="text/css"><![CDATA[
.node, .edge {opacity: 0.7;}
.node.selected, .edge.selected {opacity: 1;}
.edge:hover path { stroke: red; }
.edge:hover polygon { stroke: red; fill: red; }
]]></style>

<defs>
  <circle id="rim" cx="0" cy="0" r="7"/>
  <circle id="rim2" cx="0" cy="0" r="3.5"/>
  <g id="zoomPlus">
    <use xlink:href="#rim" fill="#404040"><set attributeName="fill" to="#808080" begin="zoomplus.mouseover" end="zoomplus.mouseout"/></use>
    <path d="M-4,0h8M0,-4v8" fill="none" stroke="white" stroke-width="1.5" pointer-events="none"/>
  </g>
  <g id="zoomMin">
    <use xlink:href="#rim" fill="#404040"><set attributeName="fill" to="#808080" begin="zoomminus.mouseover" end="zoomminus.mouseout"/></use>
    <path d="M-4,0h8" fill="none" stroke="white" stroke-width="1.5" pointer-events="none"/>
  </g>
  <g id="arrowUp" transform="translate(30 24)">
    <use xlink:href="#rim"/>
    <path pointer-events="none" fill="none" stroke="white" stroke-width="1.5" d="M0,-3.0v7 M-2.5,-0.5L0,-3.0L2.5,-0.5"/>
  </g>
  <g id="arrowRight" transform="rotate(90) translate(36 -43)">
    <use xlink:href="#rim"/>
    <path pointer-events="none" fill="none" stroke="white" stroke-width="1.5" d="M0,-3.0v7 M-2.5,-0.5L0,-3.0L2.5,-0.5"/>
  </g>
  <g id="arrowDown" transform="rotate(180) translate(-30 -48)">
    <use xlink:href="#rim"/>
    <path pointer-events="none" fill="none" stroke="white" stroke-width="1.5" d="M0,-3.0v7 M-2.5,-0.5L0,-3.0L2.5,-0.5"/>
  </g>
  <g id="arrowLeft" transform="rotate(270) translate(-36 17)">
    <use xlink:href="#rim"/>
    <path pointer-events="none" fill="none" stroke="white" stroke-width="1.5" d="M0,-3.0v7 M-2.5,-0.5L0,-3.0L2.5,-0.5"/>
  </g>
  <g id="resetDef">
    <use xlink:href="#rim2" fill="#404040"><set attributeName="fill" to="#808080" begin="reset.mouseover" end="reset.mouseout"/></use>
  </g>
</defs>
<script type="application/ecmascript">
var viewWidth = 1297;
var viewHeight = 142;
var sectionId = 'dynsection-0';
</script>
<script type="application/ecmascript" xlink:href="svg.min.js"/>
<svg id="graph" class="graph">
<g id="viewport">
<title>iop/arcade</title>
<g id="clust1" class="cluster">
<title>clusterdir_0981ace215aa2029f526b70c145b9fbe</title>
<g id="a_clust1"><a xlink:href="dir_0981ace215aa2029f526b70c145b9fbe.html" target="_top" xlink:title="iop">
<polygon fill="#deebf9" stroke="#404040" stroke-dasharray="5,2" points="8,-8 8,-125.75 1227,-125.75 1227,-8 8,-8"/>
<text text-anchor="middle" x="617.5" y="-112.25" font-family="Helvetica,sans-Serif" font-size="10.00">iop</text>
</a>
</g>
</g>
<g id="clust2" class="cluster">
<title>clusterdir_83706370b12deb47497ed91304cced4b</title>
<g id="a_clust2"><a xlink:href="dir_83706370b12deb47497ed91304cced4b.html" target="_top">
<polygon fill="#deebf9" stroke="#404040" stroke-width="2" points="16,-63.25 16,-98.5 1219,-98.5 1219,-63.25 16,-63.25"/>
</a>
</g>
</g>
<!-- dir_9be0baa3d4a3e9f480a9ee70594037fa -->
<g id="node1" class="node">
<title>dir_9be0baa3d4a3e9f480a9ee70594037fa</title>
<g id="a_node1"><a xlink:href="dir_9be0baa3d4a3e9f480a9ee70594037fa.html" target="_top" xlink:title="kernel">
<polygon fill="#60a2e3" stroke="red" points="677.12,-35.25 634.88,-35.25 634.88,-16 677.12,-16 677.12,-35.25"/>
<text text-anchor="middle" x="656" y="-21.75" font-family="Helvetica,sans-Serif" font-size="10.00">kernel</text>
</a>
</g>
</g>
<!-- dir_6f16cad81de2453a6f48c5e272ba4a18 -->
<g id="node2" class="node">
<title>dir_6f16cad81de2453a6f48c5e272ba4a18</title>
<g id="a_node2"><a xlink:href="dir_6f16cad81de2453a6f48c5e272ba4a18.html" target="_top" xlink:title="dev9">
<polygon fill="#60a2e3" stroke="red" points="1052.5,-35.25 1015.5,-35.25 1015.5,-16 1052.5,-16 1052.5,-35.25"/>
<text text-anchor="middle" x="1034" y="-21.75" font-family="Helvetica,sans-Serif" font-size="10.00">dev9</text>
</a>
</g>
</g>
<!-- dir_f24daea2522ffa8b6dc5fa9cdf5b8f5c -->
<g id="node3" class="node">
<title>dir_f24daea2522ffa8b6dc5fa9cdf5b8f5c</title>
<g id="a_node3"><a xlink:href="dir_f24daea2522ffa8b6dc5fa9cdf5b8f5c.html" target="_top" xlink:title="fs">
<polygon fill="#60a2e3" stroke="red" points="1204.4,-35.25 1175.6,-35.25 1175.6,-16 1204.4,-16 1204.4,-35.25"/>
<text text-anchor="middle" x="1190" y="-21.75" font-family="Helvetica,sans-Serif" font-size="10.00">fs</text>
</a>
</g>
</g>
<!-- dir_83706370b12deb47497ed91304cced4b -->
<g id="node4" class="node">
<title>dir_83706370b12deb47497ed91304cced4b</title>
<text text-anchor="middle" x="47" y="-77" font-family="Helvetica,sans-Serif" font-size="10.00">arcade</text>
</g>
<!-- dir_c2249c15dcb99f353cb0bb3a93761cbc -->
<g id="node5" class="node">
<title>dir_c2249c15dcb99f353cb0bb3a93761cbc</title>
<g id="a_node5"><a xlink:href="dir_c2249c15dcb99f353cb0bb3a93761cbc.html" target="_top" xlink:title="acata">
<polygon fill="#60a2e3" stroke="#404040" points="128,-90.5 88,-90.5 88,-71.25 128,-71.25 128,-90.5"/>
<text text-anchor="middle" x="108" y="-77" font-family="Helvetica,sans-Serif" font-size="10.00">acata</text>
</a>
</g>
</g>
<!-- dir_c2249c15dcb99f353cb0bb3a93761cbc&#45;&gt;dir_9be0baa3d4a3e9f480a9ee70594037fa -->
<g id="edge1" class="edge">
<title>dir_c2249c15dcb99f353cb0bb3a93761cbc&#45;&gt;dir_9be0baa3d4a3e9f480a9ee70594037fa</title>
<g id="a_edge1"><a xlink:href="dir_000000_000212.html" target="_top">
<path fill="none" stroke="#63b8ff" d="M121,-70.76C125.81,-67.85 131.45,-64.94 137,-63.25 228.56,-35.38 524.17,-28.55 623.27,-27.03"/>
<polygon fill="#63b8ff" stroke="#63b8ff" points="623.15,-30.53 633.1,-26.89 623.05,-23.53 623.15,-30.53"/>
</a>
</g>
<g id="a_edge1&#45;headlabel"><a xlink:href="dir_000000_000212.html" target="_top" xlink:title="7">
<text text-anchor="middle" x="621.11" y="-29.53" font-family="Helvetica,sans-Serif" font-size="10.00" fill="#63b8ff">7</text>
</a>
</g>
</g>
<!-- dir_3e33cc838f00d2e02fc45a4479cb1f60 -->
<g id="node6" class="node">
<title>dir_3e33cc838f00d2e02fc45a4479cb1f60</title>
<g id="a_node6"><a xlink:href="dir_3e33cc838f00d2e02fc45a4479cb1f60.html" target="_top" xlink:title="acatad">
<polygon fill="#60a2e3" stroke="#404040" points="1150.62,-90.5 1105.38,-90.5 1105.38,-71.25 1150.62,-71.25 1150.62,-90.5"/>
<text text-anchor="middle" x="1128" y="-77" font-family="Helvetica,sans-Serif" font-size="10.00">acatad</text>
</a>
</g>
</g>
<!-- dir_3e33cc838f00d2e02fc45a4479cb1f60&#45;&gt;dir_9be0baa3d4a3e9f480a9ee70594037fa -->
<g id="edge4" class="edge">
<title>dir_3e33cc838f00d2e02fc45a4479cb1f60&#45;&gt;dir_9be0baa3d4a3e9f480a9ee70594037fa</title>
<g id="a_edge4"><a xlink:href="dir_000001_000212.html" target="_top">
<path fill="none" stroke="#63b8ff" d="M1114.02,-70.81C1108.87,-67.9 1102.86,-64.98 1097,-63.25 1020.48,-40.62 777.77,-30.6 688.96,-27.63"/>
<polygon fill="#63b8ff" stroke="#63b8ff" points="689.11,-24.13 679,-27.3 688.88,-31.13 689.11,-24.13"/>
</a>
</g>
<g id="a_edge4&#45;headlabel"><a xlink:href="dir_000001_000212.html" target="_top" xlink:title="5">
<text text-anchor="middle" x="691.28" y="-17.48" font-family="Helvetica,sans-Serif" font-size="10.00" fill="#63b8ff">5</text>
</a>
</g>
</g>
<!-- dir_3e33cc838f00d2e02fc45a4479cb1f60&#45;&gt;dir_6f16cad81de2453a6f48c5e272ba4a18 -->
<g id="edge2" class="edge">
<title>dir_3e33cc838f00d2e02fc45a4479cb1f60&#45;&gt;dir_6f16cad81de2453a6f48c5e272ba4a18</title>
<g id="a_edge2"><a xlink:href="dir_000001_000046.html" target="_top">
<path fill="none" stroke="#63b8ff" d="M1112.05,-70.84C1097.74,-62.73 1076.47,-50.68 1059.75,-41.21"/>
<polygon fill="#63b8ff" stroke="#63b8ff" points="1061.77,-38.33 1051.34,-36.45 1058.32,-44.42 1061.77,-38.33"/>
</a>
</g>
<g id="a_edge2&#45;headlabel"><a xlink:href="dir_000001_000046.html" target="_top" xlink:title="1">
<text text-anchor="middle" x="1064.98" y="-33.01" font-family="Helvetica,sans-Serif" font-size="10.00" fill="#63b8ff">1</text>
</a>
</g>
</g>
<!-- dir_bdd9a5d540de89e9fe90efdfc6973a4f -->
<g id="node23" class="node">
<title>dir_bdd9a5d540de89e9fe90efdfc6973a4f</title>
<g id="a_node23"><a xlink:href="dir_bdd9a5d540de89e9fe90efdfc6973a4f.html" target="_top" xlink:title="common">
<polygon fill="#deebf9" stroke="red" points="1288.75,-35.25 1235.25,-35.25 1235.25,-16 1288.75,-16 1288.75,-35.25"/>
<text text-anchor="middle" x="1262" y="-21.75" font-family="Helvetica,sans-Serif" font-size="10.00">common</text>
</a>
</g>
</g>
<!-- dir_3e33cc838f00d2e02fc45a4479cb1f60&#45;&gt;dir_bdd9a5d540de89e9fe90efdfc6973a4f -->
<g id="edge3" class="edge">
<title>dir_3e33cc838f00d2e02fc45a4479cb1f60&#45;&gt;dir_bdd9a5d540de89e9fe90efdfc6973a4f</title>
<g id="a_edge3"><a xlink:href="dir_000001_000042.html" target="_top">
<path fill="none" stroke="#63b8ff" d="M1144.4,-70.82C1149.35,-68.23 1154.84,-65.51 1160,-63.25 1180.75,-54.18 1204.54,-45.54 1223.92,-38.94"/>
<polygon fill="#63b8ff" stroke="#63b8ff" points="1224.97,-42.28 1233.33,-35.77 1222.74,-35.64 1224.97,-42.28"/>
</a>
</g>
<g id="a_edge3&#45;headlabel"><a xlink:href="dir_000001_000042.html" target="_top" xlink:title="1">
<text text-anchor="middle" x="1223.9" y="-41.76" font-family="Helvetica,sans-Serif" font-size="10.00" fill="#63b8ff">1</text>
</a>
</g>
</g>
<!-- dir_d5480c28c70feff4085e53014a5bb4c3 -->
<g id="node7" class="node">
<title>dir_d5480c28c70feff4085e53014a5bb4c3</title>
<g id="a_node7"><a xlink:href="dir_d5480c28c70feff4085e53014a5bb4c3.html" target="_top" xlink:title="accdvd">
<polygon fill="#60a2e3" stroke="#404040" points="193.75,-90.5 146.25,-90.5 146.25,-71.25 193.75,-71.25 193.75,-90.5"/>
<text text-anchor="middle" x="170" y="-77" font-family="Helvetica,sans-Serif" font-size="10.00">accdvd</text>
</a>
</g>
</g>
<!-- dir_d5480c28c70feff4085e53014a5bb4c3&#45;&gt;dir_9be0baa3d4a3e9f480a9ee70594037fa -->
<g id="edge5" class="edge">
<title>dir_d5480c28c70feff4085e53014a5bb4c3&#45;&gt;dir_9be0baa3d4a3e9f480a9ee70594037fa</title>
<g id="a_edge5"><a xlink:href="dir_000002_000212.html" target="_top">
<path fill="none" stroke="#63b8ff" d="M184.95,-70.81C190.44,-67.9 196.82,-64.98 203,-63.25 282.16,-41.03 532.69,-30.71 623.08,-27.65"/>
<polygon fill="#63b8ff" stroke="#63b8ff" points="623.1,-31.15 632.98,-27.32 622.87,-24.15 623.1,-31.15"/>
</a>
</g>
<g id="a_edge5&#45;headlabel"><a xlink:href="dir_000002_000212.html" target="_top" xlink:title="11">
<text text-anchor="middle" x="621.11" y="-30.18" font-family="Helvetica,sans-Serif" font-size="10.00" fill="#63b8ff">11</text>
</a>
</g>
</g>
<!-- dir_4802f7d95fb602d0291cc88043ed0216 -->
<g id="node8" class="node">
<title>dir_4802f7d95fb602d0291cc88043ed0216</title>
<g id="a_node8"><a xlink:href="dir_4802f7d95fb602d0291cc88043ed0216.html" target="_top" xlink:title="accdvde">
<polygon fill="#60a2e3" stroke="#404040" points="264.38,-90.5 211.62,-90.5 211.62,-71.25 264.38,-71.25 264.38,-90.5"/>
<text text-anchor="middle" x="238" y="-77" font-family="Helvetica,sans-Serif" font-size="10.00">accdvde</text>
</a>
</g>
</g>
<!-- dir_4802f7d95fb602d0291cc88043ed0216&#45;&gt;dir_9be0baa3d4a3e9f480a9ee70594037fa -->
<g id="edge6" class="edge">
<title>dir_4802f7d95fb602d0291cc88043ed0216&#45;&gt;dir_9be0baa3d4a3e9f480a9ee70594037fa</title>
<g id="a_edge6"><a xlink:href="dir_000003_000212.html" target="_top">
<path fill="none" stroke="#63b8ff" d="M254.41,-70.88C260.41,-67.98 267.35,-65.05 274,-63.25 399.63,-29.28 555.96,-25.83 622.98,-26.1"/>
<polygon fill="#63b8ff" stroke="#63b8ff" points="622.89,-29.6 632.92,-26.17 622.95,-22.6 622.89,-29.6"/>
</a>
</g>
<g id="a_edge6&#45;headlabel"><a xlink:href="dir_000003_000212.html" target="_top" xlink:title="7">
<text text-anchor="middle" x="620.79" y="-28.54" font-family="Helvetica,sans-Serif" font-size="10.00" fill="#63b8ff">7</text>
</a>
</g>
</g>
<!-- dir_8c41b7aa740fda79cdc4490331cf7b7d -->
<g id="node9" class="node">
<title>dir_8c41b7aa740fda79cdc4490331cf7b7d</title>
<g id="a_node9"><a xlink:href="dir_8c41b7aa740fda79cdc4490331cf7b7d.html" target="_top" xlink:title="accore">
<polygon fill="#60a2e3" stroke="#404040" points="1026.62,-90.5 981.38,-90.5 981.38,-71.25 1026.62,-71.25 1026.62,-90.5"/>
<text text-anchor="middle" x="1004" y="-77" font-family="Helvetica,sans-Serif" font-size="10.00">accore</text>
</a>
</g>
</g>
<!-- dir_8c41b7aa740fda79cdc4490331cf7b7d&#45;&gt;dir_9be0baa3d4a3e9f480a9ee70594037fa -->
<g id="edge7" class="edge">
<title>dir_8c41b7aa740fda79cdc4490331cf7b7d&#45;&gt;dir_9be0baa3d4a3e9f480a9ee70594037fa</title>
<g id="a_edge7"><a xlink:href="dir_000004_000212.html" target="_top">
<path fill="none" stroke="#63b8ff" d="M989.99,-70.91C984.83,-68.01 978.83,-65.08 973,-63.25 872.81,-31.86 747.23,-26.87 688.76,-26.4"/>
<polygon fill="#63b8ff" stroke="#63b8ff" points="688.86,-22.9 678.85,-26.37 688.84,-29.9 688.86,-22.9"/>
</a>
</g>
<g id="a_edge7&#45;headlabel"><a xlink:href="dir_000004_000212.html" target="_top" xlink:title="6">
<text text-anchor="middle" x="690.95" y="-16.19" font-family="Helvetica,sans-Serif" font-size="10.00" fill="#63b8ff">6</text>
</a>
</g>
</g>
<!-- dir_8c41b7aa740fda79cdc4490331cf7b7d&#45;&gt;dir_bdd9a5d540de89e9fe90efdfc6973a4f -->
<g id="edge8" class="edge">
<title>dir_8c41b7aa740fda79cdc4490331cf7b7d&#45;&gt;dir_bdd9a5d540de89e9fe90efdfc6973a4f</title>
<g id="a_edge8"><a xlink:href="dir_000004_000042.html" target="_top">
<path fill="none" stroke="#63b8ff" d="M1018.85,-70.84C1024.1,-68 1030.16,-65.13 1036,-63.25 1115.78,-37.62 1142.98,-51.88 1223.78,-36.6"/>
<polygon fill="#63b8ff" stroke="#63b8ff" points="1224.4,-40.05 1233.52,-34.65 1223.02,-33.18 1224.4,-40.05"/>
</a>
</g>
<g id="a_edge8&#45;headlabel"><a xlink:href="dir_000004_000042.html" target="_top" xlink:title="1">
<text text-anchor="middle" x="1222.91" y="-39.36" font-family="Helvetica,sans-Serif" font-size="10.00" fill="#63b8ff">1</text>
</a>
</g>
</g>
<!-- dir_e1d9c48c0fe693840f397bd0f86d700a -->
<g id="node10" class="node">
<title>dir_e1d9c48c0fe693840f397bd0f86d700a</title>
<g id="a_node10"><a xlink:href="dir_e1d9c48c0fe693840f397bd0f86d700a.html" target="_top" xlink:title="acdev">
<polygon fill="#60a2e3" stroke="#404040" points="1211.12,-90.5 1168.88,-90.5 1168.88,-71.25 1211.12,-71.25 1211.12,-90.5"/>
<text text-anchor="middle" x="1190" y="-77" font-family="Helvetica,sans-Serif" font-size="10.00">acdev</text>
</a>
</g>
</g>
<!-- dir_e1d9c48c0fe693840f397bd0f86d700a&#45;&gt;dir_9be0baa3d4a3e9f480a9ee70594037fa -->
<g id="edge9" class="edge">
<title>dir_e1d9c48c0fe693840f397bd0f86d700a&#45;&gt;dir_9be0baa3d4a3e9f480a9ee70594037fa</title>
<g id="a_edge9"><a xlink:href="dir_000005_000212.html" target="_top">
<path fill="none" stroke="#63b8ff" d="M1176.51,-70.77C1171.53,-67.86 1165.71,-64.95 1160,-63.25 1071.3,-36.85 786.49,-29.09 689.05,-27.18"/>
<polygon fill="#63b8ff" stroke="#63b8ff" points="689.19,-23.68 679.12,-26.99 689.06,-30.68 689.19,-23.68"/>
</a>
</g>
<g id="a_edge9&#45;headlabel"><a xlink:href="dir_000005_000212.html" target="_top" xlink:title="6">
<text text-anchor="middle" x="691.32" y="-17" font-family="Helvetica,sans-Serif" font-size="10.00" fill="#63b8ff">6</text>
</a>
</g>
</g>
<!-- dir_e1d9c48c0fe693840f397bd0f86d700a&#45;&gt;dir_f24daea2522ffa8b6dc5fa9cdf5b8f5c -->
<g id="edge11" class="edge">
<title>dir_e1d9c48c0fe693840f397bd0f86d700a&#45;&gt;dir_f24daea2522ffa8b6dc5fa9cdf5b8f5c</title>
<g id="a_edge11"><a xlink:href="dir_000005_000074.html" target="_top">
<path fill="none" stroke="#63b8ff" d="M1190,-71.08C1190,-64.57 1190,-55.42 1190,-47.12"/>
<polygon fill="#63b8ff" stroke="#63b8ff" points="1193.5,-47.12 1190,-37.12 1186.5,-47.12 1193.5,-47.12"/>
</a>
</g>
<g id="a_edge11&#45;headlabel"><a xlink:href="dir_000005_000074.html" target="_top" xlink:title="1">
<text text-anchor="middle" x="1196.34" y="-45.33" font-family="Helvetica,sans-Serif" font-size="10.00" fill="#63b8ff">1</text>
</a>
</g>
</g>
<!-- dir_e1d9c48c0fe693840f397bd0f86d700a&#45;&gt;dir_bdd9a5d540de89e9fe90efdfc6973a4f -->
<g id="edge10" class="edge">
<title>dir_e1d9c48c0fe693840f397bd0f86d700a&#45;&gt;dir_bdd9a5d540de89e9fe90efdfc6973a4f</title>
<g id="a_edge10"><a xlink:href="dir_000005_000042.html" target="_top">
<path fill="none" stroke="#63b8ff" d="M1202.21,-70.84C1212.83,-62.99 1228.44,-51.45 1241.04,-42.12"/>
<polygon fill="#63b8ff" stroke="#63b8ff" points="1242.79,-45.19 1248.75,-36.42 1238.63,-39.56 1242.79,-45.19"/>
</a>
</g>
<g id="a_edge10&#45;headlabel"><a xlink:href="dir_000005_000042.html" target="_top" xlink:title="1">
<text text-anchor="middle" x="1242.81" y="-44.83" font-family="Helvetica,sans-Serif" font-size="10.00" fill="#63b8ff">1</text>
</a>
</g>
</g>
<!-- dir_db911554707e5978c632e5ebc00a1f14 -->
<g id="node11" class="node">
<title>dir_db911554707e5978c632e5ebc00a1f14</title>
<g id="a_node11"><a xlink:href="dir_db911554707e5978c632e5ebc00a1f14.html" target="_top" xlink:title="acdev9">
<polygon fill="#60a2e3" stroke="#404040" points="963.75,-90.5 916.25,-90.5 916.25,-71.25 963.75,-71.25 963.75,-90.5"/>
<text text-anchor="middle" x="940" y="-77" font-family="Helvetica,sans-Serif" font-size="10.00">acdev9</text>
</a>
</g>
</g>
<!-- dir_db911554707e5978c632e5ebc00a1f14&#45;&gt;dir_9be0baa3d4a3e9f480a9ee70594037fa -->
<g id="edge13" class="edge">
<title>dir_db911554707e5978c632e5ebc00a1f14&#45;&gt;dir_9be0baa3d4a3e9f480a9ee70594037fa</title>
<g id="a_edge13"><a xlink:href="dir_000006_000212.html" target="_top">
<path fill="none" stroke="#63b8ff" d="M924.66,-70.86C919.24,-68.02 913,-65.14 907,-63.25 831.12,-39.3 737.31,-30.91 688.69,-28.05"/>
<polygon fill="#63b8ff" stroke="#63b8ff" points="689.02,-24.56 678.85,-27.52 688.64,-31.55 689.02,-24.56"/>
</a>
</g>
<g id="a_edge13&#45;headlabel"><a xlink:href="dir_000006_000212.html" target="_top" xlink:title="3">
<text text-anchor="middle" x="691.25" y="-17.97" font-family="Helvetica,sans-Serif" font-size="10.00" fill="#63b8ff">3</text>
</a>
</g>
</g>
<!-- dir_db911554707e5978c632e5ebc00a1f14&#45;&gt;dir_6f16cad81de2453a6f48c5e272ba4a18 -->
<g id="edge12" class="edge">
<title>dir_db911554707e5978c632e5ebc00a1f14&#45;&gt;dir_6f16cad81de2453a6f48c5e272ba4a18</title>
<g id="a_edge12"><a xlink:href="dir_000006_000046.html" target="_top">
<path fill="none" stroke="#63b8ff" d="M955.95,-70.84C970.26,-62.73 991.53,-50.68 1008.25,-41.21"/>
<polygon fill="#63b8ff" stroke="#63b8ff" points="1009.68,-44.42 1016.66,-36.45 1006.23,-38.33 1009.68,-44.42"/>
</a>
</g>
<g id="a_edge12&#45;headlabel"><a xlink:href="dir_000006_000046.html" target="_top" xlink:title="1">
<text text-anchor="middle" x="1009.27" y="-44.04" font-family="Helvetica,sans-Serif" font-size="10.00" fill="#63b8ff">1</text>
</a>
</g>
</g>
<!-- dir_80f6da64465a1795342f9b5f13be8909 -->
<g id="node12" class="node">
<title>dir_80f6da64465a1795342f9b5f13be8909</title>
<g id="a_node12"><a xlink:href="dir_80f6da64465a1795342f9b5f13be8909.html" target="_top" xlink:title="acflash">
<polygon fill="#60a2e3" stroke="#404040" points="329.38,-90.5 282.62,-90.5 282.62,-71.25 329.38,-71.25 329.38,-90.5"/>
<text text-anchor="middle" x="306" y="-77" font-family="Helvetica,sans-Serif" font-size="10.00">acflash</text>
</a>
</g>
</g>
<!-- dir_80f6da64465a1795342f9b5f13be8909&#45;&gt;dir_9be0baa3d4a3e9f480a9ee70594037fa -->
<g id="edge14" class="edge">
<title>dir_80f6da64465a1795342f9b5f13be8909&#45;&gt;dir_9be0baa3d4a3e9f480a9ee70594037fa</title>
<g id="a_edge14"><a xlink:href="dir_000007_000212.html" target="_top">
<path fill="none" stroke="#63b8ff" d="M321.31,-70.75C326.73,-67.91 332.98,-65.05 339,-63.25 439.59,-33.14 564.98,-27.54 623.32,-26.66"/>
<polygon fill="#63b8ff" stroke="#63b8ff" points="623.24,-30.16 633.2,-26.55 623.17,-23.16 623.24,-30.16"/>
</a>
</g>
<g id="a_edge14&#45;headlabel"><a xlink:href="dir_000007_000212.html" target="_top" xlink:title="4">
<text text-anchor="middle" x="621.19" y="-29.15" font-family="Helvetica,sans-Serif" font-size="10.00" fill="#63b8ff">4</text>
</a>
</g>
</g>
<!-- dir_3f94e3a7ba0cb8dddc276738ef412c16 -->
<g id="node13" class="node">
<title>dir_3f94e3a7ba0cb8dddc276738ef412c16</title>
<g id="a_node13"><a xlink:href="dir_3f94e3a7ba0cb8dddc276738ef412c16.html" target="_top" xlink:title="acfpgald">
<polygon fill="#60a2e3" stroke="#404040" points="400.38,-90.5 347.62,-90.5 347.62,-71.25 400.38,-71.25 400.38,-90.5"/>
<text text-anchor="middle" x="374" y="-77" font-family="Helvetica,sans-Serif" font-size="10.00">acfpgald</text>
</a>
</g>
</g>
<!-- dir_3f94e3a7ba0cb8dddc276738ef412c16&#45;&gt;dir_9be0baa3d4a3e9f480a9ee70594037fa -->
<g id="edge15" class="edge">
<title>dir_3f94e3a7ba0cb8dddc276738ef412c16&#45;&gt;dir_9be0baa3d4a3e9f480a9ee70594037fa</title>
<g id="a_edge15"><a xlink:href="dir_000008_000212.html" target="_top">
<path fill="none" stroke="#63b8ff" d="M390.33,-70.89C396.09,-68.05 402.69,-65.17 409,-63.25 483.56,-40.57 575.2,-31.68 623.17,-28.4"/>
<polygon fill="#63b8ff" stroke="#63b8ff" points="623.12,-31.91 632.88,-27.78 622.67,-24.92 623.12,-31.91"/>
</a>
</g>
<g id="a_edge15&#45;headlabel"><a xlink:href="dir_000008_000212.html" target="_top" xlink:title="5">
<text text-anchor="middle" x="621.22" y="-31" font-family="Helvetica,sans-Serif" font-size="10.00" fill="#63b8ff">5</text>
</a>
</g>
</g>
<!-- dir_50d3aa1cb52f1ed06631164a65eecb46 -->
<g id="node14" class="node">
<title>dir_50d3aa1cb52f1ed06631164a65eecb46</title>
<g id="a_node14"><a xlink:href="dir_50d3aa1cb52f1ed06631164a65eecb46.html" target="_top" xlink:title="acjv">
<polygon fill="#60a2e3" stroke="#404040" points="452,-90.5 418,-90.5 418,-71.25 452,-71.25 452,-90.5"/>
<text text-anchor="middle" x="435" y="-77" font-family="Helvetica,sans-Serif" font-size="10.00">acjv</text>
</a>
</g>
</g>
<!-- dir_50d3aa1cb52f1ed06631164a65eecb46&#45;&gt;dir_9be0baa3d4a3e9f480a9ee70594037fa -->
<g id="edge16" class="edge">
<title>dir_50d3aa1cb52f1ed06631164a65eecb46&#45;&gt;dir_9be0baa3d4a3e9f480a9ee70594037fa</title>
<g id="a_edge16"><a xlink:href="dir_000009_000212.html" target="_top">
<path fill="none" stroke="#63b8ff" d="M446.91,-70.9C451.16,-68.07 456.12,-65.18 461,-63.25 515.41,-41.69 583.51,-32.61 623.14,-28.95"/>
<polygon fill="#63b8ff" stroke="#63b8ff" points="623.31,-32.45 632.98,-28.11 622.71,-25.47 623.31,-32.45"/>
</a>
</g>
<g id="a_edge16&#45;headlabel"><a xlink:href="dir_000009_000212.html" target="_top" xlink:title="2">
<text text-anchor="middle" x="621.48" y="-31.58" font-family="Helvetica,sans-Serif" font-size="10.00" fill="#63b8ff">2</text>
</a>
</g>
</g>
<!-- dir_940f37c3979c10ff959587dc675877f7 -->
<g id="node15" class="node">
<title>dir_940f37c3979c10ff959587dc675877f7</title>
<g id="a_node15"><a xlink:href="dir_940f37c3979c10ff959587dc675877f7.html" target="_top" xlink:title="acjvld">
<polygon fill="#60a2e3" stroke="#404040" points="511.75,-90.5 470.25,-90.5 470.25,-71.25 511.75,-71.25 511.75,-90.5"/>
<text text-anchor="middle" x="491" y="-77" font-family="Helvetica,sans-Serif" font-size="10.00">acjvld</text>
</a>
</g>
</g>
<!-- dir_940f37c3979c10ff959587dc675877f7&#45;&gt;dir_9be0baa3d4a3e9f480a9ee70594037fa -->
<g id="edge17" class="edge">
<title>dir_940f37c3979c10ff959587dc675877f7&#45;&gt;dir_9be0baa3d4a3e9f480a9ee70594037fa</title>
<g id="a_edge17"><a xlink:href="dir_000010_000212.html" target="_top">
<path fill="none" stroke="#63b8ff" d="M505.61,-70.86C510.39,-68.16 515.81,-65.35 521,-63.25 554.87,-49.51 595.57,-39.27 623.37,-33.16"/>
<polygon fill="#63b8ff" stroke="#63b8ff" points="623.91,-36.62 632.96,-31.11 622.44,-29.78 623.91,-36.62"/>
</a>
</g>
<g id="a_edge17&#45;headlabel"><a xlink:href="dir_000010_000212.html" target="_top" xlink:title="4">
<text text-anchor="middle" x="622.46" y="-35.96" font-family="Helvetica,sans-Serif" font-size="10.00" fill="#63b8ff">4</text>
</a>
</g>
</g>
<!-- dir_a75e69d790b6d0b75ca4561c0370959b -->
<g id="node16" class="node">
<title>dir_a75e69d790b6d0b75ca4561c0370959b</title>
<g id="a_node16"><a xlink:href="dir_a75e69d790b6d0b75ca4561c0370959b.html" target="_top" xlink:title="acmem">
<polygon fill="#60a2e3" stroke="#404040" points="578.12,-90.5 529.88,-90.5 529.88,-71.25 578.12,-71.25 578.12,-90.5"/>
<text text-anchor="middle" x="554" y="-77" font-family="Helvetica,sans-Serif" font-size="10.00">acmem</text>
</a>
</g>
</g>
<!-- dir_a75e69d790b6d0b75ca4561c0370959b&#45;&gt;dir_9be0baa3d4a3e9f480a9ee70594037fa -->
<g id="edge18" class="edge">
<title>dir_a75e69d790b6d0b75ca4561c0370959b&#45;&gt;dir_9be0baa3d4a3e9f480a9ee70594037fa</title>
<g id="a_edge18"><a xlink:href="dir_000011_000212.html" target="_top">
<path fill="none" stroke="#63b8ff" d="M571.3,-70.84C586.98,-62.66 610.35,-50.46 628.58,-40.94"/>
<polygon fill="#63b8ff" stroke="#63b8ff" points="630.03,-44.13 637.27,-36.4 626.79,-37.93 630.03,-44.13"/>
</a>
</g>
<g id="a_edge18&#45;headlabel"><a xlink:href="dir_000011_000212.html" target="_top" xlink:title="5">
<text text-anchor="middle" x="629.49" y="-43.74" font-family="Helvetica,sans-Serif" font-size="10.00" fill="#63b8ff">5</text>
</a>
</g>
</g>
<!-- dir_3e86b8adf38d0f4d7eedc40eae73f90a -->
<g id="node17" class="node">
<title>dir_3e86b8adf38d0f4d7eedc40eae73f90a</title>
<g id="a_node17"><a xlink:href="dir_3e86b8adf38d0f4d7eedc40eae73f90a.html" target="_top" xlink:title="acmeme">
<polygon fill="#60a2e3" stroke="#404040" points="649.75,-90.5 596.25,-90.5 596.25,-71.25 649.75,-71.25 649.75,-90.5"/>
<text text-anchor="middle" x="623" y="-77" font-family="Helvetica,sans-Serif" font-size="10.00">acmeme</text>
</a>
</g>
</g>
<!-- dir_3e86b8adf38d0f4d7eedc40eae73f90a&#45;&gt;dir_9be0baa3d4a3e9f480a9ee70594037fa -->
<g id="edge19" class="edge">
<title>dir_3e86b8adf38d0f4d7eedc40eae73f90a&#45;&gt;dir_9be0baa3d4a3e9f480a9ee70594037fa</title>
<g id="a_edge19"><a xlink:href="dir_000012_000212.html" target="_top">
<path fill="none" stroke="#63b8ff" d="M628.45,-71.08C632.77,-64.11 638.96,-54.12 644.38,-45.37"/>
<polygon fill="#63b8ff" stroke="#63b8ff" points="647.34,-47.24 649.64,-36.9 641.39,-43.55 647.34,-47.24"/>
</a>
</g>
<g id="a_edge19&#45;headlabel"><a xlink:href="dir_000012_000212.html" target="_top" xlink:title="6">
<text text-anchor="middle" x="648.66" y="-46.63" font-family="Helvetica,sans-Serif" font-size="10.00" fill="#63b8ff">6</text>
</a>
</g>
</g>
<!-- dir_1431105f3fb19cd016c4be314bacdc47 -->
<g id="node18" class="node">
<title>dir_1431105f3fb19cd016c4be314bacdc47</title>
<g id="a_node18"><a xlink:href="dir_1431105f3fb19cd016c4be314bacdc47.html" target="_top" xlink:title="acram">
<polygon fill="#60a2e3" stroke="#404040" points="710.5,-90.5 667.5,-90.5 667.5,-71.25 710.5,-71.25 710.5,-90.5"/>
<text text-anchor="middle" x="689" y="-77" font-family="Helvetica,sans-Serif" font-size="10.00">acram</text>
</a>
</g>
</g>
<!-- dir_1431105f3fb19cd016c4be314bacdc47&#45;&gt;dir_9be0baa3d4a3e9f480a9ee70594037fa -->
<g id="edge20" class="edge">
<title>dir_1431105f3fb19cd016c4be314bacdc47&#45;&gt;dir_9be0baa3d4a3e9f480a9ee70594037fa</title>
<g id="a_edge20"><a xlink:href="dir_000013_000212.html" target="_top">
<path fill="none" stroke="#63b8ff" d="M683.55,-71.08C679.23,-64.11 673.04,-54.12 667.62,-45.37"/>
<polygon fill="#63b8ff" stroke="#63b8ff" points="670.61,-43.55 662.36,-36.9 664.66,-47.24 670.61,-43.55"/>
</a>
</g>
<g id="a_edge20&#45;headlabel"><a xlink:href="dir_000013_000212.html" target="_top" xlink:title="7">
<text text-anchor="middle" x="674.12" y="-39.95" font-family="Helvetica,sans-Serif" font-size="10.00" fill="#63b8ff">7</text>
</a>
</g>
</g>
<!-- dir_1ce65a17f8f99ac874f77278c69e114f -->
<g id="node19" class="node">
<title>dir_1ce65a17f8f99ac874f77278c69e114f</title>
<g id="a_node19"><a xlink:href="dir_1ce65a17f8f99ac874f77278c69e114f.html" target="_top" xlink:title="acrtc">
<polygon fill="#60a2e3" stroke="#404040" points="765.88,-90.5 728.12,-90.5 728.12,-71.25 765.88,-71.25 765.88,-90.5"/>
<text text-anchor="middle" x="747" y="-77" font-family="Helvetica,sans-Serif" font-size="10.00">acrtc</text>
</a>
</g>
</g>
<!-- dir_1ce65a17f8f99ac874f77278c69e114f&#45;&gt;dir_9be0baa3d4a3e9f480a9ee70594037fa -->
<g id="edge21" class="edge">
<title>dir_1ce65a17f8f99ac874f77278c69e114f&#45;&gt;dir_9be0baa3d4a3e9f480a9ee70594037fa</title>
<g id="a_edge21"><a xlink:href="dir_000014_000212.html" target="_top">
<path fill="none" stroke="#63b8ff" d="M732.48,-70.82C728.45,-68.34 724.07,-65.67 720,-63.25 707.61,-55.89 693.75,-47.93 682.1,-41.31"/>
<polygon fill="#63b8ff" stroke="#63b8ff" points="683.87,-38.29 673.44,-36.41 680.42,-44.38 683.87,-38.29"/>
</a>
</g>
<g id="a_edge21&#45;headlabel"><a xlink:href="dir_000014_000212.html" target="_top" xlink:title="4">
<text text-anchor="middle" x="687.08" y="-32.97" font-family="Helvetica,sans-Serif" font-size="10.00" fill="#63b8ff">4</text>
</a>
</g>
</g>
<!-- dir_537c1a5f31ee55d93fbd41130c9584dc -->
<g id="node20" class="node">
<title>dir_537c1a5f31ee55d93fbd41130c9584dc</title>
<g id="a_node20"><a xlink:href="dir_537c1a5f31ee55d93fbd41130c9584dc.html" target="_top" xlink:title="acsram">
<polygon fill="#60a2e3" stroke="#404040" points="832.12,-90.5 783.88,-90.5 783.88,-71.25 832.12,-71.25 832.12,-90.5"/>
<text text-anchor="middle" x="808" y="-77" font-family="Helvetica,sans-Serif" font-size="10.00">acsram</text>
</a>
</g>
</g>
<!-- dir_537c1a5f31ee55d93fbd41130c9584dc&#45;&gt;dir_9be0baa3d4a3e9f480a9ee70594037fa -->
<g id="edge22" class="edge">
<title>dir_537c1a5f31ee55d93fbd41130c9584dc&#45;&gt;dir_9be0baa3d4a3e9f480a9ee70594037fa</title>
<g id="a_edge22"><a xlink:href="dir_000015_000212.html" target="_top">
<path fill="none" stroke="#63b8ff" d="M791.46,-70.86C786.28,-68.22 780.48,-65.45 775,-63.25 746.39,-51.74 712.72,-41.68 688.5,-35.04"/>
<polygon fill="#63b8ff" stroke="#63b8ff" points="689.47,-31.67 678.9,-32.45 687.65,-38.43 689.47,-31.67"/>
</a>
</g>
<g id="a_edge22&#45;headlabel"><a xlink:href="dir_000015_000212.html" target="_top" xlink:title="2">
<text text-anchor="middle" x="692.22" y="-25.6" font-family="Helvetica,sans-Serif" font-size="10.00" fill="#63b8ff">2</text>
</a>
</g>
</g>
<!-- dir_b480fdbd9089eb9ef496e03587bad219 -->
<g id="node21" class="node">
<title>dir_b480fdbd9089eb9ef496e03587bad219</title>
<g id="a_node21"><a xlink:href="dir_b480fdbd9089eb9ef496e03587bad219.html" target="_top" xlink:title="actimer">
<polygon fill="#60a2e3" stroke="#404040" points="898.12,-90.5 849.88,-90.5 849.88,-71.25 898.12,-71.25 898.12,-90.5"/>
<text text-anchor="middle" x="874" y="-77" font-family="Helvetica,sans-Serif" font-size="10.00">actimer</text>
</a>
</g>
</g>
<!-- dir_b480fdbd9089eb9ef496e03587bad219&#45;&gt;dir_9be0baa3d4a3e9f480a9ee70594037fa -->
<g id="edge23" class="edge">
<title>dir_b480fdbd9089eb9ef496e03587bad219&#45;&gt;dir_9be0baa3d4a3e9f480a9ee70594037fa</title>
<g id="a_edge23"><a xlink:href="dir_000016_000212.html" target="_top">
<path fill="none" stroke="#63b8ff" d="M858.27,-70.86C852.92,-68.09 846.82,-65.25 841,-63.25 789.31,-45.48 726.37,-35.31 688.83,-30.39"/>
<polygon fill="#63b8ff" stroke="#63b8ff" points="689.44,-26.94 679.08,-29.16 688.56,-33.88 689.44,-26.94"/>
</a>
</g>
<g id="a_edge23&#45;headlabel"><a xlink:href="dir_000016_000212.html" target="_top" xlink:title="5">
<text text-anchor="middle" x="691.86" y="-20.51" font-family="Helvetica,sans-Serif" font-size="10.00" fill="#63b8ff">5</text>
</a>
</g>
</g>
<!-- dir_7268553a12e6a8f82f5fa90127c455c6 -->
<g id="node22" class="node">
<title>dir_7268553a12e6a8f82f5fa90127c455c6</title>
<g id="a_node22"><a xlink:href="dir_7268553a12e6a8f82f5fa90127c455c6.html" target="_top" xlink:title="acuart">
<polygon fill="#60a2e3" stroke="#404040" points="1087.5,-90.5 1044.5,-90.5 1044.5,-71.25 1087.5,-71.25 1087.5,-90.5"/>
<text text-anchor="middle" x="1066" y="-77" font-family="Helvetica,sans-Serif" font-size="10.00">acuart</text>
</a>
</g>
</g>
<!-- dir_7268553a12e6a8f82f5fa90127c455c6&#45;&gt;dir_9be0baa3d4a3e9f480a9ee70594037fa -->
<g id="edge24" class="edge">
<title>dir_7268553a12e6a8f82f5fa90127c455c6&#45;&gt;dir_9be0baa3d4a3e9f480a9ee70594037fa</title>
<g id="a_edge24"><a xlink:href="dir_000017_000212.html" target="_top">
<path fill="none" stroke="#63b8ff" d="M1052.49,-70.85C1047.51,-67.94 1041.69,-65.02 1036,-63.25 971.43,-43.2 768.42,-31.85 688.64,-28.06"/>
<polygon fill="#63b8ff" stroke="#63b8ff" points="689.03,-24.58 678.88,-27.61 688.71,-31.57 689.03,-24.58"/>
</a>
</g>
<g id="a_edge24&#45;headlabel"><a xlink:href="dir_000017_000212.html" target="_top" xlink:title="8">
<text text-anchor="middle" x="691.24" y="-17.96" font-family="Helvetica,sans-Serif" font-size="10.00" fill="#63b8ff">8</text>
</a>
</g>
</g>
<!-- dir_7268553a12e6a8f82f5fa90127c455c6&#45;&gt;dir_bdd9a5d540de89e9fe90efdfc6973a4f -->
<g id="edge25" class="edge">
<title>dir_7268553a12e6a8f82f5fa90127c455c6&#45;&gt;dir_bdd9a5d540de89e9fe90efdfc6973a4f</title>
<g id="a_edge25"><a xlink:href="dir_000017_000042.html" target="_top">
<path fill="none" stroke="#63b8ff" d="M1080.23,-70.84C1085.08,-68.07 1090.64,-65.24 1096,-63.25 1149.97,-43.23 1169.13,-48.86 1223.92,-36.82"/>
<polygon fill="#63b8ff" stroke="#63b8ff" points="1224.55,-40.27 1233.5,-34.6 1222.97,-33.45 1224.55,-40.27"/>
</a>
</g>
<g id="a_edge25&#45;headlabel"><a xlink:href="dir_000017_000042.html" target="_top" xlink:title="1">
<text text-anchor="middle" x="1223.16" y="-39.63" font-family="Helvetica,sans-Serif" font-size="10.00" fill="#63b8ff">1</text>
</a>
</g>
</g>
</g>
</svg>

<g id="navigator" transform="translate(0 0)" fill="#404254">
  <rect fill="#f2f5e9" fill-opacity="0.5" stroke="#606060" stroke-width=".5" x="0" y="0" width="60" height="60"/>
  <use id="zoomplus" xlink:href="#zoomPlus" x="17" y="9" onmousedown="handleZoom(evt,'in')"/>
  <use id="zoomminus" xlink:href="#zoomMin" x="42" y="9" onmousedown="handleZoom(evt,'out')"/>
  <use id="reset" xlink:href="#resetDef" x="30" y="36" onmousedown="handleReset()"/>
   <use id="arrowup" xlink:href="#arrowUp" x="0" y="0" onmousedown="handlePan(0,-1)"/>
  <use id="arrowright" xlink:href="#arrowRight" x="0" y="0" onmousedown="handlePan(1,0)"/>
  <use id="arrowdown" xlink:href="#arrowDown" x="0" y="0" onmousedown="handlePan(0,1)"/>
  <use id="arrowleft" xlink:href="#arrowLeft" x="0" y="0" onmousedown="handlePan(-1,0)"/>
</g>
<svg viewBox="0 0 15 15" width="100%" height="30px" preserveAspectRatio="xMaxYMin meet">
 <g id="arrow_out" transform="scale(0.3 0.3)">
  <a xlink:href="dir_83706370b12deb47497ed91304cced4b_dep_org.svg" target="_base">
   <rect id="button" ry="5" rx="5" y="6" x="6" height="38" width="38"
        fill="#f2f5e9" fill-opacity="0.5" stroke="#606060" stroke-width="1.0"/>
   <path id="arrow"
     d="M 11.500037,31.436501 C 11.940474,20.09759 22.043105,11.32322 32.158766,21.979434 L 37.068811,17.246167 C 37.068811,17.246167 37.088388,32 37.088388,32 L 22.160133,31.978069 C 22.160133,31.978069 26.997745,27.140456 26.997745,27.140456 C 18.528582,18.264221 13.291696,25.230495 11.500037,31.436501 z"
     style="fill:#404040;"/>
  </a>
 </g>
</svg>

<style type='text/css'>
<![CDATA[
[data-mouse-over-selected='false'] { opacity: 0.7; }
[data-mouse-over-selected='true']  { opacity: 1.0; }
]]>
</style>
<script type="application/ecmascript"><![CDATA[
document.addEventListener('DOMContentLoaded', (event) => {
  highlightEdges();
  highlightAdjacentNodes();
});
]]></script>
</svg>
