<?xml version="1.0" encoding="UTF-8" standalone="no"?>
<!DOCTYPE svg PUBLIC "-//W3C//DTD SVG 1.1//EN"
 "http://www.w3.org/Graphics/SVG/1.1/DTD/svg11.dtd">
<!-- Generated by graphviz version 12.2.0 (20241103.1931)
 -->
<!-- Title: iop/dvrp Pages: 1 -->
<svg width="493pt" height="142pt"
 viewBox="0.00 0.00 492.75 141.75" xmlns="http://www.w3.org/2000/svg" xmlns:xlink="http://www.w3.org/1999/xlink">

<svg id="main" version="1.1" xmlns="http://www.w3.org/2000/svg" xmlns:xlink="http://www.w3.org/1999/xlink" xml:space="preserve">

<style type="text/css"><![CDATA[
.node, .edge {opacity: 0.7;}
.node.selected, .edge.selected {opacity: 1;}
.edge:hover path { stroke: red; }
.edge:hover polygon { stroke: red; fill: red; }
]]></style>
<script type="application/ecmascript" xlink:href="svg.min.js"/>
<svg id="graph" class="graph">
<g id="graph0" class="graph" transform="scale(1 1) rotate(0) translate(4 137.75)">
<title>iop/dvrp</title>
<g id="clust1" class="cluster">
<title>clusterdir_0981ace215aa2029f526b70c145b9fbe</title>
<g id="a_clust1"><a xlink:href="dir_0981ace215aa2029f526b70c145b9fbe.html" target="_top" xlink:title="iop">
<polygon fill="#deebf9" stroke="#404040" stroke-dasharray="5,2" points="8,-8 8,-125.75 423,-125.75 423,-8 8,-8"/>
<text text-anchor="middle" x="215.5" y="-112.25" font-family="Helvetica,sans-Serif" font-size="10.00">iop</text>
</a>
</g>
</g>
<g id="clust2" class="cluster">
<title>clusterdir_a16ad4cba4b1f15056f2b7b0b5931815</title>
<g id="a_clust2"><a xlink:href="dir_a16ad4cba4b1f15056f2b7b0b5931815.html" target="_top">
<polygon fill="#deebf9" stroke="#404040" stroke-width="2" points="16,-63.25 16,-98.5 415,-98.5 415,-63.25 16,-63.25"/>
</a>
</g>
</g>
<!-- dir_9be0baa3d4a3e9f480a9ee70594037fa -->
<g id="node1" class="node">
<title>dir_9be0baa3d4a3e9f480a9ee70594037fa</title>
<g id="a_node1"><a xlink:href="dir_9be0baa3d4a3e9f480a9ee70594037fa.html" target="_top" xlink:title="kernel">
<polygon fill="#60a2e3" stroke="red" points="235.12,-35.25 192.88,-35.25 192.88,-16 235.12,-16 235.12,-35.25"/>
<text text-anchor="middle" x="214" y="-21.75" font-family="Helvetica,sans-Serif" font-size="10.00">kernel</text>
</a>
</g>
</g>
<!-- dir_6f16cad81de2453a6f48c5e272ba4a18 -->
<g id="node2" class="node">
<title>dir_6f16cad81de2453a6f48c5e272ba4a18</title>
<g id="a_node2"><a xlink:href="dir_6f16cad81de2453a6f48c5e272ba4a18.html" target="_top" xlink:title="dev9">
<polygon fill="#60a2e3" stroke="red" points="292.5,-35.25 255.5,-35.25 255.5,-16 292.5,-16 292.5,-35.25"/>
<text text-anchor="middle" x="274" y="-21.75" font-family="Helvetica,sans-Serif" font-size="10.00">dev9</text>
</a>
</g>
</g>
<!-- dir_a16ad4cba4b1f15056f2b7b0b5931815 -->
<g id="node3" class="node">
<title>dir_a16ad4cba4b1f15056f2b7b0b5931815</title>
<text text-anchor="middle" x="41" y="-77" font-family="Helvetica,sans-Serif" font-size="10.00">dvrp</text>
</g>
<!-- dir_8d816be76444126f1148a76612486d4b -->
<g id="node4" class="node">
<title>dir_8d816be76444126f1148a76612486d4b</title>
<g id="a_node4"><a xlink:href="dir_8d816be76444126f1148a76612486d4b.html" target="_top" xlink:title="dvr">
<polygon fill="#60a2e3" stroke="#404040" points="348.75,-90.5 319.25,-90.5 319.25,-71.25 348.75,-71.25 348.75,-90.5"/>
<text text-anchor="middle" x="334" y="-77" font-family="Helvetica,sans-Serif" font-size="10.00">dvr</text>
</a>
</g>
</g>
<!-- dir_8d816be76444126f1148a76612486d4b&#45;&gt;dir_9be0baa3d4a3e9f480a9ee70594037fa -->
<g id="edge1" class="edge">
<title>dir_8d816be76444126f1148a76612486d4b&#45;&gt;dir_9be0baa3d4a3e9f480a9ee70594037fa</title>
<g id="a_edge1"><a xlink:href="dir_000052_000212.html" target="_top">
<path fill="none" stroke="#63b8ff" d="M322.15,-70.83C318.38,-68.18 314.13,-65.42 310,-63.25 289.65,-52.52 265.44,-43.31 246.42,-36.81"/>
<polygon fill="#63b8ff" stroke="#63b8ff" points="247.65,-33.52 237.05,-33.69 245.44,-40.17 247.65,-33.52"/>
</a>
</g>
<g id="a_edge1&#45;headlabel"><a xlink:href="dir_000052_000212.html" target="_top" xlink:title="12">
<text text-anchor="middle" x="250.52" y="-27.61" font-family="Helvetica,sans-Serif" font-size="10.00" fill="#63b8ff">12</text>
</a>
</g>
</g>
<!-- dir_8d816be76444126f1148a76612486d4b&#45;&gt;dir_6f16cad81de2453a6f48c5e272ba4a18 -->
<g id="edge2" class="edge">
<title>dir_8d816be76444126f1148a76612486d4b&#45;&gt;dir_6f16cad81de2453a6f48c5e272ba4a18</title>
<g id="a_edge2"><a xlink:href="dir_000052_000046.html" target="_top">
<path fill="none" stroke="#63b8ff" d="M323.82,-70.84C315.24,-63.22 302.73,-52.12 292.4,-42.95"/>
<polygon fill="#63b8ff" stroke="#63b8ff" points="294.96,-40.55 285.16,-36.53 290.32,-45.79 294.96,-40.55"/>
</a>
</g>
<g id="a_edge2&#45;headlabel"><a xlink:href="dir_000052_000046.html" target="_top" xlink:title="2">
<text text-anchor="middle" x="298.4" y="-35.93" font-family="Helvetica,sans-Serif" font-size="10.00" fill="#63b8ff">2</text>
</a>
</g>
</g>
<!-- dir_bdd9a5d540de89e9fe90efdfc6973a4f -->
<g id="node10" class="node">
<title>dir_bdd9a5d540de89e9fe90efdfc6973a4f</title>
<g id="a_node10"><a xlink:href="dir_bdd9a5d540de89e9fe90efdfc6973a4f.html" target="_top" xlink:title="common">
<polygon fill="#deebf9" stroke="red" points="484.75,-35.25 431.25,-35.25 431.25,-16 484.75,-16 484.75,-35.25"/>
<text text-anchor="middle" x="458" y="-21.75" font-family="Helvetica,sans-Serif" font-size="10.00">common</text>
</a>
</g>
</g>
<!-- dir_8d816be76444126f1148a76612486d4b&#45;&gt;dir_bdd9a5d540de89e9fe90efdfc6973a4f -->
<g id="edge3" class="edge">
<title>dir_8d816be76444126f1148a76612486d4b&#45;&gt;dir_bdd9a5d540de89e9fe90efdfc6973a4f</title>
<g id="a_edge3"><a xlink:href="dir_000052_000042.html" target="_top">
<path fill="none" stroke="#63b8ff" d="M345.83,-70.79C349.6,-68.15 353.86,-65.4 358,-63.25 377.76,-53 401.04,-44.3 420.17,-37.94"/>
<polygon fill="#63b8ff" stroke="#63b8ff" points="421.02,-41.35 429.46,-34.95 418.87,-34.69 421.02,-41.35"/>
</a>
</g>
<g id="a_edge3&#45;headlabel"><a xlink:href="dir_000052_000042.html" target="_top" xlink:title="2">
<text text-anchor="middle" x="419.91" y="-40.82" font-family="Helvetica,sans-Serif" font-size="10.00" fill="#63b8ff">2</text>
</a>
</g>
</g>
<!-- dir_f7741f78ef7687a58b2e9b3b36050a7e -->
<g id="node5" class="node">
<title>dir_f7741f78ef7687a58b2e9b3b36050a7e</title>
<g id="a_node5"><a xlink:href="dir_f7741f78ef7687a58b2e9b3b36050a7e.html" target="_top" xlink:title="dvrav">
<polygon fill="#60a2e3" stroke="#404040" points="407,-90.5 367,-90.5 367,-71.25 407,-71.25 407,-90.5"/>
<text text-anchor="middle" x="387" y="-77" font-family="Helvetica,sans-Serif" font-size="10.00">dvrav</text>
</a>
</g>
</g>
<!-- dir_f7741f78ef7687a58b2e9b3b36050a7e&#45;&gt;dir_9be0baa3d4a3e9f480a9ee70594037fa -->
<g id="edge4" class="edge">
<title>dir_f7741f78ef7687a58b2e9b3b36050a7e&#45;&gt;dir_9be0baa3d4a3e9f480a9ee70594037fa</title>
<g id="a_edge4"><a xlink:href="dir_000053_000212.html" target="_top">
<path fill="none" stroke="#63b8ff" d="M372.94,-70.78C368.31,-68.08 363.06,-65.29 358,-63.25 310.82,-44.2 296.28,-47.91 247,-35.25 246.76,-35.19 246.53,-35.13 246.29,-35.07"/>
<polygon fill="#63b8ff" stroke="#63b8ff" points="247.32,-31.72 236.76,-32.6 245.56,-38.49 247.32,-31.72"/>
</a>
</g>
<g id="a_edge4&#45;headlabel"><a xlink:href="dir_000053_000212.html" target="_top" xlink:title="11">
<text text-anchor="middle" x="250.05" y="-25.62" font-family="Helvetica,sans-Serif" font-size="10.00" fill="#63b8ff">11</text>
</a>
</g>
</g>
<!-- dir_f7741f78ef7687a58b2e9b3b36050a7e&#45;&gt;dir_6f16cad81de2453a6f48c5e272ba4a18 -->
<g id="edge5" class="edge">
<title>dir_f7741f78ef7687a58b2e9b3b36050a7e&#45;&gt;dir_6f16cad81de2453a6f48c5e272ba4a18</title>
<g id="a_edge5"><a xlink:href="dir_000053_000046.html" target="_top">
<path fill="none" stroke="#63b8ff" d="M371.82,-70.76C367.42,-68.23 362.56,-65.54 358,-63.25 340.21,-54.31 319.75,-45.36 303.47,-38.54"/>
<polygon fill="#63b8ff" stroke="#63b8ff" points="304.93,-35.36 294.35,-34.77 302.26,-41.83 304.93,-35.36"/>
</a>
</g>
<g id="a_edge5&#45;headlabel"><a xlink:href="dir_000053_000046.html" target="_top" xlink:title="2">
<text text-anchor="middle" x="307.94" y="-29.66" font-family="Helvetica,sans-Serif" font-size="10.00" fill="#63b8ff">2</text>
</a>
</g>
</g>
<!-- dir_f7741f78ef7687a58b2e9b3b36050a7e&#45;&gt;dir_bdd9a5d540de89e9fe90efdfc6973a4f -->
<g id="edge6" class="edge">
<title>dir_f7741f78ef7687a58b2e9b3b36050a7e&#45;&gt;dir_bdd9a5d540de89e9fe90efdfc6973a4f</title>
<g id="a_edge6"><a xlink:href="dir_000053_000042.html" target="_top">
<path fill="none" stroke="#63b8ff" d="M399.04,-70.84C409.41,-63.07 424.6,-51.67 436.97,-42.4"/>
<polygon fill="#63b8ff" stroke="#63b8ff" points="439.02,-45.23 444.92,-36.43 434.82,-39.63 439.02,-45.23"/>
</a>
</g>
<g id="a_edge6&#45;headlabel"><a xlink:href="dir_000053_000042.html" target="_top" xlink:title="2">
<text text-anchor="middle" x="439.06" y="-44.88" font-family="Helvetica,sans-Serif" font-size="10.00" fill="#63b8ff">2</text>
</a>
</g>
</g>
<!-- dir_afbf9061e6cd2939a0cc5b3ca7d5328d -->
<g id="node6" class="node">
<title>dir_afbf9061e6cd2939a0cc5b3ca7d5328d</title>
<g id="a_node6"><a xlink:href="dir_afbf9061e6cd2939a0cc5b3ca7d5328d.html" target="_top" xlink:title="dvrdv">
<polygon fill="#60a2e3" stroke="#404040" points="116,-90.5 76,-90.5 76,-71.25 116,-71.25 116,-90.5"/>
<text text-anchor="middle" x="96" y="-77" font-family="Helvetica,sans-Serif" font-size="10.00">dvrdv</text>
</a>
</g>
</g>
<!-- dir_afbf9061e6cd2939a0cc5b3ca7d5328d&#45;&gt;dir_9be0baa3d4a3e9f480a9ee70594037fa -->
<g id="edge7" class="edge">
<title>dir_afbf9061e6cd2939a0cc5b3ca7d5328d&#45;&gt;dir_9be0baa3d4a3e9f480a9ee70594037fa</title>
<g id="a_edge7"><a xlink:href="dir_000054_000212.html" target="_top">
<path fill="none" stroke="#63b8ff" d="M110.85,-70.87C115.33,-68.28 120.31,-65.55 125,-63.25 143.46,-54.21 164.74,-45.4 181.86,-38.68"/>
<polygon fill="#63b8ff" stroke="#63b8ff" points="182.96,-42.01 191.02,-35.14 180.44,-35.48 182.96,-42.01"/>
</a>
</g>
<g id="a_edge7&#45;headlabel"><a xlink:href="dir_000054_000212.html" target="_top" xlink:title="10">
<text text-anchor="middle" x="182.04" y="-41.53" font-family="Helvetica,sans-Serif" font-size="10.00" fill="#63b8ff">10</text>
</a>
</g>
</g>
<!-- dir_afbf9061e6cd2939a0cc5b3ca7d5328d&#45;&gt;dir_6f16cad81de2453a6f48c5e272ba4a18 -->
<g id="edge8" class="edge">
<title>dir_afbf9061e6cd2939a0cc5b3ca7d5328d&#45;&gt;dir_6f16cad81de2453a6f48c5e272ba4a18</title>
<g id="a_edge8"><a xlink:href="dir_000054_000046.html" target="_top">
<path fill="none" stroke="#63b8ff" d="M109.75,-70.91C114.44,-68.14 119.82,-65.29 125,-63.25 175.54,-43.31 191.43,-48.98 244,-35.25 244.11,-35.22 244.23,-35.19 244.34,-35.16"/>
<polygon fill="#63b8ff" stroke="#63b8ff" points="245.14,-38.57 253.86,-32.55 243.29,-31.82 245.14,-38.57"/>
</a>
</g>
<g id="a_edge8&#45;headlabel"><a xlink:href="dir_000054_000046.html" target="_top" xlink:title="2">
<text text-anchor="middle" x="243.88" y="-37.99" font-family="Helvetica,sans-Serif" font-size="10.00" fill="#63b8ff">2</text>
</a>
</g>
</g>
<!-- dir_afbf9061e6cd2939a0cc5b3ca7d5328d&#45;&gt;dir_bdd9a5d540de89e9fe90efdfc6973a4f -->
<g id="edge9" class="edge">
<title>dir_afbf9061e6cd2939a0cc5b3ca7d5328d&#45;&gt;dir_bdd9a5d540de89e9fe90efdfc6973a4f</title>
<g id="a_edge9"><a xlink:href="dir_000054_000042.html" target="_top">
<path fill="none" stroke="#63b8ff" d="M109.02,-70.83C113.83,-67.92 119.47,-65 125,-63.25 250,-23.69 292.12,-57.67 420.02,-36.37"/>
<polygon fill="#63b8ff" stroke="#63b8ff" points="420.28,-39.88 429.52,-34.7 419.07,-32.98 420.28,-39.88"/>
</a>
</g>
<g id="a_edge9&#45;headlabel"><a xlink:href="dir_000054_000042.html" target="_top" xlink:title="2">
<text text-anchor="middle" x="418.72" y="-39.16" font-family="Helvetica,sans-Serif" font-size="10.00" fill="#63b8ff">2</text>
</a>
</g>
</g>
<!-- dir_90fe12cfe0c184e93ce162881a1343e2 -->
<g id="node7" class="node">
<title>dir_90fe12cfe0c184e93ce162881a1343e2</title>
<g id="a_node7"><a xlink:href="dir_90fe12cfe0c184e93ce162881a1343e2.html" target="_top" xlink:title="dvrfile">
<polygon fill="#60a2e3" stroke="#404040" points="175.75,-90.5 134.25,-90.5 134.25,-71.25 175.75,-71.25 175.75,-90.5"/>
<text text-anchor="middle" x="155" y="-77" font-family="Helvetica,sans-Serif" font-size="10.00">dvrfile</text>
</a>
</g>
</g>
<!-- dir_90fe12cfe0c184e93ce162881a1343e2&#45;&gt;dir_9be0baa3d4a3e9f480a9ee70594037fa -->
<g id="edge10" class="edge">
<title>dir_90fe12cfe0c184e93ce162881a1343e2&#45;&gt;dir_9be0baa3d4a3e9f480a9ee70594037fa</title>
<g id="a_edge10"><a xlink:href="dir_000055_000212.html" target="_top">
<path fill="none" stroke="#63b8ff" d="M165.01,-70.84C173.37,-63.3 185.5,-52.35 195.6,-43.23"/>
<polygon fill="#63b8ff" stroke="#63b8ff" points="197.94,-45.84 203.02,-36.54 193.25,-40.64 197.94,-45.84"/>
</a>
</g>
<g id="a_edge10&#45;headlabel"><a xlink:href="dir_000055_000212.html" target="_top" xlink:title="12">
<text text-anchor="middle" x="198.29" y="-45.46" font-family="Helvetica,sans-Serif" font-size="10.00" fill="#63b8ff">12</text>
</a>
</g>
</g>
<!-- dir_90fe12cfe0c184e93ce162881a1343e2&#45;&gt;dir_6f16cad81de2453a6f48c5e272ba4a18 -->
<g id="edge11" class="edge">
<title>dir_90fe12cfe0c184e93ce162881a1343e2&#45;&gt;dir_6f16cad81de2453a6f48c5e272ba4a18</title>
<g id="a_edge11"><a xlink:href="dir_000055_000046.html" target="_top">
<path fill="none" stroke="#63b8ff" d="M169.84,-70.86C174.33,-68.27 179.3,-65.54 184,-63.25 203.75,-53.63 226.69,-44.32 244.47,-37.49"/>
<polygon fill="#63b8ff" stroke="#63b8ff" points="245.53,-40.83 253.65,-34.02 243.06,-34.28 245.53,-40.83"/>
</a>
</g>
<g id="a_edge11&#45;headlabel"><a xlink:href="dir_000055_000046.html" target="_top" xlink:title="2">
<text text-anchor="middle" x="244.59" y="-40.35" font-family="Helvetica,sans-Serif" font-size="10.00" fill="#63b8ff">2</text>
</a>
</g>
</g>
<!-- dir_90fe12cfe0c184e93ce162881a1343e2&#45;&gt;dir_bdd9a5d540de89e9fe90efdfc6973a4f -->
<g id="edge12" class="edge">
<title>dir_90fe12cfe0c184e93ce162881a1343e2&#45;&gt;dir_bdd9a5d540de89e9fe90efdfc6973a4f</title>
<g id="a_edge12"><a xlink:href="dir_000055_000042.html" target="_top">
<path fill="none" stroke="#63b8ff" d="M168.04,-70.9C172.86,-68 178.49,-65.06 184,-63.25 283.75,-30.46 317.96,-54.34 419.92,-36.46"/>
<polygon fill="#63b8ff" stroke="#63b8ff" points="420.33,-39.95 429.52,-34.68 419.05,-33.07 420.33,-39.95"/>
</a>
</g>
<g id="a_edge12&#45;headlabel"><a xlink:href="dir_000055_000042.html" target="_top" xlink:title="2">
<text text-anchor="middle" x="418.8" y="-39.24" font-family="Helvetica,sans-Serif" font-size="10.00" fill="#63b8ff">2</text>
</a>
</g>
</g>
<!-- dir_55b81c7b0811889843fb7d99073d4918 -->
<g id="node8" class="node">
<title>dir_55b81c7b0811889843fb7d99073d4918</title>
<g id="a_node8"><a xlink:href="dir_55b81c7b0811889843fb7d99073d4918.html" target="_top" xlink:title="dvripl">
<polygon fill="#60a2e3" stroke="#404040" points="232.62,-90.5 193.38,-90.5 193.38,-71.25 232.62,-71.25 232.62,-90.5"/>
<text text-anchor="middle" x="213" y="-77" font-family="Helvetica,sans-Serif" font-size="10.00">dvripl</text>
</a>
</g>
</g>
<!-- dir_55b81c7b0811889843fb7d99073d4918&#45;&gt;dir_9be0baa3d4a3e9f480a9ee70594037fa -->
<g id="edge13" class="edge">
<title>dir_55b81c7b0811889843fb7d99073d4918&#45;&gt;dir_9be0baa3d4a3e9f480a9ee70594037fa</title>
<g id="a_edge13"><a xlink:href="dir_000056_000212.html" target="_top">
<path fill="none" stroke="#63b8ff" d="M213.17,-71.08C213.29,-64.57 213.46,-55.42 213.62,-47.12"/>
<polygon fill="#63b8ff" stroke="#63b8ff" points="217.11,-47.19 213.8,-37.12 210.12,-47.05 217.11,-47.19"/>
</a>
</g>
<g id="a_edge13&#45;headlabel"><a xlink:href="dir_000056_000212.html" target="_top" xlink:title="14">
<text text-anchor="middle" x="219.91" y="-45.45" font-family="Helvetica,sans-Serif" font-size="10.00" fill="#63b8ff">14</text>
</a>
</g>
</g>
<!-- dir_55b81c7b0811889843fb7d99073d4918&#45;&gt;dir_6f16cad81de2453a6f48c5e272ba4a18 -->
<g id="edge14" class="edge">
<title>dir_55b81c7b0811889843fb7d99073d4918&#45;&gt;dir_6f16cad81de2453a6f48c5e272ba4a18</title>
<g id="a_edge14"><a xlink:href="dir_000056_000046.html" target="_top">
<path fill="none" stroke="#63b8ff" d="M223.35,-70.84C232.08,-63.22 244.79,-52.12 255.3,-42.95"/>
<polygon fill="#63b8ff" stroke="#63b8ff" points="257.43,-45.73 262.66,-36.52 252.83,-40.46 257.43,-45.73"/>
</a>
</g>
<g id="a_edge14&#45;headlabel"><a xlink:href="dir_000056_000046.html" target="_top" xlink:title="2">
<text text-anchor="middle" x="257.73" y="-45.37" font-family="Helvetica,sans-Serif" font-size="10.00" fill="#63b8ff">2</text>
</a>
</g>
</g>
<!-- dir_55b81c7b0811889843fb7d99073d4918&#45;&gt;dir_bdd9a5d540de89e9fe90efdfc6973a4f -->
<g id="edge15" class="edge">
<title>dir_55b81c7b0811889843fb7d99073d4918&#45;&gt;dir_bdd9a5d540de89e9fe90efdfc6973a4f</title>
<g id="a_edge15"><a xlink:href="dir_000056_000042.html" target="_top">
<path fill="none" stroke="#63b8ff" d="M226.37,-70.83C231.12,-68 236.63,-65.12 242,-63.25 317,-37.11 343.31,-51.23 419.85,-36.61"/>
<polygon fill="#63b8ff" stroke="#63b8ff" points="420.41,-40.07 429.51,-34.65 419.02,-33.21 420.41,-40.07"/>
</a>
</g>
<g id="a_edge15&#45;headlabel"><a xlink:href="dir_000056_000042.html" target="_top" xlink:title="2">
<text text-anchor="middle" x="418.93" y="-39.39" font-family="Helvetica,sans-Serif" font-size="10.00" fill="#63b8ff">2</text>
</a>
</g>
</g>
<!-- dir_14f5f0f9fe610eb1d19d953c1b59d5ca -->
<g id="node9" class="node">
<title>dir_14f5f0f9fe610eb1d19d953c1b59d5ca</title>
<g id="a_node9"><a xlink:href="dir_14f5f0f9fe610eb1d19d953c1b59d5ca.html" target="_top" xlink:title="dvrmisc">
<polygon fill="#60a2e3" stroke="#404040" points="301.25,-90.5 250.75,-90.5 250.75,-71.25 301.25,-71.25 301.25,-90.5"/>
<text text-anchor="middle" x="276" y="-77" font-family="Helvetica,sans-Serif" font-size="10.00">dvrmisc</text>
</a>
</g>
</g>
<!-- dir_14f5f0f9fe610eb1d19d953c1b59d5ca&#45;&gt;dir_9be0baa3d4a3e9f480a9ee70594037fa -->
<g id="edge16" class="edge">
<title>dir_14f5f0f9fe610eb1d19d953c1b59d5ca&#45;&gt;dir_9be0baa3d4a3e9f480a9ee70594037fa</title>
<g id="a_edge16"><a xlink:href="dir_000057_000212.html" target="_top">
<path fill="none" stroke="#63b8ff" d="M265.48,-70.84C256.61,-63.22 243.69,-52.12 233.01,-42.95"/>
<polygon fill="#63b8ff" stroke="#63b8ff" points="235.38,-40.37 225.51,-36.51 230.82,-45.68 235.38,-40.37"/>
</a>
</g>
<g id="a_edge16&#45;headlabel"><a xlink:href="dir_000057_000212.html" target="_top" xlink:title="12">
<text text-anchor="middle" x="238.81" y="-35.7" font-family="Helvetica,sans-Serif" font-size="10.00" fill="#63b8ff">12</text>
</a>
</g>
</g>
<!-- dir_14f5f0f9fe610eb1d19d953c1b59d5ca&#45;&gt;dir_6f16cad81de2453a6f48c5e272ba4a18 -->
<g id="edge17" class="edge">
<title>dir_14f5f0f9fe610eb1d19d953c1b59d5ca&#45;&gt;dir_6f16cad81de2453a6f48c5e272ba4a18</title>
<g id="a_edge17"><a xlink:href="dir_000057_000046.html" target="_top">
<path fill="none" stroke="#63b8ff" d="M275.67,-71.08C275.42,-64.49 275.07,-55.21 274.76,-46.82"/>
<polygon fill="#63b8ff" stroke="#63b8ff" points="278.27,-46.98 274.39,-37.12 271.27,-47.25 278.27,-46.98"/>
</a>
</g>
<g id="a_edge17&#45;headlabel"><a xlink:href="dir_000057_000046.html" target="_top" xlink:title="2">
<text text-anchor="middle" x="281.18" y="-45.08" font-family="Helvetica,sans-Serif" font-size="10.00" fill="#63b8ff">2</text>
</a>
</g>
</g>
<!-- dir_14f5f0f9fe610eb1d19d953c1b59d5ca&#45;&gt;dir_bdd9a5d540de89e9fe90efdfc6973a4f -->
<g id="edge18" class="edge">
<title>dir_14f5f0f9fe610eb1d19d953c1b59d5ca&#45;&gt;dir_bdd9a5d540de89e9fe90efdfc6973a4f</title>
<g id="a_edge18"><a xlink:href="dir_000057_000042.html" target="_top">
<path fill="none" stroke="#63b8ff" d="M292.63,-70.84C298.06,-68.13 304.19,-65.34 310,-63.25 356.88,-46.41 373.03,-48.27 420.08,-36.93"/>
<polygon fill="#63b8ff" stroke="#63b8ff" points="420.64,-40.4 429.5,-34.58 418.95,-33.61 420.64,-40.4"/>
</a>
</g>
<g id="a_edge18&#45;headlabel"><a xlink:href="dir_000057_000042.html" target="_top" xlink:title="2">
<text text-anchor="middle" x="419.31" y="-39.78" font-family="Helvetica,sans-Serif" font-size="10.00" fill="#63b8ff">2</text>
</a>
</g>
</g>
</g>
</svg>
</svg>

<style type='text/css'>
<![CDATA[
[data-mouse-over-selected='false'] { opacity: 0.7; }
[data-mouse-over-selected='true']  { opacity: 1.0; }
]]>
</style>
<script type="application/ecmascript"><![CDATA[
document.addEventListener('DOMContentLoaded', (event) => {
  highlightEdges();
  highlightAdjacentNodes();
});
]]></script>
</svg>
