<?xml version="1.0" encoding="UTF-8" standalone="no"?>
<!DOCTYPE svg PUBLIC "-//W3C//DTD SVG 1.1//EN"
 "http://www.w3.org/Graphics/SVG/1.1/DTD/svg11.dtd">
<!-- Generated by graphviz version 12.2.0 (20241103.1931)
 -->
<!-- Title: iop/fs/bdm Pages: 1 -->
<svg width="284pt" height="181pt"
 viewBox="0.00 0.00 283.75 181.00" xmlns="http://www.w3.org/2000/svg" xmlns:xlink="http://www.w3.org/1999/xlink">
<g id="graph0" class="graph" transform="scale(1 1) rotate(0) translate(4 177)">
<title>iop/fs/bdm</title>
<g id="clust1" class="cluster">
<title>clusterdir_f24daea2522ffa8b6dc5fa9cdf5b8f5c</title>
<g id="a_clust1"><a xlink:href="dir_f24daea2522ffa8b6dc5fa9cdf5b8f5c.html" target="_top" xlink:title="fs">
<polygon fill="#deebf9" stroke="#7f7f7f" stroke-dasharray="5,2" points="8,-39.25 8,-165 174,-165 174,-39.25 8,-39.25"/>
<text text-anchor="middle" x="91" y="-151.5" font-family="Helvetica,sans-Serif" font-size="10.00">fs</text>
</a>
</g>
</g>
<g id="clust2" class="cluster">
<title>clusterdir_0134b0376fbe77322088b496fb368f9b</title>
<g id="a_clust2"><a xlink:href="dir_0134b0376fbe77322088b496fb368f9b.html" target="_top">
<polygon fill="#deebf9" stroke="#404040" stroke-width="2" points="16,-47.25 16,-137.75 114,-137.75 114,-47.25 16,-47.25"/>
</a>
</g>
</g>
<!-- dir_10cce8191a2d4629e92aaca1231c0797 -->
<g id="node1" class="node">
<title>dir_10cce8191a2d4629e92aaca1231c0797</title>
<g id="a_node1"><a xlink:href="dir_10cce8191a2d4629e92aaca1231c0797.html" target="_top" xlink:title="libbdm">
<polygon fill="#60a2e3" stroke="red" points="166.25,-74.5 121.75,-74.5 121.75,-55.25 166.25,-55.25 166.25,-74.5"/>
<text text-anchor="middle" x="144" y="-61" font-family="Helvetica,sans-Serif" font-size="10.00">libbdm</text>
</a>
</g>
</g>
<!-- dir_0134b0376fbe77322088b496fb368f9b -->
<g id="node2" class="node">
<title>dir_0134b0376fbe77322088b496fb368f9b</title>
<text text-anchor="middle" x="41" y="-116.25" font-family="Helvetica,sans-Serif" font-size="10.00">bdm</text>
</g>
<!-- dir_4aa3f641574c4329e5ed721597730e1e -->
<g id="node3" class="node">
<title>dir_4aa3f641574c4329e5ed721597730e1e</title>
<g id="a_node3"><a xlink:href="dir_4aa3f641574c4329e5ed721597730e1e.html" target="_top" xlink:title="include">
<polygon fill="#60a2e3" stroke="#404040" points="103.38,-74.5 56.62,-74.5 56.62,-55.25 103.38,-55.25 103.38,-74.5"/>
<text text-anchor="middle" x="80" y="-61" font-family="Helvetica,sans-Serif" font-size="10.00">include</text>
</a>
</g>
</g>
<!-- dir_9be0baa3d4a3e9f480a9ee70594037fa -->
<g id="node5" class="node">
<title>dir_9be0baa3d4a3e9f480a9ee70594037fa</title>
<g id="a_node5"><a xlink:href="dir_9be0baa3d4a3e9f480a9ee70594037fa.html" target="_top" xlink:title="kernel">
<polygon fill="#deebf9" stroke="red" stroke-dasharray="5,2" points="158.12,-19.25 115.88,-19.25 115.88,0 158.12,0 158.12,-19.25"/>
<text text-anchor="middle" x="137" y="-5.75" font-family="Helvetica,sans-Serif" font-size="10.00">kernel</text>
</a>
</g>
</g>
<!-- dir_4aa3f641574c4329e5ed721597730e1e&#45;&gt;dir_9be0baa3d4a3e9f480a9ee70594037fa -->
<g id="edge1" class="edge">
<title>dir_4aa3f641574c4329e5ed721597730e1e&#45;&gt;dir_9be0baa3d4a3e9f480a9ee70594037fa</title>
<g id="a_edge1"><a xlink:href="dir_000155_000211.html" target="_top">
<path fill="none" stroke="#63b8ff" d="M89.67,-54.84C97.74,-47.3 109.47,-36.35 119.22,-27.23"/>
<polygon fill="#63b8ff" stroke="#63b8ff" points="121.45,-29.94 126.37,-20.56 116.67,-24.83 121.45,-29.94"/>
</a>
</g>
<g id="a_edge1&#45;headlabel"><a xlink:href="dir_000155_000211.html" target="_top" xlink:title="1">
<text text-anchor="middle" x="121.87" y="-29.56" font-family="Helvetica,sans-Serif" font-size="10.00" fill="#63b8ff">1</text>
</a>
</g>
</g>
<!-- dir_ac1b9311aa44ad4cf108d5fb93dfb606 -->
<g id="node4" class="node">
<title>dir_ac1b9311aa44ad4cf108d5fb93dfb606</title>
<g id="a_node4"><a xlink:href="dir_ac1b9311aa44ad4cf108d5fb93dfb606.html" target="_top" xlink:title="src">
<polygon fill="#60a2e3" stroke="#404040" points="105.75,-129.75 76.25,-129.75 76.25,-110.5 105.75,-110.5 105.75,-129.75"/>
<text text-anchor="middle" x="91" y="-116.25" font-family="Helvetica,sans-Serif" font-size="10.00">src</text>
</a>
</g>
</g>
<!-- dir_ac1b9311aa44ad4cf108d5fb93dfb606&#45;&gt;dir_10cce8191a2d4629e92aaca1231c0797 -->
<g id="edge2" class="edge">
<title>dir_ac1b9311aa44ad4cf108d5fb93dfb606&#45;&gt;dir_10cce8191a2d4629e92aaca1231c0797</title>
<g id="a_edge2"><a xlink:href="dir_000381_000215.html" target="_top">
<path fill="none" stroke="#63b8ff" d="M99.75,-110.33C107.15,-102.9 117.96,-92.04 127.05,-82.91"/>
<polygon fill="#63b8ff" stroke="#63b8ff" points="129.42,-85.49 133.99,-75.93 124.46,-80.55 129.42,-85.49"/>
</a>
</g>
<g id="a_edge2&#45;headlabel"><a xlink:href="dir_000381_000215.html" target="_top" xlink:title="1">
<text text-anchor="middle" x="129.96" y="-85.09" font-family="Helvetica,sans-Serif" font-size="10.00" fill="#63b8ff">1</text>
</a>
</g>
</g>
<!-- dir_ac1b9311aa44ad4cf108d5fb93dfb606&#45;&gt;dir_4aa3f641574c4329e5ed721597730e1e -->
<g id="edge3" class="edge">
<title>dir_ac1b9311aa44ad4cf108d5fb93dfb606&#45;&gt;dir_4aa3f641574c4329e5ed721597730e1e</title>
<g id="a_edge3"><a xlink:href="dir_000381_000155.html" target="_top">
<path fill="none" stroke="#63b8ff" d="M89.18,-110.33C87.82,-103.74 85.9,-94.46 84.17,-86.07"/>
<polygon fill="#63b8ff" stroke="#63b8ff" points="87.61,-85.43 82.16,-76.34 80.76,-86.84 87.61,-85.43"/>
</a>
</g>
<g id="a_edge3&#45;headlabel"><a xlink:href="dir_000381_000155.html" target="_top" xlink:title="7">
<text text-anchor="middle" x="90.81" y="-83.02" font-family="Helvetica,sans-Serif" font-size="10.00" fill="#63b8ff">7</text>
</a>
</g>
</g>
<!-- dir_ac1b9311aa44ad4cf108d5fb93dfb606&#45;&gt;dir_9be0baa3d4a3e9f480a9ee70594037fa -->
<g id="edge4" class="edge">
<title>dir_ac1b9311aa44ad4cf108d5fb93dfb606&#45;&gt;dir_9be0baa3d4a3e9f480a9ee70594037fa</title>
<g id="a_edge4"><a xlink:href="dir_000381_000211.html" target="_top">
<path fill="none" stroke="#63b8ff" d="M105.92,-116.4C126.34,-111.79 162.25,-100.28 178,-74.5 186.17,-61.13 185.24,-53.14 178,-39.25 175.31,-34.09 171.22,-29.67 166.64,-25.96"/>
<polygon fill="#63b8ff" stroke="#63b8ff" points="168.96,-23.3 158.74,-20.53 165,-29.07 168.96,-23.3"/>
</a>
</g>
<g id="a_edge4&#45;headlabel"><a xlink:href="dir_000381_000211.html" target="_top" xlink:title="19">
<text text-anchor="middle" x="172.28" y="-18.26" font-family="Helvetica,sans-Serif" font-size="10.00" fill="#63b8ff">19</text>
</a>
</g>
</g>
<!-- dir_bdd9a5d540de89e9fe90efdfc6973a4f -->
<g id="node6" class="node">
<title>dir_bdd9a5d540de89e9fe90efdfc6973a4f</title>
<g id="a_node6"><a xlink:href="dir_bdd9a5d540de89e9fe90efdfc6973a4f.html" target="_top" xlink:title="common">
<polygon fill="#deebf9" stroke="red" points="275.75,-74.5 222.25,-74.5 222.25,-55.25 275.75,-55.25 275.75,-74.5"/>
<text text-anchor="middle" x="249" y="-61" font-family="Helvetica,sans-Serif" font-size="10.00">common</text>
</a>
</g>
</g>
<!-- dir_ac1b9311aa44ad4cf108d5fb93dfb606&#45;&gt;dir_bdd9a5d540de89e9fe90efdfc6973a4f -->
<g id="edge5" class="edge">
<title>dir_ac1b9311aa44ad4cf108d5fb93dfb606&#45;&gt;dir_bdd9a5d540de89e9fe90efdfc6973a4f</title>
<g id="a_edge5"><a xlink:href="dir_000381_000042.html" target="_top">
<path fill="none" stroke="#63b8ff" d="M106.15,-114.02C130.16,-105.93 177.67,-89.91 211.3,-78.58"/>
<polygon fill="#63b8ff" stroke="#63b8ff" points="212.32,-81.93 220.68,-75.42 210.09,-75.3 212.32,-81.93"/>
</a>
</g>
<g id="a_edge5&#45;headlabel"><a xlink:href="dir_000381_000042.html" target="_top" xlink:title="3">
<text text-anchor="middle" x="211.26" y="-81.41" font-family="Helvetica,sans-Serif" font-size="10.00" fill="#63b8ff">3</text>
</a>
</g>
</g>
</g>
</svg>
