<?xml version="1.0" encoding="UTF-8" standalone="no"?>
<!DOCTYPE svg PUBLIC "-//W3C//DTD SVG 1.1//EN"
 "http://www.w3.org/Graphics/SVG/1.1/DTD/svg11.dtd">
<!-- Generated by graphviz version 12.2.0 (20241103.1931)
 -->
<!-- Title: iop/sound Pages: 1 -->
<!--zoomable 197 -->

<svg id="main" version="1.1" xmlns="http://www.w3.org/2000/svg" xmlns:xlink="http://www.w3.org/1999/xlink" xml:space="preserve" onload="init(evt)">

<style type="text/css"><![CDATA[
.node, .edge {opacity: 0.7;}
.node.selected, .edge.selected {opacity: 1;}
.edge:hover path { stroke: red; }
.edge:hover polygon { stroke: red; fill: red; }
]]></style>

<defs>
  <circle id="rim" cx="0" cy="0" r="7"/>
  <circle id="rim2" cx="0" cy="0" r="3.5"/>
  <g id="zoomPlus">
    <use xlink:href="#rim" fill="#404040"><set attributeName="fill" to="#808080" begin="zoomplus.mouseover" end="zoomplus.mouseout"/></use>
    <path d="M-4,0h8M0,-4v8" fill="none" stroke="white" stroke-width="1.5" pointer-events="none"/>
  </g>
  <g id="zoomMin">
    <use xlink:href="#rim" fill="#404040"><set attributeName="fill" to="#808080" begin="zoomminus.mouseover" end="zoomminus.mouseout"/></use>
    <path d="M-4,0h8" fill="none" stroke="white" stroke-width="1.5" pointer-events="none"/>
  </g>
  <g id="arrowUp" transform="translate(30 24)">
    <use xlink:href="#rim"/>
    <path pointer-events="none" fill="none" stroke="white" stroke-width="1.5" d="M0,-3.0v7 M-2.5,-0.5L0,-3.0L2.5,-0.5"/>
  </g>
  <g id="arrowRight" transform="rotate(90) translate(36 -43)">
    <use xlink:href="#rim"/>
    <path pointer-events="none" fill="none" stroke="white" stroke-width="1.5" d="M0,-3.0v7 M-2.5,-0.5L0,-3.0L2.5,-0.5"/>
  </g>
  <g id="arrowDown" transform="rotate(180) translate(-30 -48)">
    <use xlink:href="#rim"/>
    <path pointer-events="none" fill="none" stroke="white" stroke-width="1.5" d="M0,-3.0v7 M-2.5,-0.5L0,-3.0L2.5,-0.5"/>
  </g>
  <g id="arrowLeft" transform="rotate(270) translate(-36 17)">
    <use xlink:href="#rim"/>
    <path pointer-events="none" fill="none" stroke="white" stroke-width="1.5" d="M0,-3.0v7 M-2.5,-0.5L0,-3.0L2.5,-0.5"/>
  </g>
  <g id="resetDef">
    <use xlink:href="#rim2" fill="#404040"><set attributeName="fill" to="#808080" begin="reset.mouseover" end="reset.mouseout"/></use>
  </g>
</defs>
<script type="application/ecmascript">
var viewWidth = 603;
var viewHeight = 197;
var sectionId = 'dynsection-0';
</script>
<script type="application/ecmascript" xlink:href="svg.min.js"/>
<svg id="graph" class="graph">
<g id="viewport">
<title>iop/sound</title>
<g id="clust1" class="cluster">
<title>clusterdir_0981ace215aa2029f526b70c145b9fbe</title>
<g id="a_clust1"><a xlink:href="dir_0981ace215aa2029f526b70c145b9fbe.html" target="_top" xlink:title="iop">
<polygon fill="#deebf9" stroke="#404040" stroke-dasharray="5,2" points="8,-8 8,-181 533,-181 533,-8 8,-8"/>
<text text-anchor="middle" x="270.5" y="-167.5" font-family="Helvetica,sans-Serif" font-size="10.00">iop</text>
</a>
</g>
</g>
<g id="clust2" class="cluster">
<title>clusterdir_838e88315325ec0d843359dcae22d639</title>
<g id="a_clust2"><a xlink:href="dir_838e88315325ec0d843359dcae22d639.html" target="_top">
<polygon fill="#deebf9" stroke="#404040" stroke-width="2" points="16,-63.25 16,-153.75 525,-153.75 525,-63.25 16,-63.25"/>
</a>
</g>
</g>
<!-- dir_9be0baa3d4a3e9f480a9ee70594037fa -->
<g id="node1" class="node">
<title>dir_9be0baa3d4a3e9f480a9ee70594037fa</title>
<g id="a_node1"><a xlink:href="dir_9be0baa3d4a3e9f480a9ee70594037fa.html" target="_top" xlink:title="kernel">
<polygon fill="#60a2e3" stroke="red" points="278.12,-35.25 235.88,-35.25 235.88,-16 278.12,-16 278.12,-35.25"/>
<text text-anchor="middle" x="257" y="-21.75" font-family="Helvetica,sans-Serif" font-size="10.00">kernel</text>
</a>
</g>
</g>
<!-- dir_838e88315325ec0d843359dcae22d639 -->
<g id="node2" class="node">
<title>dir_838e88315325ec0d843359dcae22d639</title>
<text text-anchor="middle" x="45" y="-132.25" font-family="Helvetica,sans-Serif" font-size="10.00">sound</text>
</g>
<!-- dir_9337eeae2b875a84dbe6e00bf944922d -->
<g id="node3" class="node">
<title>dir_9337eeae2b875a84dbe6e00bf944922d</title>
<g id="a_node3"><a xlink:href="dir_9337eeae2b875a84dbe6e00bf944922d.html" target="_top" xlink:title="ahx">
<polygon fill="#60a2e3" stroke="#404040" points="115.5,-145.75 84.5,-145.75 84.5,-126.5 115.5,-126.5 115.5,-145.75"/>
<text text-anchor="middle" x="100" y="-132.25" font-family="Helvetica,sans-Serif" font-size="10.00">ahx</text>
</a>
</g>
</g>
<!-- dir_9337eeae2b875a84dbe6e00bf944922d&#45;&gt;dir_9be0baa3d4a3e9f480a9ee70594037fa -->
<g id="edge1" class="edge">
<title>dir_9337eeae2b875a84dbe6e00bf944922d&#45;&gt;dir_9be0baa3d4a3e9f480a9ee70594037fa</title>
<g id="a_edge1"><a xlink:href="dir_000022_000212.html" target="_top">
<path fill="none" stroke="#63b8ff" d="M111.25,-126.11C128.91,-112.1 164.38,-84.5 196,-63.25 207.27,-55.68 220.1,-47.86 231.08,-41.4"/>
<polygon fill="#63b8ff" stroke="#63b8ff" points="232.73,-44.49 239.62,-36.44 229.21,-38.44 232.73,-44.49"/>
</a>
</g>
<g id="a_edge1&#45;headlabel"><a xlink:href="dir_000022_000212.html" target="_top" xlink:title="14">
<text text-anchor="middle" x="232.36" y="-44.11" font-family="Helvetica,sans-Serif" font-size="10.00" fill="#63b8ff">14</text>
</a>
</g>
</g>
<!-- dir_b3b65c61938638f28675fc77a7fe35e3 -->
<g id="node6" class="node">
<title>dir_b3b65c61938638f28675fc77a7fe35e3</title>
<g id="a_node6"><a xlink:href="dir_b3b65c61938638f28675fc77a7fe35e3.html" target="_top" xlink:title="libsd">
<polygon fill="#60a2e3" stroke="#404040" points="130.12,-90.5 93.88,-90.5 93.88,-71.25 130.12,-71.25 130.12,-90.5"/>
<text text-anchor="middle" x="112" y="-77" font-family="Helvetica,sans-Serif" font-size="10.00">libsd</text>
</a>
</g>
</g>
<!-- dir_9337eeae2b875a84dbe6e00bf944922d&#45;&gt;dir_b3b65c61938638f28675fc77a7fe35e3 -->
<g id="edge2" class="edge">
<title>dir_9337eeae2b875a84dbe6e00bf944922d&#45;&gt;dir_b3b65c61938638f28675fc77a7fe35e3</title>
<g id="a_edge2"><a xlink:href="dir_000022_000223.html" target="_top">
<path fill="none" stroke="#63b8ff" d="M101.98,-126.33C103.47,-119.74 105.56,-110.46 107.45,-102.07"/>
<polygon fill="#63b8ff" stroke="#63b8ff" points="110.86,-102.86 109.64,-92.34 104.03,-101.32 110.86,-102.86"/>
</a>
</g>
<g id="a_edge2&#45;headlabel"><a xlink:href="dir_000022_000223.html" target="_top" xlink:title="1">
<text text-anchor="middle" x="113.17" y="-101.64" font-family="Helvetica,sans-Serif" font-size="10.00" fill="#63b8ff">1</text>
</a>
</g>
</g>
<!-- dir_c224f8f6f41c46dc69cc573710289bc0 -->
<g id="node4" class="node">
<title>dir_c224f8f6f41c46dc69cc573710289bc0</title>
<g id="a_node4"><a xlink:href="dir_c224f8f6f41c46dc69cc573710289bc0.html" target="_top" xlink:title="audsrv">
<polygon fill="#60a2e3" stroke="#404040" points="178.62,-145.75 133.38,-145.75 133.38,-126.5 178.62,-126.5 178.62,-145.75"/>
<text text-anchor="middle" x="156" y="-132.25" font-family="Helvetica,sans-Serif" font-size="10.00">audsrv</text>
</a>
</g>
</g>
<!-- dir_c224f8f6f41c46dc69cc573710289bc0&#45;&gt;dir_9be0baa3d4a3e9f480a9ee70594037fa -->
<g id="edge3" class="edge">
<title>dir_c224f8f6f41c46dc69cc573710289bc0&#45;&gt;dir_9be0baa3d4a3e9f480a9ee70594037fa</title>
<g id="a_edge3"><a xlink:href="dir_000031_000212.html" target="_top">
<path fill="none" stroke="#63b8ff" d="M164.27,-126.25C180.99,-108.28 219.08,-67.36 240.89,-43.94"/>
<polygon fill="#63b8ff" stroke="#63b8ff" points="243.34,-46.44 247.59,-36.73 238.21,-41.67 243.34,-46.44"/>
</a>
</g>
<g id="a_edge3&#45;headlabel"><a xlink:href="dir_000031_000212.html" target="_top" xlink:title="53">
<text text-anchor="middle" x="244" y="-46.02" font-family="Helvetica,sans-Serif" font-size="10.00" fill="#63b8ff">53</text>
</a>
</g>
</g>
<!-- dir_ec70ebae439c2e5e4973a97a9e3f90a5 -->
<g id="node5" class="node">
<title>dir_ec70ebae439c2e5e4973a97a9e3f90a5</title>
<g id="a_node5"><a xlink:href="dir_ec70ebae439c2e5e4973a97a9e3f90a5.html" target="_top" xlink:title="clearspu">
<polygon fill="#60a2e3" stroke="#404040" points="249.38,-145.75 196.62,-145.75 196.62,-126.5 249.38,-126.5 249.38,-145.75"/>
<text text-anchor="middle" x="223" y="-132.25" font-family="Helvetica,sans-Serif" font-size="10.00">clearspu</text>
</a>
</g>
</g>
<!-- dir_ec70ebae439c2e5e4973a97a9e3f90a5&#45;&gt;dir_9be0baa3d4a3e9f480a9ee70594037fa -->
<g id="edge4" class="edge">
<title>dir_ec70ebae439c2e5e4973a97a9e3f90a5&#45;&gt;dir_9be0baa3d4a3e9f480a9ee70594037fa</title>
<g id="a_edge4"><a xlink:href="dir_000041_000212.html" target="_top">
<path fill="none" stroke="#63b8ff" d="M225.78,-126.25C231.21,-108.92 243.34,-70.23 250.78,-46.49"/>
<polygon fill="#63b8ff" stroke="#63b8ff" points="254.08,-47.66 253.73,-37.07 247.4,-45.57 254.08,-47.66"/>
</a>
</g>
<g id="a_edge4&#45;headlabel"><a xlink:href="dir_000041_000212.html" target="_top" xlink:title="5">
<text text-anchor="middle" x="256.16" y="-46.62" font-family="Helvetica,sans-Serif" font-size="10.00" fill="#63b8ff">5</text>
</a>
</g>
</g>
<!-- dir_b3b65c61938638f28675fc77a7fe35e3&#45;&gt;dir_9be0baa3d4a3e9f480a9ee70594037fa -->
<g id="edge5" class="edge">
<title>dir_b3b65c61938638f28675fc77a7fe35e3&#45;&gt;dir_9be0baa3d4a3e9f480a9ee70594037fa</title>
<g id="a_edge5"><a xlink:href="dir_000223_000212.html" target="_top">
<path fill="none" stroke="#63b8ff" d="M122.23,-70.94C125.78,-68.18 129.9,-65.32 134,-63.25 163.14,-48.51 199.23,-38.65 224.76,-32.9"/>
<polygon fill="#63b8ff" stroke="#63b8ff" points="225.16,-36.4 234.2,-30.87 223.69,-29.55 225.16,-36.4"/>
</a>
</g>
<g id="a_edge5&#45;headlabel"><a xlink:href="dir_000223_000212.html" target="_top" xlink:title="15">
<text text-anchor="middle" x="223.72" y="-35.73" font-family="Helvetica,sans-Serif" font-size="10.00" fill="#63b8ff">15</text>
</a>
</g>
</g>
<!-- dir_0b9117660766c284fe50bbf9fd6992c7 -->
<g id="node7" class="node">
<title>dir_0b9117660766c284fe50bbf9fd6992c7</title>
<g id="a_node7"><a xlink:href="dir_0b9117660766c284fe50bbf9fd6992c7.html" target="_top" xlink:title="libsnd2">
<polygon fill="#60a2e3" stroke="#404040" points="314.38,-145.75 267.62,-145.75 267.62,-126.5 314.38,-126.5 314.38,-145.75"/>
<text text-anchor="middle" x="291" y="-132.25" font-family="Helvetica,sans-Serif" font-size="10.00">libsnd2</text>
</a>
</g>
</g>
<!-- dir_0b9117660766c284fe50bbf9fd6992c7&#45;&gt;dir_9be0baa3d4a3e9f480a9ee70594037fa -->
<g id="edge6" class="edge">
<title>dir_0b9117660766c284fe50bbf9fd6992c7&#45;&gt;dir_9be0baa3d4a3e9f480a9ee70594037fa</title>
<g id="a_edge6"><a xlink:href="dir_000224_000212.html" target="_top">
<path fill="none" stroke="#63b8ff" d="M288.22,-126.25C282.79,-108.92 270.66,-70.23 263.22,-46.49"/>
<polygon fill="#63b8ff" stroke="#63b8ff" points="266.6,-45.57 260.27,-37.07 259.92,-47.66 266.6,-45.57"/>
</a>
</g>
<g id="a_edge6&#45;headlabel"><a xlink:href="dir_000224_000212.html" target="_top" xlink:title="6">
<text text-anchor="middle" x="269.94" y="-42.83" font-family="Helvetica,sans-Serif" font-size="10.00" fill="#63b8ff">6</text>
</a>
</g>
</g>
<!-- dir_bdd9a5d540de89e9fe90efdfc6973a4f -->
<g id="node11" class="node">
<title>dir_bdd9a5d540de89e9fe90efdfc6973a4f</title>
<g id="a_node11"><a xlink:href="dir_bdd9a5d540de89e9fe90efdfc6973a4f.html" target="_top" xlink:title="common">
<polygon fill="#deebf9" stroke="red" points="594.75,-90.5 541.25,-90.5 541.25,-71.25 594.75,-71.25 594.75,-90.5"/>
<text text-anchor="middle" x="568" y="-77" font-family="Helvetica,sans-Serif" font-size="10.00">common</text>
</a>
</g>
</g>
<!-- dir_0b9117660766c284fe50bbf9fd6992c7&#45;&gt;dir_bdd9a5d540de89e9fe90efdfc6973a4f -->
<g id="edge7" class="edge">
<title>dir_0b9117660766c284fe50bbf9fd6992c7&#45;&gt;dir_bdd9a5d540de89e9fe90efdfc6973a4f</title>
<g id="a_edge7"><a xlink:href="dir_000224_000042.html" target="_top">
<path fill="none" stroke="#63b8ff" d="M314.74,-128.67C317.84,-127.9 320.99,-127.16 324,-126.5 414.38,-106.79 438.26,-108.49 529,-90.5 529.24,-90.45 529.48,-90.41 529.72,-90.36"/>
<polygon fill="#63b8ff" stroke="#63b8ff" points="530.2,-93.83 539.28,-88.37 528.77,-86.98 530.2,-93.83"/>
</a>
</g>
<g id="a_edge7&#45;headlabel"><a xlink:href="dir_000224_000042.html" target="_top" xlink:title="1">
<text text-anchor="middle" x="528.74" y="-93.16" font-family="Helvetica,sans-Serif" font-size="10.00" fill="#63b8ff">1</text>
</a>
</g>
</g>
<!-- dir_3bdb928cbd5acb3c07c5155022fcf7d7 -->
<g id="node8" class="node">
<title>dir_3bdb928cbd5acb3c07c5155022fcf7d7</title>
<g id="a_node8"><a xlink:href="dir_3bdb928cbd5acb3c07c5155022fcf7d7.html" target="_top" xlink:title="libspu2">
<polygon fill="#60a2e3" stroke="#404040" points="379.38,-145.75 332.62,-145.75 332.62,-126.5 379.38,-126.5 379.38,-145.75"/>
<text text-anchor="middle" x="356" y="-132.25" font-family="Helvetica,sans-Serif" font-size="10.00">libspu2</text>
</a>
</g>
</g>
<!-- dir_3bdb928cbd5acb3c07c5155022fcf7d7&#45;&gt;dir_9be0baa3d4a3e9f480a9ee70594037fa -->
<g id="edge8" class="edge">
<title>dir_3bdb928cbd5acb3c07c5155022fcf7d7&#45;&gt;dir_9be0baa3d4a3e9f480a9ee70594037fa</title>
<g id="a_edge8"><a xlink:href="dir_000225_000212.html" target="_top">
<path fill="none" stroke="#63b8ff" d="M347.9,-126.25C331.51,-108.28 294.17,-67.36 272.79,-43.94"/>
<polygon fill="#63b8ff" stroke="#63b8ff" points="275.56,-41.77 266.23,-36.74 270.39,-46.49 275.56,-41.77"/>
</a>
</g>
<g id="a_edge8&#45;headlabel"><a xlink:href="dir_000225_000212.html" target="_top" xlink:title="4">
<text text-anchor="middle" x="279.06" y="-37.52" font-family="Helvetica,sans-Serif" font-size="10.00" fill="#63b8ff">4</text>
</a>
</g>
</g>
<!-- dir_3bdb928cbd5acb3c07c5155022fcf7d7&#45;&gt;dir_bdd9a5d540de89e9fe90efdfc6973a4f -->
<g id="edge9" class="edge">
<title>dir_3bdb928cbd5acb3c07c5155022fcf7d7&#45;&gt;dir_bdd9a5d540de89e9fe90efdfc6973a4f</title>
<g id="a_edge9"><a xlink:href="dir_000225_000042.html" target="_top">
<path fill="none" stroke="#63b8ff" d="M379.75,-128.67C382.53,-127.93 385.33,-127.19 388,-126.5 436.8,-113.88 493.23,-100 529.71,-91.13"/>
<polygon fill="#63b8ff" stroke="#63b8ff" points="530.45,-94.55 539.35,-88.79 528.8,-87.75 530.45,-94.55"/>
</a>
</g>
<g id="a_edge9&#45;headlabel"><a xlink:href="dir_000225_000042.html" target="_top" xlink:title="1">
<text text-anchor="middle" x="529.1" y="-93.93" font-family="Helvetica,sans-Serif" font-size="10.00" fill="#63b8ff">1</text>
</a>
</g>
</g>
<!-- dir_0fa59b7b5c95696e5fa18237205389fe -->
<g id="node9" class="node">
<title>dir_0fa59b7b5c95696e5fa18237205389fe</title>
<g id="a_node9"><a xlink:href="dir_0fa59b7b5c95696e5fa18237205389fe.html" target="_top" xlink:title="ps2snd">
<polygon fill="#60a2e3" stroke="#404040" points="444.75,-145.75 397.25,-145.75 397.25,-126.5 444.75,-126.5 444.75,-145.75"/>
<text text-anchor="middle" x="421" y="-132.25" font-family="Helvetica,sans-Serif" font-size="10.00">ps2snd</text>
</a>
</g>
</g>
<!-- dir_0fa59b7b5c95696e5fa18237205389fe&#45;&gt;dir_9be0baa3d4a3e9f480a9ee70594037fa -->
<g id="edge10" class="edge">
<title>dir_0fa59b7b5c95696e5fa18237205389fe&#45;&gt;dir_9be0baa3d4a3e9f480a9ee70594037fa</title>
<g id="a_edge10"><a xlink:href="dir_000266_000212.html" target="_top">
<path fill="none" stroke="#63b8ff" d="M407.3,-126.06C379.13,-107.43 314.47,-64.65 279.85,-41.75"/>
<polygon fill="#63b8ff" stroke="#63b8ff" points="282.08,-39.02 271.81,-36.42 278.22,-44.86 282.08,-39.02"/>
</a>
</g>
<g id="a_edge10&#45;headlabel"><a xlink:href="dir_000266_000212.html" target="_top" xlink:title="23">
<text text-anchor="middle" x="285.38" y="-33.93" font-family="Helvetica,sans-Serif" font-size="10.00" fill="#63b8ff">23</text>
</a>
</g>
</g>
<!-- dir_0fa59b7b5c95696e5fa18237205389fe&#45;&gt;dir_bdd9a5d540de89e9fe90efdfc6973a4f -->
<g id="edge11" class="edge">
<title>dir_0fa59b7b5c95696e5fa18237205389fe&#45;&gt;dir_bdd9a5d540de89e9fe90efdfc6973a4f</title>
<g id="a_edge11"><a xlink:href="dir_000266_000042.html" target="_top">
<path fill="none" stroke="#63b8ff" d="M444.95,-126.45C468.68,-117.85 505.33,-104.58 532.47,-94.75"/>
<polygon fill="#63b8ff" stroke="#63b8ff" points="533.45,-98.11 541.66,-91.42 531.06,-91.53 533.45,-98.11"/>
</a>
</g>
<g id="a_edge11&#45;headlabel"><a xlink:href="dir_000266_000042.html" target="_top" xlink:title="2">
<text text-anchor="middle" x="532.46" y="-97.62" font-family="Helvetica,sans-Serif" font-size="10.00" fill="#63b8ff">2</text>
</a>
</g>
</g>
<!-- dir_46f718c737dc136fbfd1d21209bd1e7f -->
<g id="node10" class="node">
<title>dir_46f718c737dc136fbfd1d21209bd1e7f</title>
<g id="a_node10"><a xlink:href="dir_46f718c737dc136fbfd1d21209bd1e7f.html" target="_top" xlink:title="rspu2drv">
<polygon fill="#60a2e3" stroke="#404040" points="516.75,-145.75 463.25,-145.75 463.25,-126.5 516.75,-126.5 516.75,-145.75"/>
<text text-anchor="middle" x="490" y="-132.25" font-family="Helvetica,sans-Serif" font-size="10.00">rspu2drv</text>
</a>
</g>
</g>
<!-- dir_46f718c737dc136fbfd1d21209bd1e7f&#45;&gt;dir_9be0baa3d4a3e9f480a9ee70594037fa -->
<g id="edge12" class="edge">
<title>dir_46f718c737dc136fbfd1d21209bd1e7f&#45;&gt;dir_9be0baa3d4a3e9f480a9ee70594037fa</title>
<g id="a_edge12"><a xlink:href="dir_000275_000212.html" target="_top">
<path fill="none" stroke="#63b8ff" d="M471.18,-126.21C442.34,-112.57 385.45,-85.72 337,-63.25 320.5,-55.6 302.03,-47.14 287.01,-40.28"/>
<polygon fill="#63b8ff" stroke="#63b8ff" points="288.68,-37.19 278.13,-36.23 285.77,-43.56 288.68,-37.19"/>
</a>
</g>
<g id="a_edge12&#45;headlabel"><a xlink:href="dir_000275_000212.html" target="_top" xlink:title="13">
<text text-anchor="middle" x="291.75" y="-31.6" font-family="Helvetica,sans-Serif" font-size="10.00" fill="#63b8ff">13</text>
</a>
</g>
</g>
<!-- dir_46f718c737dc136fbfd1d21209bd1e7f&#45;&gt;dir_bdd9a5d540de89e9fe90efdfc6973a4f -->
<g id="edge13" class="edge">
<title>dir_46f718c737dc136fbfd1d21209bd1e7f&#45;&gt;dir_bdd9a5d540de89e9fe90efdfc6973a4f</title>
<g id="a_edge13"><a xlink:href="dir_000275_000042.html" target="_top">
<path fill="none" stroke="#63b8ff" d="M503.23,-126.09C514.77,-118.21 531.77,-106.61 545.45,-97.27"/>
<polygon fill="#63b8ff" stroke="#63b8ff" points="547.17,-100.33 553.45,-91.81 543.22,-94.55 547.17,-100.33"/>
</a>
</g>
<g id="a_edge13&#45;headlabel"><a xlink:href="dir_000275_000042.html" target="_top" xlink:title="1">
<text text-anchor="middle" x="547.05" y="-99.98" font-family="Helvetica,sans-Serif" font-size="10.00" fill="#63b8ff">1</text>
</a>
</g>
</g>
</g>
</svg>

<g id="navigator" transform="translate(0 0)" fill="#404254">
  <rect fill="#f2f5e9" fill-opacity="0.5" stroke="#606060" stroke-width=".5" x="0" y="0" width="60" height="60"/>
  <use id="zoomplus" xlink:href="#zoomPlus" x="17" y="9" onmousedown="handleZoom(evt,'in')"/>
  <use id="zoomminus" xlink:href="#zoomMin" x="42" y="9" onmousedown="handleZoom(evt,'out')"/>
  <use id="reset" xlink:href="#resetDef" x="30" y="36" onmousedown="handleReset()"/>
   <use id="arrowup" xlink:href="#arrowUp" x="0" y="0" onmousedown="handlePan(0,-1)"/>
  <use id="arrowright" xlink:href="#arrowRight" x="0" y="0" onmousedown="handlePan(1,0)"/>
  <use id="arrowdown" xlink:href="#arrowDown" x="0" y="0" onmousedown="handlePan(0,1)"/>
  <use id="arrowleft" xlink:href="#arrowLeft" x="0" y="0" onmousedown="handlePan(-1,0)"/>
</g>
<svg viewBox="0 0 15 15" width="100%" height="30px" preserveAspectRatio="xMaxYMin meet">
 <g id="arrow_out" transform="scale(0.3 0.3)">
  <a xlink:href="dir_838e88315325ec0d843359dcae22d639_dep_org.svg" target="_base">
   <rect id="button" ry="5" rx="5" y="6" x="6" height="38" width="38"
        fill="#f2f5e9" fill-opacity="0.5" stroke="#606060" stroke-width="1.0"/>
   <path id="arrow"
     d="M 11.500037,31.436501 C 11.940474,20.09759 22.043105,11.32322 32.158766,21.979434 L 37.068811,17.246167 C 37.068811,17.246167 37.088388,32 37.088388,32 L 22.160133,31.978069 C 22.160133,31.978069 26.997745,27.140456 26.997745,27.140456 C 18.528582,18.264221 13.291696,25.230495 11.500037,31.436501 z"
     style="fill:#404040;"/>
  </a>
 </g>
</svg>

<style type='text/css'>
<![CDATA[
[data-mouse-over-selected='false'] { opacity: 0.7; }
[data-mouse-over-selected='true']  { opacity: 1.0; }
]]>
</style>
<script type="application/ecmascript"><![CDATA[
document.addEventListener('DOMContentLoaded', (event) => {
  highlightEdges();
  highlightAdjacentNodes();
});
]]></script>
</svg>
