<?xml version="1.0" encoding="UTF-8" standalone="no"?>
<!DOCTYPE svg PUBLIC "-//W3C//DTD SVG 1.1//EN"
 "http://www.w3.org/Graphics/SVG/1.1/DTD/svg11.dtd">
<!-- Generated by graphviz version 12.2.0 (20241103.1931)
 -->
<!-- Title: iop/fs Pages: 1 -->
<svg width="981pt" height="236pt"
 viewBox="0.00 0.00 981.00 236.25" xmlns="http://www.w3.org/2000/svg" xmlns:xlink="http://www.w3.org/1999/xlink">
<g id="graph0" class="graph" transform="scale(1 1) rotate(0) translate(4 232.25)">
<title>iop/fs</title>
<g id="clust1" class="cluster">
<title>clusterdir_0981ace215aa2029f526b70c145b9fbe</title>
<g id="a_clust1"><a xlink:href="dir_0981ace215aa2029f526b70c145b9fbe.html" target="_top" xlink:title="iop">
<polygon fill="#deebf9" stroke="#404040" stroke-dasharray="5,2" points="8,-39.25 8,-220.25 965,-220.25 965,-39.25 8,-39.25"/>
<text text-anchor="middle" x="486.5" y="-206.75" font-family="Helvetica,sans-Serif" font-size="10.00">iop</text>
</a>
</g>
</g>
<g id="clust2" class="cluster">
<title>clusterdir_f24daea2522ffa8b6dc5fa9cdf5b8f5c</title>
<g id="a_clust2"><a xlink:href="dir_f24daea2522ffa8b6dc5fa9cdf5b8f5c.html" target="_top">
<polygon fill="#deebf9" stroke="#404040" stroke-width="2" points="212,-47.25 212,-193 957,-193 957,-47.25 212,-47.25"/>
</a>
</g>
</g>
<!-- dir_9be0baa3d4a3e9f480a9ee70594037fa -->
<g id="node1" class="node">
<title>dir_9be0baa3d4a3e9f480a9ee70594037fa</title>
<g id="a_node1"><a xlink:href="dir_9be0baa3d4a3e9f480a9ee70594037fa.html" target="_top" xlink:title="kernel">
<polygon fill="#60a2e3" stroke="red" points="181.12,-74.5 138.88,-74.5 138.88,-55.25 181.12,-55.25 181.12,-74.5"/>
<text text-anchor="middle" x="160" y="-61" font-family="Helvetica,sans-Serif" font-size="10.00">kernel</text>
</a>
</g>
</g>
<!-- dir_40ac35421bc63b72c26b6c69b1517fd6 -->
<g id="node2" class="node">
<title>dir_40ac35421bc63b72c26b6c69b1517fd6</title>
<g id="a_node2"><a xlink:href="dir_40ac35421bc63b72c26b6c69b1517fd6.html" target="_top" xlink:title="system">
<polygon fill="#60a2e3" stroke="red" points="203.75,-129.75 156.25,-129.75 156.25,-110.5 203.75,-110.5 203.75,-129.75"/>
<text text-anchor="middle" x="180" y="-116.25" font-family="Helvetica,sans-Serif" font-size="10.00">system</text>
</a>
</g>
</g>
<!-- dir_f24daea2522ffa8b6dc5fa9cdf5b8f5c -->
<g id="node3" class="node">
<title>dir_f24daea2522ffa8b6dc5fa9cdf5b8f5c</title>
<text text-anchor="middle" x="234" y="-171.5" font-family="Helvetica,sans-Serif" font-size="10.00">fs</text>
</g>
<!-- dir_511aea66b1e7cdedbb181e4504632afe -->
<g id="node4" class="node">
<title>dir_511aea66b1e7cdedbb181e4504632afe</title>
<g id="a_node4"><a xlink:href="dir_511aea66b1e7cdedbb181e4504632afe.html" target="_top" xlink:title="adddrv">
<polygon fill="#60a2e3" stroke="#404040" points="562.62,-185 517.38,-185 517.38,-165.75 562.62,-165.75 562.62,-185"/>
<text text-anchor="middle" x="540" y="-171.5" font-family="Helvetica,sans-Serif" font-size="10.00">adddrv</text>
</a>
</g>
</g>
<!-- dir_511aea66b1e7cdedbb181e4504632afe&#45;&gt;dir_9be0baa3d4a3e9f480a9ee70594037fa -->
<g id="edge1" class="edge">
<title>dir_511aea66b1e7cdedbb181e4504632afe&#45;&gt;dir_9be0baa3d4a3e9f480a9ee70594037fa</title>
<g id="a_edge1"><a xlink:href="dir_000018_000212.html" target="_top">
<path fill="none" stroke="#63b8ff" d="M517.08,-167.5C514.38,-166.84 511.64,-166.23 509,-165.75 465.43,-157.78 141.87,-162.45 112,-129.75 97.82,-114.23 117.26,-94.69 135.48,-81.34"/>
<polygon fill="#63b8ff" stroke="#63b8ff" points="137.22,-84.39 143.46,-75.83 133.24,-78.63 137.22,-84.39"/>
</a>
</g>
<g id="a_edge1&#45;headlabel"><a xlink:href="dir_000018_000212.html" target="_top" xlink:title="8">
<text text-anchor="middle" x="137.12" y="-84.03" font-family="Helvetica,sans-Serif" font-size="10.00" fill="#63b8ff">8</text>
</a>
</g>
</g>
<!-- dir_026e95636ee7a5fe61bdfe401a766815 -->
<g id="node16" class="node">
<title>dir_026e95636ee7a5fe61bdfe401a766815</title>
<g id="a_node16"><a xlink:href="dir_026e95636ee7a5fe61bdfe401a766815.html" target="_top" xlink:title="romdrv">
<polygon fill="#60a2e3" stroke="#404040" points="529,-129.75 483,-129.75 483,-110.5 529,-110.5 529,-129.75"/>
<text text-anchor="middle" x="506" y="-116.25" font-family="Helvetica,sans-Serif" font-size="10.00">romdrv</text>
</a>
</g>
</g>
<!-- dir_511aea66b1e7cdedbb181e4504632afe&#45;&gt;dir_026e95636ee7a5fe61bdfe401a766815 -->
<g id="edge2" class="edge">
<title>dir_511aea66b1e7cdedbb181e4504632afe&#45;&gt;dir_026e95636ee7a5fe61bdfe401a766815</title>
<g id="a_edge2"><a xlink:href="dir_000018_000271.html" target="_top">
<path fill="none" stroke="#63b8ff" d="M534.39,-165.58C529.88,-158.53 523.41,-148.4 517.79,-139.58"/>
<polygon fill="#63b8ff" stroke="#63b8ff" points="520.88,-137.93 512.55,-131.38 514.98,-141.7 520.88,-137.93"/>
</a>
</g>
<g id="a_edge2&#45;headlabel"><a xlink:href="dir_000018_000271.html" target="_top" xlink:title="2">
<text text-anchor="middle" x="524.4" y="-134.28" font-family="Helvetica,sans-Serif" font-size="10.00" fill="#63b8ff">2</text>
</a>
</g>
</g>
<!-- dir_d88f8949096e46f9e554069e44cde349 -->
<g id="node5" class="node">
<title>dir_d88f8949096e46f9e554069e44cde349</title>
<g id="a_node5"><a xlink:href="dir_d88f8949096e46f9e554069e44cde349.html" target="_top" xlink:title="addrom2">
<polygon fill="#60a2e3" stroke="#404040" points="499.75,-185 446.25,-185 446.25,-165.75 499.75,-165.75 499.75,-185"/>
<text text-anchor="middle" x="473" y="-171.5" font-family="Helvetica,sans-Serif" font-size="10.00">addrom2</text>
</a>
</g>
</g>
<!-- dir_d88f8949096e46f9e554069e44cde349&#45;&gt;dir_9be0baa3d4a3e9f480a9ee70594037fa -->
<g id="edge3" class="edge">
<title>dir_d88f8949096e46f9e554069e44cde349&#45;&gt;dir_9be0baa3d4a3e9f480a9ee70594037fa</title>
<g id="a_edge3"><a xlink:href="dir_000019_000212.html" target="_top">
<path fill="none" stroke="#63b8ff" d="M445.95,-167.49C442.94,-166.85 439.91,-166.25 437,-165.75 361.02,-152.74 143.6,-187.01 92,-129.75 75.3,-111.22 103.3,-91.87 128.26,-79.39"/>
<polygon fill="#63b8ff" stroke="#63b8ff" points="129.73,-82.57 137.27,-75.13 126.73,-76.24 129.73,-82.57"/>
</a>
</g>
<g id="a_edge3&#45;headlabel"><a xlink:href="dir_000019_000212.html" target="_top" xlink:title="8">
<text text-anchor="middle" x="129.06" y="-82.15" font-family="Helvetica,sans-Serif" font-size="10.00" fill="#63b8ff">8</text>
</a>
</g>
</g>
<!-- dir_d88f8949096e46f9e554069e44cde349&#45;&gt;dir_026e95636ee7a5fe61bdfe401a766815 -->
<g id="edge4" class="edge">
<title>dir_d88f8949096e46f9e554069e44cde349&#45;&gt;dir_026e95636ee7a5fe61bdfe401a766815</title>
<g id="a_edge4"><a xlink:href="dir_000019_000271.html" target="_top">
<path fill="none" stroke="#63b8ff" d="M478.45,-165.58C482.77,-158.61 488.96,-148.62 494.38,-139.87"/>
<polygon fill="#63b8ff" stroke="#63b8ff" points="497.34,-141.74 499.64,-131.4 491.39,-138.05 497.34,-141.74"/>
</a>
</g>
<g id="a_edge4&#45;headlabel"><a xlink:href="dir_000019_000271.html" target="_top" xlink:title="2">
<text text-anchor="middle" x="498.66" y="-141.13" font-family="Helvetica,sans-Serif" font-size="10.00" fill="#63b8ff">2</text>
</a>
</g>
</g>
<!-- dir_0134b0376fbe77322088b496fb368f9b -->
<g id="node6" class="node">
<title>dir_0134b0376fbe77322088b496fb368f9b</title>
<g id="a_node6"><a xlink:href="dir_0134b0376fbe77322088b496fb368f9b.html" target="_top" xlink:title="bdm">
<polygon fill="#60a2e3" stroke="#404040" points="630.38,-129.75 595.62,-129.75 595.62,-110.5 630.38,-110.5 630.38,-129.75"/>
<text text-anchor="middle" x="613" y="-116.25" font-family="Helvetica,sans-Serif" font-size="10.00">bdm</text>
</a>
</g>
</g>
<!-- dir_0134b0376fbe77322088b496fb368f9b&#45;&gt;dir_9be0baa3d4a3e9f480a9ee70594037fa -->
<g id="edge5" class="edge">
<title>dir_0134b0376fbe77322088b496fb368f9b&#45;&gt;dir_9be0baa3d4a3e9f480a9ee70594037fa</title>
<g id="a_edge5"><a xlink:href="dir_000032_000212.html" target="_top">
<path fill="none" stroke="#63b8ff" d="M595.42,-117.07C580.23,-115.31 557.67,-112.7 538,-110.5 391.38,-94.07 354.03,-95.56 208,-74.5 202.96,-73.77 197.64,-72.91 192.45,-72.02"/>
<polygon fill="#63b8ff" stroke="#63b8ff" points="193.4,-68.63 182.94,-70.32 192.17,-75.53 193.4,-68.63"/>
</a>
</g>
<g id="a_edge5&#45;headlabel"><a xlink:href="dir_000032_000212.html" target="_top" xlink:title="20">
<text text-anchor="middle" x="195.95" y="-62.33" font-family="Helvetica,sans-Serif" font-size="10.00" fill="#63b8ff">20</text>
</a>
</g>
</g>
<!-- dir_10cce8191a2d4629e92aaca1231c0797 -->
<g id="node14" class="node">
<title>dir_10cce8191a2d4629e92aaca1231c0797</title>
<g id="a_node14"><a xlink:href="dir_10cce8191a2d4629e92aaca1231c0797.html" target="_top" xlink:title="libbdm">
<polygon fill="#60a2e3" stroke="#404040" points="603.25,-74.5 558.75,-74.5 558.75,-55.25 603.25,-55.25 603.25,-74.5"/>
<text text-anchor="middle" x="581" y="-61" font-family="Helvetica,sans-Serif" font-size="10.00">libbdm</text>
</a>
</g>
</g>
<!-- dir_0134b0376fbe77322088b496fb368f9b&#45;&gt;dir_10cce8191a2d4629e92aaca1231c0797 -->
<g id="edge6" class="edge">
<title>dir_0134b0376fbe77322088b496fb368f9b&#45;&gt;dir_10cce8191a2d4629e92aaca1231c0797</title>
<g id="a_edge6"><a xlink:href="dir_000032_000216.html" target="_top">
<path fill="none" stroke="#63b8ff" d="M602.55,-110.33C596.99,-103.51 590.71,-93.81 586.09,-85.2"/>
<polygon fill="#63b8ff" stroke="#63b8ff" points="589.29,-83.76 581.84,-76.23 582.96,-86.76 589.29,-83.76"/>
</a>
</g>
<g id="a_edge6&#45;headlabel"><a xlink:href="dir_000032_000216.html" target="_top" xlink:title="1">
<text text-anchor="middle" x="592.74" y="-80.55" font-family="Helvetica,sans-Serif" font-size="10.00" fill="#63b8ff">1</text>
</a>
</g>
</g>
<!-- dir_bdd9a5d540de89e9fe90efdfc6973a4f -->
<g id="node18" class="node">
<title>dir_bdd9a5d540de89e9fe90efdfc6973a4f</title>
<g id="a_node18"><a xlink:href="dir_bdd9a5d540de89e9fe90efdfc6973a4f.html" target="_top" xlink:title="common">
<polygon fill="#deebf9" stroke="red" points="752.75,-19.25 699.25,-19.25 699.25,0 752.75,0 752.75,-19.25"/>
<text text-anchor="middle" x="726" y="-5.75" font-family="Helvetica,sans-Serif" font-size="10.00">common</text>
</a>
</g>
</g>
<!-- dir_0134b0376fbe77322088b496fb368f9b&#45;&gt;dir_bdd9a5d540de89e9fe90efdfc6973a4f -->
<g id="edge7" class="edge">
<title>dir_0134b0376fbe77322088b496fb368f9b&#45;&gt;dir_bdd9a5d540de89e9fe90efdfc6973a4f</title>
<g id="a_edge7"><a xlink:href="dir_000032_000042.html" target="_top">
<path fill="none" stroke="#63b8ff" d="M621.68,-110.05C636.16,-95.02 666.28,-64.12 693,-39.25 697.29,-35.26 701.99,-31.08 706.46,-27.17"/>
<polygon fill="#63b8ff" stroke="#63b8ff" points="708.68,-29.88 713.98,-20.71 704.12,-24.57 708.68,-29.88"/>
</a>
</g>
<g id="a_edge7&#45;headlabel"><a xlink:href="dir_000032_000042.html" target="_top" xlink:title="3">
<text text-anchor="middle" x="708.96" y="-29.52" font-family="Helvetica,sans-Serif" font-size="10.00" fill="#63b8ff">3</text>
</a>
</g>
</g>
<!-- dir_ca4e6ad4571d2d160c85f86efebac72d -->
<g id="node7" class="node">
<title>dir_ca4e6ad4571d2d160c85f86efebac72d</title>
<g id="a_node7"><a xlink:href="dir_ca4e6ad4571d2d160c85f86efebac72d.html" target="_top" xlink:title="bdmfs_fatfs">
<polygon fill="#60a2e3" stroke="#404040" points="840.88,-185 773.12,-185 773.12,-165.75 840.88,-165.75 840.88,-185"/>
<text text-anchor="middle" x="807" y="-171.5" font-family="Helvetica,sans-Serif" font-size="10.00">bdmfs_fatfs</text>
</a>
</g>
</g>
<!-- dir_ca4e6ad4571d2d160c85f86efebac72d&#45;&gt;dir_9be0baa3d4a3e9f480a9ee70594037fa -->
<g id="edge10" class="edge">
<title>dir_ca4e6ad4571d2d160c85f86efebac72d&#45;&gt;dir_9be0baa3d4a3e9f480a9ee70594037fa</title>
<g id="a_edge10"><a xlink:href="dir_000033_000212.html" target="_top">
<path fill="none" stroke="#63b8ff" d="M772.78,-167.2C769.82,-166.68 766.86,-166.18 764,-165.75 608.5,-142.26 566.86,-157.14 412,-129.75 369.59,-122.25 250.35,-90.43 192.41,-74.72"/>
<polygon fill="#63b8ff" stroke="#63b8ff" points="193.39,-71.36 182.82,-72.11 191.55,-78.11 193.39,-71.36"/>
</a>
</g>
<g id="a_edge10&#45;headlabel"><a xlink:href="dir_000033_000212.html" target="_top" xlink:title="20">
<text text-anchor="middle" x="196.14" y="-65.29" font-family="Helvetica,sans-Serif" font-size="10.00" fill="#63b8ff">20</text>
</a>
</g>
</g>
<!-- dir_ca4e6ad4571d2d160c85f86efebac72d&#45;&gt;dir_0134b0376fbe77322088b496fb368f9b -->
<g id="edge8" class="edge">
<title>dir_ca4e6ad4571d2d160c85f86efebac72d&#45;&gt;dir_0134b0376fbe77322088b496fb368f9b</title>
<g id="a_edge8"><a xlink:href="dir_000033_000032.html" target="_top">
<path fill="none" stroke="#63b8ff" d="M774.09,-165.34C736.89,-155.13 676.93,-138.67 641.61,-128.98"/>
<polygon fill="#63b8ff" stroke="#63b8ff" points="642.67,-125.64 632.1,-126.37 640.82,-132.39 642.67,-125.64"/>
</a>
</g>
<g id="a_edge8&#45;headlabel"><a xlink:href="dir_000033_000032.html" target="_top" xlink:title="4">
<text text-anchor="middle" x="645.43" y="-119.58" font-family="Helvetica,sans-Serif" font-size="10.00" fill="#63b8ff">4</text>
</a>
</g>
</g>
<!-- dir_ca4e6ad4571d2d160c85f86efebac72d&#45;&gt;dir_bdd9a5d540de89e9fe90efdfc6973a4f -->
<g id="edge9" class="edge">
<title>dir_ca4e6ad4571d2d160c85f86efebac72d&#45;&gt;dir_bdd9a5d540de89e9fe90efdfc6973a4f</title>
<g id="a_edge9"><a xlink:href="dir_000033_000042.html" target="_top">
<path fill="none" stroke="#63b8ff" d="M803.09,-165.38C793.49,-143.48 767.76,-85.77 743,-39.25 741.26,-35.99 739.33,-32.57 737.42,-29.28"/>
<polygon fill="#63b8ff" stroke="#63b8ff" points="740.5,-27.61 732.36,-20.82 734.49,-31.2 740.5,-27.61"/>
</a>
</g>
<g id="a_edge9&#45;headlabel"><a xlink:href="dir_000033_000042.html" target="_top" xlink:title="2">
<text text-anchor="middle" x="744" y="-24.06" font-family="Helvetica,sans-Serif" font-size="10.00" fill="#63b8ff">2</text>
</a>
</g>
</g>
<!-- dir_eabe988c95970cb88382a9440b1d86c2 -->
<g id="node8" class="node">
<title>dir_eabe988c95970cb88382a9440b1d86c2</title>
<g id="a_node8"><a xlink:href="dir_eabe988c95970cb88382a9440b1d86c2.html" target="_top" xlink:title="bdmfs_vfat">
<polygon fill="#60a2e3" stroke="#404040" points="645.38,-185 580.62,-185 580.62,-165.75 645.38,-165.75 645.38,-185"/>
<text text-anchor="middle" x="613" y="-171.5" font-family="Helvetica,sans-Serif" font-size="10.00">bdmfs_vfat</text>
</a>
</g>
</g>
<!-- dir_eabe988c95970cb88382a9440b1d86c2&#45;&gt;dir_9be0baa3d4a3e9f480a9ee70594037fa -->
<g id="edge11" class="edge">
<title>dir_eabe988c95970cb88382a9440b1d86c2&#45;&gt;dir_9be0baa3d4a3e9f480a9ee70594037fa</title>
<g id="a_edge11"><a xlink:href="dir_000034_000212.html" target="_top">
<path fill="none" stroke="#63b8ff" d="M580.39,-167.13C577.56,-166.62 574.74,-166.15 572,-165.75 523.46,-158.69 165.24,-165.82 132,-129.75 119.75,-116.46 131.31,-96.94 143.08,-82.99"/>
<polygon fill="#63b8ff" stroke="#63b8ff" points="145.42,-85.61 149.57,-75.86 140.25,-80.89 145.42,-85.61"/>
</a>
</g>
<g id="a_edge11&#45;headlabel"><a xlink:href="dir_000034_000212.html" target="_top" xlink:title="13">
<text text-anchor="middle" x="146.12" y="-85.18" font-family="Helvetica,sans-Serif" font-size="10.00" fill="#63b8ff">13</text>
</a>
</g>
</g>
<!-- dir_eabe988c95970cb88382a9440b1d86c2&#45;&gt;dir_0134b0376fbe77322088b496fb368f9b -->
<g id="edge12" class="edge">
<title>dir_eabe988c95970cb88382a9440b1d86c2&#45;&gt;dir_0134b0376fbe77322088b496fb368f9b</title>
<g id="a_edge12"><a xlink:href="dir_000034_000032.html" target="_top">
<path fill="none" stroke="#63b8ff" d="M613,-165.58C613,-159.07 613,-149.92 613,-141.62"/>
<polygon fill="#63b8ff" stroke="#63b8ff" points="616.5,-141.62 613,-131.62 609.5,-141.62 616.5,-141.62"/>
</a>
</g>
<g id="a_edge12&#45;headlabel"><a xlink:href="dir_000034_000032.html" target="_top" xlink:title="2">
<text text-anchor="middle" x="619.34" y="-139.83" font-family="Helvetica,sans-Serif" font-size="10.00" fill="#63b8ff">2</text>
</a>
</g>
</g>
<!-- dir_a0342a6ef9487eda55789d2e07a75ee7 -->
<g id="node9" class="node">
<title>dir_a0342a6ef9487eda55789d2e07a75ee7</title>
<g id="a_node9"><a xlink:href="dir_a0342a6ef9487eda55789d2e07a75ee7.html" target="_top" xlink:title="devfs">
<polygon fill="#60a2e3" stroke="#404040" points="428,-185 388,-185 388,-165.75 428,-165.75 428,-185"/>
<text text-anchor="middle" x="408" y="-171.5" font-family="Helvetica,sans-Serif" font-size="10.00">devfs</text>
</a>
</g>
</g>
<!-- dir_a0342a6ef9487eda55789d2e07a75ee7&#45;&gt;dir_9be0baa3d4a3e9f480a9ee70594037fa -->
<g id="edge13" class="edge">
<title>dir_a0342a6ef9487eda55789d2e07a75ee7&#45;&gt;dir_9be0baa3d4a3e9f480a9ee70594037fa</title>
<g id="a_edge13"><a xlink:href="dir_000048_000212.html" target="_top">
<path fill="none" stroke="#63b8ff" d="M387.52,-167.81C384.67,-167.04 381.78,-166.32 379,-165.75 311.72,-151.91 117.65,-181.07 72,-129.75 51.03,-106.18 94.94,-86.16 127.95,-75.11"/>
<polygon fill="#63b8ff" stroke="#63b8ff" points="128.72,-78.54 137.18,-72.17 126.59,-71.87 128.72,-78.54"/>
</a>
</g>
<g id="a_edge13&#45;headlabel"><a xlink:href="dir_000048_000212.html" target="_top" xlink:title="18">
<text text-anchor="middle" x="127.6" y="-78" font-family="Helvetica,sans-Serif" font-size="10.00" fill="#63b8ff">18</text>
</a>
</g>
</g>
<!-- dir_6ec8af8771869123149626592b760e4b -->
<g id="node10" class="node">
<title>dir_6ec8af8771869123149626592b760e4b</title>
<g id="a_node10"><a xlink:href="dir_6ec8af8771869123149626592b760e4b.html" target="_top" xlink:title="fakehost">
<polygon fill="#60a2e3" stroke="#404040" points="319.75,-185 266.25,-185 266.25,-165.75 319.75,-165.75 319.75,-185"/>
<text text-anchor="middle" x="293" y="-171.5" font-family="Helvetica,sans-Serif" font-size="10.00">fakehost</text>
</a>
</g>
</g>
<!-- dir_6ec8af8771869123149626592b760e4b&#45;&gt;dir_9be0baa3d4a3e9f480a9ee70594037fa -->
<g id="edge14" class="edge">
<title>dir_6ec8af8771869123149626592b760e4b&#45;&gt;dir_9be0baa3d4a3e9f480a9ee70594037fa</title>
<g id="a_edge14"><a xlink:href="dir_000069_000212.html" target="_top">
<path fill="none" stroke="#63b8ff" d="M265.92,-167.65C262.92,-166.98 259.9,-166.33 257,-165.75 207.34,-155.84 64.86,-168.28 32,-129.75 2.51,-95.17 80.58,-77.39 127.51,-70.06"/>
<polygon fill="#63b8ff" stroke="#63b8ff" points="127.8,-73.55 137.19,-68.64 126.79,-66.63 127.8,-73.55"/>
</a>
</g>
<g id="a_edge14&#45;headlabel"><a xlink:href="dir_000069_000212.html" target="_top" xlink:title="23">
<text text-anchor="middle" x="126.16" y="-72.79" font-family="Helvetica,sans-Serif" font-size="10.00" fill="#63b8ff">23</text>
</a>
</g>
</g>
<!-- dir_1af2fbc890c779e5008e3d270a0ec9ec -->
<g id="node11" class="node">
<title>dir_1af2fbc890c779e5008e3d270a0ec9ec</title>
<g id="a_node11"><a xlink:href="dir_1af2fbc890c779e5008e3d270a0ec9ec.html" target="_top" xlink:title="fileio">
<polygon fill="#60a2e3" stroke="#404040" points="754.75,-185 719.25,-185 719.25,-165.75 754.75,-165.75 754.75,-185"/>
<text text-anchor="middle" x="737" y="-171.5" font-family="Helvetica,sans-Serif" font-size="10.00">fileio</text>
</a>
</g>
</g>
<!-- dir_1af2fbc890c779e5008e3d270a0ec9ec&#45;&gt;dir_9be0baa3d4a3e9f480a9ee70594037fa -->
<g id="edge16" class="edge">
<title>dir_1af2fbc890c779e5008e3d270a0ec9ec&#45;&gt;dir_9be0baa3d4a3e9f480a9ee70594037fa</title>
<g id="a_edge16"><a xlink:href="dir_000070_000212.html" target="_top">
<path fill="none" stroke="#63b8ff" d="M718.84,-168.01C715.91,-167.14 712.89,-166.35 710,-165.75 554.74,-133.45 510.14,-162.62 355,-129.75 296.16,-117.28 230.12,-93.48 191.96,-78.71"/>
<polygon fill="#63b8ff" stroke="#63b8ff" points="193.51,-75.56 182.92,-75.17 190.96,-82.08 193.51,-75.56"/>
</a>
</g>
<g id="a_edge16&#45;headlabel"><a xlink:href="dir_000070_000212.html" target="_top" xlink:title="8">
<text text-anchor="middle" x="196.48" y="-69.8" font-family="Helvetica,sans-Serif" font-size="10.00" fill="#63b8ff">8</text>
</a>
</g>
</g>
<!-- dir_1af2fbc890c779e5008e3d270a0ec9ec&#45;&gt;dir_bdd9a5d540de89e9fe90efdfc6973a4f -->
<g id="edge15" class="edge">
<title>dir_1af2fbc890c779e5008e3d270a0ec9ec&#45;&gt;dir_bdd9a5d540de89e9fe90efdfc6973a4f</title>
<g id="a_edge15"><a xlink:href="dir_000070_000042.html" target="_top">
<path fill="none" stroke="#63b8ff" d="M736.41,-165.57C734.71,-140.25 729.77,-66.75 727.36,-30.84"/>
<polygon fill="#63b8ff" stroke="#63b8ff" points="730.86,-30.73 726.7,-20.98 723.87,-31.19 730.86,-30.73"/>
</a>
</g>
<g id="a_edge15&#45;headlabel"><a xlink:href="dir_000070_000042.html" target="_top" xlink:title="2">
<text text-anchor="middle" x="733.83" y="-28.74" font-family="Helvetica,sans-Serif" font-size="10.00" fill="#63b8ff">2</text>
</a>
</g>
</g>
<!-- dir_3d3c25f590b74dfbd50a8b02c417c665 -->
<g id="node12" class="node">
<title>dir_3d3c25f590b74dfbd50a8b02c417c665</title>
<g id="a_node12"><a xlink:href="dir_3d3c25f590b74dfbd50a8b02c417c665.html" target="_top" xlink:title="filexio">
<polygon fill="#60a2e3" stroke="#404040" points="899,-185 859,-185 859,-165.75 899,-165.75 899,-185"/>
<text text-anchor="middle" x="879" y="-171.5" font-family="Helvetica,sans-Serif" font-size="10.00">filexio</text>
</a>
</g>
</g>
<!-- dir_3d3c25f590b74dfbd50a8b02c417c665&#45;&gt;dir_9be0baa3d4a3e9f480a9ee70594037fa -->
<g id="edge17" class="edge">
<title>dir_3d3c25f590b74dfbd50a8b02c417c665&#45;&gt;dir_9be0baa3d4a3e9f480a9ee70594037fa</title>
<g id="a_edge17"><a xlink:href="dir_000072_000212.html" target="_top">
<path fill="none" stroke="#63b8ff" d="M858.53,-167.74C855.69,-166.98 852.79,-166.28 850,-165.75 674.7,-132.14 625.81,-160.62 450,-129.75 416.95,-123.95 409.67,-118.16 377,-110.5 311.8,-95.21 234.9,-80.07 192.38,-71.96"/>
<polygon fill="#63b8ff" stroke="#63b8ff" points="193.3,-68.57 182.83,-70.14 192,-75.45 193.3,-68.57"/>
</a>
</g>
<g id="a_edge17&#45;headlabel"><a xlink:href="dir_000072_000212.html" target="_top" xlink:title="16">
<text text-anchor="middle" x="195.88" y="-62.29" font-family="Helvetica,sans-Serif" font-size="10.00" fill="#63b8ff">16</text>
</a>
</g>
</g>
<!-- dir_3d3c25f590b74dfbd50a8b02c417c665&#45;&gt;dir_bdd9a5d540de89e9fe90efdfc6973a4f -->
<g id="edge18" class="edge">
<title>dir_3d3c25f590b74dfbd50a8b02c417c665&#45;&gt;dir_bdd9a5d540de89e9fe90efdfc6973a4f</title>
<g id="a_edge18"><a xlink:href="dir_000072_000042.html" target="_top">
<path fill="none" stroke="#63b8ff" d="M872.81,-165.5C856.78,-142.88 811.97,-81.88 766,-39.25 760.95,-34.56 755.1,-29.99 749.47,-25.92"/>
<polygon fill="#63b8ff" stroke="#63b8ff" points="751.82,-23.29 741.61,-20.47 747.84,-29.04 751.82,-23.29"/>
</a>
</g>
<g id="a_edge18&#45;headlabel"><a xlink:href="dir_000072_000042.html" target="_top" xlink:title="2">
<text text-anchor="middle" x="755.15" y="-18.26" font-family="Helvetica,sans-Serif" font-size="10.00" fill="#63b8ff">2</text>
</a>
</g>
</g>
<!-- dir_bb1a65baea34b53b4bbf06e6d3ddfe57 -->
<g id="node13" class="node">
<title>dir_bb1a65baea34b53b4bbf06e6d3ddfe57</title>
<g id="a_node13"><a xlink:href="dir_bb1a65baea34b53b4bbf06e6d3ddfe57.html" target="_top" xlink:title="http">
<polygon fill="#60a2e3" stroke="#404040" points="370.25,-185 337.75,-185 337.75,-165.75 370.25,-165.75 370.25,-185"/>
<text text-anchor="middle" x="354" y="-171.5" font-family="Helvetica,sans-Serif" font-size="10.00">http</text>
</a>
</g>
</g>
<!-- dir_bb1a65baea34b53b4bbf06e6d3ddfe57&#45;&gt;dir_9be0baa3d4a3e9f480a9ee70594037fa -->
<g id="edge19" class="edge">
<title>dir_bb1a65baea34b53b4bbf06e6d3ddfe57&#45;&gt;dir_9be0baa3d4a3e9f480a9ee70594037fa</title>
<g id="a_edge19"><a xlink:href="dir_000085_000212.html" target="_top">
<path fill="none" stroke="#63b8ff" d="M337.46,-168.14C334.67,-167.24 331.77,-166.4 329,-165.75 268.57,-151.55 92.97,-176.39 52,-129.75 26.69,-100.94 87.26,-81.55 127.56,-72.25"/>
<polygon fill="#63b8ff" stroke="#63b8ff" points="128.06,-75.72 137.08,-70.16 126.56,-68.88 128.06,-75.72"/>
</a>
</g>
<g id="a_edge19&#45;headlabel"><a xlink:href="dir_000085_000212.html" target="_top" xlink:title="16">
<text text-anchor="middle" x="126.63" y="-75.06" font-family="Helvetica,sans-Serif" font-size="10.00" fill="#63b8ff">16</text>
</a>
</g>
</g>
<!-- dir_10cce8191a2d4629e92aaca1231c0797&#45;&gt;dir_9be0baa3d4a3e9f480a9ee70594037fa -->
<g id="edge21" class="edge">
<title>dir_10cce8191a2d4629e92aaca1231c0797&#45;&gt;dir_9be0baa3d4a3e9f480a9ee70594037fa</title>
<g id="a_edge21"><a xlink:href="dir_000216_000212.html" target="_top">
<path fill="none" stroke="#63b8ff" d="M558.37,-64.88C436.51,-64.88 314.65,-64.88 192.79,-64.88"/>
<polygon fill="#63b8ff" stroke="#63b8ff" points="192.89,-61.38 182.89,-64.88 192.89,-68.38 192.89,-61.38"/>
</a>
</g>
<g id="a_edge21&#45;headlabel"><a xlink:href="dir_000216_000212.html" target="_top" xlink:title="2">
<text text-anchor="middle" x="194.97" y="-54.66" font-family="Helvetica,sans-Serif" font-size="10.00" fill="#63b8ff">2</text>
</a>
</g>
</g>
<!-- dir_10cce8191a2d4629e92aaca1231c0797&#45;&gt;dir_0134b0376fbe77322088b496fb368f9b -->
<g id="edge20" class="edge">
<title>dir_10cce8191a2d4629e92aaca1231c0797&#45;&gt;dir_0134b0376fbe77322088b496fb368f9b</title>
<g id="a_edge20"><a xlink:href="dir_000216_000032.html" target="_top">
<path fill="none" stroke="#63b8ff" d="M591.61,-74.86C597.18,-81.73 603.45,-91.46 608.03,-100.04"/>
<polygon fill="#63b8ff" stroke="#63b8ff" points="604.81,-101.41 612.24,-108.96 611.14,-98.42 604.81,-101.41"/>
</a>
</g>
<g id="a_edge20&#45;headlabel"><a xlink:href="dir_000216_000032.html" target="_top" xlink:title="2">
<text text-anchor="middle" x="601.35" y="-96.86" font-family="Helvetica,sans-Serif" font-size="10.00" fill="#63b8ff">2</text>
</a>
</g>
</g>
<!-- dir_10cce8191a2d4629e92aaca1231c0797&#45;&gt;dir_bdd9a5d540de89e9fe90efdfc6973a4f -->
<g id="edge22" class="edge">
<title>dir_10cce8191a2d4629e92aaca1231c0797&#45;&gt;dir_bdd9a5d540de89e9fe90efdfc6973a4f</title>
<g id="a_edge22"><a xlink:href="dir_000216_000042.html" target="_top">
<path fill="none" stroke="#63b8ff" d="M592.07,-54.82C598.9,-49.63 608.05,-43.34 617,-39.25 639.52,-28.96 666.42,-21.85 687.86,-17.29"/>
<polygon fill="#63b8ff" stroke="#63b8ff" points="688.55,-20.72 697.66,-15.31 687.17,-13.86 688.55,-20.72"/>
</a>
</g>
<g id="a_edge22&#45;headlabel"><a xlink:href="dir_000216_000042.html" target="_top" xlink:title="3">
<text text-anchor="middle" x="687.07" y="-20.04" font-family="Helvetica,sans-Serif" font-size="10.00" fill="#63b8ff">3</text>
</a>
</g>
</g>
<!-- dir_c49d6f7b24cb4247c18d467361672153 -->
<g id="node15" class="node">
<title>dir_c49d6f7b24cb4247c18d467361672153</title>
<g id="a_node15"><a xlink:href="dir_c49d6f7b24cb4247c18d467361672153.html" target="_top" xlink:title="netfs">
<polygon fill="#60a2e3" stroke="#404040" points="700.88,-185 663.12,-185 663.12,-165.75 700.88,-165.75 700.88,-185"/>
<text text-anchor="middle" x="682" y="-171.5" font-family="Helvetica,sans-Serif" font-size="10.00">netfs</text>
</a>
</g>
</g>
<!-- dir_c49d6f7b24cb4247c18d467361672153&#45;&gt;dir_9be0baa3d4a3e9f480a9ee70594037fa -->
<g id="edge23" class="edge">
<title>dir_c49d6f7b24cb4247c18d467361672153&#45;&gt;dir_9be0baa3d4a3e9f480a9ee70594037fa</title>
<g id="a_edge23"><a xlink:href="dir_000246_000212.html" target="_top">
<path fill="none" stroke="#63b8ff" d="M662.86,-167.85C659.92,-167.03 656.9,-166.29 654,-165.75 598.49,-155.37 185.49,-171.07 147,-129.75 135.69,-117.61 141.6,-98.42 148.72,-84.24"/>
<polygon fill="#63b8ff" stroke="#63b8ff" points="151.56,-86.33 153.39,-75.9 145.45,-82.91 151.56,-86.33"/>
</a>
</g>
<g id="a_edge23&#45;headlabel"><a xlink:href="dir_000246_000212.html" target="_top" xlink:title="31">
<text text-anchor="middle" x="153.02" y="-85.66" font-family="Helvetica,sans-Serif" font-size="10.00" fill="#63b8ff">31</text>
</a>
</g>
</g>
<!-- dir_c49d6f7b24cb4247c18d467361672153&#45;&gt;dir_40ac35421bc63b72c26b6c69b1517fd6 -->
<g id="edge24" class="edge">
<title>dir_c49d6f7b24cb4247c18d467361672153&#45;&gt;dir_40ac35421bc63b72c26b6c69b1517fd6</title>
<g id="a_edge24"><a xlink:href="dir_000246_000482.html" target="_top">
<path fill="none" stroke="#63b8ff" d="M662.86,-167.88C659.92,-167.05 656.9,-166.31 654,-165.75 462.42,-128.97 405.46,-165.79 215.28,-131.01"/>
<polygon fill="#63b8ff" stroke="#63b8ff" points="216.01,-127.58 205.53,-129.18 214.72,-134.46 216.01,-127.58"/>
</a>
</g>
<g id="a_edge24&#45;headlabel"><a xlink:href="dir_000246_000482.html" target="_top" xlink:title="3">
<text text-anchor="middle" x="218.58" y="-121.3" font-family="Helvetica,sans-Serif" font-size="10.00" fill="#63b8ff">3</text>
</a>
</g>
</g>
<!-- dir_c49d6f7b24cb4247c18d467361672153&#45;&gt;dir_bdd9a5d540de89e9fe90efdfc6973a4f -->
<g id="edge25" class="edge">
<title>dir_c49d6f7b24cb4247c18d467361672153&#45;&gt;dir_bdd9a5d540de89e9fe90efdfc6973a4f</title>
<g id="a_edge25"><a xlink:href="dir_000246_000042.html" target="_top">
<path fill="none" stroke="#63b8ff" d="M684.37,-165.57C691.2,-140.14 711.09,-66.1 720.69,-30.37"/>
<polygon fill="#63b8ff" stroke="#63b8ff" points="724.01,-31.5 723.23,-20.93 717.25,-29.68 724.01,-31.5"/>
</a>
</g>
<g id="a_edge25&#45;headlabel"><a xlink:href="dir_000246_000042.html" target="_top" xlink:title="1">
<text text-anchor="middle" x="726.22" y="-30.37" font-family="Helvetica,sans-Serif" font-size="10.00" fill="#63b8ff">1</text>
</a>
</g>
</g>
<!-- dir_026e95636ee7a5fe61bdfe401a766815&#45;&gt;dir_9be0baa3d4a3e9f480a9ee70594037fa -->
<g id="edge26" class="edge">
<title>dir_026e95636ee7a5fe61bdfe401a766815&#45;&gt;dir_9be0baa3d4a3e9f480a9ee70594037fa</title>
<g id="a_edge26"><a xlink:href="dir_000271_000212.html" target="_top">
<path fill="none" stroke="#63b8ff" d="M482.51,-111.35C481.33,-111.04 480.15,-110.76 479,-110.5 360.44,-83.91 328.05,-93.25 208,-74.5 202.97,-73.71 197.66,-72.82 192.47,-71.92"/>
<polygon fill="#63b8ff" stroke="#63b8ff" points="193.42,-68.53 182.96,-70.22 192.19,-75.42 193.42,-68.53"/>
</a>
</g>
<g id="a_edge26&#45;headlabel"><a xlink:href="dir_000271_000212.html" target="_top" xlink:title="10">
<text text-anchor="middle" x="195.97" y="-62.23" font-family="Helvetica,sans-Serif" font-size="10.00" fill="#63b8ff">10</text>
</a>
</g>
</g>
<!-- dir_026e95636ee7a5fe61bdfe401a766815&#45;&gt;dir_bdd9a5d540de89e9fe90efdfc6973a4f -->
<g id="edge27" class="edge">
<title>dir_026e95636ee7a5fe61bdfe401a766815&#45;&gt;dir_bdd9a5d540de89e9fe90efdfc6973a4f</title>
<g id="a_edge27"><a xlink:href="dir_000271_000042.html" target="_top">
<path fill="none" stroke="#63b8ff" d="M529.34,-111.67C551.52,-104.05 585.35,-91 612,-74.5 632.43,-61.85 632.41,-51.64 653,-39.25 663.87,-32.71 676.5,-27.13 688.17,-22.69"/>
<polygon fill="#63b8ff" stroke="#63b8ff" points="689.34,-25.99 697.55,-19.3 686.96,-19.41 689.34,-25.99"/>
</a>
</g>
<g id="a_edge27&#45;headlabel"><a xlink:href="dir_000271_000042.html" target="_top" xlink:title="1">
<text text-anchor="middle" x="688.35" y="-25.49" font-family="Helvetica,sans-Serif" font-size="10.00" fill="#63b8ff">1</text>
</a>
</g>
</g>
<!-- dir_e169fc947b78f95c57d275a8c94aa84e -->
<g id="node17" class="node">
<title>dir_e169fc947b78f95c57d275a8c94aa84e</title>
<g id="a_node17"><a xlink:href="dir_e169fc947b78f95c57d275a8c94aa84e.html" target="_top" xlink:title="vfat">
<polygon fill="#60a2e3" stroke="#404040" points="949.25,-185 916.75,-185 916.75,-165.75 949.25,-165.75 949.25,-185"/>
<text text-anchor="middle" x="933" y="-171.5" font-family="Helvetica,sans-Serif" font-size="10.00">vfat</text>
</a>
</g>
</g>
<!-- dir_e169fc947b78f95c57d275a8c94aa84e&#45;&gt;dir_9be0baa3d4a3e9f480a9ee70594037fa -->
<g id="edge29" class="edge">
<title>dir_e169fc947b78f95c57d275a8c94aa84e&#45;&gt;dir_9be0baa3d4a3e9f480a9ee70594037fa</title>
<g id="a_edge29"><a xlink:href="dir_000501_000212.html" target="_top">
<path fill="none" stroke="#63b8ff" d="M916.49,-168.03C913.69,-167.14 910.79,-166.34 908,-165.75 718.6,-125.88 663.31,-170.04 474,-129.75 448.67,-124.36 444.08,-116.98 419,-110.5 326.89,-86.7 301.71,-90.91 208,-74.5 202.99,-73.62 197.68,-72.68 192.49,-71.75"/>
<polygon fill="#63b8ff" stroke="#63b8ff" points="193.45,-68.37 182.99,-70.05 192.21,-75.26 193.45,-68.37"/>
</a>
</g>
<g id="a_edge29&#45;headlabel"><a xlink:href="dir_000501_000212.html" target="_top" xlink:title="16">
<text text-anchor="middle" x="196" y="-62.07" font-family="Helvetica,sans-Serif" font-size="10.00" fill="#63b8ff">16</text>
</a>
</g>
</g>
<!-- dir_e169fc947b78f95c57d275a8c94aa84e&#45;&gt;dir_0134b0376fbe77322088b496fb368f9b -->
<g id="edge28" class="edge">
<title>dir_e169fc947b78f95c57d275a8c94aa84e&#45;&gt;dir_0134b0376fbe77322088b496fb368f9b</title>
<g id="a_edge28"><a xlink:href="dir_000501_000032.html" target="_top">
<path fill="none" stroke="#63b8ff" d="M916.45,-168.19C913.66,-167.29 910.76,-166.43 908,-165.75 812.11,-142.16 695.43,-128.96 642.11,-123.75"/>
<polygon fill="#63b8ff" stroke="#63b8ff" points="642.64,-120.29 632.35,-122.82 641.97,-127.26 642.64,-120.29"/>
</a>
</g>
<g id="a_edge28&#45;headlabel"><a xlink:href="dir_000501_000032.html" target="_top" xlink:title="2">
<text text-anchor="middle" x="644.98" y="-113.78" font-family="Helvetica,sans-Serif" font-size="10.00" fill="#63b8ff">2</text>
</a>
</g>
</g>
<!-- dir_e169fc947b78f95c57d275a8c94aa84e&#45;&gt;dir_bdd9a5d540de89e9fe90efdfc6973a4f -->
<g id="edge30" class="edge">
<title>dir_e169fc947b78f95c57d275a8c94aa84e&#45;&gt;dir_bdd9a5d540de89e9fe90efdfc6973a4f</title>
<g id="a_edge30"><a xlink:href="dir_000501_000042.html" target="_top">
<path fill="none" stroke="#63b8ff" d="M926.28,-165.59C907.94,-142.11 854.53,-77.16 797,-39.25 786.93,-32.61 775.08,-27.08 763.97,-22.71"/>
<polygon fill="#63b8ff" stroke="#63b8ff" points="765.22,-19.44 754.63,-19.25 762.79,-26.01 765.22,-19.44"/>
</a>
</g>
<g id="a_edge30&#45;headlabel"><a xlink:href="dir_000501_000042.html" target="_top" xlink:title="6">
<text text-anchor="middle" x="768.16" y="-13.63" font-family="Helvetica,sans-Serif" font-size="10.00" fill="#63b8ff">6</text>
</a>
</g>
</g>
</g>
</svg>
