<?xml version="1.0" encoding="UTF-8" standalone="no"?>
<!DOCTYPE svg PUBLIC "-//W3C//DTD SVG 1.1//EN"
 "http://www.w3.org/Graphics/SVG/1.1/DTD/svg11.dtd">
<!-- Generated by graphviz version 12.2.0 (20241103.1931)
 -->
<!-- Title: iop/dev9/dev9 Pages: 1 -->
<svg width="163pt" height="181pt"
 viewBox="0.00 0.00 162.75 181.00" xmlns="http://www.w3.org/2000/svg" xmlns:xlink="http://www.w3.org/1999/xlink">
<g id="graph0" class="graph" transform="scale(1 1) rotate(0) translate(4 177)">
<title>iop/dev9/dev9</title>
<g id="clust1" class="cluster">
<title>clusterdir_6f16cad81de2453a6f48c5e272ba4a18</title>
<g id="a_clust1"><a xlink:href="dir_6f16cad81de2453a6f48c5e272ba4a18.html" target="_top" xlink:title="dev9">
<polygon fill="#deebf9" stroke="#7f7f7f" stroke-dasharray="5,2" points="8,-39.25 8,-165 125,-165 125,-39.25 8,-39.25"/>
<text text-anchor="middle" x="66.5" y="-151.5" font-family="Helvetica,sans-Serif" font-size="10.00">dev9</text>
</a>
</g>
</g>
<g id="clust2" class="cluster">
<title>clusterdir_18566863331aaba44604539ca78be099</title>
<g id="a_clust2"><a xlink:href="dir_18566863331aaba44604539ca78be099.html" target="_top">
<polygon fill="#deebf9" stroke="#404040" stroke-width="2" points="16,-47.25 16,-137.75 117,-137.75 117,-47.25 16,-47.25"/>
</a>
</g>
</g>
<!-- dir_18566863331aaba44604539ca78be099 -->
<g id="node1" class="node">
<title>dir_18566863331aaba44604539ca78be099</title>
<text text-anchor="middle" x="43" y="-116.25" font-family="Helvetica,sans-Serif" font-size="10.00">dev9</text>
</g>
<!-- dir_58692563475c8582953c11bc1da04f9e -->
<g id="node2" class="node">
<title>dir_58692563475c8582953c11bc1da04f9e</title>
<g id="a_node2"><a xlink:href="dir_58692563475c8582953c11bc1da04f9e.html" target="_top" xlink:title="include">
<polygon fill="#60a2e3" stroke="#404040" points="109.38,-74.5 62.62,-74.5 62.62,-55.25 109.38,-55.25 109.38,-74.5"/>
<text text-anchor="middle" x="86" y="-61" font-family="Helvetica,sans-Serif" font-size="10.00">include</text>
</a>
</g>
</g>
<!-- dir_9be0baa3d4a3e9f480a9ee70594037fa -->
<g id="node4" class="node">
<title>dir_9be0baa3d4a3e9f480a9ee70594037fa</title>
<g id="a_node4"><a xlink:href="dir_9be0baa3d4a3e9f480a9ee70594037fa.html" target="_top" xlink:title="kernel">
<polygon fill="#deebf9" stroke="red" stroke-dasharray="5,2" points="74.12,-19.25 31.88,-19.25 31.88,0 74.12,0 74.12,-19.25"/>
<text text-anchor="middle" x="53" y="-5.75" font-family="Helvetica,sans-Serif" font-size="10.00">kernel</text>
</a>
</g>
</g>
<!-- dir_58692563475c8582953c11bc1da04f9e&#45;&gt;dir_9be0baa3d4a3e9f480a9ee70594037fa -->
<g id="edge1" class="edge">
<title>dir_58692563475c8582953c11bc1da04f9e&#45;&gt;dir_9be0baa3d4a3e9f480a9ee70594037fa</title>
<g id="a_edge1"><a xlink:href="dir_000151_000212.html" target="_top">
<path fill="none" stroke="#63b8ff" d="M80.55,-55.08C76.23,-48.11 70.04,-38.12 64.62,-29.37"/>
<polygon fill="#63b8ff" stroke="#63b8ff" points="67.61,-27.55 59.36,-20.9 61.66,-31.24 67.61,-27.55"/>
</a>
</g>
<g id="a_edge1&#45;headlabel"><a xlink:href="dir_000151_000212.html" target="_top" xlink:title="2">
<text text-anchor="middle" x="71.12" y="-23.95" font-family="Helvetica,sans-Serif" font-size="10.00" fill="#63b8ff">2</text>
</a>
</g>
</g>
<!-- dir_bdd9a5d540de89e9fe90efdfc6973a4f -->
<g id="node5" class="node">
<title>dir_bdd9a5d540de89e9fe90efdfc6973a4f</title>
<g id="a_node5"><a xlink:href="dir_bdd9a5d540de89e9fe90efdfc6973a4f.html" target="_top" xlink:title="common">
<polygon fill="#deebf9" stroke="red" points="154.75,-19.25 101.25,-19.25 101.25,0 154.75,0 154.75,-19.25"/>
<text text-anchor="middle" x="128" y="-5.75" font-family="Helvetica,sans-Serif" font-size="10.00">common</text>
</a>
</g>
</g>
<!-- dir_58692563475c8582953c11bc1da04f9e&#45;&gt;dir_bdd9a5d540de89e9fe90efdfc6973a4f -->
<g id="edge2" class="edge">
<title>dir_58692563475c8582953c11bc1da04f9e&#45;&gt;dir_bdd9a5d540de89e9fe90efdfc6973a4f</title>
<g id="a_edge2"><a xlink:href="dir_000151_000042.html" target="_top">
<path fill="none" stroke="#63b8ff" d="M92.94,-55.08C98.62,-47.88 106.84,-37.46 113.89,-28.51"/>
<polygon fill="#63b8ff" stroke="#63b8ff" points="116.53,-30.82 119.98,-20.8 111.04,-26.48 116.53,-30.82"/>
</a>
</g>
<g id="a_edge2&#45;headlabel"><a xlink:href="dir_000151_000042.html" target="_top" xlink:title="2">
<text text-anchor="middle" x="117.47" y="-30.33" font-family="Helvetica,sans-Serif" font-size="10.00" fill="#63b8ff">2</text>
</a>
</g>
</g>
<!-- dir_6ad7f2ab8ef00bea214c65f3ba81f481 -->
<g id="node3" class="node">
<title>dir_6ad7f2ab8ef00bea214c65f3ba81f481</title>
<g id="a_node3"><a xlink:href="dir_6ad7f2ab8ef00bea214c65f3ba81f481.html" target="_top" xlink:title="src">
<polygon fill="#60a2e3" stroke="#404040" points="108.75,-129.75 79.25,-129.75 79.25,-110.5 108.75,-110.5 108.75,-129.75"/>
<text text-anchor="middle" x="94" y="-116.25" font-family="Helvetica,sans-Serif" font-size="10.00">src</text>
</a>
</g>
</g>
<!-- dir_6ad7f2ab8ef00bea214c65f3ba81f481&#45;&gt;dir_58692563475c8582953c11bc1da04f9e -->
<g id="edge3" class="edge">
<title>dir_6ad7f2ab8ef00bea214c65f3ba81f481&#45;&gt;dir_58692563475c8582953c11bc1da04f9e</title>
<g id="a_edge3"><a xlink:href="dir_000370_000151.html" target="_top">
<path fill="none" stroke="#63b8ff" d="M92.68,-110.33C91.69,-103.74 90.29,-94.46 89.03,-86.07"/>
<polygon fill="#63b8ff" stroke="#63b8ff" points="92.52,-85.72 87.57,-76.36 85.6,-86.76 92.52,-85.72"/>
</a>
</g>
<g id="a_edge3&#45;headlabel"><a xlink:href="dir_000370_000151.html" target="_top" xlink:title="1">
<text text-anchor="middle" x="95.64" y="-83.49" font-family="Helvetica,sans-Serif" font-size="10.00" fill="#63b8ff">1</text>
</a>
</g>
</g>
<!-- dir_6ad7f2ab8ef00bea214c65f3ba81f481&#45;&gt;dir_9be0baa3d4a3e9f480a9ee70594037fa -->
<g id="edge4" class="edge">
<title>dir_6ad7f2ab8ef00bea214c65f3ba81f481&#45;&gt;dir_9be0baa3d4a3e9f480a9ee70594037fa</title>
<g id="a_edge4"><a xlink:href="dir_000370_000212.html" target="_top">
<path fill="none" stroke="#63b8ff" d="M82.41,-110.31C72.79,-102.2 59.77,-89.23 54,-74.5 48.6,-60.71 48.56,-43.94 49.76,-31.03"/>
<polygon fill="#63b8ff" stroke="#63b8ff" points="53.22,-31.55 51.02,-21.18 46.28,-30.66 53.22,-31.55"/>
</a>
</g>
<g id="a_edge4&#45;headlabel"><a xlink:href="dir_000370_000212.html" target="_top" xlink:title="18">
<text text-anchor="middle" x="55.77" y="-30.1" font-family="Helvetica,sans-Serif" font-size="10.00" fill="#63b8ff">18</text>
</a>
</g>
</g>
<!-- dir_6ad7f2ab8ef00bea214c65f3ba81f481&#45;&gt;dir_bdd9a5d540de89e9fe90efdfc6973a4f -->
<g id="edge5" class="edge">
<title>dir_6ad7f2ab8ef00bea214c65f3ba81f481&#45;&gt;dir_bdd9a5d540de89e9fe90efdfc6973a4f</title>
<g id="a_edge5"><a xlink:href="dir_000370_000042.html" target="_top">
<path fill="none" stroke="#63b8ff" d="M99.91,-110.3C105.47,-101.59 113.57,-87.67 118,-74.5 122.78,-60.3 125.29,-43.54 126.6,-30.75"/>
<polygon fill="#63b8ff" stroke="#63b8ff" points="130.07,-31.29 127.43,-21.03 123.09,-30.7 130.07,-31.29"/>
</a>
</g>
<g id="a_edge5&#45;headlabel"><a xlink:href="dir_000370_000042.html" target="_top" xlink:title="4">
<text text-anchor="middle" x="132.72" y="-29.73" font-family="Helvetica,sans-Serif" font-size="10.00" fill="#63b8ff">4</text>
</a>
</g>
</g>
</g>
</svg>
