<?xml version="1.0" encoding="UTF-8" standalone="no"?>
<!DOCTYPE svg PUBLIC "-//W3C//DTD SVG 1.1//EN"
 "http://www.w3.org/Graphics/SVG/1.1/DTD/svg11.dtd">
<!-- Generated by graphviz version 12.2.0 (20241103.1931)
 -->
<!-- Title: iop Pages: 1 -->
<svg width="967pt" height="225pt"
 viewBox="0.00 0.00 966.75 225.00" xmlns="http://www.w3.org/2000/svg" xmlns:xlink="http://www.w3.org/1999/xlink">
<g id="graph0" class="graph" transform="scale(1 1) rotate(0) translate(4 221)">
<title>iop</title>
<g id="clust1" class="cluster">
<title>clusterdir_0981ace215aa2029f526b70c145b9fbe</title>
<g id="a_clust1"><a xlink:href="dir_0981ace215aa2029f526b70c145b9fbe.html" target="_top">
<polygon fill="#deebf9" stroke="#404040" stroke-width="2" points="8,-8 8,-209 719,-209 719,-8 8,-8"/>
</a>
</g>
</g>
<!-- dir_0981ace215aa2029f526b70c145b9fbe -->
<g id="node1" class="node">
<title>dir_0981ace215aa2029f526b70c145b9fbe</title>
<text text-anchor="middle" x="77" y="-187.5" font-family="Helvetica,sans-Serif" font-size="10.00">iop</text>
</g>
<!-- dir_83706370b12deb47497ed91304cced4b -->
<g id="node2" class="node">
<title>dir_83706370b12deb47497ed91304cced4b</title>
<g id="a_node2"><a xlink:href="dir_83706370b12deb47497ed91304cced4b.html" target="_top" xlink:title="arcade">
<polygon fill="#60a2e3" stroke="#404040" points="481.62,-201 436.38,-201 436.38,-181.75 481.62,-181.75 481.62,-201"/>
<text text-anchor="middle" x="459" y="-187.5" font-family="Helvetica,sans-Serif" font-size="10.00">arcade</text>
</a>
</g>
</g>
<!-- dir_6f16cad81de2453a6f48c5e272ba4a18 -->
<g id="node5" class="node">
<title>dir_6f16cad81de2453a6f48c5e272ba4a18</title>
<g id="a_node5"><a xlink:href="dir_6f16cad81de2453a6f48c5e272ba4a18.html" target="_top" xlink:title="dev9">
<polygon fill="#60a2e3" stroke="#404040" points="710.5,-145.75 673.5,-145.75 673.5,-126.5 710.5,-126.5 710.5,-145.75"/>
<text text-anchor="middle" x="692" y="-132.25" font-family="Helvetica,sans-Serif" font-size="10.00">dev9</text>
</a>
</g>
</g>
<!-- dir_83706370b12deb47497ed91304cced4b&#45;&gt;dir_6f16cad81de2453a6f48c5e272ba4a18 -->
<g id="edge3" class="edge">
<title>dir_83706370b12deb47497ed91304cced4b&#45;&gt;dir_6f16cad81de2453a6f48c5e272ba4a18</title>
<g id="a_edge3"><a xlink:href="dir_000025_000046.html" target="_top">
<path fill="none" stroke="#63b8ff" d="M481.9,-186.05C518.09,-179.07 590.9,-164.46 662.13,-146.05"/>
<polygon fill="#63b8ff" stroke="#63b8ff" points="662.83,-149.49 671.62,-143.57 661.06,-142.72 662.83,-149.49"/>
</a>
</g>
<g id="a_edge3&#45;headlabel"><a xlink:href="dir_000025_000046.html" target="_top" xlink:title="2">
<text text-anchor="middle" x="661.54" y="-148.89" font-family="Helvetica,sans-Serif" font-size="10.00" fill="#63b8ff">2</text>
</a>
</g>
</g>
<!-- dir_f24daea2522ffa8b6dc5fa9cdf5b8f5c -->
<g id="node7" class="node">
<title>dir_f24daea2522ffa8b6dc5fa9cdf5b8f5c</title>
<g id="a_node7"><a xlink:href="dir_f24daea2522ffa8b6dc5fa9cdf5b8f5c.html" target="_top" xlink:title="fs">
<polygon fill="#60a2e3" stroke="#404040" points="236.4,-145.75 207.6,-145.75 207.6,-126.5 236.4,-126.5 236.4,-145.75"/>
<text text-anchor="middle" x="222" y="-132.25" font-family="Helvetica,sans-Serif" font-size="10.00">fs</text>
</a>
</g>
</g>
<!-- dir_83706370b12deb47497ed91304cced4b&#45;&gt;dir_f24daea2522ffa8b6dc5fa9cdf5b8f5c -->
<g id="edge4" class="edge">
<title>dir_83706370b12deb47497ed91304cced4b&#45;&gt;dir_f24daea2522ffa8b6dc5fa9cdf5b8f5c</title>
<g id="a_edge4"><a xlink:href="dir_000025_000074.html" target="_top">
<path fill="none" stroke="#63b8ff" d="M435.91,-186.76C398.23,-180.6 321.03,-166.93 247.33,-146.07"/>
<polygon fill="#63b8ff" stroke="#63b8ff" points="248.52,-142.77 237.94,-143.36 246.58,-149.5 248.52,-142.77"/>
</a>
</g>
<g id="a_edge4&#45;headlabel"><a xlink:href="dir_000025_000074.html" target="_top" xlink:title="1">
<text text-anchor="middle" x="251.31" y="-136.74" font-family="Helvetica,sans-Serif" font-size="10.00" fill="#63b8ff">1</text>
</a>
</g>
</g>
<!-- dir_9be0baa3d4a3e9f480a9ee70594037fa -->
<g id="node10" class="node">
<title>dir_9be0baa3d4a3e9f480a9ee70594037fa</title>
<g id="a_node10"><a xlink:href="dir_9be0baa3d4a3e9f480a9ee70594037fa.html" target="_top" xlink:title="kernel">
<polygon fill="#60a2e3" stroke="#404040" points="384.12,-90.5 341.88,-90.5 341.88,-71.25 384.12,-71.25 384.12,-90.5"/>
<text text-anchor="middle" x="363" y="-77" font-family="Helvetica,sans-Serif" font-size="10.00">kernel</text>
</a>
</g>
</g>
<!-- dir_83706370b12deb47497ed91304cced4b&#45;&gt;dir_9be0baa3d4a3e9f480a9ee70594037fa -->
<g id="edge1" class="edge">
<title>dir_83706370b12deb47497ed91304cced4b&#45;&gt;dir_9be0baa3d4a3e9f480a9ee70594037fa</title>
<g id="a_edge1"><a xlink:href="dir_000025_000212.html" target="_top">
<path fill="none" stroke="#63b8ff" d="M435.95,-183.49C417.53,-176.8 392.46,-164.81 378,-145.75 368.51,-133.23 364.89,-115.66 363.57,-102.12"/>
<polygon fill="#63b8ff" stroke="#63b8ff" points="367.07,-101.95 362.98,-92.17 360.08,-102.36 367.07,-101.95"/>
</a>
</g>
<g id="a_edge1&#45;headlabel"><a xlink:href="dir_000025_000212.html" target="_top" xlink:title="97">
<text text-anchor="middle" x="370.02" y="-99.98" font-family="Helvetica,sans-Serif" font-size="10.00" fill="#63b8ff">97</text>
</a>
</g>
</g>
<!-- dir_bdd9a5d540de89e9fe90efdfc6973a4f -->
<g id="node20" class="node">
<title>dir_bdd9a5d540de89e9fe90efdfc6973a4f</title>
<g id="a_node20"><a xlink:href="dir_bdd9a5d540de89e9fe90efdfc6973a4f.html" target="_top" xlink:title="common">
<polygon fill="#deebf9" stroke="red" points="780.75,-35.25 727.25,-35.25 727.25,-16 780.75,-16 780.75,-35.25"/>
<text text-anchor="middle" x="754" y="-21.75" font-family="Helvetica,sans-Serif" font-size="10.00">common</text>
</a>
</g>
</g>
<!-- dir_83706370b12deb47497ed91304cced4b&#45;&gt;dir_bdd9a5d540de89e9fe90efdfc6973a4f -->
<g id="edge2" class="edge">
<title>dir_83706370b12deb47497ed91304cced4b&#45;&gt;dir_bdd9a5d540de89e9fe90efdfc6973a4f</title>
<g id="a_edge2"><a xlink:href="dir_000025_000042.html" target="_top">
<path fill="none" stroke="#63b8ff" d="M482.02,-188.01C561.98,-179.75 823.19,-152.31 829,-145.75 850.97,-120.97 845.37,-100.03 829,-71.25 820.74,-56.73 805.69,-46.44 791.22,-39.43"/>
<polygon fill="#63b8ff" stroke="#63b8ff" points="792.85,-36.32 782.29,-35.5 790.03,-42.73 792.85,-36.32"/>
</a>
</g>
<g id="a_edge2&#45;headlabel"><a xlink:href="dir_000025_000042.html" target="_top" xlink:title="4">
<text text-anchor="middle" x="795.9" y="-30.68" font-family="Helvetica,sans-Serif" font-size="10.00" fill="#63b8ff">4</text>
</a>
</g>
</g>
<!-- dir_a12d8da7b0731a57c6a388326ad5e612 -->
<g id="node3" class="node">
<title>dir_a12d8da7b0731a57c6a388326ad5e612</title>
<g id="a_node3"><a xlink:href="dir_a12d8da7b0731a57c6a388326ad5e612.html" target="_top" xlink:title="cdvd">
<polygon fill="#60a2e3" stroke="#404040" points="594.5,-145.75 557.5,-145.75 557.5,-126.5 594.5,-126.5 594.5,-145.75"/>
<text text-anchor="middle" x="576" y="-132.25" font-family="Helvetica,sans-Serif" font-size="10.00">cdvd</text>
</a>
</g>
</g>
<!-- dir_a12d8da7b0731a57c6a388326ad5e612&#45;&gt;dir_9be0baa3d4a3e9f480a9ee70594037fa -->
<g id="edge5" class="edge">
<title>dir_a12d8da7b0731a57c6a388326ad5e612&#45;&gt;dir_9be0baa3d4a3e9f480a9ee70594037fa</title>
<g id="a_edge5"><a xlink:href="dir_000040_000212.html" target="_top">
<path fill="none" stroke="#63b8ff" d="M557.17,-128.91C554.44,-128.07 551.65,-127.24 549,-126.5 495.75,-111.63 433.1,-97.23 395.79,-88.97"/>
<polygon fill="#63b8ff" stroke="#63b8ff" points="396.61,-85.57 386.09,-86.84 395.11,-92.41 396.61,-85.57"/>
</a>
</g>
<g id="a_edge5&#45;headlabel"><a xlink:href="dir_000040_000212.html" target="_top" xlink:title="21">
<text text-anchor="middle" x="399.25" y="-79.37" font-family="Helvetica,sans-Serif" font-size="10.00" fill="#63b8ff">21</text>
</a>
</g>
</g>
<!-- dir_a12d8da7b0731a57c6a388326ad5e612&#45;&gt;dir_bdd9a5d540de89e9fe90efdfc6973a4f -->
<g id="edge6" class="edge">
<title>dir_a12d8da7b0731a57c6a388326ad5e612&#45;&gt;dir_bdd9a5d540de89e9fe90efdfc6973a4f</title>
<g id="a_edge6"><a xlink:href="dir_000040_000042.html" target="_top">
<path fill="none" stroke="#63b8ff" d="M590.87,-126.06C621.57,-107.35 692.23,-64.28 729.68,-41.45"/>
<polygon fill="#63b8ff" stroke="#63b8ff" points="731.29,-44.57 738.01,-36.37 727.64,-38.59 731.29,-44.57"/>
</a>
</g>
<g id="a_edge6&#45;headlabel"><a xlink:href="dir_000040_000042.html" target="_top" xlink:title="3">
<text text-anchor="middle" x="730.99" y="-44.2" font-family="Helvetica,sans-Serif" font-size="10.00" fill="#63b8ff">3</text>
</a>
</g>
</g>
<!-- dir_8494d76ae2586079db82d45fe3dd6aec -->
<g id="node4" class="node">
<title>dir_8494d76ae2586079db82d45fe3dd6aec</title>
<g id="a_node4"><a xlink:href="dir_8494d76ae2586079db82d45fe3dd6aec.html" target="_top" xlink:title="debug">
<polygon fill="#60a2e3" stroke="#404040" points="655.12,-145.75 612.88,-145.75 612.88,-126.5 655.12,-126.5 655.12,-145.75"/>
<text text-anchor="middle" x="634" y="-132.25" font-family="Helvetica,sans-Serif" font-size="10.00">debug</text>
</a>
</g>
</g>
<!-- dir_8494d76ae2586079db82d45fe3dd6aec&#45;&gt;dir_9be0baa3d4a3e9f480a9ee70594037fa -->
<g id="edge8" class="edge">
<title>dir_8494d76ae2586079db82d45fe3dd6aec&#45;&gt;dir_9be0baa3d4a3e9f480a9ee70594037fa</title>
<g id="a_edge8"><a xlink:href="dir_000045_000212.html" target="_top">
<path fill="none" stroke="#63b8ff" d="M612.44,-128.65C609.61,-127.89 606.74,-127.15 604,-126.5 530.09,-109.08 442.1,-94.26 395.59,-86.88"/>
<polygon fill="#63b8ff" stroke="#63b8ff" points="396.34,-83.46 385.92,-85.36 395.25,-90.37 396.34,-83.46"/>
</a>
</g>
<g id="a_edge8&#45;headlabel"><a xlink:href="dir_000045_000212.html" target="_top" xlink:title="93">
<text text-anchor="middle" x="398.84" y="-77.1" font-family="Helvetica,sans-Serif" font-size="10.00" fill="#63b8ff">93</text>
</a>
</g>
</g>
<!-- dir_8494d76ae2586079db82d45fe3dd6aec&#45;&gt;dir_bdd9a5d540de89e9fe90efdfc6973a4f -->
<g id="edge7" class="edge">
<title>dir_8494d76ae2586079db82d45fe3dd6aec&#45;&gt;dir_bdd9a5d540de89e9fe90efdfc6973a4f</title>
<g id="a_edge7"><a xlink:href="dir_000045_000042.html" target="_top">
<path fill="none" stroke="#63b8ff" d="M643.82,-126.25C663.86,-108.13 709.75,-66.63 735.54,-43.32"/>
<polygon fill="#63b8ff" stroke="#63b8ff" points="737.85,-45.94 742.92,-36.64 733.16,-40.75 737.85,-45.94"/>
</a>
</g>
<g id="a_edge7&#45;headlabel"><a xlink:href="dir_000045_000042.html" target="_top" xlink:title="25">
<text text-anchor="middle" x="738.21" y="-45.57" font-family="Helvetica,sans-Serif" font-size="10.00" fill="#63b8ff">25</text>
</a>
</g>
</g>
<!-- dir_6f16cad81de2453a6f48c5e272ba4a18&#45;&gt;dir_9be0baa3d4a3e9f480a9ee70594037fa -->
<g id="edge9" class="edge">
<title>dir_6f16cad81de2453a6f48c5e272ba4a18&#45;&gt;dir_9be0baa3d4a3e9f480a9ee70594037fa</title>
<g id="a_edge9"><a xlink:href="dir_000046_000212.html" target="_top">
<path fill="none" stroke="#63b8ff" d="M673.13,-128.89C670.1,-128.01 666.98,-127.17 664,-126.5 567.52,-104.62 451.13,-90.87 395.58,-85.07"/>
<polygon fill="#63b8ff" stroke="#63b8ff" points="396.18,-81.61 385.88,-84.07 395.47,-88.57 396.18,-81.61"/>
</a>
</g>
<g id="a_edge9&#45;headlabel"><a xlink:href="dir_000046_000212.html" target="_top" xlink:title="98">
<text text-anchor="middle" x="398.54" y="-75.12" font-family="Helvetica,sans-Serif" font-size="10.00" fill="#63b8ff">98</text>
</a>
</g>
</g>
<!-- dir_6f16cad81de2453a6f48c5e272ba4a18&#45;&gt;dir_bdd9a5d540de89e9fe90efdfc6973a4f -->
<g id="edge10" class="edge">
<title>dir_6f16cad81de2453a6f48c5e272ba4a18&#45;&gt;dir_bdd9a5d540de89e9fe90efdfc6973a4f</title>
<g id="a_edge10"><a xlink:href="dir_000046_000042.html" target="_top">
<path fill="none" stroke="#63b8ff" d="M696.21,-126.3C702.24,-113.84 713.83,-90.46 725,-71.25 730.1,-62.47 736.17,-53.01 741.43,-45.07"/>
<polygon fill="#63b8ff" stroke="#63b8ff" points="744.21,-47.2 746.89,-36.94 738.4,-43.29 744.21,-47.2"/>
</a>
</g>
<g id="a_edge10&#45;headlabel"><a xlink:href="dir_000046_000042.html" target="_top" xlink:title="13">
<text text-anchor="middle" x="745.41" y="-46.63" font-family="Helvetica,sans-Serif" font-size="10.00" fill="#63b8ff">13</text>
</a>
</g>
</g>
<!-- dir_a16ad4cba4b1f15056f2b7b0b5931815 -->
<g id="node6" class="node">
<title>dir_a16ad4cba4b1f15056f2b7b0b5931815</title>
<g id="a_node6"><a xlink:href="dir_a16ad4cba4b1f15056f2b7b0b5931815.html" target="_top" xlink:title="dvrp">
<polygon fill="#60a2e3" stroke="#404040" points="593.38,-201 558.62,-201 558.62,-181.75 593.38,-181.75 593.38,-201"/>
<text text-anchor="middle" x="576" y="-187.5" font-family="Helvetica,sans-Serif" font-size="10.00">dvrp</text>
</a>
</g>
</g>
<!-- dir_a16ad4cba4b1f15056f2b7b0b5931815&#45;&gt;dir_6f16cad81de2453a6f48c5e272ba4a18 -->
<g id="edge12" class="edge">
<title>dir_a16ad4cba4b1f15056f2b7b0b5931815&#45;&gt;dir_6f16cad81de2453a6f48c5e272ba4a18</title>
<g id="a_edge12"><a xlink:href="dir_000058_000046.html" target="_top">
<path fill="none" stroke="#63b8ff" d="M593.87,-182.17C612.25,-173.74 641.16,-160.46 662.86,-150.5"/>
<polygon fill="#63b8ff" stroke="#63b8ff" points="664.14,-153.76 671.77,-146.41 661.22,-147.4 664.14,-153.76"/>
</a>
</g>
<g id="a_edge12&#45;headlabel"><a xlink:href="dir_000058_000046.html" target="_top" xlink:title="12">
<text text-anchor="middle" x="663.44" y="-153.34" font-family="Helvetica,sans-Serif" font-size="10.00" fill="#63b8ff">12</text>
</a>
</g>
</g>
<!-- dir_a16ad4cba4b1f15056f2b7b0b5931815&#45;&gt;dir_9be0baa3d4a3e9f480a9ee70594037fa -->
<g id="edge11" class="edge">
<title>dir_a16ad4cba4b1f15056f2b7b0b5931815&#45;&gt;dir_9be0baa3d4a3e9f480a9ee70594037fa</title>
<g id="a_edge11"><a xlink:href="dir_000058_000212.html" target="_top">
<path fill="none" stroke="#63b8ff" d="M558.39,-187.79C518.62,-181.67 423.34,-165.32 398,-145.75 383.61,-134.64 374.35,-115.87 368.99,-101.54"/>
<polygon fill="#63b8ff" stroke="#63b8ff" points="372.37,-100.61 365.86,-92.25 365.73,-102.84 372.37,-100.61"/>
</a>
</g>
<g id="a_edge11&#45;headlabel"><a xlink:href="dir_000058_000212.html" target="_top" xlink:title="71">
<text text-anchor="middle" x="375.72" y="-97.8" font-family="Helvetica,sans-Serif" font-size="10.00" fill="#63b8ff">71</text>
</a>
</g>
</g>
<!-- dir_a16ad4cba4b1f15056f2b7b0b5931815&#45;&gt;dir_bdd9a5d540de89e9fe90efdfc6973a4f -->
<g id="edge13" class="edge">
<title>dir_a16ad4cba4b1f15056f2b7b0b5931815&#45;&gt;dir_bdd9a5d540de89e9fe90efdfc6973a4f</title>
<g id="a_edge13"><a xlink:href="dir_000058_000042.html" target="_top">
<path fill="none" stroke="#63b8ff" d="M593.78,-183.99C596.51,-183.16 599.31,-182.37 602,-181.75 659.9,-168.34 827.91,-190.51 867,-145.75 888.78,-120.81 885.62,-98.63 867,-71.25 850.44,-46.9 818.33,-35.84 792.56,-30.81"/>
<polygon fill="#63b8ff" stroke="#63b8ff" points="793.18,-27.37 782.74,-29.15 792.01,-34.27 793.18,-27.37"/>
</a>
</g>
<g id="a_edge13&#45;headlabel"><a xlink:href="dir_000058_000042.html" target="_top" xlink:title="12">
<text text-anchor="middle" x="795.7" y="-21.04" font-family="Helvetica,sans-Serif" font-size="10.00" fill="#63b8ff">12</text>
</a>
</g>
</g>
<!-- dir_f24daea2522ffa8b6dc5fa9cdf5b8f5c&#45;&gt;dir_9be0baa3d4a3e9f480a9ee70594037fa -->
<g id="edge14" class="edge">
<title>dir_f24daea2522ffa8b6dc5fa9cdf5b8f5c&#45;&gt;dir_9be0baa3d4a3e9f480a9ee70594037fa</title>
<g id="a_edge14"><a xlink:href="dir_000074_000212.html" target="_top">
<path fill="none" stroke="#63b8ff" d="M236.82,-129.53C259.02,-121.15 301.42,-105.13 330.92,-93.99"/>
<polygon fill="#63b8ff" stroke="#63b8ff" points="331.98,-97.33 340.1,-90.52 329.51,-90.78 331.98,-97.33"/>
</a>
</g>
<g id="a_edge14&#45;headlabel"><a xlink:href="dir_000074_000212.html" target="_top" xlink:title="209">
<text text-anchor="middle" x="331.04" y="-96.85" font-family="Helvetica,sans-Serif" font-size="10.00" fill="#63b8ff">209</text>
</a>
</g>
</g>
<!-- dir_40ac35421bc63b72c26b6c69b1517fd6 -->
<g id="node17" class="node">
<title>dir_40ac35421bc63b72c26b6c69b1517fd6</title>
<g id="a_node17"><a xlink:href="dir_40ac35421bc63b72c26b6c69b1517fd6.html" target="_top" xlink:title="system">
<polygon fill="#60a2e3" stroke="#404040" points="312.75,-35.25 265.25,-35.25 265.25,-16 312.75,-16 312.75,-35.25"/>
<text text-anchor="middle" x="289" y="-21.75" font-family="Helvetica,sans-Serif" font-size="10.00">system</text>
</a>
</g>
</g>
<!-- dir_f24daea2522ffa8b6dc5fa9cdf5b8f5c&#45;&gt;dir_40ac35421bc63b72c26b6c69b1517fd6 -->
<g id="edge16" class="edge">
<title>dir_f24daea2522ffa8b6dc5fa9cdf5b8f5c&#45;&gt;dir_40ac35421bc63b72c26b6c69b1517fd6</title>
<g id="a_edge16"><a xlink:href="dir_000074_000482.html" target="_top">
<path fill="none" stroke="#63b8ff" d="M227.48,-126.25C238.38,-108.6 262.96,-68.8 277.53,-45.2"/>
<polygon fill="#63b8ff" stroke="#63b8ff" points="280.37,-47.26 282.65,-36.91 274.41,-43.58 280.37,-47.26"/>
</a>
</g>
<g id="a_edge16&#45;headlabel"><a xlink:href="dir_000074_000482.html" target="_top" xlink:title="3">
<text text-anchor="middle" x="281.69" y="-46.65" font-family="Helvetica,sans-Serif" font-size="10.00" fill="#63b8ff">3</text>
</a>
</g>
</g>
<!-- dir_f24daea2522ffa8b6dc5fa9cdf5b8f5c&#45;&gt;dir_bdd9a5d540de89e9fe90efdfc6973a4f -->
<g id="edge15" class="edge">
<title>dir_f24daea2522ffa8b6dc5fa9cdf5b8f5c&#45;&gt;dir_bdd9a5d540de89e9fe90efdfc6973a4f</title>
<g id="a_edge15"><a xlink:href="dir_000074_000042.html" target="_top">
<path fill="none" stroke="#63b8ff" d="M236.51,-129.38C239.31,-128.36 242.23,-127.35 245,-126.5 248.11,-125.54 469.8,-71.87 473,-71.25 579.57,-50.71 611.07,-57.82 715.93,-36.64"/>
<polygon fill="#63b8ff" stroke="#63b8ff" points="716.43,-40.11 725.52,-34.66 715.02,-33.26 716.43,-40.11"/>
</a>
</g>
<g id="a_edge15&#45;headlabel"><a xlink:href="dir_000074_000042.html" target="_top" xlink:title="20">
<text text-anchor="middle" x="714.97" y="-39.44" font-family="Helvetica,sans-Serif" font-size="10.00" fill="#63b8ff">20</text>
</a>
</g>
</g>
<!-- dir_b6763ea08a8f9364194ebe3565e6b1f0 -->
<g id="node8" class="node">
<title>dir_b6763ea08a8f9364194ebe3565e6b1f0</title>
<g id="a_node8"><a xlink:href="dir_b6763ea08a8f9364194ebe3565e6b1f0.html" target="_top" xlink:title="hdd">
<polygon fill="#60a2e3" stroke="#404040" points="642.88,-201 611.12,-201 611.12,-181.75 642.88,-181.75 642.88,-201"/>
<text text-anchor="middle" x="627" y="-187.5" font-family="Helvetica,sans-Serif" font-size="10.00">hdd</text>
</a>
</g>
</g>
<!-- dir_b6763ea08a8f9364194ebe3565e6b1f0&#45;&gt;dir_6f16cad81de2453a6f48c5e272ba4a18 -->
<g id="edge19" class="edge">
<title>dir_b6763ea08a8f9364194ebe3565e6b1f0&#45;&gt;dir_6f16cad81de2453a6f48c5e272ba4a18</title>
<g id="a_edge19"><a xlink:href="dir_000081_000046.html" target="_top">
<path fill="none" stroke="#63b8ff" d="M638.03,-181.34C647.42,-173.65 661.15,-162.4 672.41,-153.18"/>
<polygon fill="#63b8ff" stroke="#63b8ff" points="674.45,-156.03 679.97,-146.98 670.01,-150.61 674.45,-156.03"/>
</a>
</g>
<g id="a_edge19&#45;headlabel"><a xlink:href="dir_000081_000046.html" target="_top" xlink:title="9">
<text text-anchor="middle" x="674.64" y="-155.67" font-family="Helvetica,sans-Serif" font-size="10.00" fill="#63b8ff">9</text>
</a>
</g>
</g>
<!-- dir_b6763ea08a8f9364194ebe3565e6b1f0&#45;&gt;dir_9be0baa3d4a3e9f480a9ee70594037fa -->
<g id="edge18" class="edge">
<title>dir_b6763ea08a8f9364194ebe3565e6b1f0&#45;&gt;dir_9be0baa3d4a3e9f480a9ee70594037fa</title>
<g id="a_edge18"><a xlink:href="dir_000081_000212.html" target="_top">
<path fill="none" stroke="#63b8ff" d="M610.69,-184.39C607.82,-183.43 604.84,-182.51 602,-181.75 521.53,-160.11 490.04,-187.63 418,-145.75 407.9,-139.88 389,-116.48 376.21,-99.71"/>
<polygon fill="#63b8ff" stroke="#63b8ff" points="379.22,-97.88 370.41,-91.99 373.62,-102.09 379.22,-97.88"/>
</a>
</g>
<g id="a_edge18&#45;headlabel"><a xlink:href="dir_000081_000212.html" target="_top" xlink:title="141">
<text text-anchor="middle" x="382.74" y="-93.96" font-family="Helvetica,sans-Serif" font-size="10.00" fill="#63b8ff">141</text>
</a>
</g>
</g>
<!-- dir_b6763ea08a8f9364194ebe3565e6b1f0&#45;&gt;dir_bdd9a5d540de89e9fe90efdfc6973a4f -->
<g id="edge17" class="edge">
<title>dir_b6763ea08a8f9364194ebe3565e6b1f0&#45;&gt;dir_bdd9a5d540de89e9fe90efdfc6973a4f</title>
<g id="a_edge17"><a xlink:href="dir_000081_000042.html" target="_top">
<path fill="none" stroke="#63b8ff" d="M643.27,-184.26C646.15,-183.32 649.14,-182.44 652,-181.75 707.2,-168.43 867.78,-188.64 905,-145.75 926.7,-120.74 924.82,-97.77 905,-71.25 879.27,-36.82 828.19,-27.85 792.6,-26.05"/>
<polygon fill="#63b8ff" stroke="#63b8ff" points="792.8,-22.56 782.7,-25.74 792.58,-29.55 792.8,-22.56"/>
</a>
</g>
<g id="a_edge17&#45;headlabel"><a xlink:href="dir_000081_000042.html" target="_top" xlink:title="49">
<text text-anchor="middle" x="794.97" y="-15.91" font-family="Helvetica,sans-Serif" font-size="10.00" fill="#63b8ff">49</text>
</a>
</g>
</g>
<!-- dir_fc941b9cdd19bfc53379effb1dbc42b0 -->
<g id="node9" class="node">
<title>dir_fc941b9cdd19bfc53379effb1dbc42b0</title>
<g id="a_node9"><a xlink:href="dir_fc941b9cdd19bfc53379effb1dbc42b0.html" target="_top" xlink:title="iLink">
<polygon fill="#60a2e3" stroke="#404040" points="240.5,-201 203.5,-201 203.5,-181.75 240.5,-181.75 240.5,-201"/>
<text text-anchor="middle" x="222" y="-187.5" font-family="Helvetica,sans-Serif" font-size="10.00">iLink</text>
</a>
</g>
</g>
<!-- dir_fc941b9cdd19bfc53379effb1dbc42b0&#45;&gt;dir_f24daea2522ffa8b6dc5fa9cdf5b8f5c -->
<g id="edge22" class="edge">
<title>dir_fc941b9cdd19bfc53379effb1dbc42b0&#45;&gt;dir_f24daea2522ffa8b6dc5fa9cdf5b8f5c</title>
<g id="a_edge22"><a xlink:href="dir_000088_000074.html" target="_top">
<path fill="none" stroke="#63b8ff" d="M222,-181.58C222,-175.07 222,-165.92 222,-157.62"/>
<polygon fill="#63b8ff" stroke="#63b8ff" points="225.5,-157.62 222,-147.62 218.5,-157.62 225.5,-157.62"/>
</a>
</g>
<g id="a_edge22&#45;headlabel"><a xlink:href="dir_000088_000074.html" target="_top" xlink:title="2">
<text text-anchor="middle" x="228.34" y="-155.83" font-family="Helvetica,sans-Serif" font-size="10.00" fill="#63b8ff">2</text>
</a>
</g>
</g>
<!-- dir_fc941b9cdd19bfc53379effb1dbc42b0&#45;&gt;dir_9be0baa3d4a3e9f480a9ee70594037fa -->
<g id="edge21" class="edge">
<title>dir_fc941b9cdd19bfc53379effb1dbc42b0&#45;&gt;dir_9be0baa3d4a3e9f480a9ee70594037fa</title>
<g id="a_edge21"><a xlink:href="dir_000088_000212.html" target="_top">
<path fill="none" stroke="#63b8ff" d="M213.72,-181.29C202.72,-168.09 186.12,-143.36 199,-126.5 214.85,-105.77 287.08,-92.38 330.22,-86.09"/>
<polygon fill="#63b8ff" stroke="#63b8ff" points="330.63,-89.56 340.05,-84.71 329.66,-82.63 330.63,-89.56"/>
</a>
</g>
<g id="a_edge21&#45;headlabel"><a xlink:href="dir_000088_000212.html" target="_top" xlink:title="101">
<text text-anchor="middle" x="328.96" y="-88.79" font-family="Helvetica,sans-Serif" font-size="10.00" fill="#63b8ff">101</text>
</a>
</g>
</g>
<!-- dir_fc941b9cdd19bfc53379effb1dbc42b0&#45;&gt;dir_bdd9a5d540de89e9fe90efdfc6973a4f -->
<g id="edge20" class="edge">
<title>dir_fc941b9cdd19bfc53379effb1dbc42b0&#45;&gt;dir_bdd9a5d540de89e9fe90efdfc6973a4f</title>
<g id="a_edge20"><a xlink:href="dir_000088_000042.html" target="_top">
<path fill="none" stroke="#63b8ff" d="M240.76,-188.65C260.11,-186.88 291.16,-184.07 318,-181.75 366.32,-177.58 720,-181.29 753,-145.75 777.78,-119.06 768.94,-72.71 761.01,-46.39"/>
<polygon fill="#63b8ff" stroke="#63b8ff" points="764.37,-45.39 757.92,-36.98 757.72,-47.58 764.37,-45.39"/>
</a>
</g>
<g id="a_edge20&#45;headlabel"><a xlink:href="dir_000088_000042.html" target="_top" xlink:title="6">
<text text-anchor="middle" x="767.71" y="-42.61" font-family="Helvetica,sans-Serif" font-size="10.00" fill="#63b8ff">6</text>
</a>
</g>
</g>
<!-- dir_9be0baa3d4a3e9f480a9ee70594037fa&#45;&gt;dir_40ac35421bc63b72c26b6c69b1517fd6 -->
<g id="edge23" class="edge">
<title>dir_9be0baa3d4a3e9f480a9ee70594037fa&#45;&gt;dir_40ac35421bc63b72c26b6c69b1517fd6</title>
<g id="a_edge23"><a xlink:href="dir_000212_000482.html" target="_top">
<path fill="none" stroke="#63b8ff" d="M345.23,-70.84C332.93,-63.15 316.96,-51.9 305.05,-42.68"/>
<polygon fill="#63b8ff" stroke="#63b8ff" points="307.34,-40.02 297.36,-36.47 302.95,-45.47 307.34,-40.02"/>
</a>
</g>
<g id="a_edge23&#45;headlabel"><a xlink:href="dir_000212_000482.html" target="_top" xlink:title="2">
<text text-anchor="middle" x="310.74" y="-35.24" font-family="Helvetica,sans-Serif" font-size="10.00" fill="#63b8ff">2</text>
</a>
</g>
</g>
<!-- dir_9be0baa3d4a3e9f480a9ee70594037fa&#45;&gt;dir_bdd9a5d540de89e9fe90efdfc6973a4f -->
<g id="edge24" class="edge">
<title>dir_9be0baa3d4a3e9f480a9ee70594037fa&#45;&gt;dir_bdd9a5d540de89e9fe90efdfc6973a4f</title>
<g id="a_edge24"><a xlink:href="dir_000212_000042.html" target="_top">
<path fill="none" stroke="#63b8ff" d="M384.3,-76.02C393.43,-74.43 404.22,-72.65 414,-71.25 547.13,-52.25 585.25,-61.33 715.78,-36.57"/>
<polygon fill="#63b8ff" stroke="#63b8ff" points="716.37,-40.02 725.52,-34.69 715.04,-33.15 716.37,-40.02"/>
</a>
</g>
<g id="a_edge24&#45;headlabel"><a xlink:href="dir_000212_000042.html" target="_top" xlink:title="12">
<text text-anchor="middle" x="714.86" y="-39.33" font-family="Helvetica,sans-Serif" font-size="10.00" fill="#63b8ff">12</text>
</a>
</g>
</g>
<!-- dir_5805bfcfbe100e4767f47461b3e6402b -->
<g id="node11" class="node">
<title>dir_5805bfcfbe100e4767f47461b3e6402b</title>
<g id="a_node11"><a xlink:href="dir_5805bfcfbe100e4767f47461b3e6402b.html" target="_top" xlink:title="memorycard">
<polygon fill="#60a2e3" stroke="#404040" points="323.62,-145.75 254.38,-145.75 254.38,-126.5 323.62,-126.5 323.62,-145.75"/>
<text text-anchor="middle" x="289" y="-132.25" font-family="Helvetica,sans-Serif" font-size="10.00">memorycard</text>
</a>
</g>
</g>
<!-- dir_5805bfcfbe100e4767f47461b3e6402b&#45;&gt;dir_9be0baa3d4a3e9f480a9ee70594037fa -->
<g id="edge25" class="edge">
<title>dir_5805bfcfbe100e4767f47461b3e6402b&#45;&gt;dir_9be0baa3d4a3e9f480a9ee70594037fa</title>
<g id="a_edge25"><a xlink:href="dir_000236_000212.html" target="_top">
<path fill="none" stroke="#63b8ff" d="M301.55,-126.09C312.46,-118.24 328.5,-106.7 341.46,-97.37"/>
<polygon fill="#63b8ff" stroke="#63b8ff" points="343.33,-100.34 349.4,-91.66 339.24,-94.66 343.33,-100.34"/>
</a>
</g>
<g id="a_edge25&#45;headlabel"><a xlink:href="dir_000236_000212.html" target="_top" xlink:title="37">
<text text-anchor="middle" x="343.3" y="-99.99" font-family="Helvetica,sans-Serif" font-size="10.00" fill="#63b8ff">37</text>
</a>
</g>
</g>
<!-- dir_5805bfcfbe100e4767f47461b3e6402b&#45;&gt;dir_40ac35421bc63b72c26b6c69b1517fd6 -->
<g id="edge27" class="edge">
<title>dir_5805bfcfbe100e4767f47461b3e6402b&#45;&gt;dir_40ac35421bc63b72c26b6c69b1517fd6</title>
<g id="a_edge27"><a xlink:href="dir_000236_000482.html" target="_top">
<path fill="none" stroke="#63b8ff" d="M289,-126.25C289,-109 289,-70.58 289,-46.81"/>
<polygon fill="#63b8ff" stroke="#63b8ff" points="292.5,-47.14 289,-37.14 285.5,-47.14 292.5,-47.14"/>
</a>
</g>
<g id="a_edge27&#45;headlabel"><a xlink:href="dir_000236_000482.html" target="_top" xlink:title="2">
<text text-anchor="middle" x="295.34" y="-45.35" font-family="Helvetica,sans-Serif" font-size="10.00" fill="#63b8ff">2</text>
</a>
</g>
</g>
<!-- dir_5805bfcfbe100e4767f47461b3e6402b&#45;&gt;dir_bdd9a5d540de89e9fe90efdfc6973a4f -->
<g id="edge26" class="edge">
<title>dir_5805bfcfbe100e4767f47461b3e6402b&#45;&gt;dir_bdd9a5d540de89e9fe90efdfc6973a4f</title>
<g id="a_edge26"><a xlink:href="dir_000236_000042.html" target="_top">
<path fill="none" stroke="#63b8ff" d="M323.91,-126.68C375.32,-114.27 474.47,-90.53 559,-71.25 628.2,-55.47 648.61,-53.43 716.18,-36.9"/>
<polygon fill="#63b8ff" stroke="#63b8ff" points="716.63,-40.4 725.5,-34.6 714.96,-33.6 716.63,-40.4"/>
</a>
</g>
<g id="a_edge26&#45;headlabel"><a xlink:href="dir_000236_000042.html" target="_top" xlink:title="2">
<text text-anchor="middle" x="715.29" y="-39.78" font-family="Helvetica,sans-Serif" font-size="10.00" fill="#63b8ff">2</text>
</a>
</g>
</g>
<!-- dir_f89050b4b7ba0179c2c7efd2300413d9 -->
<g id="node12" class="node">
<title>dir_f89050b4b7ba0179c2c7efd2300413d9</title>
<g id="a_node12"><a xlink:href="dir_f89050b4b7ba0179c2c7efd2300413d9.html" target="_top" xlink:title="network">
<polygon fill="#60a2e3" stroke="#404040" points="711.25,-201 660.75,-201 660.75,-181.75 711.25,-181.75 711.25,-201"/>
<text text-anchor="middle" x="686" y="-187.5" font-family="Helvetica,sans-Serif" font-size="10.00">network</text>
</a>
</g>
</g>
<!-- dir_f89050b4b7ba0179c2c7efd2300413d9&#45;&gt;dir_6f16cad81de2453a6f48c5e272ba4a18 -->
<g id="edge28" class="edge">
<title>dir_f89050b4b7ba0179c2c7efd2300413d9&#45;&gt;dir_6f16cad81de2453a6f48c5e272ba4a18</title>
<g id="a_edge28"><a xlink:href="dir_000251_000046.html" target="_top">
<path fill="none" stroke="#63b8ff" d="M686.99,-181.58C687.73,-174.99 688.78,-165.71 689.72,-157.32"/>
<polygon fill="#63b8ff" stroke="#63b8ff" points="693.18,-157.94 690.82,-147.61 686.22,-157.16 693.18,-157.94"/>
</a>
</g>
<g id="a_edge28&#45;headlabel"><a xlink:href="dir_000251_000046.html" target="_top" xlink:title="4">
<text text-anchor="middle" x="695.76" y="-156.45" font-family="Helvetica,sans-Serif" font-size="10.00" fill="#63b8ff">4</text>
</a>
</g>
</g>
<!-- dir_f89050b4b7ba0179c2c7efd2300413d9&#45;&gt;dir_9be0baa3d4a3e9f480a9ee70594037fa -->
<g id="edge29" class="edge">
<title>dir_f89050b4b7ba0179c2c7efd2300413d9&#45;&gt;dir_9be0baa3d4a3e9f480a9ee70594037fa</title>
<g id="a_edge29"><a xlink:href="dir_000251_000212.html" target="_top">
<path fill="none" stroke="#63b8ff" d="M660.43,-183.64C657.6,-182.97 654.74,-182.32 652,-181.75 555.44,-161.6 521.18,-189.95 433,-145.75 421.97,-140.22 422.05,-134.89 413,-126.5 402.89,-117.13 391.42,-106.87 382.03,-98.56"/>
<polygon fill="#63b8ff" stroke="#63b8ff" points="384.4,-95.98 374.58,-91.99 379.77,-101.23 384.4,-95.98"/>
</a>
</g>
<g id="a_edge29&#45;headlabel"><a xlink:href="dir_000251_000212.html" target="_top" xlink:title="132">
<text text-anchor="middle" x="387.84" y="-91.35" font-family="Helvetica,sans-Serif" font-size="10.00" fill="#63b8ff">132</text>
</a>
</g>
</g>
<!-- dir_f89050b4b7ba0179c2c7efd2300413d9&#45;&gt;dir_bdd9a5d540de89e9fe90efdfc6973a4f -->
<g id="edge30" class="edge">
<title>dir_f89050b4b7ba0179c2c7efd2300413d9&#45;&gt;dir_bdd9a5d540de89e9fe90efdfc6973a4f</title>
<g id="a_edge30"><a xlink:href="dir_000251_000042.html" target="_top">
<path fill="none" stroke="#63b8ff" d="M711.55,-189.93C770.56,-188.3 913.55,-180.75 943,-145.75 964.32,-120.41 963.55,-97.21 943,-71.25 924.6,-48 842.26,-35.63 792.53,-30.17"/>
<polygon fill="#63b8ff" stroke="#63b8ff" points="793.06,-26.71 782.75,-29.14 792.33,-33.67 793.06,-26.71"/>
</a>
</g>
<g id="a_edge30&#45;headlabel"><a xlink:href="dir_000251_000042.html" target="_top" xlink:title="24">
<text text-anchor="middle" x="795.43" y="-20.22" font-family="Helvetica,sans-Serif" font-size="10.00" fill="#63b8ff">24</text>
</a>
</g>
</g>
<!-- dir_65b0066184b118a668041f55a1e77c0f -->
<g id="node13" class="node">
<title>dir_65b0066184b118a668041f55a1e77c0f</title>
<g id="a_node13"><a xlink:href="dir_65b0066184b118a668041f55a1e77c0f.html" target="_top" xlink:title="security">
<polygon fill="#60a2e3" stroke="#404040" points="85.88,-145.75 36.12,-145.75 36.12,-126.5 85.88,-126.5 85.88,-145.75"/>
<text text-anchor="middle" x="61" y="-132.25" font-family="Helvetica,sans-Serif" font-size="10.00">security</text>
</a>
</g>
</g>
<!-- dir_65b0066184b118a668041f55a1e77c0f&#45;&gt;dir_9be0baa3d4a3e9f480a9ee70594037fa -->
<g id="edge31" class="edge">
<title>dir_65b0066184b118a668041f55a1e77c0f&#45;&gt;dir_9be0baa3d4a3e9f480a9ee70594037fa</title>
<g id="a_edge31"><a xlink:href="dir_000282_000212.html" target="_top">
<path fill="none" stroke="#63b8ff" d="M86.2,-128.48C89.16,-127.78 92.14,-127.1 95,-126.5 179.41,-108.8 279.95,-93.62 330.53,-86.39"/>
<polygon fill="#63b8ff" stroke="#63b8ff" points="330.79,-89.89 340.2,-85.02 329.8,-82.96 330.79,-89.89"/>
</a>
</g>
<g id="a_edge31&#45;headlabel"><a xlink:href="dir_000282_000212.html" target="_top" xlink:title="37">
<text text-anchor="middle" x="329.12" y="-89.12" font-family="Helvetica,sans-Serif" font-size="10.00" fill="#63b8ff">37</text>
</a>
</g>
</g>
<!-- dir_65b0066184b118a668041f55a1e77c0f&#45;&gt;dir_40ac35421bc63b72c26b6c69b1517fd6 -->
<g id="edge32" class="edge">
<title>dir_65b0066184b118a668041f55a1e77c0f&#45;&gt;dir_40ac35421bc63b72c26b6c69b1517fd6</title>
<g id="a_edge32"><a xlink:href="dir_000282_000482.html" target="_top">
<path fill="none" stroke="#63b8ff" d="M80.05,-126.06C119.86,-107.11 212.14,-63.2 259.61,-40.61"/>
<polygon fill="#63b8ff" stroke="#63b8ff" points="260.95,-43.85 268.48,-36.39 257.95,-37.53 260.95,-43.85"/>
</a>
</g>
<g id="a_edge32&#45;headlabel"><a xlink:href="dir_000282_000482.html" target="_top" xlink:title="1">
<text text-anchor="middle" x="260.3" y="-43.43" font-family="Helvetica,sans-Serif" font-size="10.00" fill="#63b8ff">1</text>
</a>
</g>
</g>
<!-- dir_6133ef156cce03413acfdeebec722ba1 -->
<g id="node14" class="node">
<title>dir_6133ef156cce03413acfdeebec722ba1</title>
<g id="a_node14"><a xlink:href="dir_6133ef156cce03413acfdeebec722ba1.html" target="_top" xlink:title="sio">
<polygon fill="#60a2e3" stroke="#404040" points="184.4,-201 155.6,-201 155.6,-181.75 184.4,-181.75 184.4,-201"/>
<text text-anchor="middle" x="170" y="-187.5" font-family="Helvetica,sans-Serif" font-size="10.00">sio</text>
</a>
</g>
</g>
<!-- dir_6133ef156cce03413acfdeebec722ba1&#45;&gt;dir_f24daea2522ffa8b6dc5fa9cdf5b8f5c -->
<g id="edge34" class="edge">
<title>dir_6133ef156cce03413acfdeebec722ba1&#45;&gt;dir_f24daea2522ffa8b6dc5fa9cdf5b8f5c</title>
<g id="a_edge34"><a xlink:href="dir_000287_000074.html" target="_top">
<path fill="none" stroke="#63b8ff" d="M178.59,-181.58C185.84,-174.15 196.45,-163.29 205.37,-154.16"/>
<polygon fill="#63b8ff" stroke="#63b8ff" points="207.69,-156.79 212.17,-147.19 202.68,-151.9 207.69,-156.79"/>
</a>
</g>
<g id="a_edge34&#45;headlabel"><a xlink:href="dir_000287_000074.html" target="_top" xlink:title="4">
<text text-anchor="middle" x="208.26" y="-156.39" font-family="Helvetica,sans-Serif" font-size="10.00" fill="#63b8ff">4</text>
</a>
</g>
</g>
<!-- dir_6133ef156cce03413acfdeebec722ba1&#45;&gt;dir_9be0baa3d4a3e9f480a9ee70594037fa -->
<g id="edge33" class="edge">
<title>dir_6133ef156cce03413acfdeebec722ba1&#45;&gt;dir_9be0baa3d4a3e9f480a9ee70594037fa</title>
<g id="a_edge33"><a xlink:href="dir_000287_000212.html" target="_top">
<path fill="none" stroke="#63b8ff" d="M170.18,-181.55C170.95,-167.78 174.5,-141.23 190,-126.5 228.12,-90.27 291.64,-82.46 330.19,-81.31"/>
<polygon fill="#63b8ff" stroke="#63b8ff" points="330.06,-84.81 340.01,-81.17 329.96,-77.81 330.06,-84.81"/>
</a>
</g>
<g id="a_edge33&#45;headlabel"><a xlink:href="dir_000287_000212.html" target="_top" xlink:title="24">
<text text-anchor="middle" x="328.02" y="-83.81" font-family="Helvetica,sans-Serif" font-size="10.00" fill="#63b8ff">24</text>
</a>
</g>
</g>
<!-- dir_6133ef156cce03413acfdeebec722ba1&#45;&gt;dir_40ac35421bc63b72c26b6c69b1517fd6 -->
<g id="edge35" class="edge">
<title>dir_6133ef156cce03413acfdeebec722ba1&#45;&gt;dir_40ac35421bc63b72c26b6c69b1517fd6</title>
<g id="a_edge35"><a xlink:href="dir_000287_000482.html" target="_top">
<path fill="none" stroke="#63b8ff" d="M155.18,-188C121.81,-182.31 42.49,-166.81 27,-145.75 21.93,-138.86 22.28,-133.64 27,-126.5 77.38,-50.35 194.59,-32.17 253.65,-27.89"/>
<polygon fill="#63b8ff" stroke="#63b8ff" points="253.71,-31.4 263.48,-27.29 253.28,-24.41 253.71,-31.4"/>
</a>
</g>
<g id="a_edge35&#45;headlabel"><a xlink:href="dir_000287_000482.html" target="_top" xlink:title="1">
<text text-anchor="middle" x="251.81" y="-30.48" font-family="Helvetica,sans-Serif" font-size="10.00" fill="#63b8ff">1</text>
</a>
</g>
</g>
<!-- dir_6133ef156cce03413acfdeebec722ba1&#45;&gt;dir_bdd9a5d540de89e9fe90efdfc6973a4f -->
<g id="edge36" class="edge">
<title>dir_6133ef156cce03413acfdeebec722ba1&#45;&gt;dir_bdd9a5d540de89e9fe90efdfc6973a4f</title>
<g id="a_edge36"><a xlink:href="dir_000287_000042.html" target="_top">
<path fill="none" stroke="#63b8ff" d="M184.89,-184.52C188.18,-183.43 191.67,-182.43 195,-181.75 252.3,-170.11 674.56,-182.54 720,-145.75 749.58,-121.8 754.51,-74.03 754.74,-46.83"/>
<polygon fill="#63b8ff" stroke="#63b8ff" points="758.24,-47.08 754.59,-37.13 751.24,-47.19 758.24,-47.08"/>
</a>
</g>
<g id="a_edge36&#45;headlabel"><a xlink:href="dir_000287_000042.html" target="_top" xlink:title="2">
<text text-anchor="middle" x="761.11" y="-45.24" font-family="Helvetica,sans-Serif" font-size="10.00" fill="#63b8ff">2</text>
</a>
</g>
</g>
<!-- dir_838e88315325ec0d843359dcae22d639 -->
<g id="node15" class="node">
<title>dir_838e88315325ec0d843359dcae22d639</title>
<g id="a_node15"><a xlink:href="dir_838e88315325ec0d843359dcae22d639.html" target="_top" xlink:title="sound">
<polygon fill="#60a2e3" stroke="#404040" points="484.12,-145.75 441.88,-145.75 441.88,-126.5 484.12,-126.5 484.12,-145.75"/>
<text text-anchor="middle" x="463" y="-132.25" font-family="Helvetica,sans-Serif" font-size="10.00">sound</text>
</a>
</g>
</g>
<!-- dir_838e88315325ec0d843359dcae22d639&#45;&gt;dir_9be0baa3d4a3e9f480a9ee70594037fa -->
<g id="edge37" class="edge">
<title>dir_838e88315325ec0d843359dcae22d639&#45;&gt;dir_9be0baa3d4a3e9f480a9ee70594037fa</title>
<g id="a_edge37"><a xlink:href="dir_000294_000212.html" target="_top">
<path fill="none" stroke="#63b8ff" d="M446.04,-126.09C430.74,-117.94 407.97,-105.82 390.14,-96.33"/>
<polygon fill="#63b8ff" stroke="#63b8ff" points="391.85,-93.27 381.38,-91.66 388.56,-99.45 391.85,-93.27"/>
</a>
</g>
<g id="a_edge37&#45;headlabel"><a xlink:href="dir_000294_000212.html" target="_top" xlink:title="133">
<text text-anchor="middle" x="395.03" y="-87.87" font-family="Helvetica,sans-Serif" font-size="10.00" fill="#63b8ff">133</text>
</a>
</g>
</g>
<!-- dir_838e88315325ec0d843359dcae22d639&#45;&gt;dir_bdd9a5d540de89e9fe90efdfc6973a4f -->
<g id="edge38" class="edge">
<title>dir_838e88315325ec0d843359dcae22d639&#45;&gt;dir_bdd9a5d540de89e9fe90efdfc6973a4f</title>
<g id="a_edge38"><a xlink:href="dir_000294_000042.html" target="_top">
<path fill="none" stroke="#63b8ff" d="M481.34,-126.12C508.41,-113.02 560.86,-88.41 607,-71.25 627.05,-63.79 679.69,-48.16 716.2,-37.53"/>
<polygon fill="#63b8ff" stroke="#63b8ff" points="716.88,-40.97 725.51,-34.82 714.93,-34.25 716.88,-40.97"/>
</a>
</g>
<g id="a_edge38&#45;headlabel"><a xlink:href="dir_000294_000042.html" target="_top" xlink:title="5">
<text text-anchor="middle" x="715.68" y="-40.4" font-family="Helvetica,sans-Serif" font-size="10.00" fill="#63b8ff">5</text>
</a>
</g>
</g>
<!-- dir_980fbc83f434ee581df0dda8a6c16376 -->
<g id="node16" class="node">
<title>dir_980fbc83f434ee581df0dda8a6c16376</title>
<g id="a_node16"><a xlink:href="dir_980fbc83f434ee581df0dda8a6c16376.html" target="_top" xlink:title="startup">
<polygon fill="#60a2e3" stroke="#404040" points="150,-145.75 104,-145.75 104,-126.5 150,-126.5 150,-145.75"/>
<text text-anchor="middle" x="127" y="-132.25" font-family="Helvetica,sans-Serif" font-size="10.00">startup</text>
</a>
</g>
</g>
<!-- dir_980fbc83f434ee581df0dda8a6c16376&#45;&gt;dir_9be0baa3d4a3e9f480a9ee70594037fa -->
<g id="edge39" class="edge">
<title>dir_980fbc83f434ee581df0dda8a6c16376&#45;&gt;dir_9be0baa3d4a3e9f480a9ee70594037fa</title>
<g id="a_edge39"><a xlink:href="dir_000473_000212.html" target="_top">
<path fill="none" stroke="#63b8ff" d="M150.48,-129.62C154.97,-128.58 159.63,-127.5 164,-126.5 222.62,-113.1 291.04,-97.84 330.47,-89.08"/>
<polygon fill="#63b8ff" stroke="#63b8ff" points="331.01,-92.55 340.01,-86.96 329.49,-85.71 331.01,-92.55"/>
</a>
</g>
<g id="a_edge39&#45;headlabel"><a xlink:href="dir_000473_000212.html" target="_top" xlink:title="1">
<text text-anchor="middle" x="329.59" y="-91.9" font-family="Helvetica,sans-Serif" font-size="10.00" fill="#63b8ff">1</text>
</a>
</g>
</g>
<!-- dir_40ac35421bc63b72c26b6c69b1517fd6&#45;&gt;dir_9be0baa3d4a3e9f480a9ee70594037fa -->
<g id="edge40" class="edge">
<title>dir_40ac35421bc63b72c26b6c69b1517fd6&#45;&gt;dir_9be0baa3d4a3e9f480a9ee70594037fa</title>
<g id="a_edge40"><a xlink:href="dir_000482_000212.html" target="_top">
<path fill="none" stroke="#63b8ff" d="M306.84,-35.7C319.08,-43.37 334.94,-54.53 346.8,-63.71"/>
<polygon fill="#63b8ff" stroke="#63b8ff" points="344.5,-66.35 354.48,-69.89 348.89,-60.9 344.5,-66.35"/>
</a>
</g>
<g id="a_edge40&#45;headlabel"><a xlink:href="dir_000482_000212.html" target="_top" xlink:title="400">
<text text-anchor="middle" x="341.1" y="-63.38" font-family="Helvetica,sans-Serif" font-size="10.00" fill="#63b8ff">400</text>
</a>
</g>
</g>
<!-- dir_40ac35421bc63b72c26b6c69b1517fd6&#45;&gt;dir_bdd9a5d540de89e9fe90efdfc6973a4f -->
<g id="edge41" class="edge">
<title>dir_40ac35421bc63b72c26b6c69b1517fd6&#45;&gt;dir_bdd9a5d540de89e9fe90efdfc6973a4f</title>
<g id="a_edge41"><a xlink:href="dir_000482_000042.html" target="_top">
<path fill="none" stroke="#63b8ff" d="M313.07,-25.62C447.23,-25.62 581.39,-25.62 715.56,-25.62"/>
<polygon fill="#63b8ff" stroke="#63b8ff" points="715.36,-29.13 725.36,-25.63 715.36,-22.13 715.36,-29.13"/>
</a>
</g>
<g id="a_edge41&#45;headlabel"><a xlink:href="dir_000482_000042.html" target="_top" xlink:title="11">
<text text-anchor="middle" x="713.28" y="-28.09" font-family="Helvetica,sans-Serif" font-size="10.00" fill="#63b8ff">11</text>
</a>
</g>
</g>
<!-- dir_cb38d55d28446d14702541320714f23c -->
<g id="node18" class="node">
<title>dir_cb38d55d28446d14702541320714f23c</title>
<g id="a_node18"><a xlink:href="dir_cb38d55d28446d14702541320714f23c.html" target="_top" xlink:title="tcpip">
<polygon fill="#60a2e3" stroke="#404040" points="539.5,-145.75 502.5,-145.75 502.5,-126.5 539.5,-126.5 539.5,-145.75"/>
<text text-anchor="middle" x="521" y="-132.25" font-family="Helvetica,sans-Serif" font-size="10.00">tcpip</text>
</a>
</g>
</g>
<!-- dir_cb38d55d28446d14702541320714f23c&#45;&gt;dir_9be0baa3d4a3e9f480a9ee70594037fa -->
<g id="edge42" class="edge">
<title>dir_cb38d55d28446d14702541320714f23c&#45;&gt;dir_9be0baa3d4a3e9f480a9ee70594037fa</title>
<g id="a_edge42"><a xlink:href="dir_000484_000212.html" target="_top">
<path fill="none" stroke="#63b8ff" d="M502.25,-128.81C475.86,-119.91 427.36,-103.57 395.15,-92.71"/>
<polygon fill="#63b8ff" stroke="#63b8ff" points="396.52,-89.48 385.93,-89.6 394.29,-96.11 396.52,-89.48"/>
</a>
</g>
<g id="a_edge42&#45;headlabel"><a xlink:href="dir_000484_000212.html" target="_top" xlink:title="53">
<text text-anchor="middle" x="399.4" y="-83.58" font-family="Helvetica,sans-Serif" font-size="10.00" fill="#63b8ff">53</text>
</a>
</g>
</g>
<!-- dir_cb38d55d28446d14702541320714f23c&#45;&gt;dir_bdd9a5d540de89e9fe90efdfc6973a4f -->
<g id="edge43" class="edge">
<title>dir_cb38d55d28446d14702541320714f23c&#45;&gt;dir_bdd9a5d540de89e9fe90efdfc6973a4f</title>
<g id="a_edge43"><a xlink:href="dir_000484_000042.html" target="_top">
<path fill="none" stroke="#63b8ff" d="M538.38,-126.14C563.02,-113.49 609.61,-89.9 650,-71.25 673.74,-60.29 700.9,-48.66 721.51,-40.03"/>
<polygon fill="#63b8ff" stroke="#63b8ff" points="722.65,-43.35 730.54,-36.27 719.96,-36.88 722.65,-43.35"/>
</a>
</g>
<g id="a_edge43&#45;headlabel"><a xlink:href="dir_000484_000042.html" target="_top" xlink:title="5">
<text text-anchor="middle" x="721.83" y="-42.89" font-family="Helvetica,sans-Serif" font-size="10.00" fill="#63b8ff">5</text>
</a>
</g>
</g>
<!-- dir_b6c875632944d243a548db157cd77ec2 -->
<g id="node19" class="node">
<title>dir_b6c875632944d243a548db157cd77ec2</title>
<g id="a_node19"><a xlink:href="dir_b6c875632944d243a548db157cd77ec2.html" target="_top" xlink:title="usb">
<polygon fill="#60a2e3" stroke="#404040" points="358.88,-201 327.12,-201 327.12,-181.75 358.88,-181.75 358.88,-201"/>
<text text-anchor="middle" x="343" y="-187.5" font-family="Helvetica,sans-Serif" font-size="10.00">usb</text>
</a>
</g>
</g>
<!-- dir_b6c875632944d243a548db157cd77ec2&#45;&gt;dir_f24daea2522ffa8b6dc5fa9cdf5b8f5c -->
<g id="edge46" class="edge">
<title>dir_b6c875632944d243a548db157cd77ec2&#45;&gt;dir_f24daea2522ffa8b6dc5fa9cdf5b8f5c</title>
<g id="a_edge46"><a xlink:href="dir_000496_000074.html" target="_top">
<path fill="none" stroke="#63b8ff" d="M326.68,-183.19C306.19,-174.17 270.82,-158.61 246.93,-148.1"/>
<polygon fill="#63b8ff" stroke="#63b8ff" points="248.5,-144.96 237.94,-144.14 245.68,-151.37 248.5,-144.96"/>
</a>
</g>
<g id="a_edge46&#45;headlabel"><a xlink:href="dir_000496_000074.html" target="_top" xlink:title="2">
<text text-anchor="middle" x="251.55" y="-139.33" font-family="Helvetica,sans-Serif" font-size="10.00" fill="#63b8ff">2</text>
</a>
</g>
</g>
<!-- dir_b6c875632944d243a548db157cd77ec2&#45;&gt;dir_9be0baa3d4a3e9f480a9ee70594037fa -->
<g id="edge44" class="edge">
<title>dir_b6c875632944d243a548db157cd77ec2&#45;&gt;dir_9be0baa3d4a3e9f480a9ee70594037fa</title>
<g id="a_edge44"><a xlink:href="dir_000496_000212.html" target="_top">
<path fill="none" stroke="#63b8ff" d="M344.64,-181.5C347.82,-164.25 354.9,-125.83 359.28,-102.06"/>
<polygon fill="#63b8ff" stroke="#63b8ff" points="362.7,-102.83 361.07,-92.37 355.81,-101.56 362.7,-102.83"/>
</a>
</g>
<g id="a_edge44&#45;headlabel"><a xlink:href="dir_000496_000212.html" target="_top" xlink:title="132">
<text text-anchor="middle" x="365.11" y="-101.52" font-family="Helvetica,sans-Serif" font-size="10.00" fill="#63b8ff">132</text>
</a>
</g>
</g>
<!-- dir_b6c875632944d243a548db157cd77ec2&#45;&gt;dir_bdd9a5d540de89e9fe90efdfc6973a4f -->
<g id="edge45" class="edge">
<title>dir_b6c875632944d243a548db157cd77ec2&#45;&gt;dir_bdd9a5d540de89e9fe90efdfc6973a4f</title>
<g id="a_edge45"><a xlink:href="dir_000496_000042.html" target="_top">
<path fill="none" stroke="#63b8ff" d="M359.1,-188.7C376.01,-186.95 403.37,-184.13 427,-181.75 467.44,-177.67 763.71,-175.87 791,-145.75 813.23,-121.21 802.23,-102.4 791,-71.25 787.27,-60.91 779.98,-51.26 772.86,-43.61"/>
<polygon fill="#63b8ff" stroke="#63b8ff" points="775.43,-41.23 765.86,-36.68 770.5,-46.2 775.43,-41.23"/>
</a>
</g>
<g id="a_edge45&#45;headlabel"><a xlink:href="dir_000496_000042.html" target="_top" xlink:title="7">
<text text-anchor="middle" x="778.91" y="-36.8" font-family="Helvetica,sans-Serif" font-size="10.00" fill="#63b8ff">7</text>
</a>
</g>
</g>
</g>
</svg>
