<?xml version="1.0" encoding="UTF-8" standalone="no"?>
<!DOCTYPE svg PUBLIC "-//W3C//DTD SVG 1.1//EN"
 "http://www.w3.org/Graphics/SVG/1.1/DTD/svg11.dtd">
<!-- Generated by graphviz version 12.2.0 (20241103.1931)
 -->
<!-- Title: iop/debug Pages: 1 -->
<svg width="415pt" height="197pt"
 viewBox="0.00 0.00 414.75 197.00" xmlns="http://www.w3.org/2000/svg" xmlns:xlink="http://www.w3.org/1999/xlink">

<svg id="main" version="1.1" xmlns="http://www.w3.org/2000/svg" xmlns:xlink="http://www.w3.org/1999/xlink" xml:space="preserve">

<style type="text/css"><![CDATA[
.node, .edge {opacity: 0.7;}
.node.selected, .edge.selected {opacity: 1;}
.edge:hover path { stroke: red; }
.edge:hover polygon { stroke: red; fill: red; }
]]></style>
<script type="application/ecmascript" xlink:href="svg.min.js"/>
<svg id="graph" class="graph">
<g id="graph0" class="graph" transform="scale(1 1) rotate(0) translate(4 193)">
<title>iop/debug</title>
<g id="clust1" class="cluster">
<title>clusterdir_0981ace215aa2029f526b70c145b9fbe</title>
<g id="a_clust1"><a xlink:href="dir_0981ace215aa2029f526b70c145b9fbe.html" target="_top" xlink:title="iop">
<polygon fill="#deebf9" stroke="#404040" stroke-dasharray="5,2" points="8,-8 8,-181 345,-181 345,-8 8,-8"/>
<text text-anchor="middle" x="176.5" y="-167.5" font-family="Helvetica,sans-Serif" font-size="10.00">iop</text>
</a>
</g>
</g>
<g id="clust2" class="cluster">
<title>clusterdir_8494d76ae2586079db82d45fe3dd6aec</title>
<g id="a_clust2"><a xlink:href="dir_8494d76ae2586079db82d45fe3dd6aec.html" target="_top">
<polygon fill="#deebf9" stroke="#404040" stroke-width="2" points="16,-63.25 16,-153.75 337,-153.75 337,-63.25 16,-63.25"/>
</a>
</g>
</g>
<!-- dir_9be0baa3d4a3e9f480a9ee70594037fa -->
<g id="node1" class="node">
<title>dir_9be0baa3d4a3e9f480a9ee70594037fa</title>
<g id="a_node1"><a xlink:href="dir_9be0baa3d4a3e9f480a9ee70594037fa.html" target="_top" xlink:title="kernel">
<polygon fill="#60a2e3" stroke="red" points="213.12,-35.25 170.88,-35.25 170.88,-16 213.12,-16 213.12,-35.25"/>
<text text-anchor="middle" x="192" y="-21.75" font-family="Helvetica,sans-Serif" font-size="10.00">kernel</text>
</a>
</g>
</g>
<!-- dir_8494d76ae2586079db82d45fe3dd6aec -->
<g id="node2" class="node">
<title>dir_8494d76ae2586079db82d45fe3dd6aec</title>
<text text-anchor="middle" x="45" y="-132.25" font-family="Helvetica,sans-Serif" font-size="10.00">debug</text>
</g>
<!-- dir_2f080771f6205bbf07c3b5e6545bd3fa -->
<g id="node3" class="node">
<title>dir_2f080771f6205bbf07c3b5e6545bd3fa</title>
<g id="a_node3"><a xlink:href="dir_2f080771f6205bbf07c3b5e6545bd3fa.html" target="_top" xlink:title="iop_sbusdbg">
<polygon fill="#60a2e3" stroke="#404040" points="218.38,-145.75 147.62,-145.75 147.62,-126.5 218.38,-126.5 218.38,-145.75"/>
<text text-anchor="middle" x="183" y="-132.25" font-family="Helvetica,sans-Serif" font-size="10.00">iop_sbusdbg</text>
</a>
</g>
</g>
<!-- dir_2f080771f6205bbf07c3b5e6545bd3fa&#45;&gt;dir_9be0baa3d4a3e9f480a9ee70594037fa -->
<g id="edge2" class="edge">
<title>dir_2f080771f6205bbf07c3b5e6545bd3fa&#45;&gt;dir_9be0baa3d4a3e9f480a9ee70594037fa</title>
<g id="a_edge2"><a xlink:href="dir_000206_000212.html" target="_top">
<path fill="none" stroke="#63b8ff" d="M183.26,-126.26C183.72,-112.67 184.83,-85.89 187,-63.25 187.51,-57.93 188.22,-52.2 188.94,-46.88"/>
<polygon fill="#63b8ff" stroke="#63b8ff" points="192.38,-47.53 190.35,-37.13 185.45,-46.53 192.38,-47.53"/>
</a>
</g>
<g id="a_edge2&#45;headlabel"><a xlink:href="dir_000206_000212.html" target="_top" xlink:title="30">
<text text-anchor="middle" x="194.9" y="-46.12" font-family="Helvetica,sans-Serif" font-size="10.00" fill="#63b8ff">30</text>
</a>
</g>
</g>
<!-- dir_b128a11f24e38182ade4e9889f6c5833 -->
<g id="node4" class="node">
<title>dir_b128a11f24e38182ade4e9889f6c5833</title>
<g id="a_node4"><a xlink:href="dir_b128a11f24e38182ade4e9889f6c5833.html" target="_top" xlink:title="iopdebug">
<polygon fill="#60a2e3" stroke="#404040" points="286.5,-90.5 231.5,-90.5 231.5,-71.25 286.5,-71.25 286.5,-90.5"/>
<text text-anchor="middle" x="259" y="-77" font-family="Helvetica,sans-Serif" font-size="10.00">iopdebug</text>
</a>
</g>
</g>
<!-- dir_2f080771f6205bbf07c3b5e6545bd3fa&#45;&gt;dir_b128a11f24e38182ade4e9889f6c5833 -->
<g id="edge3" class="edge">
<title>dir_2f080771f6205bbf07c3b5e6545bd3fa&#45;&gt;dir_b128a11f24e38182ade4e9889f6c5833</title>
<g id="a_edge3"><a xlink:href="dir_000206_000207.html" target="_top">
<path fill="none" stroke="#63b8ff" d="M195.89,-126.09C207.03,-118.29 223.37,-106.84 236.64,-97.54"/>
<polygon fill="#63b8ff" stroke="#63b8ff" points="238.62,-100.43 244.8,-91.82 234.61,-94.69 238.62,-100.43"/>
</a>
</g>
<g id="a_edge3&#45;headlabel"><a xlink:href="dir_000206_000207.html" target="_top" xlink:title="4">
<text text-anchor="middle" x="238.55" y="-100.07" font-family="Helvetica,sans-Serif" font-size="10.00" fill="#63b8ff">4</text>
</a>
</g>
</g>
<!-- dir_bdd9a5d540de89e9fe90efdfc6973a4f -->
<g id="node8" class="node">
<title>dir_bdd9a5d540de89e9fe90efdfc6973a4f</title>
<g id="a_node8"><a xlink:href="dir_bdd9a5d540de89e9fe90efdfc6973a4f.html" target="_top" xlink:title="common">
<polygon fill="#deebf9" stroke="red" points="406.75,-35.25 353.25,-35.25 353.25,-16 406.75,-16 406.75,-35.25"/>
<text text-anchor="middle" x="380" y="-21.75" font-family="Helvetica,sans-Serif" font-size="10.00">common</text>
</a>
</g>
</g>
<!-- dir_2f080771f6205bbf07c3b5e6545bd3fa&#45;&gt;dir_bdd9a5d540de89e9fe90efdfc6973a4f -->
<g id="edge1" class="edge">
<title>dir_2f080771f6205bbf07c3b5e6545bd3fa&#45;&gt;dir_bdd9a5d540de89e9fe90efdfc6973a4f</title>
<g id="a_edge1"><a xlink:href="dir_000206_000042.html" target="_top">
<path fill="none" stroke="#63b8ff" d="M212.97,-126.16C236.46,-118.47 269.48,-106.15 296,-90.5 312.38,-80.83 313.93,-74.86 329,-63.25 338.16,-56.19 348.48,-48.69 357.44,-42.33"/>
<polygon fill="#63b8ff" stroke="#63b8ff" points="359.43,-45.21 365.59,-36.59 355.4,-39.49 359.43,-45.21"/>
</a>
</g>
<g id="a_edge1&#45;headlabel"><a xlink:href="dir_000206_000042.html" target="_top" xlink:title="12">
<text text-anchor="middle" x="359.36" y="-44.86" font-family="Helvetica,sans-Serif" font-size="10.00" fill="#63b8ff">12</text>
</a>
</g>
</g>
<!-- dir_b128a11f24e38182ade4e9889f6c5833&#45;&gt;dir_9be0baa3d4a3e9f480a9ee70594037fa -->
<g id="edge4" class="edge">
<title>dir_b128a11f24e38182ade4e9889f6c5833&#45;&gt;dir_9be0baa3d4a3e9f480a9ee70594037fa</title>
<g id="a_edge4"><a xlink:href="dir_000207_000212.html" target="_top">
<path fill="none" stroke="#63b8ff" d="M247.63,-70.84C237.95,-63.15 223.8,-51.9 212.19,-42.68"/>
<polygon fill="#63b8ff" stroke="#63b8ff" points="214.39,-39.95 204.38,-36.47 210.03,-45.43 214.39,-39.95"/>
</a>
</g>
<g id="a_edge4&#45;headlabel"><a xlink:href="dir_000207_000212.html" target="_top" xlink:title="18">
<text text-anchor="middle" x="217.78" y="-35.15" font-family="Helvetica,sans-Serif" font-size="10.00" fill="#63b8ff">18</text>
</a>
</g>
</g>
<!-- dir_b128a11f24e38182ade4e9889f6c5833&#45;&gt;dir_bdd9a5d540de89e9fe90efdfc6973a4f -->
<g id="edge5" class="edge">
<title>dir_b128a11f24e38182ade4e9889f6c5833&#45;&gt;dir_bdd9a5d540de89e9fe90efdfc6973a4f</title>
<g id="a_edge5"><a xlink:href="dir_000207_000042.html" target="_top">
<path fill="none" stroke="#63b8ff" d="M279.53,-70.84C298.56,-62.47 327.15,-49.88 348.97,-40.28"/>
<polygon fill="#63b8ff" stroke="#63b8ff" points="350.24,-43.54 357.99,-36.31 347.43,-37.14 350.24,-43.54"/>
</a>
</g>
<g id="a_edge5&#45;headlabel"><a xlink:href="dir_000207_000042.html" target="_top" xlink:title="7">
<text text-anchor="middle" x="349.48" y="-43.11" font-family="Helvetica,sans-Serif" font-size="10.00" fill="#63b8ff">7</text>
</a>
</g>
</g>
<!-- dir_43255a50c3a5642889795edf08bb8408 -->
<g id="node5" class="node">
<title>dir_43255a50c3a5642889795edf08bb8408</title>
<g id="a_node5"><a xlink:href="dir_43255a50c3a5642889795edf08bb8408.html" target="_top" xlink:title="ioptrap">
<polygon fill="#60a2e3" stroke="#404040" points="129.62,-145.75 84.38,-145.75 84.38,-126.5 129.62,-126.5 129.62,-145.75"/>
<text text-anchor="middle" x="107" y="-132.25" font-family="Helvetica,sans-Serif" font-size="10.00">ioptrap</text>
</a>
</g>
</g>
<!-- dir_43255a50c3a5642889795edf08bb8408&#45;&gt;dir_9be0baa3d4a3e9f480a9ee70594037fa -->
<g id="edge6" class="edge">
<title>dir_43255a50c3a5642889795edf08bb8408&#45;&gt;dir_9be0baa3d4a3e9f480a9ee70594037fa</title>
<g id="a_edge6"><a xlink:href="dir_000210_000212.html" target="_top">
<path fill="none" stroke="#63b8ff" d="M113.96,-126.25C127.9,-108.44 159.52,-68.08 177.95,-44.56"/>
<polygon fill="#63b8ff" stroke="#63b8ff" points="180.6,-46.85 184.01,-36.82 175.09,-42.53 180.6,-46.85"/>
</a>
</g>
<g id="a_edge6&#45;headlabel"><a xlink:href="dir_000210_000212.html" target="_top" xlink:title="15">
<text text-anchor="middle" x="181.55" y="-46.36" font-family="Helvetica,sans-Serif" font-size="10.00" fill="#63b8ff">15</text>
</a>
</g>
</g>
<!-- dir_d3ded9369ca517f344f23b4db50242ea -->
<g id="node6" class="node">
<title>dir_d3ded9369ca517f344f23b4db50242ea</title>
<g id="a_node6"><a xlink:href="dir_d3ded9369ca517f344f23b4db50242ea.html" target="_top" xlink:title="ppctty">
<polygon fill="#60a2e3" stroke="#404040" points="279.12,-145.75 236.88,-145.75 236.88,-126.5 279.12,-126.5 279.12,-145.75"/>
<text text-anchor="middle" x="258" y="-132.25" font-family="Helvetica,sans-Serif" font-size="10.00">ppctty</text>
</a>
</g>
</g>
<!-- dir_d3ded9369ca517f344f23b4db50242ea&#45;&gt;dir_9be0baa3d4a3e9f480a9ee70594037fa -->
<g id="edge7" class="edge">
<title>dir_d3ded9369ca517f344f23b4db50242ea&#45;&gt;dir_9be0baa3d4a3e9f480a9ee70594037fa</title>
<g id="a_edge7"><a xlink:href="dir_000262_000212.html" target="_top">
<path fill="none" stroke="#63b8ff" d="M243.69,-126.29C232.04,-118.35 216.09,-105.62 207,-90.5 198.99,-77.18 195.26,-59.92 193.52,-46.7"/>
<polygon fill="#63b8ff" stroke="#63b8ff" points="197.03,-46.63 192.54,-37.03 190.07,-47.33 197.03,-46.63"/>
</a>
</g>
<g id="a_edge7&#45;headlabel"><a xlink:href="dir_000262_000212.html" target="_top" xlink:title="19">
<text text-anchor="middle" x="200.07" y="-44.54" font-family="Helvetica,sans-Serif" font-size="10.00" fill="#63b8ff">19</text>
</a>
</g>
</g>
<!-- dir_d3ded9369ca517f344f23b4db50242ea&#45;&gt;dir_bdd9a5d540de89e9fe90efdfc6973a4f -->
<g id="edge8" class="edge">
<title>dir_d3ded9369ca517f344f23b4db50242ea&#45;&gt;dir_bdd9a5d540de89e9fe90efdfc6973a4f</title>
<g id="a_edge8"><a xlink:href="dir_000262_000042.html" target="_top">
<path fill="none" stroke="#63b8ff" d="M275.76,-126.15C290.85,-118.04 312.6,-105.15 329,-90.5 344.18,-76.94 358.36,-58.52 367.9,-44.95"/>
<polygon fill="#63b8ff" stroke="#63b8ff" points="370.63,-47.16 373.37,-36.92 364.84,-43.21 370.63,-47.16"/>
</a>
</g>
<g id="a_edge8&#45;headlabel"><a xlink:href="dir_000262_000042.html" target="_top" xlink:title="4">
<text text-anchor="middle" x="371.8" y="-46.6" font-family="Helvetica,sans-Serif" font-size="10.00" fill="#63b8ff">4</text>
</a>
</g>
</g>
<!-- dir_1019ee746f7ebb462d4ffdfca40dcd8c -->
<g id="node7" class="node">
<title>dir_1019ee746f7ebb462d4ffdfca40dcd8c</title>
<g id="a_node7"><a xlink:href="dir_1019ee746f7ebb462d4ffdfca40dcd8c.html" target="_top" xlink:title="sior">
<polygon fill="#60a2e3" stroke="#404040" points="328.88,-145.75 297.12,-145.75 297.12,-126.5 328.88,-126.5 328.88,-145.75"/>
<text text-anchor="middle" x="313" y="-132.25" font-family="Helvetica,sans-Serif" font-size="10.00">sior</text>
</a>
</g>
</g>
<!-- dir_1019ee746f7ebb462d4ffdfca40dcd8c&#45;&gt;dir_9be0baa3d4a3e9f480a9ee70594037fa -->
<g id="edge9" class="edge">
<title>dir_1019ee746f7ebb462d4ffdfca40dcd8c&#45;&gt;dir_9be0baa3d4a3e9f480a9ee70594037fa</title>
<g id="a_edge9"><a xlink:href="dir_000290_000212.html" target="_top">
<path fill="none" stroke="#63b8ff" d="M296.84,-128.61C274.06,-119.18 234.05,-101.65 223,-90.5 216.37,-83.81 206.6,-62.33 199.81,-46.11"/>
<polygon fill="#63b8ff" stroke="#63b8ff" points="203.07,-44.85 196.05,-36.92 196.59,-47.5 203.07,-44.85"/>
</a>
</g>
<g id="a_edge9&#45;headlabel"><a xlink:href="dir_000290_000212.html" target="_top" xlink:title="11">
<text text-anchor="middle" x="206.49" y="-41.82" font-family="Helvetica,sans-Serif" font-size="10.00" fill="#63b8ff">11</text>
</a>
</g>
</g>
<!-- dir_1019ee746f7ebb462d4ffdfca40dcd8c&#45;&gt;dir_bdd9a5d540de89e9fe90efdfc6973a4f -->
<g id="edge10" class="edge">
<title>dir_1019ee746f7ebb462d4ffdfca40dcd8c&#45;&gt;dir_bdd9a5d540de89e9fe90efdfc6973a4f</title>
<g id="a_edge10"><a xlink:href="dir_000290_000042.html" target="_top">
<path fill="none" stroke="#63b8ff" d="M329.03,-126.08C341.36,-118.27 357.8,-105.83 367,-90.5 374.94,-77.26 378.11,-60 379.34,-46.75"/>
<polygon fill="#63b8ff" stroke="#63b8ff" points="382.82,-47.26 379.92,-37.06 375.83,-46.84 382.82,-47.26"/>
</a>
</g>
<g id="a_edge10&#45;headlabel"><a xlink:href="dir_000290_000042.html" target="_top" xlink:title="2">
<text text-anchor="middle" x="385.52" y="-45.63" font-family="Helvetica,sans-Serif" font-size="10.00" fill="#63b8ff">2</text>
</a>
</g>
</g>
</g>
</svg>
</svg>

<style type='text/css'>
<![CDATA[
[data-mouse-over-selected='false'] { opacity: 0.7; }
[data-mouse-over-selected='true']  { opacity: 1.0; }
]]>
</style>
<script type="application/ecmascript"><![CDATA[
document.addEventListener('DOMContentLoaded', (event) => {
  highlightEdges();
  highlightAdjacentNodes();
});
]]></script>
</svg>
