<?xml version="1.0" encoding="UTF-8" standalone="no"?>
<!DOCTYPE svg PUBLIC "-//W3C//DTD SVG 1.1//EN"
 "http://www.w3.org/Graphics/SVG/1.1/DTD/svg11.dtd">
<!-- Generated by graphviz version 12.2.0 (20241103.1931)
 -->
<!-- Title: tools Pages: 1 -->
<!--zoomable 99 -->

<svg id="main" version="1.1" xmlns="http://www.w3.org/2000/svg" xmlns:xlink="http://www.w3.org/1999/xlink" xml:space="preserve" onload="init(evt)">

<style type="text/css"><![CDATA[
.node, .edge {opacity: 0.7;}
.node.selected, .edge.selected {opacity: 1;}
.edge:hover path { stroke: red; }
.edge:hover polygon { stroke: red; fill: red; }
]]></style>

<defs>
  <circle id="rim" cx="0" cy="0" r="7"/>
  <circle id="rim2" cx="0" cy="0" r="3.5"/>
  <g id="zoomPlus">
    <use xlink:href="#rim" fill="#404040"><set attributeName="fill" to="#808080" begin="zoomplus.mouseover" end="zoomplus.mouseout"/></use>
    <path d="M-4,0h8M0,-4v8" fill="none" stroke="white" stroke-width="1.5" pointer-events="none"/>
  </g>
  <g id="zoomMin">
    <use xlink:href="#rim" fill="#404040"><set attributeName="fill" to="#808080" begin="zoomminus.mouseover" end="zoomminus.mouseout"/></use>
    <path d="M-4,0h8" fill="none" stroke="white" stroke-width="1.5" pointer-events="none"/>
  </g>
  <g id="arrowUp" transform="translate(30 24)">
    <use xlink:href="#rim"/>
    <path pointer-events="none" fill="none" stroke="white" stroke-width="1.5" d="M0,-3.0v7 M-2.5,-0.5L0,-3.0L2.5,-0.5"/>
  </g>
  <g id="arrowRight" transform="rotate(90) translate(36 -43)">
    <use xlink:href="#rim"/>
    <path pointer-events="none" fill="none" stroke="white" stroke-width="1.5" d="M0,-3.0v7 M-2.5,-0.5L0,-3.0L2.5,-0.5"/>
  </g>
  <g id="arrowDown" transform="rotate(180) translate(-30 -48)">
    <use xlink:href="#rim"/>
    <path pointer-events="none" fill="none" stroke="white" stroke-width="1.5" d="M0,-3.0v7 M-2.5,-0.5L0,-3.0L2.5,-0.5"/>
  </g>
  <g id="arrowLeft" transform="rotate(270) translate(-36 17)">
    <use xlink:href="#rim"/>
    <path pointer-events="none" fill="none" stroke="white" stroke-width="1.5" d="M0,-3.0v7 M-2.5,-0.5L0,-3.0L2.5,-0.5"/>
  </g>
  <g id="resetDef">
    <use xlink:href="#rim2" fill="#404040"><set attributeName="fill" to="#808080" begin="reset.mouseover" end="reset.mouseout"/></use>
  </g>
</defs>
<script type="application/ecmascript">
var viewWidth = 506;
var viewHeight = 99;
var sectionId = 'dynsection-0';
</script>
<script type="application/ecmascript" xlink:href="svg.min.js"/>
<svg id="graph" class="graph">
<g id="viewport">
<title>tools</title>
<g id="clust1" class="cluster">
<title>clusterdir_4eeb864c4eec08c7d6b9d3b0352cfdde</title>
<g id="a_clust1"><a xlink:href="dir_4eeb864c4eec08c7d6b9d3b0352cfdde.html" target="_top">
<polygon fill="#deebf9" stroke="#404040" stroke-width="2" points="8,-47.25 8,-82.5 490,-82.5 490,-47.25 8,-47.25"/>
</a>
</g>
</g>
<!-- dir_4eeb864c4eec08c7d6b9d3b0352cfdde -->
<g id="node1" class="node">
<title>dir_4eeb864c4eec08c7d6b9d3b0352cfdde</title>
<text text-anchor="middle" x="35" y="-61" font-family="Helvetica,sans-Serif" font-size="10.00">tools</text>
</g>
<!-- dir_7ae3e066c48cbf1e456bf7b5af53fbfa -->
<g id="node2" class="node">
<title>dir_7ae3e066c48cbf1e456bf7b5af53fbfa</title>
<g id="a_node2"><a xlink:href="dir_7ae3e066c48cbf1e456bf7b5af53fbfa.html" target="_top" xlink:title="adpenc">
<polygon fill="#60a2e3" stroke="#404040" points="321.75,-74.5 274.25,-74.5 274.25,-55.25 321.75,-55.25 321.75,-74.5"/>
<text text-anchor="middle" x="298" y="-61" font-family="Helvetica,sans-Serif" font-size="10.00">adpenc</text>
</a>
</g>
</g>
<!-- dir_0981ace215aa2029f526b70c145b9fbe -->
<g id="node8" class="node">
<title>dir_0981ace215aa2029f526b70c145b9fbe</title>
<g id="a_node8"><a xlink:href="dir_0981ace215aa2029f526b70c145b9fbe.html" target="_top" xlink:title="iop">
<polygon fill="#deebf9" stroke="red" points="281.4,-19.25 252.6,-19.25 252.6,0 281.4,0 281.4,-19.25"/>
<text text-anchor="middle" x="267" y="-5.75" font-family="Helvetica,sans-Serif" font-size="10.00">iop</text>
</a>
</g>
</g>
<!-- dir_7ae3e066c48cbf1e456bf7b5af53fbfa&#45;&gt;dir_0981ace215aa2029f526b70c145b9fbe -->
<g id="edge1" class="edge">
<title>dir_7ae3e066c48cbf1e456bf7b5af53fbfa&#45;&gt;dir_0981ace215aa2029f526b70c145b9fbe</title>
<g id="a_edge1"><a xlink:href="dir_000020_000231.html" target="_top">
<path fill="none" stroke="#63b8ff" d="M292.88,-55.08C288.82,-48.11 283.01,-38.12 277.91,-29.37"/>
<polygon fill="#63b8ff" stroke="#63b8ff" points="281.05,-27.8 272.99,-20.92 275,-31.32 281.05,-27.8"/>
</a>
</g>
<g id="a_edge1&#45;headlabel"><a xlink:href="dir_000020_000231.html" target="_top" xlink:title="4">
<text text-anchor="middle" x="284.55" y="-24.29" font-family="Helvetica,sans-Serif" font-size="10.00" fill="#63b8ff">4</text>
</a>
</g>
</g>
<!-- dir_bdd9a5d540de89e9fe90efdfc6973a4f -->
<g id="node9" class="node">
<title>dir_bdd9a5d540de89e9fe90efdfc6973a4f</title>
<g id="a_node9"><a xlink:href="dir_bdd9a5d540de89e9fe90efdfc6973a4f.html" target="_top" xlink:title="common">
<polygon fill="#deebf9" stroke="red" points="355.75,-19.25 302.25,-19.25 302.25,0 355.75,0 355.75,-19.25"/>
<text text-anchor="middle" x="329" y="-5.75" font-family="Helvetica,sans-Serif" font-size="10.00">common</text>
</a>
</g>
</g>
<!-- dir_7ae3e066c48cbf1e456bf7b5af53fbfa&#45;&gt;dir_bdd9a5d540de89e9fe90efdfc6973a4f -->
<g id="edge2" class="edge">
<title>dir_7ae3e066c48cbf1e456bf7b5af53fbfa&#45;&gt;dir_bdd9a5d540de89e9fe90efdfc6973a4f</title>
<g id="a_edge2"><a xlink:href="dir_000020_000045.html" target="_top">
<path fill="none" stroke="#63b8ff" d="M303.12,-55.08C307.18,-48.11 312.99,-38.12 318.09,-29.37"/>
<polygon fill="#63b8ff" stroke="#63b8ff" points="321,-31.32 323.01,-20.92 314.95,-27.8 321,-31.32"/>
</a>
</g>
<g id="a_edge2&#45;headlabel"><a xlink:href="dir_000020_000045.html" target="_top" xlink:title="2">
<text text-anchor="middle" x="322.41" y="-30.67" font-family="Helvetica,sans-Serif" font-size="10.00" fill="#63b8ff">2</text>
</a>
</g>
</g>
<!-- dir_4aa7630bf94b1e948c1a72cd18b9557b -->
<g id="node3" class="node">
<title>dir_4aa7630bf94b1e948c1a72cd18b9557b</title>
<g id="a_node3"><a xlink:href="dir_4aa7630bf94b1e948c1a72cd18b9557b.html" target="_top" xlink:title="bin2c">
<polygon fill="#60a2e3" stroke="#404040" points="189.62,-74.5 150.38,-74.5 150.38,-55.25 189.62,-55.25 189.62,-74.5"/>
<text text-anchor="middle" x="170" y="-61" font-family="Helvetica,sans-Serif" font-size="10.00">bin2c</text>
</a>
</g>
</g>
<!-- dir_4aa7630bf94b1e948c1a72cd18b9557b&#45;&gt;dir_0981ace215aa2029f526b70c145b9fbe -->
<g id="edge3" class="edge">
<title>dir_4aa7630bf94b1e948c1a72cd18b9557b&#45;&gt;dir_0981ace215aa2029f526b70c145b9fbe</title>
<g id="a_edge3"><a xlink:href="dir_000035_000231.html" target="_top">
<path fill="none" stroke="#63b8ff" d="M185.61,-54.83C189.93,-52.35 194.64,-49.67 199,-47.25 213.28,-39.31 229.38,-30.63 242.32,-23.71"/>
<polygon fill="#63b8ff" stroke="#63b8ff" points="243.83,-26.88 251.01,-19.08 240.54,-20.7 243.83,-26.88"/>
</a>
</g>
<g id="a_edge3&#45;headlabel"><a xlink:href="dir_000035_000231.html" target="_top" xlink:title="1">
<text text-anchor="middle" x="243.33" y="-26.48" font-family="Helvetica,sans-Serif" font-size="10.00" fill="#63b8ff">1</text>
</a>
</g>
</g>
<!-- dir_2feef82756d5481f2e3fcf626f1975a7 -->
<g id="node4" class="node">
<title>dir_2feef82756d5481f2e3fcf626f1975a7</title>
<g id="a_node4"><a xlink:href="dir_2feef82756d5481f2e3fcf626f1975a7.html" target="_top" xlink:title="gensymtab">
<polygon fill="#60a2e3" stroke="#404040" points="402.62,-74.5 339.38,-74.5 339.38,-55.25 402.62,-55.25 402.62,-74.5"/>
<text text-anchor="middle" x="371" y="-61" font-family="Helvetica,sans-Serif" font-size="10.00">gensymtab</text>
</a>
</g>
</g>
<!-- dir_2feef82756d5481f2e3fcf626f1975a7&#45;&gt;dir_0981ace215aa2029f526b70c145b9fbe -->
<g id="edge4" class="edge">
<title>dir_2feef82756d5481f2e3fcf626f1975a7&#45;&gt;dir_0981ace215aa2029f526b70c145b9fbe</title>
<g id="a_edge4"><a xlink:href="dir_000081_000231.html" target="_top">
<path fill="none" stroke="#63b8ff" d="M353.36,-54.84C336.42,-46.17 310.68,-32.99 291.71,-23.27"/>
<polygon fill="#63b8ff" stroke="#63b8ff" points="293.54,-20.28 283.04,-18.84 290.35,-26.51 293.54,-20.28"/>
</a>
</g>
<g id="a_edge4&#45;headlabel"><a xlink:href="dir_000081_000231.html" target="_top" xlink:title="1">
<text text-anchor="middle" x="296.69" y="-14.83" font-family="Helvetica,sans-Serif" font-size="10.00" fill="#63b8ff">1</text>
</a>
</g>
</g>
<!-- dir_2feef82756d5481f2e3fcf626f1975a7&#45;&gt;dir_bdd9a5d540de89e9fe90efdfc6973a4f -->
<g id="edge5" class="edge">
<title>dir_2feef82756d5481f2e3fcf626f1975a7&#45;&gt;dir_bdd9a5d540de89e9fe90efdfc6973a4f</title>
<g id="a_edge5"><a xlink:href="dir_000081_000045.html" target="_top">
<path fill="none" stroke="#63b8ff" d="M364.06,-55.08C358.38,-47.88 350.16,-37.46 343.11,-28.51"/>
<polygon fill="#63b8ff" stroke="#63b8ff" points="345.96,-26.48 337.02,-20.8 340.47,-30.82 345.96,-26.48"/>
</a>
</g>
<g id="a_edge5&#45;headlabel"><a xlink:href="dir_000081_000045.html" target="_top" xlink:title="1">
<text text-anchor="middle" x="349.48" y="-22.48" font-family="Helvetica,sans-Serif" font-size="10.00" fill="#63b8ff">1</text>
</a>
</g>
</g>
<!-- dir_92da0d7cbf784bf8c518f9b82538e0f7 -->
<g id="node5" class="node">
<title>dir_92da0d7cbf784bf8c518f9b82538e0f7</title>
<g id="a_node5"><a xlink:href="dir_92da0d7cbf784bf8c518f9b82538e0f7.html" target="_top" xlink:title="ps2&#45;irxgen">
<polygon fill="#60a2e3" stroke="#404040" points="132.12,-74.5 71.88,-74.5 71.88,-55.25 132.12,-55.25 132.12,-74.5"/>
<text text-anchor="middle" x="102" y="-61" font-family="Helvetica,sans-Serif" font-size="10.00">ps2&#45;irxgen</text>
</a>
</g>
</g>
<!-- dir_92da0d7cbf784bf8c518f9b82538e0f7&#45;&gt;dir_0981ace215aa2029f526b70c145b9fbe -->
<g id="edge6" class="edge">
<title>dir_92da0d7cbf784bf8c518f9b82538e0f7&#45;&gt;dir_0981ace215aa2029f526b70c145b9fbe</title>
<g id="a_edge6"><a xlink:href="dir_000289_000231.html" target="_top">
<path fill="none" stroke="#63b8ff" d="M122.06,-54.78C128.09,-52.19 134.76,-49.48 141,-47.25 175.26,-35.02 215.81,-23.79 241.47,-17.08"/>
<polygon fill="#63b8ff" stroke="#63b8ff" points="242.19,-20.51 250.99,-14.62 240.44,-13.73 242.19,-20.51"/>
</a>
</g>
<g id="a_edge6&#45;headlabel"><a xlink:href="dir_000289_000231.html" target="_top" xlink:title="2">
<text text-anchor="middle" x="240.88" y="-19.91" font-family="Helvetica,sans-Serif" font-size="10.00" fill="#63b8ff">2</text>
</a>
</g>
</g>
<!-- dir_47818b46b1cf08114dcb647bd070ea80 -->
<g id="node6" class="node">
<title>dir_47818b46b1cf08114dcb647bd070ea80</title>
<g id="a_node6"><a xlink:href="dir_47818b46b1cf08114dcb647bd070ea80.html" target="_top" xlink:title="ps2adpcm">
<polygon fill="#60a2e3" stroke="#404040" points="481.5,-74.5 420.5,-74.5 420.5,-55.25 481.5,-55.25 481.5,-74.5"/>
<text text-anchor="middle" x="451" y="-61" font-family="Helvetica,sans-Serif" font-size="10.00">ps2adpcm</text>
</a>
</g>
</g>
<!-- dir_47818b46b1cf08114dcb647bd070ea80&#45;&gt;dir_0981ace215aa2029f526b70c145b9fbe -->
<g id="edge7" class="edge">
<title>dir_47818b46b1cf08114dcb647bd070ea80&#45;&gt;dir_0981ace215aa2029f526b70c145b9fbe</title>
<g id="a_edge7"><a xlink:href="dir_000290_000231.html" target="_top">
<path fill="none" stroke="#63b8ff" d="M431.81,-54.92C425.58,-52.22 418.57,-49.41 412,-47.25 360.37,-30.31 345.28,-34.04 293,-19.25 292.89,-19.22 292.77,-19.19 292.66,-19.15"/>
<polygon fill="#63b8ff" stroke="#63b8ff" points="293.81,-15.85 283.22,-16.23 291.74,-22.53 293.81,-15.85"/>
</a>
</g>
<g id="a_edge7&#45;headlabel"><a xlink:href="dir_000290_000231.html" target="_top" xlink:title="2">
<text text-anchor="middle" x="296.64" y="-9.88" font-family="Helvetica,sans-Serif" font-size="10.00" fill="#63b8ff">2</text>
</a>
</g>
</g>
<!-- dir_47818b46b1cf08114dcb647bd070ea80&#45;&gt;dir_bdd9a5d540de89e9fe90efdfc6973a4f -->
<g id="edge8" class="edge">
<title>dir_47818b46b1cf08114dcb647bd070ea80&#45;&gt;dir_bdd9a5d540de89e9fe90efdfc6973a4f</title>
<g id="a_edge8"><a xlink:href="dir_000290_000045.html" target="_top">
<path fill="none" stroke="#63b8ff" d="M430.3,-54.84C411.11,-46.47 382.29,-33.88 360.28,-24.28"/>
<polygon fill="#63b8ff" stroke="#63b8ff" points="361.75,-21.1 351.18,-20.31 358.95,-27.52 361.75,-21.1"/>
</a>
</g>
<g id="a_edge8&#45;headlabel"><a xlink:href="dir_000290_000045.html" target="_top" xlink:title="1">
<text text-anchor="middle" x="364.79" y="-15.46" font-family="Helvetica,sans-Serif" font-size="10.00" fill="#63b8ff">1</text>
</a>
</g>
</g>
<!-- dir_7a9487a4ac2fac09687c40a3e41e5ece -->
<g id="node7" class="node">
<title>dir_7a9487a4ac2fac09687c40a3e41e5ece</title>
<g id="a_node7"><a xlink:href="dir_7a9487a4ac2fac09687c40a3e41e5ece.html" target="_top" xlink:title="romimg">
<polygon fill="#60a2e3" stroke="#404040" points="256.12,-74.5 207.88,-74.5 207.88,-55.25 256.12,-55.25 256.12,-74.5"/>
<text text-anchor="middle" x="232" y="-61" font-family="Helvetica,sans-Serif" font-size="10.00">romimg</text>
</a>
</g>
</g>
<!-- dir_7a9487a4ac2fac09687c40a3e41e5ece&#45;&gt;dir_0981ace215aa2029f526b70c145b9fbe -->
<g id="edge9" class="edge">
<title>dir_7a9487a4ac2fac09687c40a3e41e5ece&#45;&gt;dir_0981ace215aa2029f526b70c145b9fbe</title>
<g id="a_edge9"><a xlink:href="dir_000298_000231.html" target="_top">
<path fill="none" stroke="#63b8ff" d="M237.78,-55.08C242.41,-48.03 249.07,-37.9 254.87,-29.08"/>
<polygon fill="#63b8ff" stroke="#63b8ff" points="257.7,-31.15 260.26,-20.87 251.85,-27.31 257.7,-31.15"/>
</a>
</g>
<g id="a_edge9&#45;headlabel"><a xlink:href="dir_000298_000231.html" target="_top" xlink:title="7">
<text text-anchor="middle" x="258.93" y="-30.58" font-family="Helvetica,sans-Serif" font-size="10.00" fill="#63b8ff">7</text>
</a>
</g>
</g>
<!-- dir_7a9487a4ac2fac09687c40a3e41e5ece&#45;&gt;dir_bdd9a5d540de89e9fe90efdfc6973a4f -->
<g id="edge10" class="edge">
<title>dir_7a9487a4ac2fac09687c40a3e41e5ece&#45;&gt;dir_bdd9a5d540de89e9fe90efdfc6973a4f</title>
<g id="a_edge10"><a xlink:href="dir_000298_000045.html" target="_top">
<path fill="none" stroke="#63b8ff" d="M248.45,-54.84C263.23,-46.73 285.18,-34.68 302.43,-25.21"/>
<polygon fill="#63b8ff" stroke="#63b8ff" points="304.06,-28.31 311.14,-20.43 300.69,-22.18 304.06,-28.31"/>
</a>
</g>
<g id="a_edge10&#45;headlabel"><a xlink:href="dir_000298_000045.html" target="_top" xlink:title="4">
<text text-anchor="middle" x="303.6" y="-27.93" font-family="Helvetica,sans-Serif" font-size="10.00" fill="#63b8ff">4</text>
</a>
</g>
</g>
</g>
</svg>

<g id="navigator" transform="translate(0 0)" fill="#404254">
  <rect fill="#f2f5e9" fill-opacity="0.5" stroke="#606060" stroke-width=".5" x="0" y="0" width="60" height="60"/>
  <use id="zoomplus" xlink:href="#zoomPlus" x="17" y="9" onmousedown="handleZoom(evt,'in')"/>
  <use id="zoomminus" xlink:href="#zoomMin" x="42" y="9" onmousedown="handleZoom(evt,'out')"/>
  <use id="reset" xlink:href="#resetDef" x="30" y="36" onmousedown="handleReset()"/>
   <use id="arrowup" xlink:href="#arrowUp" x="0" y="0" onmousedown="handlePan(0,-1)"/>
  <use id="arrowright" xlink:href="#arrowRight" x="0" y="0" onmousedown="handlePan(1,0)"/>
  <use id="arrowdown" xlink:href="#arrowDown" x="0" y="0" onmousedown="handlePan(0,1)"/>
  <use id="arrowleft" xlink:href="#arrowLeft" x="0" y="0" onmousedown="handlePan(-1,0)"/>
</g>
<svg viewBox="0 0 15 15" width="100%" height="30px" preserveAspectRatio="xMaxYMin meet">
 <g id="arrow_out" transform="scale(0.3 0.3)">
  <a xlink:href="dir_4eeb864c4eec08c7d6b9d3b0352cfdde_dep_org.svg" target="_base">
   <rect id="button" ry="5" rx="5" y="6" x="6" height="38" width="38"
        fill="#f2f5e9" fill-opacity="0.5" stroke="#606060" stroke-width="1.0"/>
   <path id="arrow"
     d="M 11.500037,31.436501 C 11.940474,20.09759 22.043105,11.32322 32.158766,21.979434 L 37.068811,17.246167 C 37.068811,17.246167 37.088388,32 37.088388,32 L 22.160133,31.978069 C 22.160133,31.978069 26.997745,27.140456 26.997745,27.140456 C 18.528582,18.264221 13.291696,25.230495 11.500037,31.436501 z"
     style="fill:#404040;"/>
  </a>
 </g>
</svg>

<style type='text/css'>
<![CDATA[
[data-mouse-over-selected='false'] { opacity: 0.7; }
[data-mouse-over-selected='true']  { opacity: 1.0; }
]]>
</style>
<script type="application/ecmascript"><![CDATA[
document.addEventListener('DOMContentLoaded', (event) => {
  highlightEdges();
  highlightAdjacentNodes();
});
]]></script>
</svg>
