<?xml version="1.0" encoding="UTF-8" standalone="no"?>
<!DOCTYPE svg PUBLIC "-//W3C//DTD SVG 1.1//EN"
 "http://www.w3.org/Graphics/SVG/1.1/DTD/svg11.dtd">
<!-- Generated by graphviz version 12.2.0 (20241103.1931)
 -->
<!-- Title: iop/debug Pages: 1 -->
<svg width="415pt" height="197pt"
 viewBox="0.00 0.00 414.75 197.00" xmlns="http://www.w3.org/2000/svg" xmlns:xlink="http://www.w3.org/1999/xlink">
<g id="graph0" class="graph" transform="scale(1 1) rotate(0) translate(4 193)">
<title>iop/debug</title>
<g id="clust1" class="cluster">
<title>clusterdir_0981ace215aa2029f526b70c145b9fbe</title>
<g id="a_clust1"><a xlink:href="dir_0981ace215aa2029f526b70c145b9fbe.html" target="_top" xlink:title="iop">
<polygon fill="#deebf9" stroke="#404040" stroke-dasharray="5,2" points="8,-8 8,-181 345,-181 345,-8 8,-8"/>
<text text-anchor="middle" x="176.5" y="-167.5" font-family="Helvetica,sans-Serif" font-size="10.00">iop</text>
</a>
</g>
</g>
<g id="clust2" class="cluster">
<title>clusterdir_8494d76ae2586079db82d45fe3dd6aec</title>
<g id="a_clust2"><a xlink:href="dir_8494d76ae2586079db82d45fe3dd6aec.html" target="_top">
<polygon fill="#deebf9" stroke="#404040" stroke-width="2" points="16,-63.25 16,-153.75 337,-153.75 337,-63.25 16,-63.25"/>
</a>
</g>
</g>
<!-- dir_9be0baa3d4a3e9f480a9ee70594037fa -->
<g id="node1" class="node">
<title>dir_9be0baa3d4a3e9f480a9ee70594037fa</title>
<g id="a_node1"><a xlink:href="dir_9be0baa3d4a3e9f480a9ee70594037fa.html" target="_top" xlink:title="kernel">
<polygon fill="#60a2e3" stroke="red" points="140.12,-35.25 97.88,-35.25 97.88,-16 140.12,-16 140.12,-35.25"/>
<text text-anchor="middle" x="119" y="-21.75" font-family="Helvetica,sans-Serif" font-size="10.00">kernel</text>
</a>
</g>
</g>
<!-- dir_a12d8da7b0731a57c6a388326ad5e612 -->
<g id="node2" class="node">
<title>dir_a12d8da7b0731a57c6a388326ad5e612</title>
<g id="a_node2"><a xlink:href="dir_a12d8da7b0731a57c6a388326ad5e612.html" target="_top" xlink:title="cdvd">
<polygon fill="#60a2e3" stroke="red" points="210.5,-35.25 173.5,-35.25 173.5,-16 210.5,-16 210.5,-35.25"/>
<text text-anchor="middle" x="192" y="-21.75" font-family="Helvetica,sans-Serif" font-size="10.00">cdvd</text>
</a>
</g>
</g>
<!-- dir_40ac35421bc63b72c26b6c69b1517fd6 -->
<g id="node3" class="node">
<title>dir_40ac35421bc63b72c26b6c69b1517fd6</title>
<g id="a_node3"><a xlink:href="dir_40ac35421bc63b72c26b6c69b1517fd6.html" target="_top" xlink:title="system">
<polygon fill="#60a2e3" stroke="red" points="296.75,-35.25 249.25,-35.25 249.25,-16 296.75,-16 296.75,-35.25"/>
<text text-anchor="middle" x="273" y="-21.75" font-family="Helvetica,sans-Serif" font-size="10.00">system</text>
</a>
</g>
</g>
<!-- dir_8494d76ae2586079db82d45fe3dd6aec -->
<g id="node4" class="node">
<title>dir_8494d76ae2586079db82d45fe3dd6aec</title>
<text text-anchor="middle" x="45" y="-132.25" font-family="Helvetica,sans-Serif" font-size="10.00">debug</text>
</g>
<!-- dir_2f080771f6205bbf07c3b5e6545bd3fa -->
<g id="node5" class="node">
<title>dir_2f080771f6205bbf07c3b5e6545bd3fa</title>
<g id="a_node5"><a xlink:href="dir_2f080771f6205bbf07c3b5e6545bd3fa.html" target="_top" xlink:title="iop_sbusdbg">
<polygon fill="#60a2e3" stroke="#404040" points="218.38,-145.75 147.62,-145.75 147.62,-126.5 218.38,-126.5 218.38,-145.75"/>
<text text-anchor="middle" x="183" y="-132.25" font-family="Helvetica,sans-Serif" font-size="10.00">iop_sbusdbg</text>
</a>
</g>
</g>
<!-- dir_2f080771f6205bbf07c3b5e6545bd3fa&#45;&gt;dir_9be0baa3d4a3e9f480a9ee70594037fa -->
<g id="edge2" class="edge">
<title>dir_2f080771f6205bbf07c3b5e6545bd3fa&#45;&gt;dir_9be0baa3d4a3e9f480a9ee70594037fa</title>
<g id="a_edge2"><a xlink:href="dir_000232_000238.html" target="_top">
<path fill="none" stroke="#63b8ff" d="M157.84,-126.14C142.17,-119.07 123.27,-107.54 114,-90.5 106.67,-77.04 108.68,-59.56 112.1,-46.29"/>
<polygon fill="#63b8ff" stroke="#63b8ff" points="115.37,-47.55 114.96,-36.97 108.68,-45.5 115.37,-47.55"/>
</a>
</g>
<g id="a_edge2&#45;headlabel"><a xlink:href="dir_000232_000238.html" target="_top" xlink:title="1">
<text text-anchor="middle" x="117.48" y="-46.5" font-family="Helvetica,sans-Serif" font-size="10.00" fill="#63b8ff">1</text>
</a>
</g>
</g>
<!-- dir_2f080771f6205bbf07c3b5e6545bd3fa&#45;&gt;dir_a12d8da7b0731a57c6a388326ad5e612 -->
<g id="edge3" class="edge">
<title>dir_2f080771f6205bbf07c3b5e6545bd3fa&#45;&gt;dir_a12d8da7b0731a57c6a388326ad5e612</title>
<g id="a_edge3"><a xlink:href="dir_000232_000040.html" target="_top">
<path fill="none" stroke="#63b8ff" d="M178.82,-126.15C173.01,-112.44 163.83,-85.49 170,-63.25 171.78,-56.82 175.03,-50.38 178.5,-44.74"/>
<polygon fill="#63b8ff" stroke="#63b8ff" points="181.12,-47.1 183.84,-36.86 175.33,-43.17 181.12,-47.1"/>
</a>
</g>
<g id="a_edge3&#45;headlabel"><a xlink:href="dir_000232_000040.html" target="_top" xlink:title="1">
<text text-anchor="middle" x="182.3" y="-46.54" font-family="Helvetica,sans-Serif" font-size="10.00" fill="#63b8ff">1</text>
</a>
</g>
</g>
<!-- dir_2f080771f6205bbf07c3b5e6545bd3fa&#45;&gt;dir_40ac35421bc63b72c26b6c69b1517fd6 -->
<g id="edge4" class="edge">
<title>dir_2f080771f6205bbf07c3b5e6545bd3fa&#45;&gt;dir_40ac35421bc63b72c26b6c69b1517fd6</title>
<g id="a_edge4"><a xlink:href="dir_000232_000513.html" target="_top">
<path fill="none" stroke="#63b8ff" d="M208.6,-126.02C225.11,-118.85 245.73,-107.24 258,-90.5 267.29,-77.83 270.92,-60.27 272.3,-46.77"/>
<polygon fill="#63b8ff" stroke="#63b8ff" points="275.78,-47.07 272.94,-36.87 268.8,-46.62 275.78,-47.07"/>
</a>
</g>
<g id="a_edge4&#45;headlabel"><a xlink:href="dir_000232_000513.html" target="_top" xlink:title="28">
<text text-anchor="middle" x="278.48" y="-45.46" font-family="Helvetica,sans-Serif" font-size="10.00" fill="#63b8ff">28</text>
</a>
</g>
</g>
<!-- dir_b128a11f24e38182ade4e9889f6c5833 -->
<g id="node6" class="node">
<title>dir_b128a11f24e38182ade4e9889f6c5833</title>
<g id="a_node6"><a xlink:href="dir_b128a11f24e38182ade4e9889f6c5833.html" target="_top" xlink:title="iopdebug">
<polygon fill="#60a2e3" stroke="#404040" points="233.5,-90.5 178.5,-90.5 178.5,-71.25 233.5,-71.25 233.5,-90.5"/>
<text text-anchor="middle" x="206" y="-77" font-family="Helvetica,sans-Serif" font-size="10.00">iopdebug</text>
</a>
</g>
</g>
<!-- dir_2f080771f6205bbf07c3b5e6545bd3fa&#45;&gt;dir_b128a11f24e38182ade4e9889f6c5833 -->
<g id="edge5" class="edge">
<title>dir_2f080771f6205bbf07c3b5e6545bd3fa&#45;&gt;dir_b128a11f24e38182ade4e9889f6c5833</title>
<g id="a_edge5"><a xlink:href="dir_000232_000233.html" target="_top">
<path fill="none" stroke="#63b8ff" d="M186.8,-126.33C189.74,-119.51 193.94,-109.81 197.65,-101.2"/>
<polygon fill="#63b8ff" stroke="#63b8ff" points="200.77,-102.82 201.52,-92.25 194.34,-100.04 200.77,-102.82"/>
</a>
</g>
<g id="a_edge5&#45;headlabel"><a xlink:href="dir_000232_000233.html" target="_top" xlink:title="4">
<text text-anchor="middle" x="202.55" y="-101.98" font-family="Helvetica,sans-Serif" font-size="10.00" fill="#63b8ff">4</text>
</a>
</g>
</g>
<!-- dir_bdd9a5d540de89e9fe90efdfc6973a4f -->
<g id="node10" class="node">
<title>dir_bdd9a5d540de89e9fe90efdfc6973a4f</title>
<g id="a_node10"><a xlink:href="dir_bdd9a5d540de89e9fe90efdfc6973a4f.html" target="_top" xlink:title="common">
<polygon fill="#deebf9" stroke="red" points="406.75,-35.25 353.25,-35.25 353.25,-16 406.75,-16 406.75,-35.25"/>
<text text-anchor="middle" x="380" y="-21.75" font-family="Helvetica,sans-Serif" font-size="10.00">common</text>
</a>
</g>
</g>
<!-- dir_2f080771f6205bbf07c3b5e6545bd3fa&#45;&gt;dir_bdd9a5d540de89e9fe90efdfc6973a4f -->
<g id="edge1" class="edge">
<title>dir_2f080771f6205bbf07c3b5e6545bd3fa&#45;&gt;dir_bdd9a5d540de89e9fe90efdfc6973a4f</title>
<g id="a_edge1"><a xlink:href="dir_000232_000045.html" target="_top">
<path fill="none" stroke="#63b8ff" d="M218.78,-126.65C255.62,-117.49 310.09,-102.57 328,-90.5 337.33,-84.21 354.83,-61.52 366.94,-44.97"/>
<polygon fill="#63b8ff" stroke="#63b8ff" points="369.76,-47.04 372.77,-36.89 364.08,-42.95 369.76,-47.04"/>
</a>
</g>
<g id="a_edge1&#45;headlabel"><a xlink:href="dir_000232_000045.html" target="_top" xlink:title="13">
<text text-anchor="middle" x="370.85" y="-46.52" font-family="Helvetica,sans-Serif" font-size="10.00" fill="#63b8ff">13</text>
</a>
</g>
</g>
<!-- dir_b128a11f24e38182ade4e9889f6c5833&#45;&gt;dir_9be0baa3d4a3e9f480a9ee70594037fa -->
<g id="edge6" class="edge">
<title>dir_b128a11f24e38182ade4e9889f6c5833&#45;&gt;dir_9be0baa3d4a3e9f480a9ee70594037fa</title>
<g id="a_edge6"><a xlink:href="dir_000233_000238.html" target="_top">
<path fill="none" stroke="#63b8ff" d="M191.24,-70.84C178.12,-62.81 158.68,-50.91 143.27,-41.48"/>
<polygon fill="#63b8ff" stroke="#63b8ff" points="145.48,-38.73 135.12,-36.49 141.82,-44.7 145.48,-38.73"/>
</a>
</g>
<g id="a_edge6&#45;headlabel"><a xlink:href="dir_000233_000238.html" target="_top" xlink:title="2">
<text text-anchor="middle" x="148.74" y="-33.52" font-family="Helvetica,sans-Serif" font-size="10.00" fill="#63b8ff">2</text>
</a>
</g>
</g>
<!-- dir_b128a11f24e38182ade4e9889f6c5833&#45;&gt;dir_a12d8da7b0731a57c6a388326ad5e612 -->
<g id="edge9" class="edge">
<title>dir_b128a11f24e38182ade4e9889f6c5833&#45;&gt;dir_a12d8da7b0731a57c6a388326ad5e612</title>
<g id="a_edge9"><a xlink:href="dir_000233_000040.html" target="_top">
<path fill="none" stroke="#63b8ff" d="M203.69,-71.08C201.94,-64.42 199.46,-54.99 197.23,-46.53"/>
<polygon fill="#63b8ff" stroke="#63b8ff" points="200.67,-45.85 194.75,-37.07 193.9,-47.63 200.67,-45.85"/>
</a>
</g>
<g id="a_edge9&#45;headlabel"><a xlink:href="dir_000233_000040.html" target="_top" xlink:title="1">
<text text-anchor="middle" x="203.95" y="-43.27" font-family="Helvetica,sans-Serif" font-size="10.00" fill="#63b8ff">1</text>
</a>
</g>
</g>
<!-- dir_b128a11f24e38182ade4e9889f6c5833&#45;&gt;dir_40ac35421bc63b72c26b6c69b1517fd6 -->
<g id="edge8" class="edge">
<title>dir_b128a11f24e38182ade4e9889f6c5833&#45;&gt;dir_40ac35421bc63b72c26b6c69b1517fd6</title>
<g id="a_edge8"><a xlink:href="dir_000233_000513.html" target="_top">
<path fill="none" stroke="#63b8ff" d="M217.37,-70.84C227.05,-63.15 241.2,-51.9 252.81,-42.68"/>
<polygon fill="#63b8ff" stroke="#63b8ff" points="254.97,-45.43 260.62,-36.47 250.61,-39.95 254.97,-45.43"/>
</a>
</g>
<g id="a_edge8&#45;headlabel"><a xlink:href="dir_000233_000513.html" target="_top" xlink:title="15">
<text text-anchor="middle" x="255.1" y="-45.07" font-family="Helvetica,sans-Serif" font-size="10.00" fill="#63b8ff">15</text>
</a>
</g>
</g>
<!-- dir_b128a11f24e38182ade4e9889f6c5833&#45;&gt;dir_bdd9a5d540de89e9fe90efdfc6973a4f -->
<g id="edge7" class="edge">
<title>dir_b128a11f24e38182ade4e9889f6c5833&#45;&gt;dir_bdd9a5d540de89e9fe90efdfc6973a4f</title>
<g id="a_edge7"><a xlink:href="dir_000233_000045.html" target="_top">
<path fill="none" stroke="#63b8ff" d="M233.96,-71.32C263.26,-62.35 309.48,-48.21 342.07,-38.23"/>
<polygon fill="#63b8ff" stroke="#63b8ff" points="342.99,-41.61 351.52,-35.34 340.94,-34.92 342.99,-41.61"/>
</a>
</g>
<g id="a_edge7&#45;headlabel"><a xlink:href="dir_000233_000045.html" target="_top" xlink:title="7">
<text text-anchor="middle" x="341.83" y="-41.06" font-family="Helvetica,sans-Serif" font-size="10.00" fill="#63b8ff">7</text>
</a>
</g>
</g>
<!-- dir_43255a50c3a5642889795edf08bb8408 -->
<g id="node7" class="node">
<title>dir_43255a50c3a5642889795edf08bb8408</title>
<g id="a_node7"><a xlink:href="dir_43255a50c3a5642889795edf08bb8408.html" target="_top" xlink:title="ioptrap">
<polygon fill="#60a2e3" stroke="#404040" points="129.62,-145.75 84.38,-145.75 84.38,-126.5 129.62,-126.5 129.62,-145.75"/>
<text text-anchor="middle" x="107" y="-132.25" font-family="Helvetica,sans-Serif" font-size="10.00">ioptrap</text>
</a>
</g>
</g>
<!-- dir_43255a50c3a5642889795edf08bb8408&#45;&gt;dir_9be0baa3d4a3e9f480a9ee70594037fa -->
<g id="edge10" class="edge">
<title>dir_43255a50c3a5642889795edf08bb8408&#45;&gt;dir_9be0baa3d4a3e9f480a9ee70594037fa</title>
<g id="a_edge10"><a xlink:href="dir_000236_000238.html" target="_top">
<path fill="none" stroke="#63b8ff" d="M102.66,-126.11C96.63,-112.33 87.19,-85.3 94,-63.25 96.02,-56.72 99.64,-50.32 103.51,-44.74"/>
<polygon fill="#63b8ff" stroke="#63b8ff" points="106.2,-46.98 109.54,-36.93 100.66,-42.71 106.2,-46.98"/>
</a>
</g>
<g id="a_edge10&#45;headlabel"><a xlink:href="dir_000236_000238.html" target="_top" xlink:title="4">
<text text-anchor="middle" x="107.17" y="-46.49" font-family="Helvetica,sans-Serif" font-size="10.00" fill="#63b8ff">4</text>
</a>
</g>
</g>
<!-- dir_43255a50c3a5642889795edf08bb8408&#45;&gt;dir_40ac35421bc63b72c26b6c69b1517fd6 -->
<g id="edge11" class="edge">
<title>dir_43255a50c3a5642889795edf08bb8408&#45;&gt;dir_40ac35421bc63b72c26b6c69b1517fd6</title>
<g id="a_edge11"><a xlink:href="dir_000236_000513.html" target="_top">
<path fill="none" stroke="#63b8ff" d="M130,-128.66C166.47,-118.24 234.35,-98.16 243,-90.5 246.63,-87.29 257.25,-63.62 264.82,-46.02"/>
<polygon fill="#63b8ff" stroke="#63b8ff" points="267.96,-47.58 268.66,-37.01 261.52,-44.84 267.96,-47.58"/>
</a>
</g>
<g id="a_edge11&#45;headlabel"><a xlink:href="dir_000236_000513.html" target="_top" xlink:title="11">
<text text-anchor="middle" x="269.76" y="-46.73" font-family="Helvetica,sans-Serif" font-size="10.00" fill="#63b8ff">11</text>
</a>
</g>
</g>
<!-- dir_d3ded9369ca517f344f23b4db50242ea -->
<g id="node8" class="node">
<title>dir_d3ded9369ca517f344f23b4db50242ea</title>
<g id="a_node8"><a xlink:href="dir_d3ded9369ca517f344f23b4db50242ea.html" target="_top" xlink:title="ppctty">
<polygon fill="#60a2e3" stroke="#404040" points="279.12,-145.75 236.88,-145.75 236.88,-126.5 279.12,-126.5 279.12,-145.75"/>
<text text-anchor="middle" x="258" y="-132.25" font-family="Helvetica,sans-Serif" font-size="10.00">ppctty</text>
</a>
</g>
</g>
<!-- dir_d3ded9369ca517f344f23b4db50242ea&#45;&gt;dir_9be0baa3d4a3e9f480a9ee70594037fa -->
<g id="edge12" class="edge">
<title>dir_d3ded9369ca517f344f23b4db50242ea&#45;&gt;dir_9be0baa3d4a3e9f480a9ee70594037fa</title>
<g id="a_edge12"><a xlink:href="dir_000288_000238.html" target="_top">
<path fill="none" stroke="#63b8ff" d="M236.72,-127.86C210.15,-118.48 166.65,-101.99 154,-90.5 140.69,-78.41 131.37,-60.05 125.71,-46.11"/>
<polygon fill="#63b8ff" stroke="#63b8ff" points="129.12,-45.23 122.34,-37.09 122.56,-47.68 129.12,-45.23"/>
</a>
</g>
<g id="a_edge12&#45;headlabel"><a xlink:href="dir_000288_000238.html" target="_top" xlink:title="1">
<text text-anchor="middle" x="132.51" y="-42.31" font-family="Helvetica,sans-Serif" font-size="10.00" fill="#63b8ff">1</text>
</a>
</g>
</g>
<!-- dir_d3ded9369ca517f344f23b4db50242ea&#45;&gt;dir_40ac35421bc63b72c26b6c69b1517fd6 -->
<g id="edge13" class="edge">
<title>dir_d3ded9369ca517f344f23b4db50242ea&#45;&gt;dir_40ac35421bc63b72c26b6c69b1517fd6</title>
<g id="a_edge13"><a xlink:href="dir_000288_000513.html" target="_top">
<path fill="none" stroke="#63b8ff" d="M263.32,-126.28C268.23,-117.54 275.19,-103.62 278,-90.5 281.11,-75.98 279.61,-59.23 277.47,-46.53"/>
<polygon fill="#63b8ff" stroke="#63b8ff" points="280.94,-46.02 275.56,-36.89 274.07,-47.38 280.94,-46.02"/>
</a>
</g>
<g id="a_edge13&#45;headlabel"><a xlink:href="dir_000288_000513.html" target="_top" xlink:title="18">
<text text-anchor="middle" x="284.13" y="-43.63" font-family="Helvetica,sans-Serif" font-size="10.00" fill="#63b8ff">18</text>
</a>
</g>
</g>
<!-- dir_d3ded9369ca517f344f23b4db50242ea&#45;&gt;dir_bdd9a5d540de89e9fe90efdfc6973a4f -->
<g id="edge14" class="edge">
<title>dir_d3ded9369ca517f344f23b4db50242ea&#45;&gt;dir_bdd9a5d540de89e9fe90efdfc6973a4f</title>
<g id="a_edge14"><a xlink:href="dir_000288_000045.html" target="_top">
<path fill="none" stroke="#63b8ff" d="M279.18,-127.66C304.56,-118.35 345.02,-102.25 356,-90.5 367.27,-78.44 373.38,-60.58 376.61,-46.81"/>
<polygon fill="#63b8ff" stroke="#63b8ff" points="380.03,-47.58 378.54,-37.09 373.16,-46.22 380.03,-47.58"/>
</a>
</g>
<g id="a_edge14&#45;headlabel"><a xlink:href="dir_000288_000045.html" target="_top" xlink:title="5">
<text text-anchor="middle" x="382.41" y="-46.29" font-family="Helvetica,sans-Serif" font-size="10.00" fill="#63b8ff">5</text>
</a>
</g>
</g>
<!-- dir_1019ee746f7ebb462d4ffdfca40dcd8c -->
<g id="node9" class="node">
<title>dir_1019ee746f7ebb462d4ffdfca40dcd8c</title>
<g id="a_node9"><a xlink:href="dir_1019ee746f7ebb462d4ffdfca40dcd8c.html" target="_top" xlink:title="sior">
<polygon fill="#60a2e3" stroke="#404040" points="328.88,-145.75 297.12,-145.75 297.12,-126.5 328.88,-126.5 328.88,-145.75"/>
<text text-anchor="middle" x="313" y="-132.25" font-family="Helvetica,sans-Serif" font-size="10.00">sior</text>
</a>
</g>
</g>
<!-- dir_1019ee746f7ebb462d4ffdfca40dcd8c&#45;&gt;dir_9be0baa3d4a3e9f480a9ee70594037fa -->
<g id="edge15" class="edge">
<title>dir_1019ee746f7ebb462d4ffdfca40dcd8c&#45;&gt;dir_9be0baa3d4a3e9f480a9ee70594037fa</title>
<g id="a_edge15"><a xlink:href="dir_000315_000238.html" target="_top">
<path fill="none" stroke="#63b8ff" d="M296.89,-129.47C293.94,-128.46 290.88,-127.44 288,-126.5 235.85,-109.56 215.09,-121.69 170,-90.5 157.43,-81.8 158.51,-75.22 149,-63.25 144.03,-57 138.52,-50.22 133.58,-44.21"/>
<polygon fill="#63b8ff" stroke="#63b8ff" points="136.5,-42.25 127.44,-36.76 131.1,-46.7 136.5,-42.25"/>
</a>
</g>
<g id="a_edge15&#45;headlabel"><a xlink:href="dir_000315_000238.html" target="_top" xlink:title="4">
<text text-anchor="middle" x="140.01" y="-38.17" font-family="Helvetica,sans-Serif" font-size="10.00" fill="#63b8ff">4</text>
</a>
</g>
</g>
<!-- dir_1019ee746f7ebb462d4ffdfca40dcd8c&#45;&gt;dir_40ac35421bc63b72c26b6c69b1517fd6 -->
<g id="edge17" class="edge">
<title>dir_1019ee746f7ebb462d4ffdfca40dcd8c&#45;&gt;dir_40ac35421bc63b72c26b6c69b1517fd6</title>
<g id="a_edge17"><a xlink:href="dir_000315_000513.html" target="_top">
<path fill="none" stroke="#63b8ff" d="M309.73,-126.25C303.31,-108.84 288.94,-69.87 280.2,-46.16"/>
<polygon fill="#63b8ff" stroke="#63b8ff" points="283.59,-45.22 276.84,-37.05 277.02,-47.64 283.59,-45.22"/>
</a>
</g>
<g id="a_edge17&#45;headlabel"><a xlink:href="dir_000315_000513.html" target="_top" xlink:title="7">
<text text-anchor="middle" x="286.97" y="-42.31" font-family="Helvetica,sans-Serif" font-size="10.00" fill="#63b8ff">7</text>
</a>
</g>
</g>
<!-- dir_1019ee746f7ebb462d4ffdfca40dcd8c&#45;&gt;dir_bdd9a5d540de89e9fe90efdfc6973a4f -->
<g id="edge16" class="edge">
<title>dir_1019ee746f7ebb462d4ffdfca40dcd8c&#45;&gt;dir_bdd9a5d540de89e9fe90efdfc6973a4f</title>
<g id="a_edge16"><a xlink:href="dir_000315_000045.html" target="_top">
<path fill="none" stroke="#63b8ff" d="M329.24,-131.45C348.59,-126.11 380.04,-114.14 394,-90.5 402.12,-76.75 397.1,-58.84 390.92,-45.48"/>
<polygon fill="#63b8ff" stroke="#63b8ff" points="394.15,-44.11 386.42,-36.86 387.94,-47.35 394.15,-44.11"/>
</a>
</g>
<g id="a_edge16&#45;headlabel"><a xlink:href="dir_000315_000045.html" target="_top" xlink:title="3">
<text text-anchor="middle" x="397.63" y="-40.76" font-family="Helvetica,sans-Serif" font-size="10.00" fill="#63b8ff">3</text>
</a>
</g>
</g>
</g>
</svg>
