<?xml version="1.0" encoding="UTF-8" standalone="no"?>
<!DOCTYPE svg PUBLIC "-//W3C//DTD SVG 1.1//EN"
 "http://www.w3.org/Graphics/SVG/1.1/DTD/svg11.dtd">
<!-- Generated by graphviz version 12.2.0 (20241103.1931)
 -->
<!-- Title: iop/usb/usbhdfsd Pages: 1 -->
<svg width="211pt" height="181pt"
 viewBox="0.00 0.00 210.75 181.00" xmlns="http://www.w3.org/2000/svg" xmlns:xlink="http://www.w3.org/1999/xlink">
<g id="graph0" class="graph" transform="scale(1 1) rotate(0) translate(4 177)">
<title>iop/usb/usbhdfsd</title>
<g id="clust1" class="cluster">
<title>clusterdir_b6c875632944d243a548db157cd77ec2</title>
<g id="a_clust1"><a xlink:href="dir_b6c875632944d243a548db157cd77ec2.html" target="_top" xlink:title="usb">
<polygon fill="#deebf9" stroke="#7f7f7f" stroke-dasharray="5,2" points="8,-39.25 8,-165 190,-165 190,-39.25 8,-39.25"/>
<text text-anchor="middle" x="99" y="-151.5" font-family="Helvetica,sans-Serif" font-size="10.00">usb</text>
</a>
</g>
</g>
<g id="clust2" class="cluster">
<title>clusterdir_b8874c233d466218401f983297aca89b</title>
<g id="a_clust2"><a xlink:href="dir_b8874c233d466218401f983297aca89b.html" target="_top">
<polygon fill="#deebf9" stroke="#404040" stroke-width="2" points="16,-47.25 16,-137.75 136,-137.75 136,-47.25 16,-47.25"/>
</a>
</g>
</g>
<!-- dir_8f550b51c304fe10978bfd792866fae2 -->
<g id="node1" class="node">
<title>dir_8f550b51c304fe10978bfd792866fae2</title>
<g id="a_node1"><a xlink:href="dir_8f550b51c304fe10978bfd792866fae2.html" target="_top" xlink:title="usbd">
<polygon fill="#60a2e3" stroke="red" points="181.5,-74.5 144.5,-74.5 144.5,-55.25 181.5,-55.25 181.5,-74.5"/>
<text text-anchor="middle" x="163" y="-61" font-family="Helvetica,sans-Serif" font-size="10.00">usbd</text>
</a>
</g>
</g>
<!-- dir_b8874c233d466218401f983297aca89b -->
<g id="node2" class="node">
<title>dir_b8874c233d466218401f983297aca89b</title>
<text text-anchor="middle" x="52" y="-116.25" font-family="Helvetica,sans-Serif" font-size="10.00">usbhdfsd</text>
</g>
<!-- dir_535a26643990b2aae7c4085335cb5fe3 -->
<g id="node3" class="node">
<title>dir_535a26643990b2aae7c4085335cb5fe3</title>
<g id="a_node3"><a xlink:href="dir_535a26643990b2aae7c4085335cb5fe3.html" target="_top" xlink:title="include">
<polygon fill="#60a2e3" stroke="#404040" points="126.38,-74.5 79.62,-74.5 79.62,-55.25 126.38,-55.25 126.38,-74.5"/>
<text text-anchor="middle" x="103" y="-61" font-family="Helvetica,sans-Serif" font-size="10.00">include</text>
</a>
</g>
</g>
<!-- dir_9be0baa3d4a3e9f480a9ee70594037fa -->
<g id="node5" class="node">
<title>dir_9be0baa3d4a3e9f480a9ee70594037fa</title>
<g id="a_node5"><a xlink:href="dir_9be0baa3d4a3e9f480a9ee70594037fa.html" target="_top" xlink:title="kernel">
<polygon fill="#deebf9" stroke="red" stroke-dasharray="5,2" points="98.12,-19.25 55.88,-19.25 55.88,0 98.12,0 98.12,-19.25"/>
<text text-anchor="middle" x="77" y="-5.75" font-family="Helvetica,sans-Serif" font-size="10.00">kernel</text>
</a>
</g>
</g>
<!-- dir_535a26643990b2aae7c4085335cb5fe3&#45;&gt;dir_9be0baa3d4a3e9f480a9ee70594037fa -->
<g id="edge1" class="edge">
<title>dir_535a26643990b2aae7c4085335cb5fe3&#45;&gt;dir_9be0baa3d4a3e9f480a9ee70594037fa</title>
<g id="a_edge1"><a xlink:href="dir_000197_000211.html" target="_top">
<path fill="none" stroke="#63b8ff" d="M98.71,-55.08C95.38,-48.26 90.64,-38.56 86.44,-29.95"/>
<polygon fill="#63b8ff" stroke="#63b8ff" points="89.58,-28.42 82.05,-20.97 83.29,-31.49 89.58,-28.42"/>
</a>
</g>
<g id="a_edge1&#45;headlabel"><a xlink:href="dir_000197_000211.html" target="_top" xlink:title="1">
<text text-anchor="middle" x="93.05" y="-25.17" font-family="Helvetica,sans-Serif" font-size="10.00" fill="#63b8ff">1</text>
</a>
</g>
</g>
<!-- dir_bdd9a5d540de89e9fe90efdfc6973a4f -->
<g id="node6" class="node">
<title>dir_bdd9a5d540de89e9fe90efdfc6973a4f</title>
<g id="a_node6"><a xlink:href="dir_bdd9a5d540de89e9fe90efdfc6973a4f.html" target="_top" xlink:title="common">
<polygon fill="#deebf9" stroke="red" points="202.75,-19.25 149.25,-19.25 149.25,0 202.75,0 202.75,-19.25"/>
<text text-anchor="middle" x="176" y="-5.75" font-family="Helvetica,sans-Serif" font-size="10.00">common</text>
</a>
</g>
</g>
<!-- dir_535a26643990b2aae7c4085335cb5fe3&#45;&gt;dir_bdd9a5d540de89e9fe90efdfc6973a4f -->
<g id="edge2" class="edge">
<title>dir_535a26643990b2aae7c4085335cb5fe3&#45;&gt;dir_bdd9a5d540de89e9fe90efdfc6973a4f</title>
<g id="a_edge2"><a xlink:href="dir_000197_000042.html" target="_top">
<path fill="none" stroke="#63b8ff" d="M112.13,-54.77C117.2,-49.92 123.73,-44 130,-39.25 136.35,-34.44 143.53,-29.69 150.3,-25.47"/>
<polygon fill="#63b8ff" stroke="#63b8ff" points="151.73,-28.69 158.48,-20.52 148.11,-22.7 151.73,-28.69"/>
</a>
</g>
<g id="a_edge2&#45;headlabel"><a xlink:href="dir_000197_000042.html" target="_top" xlink:title="1">
<text text-anchor="middle" x="151.42" y="-28.32" font-family="Helvetica,sans-Serif" font-size="10.00" fill="#63b8ff">1</text>
</a>
</g>
</g>
<!-- dir_35e4cd4c6b68d708ba33184e89b685ac -->
<g id="node4" class="node">
<title>dir_35e4cd4c6b68d708ba33184e89b685ac</title>
<g id="a_node4"><a xlink:href="dir_35e4cd4c6b68d708ba33184e89b685ac.html" target="_top" xlink:title="src">
<polygon fill="#60a2e3" stroke="#404040" points="127.75,-129.75 98.25,-129.75 98.25,-110.5 127.75,-110.5 127.75,-129.75"/>
<text text-anchor="middle" x="113" y="-116.25" font-family="Helvetica,sans-Serif" font-size="10.00">src</text>
</a>
</g>
</g>
<!-- dir_35e4cd4c6b68d708ba33184e89b685ac&#45;&gt;dir_8f550b51c304fe10978bfd792866fae2 -->
<g id="edge4" class="edge">
<title>dir_35e4cd4c6b68d708ba33184e89b685ac&#45;&gt;dir_8f550b51c304fe10978bfd792866fae2</title>
<g id="a_edge4"><a xlink:href="dir_000460_000495.html" target="_top">
<path fill="none" stroke="#63b8ff" d="M121.26,-110.33C128.16,-102.98 138.22,-92.26 146.74,-83.19"/>
<polygon fill="#63b8ff" stroke="#63b8ff" points="149.23,-85.65 153.53,-75.96 144.13,-80.86 149.23,-85.65"/>
</a>
</g>
<g id="a_edge4&#45;headlabel"><a xlink:href="dir_000460_000495.html" target="_top" xlink:title="3">
<text text-anchor="middle" x="149.88" y="-85.23" font-family="Helvetica,sans-Serif" font-size="10.00" fill="#63b8ff">3</text>
</a>
</g>
</g>
<!-- dir_35e4cd4c6b68d708ba33184e89b685ac&#45;&gt;dir_535a26643990b2aae7c4085335cb5fe3 -->
<g id="edge3" class="edge">
<title>dir_35e4cd4c6b68d708ba33184e89b685ac&#45;&gt;dir_535a26643990b2aae7c4085335cb5fe3</title>
<g id="a_edge3"><a xlink:href="dir_000460_000197.html" target="_top">
<path fill="none" stroke="#63b8ff" d="M111.35,-110.33C110.11,-103.74 108.37,-94.46 106.79,-86.07"/>
<polygon fill="#63b8ff" stroke="#63b8ff" points="110.25,-85.53 104.97,-76.35 103.37,-86.82 110.25,-85.53"/>
</a>
</g>
<g id="a_edge3&#45;headlabel"><a xlink:href="dir_000460_000197.html" target="_top" xlink:title="3">
<text text-anchor="middle" x="113.43" y="-83.18" font-family="Helvetica,sans-Serif" font-size="10.00" fill="#63b8ff">3</text>
</a>
</g>
</g>
<!-- dir_35e4cd4c6b68d708ba33184e89b685ac&#45;&gt;dir_9be0baa3d4a3e9f480a9ee70594037fa -->
<g id="edge5" class="edge">
<title>dir_35e4cd4c6b68d708ba33184e89b685ac&#45;&gt;dir_9be0baa3d4a3e9f480a9ee70594037fa</title>
<g id="a_edge5"><a xlink:href="dir_000460_000211.html" target="_top">
<path fill="none" stroke="#63b8ff" d="M100.39,-110.14C90.29,-102.11 76.88,-89.33 71,-74.5 65.46,-60.53 67.43,-43.55 70.52,-30.61"/>
<polygon fill="#63b8ff" stroke="#63b8ff" points="73.85,-31.7 73.22,-21.12 67.12,-29.79 73.85,-31.7"/>
</a>
</g>
<g id="a_edge5&#45;headlabel"><a xlink:href="dir_000460_000211.html" target="_top" xlink:title="22">
<text text-anchor="middle" x="76.01" y="-30.6" font-family="Helvetica,sans-Serif" font-size="10.00" fill="#63b8ff">22</text>
</a>
</g>
</g>
<!-- dir_35e4cd4c6b68d708ba33184e89b685ac&#45;&gt;dir_bdd9a5d540de89e9fe90efdfc6973a4f -->
<g id="edge6" class="edge">
<title>dir_35e4cd4c6b68d708ba33184e89b685ac&#45;&gt;dir_bdd9a5d540de89e9fe90efdfc6973a4f</title>
<g id="a_edge6"><a xlink:href="dir_000460_000042.html" target="_top">
<path fill="none" stroke="#63b8ff" d="M128.23,-115.73C147.48,-110.52 179.79,-98.55 194,-74.5 201.97,-61.01 198.34,-54.3 194,-39.25 192.99,-35.75 191.42,-32.27 189.61,-29"/>
<polygon fill="#63b8ff" stroke="#63b8ff" points="192.65,-27.26 184.26,-20.79 186.79,-31.08 192.65,-27.26"/>
</a>
</g>
<g id="a_edge6&#45;headlabel"><a xlink:href="dir_000460_000042.html" target="_top" xlink:title="2">
<text text-anchor="middle" x="196.17" y="-23.58" font-family="Helvetica,sans-Serif" font-size="10.00" fill="#63b8ff">2</text>
</a>
</g>
</g>
</g>
</svg>
