<?xml version="1.0" encoding="UTF-8" standalone="no"?>
<!DOCTYPE svg PUBLIC "-//W3C//DTD SVG 1.1//EN"
 "http://www.w3.org/Graphics/SVG/1.1/DTD/svg11.dtd">
<!-- Generated by graphviz version 12.2.0 (20241103.1931)
 -->
<!-- Title: iop/usb/usbhdfsd/src Pages: 1 -->
<svg width="320pt" height="142pt"
 viewBox="0.00 0.00 319.75 141.75" xmlns="http://www.w3.org/2000/svg" xmlns:xlink="http://www.w3.org/1999/xlink">
<g id="graph0" class="graph" transform="scale(1 1) rotate(0) translate(4 137.75)">
<title>iop/usb/usbhdfsd/src</title>
<g id="clust1" class="cluster">
<title>clusterdir_b8874c233d466218401f983297aca89b</title>
<g id="a_clust1"><a xlink:href="dir_b8874c233d466218401f983297aca89b.html" target="_top" xlink:title="usbhdfsd">
<polygon fill="#deebf9" stroke="#7f7f7f" stroke-dasharray="5,2" points="8,-8 8,-125.75 134,-125.75 134,-8 8,-8"/>
<text text-anchor="middle" x="71" y="-112.25" font-family="Helvetica,sans-Serif" font-size="10.00">usbhdfsd</text>
</a>
</g>
</g>
<g id="clust2" class="cluster">
<title>clusterdir_35e4cd4c6b68d708ba33184e89b685ac</title>
<g id="a_clust2"><a xlink:href="dir_35e4cd4c6b68d708ba33184e89b685ac.html" target="_top">
<polygon fill="#deebf9" stroke="#404040" stroke-width="2" points="16,-63.25 16,-98.5 126,-98.5 126,-63.25 16,-63.25"/>
</a>
</g>
</g>
<!-- dir_535a26643990b2aae7c4085335cb5fe3 -->
<g id="node1" class="node">
<title>dir_535a26643990b2aae7c4085335cb5fe3</title>
<g id="a_node1"><a xlink:href="dir_535a26643990b2aae7c4085335cb5fe3.html" target="_top" xlink:title="include">
<polygon fill="#60a2e3" stroke="#404040" points="62.38,-35.25 15.62,-35.25 15.62,-16 62.38,-16 62.38,-35.25"/>
<text text-anchor="middle" x="39" y="-21.75" font-family="Helvetica,sans-Serif" font-size="10.00">include</text>
</a>
</g>
</g>
<!-- dir_35e4cd4c6b68d708ba33184e89b685ac -->
<g id="node2" class="node">
<title>dir_35e4cd4c6b68d708ba33184e89b685ac</title>
<text text-anchor="middle" x="39" y="-77" font-family="Helvetica,sans-Serif" font-size="10.00">src</text>
</g>
<!-- dir_35e4cd4c6b68d708ba33184e89b685ac&#45;&gt;dir_535a26643990b2aae7c4085335cb5fe3 -->
<g id="edge1" class="edge">
<title>dir_35e4cd4c6b68d708ba33184e89b685ac&#45;&gt;dir_535a26643990b2aae7c4085335cb5fe3</title>
<g id="a_edge1"><a xlink:href="dir_000460_000197.html" target="_top">
<path fill="none" stroke="#63b8ff" d="M39,-71.55C39,-64.95 39,-55.44 39,-46.86"/>
<polygon fill="#63b8ff" stroke="#63b8ff" points="42.5,-46.93 39,-36.93 35.5,-46.93 42.5,-46.93"/>
</a>
</g>
<g id="a_edge1&#45;headlabel"><a xlink:href="dir_000460_000197.html" target="_top" xlink:title="3">
<text text-anchor="middle" x="45.34" y="-45.14" font-family="Helvetica,sans-Serif" font-size="10.00" fill="#63b8ff">3</text>
</a>
</g>
</g>
<!-- dir_8f550b51c304fe10978bfd792866fae2 -->
<g id="node4" class="node">
<title>dir_8f550b51c304fe10978bfd792866fae2</title>
<g id="a_node4"><a xlink:href="dir_8f550b51c304fe10978bfd792866fae2.html" target="_top" xlink:title="usbd">
<polygon fill="#deebf9" stroke="red" stroke-dasharray="5,2" points="179.5,-35.25 142.5,-35.25 142.5,-16 179.5,-16 179.5,-35.25"/>
<text text-anchor="middle" x="161" y="-21.75" font-family="Helvetica,sans-Serif" font-size="10.00">usbd</text>
</a>
</g>
</g>
<!-- dir_35e4cd4c6b68d708ba33184e89b685ac&#45;&gt;dir_8f550b51c304fe10978bfd792866fae2 -->
<g id="edge2" class="edge">
<title>dir_35e4cd4c6b68d708ba33184e89b685ac&#45;&gt;dir_8f550b51c304fe10978bfd792866fae2</title>
<g id="a_edge2"><a xlink:href="dir_000460_000495.html" target="_top">
<path fill="none" stroke="#63b8ff" d="M49.87,-71.49C53.86,-68.65 58.51,-65.6 63,-63.25 91.33,-48.44 102.4,-47.71 131.72,-37.47"/>
<polygon fill="#63b8ff" stroke="#63b8ff" points="132.79,-40.8 141,-34.11 130.4,-34.22 132.79,-40.8"/>
</a>
</g>
<g id="a_edge2&#45;headlabel"><a xlink:href="dir_000460_000495.html" target="_top" xlink:title="3">
<text text-anchor="middle" x="131.8" y="-40.31" font-family="Helvetica,sans-Serif" font-size="10.00" fill="#63b8ff">3</text>
</a>
</g>
</g>
<!-- dir_9be0baa3d4a3e9f480a9ee70594037fa -->
<g id="node5" class="node">
<title>dir_9be0baa3d4a3e9f480a9ee70594037fa</title>
<g id="a_node5"><a xlink:href="dir_9be0baa3d4a3e9f480a9ee70594037fa.html" target="_top" xlink:title="kernel">
<polygon fill="#deebf9" stroke="red" stroke-dasharray="5,2" points="240.12,-35.25 197.88,-35.25 197.88,-16 240.12,-16 240.12,-35.25"/>
<text text-anchor="middle" x="219" y="-21.75" font-family="Helvetica,sans-Serif" font-size="10.00">kernel</text>
</a>
</g>
</g>
<!-- dir_35e4cd4c6b68d708ba33184e89b685ac&#45;&gt;dir_9be0baa3d4a3e9f480a9ee70594037fa -->
<g id="edge3" class="edge">
<title>dir_35e4cd4c6b68d708ba33184e89b685ac&#45;&gt;dir_9be0baa3d4a3e9f480a9ee70594037fa</title>
<g id="a_edge3"><a xlink:href="dir_000460_000211.html" target="_top">
<path fill="none" stroke="#63b8ff" d="M49.23,-71.49C53.3,-68.5 58.17,-65.36 63,-63.25 112.38,-41.66 131.12,-48.42 186.28,-35.71"/>
<polygon fill="#63b8ff" stroke="#63b8ff" points="187.05,-39.13 195.94,-33.36 185.4,-32.33 187.05,-39.13"/>
</a>
</g>
<g id="a_edge3&#45;headlabel"><a xlink:href="dir_000460_000211.html" target="_top" xlink:title="22">
<text text-anchor="middle" x="185.7" y="-38.5" font-family="Helvetica,sans-Serif" font-size="10.00" fill="#63b8ff">22</text>
</a>
</g>
</g>
<!-- dir_bdd9a5d540de89e9fe90efdfc6973a4f -->
<g id="node6" class="node">
<title>dir_bdd9a5d540de89e9fe90efdfc6973a4f</title>
<g id="a_node6"><a xlink:href="dir_bdd9a5d540de89e9fe90efdfc6973a4f.html" target="_top" xlink:title="common">
<polygon fill="#deebf9" stroke="red" points="311.75,-35.25 258.25,-35.25 258.25,-16 311.75,-16 311.75,-35.25"/>
<text text-anchor="middle" x="285" y="-21.75" font-family="Helvetica,sans-Serif" font-size="10.00">common</text>
</a>
</g>
</g>
<!-- dir_35e4cd4c6b68d708ba33184e89b685ac&#45;&gt;dir_bdd9a5d540de89e9fe90efdfc6973a4f -->
<g id="edge4" class="edge">
<title>dir_35e4cd4c6b68d708ba33184e89b685ac&#45;&gt;dir_bdd9a5d540de89e9fe90efdfc6973a4f</title>
<g id="a_edge4"><a xlink:href="dir_000460_000042.html" target="_top">
<path fill="none" stroke="#63b8ff" d="M49.15,-71.31C53.22,-68.3 58.1,-65.19 63,-63.25 137.45,-33.72 164.65,-49.73 246.8,-35.44"/>
<polygon fill="#63b8ff" stroke="#63b8ff" points="247.24,-38.91 256.44,-33.65 245.97,-32.03 247.24,-38.91"/>
</a>
</g>
<g id="a_edge4&#45;headlabel"><a xlink:href="dir_000460_000042.html" target="_top" xlink:title="2">
<text text-anchor="middle" x="245.71" y="-38.21" font-family="Helvetica,sans-Serif" font-size="10.00" fill="#63b8ff">2</text>
</a>
</g>
</g>
<!-- dir_6fd08c545c881b4d2b356c02a10aa6b3 -->
<g id="node3" class="node">
<title>dir_6fd08c545c881b4d2b356c02a10aa6b3</title>
<g id="a_node3"><a xlink:href="dir_6fd08c545c881b4d2b356c02a10aa6b3.html" target="_top" xlink:title="include">
<polygon fill="#60a2e3" stroke="#404040" points="118.38,-90.5 71.62,-90.5 71.62,-71.25 118.38,-71.25 118.38,-90.5"/>
<text text-anchor="middle" x="95" y="-77" font-family="Helvetica,sans-Serif" font-size="10.00">include</text>
</a>
</g>
</g>
</g>
</svg>
