<?xml version="1.0" encoding="UTF-8" standalone="no"?>
<!DOCTYPE svg PUBLIC "-//W3C//DTD SVG 1.1//EN"
 "http://www.w3.org/Graphics/SVG/1.1/DTD/svg11.dtd">
<!-- Generated by graphviz version 12.2.0 (20241103.1931)
 -->
<!-- Title: iop/system/siftoo Pages: 1 -->
<svg width="204pt" height="181pt"
 viewBox="0.00 0.00 204.04 181.00" xmlns="http://www.w3.org/2000/svg" xmlns:xlink="http://www.w3.org/1999/xlink">
<g id="graph0" class="graph" transform="scale(1 1) rotate(0) translate(4 177)">
<title>iop/system/siftoo</title>
<g id="clust1" class="cluster">
<title>clusterdir_40ac35421bc63b72c26b6c69b1517fd6</title>
<g id="a_clust1"><a xlink:href="dir_40ac35421bc63b72c26b6c69b1517fd6.html" target="_top" xlink:title="system">
<polygon fill="#deebf9" stroke="#7f7f7f" stroke-dasharray="5,2" points="8,-39.25 8,-165 186,-165 186,-39.25 8,-39.25"/>
<text text-anchor="middle" x="97" y="-151.5" font-family="Helvetica,sans-Serif" font-size="10.00">system</text>
</a>
</g>
</g>
<g id="clust2" class="cluster">
<title>clusterdir_c3fae06f71c3e401160299d109ef6df7</title>
<g id="a_clust2"><a xlink:href="dir_c3fae06f71c3e401160299d109ef6df7.html" target="_top">
<polygon fill="#deebf9" stroke="#404040" stroke-width="2" points="16,-47.25 16,-137.75 120,-137.75 120,-47.25 16,-47.25"/>
</a>
</g>
</g>
<!-- dir_4bae4802256ab45fc18d13b3c6375605 -->
<g id="node1" class="node">
<title>dir_4bae4802256ab45fc18d13b3c6375605</title>
<g id="a_node1"><a xlink:href="dir_4bae4802256ab45fc18d13b3c6375605.html" target="_top" xlink:title="sbusintr">
<polygon fill="#60a2e3" stroke="red" points="178.25,-74.5 127.75,-74.5 127.75,-55.25 178.25,-55.25 178.25,-74.5"/>
<text text-anchor="middle" x="153" y="-61" font-family="Helvetica,sans-Serif" font-size="10.00">sbusintr</text>
</a>
</g>
</g>
<!-- dir_c3fae06f71c3e401160299d109ef6df7 -->
<g id="node2" class="node">
<title>dir_c3fae06f71c3e401160299d109ef6df7</title>
<text text-anchor="middle" x="44" y="-116.25" font-family="Helvetica,sans-Serif" font-size="10.00">siftoo</text>
</g>
<!-- dir_1a0c1cc6a62ce99b34521e1896eac836 -->
<g id="node3" class="node">
<title>dir_1a0c1cc6a62ce99b34521e1896eac836</title>
<g id="a_node3"><a xlink:href="dir_1a0c1cc6a62ce99b34521e1896eac836.html" target="_top" xlink:title="include">
<polygon fill="#60a2e3" stroke="#404040" points="109.38,-74.5 62.62,-74.5 62.62,-55.25 109.38,-55.25 109.38,-74.5"/>
<text text-anchor="middle" x="86" y="-61" font-family="Helvetica,sans-Serif" font-size="10.00">include</text>
</a>
</g>
</g>
<!-- dir_9be0baa3d4a3e9f480a9ee70594037fa -->
<g id="node5" class="node">
<title>dir_9be0baa3d4a3e9f480a9ee70594037fa</title>
<g id="a_node5"><a xlink:href="dir_9be0baa3d4a3e9f480a9ee70594037fa.html" target="_top" xlink:title="kernel">
<polygon fill="#deebf9" stroke="red" stroke-dasharray="5,2" points="167.12,-19.25 124.88,-19.25 124.88,0 167.12,0 167.12,-19.25"/>
<text text-anchor="middle" x="146" y="-5.75" font-family="Helvetica,sans-Serif" font-size="10.00">kernel</text>
</a>
</g>
</g>
<!-- dir_1a0c1cc6a62ce99b34521e1896eac836&#45;&gt;dir_9be0baa3d4a3e9f480a9ee70594037fa -->
<g id="edge1" class="edge">
<title>dir_1a0c1cc6a62ce99b34521e1896eac836&#45;&gt;dir_9be0baa3d4a3e9f480a9ee70594037fa</title>
<g id="a_edge1"><a xlink:href="dir_000189_000212.html" target="_top">
<path fill="none" stroke="#63b8ff" d="M95.69,-54.93C100.81,-50.23 107.22,-44.39 113,-39.25 117.56,-35.2 122.51,-30.86 127.16,-26.83"/>
<polygon fill="#63b8ff" stroke="#63b8ff" points="129.12,-29.76 134.39,-20.57 124.54,-24.46 129.12,-29.76"/>
</a>
</g>
<g id="a_edge1&#45;headlabel"><a xlink:href="dir_000189_000212.html" target="_top" xlink:title="1">
<text text-anchor="middle" x="129.4" y="-29.39" font-family="Helvetica,sans-Serif" font-size="10.00" fill="#63b8ff">1</text>
</a>
</g>
</g>
<!-- dir_56c96d436b95cd5650376ca3df086363 -->
<g id="node4" class="node">
<title>dir_56c96d436b95cd5650376ca3df086363</title>
<g id="a_node4"><a xlink:href="dir_56c96d436b95cd5650376ca3df086363.html" target="_top" xlink:title="src">
<polygon fill="#60a2e3" stroke="#404040" points="111.75,-129.75 82.25,-129.75 82.25,-110.5 111.75,-110.5 111.75,-129.75"/>
<text text-anchor="middle" x="97" y="-116.25" font-family="Helvetica,sans-Serif" font-size="10.00">src</text>
</a>
</g>
</g>
<!-- dir_56c96d436b95cd5650376ca3df086363&#45;&gt;dir_4bae4802256ab45fc18d13b3c6375605 -->
<g id="edge3" class="edge">
<title>dir_56c96d436b95cd5650376ca3df086363&#45;&gt;dir_4bae4802256ab45fc18d13b3c6375605</title>
<g id="a_edge3"><a xlink:href="dir_000445_000277.html" target="_top">
<path fill="none" stroke="#63b8ff" d="M106.5,-110.09C114.43,-102.55 125.95,-91.6 135.54,-82.48"/>
<polygon fill="#63b8ff" stroke="#63b8ff" points="137.71,-85.24 142.54,-75.82 132.89,-80.17 137.71,-85.24"/>
</a>
</g>
<g id="a_edge3&#45;headlabel"><a xlink:href="dir_000445_000277.html" target="_top" xlink:title="3">
<text text-anchor="middle" x="138.16" y="-84.86" font-family="Helvetica,sans-Serif" font-size="10.00" fill="#63b8ff">3</text>
</a>
</g>
</g>
<!-- dir_56c96d436b95cd5650376ca3df086363&#45;&gt;dir_1a0c1cc6a62ce99b34521e1896eac836 -->
<g id="edge2" class="edge">
<title>dir_56c96d436b95cd5650376ca3df086363&#45;&gt;dir_1a0c1cc6a62ce99b34521e1896eac836</title>
<g id="a_edge2"><a xlink:href="dir_000445_000189.html" target="_top">
<path fill="none" stroke="#63b8ff" d="M95.18,-110.33C93.82,-103.74 91.9,-94.46 90.17,-86.07"/>
<polygon fill="#63b8ff" stroke="#63b8ff" points="93.61,-85.43 88.16,-76.34 86.76,-86.84 93.61,-85.43"/>
</a>
</g>
<g id="a_edge2&#45;headlabel"><a xlink:href="dir_000445_000189.html" target="_top" xlink:title="2">
<text text-anchor="middle" x="96.81" y="-83.02" font-family="Helvetica,sans-Serif" font-size="10.00" fill="#63b8ff">2</text>
</a>
</g>
</g>
<!-- dir_56c96d436b95cd5650376ca3df086363&#45;&gt;dir_9be0baa3d4a3e9f480a9ee70594037fa -->
<g id="edge4" class="edge">
<title>dir_56c96d436b95cd5650376ca3df086363&#45;&gt;dir_9be0baa3d4a3e9f480a9ee70594037fa</title>
<g id="a_edge4"><a xlink:href="dir_000445_000212.html" target="_top">
<path fill="none" stroke="#63b8ff" d="M112.18,-116.87C133.83,-112.76 172.83,-101.78 190,-74.5 198.34,-61.24 197.47,-53.02 190,-39.25 186.96,-33.64 182.29,-28.96 177.11,-25.12"/>
<polygon fill="#63b8ff" stroke="#63b8ff" points="179.1,-22.23 168.77,-19.89 175.39,-28.17 179.1,-22.23"/>
</a>
</g>
<g id="a_edge4&#45;headlabel"><a xlink:href="dir_000445_000212.html" target="_top" xlink:title="12">
<text text-anchor="middle" x="182.37" y="-17.06" font-family="Helvetica,sans-Serif" font-size="10.00" fill="#63b8ff">12</text>
</a>
</g>
</g>
</g>
</svg>
