<?xml version="1.0" encoding="UTF-8" standalone="no"?>
<!DOCTYPE svg PUBLIC "-//W3C//DTD SVG 1.1//EN"
 "http://www.w3.org/Graphics/SVG/1.1/DTD/svg11.dtd">
<!-- Generated by graphviz version 12.2.0 (20241103.1931)
 -->
<!-- Title: iop/system/sysclib/src Pages: 1 -->
<svg width="583pt" height="127pt"
 viewBox="0.00 0.00 583.00 126.97" xmlns="http://www.w3.org/2000/svg" xmlns:xlink="http://www.w3.org/1999/xlink">
<g id="graph0" class="graph" transform="scale(1 1) rotate(0) translate(4 122.97)">
<title>iop/system/sysclib/src</title>
<g id="clust1" class="cluster">
<title>clusterdir_1bd32d4ef826aeeda00870843eb45c97</title>
<g id="a_clust1"><a xlink:href="dir_1bd32d4ef826aeeda00870843eb45c97.html" target="_top" xlink:title="sysclib">
<polygon fill="#deebf9" stroke="#7f7f7f" stroke-dasharray="5,2" points="8,-40.47 8,-110.97 567,-110.97 567,-40.47 8,-40.47"/>
<text text-anchor="middle" x="287.5" y="-97.47" font-family="Helvetica,sans-Serif" font-size="10.00">sysclib</text>
</a>
</g>
</g>
<g id="clust2" class="cluster">
<title>clusterdir_6b3a3a5d267f0fea31b7a7f9b7d2beaf</title>
<g id="a_clust2"><a xlink:href="dir_6b3a3a5d267f0fea31b7a7f9b7d2beaf.html" target="_top">
<polygon fill="#deebf9" stroke="#404040" stroke-width="2" points="16,-48.47 16,-83.72 559,-83.72 559,-48.47 16,-48.47"/>
</a>
</g>
</g>
<!-- dir_6b3a3a5d267f0fea31b7a7f9b7d2beaf -->
<g id="node1" class="node">
<title>dir_6b3a3a5d267f0fea31b7a7f9b7d2beaf</title>
<text text-anchor="middle" x="313" y="-62.22" font-family="Helvetica,sans-Serif" font-size="10.00">src</text>
</g>
<!-- dir_9be0baa3d4a3e9f480a9ee70594037fa -->
<g id="node8" class="node">
<title>dir_9be0baa3d4a3e9f480a9ee70594037fa</title>
<g id="a_node8"><a xlink:href="dir_9be0baa3d4a3e9f480a9ee70594037fa.html" target="_top" xlink:title="kernel">
<polygon fill="#deebf9" stroke="red" stroke-dasharray="5,2" points="334.12,-20.47 291.88,-20.47 291.88,-1.22 334.12,-1.22 334.12,-20.47"/>
<text text-anchor="middle" x="313" y="-6.97" font-family="Helvetica,sans-Serif" font-size="10.00">kernel</text>
</a>
</g>
</g>
<!-- dir_6b3a3a5d267f0fea31b7a7f9b7d2beaf&#45;&gt;dir_9be0baa3d4a3e9f480a9ee70594037fa -->
<g id="edge1" class="edge">
<title>dir_6b3a3a5d267f0fea31b7a7f9b7d2beaf&#45;&gt;dir_9be0baa3d4a3e9f480a9ee70594037fa</title>
<g id="a_edge1"><a xlink:href="dir_000449_000212.html" target="_top">
<path fill="none" stroke="#63b8ff" d="M313,-56.78C313,-50.17 313,-40.66 313,-32.08"/>
<polygon fill="#63b8ff" stroke="#63b8ff" points="316.5,-32.15 313,-22.15 309.5,-32.15 316.5,-32.15"/>
</a>
</g>
<g id="a_edge1&#45;headlabel"><a xlink:href="dir_000449_000212.html" target="_top" xlink:title="57">
<text text-anchor="middle" x="319.34" y="-30.36" font-family="Helvetica,sans-Serif" font-size="10.00" fill="#63b8ff">57</text>
</a>
</g>
</g>
<!-- dir_76f6712385aad5f71054d252dc76d79e -->
<g id="node2" class="node">
<title>dir_76f6712385aad5f71054d252dc76d79e</title>
<g id="a_node2"><a xlink:href="dir_76f6712385aad5f71054d252dc76d79e.html" target="_top" xlink:title="embeddedartistry_libc">
<polygon fill="#60a2e3" stroke="#404040" points="134.25,-75.72 23.75,-75.72 23.75,-56.47 134.25,-56.47 134.25,-75.72"/>
<text text-anchor="middle" x="79" y="-62.22" font-family="Helvetica,sans-Serif" font-size="10.00">embeddedartistry_libc</text>
</a>
</g>
</g>
<!-- dir_76f6712385aad5f71054d252dc76d79e&#45;&gt;dir_9be0baa3d4a3e9f480a9ee70594037fa -->
<g id="edge2" class="edge">
<title>dir_76f6712385aad5f71054d252dc76d79e&#45;&gt;dir_9be0baa3d4a3e9f480a9ee70594037fa</title>
<g id="a_edge2"><a xlink:href="dir_000063_000212.html" target="_top">
<path fill="none" stroke="#63b8ff" d="M99.74,-56.06C112.33,-50.87 128.86,-44.58 144,-40.47 190.63,-27.82 246.09,-19.7 280.42,-15.46"/>
<polygon fill="#63b8ff" stroke="#63b8ff" points="280.62,-18.96 290.13,-14.3 279.79,-12.01 280.62,-18.96"/>
</a>
</g>
<g id="a_edge2&#45;headlabel"><a xlink:href="dir_000063_000212.html" target="_top" xlink:title="4">
<text text-anchor="middle" x="278.89" y="-18.15" font-family="Helvetica,sans-Serif" font-size="10.00" fill="#63b8ff">4</text>
</a>
</g>
</g>
<!-- dir_bd62be9475ca4f332fbf19becd78d95e -->
<g id="node3" class="node">
<title>dir_bd62be9475ca4f332fbf19becd78d95e</title>
<g id="a_node3"><a xlink:href="dir_bd62be9475ca4f332fbf19becd78d95e.html" target="_top" xlink:title="eyalroz_printf">
<polygon fill="#60a2e3" stroke="#404040" points="225.5,-75.72 152.5,-75.72 152.5,-56.47 225.5,-56.47 225.5,-75.72"/>
<text text-anchor="middle" x="189" y="-62.22" font-family="Helvetica,sans-Serif" font-size="10.00">eyalroz_printf</text>
</a>
</g>
</g>
<!-- dir_bd62be9475ca4f332fbf19becd78d95e&#45;&gt;dir_9be0baa3d4a3e9f480a9ee70594037fa -->
<g id="edge3" class="edge">
<title>dir_bd62be9475ca4f332fbf19becd78d95e&#45;&gt;dir_9be0baa3d4a3e9f480a9ee70594037fa</title>
<g id="a_edge3"><a xlink:href="dir_000068_000212.html" target="_top">
<path fill="none" stroke="#63b8ff" d="M204.48,-56.11C213.28,-51.18 224.59,-45.14 235,-40.47 249.75,-33.86 266.53,-27.55 280.74,-22.55"/>
<polygon fill="#63b8ff" stroke="#63b8ff" points="281.75,-25.9 290.06,-19.33 279.47,-19.28 281.75,-25.9"/>
</a>
</g>
<g id="a_edge3&#45;headlabel"><a xlink:href="dir_000068_000212.html" target="_top" xlink:title="1">
<text text-anchor="middle" x="280.71" y="-25.39" font-family="Helvetica,sans-Serif" font-size="10.00" fill="#63b8ff">1</text>
</a>
</g>
</g>
<!-- dir_950112c2cce41ca0fe6d06ee08cf690a -->
<g id="node4" class="node">
<title>dir_950112c2cce41ca0fe6d06ee08cf690a</title>
<g id="a_node4"><a xlink:href="dir_950112c2cce41ca0fe6d06ee08cf690a.html" target="_top" xlink:title="musl">
<polygon fill="#60a2e3" stroke="#404040" points="280.5,-75.72 243.5,-75.72 243.5,-56.47 280.5,-56.47 280.5,-75.72"/>
<text text-anchor="middle" x="262" y="-62.22" font-family="Helvetica,sans-Serif" font-size="10.00">musl</text>
</a>
</g>
</g>
<!-- dir_950112c2cce41ca0fe6d06ee08cf690a&#45;&gt;dir_9be0baa3d4a3e9f480a9ee70594037fa -->
<g id="edge4" class="edge">
<title>dir_950112c2cce41ca0fe6d06ee08cf690a&#45;&gt;dir_9be0baa3d4a3e9f480a9ee70594037fa</title>
<g id="a_edge4"><a xlink:href="dir_000244_000212.html" target="_top">
<path fill="none" stroke="#63b8ff" d="M270.42,-56.3C277.54,-48.87 287.94,-38.01 296.69,-28.88"/>
<polygon fill="#63b8ff" stroke="#63b8ff" points="298.96,-31.57 303.35,-21.92 293.9,-26.73 298.96,-31.57"/>
</a>
</g>
<g id="a_edge4&#45;headlabel"><a xlink:href="dir_000244_000212.html" target="_top" xlink:title="30">
<text text-anchor="middle" x="299.57" y="-31.16" font-family="Helvetica,sans-Serif" font-size="10.00" fill="#63b8ff">30</text>
</a>
</g>
</g>
<!-- dir_5e6d19e02aff7b7ecdcee2b32d4e4d69 -->
<g id="node5" class="node">
<title>dir_5e6d19e02aff7b7ecdcee2b32d4e4d69</title>
<g id="a_node5"><a xlink:href="dir_5e6d19e02aff7b7ecdcee2b32d4e4d69.html" target="_top" xlink:title="newlib">
<polygon fill="#60a2e3" stroke="#404040" points="550.88,-75.72 507.12,-75.72 507.12,-56.47 550.88,-56.47 550.88,-75.72"/>
<text text-anchor="middle" x="529" y="-62.22" font-family="Helvetica,sans-Serif" font-size="10.00">newlib</text>
</a>
</g>
</g>
<!-- dir_5e6d19e02aff7b7ecdcee2b32d4e4d69&#45;&gt;dir_9be0baa3d4a3e9f480a9ee70594037fa -->
<g id="edge5" class="edge">
<title>dir_5e6d19e02aff7b7ecdcee2b32d4e4d69&#45;&gt;dir_9be0baa3d4a3e9f480a9ee70594037fa</title>
<g id="a_edge5"><a xlink:href="dir_000252_000212.html" target="_top">
<path fill="none" stroke="#63b8ff" d="M520.34,-56.17C514.54,-50.74 506.44,-44.16 498,-40.47 448.03,-18.61 384.06,-13.11 345.93,-11.91"/>
<polygon fill="#63b8ff" stroke="#63b8ff" points="346.1,-8.42 336.02,-11.7 345.94,-15.42 346.1,-8.42"/>
</a>
</g>
<g id="a_edge5&#45;headlabel"><a xlink:href="dir_000252_000212.html" target="_top" xlink:title="1">
<text text-anchor="middle" x="348.24" y="-1.75" font-family="Helvetica,sans-Serif" font-size="10.00" fill="#63b8ff">1</text>
</a>
</g>
</g>
<!-- dir_bdd9a5d540de89e9fe90efdfc6973a4f -->
<g id="node9" class="node">
<title>dir_bdd9a5d540de89e9fe90efdfc6973a4f</title>
<g id="a_node9"><a xlink:href="dir_bdd9a5d540de89e9fe90efdfc6973a4f.html" target="_top" xlink:title="common">
<polygon fill="#deebf9" stroke="red" points="555.75,-20.47 502.25,-20.47 502.25,-1.22 555.75,-1.22 555.75,-20.47"/>
<text text-anchor="middle" x="529" y="-6.97" font-family="Helvetica,sans-Serif" font-size="10.00">common</text>
</a>
</g>
</g>
<!-- dir_5e6d19e02aff7b7ecdcee2b32d4e4d69&#45;&gt;dir_bdd9a5d540de89e9fe90efdfc6973a4f -->
<g id="edge6" class="edge">
<title>dir_5e6d19e02aff7b7ecdcee2b32d4e4d69&#45;&gt;dir_bdd9a5d540de89e9fe90efdfc6973a4f</title>
<g id="a_edge6"><a xlink:href="dir_000252_000042.html" target="_top">
<path fill="none" stroke="#63b8ff" d="M529,-56.3C529,-49.79 529,-40.64 529,-32.34"/>
<polygon fill="#63b8ff" stroke="#63b8ff" points="532.5,-32.35 529,-22.35 525.5,-32.35 532.5,-32.35"/>
</a>
</g>
<g id="a_edge6&#45;headlabel"><a xlink:href="dir_000252_000042.html" target="_top" xlink:title="1">
<text text-anchor="middle" x="535.34" y="-30.55" font-family="Helvetica,sans-Serif" font-size="10.00" fill="#63b8ff">1</text>
</a>
</g>
</g>
<!-- dir_e27c3ee1507bfb964a7b3cbac14762a5 -->
<g id="node6" class="node">
<title>dir_e27c3ee1507bfb964a7b3cbac14762a5</title>
<g id="a_node6"><a xlink:href="dir_e27c3ee1507bfb964a7b3cbac14762a5.html" target="_top" xlink:title="nonstd">
<polygon fill="#60a2e3" stroke="#404040" points="390.62,-75.72 345.38,-75.72 345.38,-56.47 390.62,-56.47 390.62,-75.72"/>
<text text-anchor="middle" x="368" y="-62.22" font-family="Helvetica,sans-Serif" font-size="10.00">nonstd</text>
</a>
</g>
</g>
<!-- dir_e27c3ee1507bfb964a7b3cbac14762a5&#45;&gt;dir_9be0baa3d4a3e9f480a9ee70594037fa -->
<g id="edge7" class="edge">
<title>dir_e27c3ee1507bfb964a7b3cbac14762a5&#45;&gt;dir_9be0baa3d4a3e9f480a9ee70594037fa</title>
<g id="a_edge7"><a xlink:href="dir_000253_000212.html" target="_top">
<path fill="none" stroke="#63b8ff" d="M358.92,-56.3C351.16,-48.8 339.79,-37.78 330.3,-28.6"/>
<polygon fill="#63b8ff" stroke="#63b8ff" points="332.99,-26.33 323.37,-21.88 328.12,-31.35 332.99,-26.33"/>
</a>
</g>
<g id="a_edge7&#45;headlabel"><a xlink:href="dir_000253_000212.html" target="_top" xlink:title="4">
<text text-anchor="middle" x="336.46" y="-21.86" font-family="Helvetica,sans-Serif" font-size="10.00" fill="#63b8ff">4</text>
</a>
</g>
</g>
<!-- dir_0beacc05ac1d7f4fed3f447a40616c4b -->
<g id="node7" class="node">
<title>dir_0beacc05ac1d7f4fed3f447a40616c4b</title>
<g id="a_node7"><a xlink:href="dir_0beacc05ac1d7f4fed3f447a40616c4b.html" target="_top" xlink:title="size_optimized">
<polygon fill="#60a2e3" stroke="#404040" points="488.88,-75.72 409.12,-75.72 409.12,-56.47 488.88,-56.47 488.88,-75.72"/>
<text text-anchor="middle" x="449" y="-62.22" font-family="Helvetica,sans-Serif" font-size="10.00">size_optimized</text>
</a>
</g>
</g>
<!-- dir_0beacc05ac1d7f4fed3f447a40616c4b&#45;&gt;dir_9be0baa3d4a3e9f480a9ee70594037fa -->
<g id="edge8" class="edge">
<title>dir_0beacc05ac1d7f4fed3f447a40616c4b&#45;&gt;dir_9be0baa3d4a3e9f480a9ee70594037fa</title>
<g id="a_edge8"><a xlink:href="dir_000291_000212.html" target="_top">
<path fill="none" stroke="#63b8ff" d="M432.5,-56.04C423.13,-51.09 411.09,-45.05 400,-40.47 382.21,-33.12 361.79,-26.32 345.2,-21.2"/>
<polygon fill="#63b8ff" stroke="#63b8ff" points="346.45,-17.92 335.86,-18.37 344.42,-24.62 346.45,-17.92"/>
</a>
</g>
<g id="a_edge8&#45;headlabel"><a xlink:href="dir_000291_000212.html" target="_top" xlink:title="15">
<text text-anchor="middle" x="349.26" y="-11.93" font-family="Helvetica,sans-Serif" font-size="10.00" fill="#63b8ff">15</text>
</a>
</g>
</g>
</g>
</svg>
