<?xml version="1.0" encoding="UTF-8" standalone="no"?>
<!DOCTYPE svg PUBLIC "-//W3C//DTD SVG 1.1//EN"
 "http://www.w3.org/Graphics/SVG/1.1/DTD/svg11.dtd">
<!-- Generated by graphviz version 12.2.0 (20241103.1931)
 -->
<!-- Title: iop/debug/iopdebug Pages: 1 -->
<svg width="181pt" height="181pt"
 viewBox="0.00 0.00 180.75 181.00" xmlns="http://www.w3.org/2000/svg" xmlns:xlink="http://www.w3.org/1999/xlink">
<g id="graph0" class="graph" transform="scale(1 1) rotate(0) translate(4 177)">
<title>iop/debug/iopdebug</title>
<g id="clust1" class="cluster">
<title>clusterdir_8494d76ae2586079db82d45fe3dd6aec</title>
<g id="a_clust1"><a xlink:href="dir_8494d76ae2586079db82d45fe3dd6aec.html" target="_top" xlink:title="debug">
<polygon fill="#deebf9" stroke="#7f7f7f" stroke-dasharray="5,2" points="8,-39.25 8,-165 143,-165 143,-39.25 8,-39.25"/>
<text text-anchor="middle" x="75.5" y="-151.5" font-family="Helvetica,sans-Serif" font-size="10.00">debug</text>
</a>
</g>
</g>
<g id="clust2" class="cluster">
<title>clusterdir_b128a11f24e38182ade4e9889f6c5833</title>
<g id="a_clust2"><a xlink:href="dir_b128a11f24e38182ade4e9889f6c5833.html" target="_top">
<polygon fill="#deebf9" stroke="#404040" stroke-width="2" points="16,-47.25 16,-137.75 135,-137.75 135,-47.25 16,-47.25"/>
</a>
</g>
</g>
<!-- dir_b128a11f24e38182ade4e9889f6c5833 -->
<g id="node1" class="node">
<title>dir_b128a11f24e38182ade4e9889f6c5833</title>
<text text-anchor="middle" x="52" y="-116.25" font-family="Helvetica,sans-Serif" font-size="10.00">iopdebug</text>
</g>
<!-- dir_11c221392ef51a238b9c195e459ef5de -->
<g id="node2" class="node">
<title>dir_11c221392ef51a238b9c195e459ef5de</title>
<g id="a_node2"><a xlink:href="dir_11c221392ef51a238b9c195e459ef5de.html" target="_top" xlink:title="include">
<polygon fill="#60a2e3" stroke="#404040" points="127.38,-74.5 80.62,-74.5 80.62,-55.25 127.38,-55.25 127.38,-74.5"/>
<text text-anchor="middle" x="104" y="-61" font-family="Helvetica,sans-Serif" font-size="10.00">include</text>
</a>
</g>
</g>
<!-- dir_9be0baa3d4a3e9f480a9ee70594037fa -->
<g id="node4" class="node">
<title>dir_9be0baa3d4a3e9f480a9ee70594037fa</title>
<g id="a_node4"><a xlink:href="dir_9be0baa3d4a3e9f480a9ee70594037fa.html" target="_top" xlink:title="kernel">
<polygon fill="#deebf9" stroke="red" stroke-dasharray="5,2" points="92.12,-19.25 49.88,-19.25 49.88,0 92.12,0 92.12,-19.25"/>
<text text-anchor="middle" x="71" y="-5.75" font-family="Helvetica,sans-Serif" font-size="10.00">kernel</text>
</a>
</g>
</g>
<!-- dir_11c221392ef51a238b9c195e459ef5de&#45;&gt;dir_9be0baa3d4a3e9f480a9ee70594037fa -->
<g id="edge1" class="edge">
<title>dir_11c221392ef51a238b9c195e459ef5de&#45;&gt;dir_9be0baa3d4a3e9f480a9ee70594037fa</title>
<g id="a_edge1"><a xlink:href="dir_000148_000211.html" target="_top">
<path fill="none" stroke="#63b8ff" d="M98.55,-55.08C94.23,-48.11 88.04,-38.12 82.62,-29.37"/>
<polygon fill="#63b8ff" stroke="#63b8ff" points="85.61,-27.55 77.36,-20.9 79.66,-31.24 85.61,-27.55"/>
</a>
</g>
<g id="a_edge1&#45;headlabel"><a xlink:href="dir_000148_000211.html" target="_top" xlink:title="1">
<text text-anchor="middle" x="89.12" y="-23.95" font-family="Helvetica,sans-Serif" font-size="10.00" fill="#63b8ff">1</text>
</a>
</g>
</g>
<!-- dir_bdd9a5d540de89e9fe90efdfc6973a4f -->
<g id="node5" class="node">
<title>dir_bdd9a5d540de89e9fe90efdfc6973a4f</title>
<g id="a_node5"><a xlink:href="dir_bdd9a5d540de89e9fe90efdfc6973a4f.html" target="_top" xlink:title="common">
<polygon fill="#deebf9" stroke="red" points="172.75,-19.25 119.25,-19.25 119.25,0 172.75,0 172.75,-19.25"/>
<text text-anchor="middle" x="146" y="-5.75" font-family="Helvetica,sans-Serif" font-size="10.00">common</text>
</a>
</g>
</g>
<!-- dir_11c221392ef51a238b9c195e459ef5de&#45;&gt;dir_bdd9a5d540de89e9fe90efdfc6973a4f -->
<g id="edge2" class="edge">
<title>dir_11c221392ef51a238b9c195e459ef5de&#45;&gt;dir_bdd9a5d540de89e9fe90efdfc6973a4f</title>
<g id="a_edge2"><a xlink:href="dir_000148_000042.html" target="_top">
<path fill="none" stroke="#63b8ff" d="M110.94,-55.08C116.62,-47.88 124.84,-37.46 131.89,-28.51"/>
<polygon fill="#63b8ff" stroke="#63b8ff" points="134.53,-30.82 137.98,-20.8 129.04,-26.48 134.53,-30.82"/>
</a>
</g>
<g id="a_edge2&#45;headlabel"><a xlink:href="dir_000148_000042.html" target="_top" xlink:title="2">
<text text-anchor="middle" x="135.47" y="-30.33" font-family="Helvetica,sans-Serif" font-size="10.00" fill="#63b8ff">2</text>
</a>
</g>
</g>
<!-- dir_dd15e966dfe8a4239d7e9367008bc621 -->
<g id="node3" class="node">
<title>dir_dd15e966dfe8a4239d7e9367008bc621</title>
<g id="a_node3"><a xlink:href="dir_dd15e966dfe8a4239d7e9367008bc621.html" target="_top" xlink:title="src">
<polygon fill="#60a2e3" stroke="#404040" points="126.75,-129.75 97.25,-129.75 97.25,-110.5 126.75,-110.5 126.75,-129.75"/>
<text text-anchor="middle" x="112" y="-116.25" font-family="Helvetica,sans-Serif" font-size="10.00">src</text>
</a>
</g>
</g>
<!-- dir_dd15e966dfe8a4239d7e9367008bc621&#45;&gt;dir_11c221392ef51a238b9c195e459ef5de -->
<g id="edge3" class="edge">
<title>dir_dd15e966dfe8a4239d7e9367008bc621&#45;&gt;dir_11c221392ef51a238b9c195e459ef5de</title>
<g id="a_edge3"><a xlink:href="dir_000363_000148.html" target="_top">
<path fill="none" stroke="#63b8ff" d="M110.68,-110.33C109.69,-103.74 108.29,-94.46 107.03,-86.07"/>
<polygon fill="#63b8ff" stroke="#63b8ff" points="110.52,-85.72 105.57,-76.36 103.6,-86.76 110.52,-85.72"/>
</a>
</g>
<g id="a_edge3&#45;headlabel"><a xlink:href="dir_000363_000148.html" target="_top" xlink:title="2">
<text text-anchor="middle" x="113.64" y="-83.49" font-family="Helvetica,sans-Serif" font-size="10.00" fill="#63b8ff">2</text>
</a>
</g>
</g>
<!-- dir_dd15e966dfe8a4239d7e9367008bc621&#45;&gt;dir_9be0baa3d4a3e9f480a9ee70594037fa -->
<g id="edge4" class="edge">
<title>dir_dd15e966dfe8a4239d7e9367008bc621&#45;&gt;dir_9be0baa3d4a3e9f480a9ee70594037fa</title>
<g id="a_edge4"><a xlink:href="dir_000363_000211.html" target="_top">
<path fill="none" stroke="#63b8ff" d="M100.41,-110.31C90.79,-102.2 77.77,-89.23 72,-74.5 66.6,-60.71 66.56,-43.94 67.76,-31.03"/>
<polygon fill="#63b8ff" stroke="#63b8ff" points="71.22,-31.55 69.02,-21.18 64.28,-30.66 71.22,-31.55"/>
</a>
</g>
<g id="a_edge4&#45;headlabel"><a xlink:href="dir_000363_000211.html" target="_top" xlink:title="17">
<text text-anchor="middle" x="73.77" y="-30.1" font-family="Helvetica,sans-Serif" font-size="10.00" fill="#63b8ff">17</text>
</a>
</g>
</g>
<!-- dir_dd15e966dfe8a4239d7e9367008bc621&#45;&gt;dir_bdd9a5d540de89e9fe90efdfc6973a4f -->
<g id="edge5" class="edge">
<title>dir_dd15e966dfe8a4239d7e9367008bc621&#45;&gt;dir_bdd9a5d540de89e9fe90efdfc6973a4f</title>
<g id="a_edge5"><a xlink:href="dir_000363_000042.html" target="_top">
<path fill="none" stroke="#63b8ff" d="M117.91,-110.3C123.47,-101.59 131.57,-87.67 136,-74.5 140.78,-60.3 143.29,-43.54 144.6,-30.75"/>
<polygon fill="#63b8ff" stroke="#63b8ff" points="148.07,-31.29 145.43,-21.03 141.09,-30.7 148.07,-31.29"/>
</a>
</g>
<g id="a_edge5&#45;headlabel"><a xlink:href="dir_000363_000042.html" target="_top" xlink:title="5">
<text text-anchor="middle" x="150.72" y="-29.73" font-family="Helvetica,sans-Serif" font-size="10.00" fill="#63b8ff">5</text>
</a>
</g>
</g>
</g>
</svg>
