<?xml version="1.0" encoding="UTF-8" standalone="no"?>
<!DOCTYPE svg PUBLIC "-//W3C//DTD SVG 1.1//EN"
 "http://www.w3.org/Graphics/SVG/1.1/DTD/svg11.dtd">
<!-- Generated by graphviz version 12.2.0 (20241103.1931)
 -->
<!-- Title: iop/hdd Pages: 1 -->
<svg width="570pt" height="142pt"
 viewBox="0.00 0.00 569.75 141.75" xmlns="http://www.w3.org/2000/svg" xmlns:xlink="http://www.w3.org/1999/xlink">
<g id="graph0" class="graph" transform="scale(1 1) rotate(0) translate(4 137.75)">
<title>iop/hdd</title>
<g id="clust1" class="cluster">
<title>clusterdir_0981ace215aa2029f526b70c145b9fbe</title>
<g id="a_clust1"><a xlink:href="dir_0981ace215aa2029f526b70c145b9fbe.html" target="_top" xlink:title="iop">
<polygon fill="#deebf9" stroke="#404040" stroke-dasharray="5,2" points="8,-8 8,-125.75 500,-125.75 500,-8 8,-8"/>
<text text-anchor="middle" x="254" y="-112.25" font-family="Helvetica,sans-Serif" font-size="10.00">iop</text>
</a>
</g>
</g>
<g id="clust2" class="cluster">
<title>clusterdir_b6763ea08a8f9364194ebe3565e6b1f0</title>
<g id="a_clust2"><a xlink:href="dir_b6763ea08a8f9364194ebe3565e6b1f0.html" target="_top">
<polygon fill="#deebf9" stroke="#404040" stroke-width="2" points="16,-63.25 16,-98.5 492,-98.5 492,-63.25 16,-63.25"/>
</a>
</g>
</g>
<!-- dir_9be0baa3d4a3e9f480a9ee70594037fa -->
<g id="node1" class="node">
<title>dir_9be0baa3d4a3e9f480a9ee70594037fa</title>
<g id="a_node1"><a xlink:href="dir_9be0baa3d4a3e9f480a9ee70594037fa.html" target="_top" xlink:title="kernel">
<polygon fill="#60a2e3" stroke="red" points="297.12,-35.25 254.88,-35.25 254.88,-16 297.12,-16 297.12,-35.25"/>
<text text-anchor="middle" x="276" y="-21.75" font-family="Helvetica,sans-Serif" font-size="10.00">kernel</text>
</a>
</g>
</g>
<!-- dir_6f16cad81de2453a6f48c5e272ba4a18 -->
<g id="node2" class="node">
<title>dir_6f16cad81de2453a6f48c5e272ba4a18</title>
<g id="a_node2"><a xlink:href="dir_6f16cad81de2453a6f48c5e272ba4a18.html" target="_top" xlink:title="dev9">
<polygon fill="#60a2e3" stroke="red" points="137.5,-35.25 100.5,-35.25 100.5,-16 137.5,-16 137.5,-35.25"/>
<text text-anchor="middle" x="119" y="-21.75" font-family="Helvetica,sans-Serif" font-size="10.00">dev9</text>
</a>
</g>
</g>
<!-- dir_b6763ea08a8f9364194ebe3565e6b1f0 -->
<g id="node3" class="node">
<title>dir_b6763ea08a8f9364194ebe3565e6b1f0</title>
<text text-anchor="middle" x="40" y="-77" font-family="Helvetica,sans-Serif" font-size="10.00">hdd</text>
</g>
<!-- dir_3cf15560dfc813cf049b4197fff2fad4 -->
<g id="node4" class="node">
<title>dir_3cf15560dfc813cf049b4197fff2fad4</title>
<g id="a_node4"><a xlink:href="dir_3cf15560dfc813cf049b4197fff2fad4.html" target="_top" xlink:title="apa">
<polygon fill="#60a2e3" stroke="#404040" points="214.88,-90.5 183.12,-90.5 183.12,-71.25 214.88,-71.25 214.88,-90.5"/>
<text text-anchor="middle" x="199" y="-77" font-family="Helvetica,sans-Serif" font-size="10.00">apa</text>
</a>
</g>
</g>
<!-- dir_3cf15560dfc813cf049b4197fff2fad4&#45;&gt;dir_9be0baa3d4a3e9f480a9ee70594037fa -->
<g id="edge1" class="edge">
<title>dir_3cf15560dfc813cf049b4197fff2fad4&#45;&gt;dir_9be0baa3d4a3e9f480a9ee70594037fa</title>
<g id="a_edge1"><a xlink:href="dir_000024_000211.html" target="_top">
<path fill="none" stroke="#63b8ff" d="M212.06,-70.84C223.46,-62.96 240.23,-51.36 253.74,-42.02"/>
<polygon fill="#63b8ff" stroke="#63b8ff" points="255.4,-45.13 261.63,-36.56 251.41,-39.37 255.4,-45.13"/>
</a>
</g>
<g id="a_edge1&#45;headlabel"><a xlink:href="dir_000024_000211.html" target="_top" xlink:title="16">
<text text-anchor="middle" x="255.3" y="-44.77" font-family="Helvetica,sans-Serif" font-size="10.00" fill="#63b8ff">16</text>
</a>
</g>
</g>
<!-- dir_bdd9a5d540de89e9fe90efdfc6973a4f -->
<g id="node12" class="node">
<title>dir_bdd9a5d540de89e9fe90efdfc6973a4f</title>
<g id="a_node12"><a xlink:href="dir_bdd9a5d540de89e9fe90efdfc6973a4f.html" target="_top" xlink:title="common">
<polygon fill="#deebf9" stroke="red" points="561.75,-35.25 508.25,-35.25 508.25,-16 561.75,-16 561.75,-35.25"/>
<text text-anchor="middle" x="535" y="-21.75" font-family="Helvetica,sans-Serif" font-size="10.00">common</text>
</a>
</g>
</g>
<!-- dir_3cf15560dfc813cf049b4197fff2fad4&#45;&gt;dir_bdd9a5d540de89e9fe90efdfc6973a4f -->
<g id="edge2" class="edge">
<title>dir_3cf15560dfc813cf049b4197fff2fad4&#45;&gt;dir_bdd9a5d540de89e9fe90efdfc6973a4f</title>
<g id="a_edge2"><a xlink:href="dir_000024_000042.html" target="_top">
<path fill="none" stroke="#63b8ff" d="M210.07,-70.83C214.2,-67.92 219.09,-65 224,-63.25 338.2,-22.43 378.63,-56.14 496.72,-36.43"/>
<polygon fill="#63b8ff" stroke="#63b8ff" points="497.29,-39.89 506.52,-34.69 496.06,-33 497.29,-39.89"/>
</a>
</g>
<g id="a_edge2&#45;headlabel"><a xlink:href="dir_000024_000042.html" target="_top" xlink:title="4">
<text text-anchor="middle" x="495.74" y="-39.17" font-family="Helvetica,sans-Serif" font-size="10.00" fill="#63b8ff">4</text>
</a>
</g>
</g>
<!-- dir_9541e23af0221debb6bd9c707cda09ba -->
<g id="node5" class="node">
<title>dir_9541e23af0221debb6bd9c707cda09ba</title>
<g id="a_node5"><a xlink:href="dir_9541e23af0221debb6bd9c707cda09ba.html" target="_top" xlink:title="fsck">
<polygon fill="#60a2e3" stroke="#404040" points="267.38,-90.5 232.62,-90.5 232.62,-71.25 267.38,-71.25 267.38,-90.5"/>
<text text-anchor="middle" x="250" y="-77" font-family="Helvetica,sans-Serif" font-size="10.00">fsck</text>
</a>
</g>
</g>
<!-- dir_9541e23af0221debb6bd9c707cda09ba&#45;&gt;dir_9be0baa3d4a3e9f480a9ee70594037fa -->
<g id="edge4" class="edge">
<title>dir_9541e23af0221debb6bd9c707cda09ba&#45;&gt;dir_9be0baa3d4a3e9f480a9ee70594037fa</title>
<g id="a_edge4"><a xlink:href="dir_000075_000211.html" target="_top">
<path fill="none" stroke="#63b8ff" d="M254.29,-71.08C257.62,-64.26 262.36,-54.56 266.56,-45.95"/>
<polygon fill="#63b8ff" stroke="#63b8ff" points="269.71,-47.49 270.95,-36.97 263.42,-44.42 269.71,-47.49"/>
</a>
</g>
<g id="a_edge4&#45;headlabel"><a xlink:href="dir_000075_000211.html" target="_top" xlink:title="22">
<text text-anchor="middle" x="271.35" y="-46.73" font-family="Helvetica,sans-Serif" font-size="10.00" fill="#63b8ff">22</text>
</a>
</g>
</g>
<!-- dir_9541e23af0221debb6bd9c707cda09ba&#45;&gt;dir_bdd9a5d540de89e9fe90efdfc6973a4f -->
<g id="edge3" class="edge">
<title>dir_9541e23af0221debb6bd9c707cda09ba&#45;&gt;dir_bdd9a5d540de89e9fe90efdfc6973a4f</title>
<g id="a_edge3"><a xlink:href="dir_000075_000042.html" target="_top">
<path fill="none" stroke="#63b8ff" d="M262.07,-70.91C266.55,-68.01 271.81,-65.07 277,-63.25 369.37,-30.86 401.9,-53.34 496.75,-36.52"/>
<polygon fill="#63b8ff" stroke="#63b8ff" points="497.34,-39.97 506.52,-34.67 496.04,-33.09 497.34,-39.97"/>
</a>
</g>
<g id="a_edge3&#45;headlabel"><a xlink:href="dir_000075_000042.html" target="_top" xlink:title="4">
<text text-anchor="middle" x="495.82" y="-39.27" font-family="Helvetica,sans-Serif" font-size="10.00" fill="#63b8ff">4</text>
</a>
</g>
</g>
<!-- dir_2df0faac20d9a51e003e7c685c1cc5dd -->
<g id="node6" class="node">
<title>dir_2df0faac20d9a51e003e7c685c1cc5dd</title>
<g id="a_node6"><a xlink:href="dir_2df0faac20d9a51e003e7c685c1cc5dd.html" target="_top" xlink:title="fssk">
<polygon fill="#60a2e3" stroke="#404040" points="320.38,-90.5 285.62,-90.5 285.62,-71.25 320.38,-71.25 320.38,-90.5"/>
<text text-anchor="middle" x="303" y="-77" font-family="Helvetica,sans-Serif" font-size="10.00">fssk</text>
</a>
</g>
</g>
<!-- dir_2df0faac20d9a51e003e7c685c1cc5dd&#45;&gt;dir_9be0baa3d4a3e9f480a9ee70594037fa -->
<g id="edge6" class="edge">
<title>dir_2df0faac20d9a51e003e7c685c1cc5dd&#45;&gt;dir_9be0baa3d4a3e9f480a9ee70594037fa</title>
<g id="a_edge6"><a xlink:href="dir_000076_000211.html" target="_top">
<path fill="none" stroke="#63b8ff" d="M298.54,-71.08C295.05,-64.19 290.05,-54.34 285.65,-45.66"/>
<polygon fill="#63b8ff" stroke="#63b8ff" points="288.88,-44.3 281.24,-36.96 282.64,-47.46 288.88,-44.3"/>
</a>
</g>
<g id="a_edge6&#45;headlabel"><a xlink:href="dir_000076_000211.html" target="_top" xlink:title="19">
<text text-anchor="middle" x="292.36" y="-40.99" font-family="Helvetica,sans-Serif" font-size="10.00" fill="#63b8ff">19</text>
</a>
</g>
</g>
<!-- dir_2df0faac20d9a51e003e7c685c1cc5dd&#45;&gt;dir_bdd9a5d540de89e9fe90efdfc6973a4f -->
<g id="edge5" class="edge">
<title>dir_2df0faac20d9a51e003e7c685c1cc5dd&#45;&gt;dir_bdd9a5d540de89e9fe90efdfc6973a4f</title>
<g id="a_edge5"><a xlink:href="dir_000076_000042.html" target="_top">
<path fill="none" stroke="#63b8ff" d="M314.88,-70.83C319.13,-67.99 324.09,-65.12 329,-63.25 399.16,-36.54 424.65,-50.58 496.97,-36.6"/>
<polygon fill="#63b8ff" stroke="#63b8ff" points="497.42,-40.09 506.51,-34.64 496.01,-33.23 497.42,-40.09"/>
</a>
</g>
<g id="a_edge5&#45;headlabel"><a xlink:href="dir_000076_000042.html" target="_top" xlink:title="2">
<text text-anchor="middle" x="495.96" y="-39.41" font-family="Helvetica,sans-Serif" font-size="10.00" fill="#63b8ff">2</text>
</a>
</g>
</g>
<!-- dir_f24565d8e5c1fee073eb5b759b3d7497 -->
<g id="node7" class="node">
<title>dir_f24565d8e5c1fee073eb5b759b3d7497</title>
<g id="a_node7"><a xlink:href="dir_f24565d8e5c1fee073eb5b759b3d7497.html" target="_top" xlink:title="hdck">
<polygon fill="#60a2e3" stroke="#404040" points="110.5,-90.5 73.5,-90.5 73.5,-71.25 110.5,-71.25 110.5,-90.5"/>
<text text-anchor="middle" x="92" y="-77" font-family="Helvetica,sans-Serif" font-size="10.00">hdck</text>
</a>
</g>
</g>
<!-- dir_f24565d8e5c1fee073eb5b759b3d7497&#45;&gt;dir_9be0baa3d4a3e9f480a9ee70594037fa -->
<g id="edge9" class="edge">
<title>dir_f24565d8e5c1fee073eb5b759b3d7497&#45;&gt;dir_9be0baa3d4a3e9f480a9ee70594037fa</title>
<g id="a_edge9"><a xlink:href="dir_000079_000211.html" target="_top">
<path fill="none" stroke="#63b8ff" d="M105.24,-70.89C109.77,-68.12 114.97,-65.28 120,-63.25 161.02,-46.71 211.25,-36.59 243.44,-31.29"/>
<polygon fill="#63b8ff" stroke="#63b8ff" points="243.6,-34.81 252.93,-29.79 242.51,-27.9 243.6,-34.81"/>
</a>
</g>
<g id="a_edge9&#45;headlabel"><a xlink:href="dir_000079_000211.html" target="_top" xlink:title="13">
<text text-anchor="middle" x="241.99" y="-34.07" font-family="Helvetica,sans-Serif" font-size="10.00" fill="#63b8ff">13</text>
</a>
</g>
</g>
<!-- dir_f24565d8e5c1fee073eb5b759b3d7497&#45;&gt;dir_6f16cad81de2453a6f48c5e272ba4a18 -->
<g id="edge7" class="edge">
<title>dir_f24565d8e5c1fee073eb5b759b3d7497&#45;&gt;dir_6f16cad81de2453a6f48c5e272ba4a18</title>
<g id="a_edge7"><a xlink:href="dir_000079_000046.html" target="_top">
<path fill="none" stroke="#63b8ff" d="M96.46,-71.08C99.95,-64.19 104.95,-54.34 109.35,-45.66"/>
<polygon fill="#63b8ff" stroke="#63b8ff" points="112.36,-47.46 113.76,-36.96 106.12,-44.3 112.36,-47.46"/>
</a>
</g>
<g id="a_edge7&#45;headlabel"><a xlink:href="dir_000079_000046.html" target="_top" xlink:title="4">
<text text-anchor="middle" x="113.95" y="-46.73" font-family="Helvetica,sans-Serif" font-size="10.00" fill="#63b8ff">4</text>
</a>
</g>
</g>
<!-- dir_f24565d8e5c1fee073eb5b759b3d7497&#45;&gt;dir_bdd9a5d540de89e9fe90efdfc6973a4f -->
<g id="edge8" class="edge">
<title>dir_f24565d8e5c1fee073eb5b759b3d7497&#45;&gt;dir_bdd9a5d540de89e9fe90efdfc6973a4f</title>
<g id="a_edge8"><a xlink:href="dir_000079_000042.html" target="_top">
<path fill="none" stroke="#63b8ff" d="M104.51,-70.77C109.15,-67.85 114.61,-64.94 120,-63.25 279.75,-13.08 333.12,-62.34 497.06,-36.3"/>
<polygon fill="#63b8ff" stroke="#63b8ff" points="497.24,-39.82 506.53,-34.72 496.09,-32.91 497.24,-39.82"/>
</a>
</g>
<g id="a_edge8&#45;headlabel"><a xlink:href="dir_000079_000042.html" target="_top" xlink:title="2">
<text text-anchor="middle" x="495.65" y="-39.08" font-family="Helvetica,sans-Serif" font-size="10.00" fill="#63b8ff">2</text>
</a>
</g>
</g>
<!-- dir_00d6fa0d09c5792a738445385c091044 -->
<g id="node8" class="node">
<title>dir_00d6fa0d09c5792a738445385c091044</title>
<g id="a_node8"><a xlink:href="dir_00d6fa0d09c5792a738445385c091044.html" target="_top" xlink:title="hdsk">
<polygon fill="#60a2e3" stroke="#404040" points="165.5,-90.5 128.5,-90.5 128.5,-71.25 165.5,-71.25 165.5,-90.5"/>
<text text-anchor="middle" x="147" y="-77" font-family="Helvetica,sans-Serif" font-size="10.00">hdsk</text>
</a>
</g>
</g>
<!-- dir_00d6fa0d09c5792a738445385c091044&#45;&gt;dir_9be0baa3d4a3e9f480a9ee70594037fa -->
<g id="edge12" class="edge">
<title>dir_00d6fa0d09c5792a738445385c091044&#45;&gt;dir_9be0baa3d4a3e9f480a9ee70594037fa</title>
<g id="a_edge12"><a xlink:href="dir_000083_000211.html" target="_top">
<path fill="none" stroke="#63b8ff" d="M160.43,-70.85C164.67,-68.21 169.44,-65.45 174,-63.25 196.5,-52.43 223.08,-42.98 243.46,-36.4"/>
<polygon fill="#63b8ff" stroke="#63b8ff" points="244.45,-39.76 252.94,-33.41 242.35,-33.08 244.45,-39.76"/>
</a>
</g>
<g id="a_edge12&#45;headlabel"><a xlink:href="dir_000083_000211.html" target="_top" xlink:title="25">
<text text-anchor="middle" x="243.32" y="-39.22" font-family="Helvetica,sans-Serif" font-size="10.00" fill="#63b8ff">25</text>
</a>
</g>
</g>
<!-- dir_00d6fa0d09c5792a738445385c091044&#45;&gt;dir_6f16cad81de2453a6f48c5e272ba4a18 -->
<g id="edge10" class="edge">
<title>dir_00d6fa0d09c5792a738445385c091044&#45;&gt;dir_6f16cad81de2453a6f48c5e272ba4a18</title>
<g id="a_edge10"><a xlink:href="dir_000083_000046.html" target="_top">
<path fill="none" stroke="#63b8ff" d="M142.38,-71.08C138.75,-64.19 133.57,-54.34 129.01,-45.66"/>
<polygon fill="#63b8ff" stroke="#63b8ff" points="132.18,-44.17 124.43,-36.95 125.98,-47.43 132.18,-44.17"/>
</a>
</g>
<g id="a_edge10&#45;headlabel"><a xlink:href="dir_000083_000046.html" target="_top" xlink:title="5">
<text text-anchor="middle" x="135.66" y="-40.82" font-family="Helvetica,sans-Serif" font-size="10.00" fill="#63b8ff">5</text>
</a>
</g>
</g>
<!-- dir_00d6fa0d09c5792a738445385c091044&#45;&gt;dir_bdd9a5d540de89e9fe90efdfc6973a4f -->
<g id="edge11" class="edge">
<title>dir_00d6fa0d09c5792a738445385c091044&#45;&gt;dir_bdd9a5d540de89e9fe90efdfc6973a4f</title>
<g id="a_edge11"><a xlink:href="dir_000083_000042.html" target="_top">
<path fill="none" stroke="#63b8ff" d="M159.03,-70.8C163.51,-67.89 168.77,-64.97 174,-63.25 310.25,-18.36 356.77,-59.13 496.87,-36.36"/>
<polygon fill="#63b8ff" stroke="#63b8ff" points="497.26,-39.85 506.53,-34.71 496.08,-32.95 497.26,-39.85"/>
</a>
</g>
<g id="a_edge11&#45;headlabel"><a xlink:href="dir_000083_000042.html" target="_top" xlink:title="5">
<text text-anchor="middle" x="495.69" y="-39.12" font-family="Helvetica,sans-Serif" font-size="10.00" fill="#63b8ff">5</text>
</a>
</g>
</g>
<!-- dir_74c6a9c949eb32128aa5a6adc613f35b -->
<g id="node9" class="node">
<title>dir_74c6a9c949eb32128aa5a6adc613f35b</title>
<g id="a_node9"><a xlink:href="dir_74c6a9c949eb32128aa5a6adc613f35b.html" target="_top" xlink:title="libapa">
<polygon fill="#60a2e3" stroke="#404040" points="379.75,-90.5 338.25,-90.5 338.25,-71.25 379.75,-71.25 379.75,-90.5"/>
<text text-anchor="middle" x="359" y="-77" font-family="Helvetica,sans-Serif" font-size="10.00">libapa</text>
</a>
</g>
</g>
<!-- dir_74c6a9c949eb32128aa5a6adc613f35b&#45;&gt;dir_9be0baa3d4a3e9f480a9ee70594037fa -->
<g id="edge14" class="edge">
<title>dir_74c6a9c949eb32128aa5a6adc613f35b&#45;&gt;dir_9be0baa3d4a3e9f480a9ee70594037fa</title>
<g id="a_edge14"><a xlink:href="dir_000214_000211.html" target="_top">
<path fill="none" stroke="#63b8ff" d="M344.92,-70.84C332.52,-62.89 314.21,-51.14 299.57,-41.75"/>
<polygon fill="#63b8ff" stroke="#63b8ff" points="301.73,-38.97 291.42,-36.52 297.95,-44.87 301.73,-38.97"/>
</a>
</g>
<g id="a_edge14&#45;headlabel"><a xlink:href="dir_000214_000211.html" target="_top" xlink:title="13">
<text text-anchor="middle" x="305.01" y="-33.83" font-family="Helvetica,sans-Serif" font-size="10.00" fill="#63b8ff">13</text>
</a>
</g>
</g>
<!-- dir_74c6a9c949eb32128aa5a6adc613f35b&#45;&gt;dir_bdd9a5d540de89e9fe90efdfc6973a4f -->
<g id="edge13" class="edge">
<title>dir_74c6a9c949eb32128aa5a6adc613f35b&#45;&gt;dir_bdd9a5d540de89e9fe90efdfc6973a4f</title>
<g id="a_edge13"><a xlink:href="dir_000214_000042.html" target="_top">
<path fill="none" stroke="#63b8ff" d="M373.05,-70.75C377.68,-68.04 382.93,-65.27 388,-63.25 433.81,-45.02 450.34,-48.01 496.87,-36.97"/>
<polygon fill="#63b8ff" stroke="#63b8ff" points="497.64,-40.38 506.49,-34.57 495.95,-33.59 497.64,-40.38"/>
</a>
</g>
<g id="a_edge13&#45;headlabel"><a xlink:href="dir_000214_000042.html" target="_top" xlink:title="13">
<text text-anchor="middle" x="496.3" y="-39.77" font-family="Helvetica,sans-Serif" font-size="10.00" fill="#63b8ff">13</text>
</a>
</g>
</g>
<!-- dir_5b638697113ca3fae3dbb2942f3ebff2 -->
<g id="node10" class="node">
<title>dir_5b638697113ca3fae3dbb2942f3ebff2</title>
<g id="a_node10"><a xlink:href="dir_5b638697113ca3fae3dbb2942f3ebff2.html" target="_top" xlink:title="libpfs">
<polygon fill="#60a2e3" stroke="#404040" points="436.62,-90.5 397.38,-90.5 397.38,-71.25 436.62,-71.25 436.62,-90.5"/>
<text text-anchor="middle" x="417" y="-77" font-family="Helvetica,sans-Serif" font-size="10.00">libpfs</text>
</a>
</g>
</g>
<!-- dir_5b638697113ca3fae3dbb2942f3ebff2&#45;&gt;dir_9be0baa3d4a3e9f480a9ee70594037fa -->
<g id="edge16" class="edge">
<title>dir_5b638697113ca3fae3dbb2942f3ebff2&#45;&gt;dir_9be0baa3d4a3e9f480a9ee70594037fa</title>
<g id="a_edge16"><a xlink:href="dir_000219_000211.html" target="_top">
<path fill="none" stroke="#63b8ff" d="M403.08,-70.79C398.69,-68.14 393.74,-65.39 389,-63.25 362.64,-51.33 331.23,-41.48 308.23,-35"/>
<polygon fill="#63b8ff" stroke="#63b8ff" points="309.38,-31.69 298.81,-32.42 307.53,-38.44 309.38,-31.69"/>
</a>
</g>
<g id="a_edge16&#45;headlabel"><a xlink:href="dir_000219_000211.html" target="_top" xlink:title="14">
<text text-anchor="middle" x="312.14" y="-25.63" font-family="Helvetica,sans-Serif" font-size="10.00" fill="#63b8ff">14</text>
</a>
</g>
</g>
<!-- dir_5b638697113ca3fae3dbb2942f3ebff2&#45;&gt;dir_bdd9a5d540de89e9fe90efdfc6973a4f -->
<g id="edge15" class="edge">
<title>dir_5b638697113ca3fae3dbb2942f3ebff2&#45;&gt;dir_bdd9a5d540de89e9fe90efdfc6973a4f</title>
<g id="a_edge15"><a xlink:href="dir_000219_000042.html" target="_top">
<path fill="none" stroke="#63b8ff" d="M431.3,-70.83C435.63,-68.24 440.44,-65.51 445,-63.25 462.47,-54.57 482.53,-46.25 499.27,-39.75"/>
<polygon fill="#63b8ff" stroke="#63b8ff" points="500.22,-43.13 508.31,-36.29 497.72,-36.59 500.22,-43.13"/>
</a>
</g>
<g id="a_edge15&#45;headlabel"><a xlink:href="dir_000219_000042.html" target="_top" xlink:title="14">
<text text-anchor="middle" x="499.29" y="-42.65" font-family="Helvetica,sans-Serif" font-size="10.00" fill="#63b8ff">14</text>
</a>
</g>
</g>
<!-- dir_cece7c3de560cfc4de14abf3198b3696 -->
<g id="node11" class="node">
<title>dir_cece7c3de560cfc4de14abf3198b3696</title>
<g id="a_node11"><a xlink:href="dir_cece7c3de560cfc4de14abf3198b3696.html" target="_top" xlink:title="pfs">
<polygon fill="#60a2e3" stroke="#404040" points="483.75,-90.5 454.25,-90.5 454.25,-71.25 483.75,-71.25 483.75,-90.5"/>
<text text-anchor="middle" x="469" y="-77" font-family="Helvetica,sans-Serif" font-size="10.00">pfs</text>
</a>
</g>
</g>
<!-- dir_cece7c3de560cfc4de14abf3198b3696&#45;&gt;dir_9be0baa3d4a3e9f480a9ee70594037fa -->
<g id="edge17" class="edge">
<title>dir_cece7c3de560cfc4de14abf3198b3696&#45;&gt;dir_9be0baa3d4a3e9f480a9ee70594037fa</title>
<g id="a_edge17"><a xlink:href="dir_000258_000211.html" target="_top">
<path fill="none" stroke="#63b8ff" d="M458.34,-70.77C454.64,-67.99 450.32,-65.17 446,-63.25 400.78,-43.11 343.75,-33.74 308.58,-29.61"/>
<polygon fill="#63b8ff" stroke="#63b8ff" points="309.37,-26.18 299.05,-28.57 308.61,-33.14 309.37,-26.18"/>
</a>
</g>
<g id="a_edge17&#45;headlabel"><a xlink:href="dir_000258_000211.html" target="_top" xlink:title="19">
<text text-anchor="middle" x="311.75" y="-19.71" font-family="Helvetica,sans-Serif" font-size="10.00" fill="#63b8ff">19</text>
</a>
</g>
</g>
<!-- dir_cece7c3de560cfc4de14abf3198b3696&#45;&gt;dir_bdd9a5d540de89e9fe90efdfc6973a4f -->
<g id="edge18" class="edge">
<title>dir_cece7c3de560cfc4de14abf3198b3696&#45;&gt;dir_bdd9a5d540de89e9fe90efdfc6973a4f</title>
<g id="a_edge18"><a xlink:href="dir_000258_000042.html" target="_top">
<path fill="none" stroke="#63b8ff" d="M480.2,-70.84C489.74,-63.15 503.67,-51.9 515.11,-42.68"/>
<polygon fill="#63b8ff" stroke="#63b8ff" points="517.21,-45.48 522.79,-36.48 512.81,-40.03 517.21,-45.48"/>
</a>
</g>
<g id="a_edge18&#45;headlabel"><a xlink:href="dir_000258_000042.html" target="_top" xlink:title="5">
<text text-anchor="middle" x="517.37" y="-45.12" font-family="Helvetica,sans-Serif" font-size="10.00" fill="#63b8ff">5</text>
</a>
</g>
</g>
</g>
</svg>
