<?xml version="1.0" encoding="UTF-8" standalone="no"?>
<!DOCTYPE svg PUBLIC "-//W3C//DTD SVG 1.1//EN"
 "http://www.w3.org/Graphics/SVG/1.1/DTD/svg11.dtd">
<!-- Generated by graphviz version 12.2.0 (20241103.1931)
 -->
<!-- Title: iop/kernel/include/dmacman.h Pages: 1 -->
<svg width="2530pt" height="238pt"
 viewBox="0.00 0.00 2529.88 238.00" xmlns="http://www.w3.org/2000/svg" xmlns:xlink="http://www.w3.org/1999/xlink">
<g id="graph0" class="graph" transform="scale(1 1) rotate(0) translate(4 234)">
<title>iop/kernel/include/dmacman.h</title>
<!-- Node1 -->
<g id="Node000001" class="node">
<title>Node1</title>
<g id="a_Node000001"><a xlink:title=" ">
<polygon fill="#999999" stroke="#666666" points="1399.75,-230 1308,-230 1308,-199.5 1399.75,-199.5 1399.75,-230"/>
<text text-anchor="start" x="1316" y="-216.5" font-family="Helvetica,sans-Serif" font-size="10.00">iop/kernel/include</text>
<text text-anchor="middle" x="1353.88" y="-205.25" font-family="Helvetica,sans-Serif" font-size="10.00">/dmacman.h</text>
</a>
</g>
</g>
<!-- Node2 -->
<g id="Node000002" class="node">
<title>Node2</title>
<g id="a_Node000002"><a xlink:href="iop_2arcade_2accore_2src_2irx__imports_8h_source.html" target="_top" xlink:title=" ">
<polygon fill="white" stroke="#666666" points="301.75,-163.5 192,-163.5 192,-133 301.75,-133 301.75,-163.5"/>
<text text-anchor="start" x="200" y="-150" font-family="Helvetica,sans-Serif" font-size="10.00">iop/arcade/accore/src</text>
<text text-anchor="middle" x="246.88" y="-138.75" font-family="Helvetica,sans-Serif" font-size="10.00">/irx_imports.h</text>
</a>
</g>
</g>
<!-- Node1&#45;&gt;Node2 -->
<g id="edge1_Node000001_Node000002" class="edge">
<title>Node1&#45;&gt;Node2</title>
<g id="a_edge1_Node000001_Node000002"><a xlink:title=" ">
<path fill="none" stroke="#63b8ff" d="M1296.3,-214.42C1138.15,-215.5 684.01,-213.65 310.88,-163.5 307.94,-163.11 304.94,-162.64 301.93,-162.13"/>
<polygon fill="#63b8ff" stroke="#63b8ff" points="1296.13,-217.92 1306.1,-214.34 1296.07,-210.92 1296.13,-217.92"/>
</a>
</g>
</g>
<!-- Node8 -->
<g id="Node000008" class="node">
<title>Node8</title>
<g id="a_Node000008"><a xlink:href="iop_2dev9_2dev9_2src_2irx__imports_8h_source.html" target="_top" xlink:title=" ">
<polygon fill="white" stroke="#666666" points="425.88,-163.5 319.88,-163.5 319.88,-133 425.88,-133 425.88,-163.5"/>
<text text-anchor="start" x="327.88" y="-150" font-family="Helvetica,sans-Serif" font-size="10.00">iop/dev9/dev9/src/irx</text>
<text text-anchor="middle" x="372.88" y="-138.75" font-family="Helvetica,sans-Serif" font-size="10.00">_imports.h</text>
</a>
</g>
</g>
<!-- Node1&#45;&gt;Node8 -->
<g id="edge7_Node000001_Node000008" class="edge">
<title>Node1&#45;&gt;Node8</title>
<g id="a_edge7_Node000001_Node000008"><a xlink:title=" ">
<path fill="none" stroke="#63b8ff" d="M1296.47,-214.01C1151.35,-213.95 758.37,-209.18 434.88,-163.5 432.03,-163.1 429.13,-162.63 426.2,-162.12"/>
<polygon fill="#63b8ff" stroke="#63b8ff" points="1296.19,-217.51 1306.19,-214.01 1296.19,-210.51 1296.19,-217.51"/>
</a>
</g>
</g>
<!-- Node9 -->
<g id="Node000009" class="node">
<title>Node9</title>
<g id="a_Node000009"><a xlink:href="ps2dev9_8c.html" target="_top" xlink:title=" ">
<polygon fill="white" stroke="#666666" points="584.12,-157.88 443.62,-157.88 443.62,-138.62 584.12,-138.62 584.12,-157.88"/>
<text text-anchor="middle" x="513.88" y="-144.38" font-family="Helvetica,sans-Serif" font-size="10.00">iop/dev9/dev9/src/ps2dev9.c</text>
</a>
</g>
</g>
<!-- Node1&#45;&gt;Node9 -->
<g id="edge8_Node000001_Node000009" class="edge">
<title>Node1&#45;&gt;Node9</title>
<g id="a_edge8_Node000001_Node000009"><a xlink:title=" ">
<path fill="none" stroke="#63b8ff" d="M1296.46,-212.16C1169.29,-208.17 854.45,-195.62 592.88,-163.5 581.95,-162.16 570.24,-160.29 559.28,-158.34"/>
<polygon fill="#63b8ff" stroke="#63b8ff" points="1296.2,-215.66 1306.3,-212.47 1296.41,-208.66 1296.2,-215.66"/>
</a>
</g>
</g>
<!-- Node10 -->
<g id="Node000010" class="node">
<title>Node10</title>
<g id="a_Node000010"><a xlink:href="iop_2dev9_2extflash_2src_2irx__imports_8h_source.html" target="_top" xlink:title=" ">
<polygon fill="white" stroke="#666666" points="707.5,-163.5 602.25,-163.5 602.25,-133 707.5,-133 707.5,-163.5"/>
<text text-anchor="start" x="610.25" y="-150" font-family="Helvetica,sans-Serif" font-size="10.00">iop/dev9/extflash/src</text>
<text text-anchor="middle" x="654.88" y="-138.75" font-family="Helvetica,sans-Serif" font-size="10.00">/irx_imports.h</text>
</a>
</g>
</g>
<!-- Node1&#45;&gt;Node10 -->
<g id="edge9_Node000001_Node000010" class="edge">
<title>Node1&#45;&gt;Node10</title>
<g id="a_edge9_Node000001_Node000010"><a xlink:title=" ">
<path fill="none" stroke="#63b8ff" d="M1296.18,-212.12C1183.86,-208.3 928.22,-196.47 715.88,-163.5 713.19,-163.08 710.44,-162.61 707.68,-162.1"/>
<polygon fill="#63b8ff" stroke="#63b8ff" points="1295.94,-215.61 1306.05,-212.45 1296.17,-208.62 1295.94,-215.61"/>
</a>
</g>
</g>
<!-- Node11 -->
<g id="Node000011" class="node">
<title>Node11</title>
<g id="a_Node000011"><a xlink:href="i_link_8c_source.html" target="_top" xlink:title=" ">
<polygon fill="white" stroke="#666666" points="820.62,-163.5 725.12,-163.5 725.12,-133 820.62,-133 820.62,-163.5"/>
<text text-anchor="start" x="733.12" y="-150" font-family="Helvetica,sans-Serif" font-size="10.00">iop/iLink/iLinkman</text>
<text text-anchor="middle" x="772.88" y="-138.75" font-family="Helvetica,sans-Serif" font-size="10.00">/src/iLink.c</text>
</a>
</g>
</g>
<!-- Node1&#45;&gt;Node11 -->
<g id="edge10_Node000001_Node000011" class="edge">
<title>Node1&#45;&gt;Node11</title>
<g id="a_edge10_Node000001_Node000011"><a xlink:title=" ">
<path fill="none" stroke="#63b8ff" d="M1296.38,-211.05C1199.54,-205.88 998,-192.41 829.88,-163.5 826.96,-163 823.97,-162.43 820.97,-161.81"/>
<polygon fill="#63b8ff" stroke="#63b8ff" points="1295.98,-214.53 1306.15,-211.56 1296.34,-207.54 1295.98,-214.53"/>
</a>
</g>
</g>
<!-- Node12 -->
<g id="Node000012" class="node">
<title>Node12</title>
<g id="a_Node000012"><a xlink:href="i_link___d_m_a_8c_source.html" target="_top" xlink:title=" ">
<polygon fill="white" stroke="#666666" points="934.62,-163.5 839.12,-163.5 839.12,-133 934.62,-133 934.62,-163.5"/>
<text text-anchor="start" x="847.12" y="-150" font-family="Helvetica,sans-Serif" font-size="10.00">iop/iLink/iLinkman</text>
<text text-anchor="middle" x="886.88" y="-138.75" font-family="Helvetica,sans-Serif" font-size="10.00">/src/iLink_DMA.c</text>
</a>
</g>
</g>
<!-- Node1&#45;&gt;Node12 -->
<g id="edge11_Node000001_Node000012" class="edge">
<title>Node1&#45;&gt;Node12</title>
<g id="a_edge11_Node000001_Node000012"><a xlink:title=" ">
<path fill="none" stroke="#63b8ff" d="M1296.55,-208.97C1216.97,-201.82 1068.71,-186.66 943.88,-163.5 940.97,-162.96 937.99,-162.36 934.99,-161.72"/>
<polygon fill="#63b8ff" stroke="#63b8ff" points="1296.01,-212.43 1306.28,-209.83 1296.63,-205.46 1296.01,-212.43"/>
</a>
</g>
</g>
<!-- Node13 -->
<g id="Node000013" class="node">
<title>Node13</title>
<g id="a_Node000013"><a xlink:href="i_link__internal_8c_source.html" target="_top" xlink:title=" ">
<polygon fill="white" stroke="#666666" points="1053.25,-163.5 952.5,-163.5 952.5,-133 1053.25,-133 1053.25,-163.5"/>
<text text-anchor="start" x="960.5" y="-150" font-family="Helvetica,sans-Serif" font-size="10.00">iop/iLink/iLinkman</text>
<text text-anchor="middle" x="1002.88" y="-138.75" font-family="Helvetica,sans-Serif" font-size="10.00">/src/iLink_internal.c</text>
</a>
</g>
</g>
<!-- Node1&#45;&gt;Node13 -->
<g id="edge12_Node000001_Node000013" class="edge">
<title>Node1&#45;&gt;Node13</title>
<g id="a_edge12_Node000001_Node000013"><a xlink:title=" ">
<path fill="none" stroke="#63b8ff" d="M1296.35,-205.01C1237.31,-195.77 1142.87,-180.23 1061.88,-163.5 1059.19,-162.95 1056.45,-162.36 1053.68,-161.75"/>
<polygon fill="#63b8ff" stroke="#63b8ff" points="1295.76,-208.46 1306.18,-206.54 1296.84,-201.54 1295.76,-208.46"/>
</a>
</g>
</g>
<!-- Node14 -->
<g id="Node000014" class="node">
<title>Node14</title>
<g id="a_Node000014"><a xlink:href="i_link__intr_8c_source.html" target="_top" xlink:title=" ">
<polygon fill="white" stroke="#666666" points="1166.62,-163.5 1071.12,-163.5 1071.12,-133 1166.62,-133 1166.62,-163.5"/>
<text text-anchor="start" x="1079.12" y="-150" font-family="Helvetica,sans-Serif" font-size="10.00">iop/iLink/iLinkman</text>
<text text-anchor="middle" x="1118.88" y="-138.75" font-family="Helvetica,sans-Serif" font-size="10.00">/src/iLink_intr.c</text>
</a>
</g>
</g>
<!-- Node1&#45;&gt;Node14 -->
<g id="edge13_Node000001_Node000014" class="edge">
<title>Node1&#45;&gt;Node14</title>
<g id="a_edge13_Node000001_Node000014"><a xlink:title=" ">
<path fill="none" stroke="#63b8ff" d="M1296.87,-198.1C1257.09,-187.19 1204.59,-172.78 1166.94,-162.44"/>
<polygon fill="#63b8ff" stroke="#63b8ff" points="1295.7,-201.41 1306.27,-200.68 1297.55,-194.66 1295.7,-201.41"/>
</a>
</g>
</g>
<!-- Node15 -->
<g id="Node000015" class="node">
<title>Node15</title>
<g id="a_Node000015"><a xlink:href="iop_2i_link_2i_linkman_2src_2irx__imports_8h_source.html" target="_top" xlink:title=" ">
<polygon fill="white" stroke="#666666" points="1280.62,-163.5 1185.12,-163.5 1185.12,-133 1280.62,-133 1280.62,-163.5"/>
<text text-anchor="start" x="1193.12" y="-150" font-family="Helvetica,sans-Serif" font-size="10.00">iop/iLink/iLinkman</text>
<text text-anchor="middle" x="1232.88" y="-138.75" font-family="Helvetica,sans-Serif" font-size="10.00">/src/irx_imports.h</text>
</a>
</g>
</g>
<!-- Node1&#45;&gt;Node15 -->
<g id="edge14_Node000001_Node000015" class="edge">
<title>Node1&#45;&gt;Node15</title>
<g id="a_edge14_Node000001_Node000015"><a xlink:title=" ">
<path fill="none" stroke="#63b8ff" d="M1316.44,-193.79C1298.27,-184.11 1276.83,-172.68 1260.22,-163.83"/>
<polygon fill="#63b8ff" stroke="#63b8ff" points="1314.61,-196.79 1325.08,-198.4 1317.9,-190.61 1314.61,-196.79"/>
</a>
</g>
</g>
<!-- Node16 -->
<g id="Node000016" class="node">
<title>Node16</title>
<g id="a_Node000016"><a xlink:href="smap_8c_source.html" target="_top" xlink:title=" ">
<polygon fill="white" stroke="#666666" points="1408.75,-163.5 1299,-163.5 1299,-133 1408.75,-133 1408.75,-163.5"/>
<text text-anchor="start" x="1307" y="-150" font-family="Helvetica,sans-Serif" font-size="10.00">iop/network/smap/src</text>
<text text-anchor="middle" x="1353.88" y="-138.75" font-family="Helvetica,sans-Serif" font-size="10.00">/smap.c</text>
</a>
</g>
</g>
<!-- Node1&#45;&gt;Node16 -->
<g id="edge15_Node000001_Node000016" class="edge">
<title>Node1&#45;&gt;Node16</title>
<g id="a_edge15_Node000001_Node000016"><a xlink:title=" ">
<path fill="none" stroke="#63b8ff" d="M1353.88,-187.81C1353.88,-179.64 1353.88,-170.91 1353.88,-163.83"/>
<polygon fill="#63b8ff" stroke="#63b8ff" points="1350.38,-187.6 1353.88,-197.6 1357.38,-187.6 1350.38,-187.6"/>
</a>
</g>
</g>
<!-- Node17 -->
<g id="Node000017" class="node">
<title>Node17</title>
<g id="a_Node000017"><a xlink:href="xfer_8c_source.html" target="_top" xlink:title=" ">
<polygon fill="white" stroke="#666666" points="1536.75,-163.5 1427,-163.5 1427,-133 1536.75,-133 1536.75,-163.5"/>
<text text-anchor="start" x="1435" y="-150" font-family="Helvetica,sans-Serif" font-size="10.00">iop/network/smap/src</text>
<text text-anchor="middle" x="1481.88" y="-138.75" font-family="Helvetica,sans-Serif" font-size="10.00">/xfer.c</text>
</a>
</g>
</g>
<!-- Node1&#45;&gt;Node17 -->
<g id="edge16_Node000001_Node000017" class="edge">
<title>Node1&#45;&gt;Node17</title>
<g id="a_edge16_Node000001_Node000017"><a xlink:title=" ">
<path fill="none" stroke="#63b8ff" d="M1392.94,-194.06C1412.28,-184.32 1435.21,-172.76 1452.94,-163.83"/>
<polygon fill="#63b8ff" stroke="#63b8ff" points="1391.63,-190.81 1384.27,-198.43 1394.78,-197.06 1391.63,-190.81"/>
</a>
</g>
</g>
<!-- Node18 -->
<g id="Node000018" class="node">
<title>Node18</title>
<g id="a_Node000018"><a xlink:href="iop_2sio_2mx4sio__bd_2src_2irx__imports_8h_source.html" target="_top" xlink:title=" ">
<polygon fill="white" stroke="#666666" points="1665.12,-163.5 1554.62,-163.5 1554.62,-133 1665.12,-133 1665.12,-163.5"/>
<text text-anchor="start" x="1562.62" y="-150" font-family="Helvetica,sans-Serif" font-size="10.00">iop/sio/mx4sio_bd/src</text>
<text text-anchor="middle" x="1609.88" y="-138.75" font-family="Helvetica,sans-Serif" font-size="10.00">/irx_imports.h</text>
</a>
</g>
</g>
<!-- Node1&#45;&gt;Node18 -->
<g id="edge17_Node000001_Node000018" class="edge">
<title>Node1&#45;&gt;Node18</title>
<g id="a_edge17_Node000001_Node000018"><a xlink:title=" ">
<path fill="none" stroke="#63b8ff" d="M1411.32,-199.28C1454.11,-188.49 1512.22,-173.86 1554.51,-163.2"/>
<polygon fill="#63b8ff" stroke="#63b8ff" points="1410.54,-195.86 1401.7,-201.7 1412.25,-202.65 1410.54,-195.86"/>
</a>
</g>
</g>
<!-- Node19 -->
<g id="Node000019" class="node">
<title>Node19</title>
<g id="a_Node000019"><a xlink:href="mx4sio_8c_source.html" target="_top" xlink:title=" ">
<polygon fill="white" stroke="#666666" points="1794.12,-163.5 1683.62,-163.5 1683.62,-133 1794.12,-133 1794.12,-163.5"/>
<text text-anchor="start" x="1691.62" y="-150" font-family="Helvetica,sans-Serif" font-size="10.00">iop/sio/mx4sio_bd/src</text>
<text text-anchor="middle" x="1738.88" y="-138.75" font-family="Helvetica,sans-Serif" font-size="10.00">/mx4sio.c</text>
</a>
</g>
</g>
<!-- Node1&#45;&gt;Node19 -->
<g id="edge18_Node000001_Node000019" class="edge">
<title>Node1&#45;&gt;Node19</title>
<g id="a_edge18_Node000001_Node000019"><a xlink:title=" ">
<path fill="none" stroke="#63b8ff" d="M1411.21,-205.81C1475.38,-196.67 1582.37,-180.7 1673.88,-163.5 1676.94,-162.92 1680.08,-162.31 1683.25,-161.67"/>
<polygon fill="#63b8ff" stroke="#63b8ff" points="1411.04,-202.3 1401.63,-207.16 1412.02,-209.23 1411.04,-202.3"/>
</a>
</g>
</g>
<!-- Node20 -->
<g id="Node000020" class="node">
<title>Node20</title>
<g id="a_Node000020"><a xlink:href="dmacman_8c_source.html" target="_top" xlink:title=" ">
<polygon fill="white" stroke="#666666" points="1921.38,-163.5 1812.38,-163.5 1812.38,-133 1921.38,-133 1921.38,-163.5"/>
<text text-anchor="start" x="1820.38" y="-150" font-family="Helvetica,sans-Serif" font-size="10.00">iop/system/dmacman</text>
<text text-anchor="middle" x="1866.88" y="-138.75" font-family="Helvetica,sans-Serif" font-size="10.00">/src/dmacman.c</text>
</a>
</g>
</g>
<!-- Node1&#45;&gt;Node20 -->
<g id="edge19_Node000001_Node000020" class="edge">
<title>Node1&#45;&gt;Node20</title>
<g id="a_edge19_Node000001_Node000020"><a xlink:title=" ">
<path fill="none" stroke="#63b8ff" d="M1411.28,-209.32C1496.93,-202.25 1663.07,-186.82 1802.88,-163.5 1805.91,-162.99 1809.01,-162.44 1812.14,-161.84"/>
<polygon fill="#63b8ff" stroke="#63b8ff" points="1411.18,-205.81 1401.5,-210.11 1411.75,-212.79 1411.18,-205.81"/>
</a>
</g>
</g>
<!-- Node21 -->
<g id="Node000021" class="node">
<title>Node21</title>
<g id="a_Node000021"><a xlink:href="iop_2system_2sio2man_2src_2irx__imports_8h_source.html" target="_top" xlink:title=" ">
<polygon fill="white" stroke="#666666" points="2042.38,-163.5 1939.38,-163.5 1939.38,-133 2042.38,-133 2042.38,-163.5"/>
<text text-anchor="start" x="1947.38" y="-150" font-family="Helvetica,sans-Serif" font-size="10.00">iop/system/sio2man</text>
<text text-anchor="middle" x="1990.88" y="-138.75" font-family="Helvetica,sans-Serif" font-size="10.00">/src/irx_imports.h</text>
</a>
</g>
</g>
<!-- Node1&#45;&gt;Node21 -->
<g id="edge20_Node000001_Node000021" class="edge">
<title>Node1&#45;&gt;Node21</title>
<g id="a_edge20_Node000001_Node000021"><a xlink:title=" ">
<path fill="none" stroke="#63b8ff" d="M1411.34,-211.53C1515.49,-206.89 1742.14,-193.96 1930.88,-163.5 1933.52,-163.07 1936.22,-162.59 1938.93,-162.08"/>
<polygon fill="#63b8ff" stroke="#63b8ff" points="1411.51,-208.02 1401.67,-211.95 1411.81,-215.01 1411.51,-208.02"/>
</a>
</g>
</g>
<!-- Node23 -->
<g id="Node000023" class="node">
<title>Node23</title>
<g id="a_Node000023"><a xlink:href="iop_2system_2udnl_2src_2irx__imports_8h_source.html" target="_top" xlink:title=" ">
<polygon fill="white" stroke="#666666" points="2161.25,-163.5 2060.5,-163.5 2060.5,-133 2161.25,-133 2161.25,-163.5"/>
<text text-anchor="start" x="2068.5" y="-150" font-family="Helvetica,sans-Serif" font-size="10.00">iop/system/udnl/src</text>
<text text-anchor="middle" x="2110.88" y="-138.75" font-family="Helvetica,sans-Serif" font-size="10.00">/irx_imports.h</text>
</a>
</g>
</g>
<!-- Node1&#45;&gt;Node23 -->
<g id="edge22_Node000001_Node000023" class="edge">
<title>Node1&#45;&gt;Node23</title>
<g id="a_edge22_Node000001_Node000023"><a xlink:title=" ">
<path fill="none" stroke="#63b8ff" d="M1411.31,-212.82C1531.1,-210.17 1816.03,-200.21 2051.88,-163.5 2054.58,-163.08 2057.35,-162.6 2060.13,-162.07"/>
<polygon fill="#63b8ff" stroke="#63b8ff" points="1411.34,-209.32 1401.42,-213.03 1411.49,-216.31 1411.34,-209.32"/>
</a>
</g>
</g>
<!-- Node24 -->
<g id="Node000024" class="node">
<title>Node24</title>
<g id="a_Node000024"><a xlink:href="udnl_8c_source.html" target="_top" xlink:title=" ">
<polygon fill="white" stroke="#666666" points="2280.25,-163.5 2179.5,-163.5 2179.5,-133 2280.25,-133 2280.25,-163.5"/>
<text text-anchor="start" x="2187.5" y="-150" font-family="Helvetica,sans-Serif" font-size="10.00">iop/system/udnl/src</text>
<text text-anchor="middle" x="2229.88" y="-138.75" font-family="Helvetica,sans-Serif" font-size="10.00">/udnl.c</text>
</a>
</g>
</g>
<!-- Node1&#45;&gt;Node24 -->
<g id="edge23_Node000001_Node000024" class="edge">
<title>Node1&#45;&gt;Node24</title>
<g id="a_edge23_Node000001_Node000024"><a xlink:title=" ">
<path fill="none" stroke="#63b8ff" d="M1411.33,-213.59C1545.11,-212.48 1887.48,-205.41 2169.88,-163.5 2172.95,-163.04 2176.09,-162.51 2179.25,-161.92"/>
<polygon fill="#63b8ff" stroke="#63b8ff" points="1411.66,-210.09 1401.69,-213.66 1411.71,-217.09 1411.66,-210.09"/>
</a>
</g>
</g>
<!-- Node25 -->
<g id="Node000025" class="node">
<title>Node25</title>
<g id="a_Node000025"><a xlink:href="iop_2usb_2camera_2src_2irx__imports_8h_source.html" target="_top" xlink:title=" ">
<polygon fill="white" stroke="#666666" points="2397.5,-163.5 2298.25,-163.5 2298.25,-133 2397.5,-133 2397.5,-163.5"/>
<text text-anchor="start" x="2306.25" y="-150" font-family="Helvetica,sans-Serif" font-size="10.00">iop/usb/camera/src</text>
<text text-anchor="middle" x="2347.88" y="-138.75" font-family="Helvetica,sans-Serif" font-size="10.00">/irx_imports.h</text>
</a>
</g>
</g>
<!-- Node1&#45;&gt;Node25 -->
<g id="edge24_Node000001_Node000025" class="edge">
<title>Node1&#45;&gt;Node25</title>
<g id="a_edge24_Node000001_Node000025"><a xlink:title=" ">
<path fill="none" stroke="#63b8ff" d="M1411.26,-214.31C1558.12,-214.95 1959.22,-211.75 2288.88,-163.5 2291.79,-163.07 2294.78,-162.57 2297.79,-162.01"/>
<polygon fill="#63b8ff" stroke="#63b8ff" points="1411.43,-210.81 1401.41,-214.26 1411.39,-217.81 1411.43,-210.81"/>
</a>
</g>
</g>
<!-- Node26 -->
<g id="Node000026" class="node">
<title>Node26</title>
<g id="a_Node000026"><a xlink:href="iop_2usb_2keyboard_2src_2irx__imports_8h_source.html" target="_top" xlink:title=" ">
<polygon fill="white" stroke="#666666" points="2521.88,-163.5 2415.88,-163.5 2415.88,-133 2521.88,-133 2521.88,-163.5"/>
<text text-anchor="start" x="2423.88" y="-150" font-family="Helvetica,sans-Serif" font-size="10.00">iop/usb/keyboard/src</text>
<text text-anchor="middle" x="2468.88" y="-138.75" font-family="Helvetica,sans-Serif" font-size="10.00">/irx_imports.h</text>
</a>
</g>
</g>
<!-- Node1&#45;&gt;Node26 -->
<g id="edge25_Node000001_Node000026" class="edge">
<title>Node1&#45;&gt;Node26</title>
<g id="a_edge25_Node000001_Node000026"><a xlink:title=" ">
<path fill="none" stroke="#63b8ff" d="M1411.58,-212.35C1602.43,-207.52 2212.08,-190.32 2406.88,-163.5 2409.72,-163.11 2412.63,-162.65 2415.55,-162.14"/>
<polygon fill="#63b8ff" stroke="#63b8ff" points="1411.58,-208.85 1401.67,-212.6 1411.75,-215.85 1411.58,-208.85"/>
</a>
</g>
</g>
<!-- Node3 -->
<g id="Node000003" class="node">
<title>Node3</title>
<g id="a_Node000003"><a xlink:href="accore__internal_8h_source.html" target="_top" xlink:title=" ">
<polygon fill="white" stroke="#666666" points="301.75,-97 192,-97 192,-66.5 301.75,-66.5 301.75,-97"/>
<text text-anchor="start" x="200" y="-83.5" font-family="Helvetica,sans-Serif" font-size="10.00">iop/arcade/accore/src</text>
<text text-anchor="middle" x="246.88" y="-72.25" font-family="Helvetica,sans-Serif" font-size="10.00">/accore_internal.h</text>
</a>
</g>
</g>
<!-- Node2&#45;&gt;Node3 -->
<g id="edge2_Node000002_Node000003" class="edge">
<title>Node2&#45;&gt;Node3</title>
<g id="a_edge2_Node000002_Node000003"><a xlink:title=" ">
<path fill="none" stroke="#63b8ff" d="M246.88,-121.31C246.88,-113.14 246.88,-104.41 246.88,-97.33"/>
<polygon fill="#63b8ff" stroke="#63b8ff" points="243.38,-121.1 246.88,-131.1 250.38,-121.1 243.38,-121.1"/>
</a>
</g>
</g>
<!-- Node4 -->
<g id="Node000004" class="node">
<title>Node4</title>
<g id="a_Node000004"><a xlink:href="accore-entry_8c_source.html" target="_top" xlink:title=" ">
<polygon fill="white" stroke="#666666" points="109.75,-30.5 0,-30.5 0,0 109.75,0 109.75,-30.5"/>
<text text-anchor="start" x="8" y="-17" font-family="Helvetica,sans-Serif" font-size="10.00">iop/arcade/accore/src</text>
<text text-anchor="middle" x="54.88" y="-5.75" font-family="Helvetica,sans-Serif" font-size="10.00">/accore&#45;entry.c</text>
</a>
</g>
</g>
<!-- Node3&#45;&gt;Node4 -->
<g id="edge3_Node000003_Node000004" class="edge">
<title>Node3&#45;&gt;Node4</title>
<g id="a_edge3_Node000003_Node000004"><a xlink:title=" ">
<path fill="none" stroke="#63b8ff" d="M192.68,-62.54C162.93,-52.55 126.52,-40.32 98.6,-30.94"/>
<polygon fill="#63b8ff" stroke="#63b8ff" points="191.28,-65.77 201.87,-65.63 193.51,-59.13 191.28,-65.77"/>
</a>
</g>
</g>
<!-- Node5 -->
<g id="Node000005" class="node">
<title>Node5</title>
<g id="a_Node000005"><a xlink:href="dev9_8c_source.html" target="_top" xlink:title=" ">
<polygon fill="white" stroke="#666666" points="237.75,-30.5 128,-30.5 128,0 237.75,0 237.75,-30.5"/>
<text text-anchor="start" x="136" y="-17" font-family="Helvetica,sans-Serif" font-size="10.00">iop/arcade/accore/src</text>
<text text-anchor="middle" x="182.88" y="-5.75" font-family="Helvetica,sans-Serif" font-size="10.00">/dev9.c</text>
</a>
</g>
</g>
<!-- Node3&#45;&gt;Node5 -->
<g id="edge4_Node000003_Node000005" class="edge">
<title>Node3&#45;&gt;Node5</title>
<g id="a_edge4_Node000003_Node000005"><a xlink:title=" ">
<path fill="none" stroke="#63b8ff" d="M224.49,-58.19C215.48,-49.11 205.35,-38.9 197.34,-30.83"/>
<polygon fill="#63b8ff" stroke="#63b8ff" points="221.76,-60.41 231.29,-65.04 226.73,-55.48 221.76,-60.41"/>
</a>
</g>
</g>
<!-- Node6 -->
<g id="Node000006" class="node">
<title>Node6</title>
<g id="a_Node000006"><a xlink:href="iop_2arcade_2accore_2src_2dma_8c_source.html" target="_top" xlink:title=" ">
<polygon fill="white" stroke="#666666" points="365.75,-30.5 256,-30.5 256,0 365.75,0 365.75,-30.5"/>
<text text-anchor="start" x="264" y="-17" font-family="Helvetica,sans-Serif" font-size="10.00">iop/arcade/accore/src</text>
<text text-anchor="middle" x="310.88" y="-5.75" font-family="Helvetica,sans-Serif" font-size="10.00">/dma.c</text>
</a>
</g>
</g>
<!-- Node3&#45;&gt;Node6 -->
<g id="edge5_Node000003_Node000006" class="edge">
<title>Node3&#45;&gt;Node6</title>
<g id="a_edge5_Node000003_Node000006"><a xlink:title=" ">
<path fill="none" stroke="#63b8ff" d="M269.26,-58.19C278.27,-49.11 288.4,-38.9 296.41,-30.83"/>
<polygon fill="#63b8ff" stroke="#63b8ff" points="267.02,-55.48 262.46,-65.04 271.99,-60.41 267.02,-55.48"/>
</a>
</g>
</g>
<!-- Node7 -->
<g id="Node000007" class="node">
<title>Node7</title>
<g id="a_Node000007"><a xlink:href="intr_8c_source.html" target="_top" xlink:title=" ">
<polygon fill="white" stroke="#666666" points="493.75,-30.5 384,-30.5 384,0 493.75,0 493.75,-30.5"/>
<text text-anchor="start" x="392" y="-17" font-family="Helvetica,sans-Serif" font-size="10.00">iop/arcade/accore/src</text>
<text text-anchor="middle" x="438.88" y="-5.75" font-family="Helvetica,sans-Serif" font-size="10.00">/intr.c</text>
</a>
</g>
</g>
<!-- Node3&#45;&gt;Node7 -->
<g id="edge6_Node000003_Node000007" class="edge">
<title>Node3&#45;&gt;Node7</title>
<g id="a_edge6_Node000003_Node000007"><a xlink:title=" ">
<path fill="none" stroke="#63b8ff" d="M301.07,-62.54C330.82,-52.55 367.23,-40.32 395.15,-30.94"/>
<polygon fill="#63b8ff" stroke="#63b8ff" points="300.24,-59.13 291.88,-65.63 302.47,-65.77 300.24,-59.13"/>
</a>
</g>
</g>
<!-- Node22 -->
<g id="Node000022" class="node">
<title>Node22</title>
<g id="a_Node000022"><a xlink:href="sio2man_8c.html" target="_top" xlink:title=" ">
<polygon fill="white" stroke="#666666" points="2042.38,-97 1939.38,-97 1939.38,-66.5 2042.38,-66.5 2042.38,-97"/>
<text text-anchor="start" x="1947.38" y="-83.5" font-family="Helvetica,sans-Serif" font-size="10.00">iop/system/sio2man</text>
<text text-anchor="middle" x="1990.88" y="-72.25" font-family="Helvetica,sans-Serif" font-size="10.00">/src/sio2man.c</text>
</a>
</g>
</g>
<!-- Node21&#45;&gt;Node22 -->
<g id="edge21_Node000021_Node000022" class="edge">
<title>Node21&#45;&gt;Node22</title>
<g id="a_edge21_Node000021_Node000022"><a xlink:title=" ">
<path fill="none" stroke="#63b8ff" d="M1990.88,-121.31C1990.88,-113.14 1990.88,-104.41 1990.88,-97.33"/>
<polygon fill="#63b8ff" stroke="#63b8ff" points="1987.38,-121.1 1990.88,-131.1 1994.38,-121.1 1987.38,-121.1"/>
</a>
</g>
</g>
</g>
</svg>
