<?xml version="1.0" encoding="UTF-8" standalone="no"?>
<!DOCTYPE svg PUBLIC "-//W3C//DTD SVG 1.1//EN"
 "http://www.w3.org/Graphics/SVG/1.1/DTD/svg11.dtd">
<!-- Generated by graphviz version 12.2.0 (20241103.1931)
 -->
<!-- Title: iop/usb/usbd/src/driver.c Pages: 1 -->
<svg width="533pt" height="359pt"
 viewBox="0.00 0.00 532.50 358.75" xmlns="http://www.w3.org/2000/svg" xmlns:xlink="http://www.w3.org/1999/xlink">
<g id="graph0" class="graph" transform="scale(1 1) rotate(0) translate(4 354.75)">
<title>iop/usb/usbd/src/driver.c</title>
<!-- Node1 -->
<g id="Node000001" class="node">
<title>Node1</title>
<g id="a_Node000001"><a xlink:title=" ">
<polygon fill="#999999" stroke="#666666" points="353.62,-350.75 231.12,-350.75 231.12,-331.5 353.62,-331.5 353.62,-350.75"/>
<text text-anchor="middle" x="292.38" y="-337.25" font-family="Helvetica,sans-Serif" font-size="10.00">iop/usb/usbd/src/driver.c</text>
</a>
</g>
</g>
<!-- Node2 -->
<g id="Node000002" class="node">
<title>Node2</title>
<g id="a_Node000002"><a xlink:href="usbdpriv_8h.html" target="_top" xlink:title=" ">
<polygon fill="white" stroke="#666666" points="472.5,-240.25 412.25,-240.25 412.25,-221 472.5,-221 472.5,-240.25"/>
<text text-anchor="middle" x="442.38" y="-226.75" font-family="Helvetica,sans-Serif" font-size="10.00">usbdpriv.h</text>
</a>
</g>
</g>
<!-- Node1&#45;&gt;Node2 -->
<g id="edge1_Node000001_Node000002" class="edge">
<title>Node1&#45;&gt;Node2</title>
<g id="a_edge1_Node000001_Node000002"><a xlink:title=" ">
<path fill="none" stroke="#63b8ff" d="M353.74,-332.9C399.62,-326.09 456.83,-314.11 471.38,-295.5 482.34,-281.46 471.31,-262.62 459.84,-249.04"/>
<polygon fill="#63b8ff" stroke="#63b8ff" points="462.46,-246.72 453.12,-241.72 457.3,-251.45 462.46,-246.72"/>
</a>
</g>
</g>
<!-- Node9 -->
<g id="Node000009" class="node">
<title>Node9</title>
<g id="a_Node000009"><a xlink:href="defs_8h.html" target="_top" xlink:title=" ">
<polygon fill="white" stroke="#666666" points="524.5,-185 482.25,-185 482.25,-165.75 524.5,-165.75 524.5,-185"/>
<text text-anchor="middle" x="503.38" y="-171.5" font-family="Helvetica,sans-Serif" font-size="10.00">defs.h</text>
</a>
</g>
</g>
<!-- Node1&#45;&gt;Node9 -->
<g id="edge17_Node000001_Node000009" class="edge">
<title>Node1&#45;&gt;Node9</title>
<g id="a_edge17_Node000001_Node000009"><a xlink:title=" ">
<path fill="none" stroke="#63b8ff" d="M353.97,-333.67C404.17,-327.07 469.58,-315 487.38,-295.5 512.03,-268.48 510.42,-222.6 506.96,-196.36"/>
<polygon fill="#63b8ff" stroke="#63b8ff" points="510.45,-196.06 505.45,-186.73 503.54,-197.15 510.45,-196.06"/>
</a>
</g>
</g>
<!-- Node10 -->
<g id="Node000010" class="node">
<title>Node10</title>
<g id="a_Node000010"><a xlink:href="driver_8h.html" target="_top" xlink:title=" ">
<polygon fill="white" stroke="#666666" points="342.12,-295.5 294.62,-295.5 294.62,-276.25 342.12,-276.25 342.12,-295.5"/>
<text text-anchor="middle" x="318.38" y="-282" font-family="Helvetica,sans-Serif" font-size="10.00">driver.h</text>
</a>
</g>
</g>
<!-- Node1&#45;&gt;Node10 -->
<g id="edge11_Node000001_Node000010" class="edge">
<title>Node1&#45;&gt;Node10</title>
<g id="a_edge11_Node000001_Node000010"><a xlink:title=" ">
<path fill="none" stroke="#63b8ff" d="M296.67,-331.33C300,-324.51 304.74,-314.81 308.94,-306.2"/>
<polygon fill="#63b8ff" stroke="#63b8ff" points="312.08,-307.74 313.32,-297.22 305.79,-304.67 312.08,-307.74"/>
</a>
</g>
</g>
<!-- Node11 -->
<g id="Node000011" class="node">
<title>Node11</title>
<g id="a_Node000011"><a xlink:href="mem_8h.html" target="_top" xlink:title=" ">
<polygon fill="white" stroke="#666666" points="405,-295.5 359.75,-295.5 359.75,-276.25 405,-276.25 405,-295.5"/>
<text text-anchor="middle" x="382.38" y="-282" font-family="Helvetica,sans-Serif" font-size="10.00">mem.h</text>
</a>
</g>
</g>
<!-- Node1&#45;&gt;Node11 -->
<g id="edge13_Node000001_Node000011" class="edge">
<title>Node1&#45;&gt;Node11</title>
<g id="a_edge13_Node000001_Node000011"><a xlink:title=" ">
<path fill="none" stroke="#63b8ff" d="M307.64,-331.09C321.22,-323.06 341.33,-311.16 357.27,-301.73"/>
<polygon fill="#63b8ff" stroke="#63b8ff" points="358.91,-304.83 365.73,-296.72 355.34,-298.8 358.91,-304.83"/>
</a>
</g>
</g>
<!-- Node12 -->
<g id="Node000012" class="node">
<title>Node12</title>
<g id="a_Node000012"><a xlink:href="hub_8h.html" target="_top" xlink:title=" ">
<polygon fill="white" stroke="#666666" points="462,-295.5 422.75,-295.5 422.75,-276.25 462,-276.25 462,-295.5"/>
<text text-anchor="middle" x="442.38" y="-282" font-family="Helvetica,sans-Serif" font-size="10.00">hub.h</text>
</a>
</g>
</g>
<!-- Node1&#45;&gt;Node12 -->
<g id="edge15_Node000001_Node000012" class="edge">
<title>Node1&#45;&gt;Node12</title>
<g id="a_edge15_Node000001_Node000012"><a xlink:title=" ">
<path fill="none" stroke="#63b8ff" d="M317.82,-331.09C343.83,-321.86 384.22,-307.52 411.91,-297.69"/>
<polygon fill="#63b8ff" stroke="#63b8ff" points="412.89,-301.06 421.14,-294.41 410.54,-294.46 412.89,-301.06"/>
</a>
</g>
</g>
<!-- Node13 -->
<g id="Node000013" class="node">
<title>Node13</title>
<g id="a_Node000013"><a xlink:href="stdio_8h.html" target="_top" xlink:title=" ">
<polygon fill="white" stroke="#666666" points="145.62,-185 101.12,-185 101.12,-165.75 145.62,-165.75 145.62,-185"/>
<text text-anchor="middle" x="123.38" y="-171.5" font-family="Helvetica,sans-Serif" font-size="10.00">stdio.h</text>
</a>
</g>
</g>
<!-- Node1&#45;&gt;Node13 -->
<g id="edge18_Node000001_Node000013" class="edge">
<title>Node1&#45;&gt;Node13</title>
<g id="a_edge18_Node000001_Node000013"><a xlink:title=" ">
<path fill="none" stroke="#63b8ff" d="M276.87,-331.03C263.18,-322.64 243.02,-309.42 227.38,-295.5 191.15,-263.25 155.39,-218.78 136.71,-194.32"/>
<polygon fill="#63b8ff" stroke="#63b8ff" points="139.73,-192.51 130.92,-186.64 134.15,-196.73 139.73,-192.51"/>
</a>
</g>
</g>
<!-- Node15 -->
<g id="Node000015" class="node">
<title>Node15</title>
<g id="a_Node000015"><a xlink:href="sysclib_8h.html" target="_top" xlink:title=" ">
<polygon fill="white" stroke="#666666" points="83.12,-185 29.62,-185 29.62,-165.75 83.12,-165.75 83.12,-185"/>
<text text-anchor="middle" x="56.38" y="-171.5" font-family="Helvetica,sans-Serif" font-size="10.00">sysclib.h</text>
</a>
</g>
</g>
<!-- Node1&#45;&gt;Node15 -->
<g id="edge21_Node000001_Node000015" class="edge">
<title>Node1&#45;&gt;Node15</title>
<g id="a_edge21_Node000001_Node000015"><a xlink:title=" ">
<path fill="none" stroke="#63b8ff" d="M271.18,-331.07C252.69,-322.8 225.45,-309.74 203.38,-295.5 153.5,-263.32 100.79,-217.22 74.1,-192.88"/>
<polygon fill="#63b8ff" stroke="#63b8ff" points="76.64,-190.46 66.91,-186.26 71.9,-195.61 76.64,-190.46"/>
</a>
</g>
</g>
<!-- Node18 -->
<g id="Node000018" class="node">
<title>Node18</title>
<g id="a_Node000018"><a xlink:href="thbase_8h.html" target="_top" xlink:title=" ">
<polygon fill="white" stroke="#666666" points="216.75,-185 164,-185 164,-165.75 216.75,-165.75 216.75,-185"/>
<text text-anchor="middle" x="190.38" y="-171.5" font-family="Helvetica,sans-Serif" font-size="10.00">thbase.h</text>
</a>
</g>
</g>
<!-- Node1&#45;&gt;Node18 -->
<g id="edge28_Node000001_Node000018" class="edge">
<title>Node1&#45;&gt;Node18</title>
<g id="a_edge28_Node000001_Node000018"><a xlink:title=" ">
<path fill="none" stroke="#63b8ff" d="M279.75,-331.03C268.97,-322.75 253.61,-309.68 243.38,-295.5 220.59,-263.94 204.5,-221.04 196.39,-196.26"/>
<polygon fill="#63b8ff" stroke="#63b8ff" points="199.77,-195.33 193.43,-186.84 193.09,-197.43 199.77,-195.33"/>
</a>
</g>
</g>
<!-- Node19 -->
<g id="Node000019" class="node">
<title>Node19</title>
<g id="a_Node000019"><a xlink:href="thevent_8h.html" target="_top" xlink:title=" ">
<polygon fill="white" stroke="#666666" points="290.25,-185 234.5,-185 234.5,-165.75 290.25,-165.75 290.25,-185"/>
<text text-anchor="middle" x="262.38" y="-171.5" font-family="Helvetica,sans-Serif" font-size="10.00">thevent.h</text>
</a>
</g>
</g>
<!-- Node1&#45;&gt;Node19 -->
<g id="edge31_Node000001_Node000019" class="edge">
<title>Node1&#45;&gt;Node19</title>
<g id="a_edge31_Node000001_Node000019"><a xlink:title=" ">
<path fill="none" stroke="#63b8ff" d="M280.35,-331.01C270.73,-322.89 257.95,-310.08 252.38,-295.5 239.74,-262.49 248.35,-220.67 255.52,-196.38"/>
<polygon fill="#63b8ff" stroke="#63b8ff" points="258.85,-197.45 258.56,-186.86 252.18,-195.32 258.85,-197.45"/>
</a>
</g>
</g>
<!-- Node20 -->
<g id="Node000020" class="node">
<title>Node20</title>
<g id="a_Node000020"><a xlink:href="intrman_8h.html" target="_top" xlink:title=" ">
<polygon fill="white" stroke="#666666" points="364.25,-185 308.5,-185 308.5,-165.75 364.25,-165.75 364.25,-185"/>
<text text-anchor="middle" x="336.38" y="-171.5" font-family="Helvetica,sans-Serif" font-size="10.00">intrman.h</text>
</a>
</g>
</g>
<!-- Node1&#45;&gt;Node20 -->
<g id="edge34_Node000001_Node000020" class="edge">
<title>Node1&#45;&gt;Node20</title>
<g id="a_edge34_Node000001_Node000020"><a xlink:title=" ">
<path fill="none" stroke="#63b8ff" d="M289.53,-331.33C285.93,-318.9 280.73,-295.56 285.38,-276.25 292.71,-245.74 311.02,-214.07 323.58,-194.78"/>
<polygon fill="#63b8ff" stroke="#63b8ff" points="326.35,-196.94 329.02,-186.69 320.54,-193.04 326.35,-196.94"/>
</a>
</g>
</g>
<!-- Node3 -->
<g id="Node000003" class="node">
<title>Node3</title>
<g id="a_Node000003"><a xlink:href="usbd_8h.html" target="_top" xlink:title=" ">
<polygon fill="white" stroke="#666666" points="426.62,-185 382.12,-185 382.12,-165.75 426.62,-165.75 426.62,-185"/>
<text text-anchor="middle" x="404.38" y="-171.5" font-family="Helvetica,sans-Serif" font-size="10.00">usbd.h</text>
</a>
</g>
</g>
<!-- Node2&#45;&gt;Node3 -->
<g id="edge2_Node000002_Node000003" class="edge">
<title>Node2&#45;&gt;Node3</title>
<g id="a_edge2_Node000002_Node000003"><a xlink:title=" ">
<path fill="none" stroke="#63b8ff" d="M436.1,-220.83C431.02,-213.71 423.68,-203.43 417.34,-194.55"/>
<polygon fill="#63b8ff" stroke="#63b8ff" points="420.32,-192.7 411.67,-186.59 414.63,-196.76 420.32,-192.7"/>
</a>
</g>
</g>
<!-- Node4 -->
<g id="Node000004" class="node">
<title>Node4</title>
<g id="a_Node000004"><a xlink:title=" ">
<polygon fill="#e0e0e0" stroke="#999999" points="451.75,-129.75 405,-129.75 405,-110.5 451.75,-110.5 451.75,-129.75"/>
<text text-anchor="middle" x="428.38" y="-116.25" font-family="Helvetica,sans-Serif" font-size="10.00">types.h</text>
</a>
</g>
</g>
<!-- Node2&#45;&gt;Node4 -->
<g id="edge8_Node000002_Node000004" class="edge">
<title>Node2&#45;&gt;Node4</title>
<g id="a_edge8_Node000002_Node000004"><a xlink:title=" ">
<path fill="none" stroke="#63b8ff" d="M441.51,-220.51C440.3,-208.1 437.97,-185.21 435.38,-165.75 434.3,-157.68 432.95,-148.83 431.72,-141.14"/>
<polygon fill="#63b8ff" stroke="#63b8ff" points="435.21,-140.79 430.14,-131.49 428.3,-141.93 435.21,-140.79"/>
</a>
</g>
</g>
<!-- Node2&#45;&gt;Node9 -->
<g id="edge9_Node000002_Node000009" class="edge">
<title>Node2&#45;&gt;Node9</title>
<g id="a_edge9_Node000002_Node000009"><a xlink:title=" ">
<path fill="none" stroke="#63b8ff" d="M452.72,-220.59C461.45,-212.97 474.16,-201.87 484.67,-192.7"/>
<polygon fill="#63b8ff" stroke="#63b8ff" points="486.81,-195.48 492.04,-186.27 482.2,-190.21 486.81,-195.48"/>
</a>
</g>
</g>
<!-- Node3&#45;&gt;Node4 -->
<g id="edge3_Node000003_Node000004" class="edge">
<title>Node3&#45;&gt;Node4</title>
<g id="a_edge3_Node000003_Node000004"><a xlink:title=" ">
<path fill="none" stroke="#63b8ff" d="M408.34,-165.58C411.41,-158.76 415.79,-149.06 419.66,-140.45"/>
<polygon fill="#63b8ff" stroke="#63b8ff" points="422.79,-142.04 423.7,-131.49 416.4,-139.17 422.79,-142.04"/>
</a>
</g>
</g>
<!-- Node5 -->
<g id="Node000005" class="node">
<title>Node5</title>
<g id="a_Node000005"><a xlink:href="irx_8h.html" target="_top" xlink:title=" ">
<polygon fill="white" stroke="#666666" points="252,-129.75 218.75,-129.75 218.75,-110.5 252,-110.5 252,-129.75"/>
<text text-anchor="middle" x="235.38" y="-116.25" font-family="Helvetica,sans-Serif" font-size="10.00">irx.h</text>
</a>
</g>
</g>
<!-- Node3&#45;&gt;Node5 -->
<g id="edge4_Node000003_Node000005" class="edge">
<title>Node3&#45;&gt;Node5</title>
<g id="a_edge4_Node000003_Node000005"><a xlink:title=" ">
<path fill="none" stroke="#63b8ff" d="M381.93,-167.3C351.25,-157.64 296.24,-140.3 263.05,-129.84"/>
<polygon fill="#63b8ff" stroke="#63b8ff" points="264.32,-126.58 253.73,-126.91 262.22,-133.25 264.32,-126.58"/>
</a>
</g>
</g>
<!-- Node6 -->
<g id="Node000006" class="node">
<title>Node6</title>
<g id="a_Node000006"><a xlink:href="iop_2kernel_2include_2types_8h_source.html" target="_top" xlink:title=" ">
<polygon fill="white" stroke="#666666" points="258.75,-74.5 212,-74.5 212,-55.25 258.75,-55.25 258.75,-74.5"/>
<text text-anchor="middle" x="235.38" y="-61" font-family="Helvetica,sans-Serif" font-size="10.00">types.h</text>
</a>
</g>
</g>
<!-- Node5&#45;&gt;Node6 -->
<g id="edge5_Node000005_Node000006" class="edge">
<title>Node5&#45;&gt;Node6</title>
<g id="a_edge5_Node000005_Node000006"><a xlink:title=" ">
<path fill="none" stroke="#63b8ff" d="M235.38,-110.33C235.38,-103.82 235.38,-94.67 235.38,-86.37"/>
<polygon fill="#63b8ff" stroke="#63b8ff" points="238.88,-86.37 235.38,-76.37 231.88,-86.37 238.88,-86.37"/>
</a>
</g>
</g>
<!-- Node7 -->
<g id="Node000007" class="node">
<title>Node7</title>
<g id="a_Node000007"><a xlink:title=" ">
<polygon fill="#e0e0e0" stroke="#999999" points="260.62,-19.25 210.12,-19.25 210.12,0 260.62,0 260.62,-19.25"/>
<text text-anchor="middle" x="235.38" y="-5.75" font-family="Helvetica,sans-Serif" font-size="10.00">stddef.h</text>
</a>
</g>
</g>
<!-- Node6&#45;&gt;Node7 -->
<g id="edge6_Node000006_Node000007" class="edge">
<title>Node6&#45;&gt;Node7</title>
<g id="a_edge6_Node000006_Node000007"><a xlink:title=" ">
<path fill="none" stroke="#63b8ff" d="M235.38,-55.08C235.38,-48.57 235.38,-39.42 235.38,-31.12"/>
<polygon fill="#63b8ff" stroke="#63b8ff" points="238.88,-31.12 235.38,-21.12 231.88,-31.12 238.88,-31.12"/>
</a>
</g>
</g>
<!-- Node8 -->
<g id="Node000008" class="node">
<title>Node8</title>
<g id="a_Node000008"><a xlink:href="tamtypes_8h.html" target="_top" xlink:title=" ">
<polygon fill="white" stroke="#666666" points="147,-19.25 83.75,-19.25 83.75,0 147,0 147,-19.25"/>
<text text-anchor="middle" x="115.38" y="-5.75" font-family="Helvetica,sans-Serif" font-size="10.00">tamtypes.h</text>
</a>
</g>
</g>
<!-- Node6&#45;&gt;Node8 -->
<g id="edge7_Node000006_Node000008" class="edge">
<title>Node6&#45;&gt;Node8</title>
<g id="a_edge7_Node000006_Node000008"><a xlink:title=" ">
<path fill="none" stroke="#63b8ff" d="M215.02,-54.84C196.14,-46.47 167.79,-33.88 146.15,-24.28"/>
<polygon fill="#63b8ff" stroke="#63b8ff" points="147.77,-21.17 137.21,-20.32 144.94,-27.57 147.77,-21.17"/>
</a>
</g>
</g>
<!-- Node9&#45;&gt;Node6 -->
<g id="edge10_Node000009_Node000006" class="edge">
<title>Node9&#45;&gt;Node6</title>
<g id="a_edge10_Node000009_Node000006"><a xlink:title=" ">
<path fill="none" stroke="#63b8ff" d="M499.94,-165.29C494.11,-151.16 480.85,-124.12 460.38,-110.5 429.64,-90.05 325.42,-75.82 270.26,-69.52"/>
<polygon fill="#63b8ff" stroke="#63b8ff" points="270.79,-66.06 260.47,-68.43 270.02,-73.01 270.79,-66.06"/>
</a>
</g>
</g>
<!-- Node10&#45;&gt;Node2 -->
<g id="edge12_Node000010_Node000002" class="edge">
<title>Node10&#45;&gt;Node2</title>
<g id="a_edge12_Node000010_Node000002"><a xlink:title=" ">
<path fill="none" stroke="#63b8ff" d="M339.41,-275.84C359.01,-267.43 388.48,-254.77 410.88,-245.15"/>
<polygon fill="#63b8ff" stroke="#63b8ff" points="412.04,-248.46 419.85,-241.3 409.28,-242.03 412.04,-248.46"/>
</a>
</g>
</g>
<!-- Node11&#45;&gt;Node2 -->
<g id="edge14_Node000011_Node000002" class="edge">
<title>Node11&#45;&gt;Node2</title>
<g id="a_edge14_Node000011_Node000002"><a xlink:title=" ">
<path fill="none" stroke="#63b8ff" d="M392.55,-275.84C401.14,-268.22 413.64,-257.12 423.98,-247.95"/>
<polygon fill="#63b8ff" stroke="#63b8ff" points="426.06,-250.79 431.22,-241.53 421.41,-245.55 426.06,-250.79"/>
</a>
</g>
</g>
<!-- Node12&#45;&gt;Node2 -->
<g id="edge16_Node000012_Node000002" class="edge">
<title>Node12&#45;&gt;Node2</title>
<g id="a_edge16_Node000012_Node000002"><a xlink:title=" ">
<path fill="none" stroke="#63b8ff" d="M442.38,-276.08C442.38,-269.57 442.38,-260.42 442.38,-252.12"/>
<polygon fill="#63b8ff" stroke="#63b8ff" points="445.88,-252.12 442.38,-242.12 438.88,-252.12 445.88,-252.12"/>
</a>
</g>
</g>
<!-- Node13&#45;&gt;Node5 -->
<g id="edge20_Node000013_Node000005" class="edge">
<title>Node13&#45;&gt;Node5</title>
<g id="a_edge20_Node000013_Node000005"><a xlink:title=" ">
<path fill="none" stroke="#63b8ff" d="M142.37,-165.34C160.47,-156.74 187.89,-143.7 208.27,-134.01"/>
<polygon fill="#63b8ff" stroke="#63b8ff" points="209.59,-137.26 217.12,-129.81 206.58,-130.94 209.59,-137.26"/>
</a>
</g>
</g>
<!-- Node14 -->
<g id="Node000014" class="node">
<title>Node14</title>
<g id="a_Node000014"><a xlink:title=" ">
<polygon fill="#e0e0e0" stroke="#999999" points="162.62,-129.75 112.12,-129.75 112.12,-110.5 162.62,-110.5 162.62,-129.75"/>
<text text-anchor="middle" x="137.38" y="-116.25" font-family="Helvetica,sans-Serif" font-size="10.00">stdarg.h</text>
</a>
</g>
</g>
<!-- Node13&#45;&gt;Node14 -->
<g id="edge19_Node000013_Node000014" class="edge">
<title>Node13&#45;&gt;Node14</title>
<g id="a_edge19_Node000013_Node000014"><a xlink:title=" ">
<path fill="none" stroke="#63b8ff" d="M125.69,-165.58C127.44,-158.92 129.92,-149.49 132.14,-141.03"/>
<polygon fill="#63b8ff" stroke="#63b8ff" points="135.47,-142.13 134.63,-131.57 128.7,-140.35 135.47,-142.13"/>
</a>
</g>
</g>
<!-- Node15&#45;&gt;Node5 -->
<g id="edge23_Node000015_Node000005" class="edge">
<title>Node15&#45;&gt;Node5</title>
<g id="a_edge23_Node000015_Node000005"><a xlink:title=" ">
<path fill="none" stroke="#63b8ff" d="M83.56,-166.29C117.16,-156.29 174.01,-139.38 207.79,-129.33"/>
<polygon fill="#63b8ff" stroke="#63b8ff" points="208.66,-132.72 217.25,-126.52 206.66,-126.02 208.66,-132.72"/>
</a>
</g>
</g>
<!-- Node15&#45;&gt;Node6 -->
<g id="edge22_Node000015_Node000006" class="edge">
<title>Node15&#45;&gt;Node6</title>
<g id="a_edge22_Node000015_Node000006"><a xlink:title=" ">
<path fill="none" stroke="#63b8ff" d="M49.45,-165.56C39.91,-152.26 25.29,-126.88 38.38,-110.5 58.27,-85.59 149.3,-73.55 200.36,-68.67"/>
<polygon fill="#63b8ff" stroke="#63b8ff" points="200.37,-72.18 210.01,-67.79 199.73,-65.21 200.37,-72.18"/>
</a>
</g>
</g>
<!-- Node15&#45;&gt;Node14 -->
<g id="edge24_Node000015_Node000014" class="edge">
<title>Node15&#45;&gt;Node14</title>
<g id="a_edge24_Node000015_Node000014"><a xlink:title=" ">
<path fill="none" stroke="#63b8ff" d="M70.12,-165.34C82.1,-157.46 99.75,-145.86 113.96,-136.52"/>
<polygon fill="#63b8ff" stroke="#63b8ff" points="115.87,-139.45 122.3,-131.03 112.02,-133.6 115.87,-139.45"/>
</a>
</g>
</g>
<!-- Node16 -->
<g id="Node000016" class="node">
<title>Node16</title>
<g id="a_Node000016"><a xlink:href="setjmp_8h.html" target="_top" xlink:title=" ">
<polygon fill="white" stroke="#666666" points="52.75,-74.5 0,-74.5 0,-55.25 52.75,-55.25 52.75,-74.5"/>
<text text-anchor="middle" x="26.38" y="-61" font-family="Helvetica,sans-Serif" font-size="10.00">setjmp.h</text>
</a>
</g>
</g>
<!-- Node15&#45;&gt;Node16 -->
<g id="edge25_Node000015_Node000016" class="edge">
<title>Node15&#45;&gt;Node16</title>
<g id="a_edge25_Node000015_Node000016"><a xlink:title=" ">
<path fill="none" stroke="#63b8ff" d="M40.15,-165.4C28.06,-157.71 12.47,-145.39 5.38,-129.75 -1.4,-114.82 5.58,-97.05 13.26,-84.04"/>
<polygon fill="#63b8ff" stroke="#63b8ff" points="15.95,-86.33 18.49,-76.05 10.09,-82.5 15.95,-86.33"/>
</a>
</g>
</g>
<!-- Node17 -->
<g id="Node000017" class="node">
<title>Node17</title>
<g id="a_Node000017"><a xlink:href="ctype_8h.html" target="_top" xlink:title=" ">
<polygon fill="white" stroke="#666666" points="93.75,-129.75 47,-129.75 47,-110.5 93.75,-110.5 93.75,-129.75"/>
<text text-anchor="middle" x="70.38" y="-116.25" font-family="Helvetica,sans-Serif" font-size="10.00">ctype.h</text>
</a>
</g>
</g>
<!-- Node15&#45;&gt;Node17 -->
<g id="edge27_Node000015_Node000017" class="edge">
<title>Node15&#45;&gt;Node17</title>
<g id="a_edge27_Node000015_Node000017"><a xlink:title=" ">
<path fill="none" stroke="#63b8ff" d="M58.69,-165.58C60.44,-158.92 62.92,-149.49 65.14,-141.03"/>
<polygon fill="#63b8ff" stroke="#63b8ff" points="68.47,-142.13 67.63,-131.57 61.7,-140.35 68.47,-142.13"/>
</a>
</g>
</g>
<!-- Node16&#45;&gt;Node8 -->
<g id="edge26_Node000016_Node000008" class="edge">
<title>Node16&#45;&gt;Node8</title>
<g id="a_edge26_Node000016_Node000008"><a xlink:title=" ">
<path fill="none" stroke="#63b8ff" d="M41.47,-54.84C54.9,-46.81 74.79,-34.91 90.55,-25.48"/>
<polygon fill="#63b8ff" stroke="#63b8ff" points="92.12,-28.62 98.9,-20.48 88.53,-22.61 92.12,-28.62"/>
</a>
</g>
</g>
<!-- Node18&#45;&gt;Node5 -->
<g id="edge30_Node000018_Node000005" class="edge">
<title>Node18&#45;&gt;Node5</title>
<g id="a_edge30_Node000018_Node000005"><a xlink:title=" ">
<path fill="none" stroke="#63b8ff" d="M197.81,-165.58C203.96,-158.3 212.89,-147.73 220.5,-138.73"/>
<polygon fill="#63b8ff" stroke="#63b8ff" points="223.02,-141.16 226.81,-131.27 217.68,-136.64 223.02,-141.16"/>
</a>
</g>
</g>
<!-- Node18&#45;&gt;Node6 -->
<g id="edge29_Node000018_Node000006" class="edge">
<title>Node18&#45;&gt;Node6</title>
<g id="a_edge29_Node000018_Node000006"><a xlink:title=" ">
<path fill="none" stroke="#63b8ff" d="M192.31,-165.46C195.21,-152.9 201.2,-129.4 209.38,-110.5 213.24,-101.56 218.51,-92.17 223.29,-84.33"/>
<polygon fill="#63b8ff" stroke="#63b8ff" points="226.14,-86.37 228.53,-76.05 220.22,-82.63 226.14,-86.37"/>
</a>
</g>
</g>
<!-- Node19&#45;&gt;Node5 -->
<g id="edge33_Node000019_Node000005" class="edge">
<title>Node19&#45;&gt;Node5</title>
<g id="a_edge33_Node000019_Node000005"><a xlink:title=" ">
<path fill="none" stroke="#63b8ff" d="M257.92,-165.58C254.42,-158.69 249.43,-148.84 245.03,-140.16"/>
<polygon fill="#63b8ff" stroke="#63b8ff" points="248.26,-138.8 240.61,-131.46 242.02,-141.96 248.26,-138.8"/>
</a>
</g>
</g>
<!-- Node19&#45;&gt;Node6 -->
<g id="edge32_Node000019_Node000006" class="edge">
<title>Node19&#45;&gt;Node6</title>
<g id="a_edge32_Node000019_Node000006"><a xlink:title=" ">
<path fill="none" stroke="#63b8ff" d="M263.63,-165.5C265.09,-152.97 266.67,-129.52 261.38,-110.5 258.8,-101.24 253.81,-91.9 248.9,-84.18"/>
<polygon fill="#63b8ff" stroke="#63b8ff" points="251.86,-82.32 243.32,-76.06 246.09,-86.29 251.86,-82.32"/>
</a>
</g>
</g>
<!-- Node20&#45;&gt;Node5 -->
<g id="edge36_Node000020_Node000005" class="edge">
<title>Node20&#45;&gt;Node5</title>
<g id="a_edge36_Node000020_Node000005"><a xlink:title=" ">
<path fill="none" stroke="#63b8ff" d="M319.24,-165.34C303.62,-157.11 280.29,-144.81 262.2,-135.27"/>
<polygon fill="#63b8ff" stroke="#63b8ff" points="264.07,-132.3 253.59,-130.73 260.81,-138.49 264.07,-132.3"/>
</a>
</g>
</g>
<!-- Node20&#45;&gt;Node6 -->
<g id="edge35_Node000020_Node000006" class="edge">
<title>Node20&#45;&gt;Node6</title>
<g id="a_edge35_Node000020_Node000006"><a xlink:title=" ">
<path fill="none" stroke="#63b8ff" d="M328,-165.25C316.59,-152.84 295.49,-129.93 277.38,-110.5 268.85,-101.36 259.3,-91.21 251.47,-82.9"/>
<polygon fill="#63b8ff" stroke="#63b8ff" points="254.22,-80.71 244.81,-75.84 249.13,-85.52 254.22,-80.71"/>
</a>
</g>
</g>
</g>
</svg>
