<?xml version="1.0" encoding="UTF-8" standalone="no"?>
<!DOCTYPE svg PUBLIC "-//W3C//DTD SVG 1.1//EN"
 "http://www.w3.org/Graphics/SVG/1.1/DTD/svg11.dtd">
<!-- Generated by graphviz version 12.2.0 (20241103.1931)
 -->
<!-- Title: ee/erl/src/erl.c Pages: 1 -->
<!--zoomable 359 -->

<svg id="main" version="1.1" xmlns="http://www.w3.org/2000/svg" xmlns:xlink="http://www.w3.org/1999/xlink" xml:space="preserve" onload="init(evt)">

<style type="text/css"><![CDATA[
.node, .edge {opacity: 0.7;}
.node.selected, .edge.selected {opacity: 1;}
.edge:hover path { stroke: red; }
.edge:hover polygon { stroke: red; fill: red; }
]]></style>

<defs>
  <circle id="rim" cx="0" cy="0" r="7"/>
  <circle id="rim2" cx="0" cy="0" r="3.5"/>
  <g id="zoomPlus">
    <use xlink:href="#rim" fill="#404040"><set attributeName="fill" to="#808080" begin="zoomplus.mouseover" end="zoomplus.mouseout"/></use>
    <path d="M-4,0h8M0,-4v8" fill="none" stroke="white" stroke-width="1.5" pointer-events="none"/>
  </g>
  <g id="zoomMin">
    <use xlink:href="#rim" fill="#404040"><set attributeName="fill" to="#808080" begin="zoomminus.mouseover" end="zoomminus.mouseout"/></use>
    <path d="M-4,0h8" fill="none" stroke="white" stroke-width="1.5" pointer-events="none"/>
  </g>
  <g id="arrowUp" transform="translate(30 24)">
    <use xlink:href="#rim"/>
    <path pointer-events="none" fill="none" stroke="white" stroke-width="1.5" d="M0,-3.0v7 M-2.5,-0.5L0,-3.0L2.5,-0.5"/>
  </g>
  <g id="arrowRight" transform="rotate(90) translate(36 -43)">
    <use xlink:href="#rim"/>
    <path pointer-events="none" fill="none" stroke="white" stroke-width="1.5" d="M0,-3.0v7 M-2.5,-0.5L0,-3.0L2.5,-0.5"/>
  </g>
  <g id="arrowDown" transform="rotate(180) translate(-30 -48)">
    <use xlink:href="#rim"/>
    <path pointer-events="none" fill="none" stroke="white" stroke-width="1.5" d="M0,-3.0v7 M-2.5,-0.5L0,-3.0L2.5,-0.5"/>
  </g>
  <g id="arrowLeft" transform="rotate(270) translate(-36 17)">
    <use xlink:href="#rim"/>
    <path pointer-events="none" fill="none" stroke="white" stroke-width="1.5" d="M0,-3.0v7 M-2.5,-0.5L0,-3.0L2.5,-0.5"/>
  </g>
  <g id="resetDef">
    <use xlink:href="#rim2" fill="#404040"><set attributeName="fill" to="#808080" begin="reset.mouseover" end="reset.mouseout"/></use>
  </g>
</defs>
<script type="application/ecmascript">
var viewWidth = 506;
var viewHeight = 359;
var sectionId = 'dynsection-0';
</script>
<script type="application/ecmascript" xlink:href="svg.min.js"/>
<svg id="graph" class="graph">
<g id="viewport">
<title>ee/erl/src/erl.c</title>
<!-- Node1 -->
<g id="Node000001" class="node">
<title>Node1</title>
<g id="a_Node000001"><a xlink:title=" ">
<polygon fill="#999999" stroke="#666666" points="286.12,-350.75 208.62,-350.75 208.62,-331.5 286.12,-331.5 286.12,-350.75"/>
<text text-anchor="middle" x="247.38" y="-337.25" font-family="Helvetica,sans-Serif" font-size="10.00">ee/erl/src/erl.c</text>
</a>
</g>
</g>
<!-- Node2 -->
<g id="Node000002" class="node">
<title>Node2</title>
<g id="a_Node000002"><a xlink:title=" ">
<polygon fill="#e0e0e0" stroke="#999999" points="46.75,-295.5 0,-295.5 0,-276.25 46.75,-276.25 46.75,-295.5"/>
<text text-anchor="middle" x="23.38" y="-282" font-family="Helvetica,sans-Serif" font-size="10.00">stdlib.h</text>
</a>
</g>
</g>
<!-- Node1&#45;&gt;Node2 -->
<g id="edge1_Node000001_Node000002" class="edge">
<title>Node1&#45;&gt;Node2</title>
<g id="a_edge1_Node000001_Node000002"><a xlink:title=" ">
<path fill="none" stroke="#63b8ff" d="M208.16,-331.28C171.77,-323 115.81,-310.09 57.97,-295.84"/>
<polygon fill="#63b8ff" stroke="#63b8ff" points="59.17,-292.53 48.62,-293.53 57.49,-299.33 59.17,-292.53"/>
</a>
</g>
</g>
<!-- Node3 -->
<g id="Node000003" class="node">
<title>Node3</title>
<g id="a_Node000003"><a xlink:href="stdio_8h.html" target="_top" xlink:title=" ">
<polygon fill="white" stroke="#666666" points="135.62,-185 91.12,-185 91.12,-165.75 135.62,-165.75 135.62,-185"/>
<text text-anchor="middle" x="113.38" y="-171.5" font-family="Helvetica,sans-Serif" font-size="10.00">stdio.h</text>
</a>
</g>
</g>
<!-- Node1&#45;&gt;Node3 -->
<g id="edge2_Node000001_Node000003" class="edge">
<title>Node1&#45;&gt;Node3</title>
<g id="a_edge2_Node000001_Node000003"><a xlink:title=" ">
<path fill="none" stroke="#63b8ff" d="M241.92,-331.16C234.12,-318.53 219.07,-294.96 204.38,-276.25 180.36,-245.67 149.3,-212.82 130.38,-193.46"/>
<polygon fill="#63b8ff" stroke="#63b8ff" points="132.95,-191.09 123.44,-186.42 127.96,-196 132.95,-191.09"/>
</a>
</g>
</g>
<!-- Node9 -->
<g id="Node000009" class="node">
<title>Node9</title>
<g id="a_Node000009"><a xlink:href="string_8h_source.html" target="_top" xlink:title=" ">
<polygon fill="white" stroke="#666666" points="296.12,-240.25 248.62,-240.25 248.62,-221 296.12,-221 296.12,-240.25"/>
<text text-anchor="middle" x="272.38" y="-226.75" font-family="Helvetica,sans-Serif" font-size="10.00">string.h</text>
</a>
</g>
</g>
<!-- Node1&#45;&gt;Node9 -->
<g id="edge8_Node000001_Node000009" class="edge">
<title>Node1&#45;&gt;Node9</title>
<g id="a_edge8_Node000001_Node000009"><a xlink:title=" ">
<path fill="none" stroke="#63b8ff" d="M249.42,-331.25C253.39,-314 262.25,-275.58 267.72,-251.81"/>
<polygon fill="#63b8ff" stroke="#63b8ff" points="271.13,-252.63 269.96,-242.1 264.31,-251.06 271.13,-252.63"/>
</a>
</g>
</g>
<!-- Node13 -->
<g id="Node000013" class="node">
<title>Node13</title>
<g id="a_Node000013"><a xlink:href="fcntl_8h_source.html" target="_top" xlink:title=" ">
<polygon fill="white" stroke="#666666" points="412.5,-295.5 352.25,-295.5 352.25,-276.25 412.5,-276.25 412.5,-295.5"/>
<text text-anchor="middle" x="382.38" y="-282" font-family="Helvetica,sans-Serif" font-size="10.00">sys/fcntl.h</text>
</a>
</g>
</g>
<!-- Node1&#45;&gt;Node13 -->
<g id="edge16_Node000001_Node000013" class="edge">
<title>Node1&#45;&gt;Node13</title>
<g id="a_edge16_Node000001_Node000013"><a xlink:title=" ">
<path fill="none" stroke="#63b8ff" d="M270.28,-331.09C291.8,-322.6 324.29,-309.79 348.75,-300.14"/>
<polygon fill="#63b8ff" stroke="#63b8ff" points="349.94,-303.43 357.95,-296.51 347.37,-296.92 349.94,-303.43"/>
</a>
</g>
</g>
<!-- Node14 -->
<g id="Node000014" class="node">
<title>Node14</title>
<g id="a_Node000014"><a xlink:href="unistd_8h_source.html" target="_top" xlink:title=" ">
<polygon fill="white" stroke="#666666" points="498.25,-295.5 430.5,-295.5 430.5,-276.25 498.25,-276.25 498.25,-295.5"/>
<text text-anchor="middle" x="464.38" y="-282" font-family="Helvetica,sans-Serif" font-size="10.00">sys/unistd.h</text>
</a>
</g>
</g>
<!-- Node1&#45;&gt;Node14 -->
<g id="edge17_Node000001_Node000014" class="edge">
<title>Node1&#45;&gt;Node14</title>
<g id="a_edge17_Node000001_Node000014"><a xlink:title=" ">
<path fill="none" stroke="#63b8ff" d="M284.19,-331.09C321.46,-321.94 379.18,-307.78 419.21,-297.96"/>
<polygon fill="#63b8ff" stroke="#63b8ff" points="419.9,-301.39 428.78,-295.61 418.23,-294.59 419.9,-301.39"/>
</a>
</g>
</g>
<!-- Node15 -->
<g id="Node000015" class="node">
<title>Node15</title>
<g id="a_Node000015"><a xlink:href="erl_8h.html" target="_top" xlink:title=" ">
<polygon fill="white" stroke="#666666" points="341.38,-74.5 307.38,-74.5 307.38,-55.25 341.38,-55.25 341.38,-74.5"/>
<text text-anchor="middle" x="324.38" y="-61" font-family="Helvetica,sans-Serif" font-size="10.00">erl.h</text>
</a>
</g>
</g>
<!-- Node1&#45;&gt;Node15 -->
<g id="edge18_Node000001_Node000015" class="edge">
<title>Node1&#45;&gt;Node15</title>
<g id="a_edge18_Node000001_Node000015"><a xlink:title=" ">
<path fill="none" stroke="#63b8ff" d="M259.75,-331.23C281.51,-314.43 324.38,-275.74 324.38,-231.62 324.38,-231.62 324.38,-231.62 324.38,-174.38 324.38,-143.66 324.38,-108.05 324.38,-86.24"/>
<polygon fill="#63b8ff" stroke="#63b8ff" points="327.88,-86.39 324.38,-76.39 320.88,-86.39 327.88,-86.39"/>
</a>
</g>
</g>
<!-- Node16 -->
<g id="Node000016" class="node">
<title>Node16</title>
<g id="a_Node000016"><a xlink:href="hashtab_8h_source.html" target="_top" xlink:title=" ">
<polygon fill="white" stroke="#666666" points="195.38,-295.5 137.38,-295.5 137.38,-276.25 195.38,-276.25 195.38,-295.5"/>
<text text-anchor="middle" x="166.38" y="-282" font-family="Helvetica,sans-Serif" font-size="10.00">hashtab.h</text>
</a>
</g>
</g>
<!-- Node1&#45;&gt;Node16 -->
<g id="edge20_Node000001_Node000016" class="edge">
<title>Node1&#45;&gt;Node16</title>
<g id="a_edge20_Node000001_Node000016"><a xlink:title=" ">
<path fill="none" stroke="#63b8ff" d="M233.63,-331.09C221.65,-323.21 204,-311.61 189.79,-302.27"/>
<polygon fill="#63b8ff" stroke="#63b8ff" points="191.73,-299.35 181.45,-296.78 187.88,-305.2 191.73,-299.35"/>
</a>
</g>
</g>
<!-- Node18 -->
<g id="Node000018" class="node">
<title>Node18</title>
<g id="a_Node000018"><a xlink:href="recycle_8h_source.html" target="_top" xlink:title=" ">
<polygon fill="white" stroke="#666666" points="119.5,-295.5 65.25,-295.5 65.25,-276.25 119.5,-276.25 119.5,-295.5"/>
<text text-anchor="middle" x="92.38" y="-282" font-family="Helvetica,sans-Serif" font-size="10.00">recycle.h</text>
</a>
</g>
</g>
<!-- Node1&#45;&gt;Node18 -->
<g id="edge24_Node000001_Node000018" class="edge">
<title>Node1&#45;&gt;Node18</title>
<g id="a_edge24_Node000001_Node000018"><a xlink:title=" ">
<path fill="none" stroke="#63b8ff" d="M221.08,-331.09C195.92,-322.45 157.72,-309.32 129.47,-299.62"/>
<polygon fill="#63b8ff" stroke="#63b8ff" points="130.82,-296.38 120.23,-296.44 128.55,-303 130.82,-296.38"/>
</a>
</g>
</g>
<!-- Node4 -->
<g id="Node000004" class="node">
<title>Node4</title>
<g id="a_Node000004"><a xlink:title=" ">
<polygon fill="#e0e0e0" stroke="#999999" points="104.62,-129.75 54.12,-129.75 54.12,-110.5 104.62,-110.5 104.62,-129.75"/>
<text text-anchor="middle" x="79.38" y="-116.25" font-family="Helvetica,sans-Serif" font-size="10.00">stdarg.h</text>
</a>
</g>
</g>
<!-- Node3&#45;&gt;Node4 -->
<g id="edge3_Node000003_Node000004" class="edge">
<title>Node3&#45;&gt;Node4</title>
<g id="a_edge3_Node000003_Node000004"><a xlink:title=" ">
<path fill="none" stroke="#63b8ff" d="M107.76,-165.58C103.26,-158.53 96.79,-148.4 91.16,-139.58"/>
<polygon fill="#63b8ff" stroke="#63b8ff" points="94.26,-137.93 85.93,-131.38 88.36,-141.7 94.26,-137.93"/>
</a>
</g>
</g>
<!-- Node5 -->
<g id="Node000005" class="node">
<title>Node5</title>
<g id="a_Node000005"><a xlink:href="irx_8h.html" target="_top" xlink:title=" ">
<polygon fill="white" stroke="#666666" points="156,-129.75 122.75,-129.75 122.75,-110.5 156,-110.5 156,-129.75"/>
<text text-anchor="middle" x="139.38" y="-116.25" font-family="Helvetica,sans-Serif" font-size="10.00">irx.h</text>
</a>
</g>
</g>
<!-- Node3&#45;&gt;Node5 -->
<g id="edge4_Node000003_Node000005" class="edge">
<title>Node3&#45;&gt;Node5</title>
<g id="a_edge4_Node000003_Node000005"><a xlink:title=" ">
<path fill="none" stroke="#63b8ff" d="M117.67,-165.58C121,-158.76 125.74,-149.06 129.94,-140.45"/>
<polygon fill="#63b8ff" stroke="#63b8ff" points="133.08,-141.99 134.32,-131.47 126.79,-138.92 133.08,-141.99"/>
</a>
</g>
</g>
<!-- Node6 -->
<g id="Node000006" class="node">
<title>Node6</title>
<g id="a_Node000006"><a xlink:href="iop_2kernel_2include_2types_8h_source.html" target="_top" xlink:title=" ">
<polygon fill="white" stroke="#666666" points="184.75,-74.5 138,-74.5 138,-55.25 184.75,-55.25 184.75,-74.5"/>
<text text-anchor="middle" x="161.38" y="-61" font-family="Helvetica,sans-Serif" font-size="10.00">types.h</text>
</a>
</g>
</g>
<!-- Node5&#45;&gt;Node6 -->
<g id="edge5_Node000005_Node000006" class="edge">
<title>Node5&#45;&gt;Node6</title>
<g id="a_edge5_Node000005_Node000006"><a xlink:title=" ">
<path fill="none" stroke="#63b8ff" d="M143.01,-110.33C145.79,-103.59 149.75,-94.02 153.27,-85.49"/>
<polygon fill="#63b8ff" stroke="#63b8ff" points="156.5,-86.84 157.09,-76.26 150.03,-84.16 156.5,-86.84"/>
</a>
</g>
</g>
<!-- Node7 -->
<g id="Node000007" class="node">
<title>Node7</title>
<g id="a_Node000007"><a xlink:title=" ">
<polygon fill="#e0e0e0" stroke="#999999" points="130.62,-19.25 80.12,-19.25 80.12,0 130.62,0 130.62,-19.25"/>
<text text-anchor="middle" x="105.38" y="-5.75" font-family="Helvetica,sans-Serif" font-size="10.00">stddef.h</text>
</a>
</g>
</g>
<!-- Node6&#45;&gt;Node7 -->
<g id="edge6_Node000006_Node000007" class="edge">
<title>Node6&#45;&gt;Node7</title>
<g id="a_edge6_Node000006_Node000007"><a xlink:title=" ">
<path fill="none" stroke="#63b8ff" d="M151.88,-54.84C143.94,-47.3 132.43,-36.35 122.84,-27.23"/>
<polygon fill="#63b8ff" stroke="#63b8ff" points="125.49,-24.92 115.83,-20.57 120.67,-29.99 125.49,-24.92"/>
</a>
</g>
</g>
<!-- Node8 -->
<g id="Node000008" class="node">
<title>Node8</title>
<g id="a_Node000008"><a xlink:href="tamtypes_8h.html" target="_top" xlink:title=" ">
<polygon fill="white" stroke="#666666" points="295,-19.25 231.75,-19.25 231.75,0 295,0 295,-19.25"/>
<text text-anchor="middle" x="263.38" y="-5.75" font-family="Helvetica,sans-Serif" font-size="10.00">tamtypes.h</text>
</a>
</g>
</g>
<!-- Node6&#45;&gt;Node8 -->
<g id="edge7_Node000006_Node000008" class="edge">
<title>Node6&#45;&gt;Node8</title>
<g id="a_edge7_Node000006_Node000008"><a xlink:title=" ">
<path fill="none" stroke="#63b8ff" d="M178.68,-54.84C194.36,-46.66 217.73,-34.46 235.95,-24.94"/>
<polygon fill="#63b8ff" stroke="#63b8ff" points="237.4,-28.13 244.65,-20.4 234.16,-21.93 237.4,-28.13"/>
</a>
</g>
</g>
<!-- Node10 -->
<g id="Node000010" class="node">
<title>Node10</title>
<g id="a_Node000010"><a xlink:href="sysclib_8h.html" target="_top" xlink:title=" ">
<polygon fill="white" stroke="#666666" points="236.12,-185 182.62,-185 182.62,-165.75 236.12,-165.75 236.12,-185"/>
<text text-anchor="middle" x="209.38" y="-171.5" font-family="Helvetica,sans-Serif" font-size="10.00">sysclib.h</text>
</a>
</g>
</g>
<!-- Node9&#45;&gt;Node10 -->
<g id="edge9_Node000009_Node000010" class="edge">
<title>Node9&#45;&gt;Node10</title>
<g id="a_edge9_Node000009_Node000010"><a xlink:title=" ">
<path fill="none" stroke="#63b8ff" d="M261.69,-220.59C252.67,-212.97 239.54,-201.87 228.69,-192.7"/>
<polygon fill="#63b8ff" stroke="#63b8ff" points="230.96,-190.03 221.06,-186.25 226.44,-195.38 230.96,-190.03"/>
</a>
</g>
</g>
<!-- Node10&#45;&gt;Node4 -->
<g id="edge12_Node000010_Node000004" class="edge">
<title>Node10&#45;&gt;Node4</title>
<g id="a_edge12_Node000010_Node000004"><a xlink:title=" ">
<path fill="none" stroke="#63b8ff" d="M187.32,-165.34C166.69,-156.89 135.59,-144.15 112.07,-134.52"/>
<polygon fill="#63b8ff" stroke="#63b8ff" points="113.52,-131.33 102.94,-130.78 110.86,-137.81 113.52,-131.33"/>
</a>
</g>
</g>
<!-- Node10&#45;&gt;Node5 -->
<g id="edge11_Node000010_Node000005" class="edge">
<title>Node10&#45;&gt;Node5</title>
<g id="a_edge11_Node000010_Node000005"><a xlink:title=" ">
<path fill="none" stroke="#63b8ff" d="M197.5,-165.34C187.28,-157.57 172.3,-146.17 160.11,-136.9"/>
<polygon fill="#63b8ff" stroke="#63b8ff" points="162.36,-134.21 152.28,-130.94 158.12,-139.78 162.36,-134.21"/>
</a>
</g>
</g>
<!-- Node10&#45;&gt;Node6 -->
<g id="edge10_Node000010_Node000006" class="edge">
<title>Node10&#45;&gt;Node6</title>
<g id="a_edge10_Node000010_Node000006"><a xlink:title=" ">
<path fill="none" stroke="#63b8ff" d="M205.45,-165.5C197.71,-148.01 180.35,-108.77 169.87,-85.09"/>
<polygon fill="#63b8ff" stroke="#63b8ff" points="173.22,-83.99 165.97,-76.26 166.81,-86.82 173.22,-83.99"/>
</a>
</g>
</g>
<!-- Node11 -->
<g id="Node000011" class="node">
<title>Node11</title>
<g id="a_Node000011"><a xlink:href="setjmp_8h.html" target="_top" xlink:title=" ">
<polygon fill="white" stroke="#666666" points="289.75,-74.5 237,-74.5 237,-55.25 289.75,-55.25 289.75,-74.5"/>
<text text-anchor="middle" x="263.38" y="-61" font-family="Helvetica,sans-Serif" font-size="10.00">setjmp.h</text>
</a>
</g>
</g>
<!-- Node10&#45;&gt;Node11 -->
<g id="edge13_Node000010_Node000011" class="edge">
<title>Node10&#45;&gt;Node11</title>
<g id="a_edge13_Node000010_Node000011"><a xlink:title=" ">
<path fill="none" stroke="#63b8ff" d="M228.9,-165.34C242.43,-157.9 259.41,-145.94 267.38,-129.75 274.07,-116.15 272.49,-98.91 269.56,-85.77"/>
<polygon fill="#63b8ff" stroke="#63b8ff" points="272.95,-84.88 266.95,-76.14 266.19,-86.71 272.95,-84.88"/>
</a>
</g>
</g>
<!-- Node12 -->
<g id="Node000012" class="node">
<title>Node12</title>
<g id="a_Node000012"><a xlink:href="ctype_8h.html" target="_top" xlink:title=" ">
<polygon fill="white" stroke="#666666" points="258.75,-129.75 212,-129.75 212,-110.5 258.75,-110.5 258.75,-129.75"/>
<text text-anchor="middle" x="235.38" y="-116.25" font-family="Helvetica,sans-Serif" font-size="10.00">ctype.h</text>
</a>
</g>
</g>
<!-- Node10&#45;&gt;Node12 -->
<g id="edge15_Node000010_Node000012" class="edge">
<title>Node10&#45;&gt;Node12</title>
<g id="a_edge15_Node000010_Node000012"><a xlink:title=" ">
<path fill="none" stroke="#63b8ff" d="M213.67,-165.58C217,-158.76 221.74,-149.06 225.94,-140.45"/>
<polygon fill="#63b8ff" stroke="#63b8ff" points="229.08,-141.99 230.32,-131.47 222.79,-138.92 229.08,-141.99"/>
</a>
</g>
</g>
<!-- Node11&#45;&gt;Node8 -->
<g id="edge14_Node000011_Node000008" class="edge">
<title>Node11&#45;&gt;Node8</title>
<g id="a_edge14_Node000011_Node000008"><a xlink:title=" ">
<path fill="none" stroke="#63b8ff" d="M263.38,-55.08C263.38,-48.57 263.38,-39.42 263.38,-31.12"/>
<polygon fill="#63b8ff" stroke="#63b8ff" points="266.88,-31.12 263.38,-21.12 259.88,-31.12 266.88,-31.12"/>
</a>
</g>
</g>
<!-- Node15&#45;&gt;Node8 -->
<g id="edge19_Node000015_Node000008" class="edge">
<title>Node15&#45;&gt;Node8</title>
<g id="a_edge19_Node000015_Node000008"><a xlink:title=" ">
<path fill="none" stroke="#63b8ff" d="M314.03,-54.84C305.3,-47.22 292.59,-36.12 282.08,-26.95"/>
<polygon fill="#63b8ff" stroke="#63b8ff" points="284.55,-24.46 274.71,-20.52 279.94,-29.73 284.55,-24.46"/>
</a>
</g>
</g>
<!-- Node17 -->
<g id="Node000017" class="node">
<title>Node17</title>
<g id="a_Node000017"><a xlink:href="standard_8h_source.html" target="_top" xlink:title=" ">
<polygon fill="white" stroke="#666666" points="136.88,-240.25 75.88,-240.25 75.88,-221 136.88,-221 136.88,-240.25"/>
<text text-anchor="middle" x="106.38" y="-226.75" font-family="Helvetica,sans-Serif" font-size="10.00">standard.h</text>
</a>
</g>
</g>
<!-- Node16&#45;&gt;Node17 -->
<g id="edge21_Node000016_Node000017" class="edge">
<title>Node16&#45;&gt;Node17</title>
<g id="a_edge21_Node000016_Node000017"><a xlink:title=" ">
<path fill="none" stroke="#63b8ff" d="M156.2,-275.84C147.61,-268.22 135.11,-257.12 124.77,-247.95"/>
<polygon fill="#63b8ff" stroke="#63b8ff" points="127.34,-245.55 117.53,-241.53 122.69,-250.79 127.34,-245.55"/>
</a>
</g>
</g>
<!-- Node17&#45;&gt;Node3 -->
<g id="edge22_Node000017_Node000003" class="edge">
<title>Node17&#45;&gt;Node3</title>
<g id="a_edge22_Node000017_Node000003"><a xlink:title=" ">
<path fill="none" stroke="#63b8ff" d="M107.53,-220.83C108.4,-214.24 109.62,-204.96 110.72,-196.57"/>
<polygon fill="#63b8ff" stroke="#63b8ff" points="114.16,-197.23 112,-186.86 107.22,-196.32 114.16,-197.23"/>
</a>
</g>
</g>
<!-- Node17&#45;&gt;Node7 -->
<g id="edge23_Node000017_Node000007" class="edge">
<title>Node17&#45;&gt;Node7</title>
<g id="a_edge23_Node000017_Node000007"><a xlink:title=" ">
<path fill="none" stroke="#63b8ff" d="M98.39,-220.54C84.37,-203.93 55.83,-166.91 45.38,-129.75 34.47,-90.98 66.07,-49.91 87.46,-27.56"/>
<polygon fill="#63b8ff" stroke="#63b8ff" points="89.66,-30.31 94.25,-20.76 84.7,-25.37 89.66,-30.31"/>
</a>
</g>
</g>
<!-- Node18&#45;&gt;Node17 -->
<g id="edge25_Node000018_Node000017" class="edge">
<title>Node18&#45;&gt;Node17</title>
<g id="a_edge25_Node000018_Node000017"><a xlink:title=" ">
<path fill="none" stroke="#63b8ff" d="M94.69,-276.08C96.44,-269.42 98.92,-259.99 101.14,-251.53"/>
<polygon fill="#63b8ff" stroke="#63b8ff" points="104.47,-252.63 103.63,-242.07 97.7,-250.85 104.47,-252.63"/>
</a>
</g>
</g>
</g>
</svg>

<g id="navigator" transform="translate(0 0)" fill="#404254">
  <rect fill="#f2f5e9" fill-opacity="0.5" stroke="#606060" stroke-width=".5" x="0" y="0" width="60" height="60"/>
  <use id="zoomplus" xlink:href="#zoomPlus" x="17" y="9" onmousedown="handleZoom(evt,'in')"/>
  <use id="zoomminus" xlink:href="#zoomMin" x="42" y="9" onmousedown="handleZoom(evt,'out')"/>
  <use id="reset" xlink:href="#resetDef" x="30" y="36" onmousedown="handleReset()"/>
   <use id="arrowup" xlink:href="#arrowUp" x="0" y="0" onmousedown="handlePan(0,-1)"/>
  <use id="arrowright" xlink:href="#arrowRight" x="0" y="0" onmousedown="handlePan(1,0)"/>
  <use id="arrowdown" xlink:href="#arrowDown" x="0" y="0" onmousedown="handlePan(0,1)"/>
  <use id="arrowleft" xlink:href="#arrowLeft" x="0" y="0" onmousedown="handlePan(-1,0)"/>
</g>
<svg viewBox="0 0 15 15" width="100%" height="30px" preserveAspectRatio="xMaxYMin meet">
 <g id="arrow_out" transform="scale(0.3 0.3)">
  <a xlink:href="erl_8c__incl_org.svg" target="_base">
   <rect id="button" ry="5" rx="5" y="6" x="6" height="38" width="38"
        fill="#f2f5e9" fill-opacity="0.5" stroke="#606060" stroke-width="1.0"/>
   <path id="arrow"
     d="M 11.500037,31.436501 C 11.940474,20.09759 22.043105,11.32322 32.158766,21.979434 L 37.068811,17.246167 C 37.068811,17.246167 37.088388,32 37.088388,32 L 22.160133,31.978069 C 22.160133,31.978069 26.997745,27.140456 26.997745,27.140456 C 18.528582,18.264221 13.291696,25.230495 11.500037,31.436501 z"
     style="fill:#404040;"/>
  </a>
 </g>
</svg>

<style type='text/css'>
<![CDATA[
[data-mouse-over-selected='false'] { opacity: 0.7; }
[data-mouse-over-selected='true']  { opacity: 1.0; }
]]>
</style>
<script type="application/ecmascript"><![CDATA[
document.addEventListener('DOMContentLoaded', (event) => {
  highlightEdges();
  highlightAdjacentNodes();
});
]]></script>
</svg>
