<?xml version="1.0" encoding="UTF-8" standalone="no"?>
<!DOCTYPE svg PUBLIC "-//W3C//DTD SVG 1.1//EN"
 "http://www.w3.org/Graphics/SVG/1.1/DTD/svg11.dtd">
<!-- Generated by graphviz version 12.2.0 (20241103.1931)
 -->
<!-- Title: iop/fs/fakehost/src/fakehost.c Pages: 1 -->
<svg width="818pt" height="260pt"
 viewBox="0.00 0.00 817.50 259.50" xmlns="http://www.w3.org/2000/svg" xmlns:xlink="http://www.w3.org/1999/xlink">
<g id="graph0" class="graph" transform="scale(1 1) rotate(0) translate(4 255.5)">
<title>iop/fs/fakehost/src/fakehost.c</title>
<!-- Node1 -->
<g id="Node000001" class="node">
<title>Node1</title>
<g id="a_Node000001"><a xlink:title=" ">
<polygon fill="#999999" stroke="#666666" points="437.38,-251.5 340.38,-251.5 340.38,-221 437.38,-221 437.38,-251.5"/>
<text text-anchor="start" x="348.38" y="-238" font-family="Helvetica,sans-Serif" font-size="10.00">iop/fs/fakehost/src</text>
<text text-anchor="middle" x="388.88" y="-226.75" font-family="Helvetica,sans-Serif" font-size="10.00">/fakehost.c</text>
</a>
</g>
</g>
<!-- Node2 -->
<g id="Node000002" class="node">
<title>Node2</title>
<g id="a_Node000002"><a xlink:title=" ">
<polygon fill="#e0e0e0" stroke="#999999" points="356.25,-129.75 309.5,-129.75 309.5,-110.5 356.25,-110.5 356.25,-129.75"/>
<text text-anchor="middle" x="332.88" y="-116.25" font-family="Helvetica,sans-Serif" font-size="10.00">types.h</text>
</a>
</g>
</g>
<!-- Node1&#45;&gt;Node2 -->
<g id="edge1_Node000001_Node000002" class="edge">
<title>Node1&#45;&gt;Node2</title>
<g id="a_edge1_Node000001_Node000002"><a xlink:title=" ">
<path fill="none" stroke="#63b8ff" d="M358.94,-220.67C345.28,-212.29 330.48,-200.36 322.88,-185 316.01,-171.14 319.43,-153.69 324.06,-140.53"/>
<polygon fill="#63b8ff" stroke="#63b8ff" points="327.29,-141.87 327.81,-131.29 320.81,-139.24 327.29,-141.87"/>
</a>
</g>
</g>
<!-- Node3 -->
<g id="Node000003" class="node">
<title>Node3</title>
<g id="a_Node000003"><a xlink:href="loadcore_8h.html" target="_top" xlink:title=" ">
<polygon fill="white" stroke="#666666" points="205,-185 144.75,-185 144.75,-165.75 205,-165.75 205,-185"/>
<text text-anchor="middle" x="174.88" y="-171.5" font-family="Helvetica,sans-Serif" font-size="10.00">loadcore.h</text>
</a>
</g>
</g>
<!-- Node1&#45;&gt;Node3 -->
<g id="edge2_Node000001_Node000003" class="edge">
<title>Node1&#45;&gt;Node3</title>
<g id="a_edge2_Node000001_Node000003"><a xlink:title=" ">
<path fill="none" stroke="#63b8ff" d="M340.05,-221.82C302.65,-211.53 251.62,-197.49 216.22,-187.75"/>
<polygon fill="#63b8ff" stroke="#63b8ff" points="217.35,-184.43 206.78,-185.15 215.49,-191.18 217.35,-184.43"/>
</a>
</g>
</g>
<!-- Node8 -->
<g id="Node000008" class="node">
<title>Node8</title>
<g id="a_Node000008"><a xlink:href="stdio_8h.html" target="_top" xlink:title=" ">
<polygon fill="white" stroke="#666666" points="376.12,-185 331.62,-185 331.62,-165.75 376.12,-165.75 376.12,-185"/>
<text text-anchor="middle" x="353.88" y="-171.5" font-family="Helvetica,sans-Serif" font-size="10.00">stdio.h</text>
</a>
</g>
</g>
<!-- Node1&#45;&gt;Node8 -->
<g id="edge8_Node000001_Node000008" class="edge">
<title>Node1&#45;&gt;Node8</title>
<g id="a_edge8_Node000001_Node000008"><a xlink:title=" ">
<path fill="none" stroke="#63b8ff" d="M380.22,-220.7C375.66,-213.03 370.01,-203.52 365.12,-195.29"/>
<polygon fill="#63b8ff" stroke="#63b8ff" points="368.16,-193.56 360.04,-186.75 362.15,-197.14 368.16,-193.56"/>
</a>
</g>
</g>
<!-- Node10 -->
<g id="Node000010" class="node">
<title>Node10</title>
<g id="a_Node000010"><a xlink:href="sysclib_8h.html" target="_top" xlink:title=" ">
<polygon fill="white" stroke="#666666" points="525.62,-185 472.12,-185 472.12,-165.75 525.62,-165.75 525.62,-185"/>
<text text-anchor="middle" x="498.88" y="-171.5" font-family="Helvetica,sans-Serif" font-size="10.00">sysclib.h</text>
</a>
</g>
</g>
<!-- Node1&#45;&gt;Node10 -->
<g id="edge11_Node000001_Node000010" class="edge">
<title>Node1&#45;&gt;Node10</title>
<g id="a_edge11_Node000001_Node000010"><a xlink:title=" ">
<path fill="none" stroke="#63b8ff" d="M416.35,-220.55C433.42,-211.41 455.27,-199.72 472.19,-190.66"/>
<polygon fill="#63b8ff" stroke="#63b8ff" points="473.51,-193.92 480.67,-186.12 470.2,-187.75 473.51,-193.92"/>
</a>
</g>
</g>
<!-- Node13 -->
<g id="Node000013" class="node">
<title>Node13</title>
<g id="a_Node000013"><a xlink:href="errno_8h.html" target="_top" xlink:title=" ">
<polygon fill="white" stroke="#666666" points="809.5,-129.75 764.25,-129.75 764.25,-110.5 809.5,-110.5 809.5,-129.75"/>
<text text-anchor="middle" x="786.88" y="-116.25" font-family="Helvetica,sans-Serif" font-size="10.00">errno.h</text>
</a>
</g>
</g>
<!-- Node1&#45;&gt;Node13 -->
<g id="edge18_Node000001_Node000013" class="edge">
<title>Node1&#45;&gt;Node13</title>
<g id="a_edge18_Node000001_Node000013"><a xlink:title=" ">
<path fill="none" stroke="#63b8ff" d="M437.61,-235.51C529.56,-234.96 723.76,-228.52 771.88,-185 783.9,-174.13 787.19,-155.6 787.74,-141.29"/>
<polygon fill="#63b8ff" stroke="#63b8ff" points="791.24,-141.6 787.68,-131.62 784.24,-141.64 791.24,-141.6"/>
</a>
</g>
</g>
<!-- Node14 -->
<g id="Node000014" class="node">
<title>Node14</title>
<g id="a_Node000014"><a xlink:href="thbase_8h.html" target="_top" xlink:title=" ">
<polygon fill="white" stroke="#666666" points="276.25,-185 223.5,-185 223.5,-165.75 276.25,-165.75 276.25,-185"/>
<text text-anchor="middle" x="249.88" y="-171.5" font-family="Helvetica,sans-Serif" font-size="10.00">thbase.h</text>
</a>
</g>
</g>
<!-- Node1&#45;&gt;Node14 -->
<g id="edge19_Node000001_Node000014" class="edge">
<title>Node1&#45;&gt;Node14</title>
<g id="a_edge19_Node000001_Node000014"><a xlink:title=" ">
<path fill="none" stroke="#63b8ff" d="M354.16,-220.55C331.87,-211.1 303.15,-198.94 281.5,-189.77"/>
<polygon fill="#63b8ff" stroke="#63b8ff" points="283.16,-186.67 272.59,-185.99 280.43,-193.12 283.16,-186.67"/>
</a>
</g>
</g>
<!-- Node15 -->
<g id="Node000015" class="node">
<title>Node15</title>
<g id="a_Node000015"><a xlink:href="intrman_8h.html" target="_top" xlink:title=" ">
<polygon fill="white" stroke="#666666" points="55.75,-185 0,-185 0,-165.75 55.75,-165.75 55.75,-185"/>
<text text-anchor="middle" x="27.88" y="-171.5" font-family="Helvetica,sans-Serif" font-size="10.00">intrman.h</text>
</a>
</g>
</g>
<!-- Node1&#45;&gt;Node15 -->
<g id="edge22_Node000001_Node000015" class="edge">
<title>Node1&#45;&gt;Node15</title>
<g id="a_edge22_Node000001_Node000015"><a xlink:title=" ">
<path fill="none" stroke="#63b8ff" d="M340.1,-228.85C278.75,-220.54 169.96,-204.96 67.3,-185.35"/>
<polygon fill="#63b8ff" stroke="#63b8ff" points="68.08,-181.93 57.6,-183.47 66.75,-188.81 68.08,-181.93"/>
</a>
</g>
</g>
<!-- Node16 -->
<g id="Node000016" class="node">
<title>Node16</title>
<g id="a_Node000016"><a xlink:href="sysmem_8h.html" target="_top" xlink:title=" ">
<polygon fill="white" stroke="#666666" points="454,-185 393.75,-185 393.75,-165.75 454,-165.75 454,-185"/>
<text text-anchor="middle" x="423.88" y="-171.5" font-family="Helvetica,sans-Serif" font-size="10.00">sysmem.h</text>
</a>
</g>
</g>
<!-- Node1&#45;&gt;Node16 -->
<g id="edge25_Node000001_Node000016" class="edge">
<title>Node1&#45;&gt;Node16</title>
<g id="a_edge25_Node000001_Node000016"><a xlink:title=" ">
<path fill="none" stroke="#63b8ff" d="M397.53,-220.7C402.09,-213.03 407.74,-203.52 412.63,-195.29"/>
<polygon fill="#63b8ff" stroke="#63b8ff" points="415.6,-197.14 417.71,-186.75 409.59,-193.56 415.6,-197.14"/>
</a>
</g>
</g>
<!-- Node17 -->
<g id="Node000017" class="node">
<title>Node17</title>
<g id="a_Node000017"><a xlink:href="sifman_8h.html" target="_top" xlink:title=" ">
<polygon fill="white" stroke="#666666" points="126.25,-185 73.5,-185 73.5,-165.75 126.25,-165.75 126.25,-185"/>
<text text-anchor="middle" x="99.88" y="-171.5" font-family="Helvetica,sans-Serif" font-size="10.00">sifman.h</text>
</a>
</g>
</g>
<!-- Node1&#45;&gt;Node17 -->
<g id="edge29_Node000001_Node000017" class="edge">
<title>Node1&#45;&gt;Node17</title>
<g id="a_edge29_Node000001_Node000017"><a xlink:title=" ">
<path fill="none" stroke="#63b8ff" d="M340.26,-226.18C291.52,-216.95 214.09,-201.95 137.4,-185.26"/>
<polygon fill="#63b8ff" stroke="#63b8ff" points="138.58,-181.94 128.06,-183.22 137.08,-188.78 138.58,-181.94"/>
</a>
</g>
</g>
<!-- Node18 -->
<g id="Node000018" class="node">
<title>Node18</title>
<g id="a_Node000018"><a xlink:title=" ">
<polygon fill="#e0e0e0" stroke="#999999" points="688.25,-185 635.5,-185 635.5,-165.75 688.25,-165.75 688.25,-185"/>
<text text-anchor="middle" x="661.88" y="-171.5" font-family="Helvetica,sans-Serif" font-size="10.00">sifcmd.h</text>
</a>
</g>
</g>
<!-- Node1&#45;&gt;Node18 -->
<g id="edge32_Node000001_Node000018" class="edge">
<title>Node1&#45;&gt;Node18</title>
<g id="a_edge32_Node000001_Node000018"><a xlink:title=" ">
<path fill="none" stroke="#63b8ff" d="M437.75,-225.43C483.49,-216.13 554.01,-201.5 623.93,-185.62"/>
<polygon fill="#63b8ff" stroke="#63b8ff" points="624.7,-189.03 633.67,-183.4 623.14,-182.21 624.7,-189.03"/>
</a>
</g>
</g>
<!-- Node19 -->
<g id="Node000019" class="node">
<title>Node19</title>
<g id="a_Node000019"><a xlink:href="ioman_x_8h.html" target="_top" xlink:title=" ">
<polygon fill="white" stroke="#666666" points="763.12,-185 706.62,-185 706.62,-165.75 763.12,-165.75 763.12,-185"/>
<text text-anchor="middle" x="734.88" y="-171.5" font-family="Helvetica,sans-Serif" font-size="10.00">iomanX.h</text>
</a>
</g>
</g>
<!-- Node1&#45;&gt;Node19 -->
<g id="edge33_Node000001_Node000019" class="edge">
<title>Node1&#45;&gt;Node19</title>
<g id="a_edge33_Node000001_Node000019"><a xlink:title=" ">
<path fill="none" stroke="#63b8ff" d="M437.85,-228.21C496.49,-219.57 597.92,-203.96 695.07,-185.24"/>
<polygon fill="#63b8ff" stroke="#63b8ff" points="695.65,-188.69 704.8,-183.35 694.31,-181.82 695.65,-188.69"/>
</a>
</g>
</g>
<!-- Node25 -->
<g id="Node000025" class="node">
<title>Node25</title>
<g id="a_Node000025"><a xlink:href="ioman__mod_8h.html" target="_top" xlink:title=" ">
<polygon fill="white" stroke="#666666" points="617.75,-185 544,-185 544,-165.75 617.75,-165.75 617.75,-185"/>
<text text-anchor="middle" x="580.88" y="-171.5" font-family="Helvetica,sans-Serif" font-size="10.00">ioman_mod.h</text>
</a>
</g>
</g>
<!-- Node1&#45;&gt;Node25 -->
<g id="edge42_Node000001_Node000025" class="edge">
<title>Node1&#45;&gt;Node25</title>
<g id="a_edge42_Node000001_Node000025"><a xlink:title=" ">
<path fill="none" stroke="#63b8ff" d="M436.83,-220.55C468.64,-210.79 509.94,-198.13 540.15,-188.86"/>
<polygon fill="#63b8ff" stroke="#63b8ff" points="541.17,-192.21 549.7,-185.93 539.11,-185.52 541.17,-192.21"/>
</a>
</g>
</g>
<!-- Node3&#45;&gt;Node2 -->
<g id="edge3_Node000003_Node000002" class="edge">
<title>Node3&#45;&gt;Node2</title>
<g id="a_edge3_Node000003_Node000002"><a xlink:title=" ">
<path fill="none" stroke="#63b8ff" d="M201.68,-165.34C228.26,-156.38 269.11,-142.61 298.16,-132.82"/>
<polygon fill="#63b8ff" stroke="#63b8ff" points="299.25,-136.15 307.61,-129.64 297.02,-129.52 299.25,-136.15"/>
</a>
</g>
</g>
<!-- Node4 -->
<g id="Node000004" class="node">
<title>Node4</title>
<g id="a_Node000004"><a xlink:href="irx_8h.html" target="_top" xlink:title=" ">
<polygon fill="white" stroke="#666666" points="291.5,-129.75 258.25,-129.75 258.25,-110.5 291.5,-110.5 291.5,-129.75"/>
<text text-anchor="middle" x="274.88" y="-116.25" font-family="Helvetica,sans-Serif" font-size="10.00">irx.h</text>
</a>
</g>
</g>
<!-- Node3&#45;&gt;Node4 -->
<g id="edge4_Node000003_Node000004" class="edge">
<title>Node3&#45;&gt;Node4</title>
<g id="a_edge4_Node000003_Node000004"><a xlink:title=" ">
<path fill="none" stroke="#63b8ff" d="M191.84,-165.34C207.14,-157.19 229.91,-145.07 247.74,-135.58"/>
<polygon fill="#63b8ff" stroke="#63b8ff" points="249.31,-138.7 256.49,-130.91 246.02,-132.52 249.31,-138.7"/>
</a>
</g>
</g>
<!-- Node5 -->
<g id="Node000005" class="node">
<title>Node5</title>
<g id="a_Node000005"><a xlink:href="iop_2kernel_2include_2types_8h_source.html" target="_top" xlink:title=" ">
<polygon fill="white" stroke="#666666" points="334.25,-74.5 287.5,-74.5 287.5,-55.25 334.25,-55.25 334.25,-74.5"/>
<text text-anchor="middle" x="310.88" y="-61" font-family="Helvetica,sans-Serif" font-size="10.00">types.h</text>
</a>
</g>
</g>
<!-- Node4&#45;&gt;Node5 -->
<g id="edge5_Node000004_Node000005" class="edge">
<title>Node4&#45;&gt;Node5</title>
<g id="a_edge5_Node000004_Node000005"><a xlink:title=" ">
<path fill="none" stroke="#63b8ff" d="M280.82,-110.33C285.59,-103.28 292.44,-93.15 298.4,-84.33"/>
<polygon fill="#63b8ff" stroke="#63b8ff" points="301.25,-86.36 303.95,-76.11 295.45,-82.44 301.25,-86.36"/>
</a>
</g>
</g>
<!-- Node6 -->
<g id="Node000006" class="node">
<title>Node6</title>
<g id="a_Node000006"><a xlink:title=" ">
<polygon fill="#e0e0e0" stroke="#999999" points="336.12,-19.25 285.62,-19.25 285.62,0 336.12,0 336.12,-19.25"/>
<text text-anchor="middle" x="310.88" y="-5.75" font-family="Helvetica,sans-Serif" font-size="10.00">stddef.h</text>
</a>
</g>
</g>
<!-- Node5&#45;&gt;Node6 -->
<g id="edge6_Node000005_Node000006" class="edge">
<title>Node5&#45;&gt;Node6</title>
<g id="a_edge6_Node000005_Node000006"><a xlink:title=" ">
<path fill="none" stroke="#63b8ff" d="M310.88,-55.08C310.88,-48.57 310.88,-39.42 310.88,-31.12"/>
<polygon fill="#63b8ff" stroke="#63b8ff" points="314.38,-31.12 310.88,-21.12 307.38,-31.12 314.38,-31.12"/>
</a>
</g>
</g>
<!-- Node7 -->
<g id="Node000007" class="node">
<title>Node7</title>
<g id="a_Node000007"><a xlink:href="tamtypes_8h.html" target="_top" xlink:title=" ">
<polygon fill="white" stroke="#666666" points="453.5,-19.25 390.25,-19.25 390.25,0 453.5,0 453.5,-19.25"/>
<text text-anchor="middle" x="421.88" y="-5.75" font-family="Helvetica,sans-Serif" font-size="10.00">tamtypes.h</text>
</a>
</g>
</g>
<!-- Node5&#45;&gt;Node7 -->
<g id="edge7_Node000005_Node000007" class="edge">
<title>Node5&#45;&gt;Node7</title>
<g id="a_edge7_Node000005_Node000007"><a xlink:title=" ">
<path fill="none" stroke="#63b8ff" d="M329.7,-54.84C346.93,-46.58 372.68,-34.23 392.58,-24.68"/>
<polygon fill="#63b8ff" stroke="#63b8ff" points="394.09,-27.84 401.59,-20.36 391.06,-21.53 394.09,-27.84"/>
</a>
</g>
</g>
<!-- Node8&#45;&gt;Node4 -->
<g id="edge10_Node000008_Node000004" class="edge">
<title>Node8&#45;&gt;Node4</title>
<g id="a_edge10_Node000008_Node000004"><a xlink:title=" ">
<path fill="none" stroke="#63b8ff" d="M340.47,-165.34C328.78,-157.46 311.57,-145.86 297.71,-136.52"/>
<polygon fill="#63b8ff" stroke="#63b8ff" points="299.85,-133.74 289.6,-131.05 295.93,-139.54 299.85,-133.74"/>
</a>
</g>
</g>
<!-- Node9 -->
<g id="Node000009" class="node">
<title>Node9</title>
<g id="a_Node000009"><a xlink:title=" ">
<polygon fill="#e0e0e0" stroke="#999999" points="449.12,-129.75 398.62,-129.75 398.62,-110.5 449.12,-110.5 449.12,-129.75"/>
<text text-anchor="middle" x="423.88" y="-116.25" font-family="Helvetica,sans-Serif" font-size="10.00">stdarg.h</text>
</a>
</g>
</g>
<!-- Node8&#45;&gt;Node9 -->
<g id="edge9_Node000008_Node000009" class="edge">
<title>Node8&#45;&gt;Node9</title>
<g id="a_edge9_Node000008_Node000009"><a xlink:title=" ">
<path fill="none" stroke="#63b8ff" d="M365.75,-165.34C375.97,-157.57 390.95,-146.17 403.14,-136.9"/>
<polygon fill="#63b8ff" stroke="#63b8ff" points="405.13,-139.78 410.97,-130.94 400.89,-134.21 405.13,-139.78"/>
</a>
</g>
</g>
<!-- Node10&#45;&gt;Node2 -->
<g id="edge12_Node000010_Node000002" class="edge">
<title>Node10&#45;&gt;Node2</title>
<g id="a_edge12_Node000010_Node000002"><a xlink:title=" ">
<path fill="none" stroke="#63b8ff" d="M471.83,-165.7C443.36,-156.57 398.44,-142.16 367.42,-132.21"/>
<polygon fill="#63b8ff" stroke="#63b8ff" points="368.7,-128.94 358.11,-129.22 366.57,-135.61 368.7,-128.94"/>
</a>
</g>
</g>
<!-- Node10&#45;&gt;Node4 -->
<g id="edge13_Node000010_Node000004" class="edge">
<title>Node10&#45;&gt;Node4</title>
<g id="a_edge13_Node000010_Node000004"><a xlink:title=" ">
<path fill="none" stroke="#63b8ff" d="M471.76,-167.83C468.76,-167.12 465.76,-166.42 462.88,-165.75 394.38,-149.93 373.87,-149.4 302.74,-130.03"/>
<polygon fill="#63b8ff" stroke="#63b8ff" points="303.89,-126.72 293.32,-127.44 302.03,-133.47 303.89,-126.72"/>
</a>
</g>
</g>
<!-- Node10&#45;&gt;Node9 -->
<g id="edge14_Node000010_Node000009" class="edge">
<title>Node10&#45;&gt;Node9</title>
<g id="a_edge14_Node000010_Node000009"><a xlink:title=" ">
<path fill="none" stroke="#63b8ff" d="M486.15,-165.34C475.16,-157.54 459.03,-146.09 445.94,-136.79"/>
<polygon fill="#63b8ff" stroke="#63b8ff" points="448.07,-134.01 437.89,-131.08 444.02,-139.72 448.07,-134.01"/>
</a>
</g>
</g>
<!-- Node11 -->
<g id="Node000011" class="node">
<title>Node11</title>
<g id="a_Node000011"><a xlink:href="setjmp_8h.html" target="_top" xlink:title=" ">
<polygon fill="white" stroke="#666666" points="477.25,-74.5 424.5,-74.5 424.5,-55.25 477.25,-55.25 477.25,-74.5"/>
<text text-anchor="middle" x="450.88" y="-61" font-family="Helvetica,sans-Serif" font-size="10.00">setjmp.h</text>
</a>
</g>
</g>
<!-- Node10&#45;&gt;Node11 -->
<g id="edge15_Node000010_Node000011" class="edge">
<title>Node10&#45;&gt;Node11</title>
<g id="a_edge15_Node000010_Node000011"><a xlink:title=" ">
<path fill="none" stroke="#63b8ff" d="M494.95,-165.5C487.21,-148.01 469.85,-108.77 459.37,-85.09"/>
<polygon fill="#63b8ff" stroke="#63b8ff" points="462.72,-83.99 455.47,-76.26 456.31,-86.82 462.72,-83.99"/>
</a>
</g>
</g>
<!-- Node12 -->
<g id="Node000012" class="node">
<title>Node12</title>
<g id="a_Node000012"><a xlink:href="ctype_8h.html" target="_top" xlink:title=" ">
<polygon fill="white" stroke="#666666" points="551.25,-129.75 504.5,-129.75 504.5,-110.5 551.25,-110.5 551.25,-129.75"/>
<text text-anchor="middle" x="527.88" y="-116.25" font-family="Helvetica,sans-Serif" font-size="10.00">ctype.h</text>
</a>
</g>
</g>
<!-- Node10&#45;&gt;Node12 -->
<g id="edge17_Node000010_Node000012" class="edge">
<title>Node10&#45;&gt;Node12</title>
<g id="a_edge17_Node000010_Node000012"><a xlink:title=" ">
<path fill="none" stroke="#63b8ff" d="M503.66,-165.58C507.42,-158.69 512.78,-148.84 517.51,-140.16"/>
<polygon fill="#63b8ff" stroke="#63b8ff" points="520.55,-141.89 522.26,-131.44 514.4,-138.55 520.55,-141.89"/>
</a>
</g>
</g>
<!-- Node11&#45;&gt;Node7 -->
<g id="edge16_Node000011_Node000007" class="edge">
<title>Node11&#45;&gt;Node7</title>
<g id="a_edge16_Node000011_Node000007"><a xlink:title=" ">
<path fill="none" stroke="#63b8ff" d="M446.09,-55.08C442.33,-48.19 436.97,-38.34 432.24,-29.66"/>
<polygon fill="#63b8ff" stroke="#63b8ff" points="435.35,-28.05 427.49,-20.94 429.2,-31.39 435.35,-28.05"/>
</a>
</g>
</g>
<!-- Node14&#45;&gt;Node2 -->
<g id="edge20_Node000014_Node000002" class="edge">
<title>Node14&#45;&gt;Node2</title>
<g id="a_edge20_Node000014_Node000002"><a xlink:title=" ">
<path fill="none" stroke="#63b8ff" d="M263.95,-165.34C276.36,-157.39 294.67,-145.64 309.3,-136.25"/>
<polygon fill="#63b8ff" stroke="#63b8ff" points="310.93,-139.37 317.45,-131.02 307.15,-133.47 310.93,-139.37"/>
</a>
</g>
</g>
<!-- Node14&#45;&gt;Node4 -->
<g id="edge21_Node000014_Node000004" class="edge">
<title>Node14&#45;&gt;Node4</title>
<g id="a_edge21_Node000014_Node000004"><a xlink:title=" ">
<path fill="none" stroke="#63b8ff" d="M254,-165.58C257.2,-158.76 261.76,-149.06 265.8,-140.45"/>
<polygon fill="#63b8ff" stroke="#63b8ff" points="268.93,-142.02 270.01,-131.48 262.6,-139.04 268.93,-142.02"/>
</a>
</g>
</g>
<!-- Node15&#45;&gt;Node2 -->
<g id="edge23_Node000015_Node000002" class="edge">
<title>Node15&#45;&gt;Node2</title>
<g id="a_edge23_Node000015_Node000002"><a xlink:title=" ">
<path fill="none" stroke="#63b8ff" d="M56.11,-167.56C59.06,-166.91 62.03,-166.3 64.88,-165.75 165.5,-146.38 195.04,-151.22 297.97,-130.16"/>
<polygon fill="#63b8ff" stroke="#63b8ff" points="298.62,-133.6 307.7,-128.14 297.2,-126.75 298.62,-133.6"/>
</a>
</g>
</g>
<!-- Node15&#45;&gt;Node4 -->
<g id="edge24_Node000015_Node000004" class="edge">
<title>Node15&#45;&gt;Node4</title>
<g id="a_edge24_Node000015_Node000004"><a xlink:title=" ">
<path fill="none" stroke="#63b8ff" d="M56.14,-167.73C59.09,-167.05 62.04,-166.38 64.88,-165.75 129.97,-151.25 206.65,-135.22 246.93,-126.88"/>
<polygon fill="#63b8ff" stroke="#63b8ff" points="247.41,-130.36 256.49,-124.91 245.99,-123.5 247.41,-130.36"/>
</a>
</g>
</g>
<!-- Node16&#45;&gt;Node2 -->
<g id="edge26_Node000016_Node000002" class="edge">
<title>Node16&#45;&gt;Node2</title>
<g id="a_edge26_Node000016_Node000002"><a xlink:title=" ">
<path fill="none" stroke="#63b8ff" d="M408.44,-165.34C394.71,-157.31 374.38,-145.41 358.26,-135.98"/>
<polygon fill="#63b8ff" stroke="#63b8ff" points="360.09,-133 349.69,-130.97 356.56,-139.04 360.09,-133"/>
</a>
</g>
</g>
<!-- Node16&#45;&gt;Node4 -->
<g id="edge27_Node000016_Node000004" class="edge">
<title>Node16&#45;&gt;Node4</title>
<g id="a_edge27_Node000016_Node000004"><a xlink:title=" ">
<path fill="none" stroke="#63b8ff" d="M398.6,-165.34C371.89,-155.8 329.9,-140.79 302.38,-130.96"/>
<polygon fill="#63b8ff" stroke="#63b8ff" points="303.93,-127.79 293.33,-127.72 301.57,-134.38 303.93,-127.79"/>
</a>
</g>
</g>
<!-- Node16&#45;&gt;Node9 -->
<g id="edge28_Node000016_Node000009" class="edge">
<title>Node16&#45;&gt;Node9</title>
<g id="a_edge28_Node000016_Node000009"><a xlink:title=" ">
<path fill="none" stroke="#63b8ff" d="M423.88,-165.58C423.88,-159.07 423.88,-149.92 423.88,-141.62"/>
<polygon fill="#63b8ff" stroke="#63b8ff" points="427.38,-141.62 423.88,-131.62 420.38,-141.62 427.38,-141.62"/>
</a>
</g>
</g>
<!-- Node17&#45;&gt;Node2 -->
<g id="edge30_Node000017_Node000002" class="edge">
<title>Node17&#45;&gt;Node2</title>
<g id="a_edge30_Node000017_Node000002"><a xlink:title=" ">
<path fill="none" stroke="#63b8ff" d="M126.6,-167.91C129.72,-167.17 132.87,-166.44 135.88,-165.75 205.61,-149.79 226.06,-147.69 298.12,-130.33"/>
<polygon fill="#63b8ff" stroke="#63b8ff" points="298.78,-133.78 307.67,-128.02 297.13,-126.97 298.78,-133.78"/>
</a>
</g>
</g>
<!-- Node17&#45;&gt;Node4 -->
<g id="edge31_Node000017_Node000004" class="edge">
<title>Node17&#45;&gt;Node4</title>
<g id="a_edge31_Node000017_Node000004"><a xlink:title=" ">
<path fill="none" stroke="#63b8ff" d="M126.45,-166.29C159.13,-156.35 214.3,-139.56 247.38,-129.49"/>
<polygon fill="#63b8ff" stroke="#63b8ff" points="248.1,-132.93 256.64,-126.67 246.06,-126.23 248.1,-132.93"/>
</a>
</g>
</g>
<!-- Node19&#45;&gt;Node2 -->
<g id="edge34_Node000019_Node000002" class="edge">
<title>Node19&#45;&gt;Node2</title>
<g id="a_edge34_Node000019_Node000002"><a xlink:title=" ">
<path fill="none" stroke="#63b8ff" d="M706.31,-167.55C703.13,-166.89 699.94,-166.28 696.88,-165.75 561.48,-142.51 526.03,-148.03 389.88,-129.75 382.8,-128.8 375.24,-127.71 368.02,-126.63"/>
<polygon fill="#63b8ff" stroke="#63b8ff" points="368.61,-123.18 358.2,-125.14 367.56,-130.1 368.61,-123.18"/>
</a>
</g>
</g>
<!-- Node19&#45;&gt;Node9 -->
<g id="edge36_Node000019_Node000009" class="edge">
<title>Node19&#45;&gt;Node9</title>
<g id="a_edge36_Node000019_Node000009"><a xlink:title=" ">
<path fill="none" stroke="#63b8ff" d="M706.28,-167.69C703.11,-167.01 699.93,-166.35 696.88,-165.75 612.74,-149.34 513.2,-134.12 460.65,-126.41"/>
<polygon fill="#63b8ff" stroke="#63b8ff" points="461.46,-122.99 451.06,-125.01 460.45,-129.91 461.46,-122.99"/>
</a>
</g>
</g>
<!-- Node19&#45;&gt;Node13 -->
<g id="edge35_Node000019_Node000013" class="edge">
<title>Node19&#45;&gt;Node13</title>
<g id="a_edge35_Node000019_Node000013"><a xlink:title=" ">
<path fill="none" stroke="#63b8ff" d="M743.46,-165.58C750.72,-158.15 761.33,-147.29 770.24,-138.16"/>
<polygon fill="#63b8ff" stroke="#63b8ff" points="772.56,-140.79 777.04,-131.19 767.55,-135.9 772.56,-140.79"/>
</a>
</g>
</g>
<!-- Node20 -->
<g id="Node000020" class="node">
<title>Node20</title>
<g id="a_Node000020"><a xlink:href="io__common_8h.html" target="_top" xlink:title=" ">
<polygon fill="white" stroke="#666666" points="658.75,-129.75 585,-129.75 585,-110.5 658.75,-110.5 658.75,-129.75"/>
<text text-anchor="middle" x="621.88" y="-116.25" font-family="Helvetica,sans-Serif" font-size="10.00">io_common.h</text>
</a>
</g>
</g>
<!-- Node19&#45;&gt;Node20 -->
<g id="edge37_Node000019_Node000020" class="edge">
<title>Node19&#45;&gt;Node20</title>
<g id="a_edge37_Node000019_Node000020"><a xlink:title=" ">
<path fill="none" stroke="#63b8ff" d="M715.71,-165.34C698.09,-157.04 671.72,-144.61 651.41,-135.04"/>
<polygon fill="#63b8ff" stroke="#63b8ff" points="653.05,-131.94 642.51,-130.85 650.06,-138.28 653.05,-131.94"/>
</a>
</g>
</g>
<!-- Node23 -->
<g id="Node000023" class="node">
<title>Node23</title>
<g id="a_Node000023"><a xlink:href="iox__stat_8h.html" target="_top" xlink:title=" ">
<polygon fill="white" stroke="#666666" points="742.5,-129.75 685.25,-129.75 685.25,-110.5 742.5,-110.5 742.5,-129.75"/>
<text text-anchor="middle" x="713.88" y="-116.25" font-family="Helvetica,sans-Serif" font-size="10.00">iox_stat.h</text>
</a>
</g>
</g>
<!-- Node19&#45;&gt;Node23 -->
<g id="edge40_Node000019_Node000023" class="edge">
<title>Node19&#45;&gt;Node23</title>
<g id="a_edge40_Node000019_Node000023"><a xlink:title=" ">
<path fill="none" stroke="#63b8ff" d="M731.41,-165.58C728.75,-158.84 724.98,-149.27 721.61,-140.74"/>
<polygon fill="#63b8ff" stroke="#63b8ff" points="724.9,-139.54 717.97,-131.52 718.39,-142.1 724.9,-139.54"/>
</a>
</g>
</g>
<!-- Node21 -->
<g id="Node000021" class="node">
<title>Node21</title>
<g id="a_Node000021"><a xlink:href="fcntl_8h_source.html" target="_top" xlink:title=" ">
<polygon fill="white" stroke="#666666" points="659,-74.5 598.75,-74.5 598.75,-55.25 659,-55.25 659,-74.5"/>
<text text-anchor="middle" x="628.88" y="-61" font-family="Helvetica,sans-Serif" font-size="10.00">sys/fcntl.h</text>
</a>
</g>
</g>
<!-- Node20&#45;&gt;Node21 -->
<g id="edge38_Node000020_Node000021" class="edge">
<title>Node20&#45;&gt;Node21</title>
<g id="a_edge38_Node000020_Node000021"><a xlink:title=" ">
<path fill="none" stroke="#63b8ff" d="M623.03,-110.33C623.9,-103.74 625.12,-94.46 626.22,-86.07"/>
<polygon fill="#63b8ff" stroke="#63b8ff" points="629.66,-86.73 627.5,-76.36 622.72,-85.82 629.66,-86.73"/>
</a>
</g>
</g>
<!-- Node22 -->
<g id="Node000022" class="node">
<title>Node22</title>
<g id="a_Node000022"><a xlink:href="unistd_8h_source.html" target="_top" xlink:title=" ">
<polygon fill="white" stroke="#666666" points="580.75,-74.5 513,-74.5 513,-55.25 580.75,-55.25 580.75,-74.5"/>
<text text-anchor="middle" x="546.88" y="-61" font-family="Helvetica,sans-Serif" font-size="10.00">sys/unistd.h</text>
</a>
</g>
</g>
<!-- Node20&#45;&gt;Node22 -->
<g id="edge39_Node000020_Node000022" class="edge">
<title>Node20&#45;&gt;Node22</title>
<g id="a_edge39_Node000020_Node000022"><a xlink:title=" ">
<path fill="none" stroke="#63b8ff" d="M609.15,-110.09C598.16,-102.29 582.03,-90.84 568.94,-81.54"/>
<polygon fill="#63b8ff" stroke="#63b8ff" points="571.07,-78.76 560.89,-75.83 567.02,-84.47 571.07,-78.76"/>
</a>
</g>
</g>
<!-- Node24 -->
<g id="Node000024" class="node">
<title>Node24</title>
<g id="a_Node000024"><a xlink:href="time_8h.html" target="_top" xlink:title=" ">
<polygon fill="white" stroke="#666666" points="744,-74.5 683.75,-74.5 683.75,-55.25 744,-55.25 744,-74.5"/>
<text text-anchor="middle" x="713.88" y="-61" font-family="Helvetica,sans-Serif" font-size="10.00">sys/time.h</text>
</a>
</g>
</g>
<!-- Node23&#45;&gt;Node24 -->
<g id="edge41_Node000023_Node000024" class="edge">
<title>Node23&#45;&gt;Node24</title>
<g id="a_edge41_Node000023_Node000024"><a xlink:title=" ">
<path fill="none" stroke="#63b8ff" d="M713.88,-110.33C713.88,-103.82 713.88,-94.67 713.88,-86.37"/>
<polygon fill="#63b8ff" stroke="#63b8ff" points="717.38,-86.37 713.88,-76.37 710.38,-86.37 717.38,-86.37"/>
</a>
</g>
</g>
<!-- Node25&#45;&gt;Node2 -->
<g id="edge43_Node000025_Node000002" class="edge">
<title>Node25&#45;&gt;Node2</title>
<g id="a_edge43_Node000025_Node000002"><a xlink:title=" ">
<path fill="none" stroke="#63b8ff" d="M543.75,-166.4C496.04,-156.16 413.85,-138.51 367.42,-128.54"/>
<polygon fill="#63b8ff" stroke="#63b8ff" points="368.42,-125.18 357.91,-126.5 366.95,-132.02 368.42,-125.18"/>
</a>
</g>
</g>
<!-- Node25&#45;&gt;Node4 -->
<g id="edge44_Node000025_Node000004" class="edge">
<title>Node25&#45;&gt;Node4</title>
<g id="a_edge44_Node000025_Node000004"><a xlink:title=" ">
<path fill="none" stroke="#63b8ff" d="M543.74,-167.3C540.74,-166.77 537.76,-166.24 534.88,-165.75 434.7,-148.66 405.17,-154 302.95,-129.87"/>
<polygon fill="#63b8ff" stroke="#63b8ff" points="303.83,-126.49 293.29,-127.55 302.2,-133.29 303.83,-126.49"/>
</a>
</g>
</g>
<!-- Node25&#45;&gt;Node20 -->
<g id="edge45_Node000025_Node000020" class="edge">
<title>Node25&#45;&gt;Node20</title>
<g id="a_edge45_Node000025_Node000020"><a xlink:title=" ">
<path fill="none" stroke="#63b8ff" d="M587.65,-165.58C593.19,-158.38 601.22,-147.96 608.1,-139.01"/>
<polygon fill="#63b8ff" stroke="#63b8ff" points="610.71,-141.37 614.03,-131.31 605.16,-137.1 610.71,-141.37"/>
</a>
</g>
</g>
<!-- Node25&#45;&gt;Node23 -->
<g id="edge46_Node000025_Node000023" class="edge">
<title>Node25&#45;&gt;Node23</title>
<g id="a_edge46_Node000025_Node000023"><a xlink:title=" ">
<path fill="none" stroke="#63b8ff" d="M603.44,-165.34C624.65,-156.85 656.65,-144.04 680.75,-134.39"/>
<polygon fill="#63b8ff" stroke="#63b8ff" points="681.81,-137.73 689.8,-130.77 679.21,-131.23 681.81,-137.73"/>
</a>
</g>
</g>
</g>
</svg>
