<?xml version="1.0" encoding="UTF-8" standalone="no"?>
<!DOCTYPE svg PUBLIC "-//W3C//DTD SVG 1.1//EN"
 "http://www.w3.org/Graphics/SVG/1.1/DTD/svg11.dtd">
<!-- Generated by graphviz version 12.2.0 (20241103.1931)
 -->
<!-- Title: iop/fs/filexio/src/fileXio_iop.c Pages: 1 -->
<svg width="765pt" height="260pt"
 viewBox="0.00 0.00 765.49 259.50" xmlns="http://www.w3.org/2000/svg" xmlns:xlink="http://www.w3.org/1999/xlink">
<g id="graph0" class="graph" transform="scale(1 1) rotate(0) translate(4 255.5)">
<title>iop/fs/filexio/src/fileXio_iop.c</title>
<!-- Node1 -->
<g id="Node000001" class="node">
<title>Node1</title>
<g id="a_Node000001"><a xlink:title=" ">
<polygon fill="#999999" stroke="#666666" points="421.37,-251.5 337.87,-251.5 337.87,-221 421.37,-221 421.37,-251.5"/>
<text text-anchor="start" x="345.87" y="-238" font-family="Helvetica,sans-Serif" font-size="10.00">iop/fs/filexio/src</text>
<text text-anchor="middle" x="379.62" y="-226.75" font-family="Helvetica,sans-Serif" font-size="10.00">/fileXio_iop.c</text>
</a>
</g>
</g>
<!-- Node2 -->
<g id="Node000002" class="node">
<title>Node2</title>
<g id="a_Node000002"><a xlink:title=" ">
<polygon fill="#e0e0e0" stroke="#999999" points="235.99,-129.75 189.24,-129.75 189.24,-110.5 235.99,-110.5 235.99,-129.75"/>
<text text-anchor="middle" x="212.62" y="-116.25" font-family="Helvetica,sans-Serif" font-size="10.00">types.h</text>
</a>
</g>
</g>
<!-- Node1&#45;&gt;Node2 -->
<g id="edge1_Node000001_Node000002" class="edge">
<title>Node1&#45;&gt;Node2</title>
<g id="a_edge1_Node000001_Node000002"><a xlink:title=" ">
<path fill="none" stroke="#63b8ff" d="M337.42,-236.13C249.58,-236.95 51.78,-233.28 9.62,-185 -38.28,-130.15 107.91,-121.9 177.72,-121"/>
<polygon fill="#63b8ff" stroke="#63b8ff" points="177.53,-124.5 187.5,-120.93 177.47,-117.5 177.53,-124.5"/>
</a>
</g>
</g>
<!-- Node3 -->
<g id="Node000003" class="node">
<title>Node3</title>
<g id="a_Node000003"><a xlink:href="stdio_8h.html" target="_top" xlink:title=" ">
<polygon fill="white" stroke="#666666" points="506.87,-185 462.37,-185 462.37,-165.75 506.87,-165.75 506.87,-185"/>
<text text-anchor="middle" x="484.62" y="-171.5" font-family="Helvetica,sans-Serif" font-size="10.00">stdio.h</text>
</a>
</g>
</g>
<!-- Node1&#45;&gt;Node3 -->
<g id="edge2_Node000001_Node000003" class="edge">
<title>Node1&#45;&gt;Node3</title>
<g id="a_edge2_Node000001_Node000003"><a xlink:title=" ">
<path fill="none" stroke="#63b8ff" d="M405.84,-220.55C421.99,-211.49 442.6,-199.94 458.69,-190.91"/>
<polygon fill="#63b8ff" stroke="#63b8ff" points="460.19,-194.09 467.2,-186.14 456.76,-187.98 460.19,-194.09"/>
</a>
</g>
</g>
<!-- Node9 -->
<g id="Node000009" class="node">
<title>Node9</title>
<g id="a_Node000009"><a xlink:href="sysclib_8h.html" target="_top" xlink:title=" ">
<polygon fill="white" stroke="#666666" points="444.37,-185 390.87,-185 390.87,-165.75 444.37,-165.75 444.37,-185"/>
<text text-anchor="middle" x="417.62" y="-171.5" font-family="Helvetica,sans-Serif" font-size="10.00">sysclib.h</text>
</a>
</g>
</g>
<!-- Node1&#45;&gt;Node9 -->
<g id="edge8_Node000001_Node000009" class="edge">
<title>Node1&#45;&gt;Node9</title>
<g id="a_edge8_Node000001_Node000009"><a xlink:title=" ">
<path fill="none" stroke="#63b8ff" d="M389.01,-220.7C394.02,-212.94 400.23,-203.31 405.59,-195.01"/>
<polygon fill="#63b8ff" stroke="#63b8ff" points="408.46,-197.02 410.94,-186.72 402.58,-193.23 408.46,-197.02"/>
</a>
</g>
</g>
<!-- Node12 -->
<g id="Node000012" class="node">
<title>Node12</title>
<g id="a_Node000012"><a xlink:href="thbase_8h.html" target="_top" xlink:title=" ">
<polygon fill="white" stroke="#666666" points="220.99,-185 168.24,-185 168.24,-165.75 220.99,-165.75 220.99,-185"/>
<text text-anchor="middle" x="194.62" y="-171.5" font-family="Helvetica,sans-Serif" font-size="10.00">thbase.h</text>
</a>
</g>
</g>
<!-- Node1&#45;&gt;Node12 -->
<g id="edge15_Node000001_Node000012" class="edge">
<title>Node1&#45;&gt;Node12</title>
<g id="a_edge15_Node000001_Node000012"><a xlink:title=" ">
<path fill="none" stroke="#63b8ff" d="M337.64,-221.89C305.83,-211.77 262.53,-197.99 231.93,-188.25"/>
<polygon fill="#63b8ff" stroke="#63b8ff" points="233.31,-185.01 222.72,-185.32 231.18,-191.68 233.31,-185.01"/>
</a>
</g>
</g>
<!-- Node13 -->
<g id="Node000013" class="node">
<title>Node13</title>
<g id="a_Node000013"><a xlink:href="intrman_8h.html" target="_top" xlink:title=" ">
<polygon fill="white" stroke="#666666" points="294.49,-185 238.74,-185 238.74,-165.75 294.49,-165.75 294.49,-185"/>
<text text-anchor="middle" x="266.62" y="-171.5" font-family="Helvetica,sans-Serif" font-size="10.00">intrman.h</text>
</a>
</g>
</g>
<!-- Node1&#45;&gt;Node13 -->
<g id="edge18_Node000001_Node000013" class="edge">
<title>Node1&#45;&gt;Node13</title>
<g id="a_edge18_Node000001_Node000013"><a xlink:title=" ">
<path fill="none" stroke="#63b8ff" d="M351.4,-220.55C333.86,-211.41 311.42,-199.72 294.03,-190.66"/>
<polygon fill="#63b8ff" stroke="#63b8ff" points="295.78,-187.62 285.29,-186.1 292.54,-193.83 295.78,-187.62"/>
</a>
</g>
</g>
<!-- Node14 -->
<g id="Node000014" class="node">
<title>Node14</title>
<g id="a_Node000014"><a xlink:href="ioman_x_8h.html" target="_top" xlink:title=" ">
<polygon fill="white" stroke="#666666" points="581.87,-185 525.37,-185 525.37,-165.75 581.87,-165.75 581.87,-185"/>
<text text-anchor="middle" x="553.62" y="-171.5" font-family="Helvetica,sans-Serif" font-size="10.00">iomanX.h</text>
</a>
</g>
</g>
<!-- Node1&#45;&gt;Node14 -->
<g id="edge21_Node000001_Node000014" class="edge">
<title>Node1&#45;&gt;Node14</title>
<g id="a_edge21_Node000001_Node000014"><a xlink:title=" ">
<path fill="none" stroke="#63b8ff" d="M421.74,-221C450.47,-211.28 488.19,-198.51 515.93,-189.13"/>
<polygon fill="#63b8ff" stroke="#63b8ff" points="516.99,-192.46 525.34,-185.94 514.75,-185.83 516.99,-192.46"/>
</a>
</g>
</g>
<!-- Node15 -->
<g id="Node000015" class="node">
<title>Node15</title>
<g id="a_Node000015"><a xlink:href="errno_8h.html" target="_top" xlink:title=" ">
<polygon fill="white" stroke="#666666" points="632.24,-129.75 586.99,-129.75 586.99,-110.5 632.24,-110.5 632.24,-129.75"/>
<text text-anchor="middle" x="609.62" y="-116.25" font-family="Helvetica,sans-Serif" font-size="10.00">errno.h</text>
</a>
</g>
</g>
<!-- Node1&#45;&gt;Node15 -->
<g id="edge41_Node000001_Node000015" class="edge">
<title>Node1&#45;&gt;Node15</title>
<g id="a_edge41_Node000001_Node000015"><a xlink:title=" ">
<path fill="none" stroke="#63b8ff" d="M421.5,-230.27C475.84,-222.99 566.55,-207.77 590.62,-185 602.58,-173.68 607.11,-155.21 608.78,-141.03"/>
<polygon fill="#63b8ff" stroke="#63b8ff" points="612.24,-141.72 609.51,-131.48 605.26,-141.18 612.24,-141.72"/>
</a>
</g>
</g>
<!-- Node21 -->
<g id="Node000021" class="node">
<title>Node21</title>
<g id="a_Node000021"><a xlink:href="loadcore_8h.html" target="_top" xlink:title=" ">
<polygon fill="white" stroke="#666666" points="78.74,-185 18.49,-185 18.49,-165.75 78.74,-165.75 78.74,-185"/>
<text text-anchor="middle" x="48.62" y="-171.5" font-family="Helvetica,sans-Serif" font-size="10.00">loadcore.h</text>
</a>
</g>
</g>
<!-- Node1&#45;&gt;Node21 -->
<g id="edge30_Node000001_Node000021" class="edge">
<title>Node1&#45;&gt;Node21</title>
<g id="a_edge30_Node000001_Node000021"><a xlink:title=" ">
<path fill="none" stroke="#63b8ff" d="M337.59,-228.55C283.09,-219.75 184.8,-203.44 90.36,-185.27"/>
<polygon fill="#63b8ff" stroke="#63b8ff" points="91.14,-181.85 80.65,-183.39 89.81,-188.72 91.14,-181.85"/>
</a>
</g>
</g>
<!-- Node22 -->
<g id="Node000022" class="node">
<title>Node22</title>
<g id="a_Node000022"><a xlink:href="sysmem_8h.html" target="_top" xlink:title=" ">
<polygon fill="white" stroke="#666666" points="372.74,-185 312.49,-185 312.49,-165.75 372.74,-165.75 372.74,-185"/>
<text text-anchor="middle" x="342.62" y="-171.5" font-family="Helvetica,sans-Serif" font-size="10.00">sysmem.h</text>
</a>
</g>
</g>
<!-- Node1&#45;&gt;Node22 -->
<g id="edge33_Node000001_Node000022" class="edge">
<title>Node1&#45;&gt;Node22</title>
<g id="a_edge33_Node000001_Node000022"><a xlink:title=" ">
<path fill="none" stroke="#63b8ff" d="M370.47,-220.7C365.6,-212.94 359.55,-203.31 354.33,-195.01"/>
<polygon fill="#63b8ff" stroke="#63b8ff" points="357.41,-193.34 349.13,-186.73 351.49,-197.06 357.41,-193.34"/>
</a>
</g>
</g>
<!-- Node23 -->
<g id="Node000023" class="node">
<title>Node23</title>
<g id="a_Node000023"><a xlink:href="sifman_8h.html" target="_top" xlink:title=" ">
<polygon fill="white" stroke="#666666" points="149.99,-185 97.24,-185 97.24,-165.75 149.99,-165.75 149.99,-185"/>
<text text-anchor="middle" x="123.62" y="-171.5" font-family="Helvetica,sans-Serif" font-size="10.00">sifman.h</text>
</a>
</g>
</g>
<!-- Node1&#45;&gt;Node23 -->
<g id="edge37_Node000001_Node000023" class="edge">
<title>Node1&#45;&gt;Node23</title>
<g id="a_edge37_Node000001_Node000023"><a xlink:title=" ">
<path fill="none" stroke="#63b8ff" d="M337.41,-225.75C295.35,-216.25 228.63,-201.1 161.18,-185.34"/>
<polygon fill="#63b8ff" stroke="#63b8ff" points="162.36,-182.03 151.82,-183.16 160.76,-188.84 162.36,-182.03"/>
</a>
</g>
</g>
<!-- Node24 -->
<g id="Node000024" class="node">
<title>Node24</title>
<g id="a_Node000024"><a xlink:title=" ">
<polygon fill="#e0e0e0" stroke="#999999" points="689.99,-185 637.24,-185 637.24,-165.75 689.99,-165.75 689.99,-185"/>
<text text-anchor="middle" x="663.62" y="-171.5" font-family="Helvetica,sans-Serif" font-size="10.00">sifcmd.h</text>
</a>
</g>
</g>
<!-- Node1&#45;&gt;Node24 -->
<g id="edge40_Node000001_Node000024" class="edge">
<title>Node1&#45;&gt;Node24</title>
<g id="a_edge40_Node000001_Node000024"><a xlink:title=" ">
<path fill="none" stroke="#63b8ff" d="M421.52,-226.74C470.15,-216.84 552.73,-199.94 623.62,-185 624.43,-184.83 625.24,-184.66 626.07,-184.48"/>
<polygon fill="#63b8ff" stroke="#63b8ff" points="626.42,-187.99 635.47,-182.48 624.96,-181.14 626.42,-187.99"/>
</a>
</g>
</g>
<!-- Node25 -->
<g id="Node000025" class="node">
<title>Node25</title>
<g id="a_Node000025"><a xlink:href="file_xio_8h.html" target="_top" xlink:title=" ">
<polygon fill="white" stroke="#666666" points="757.49,-185 707.74,-185 707.74,-165.75 757.49,-165.75 757.49,-185"/>
<text text-anchor="middle" x="732.62" y="-171.5" font-family="Helvetica,sans-Serif" font-size="10.00">fileXio.h</text>
</a>
</g>
</g>
<!-- Node1&#45;&gt;Node25 -->
<g id="edge42_Node000001_Node000025" class="edge">
<title>Node1&#45;&gt;Node25</title>
<g id="a_edge42_Node000001_Node000025"><a xlink:title=" ">
<path fill="none" stroke="#63b8ff" d="M421.64,-229.89C480.77,-222.07 592.09,-206.35 696.38,-185.3"/>
<polygon fill="#63b8ff" stroke="#63b8ff" points="696.85,-188.77 705.94,-183.34 695.45,-181.91 696.85,-188.77"/>
</a>
</g>
</g>
<!-- Node4 -->
<g id="Node000004" class="node">
<title>Node4</title>
<g id="a_Node000004"><a xlink:title=" ">
<polygon fill="#e0e0e0" stroke="#999999" points="476.87,-129.75 426.37,-129.75 426.37,-110.5 476.87,-110.5 476.87,-129.75"/>
<text text-anchor="middle" x="451.62" y="-116.25" font-family="Helvetica,sans-Serif" font-size="10.00">stdarg.h</text>
</a>
</g>
</g>
<!-- Node3&#45;&gt;Node4 -->
<g id="edge3_Node000003_Node000004" class="edge">
<title>Node3&#45;&gt;Node4</title>
<g id="a_edge3_Node000003_Node000004"><a xlink:title=" ">
<path fill="none" stroke="#63b8ff" d="M479.17,-165.58C474.85,-158.61 468.66,-148.62 463.24,-139.87"/>
<polygon fill="#63b8ff" stroke="#63b8ff" points="466.23,-138.05 457.98,-131.4 460.28,-141.74 466.23,-138.05"/>
</a>
</g>
</g>
<!-- Node5 -->
<g id="Node000005" class="node">
<title>Node5</title>
<g id="a_Node000005"><a xlink:href="irx_8h.html" target="_top" xlink:title=" ">
<polygon fill="white" stroke="#666666" points="294.24,-129.75 260.99,-129.75 260.99,-110.5 294.24,-110.5 294.24,-129.75"/>
<text text-anchor="middle" x="277.62" y="-116.25" font-family="Helvetica,sans-Serif" font-size="10.00">irx.h</text>
</a>
</g>
</g>
<!-- Node3&#45;&gt;Node5 -->
<g id="edge4_Node000003_Node000005" class="edge">
<title>Node3&#45;&gt;Node5</title>
<g id="a_edge4_Node000003_Node000005"><a xlink:title=" ">
<path fill="none" stroke="#63b8ff" d="M461.95,-168C459.15,-167.23 456.32,-166.47 453.62,-165.75 401.57,-151.91 340.6,-136.67 305.8,-128.06"/>
<polygon fill="#63b8ff" stroke="#63b8ff" points="306.66,-124.67 296.11,-125.67 304.98,-131.46 306.66,-124.67"/>
</a>
</g>
</g>
<!-- Node6 -->
<g id="Node000006" class="node">
<title>Node6</title>
<g id="a_Node000006"><a xlink:href="iop_2kernel_2include_2types_8h_source.html" target="_top" xlink:title=" ">
<polygon fill="white" stroke="#666666" points="318.99,-74.5 272.24,-74.5 272.24,-55.25 318.99,-55.25 318.99,-74.5"/>
<text text-anchor="middle" x="295.62" y="-61" font-family="Helvetica,sans-Serif" font-size="10.00">types.h</text>
</a>
</g>
</g>
<!-- Node5&#45;&gt;Node6 -->
<g id="edge5_Node000005_Node000006" class="edge">
<title>Node5&#45;&gt;Node6</title>
<g id="a_edge5_Node000005_Node000006"><a xlink:title=" ">
<path fill="none" stroke="#63b8ff" d="M280.59,-110.33C282.87,-103.59 286.1,-94.02 288.99,-85.49"/>
<polygon fill="#63b8ff" stroke="#63b8ff" points="292.21,-86.89 292.1,-76.29 285.58,-84.65 292.21,-86.89"/>
</a>
</g>
</g>
<!-- Node7 -->
<g id="Node000007" class="node">
<title>Node7</title>
<g id="a_Node000007"><a xlink:title=" ">
<polygon fill="#e0e0e0" stroke="#999999" points="320.87,-19.25 270.37,-19.25 270.37,0 320.87,0 320.87,-19.25"/>
<text text-anchor="middle" x="295.62" y="-5.75" font-family="Helvetica,sans-Serif" font-size="10.00">stddef.h</text>
</a>
</g>
</g>
<!-- Node6&#45;&gt;Node7 -->
<g id="edge6_Node000006_Node000007" class="edge">
<title>Node6&#45;&gt;Node7</title>
<g id="a_edge6_Node000006_Node000007"><a xlink:title=" ">
<path fill="none" stroke="#63b8ff" d="M295.62,-55.08C295.62,-48.57 295.62,-39.42 295.62,-31.12"/>
<polygon fill="#63b8ff" stroke="#63b8ff" points="299.12,-31.12 295.62,-21.12 292.12,-31.12 299.12,-31.12"/>
</a>
</g>
</g>
<!-- Node8 -->
<g id="Node000008" class="node">
<title>Node8</title>
<g id="a_Node000008"><a xlink:href="tamtypes_8h.html" target="_top" xlink:title=" ">
<polygon fill="white" stroke="#666666" points="430.24,-19.25 366.99,-19.25 366.99,0 430.24,0 430.24,-19.25"/>
<text text-anchor="middle" x="398.62" y="-5.75" font-family="Helvetica,sans-Serif" font-size="10.00">tamtypes.h</text>
</a>
</g>
</g>
<!-- Node6&#45;&gt;Node8 -->
<g id="edge7_Node000006_Node000008" class="edge">
<title>Node6&#45;&gt;Node8</title>
<g id="a_edge7_Node000006_Node000008"><a xlink:title=" ">
<path fill="none" stroke="#63b8ff" d="M313.09,-54.84C328.92,-46.66 352.52,-34.46 370.93,-24.94"/>
<polygon fill="#63b8ff" stroke="#63b8ff" points="372.44,-28.1 379.72,-20.4 369.23,-21.88 372.44,-28.1"/>
</a>
</g>
</g>
<!-- Node9&#45;&gt;Node2 -->
<g id="edge9_Node000009_Node000002" class="edge">
<title>Node9&#45;&gt;Node2</title>
<g id="a_edge9_Node000009_Node000002"><a xlink:title=" ">
<path fill="none" stroke="#63b8ff" d="M390.4,-167.3C353.54,-157.73 287.75,-140.64 247.36,-130.15"/>
<polygon fill="#63b8ff" stroke="#63b8ff" points="248.47,-126.82 237.91,-127.7 246.71,-133.6 248.47,-126.82"/>
</a>
</g>
</g>
<!-- Node9&#45;&gt;Node4 -->
<g id="edge11_Node000009_Node000004" class="edge">
<title>Node9&#45;&gt;Node4</title>
<g id="a_edge11_Node000009_Node000004"><a xlink:title=" ">
<path fill="none" stroke="#63b8ff" d="M423.23,-165.58C427.73,-158.53 434.21,-148.4 439.83,-139.58"/>
<polygon fill="#63b8ff" stroke="#63b8ff" points="442.64,-141.7 445.07,-131.38 436.74,-137.93 442.64,-141.7"/>
</a>
</g>
</g>
<!-- Node9&#45;&gt;Node5 -->
<g id="edge10_Node000009_Node000005" class="edge">
<title>Node9&#45;&gt;Node5</title>
<g id="a_edge10_Node000009_Node000005"><a xlink:title=" ">
<path fill="none" stroke="#63b8ff" d="M393.87,-165.34C369.27,-155.98 330.87,-141.38 305.01,-131.54"/>
<polygon fill="#63b8ff" stroke="#63b8ff" points="306.44,-128.34 295.85,-128.06 303.95,-134.89 306.44,-128.34"/>
</a>
</g>
</g>
<!-- Node10 -->
<g id="Node000010" class="node">
<title>Node10</title>
<g id="a_Node000010"><a xlink:href="setjmp_8h.html" target="_top" xlink:title=" ">
<polygon fill="white" stroke="#666666" points="424.99,-74.5 372.24,-74.5 372.24,-55.25 424.99,-55.25 424.99,-74.5"/>
<text text-anchor="middle" x="398.62" y="-61" font-family="Helvetica,sans-Serif" font-size="10.00">setjmp.h</text>
</a>
</g>
</g>
<!-- Node9&#45;&gt;Node10 -->
<g id="edge12_Node000009_Node000010" class="edge">
<title>Node9&#45;&gt;Node10</title>
<g id="a_edge12_Node000009_Node000010"><a xlink:title=" ">
<path fill="none" stroke="#63b8ff" d="M416.06,-165.5C413.04,-148.25 406.32,-109.83 402.15,-86.06"/>
<polygon fill="#63b8ff" stroke="#63b8ff" points="405.63,-85.61 400.46,-76.37 398.73,-86.82 405.63,-85.61"/>
</a>
</g>
</g>
<!-- Node11 -->
<g id="Node000011" class="node">
<title>Node11</title>
<g id="a_Node000011"><a xlink:href="ctype_8h.html" target="_top" xlink:title=" ">
<polygon fill="white" stroke="#666666" points="370.99,-129.75 324.24,-129.75 324.24,-110.5 370.99,-110.5 370.99,-129.75"/>
<text text-anchor="middle" x="347.62" y="-116.25" font-family="Helvetica,sans-Serif" font-size="10.00">ctype.h</text>
</a>
</g>
</g>
<!-- Node9&#45;&gt;Node11 -->
<g id="edge14_Node000009_Node000011" class="edge">
<title>Node9&#45;&gt;Node11</title>
<g id="a_edge14_Node000009_Node000011"><a xlink:title=" ">
<path fill="none" stroke="#63b8ff" d="M405.74,-165.34C395.53,-157.57 380.55,-146.17 368.35,-136.9"/>
<polygon fill="#63b8ff" stroke="#63b8ff" points="370.6,-134.21 360.52,-130.94 366.36,-139.78 370.6,-134.21"/>
</a>
</g>
</g>
<!-- Node10&#45;&gt;Node8 -->
<g id="edge13_Node000010_Node000008" class="edge">
<title>Node10&#45;&gt;Node8</title>
<g id="a_edge13_Node000010_Node000008"><a xlink:title=" ">
<path fill="none" stroke="#63b8ff" d="M398.62,-55.08C398.62,-48.57 398.62,-39.42 398.62,-31.12"/>
<polygon fill="#63b8ff" stroke="#63b8ff" points="402.12,-31.12 398.62,-21.12 395.12,-31.12 402.12,-31.12"/>
</a>
</g>
</g>
<!-- Node12&#45;&gt;Node2 -->
<g id="edge16_Node000012_Node000002" class="edge">
<title>Node12&#45;&gt;Node2</title>
<g id="a_edge16_Node000012_Node000002"><a xlink:title=" ">
<path fill="none" stroke="#63b8ff" d="M197.59,-165.58C199.87,-158.84 203.1,-149.27 205.99,-140.74"/>
<polygon fill="#63b8ff" stroke="#63b8ff" points="209.21,-142.14 209.1,-131.54 202.58,-139.9 209.21,-142.14"/>
</a>
</g>
</g>
<!-- Node12&#45;&gt;Node5 -->
<g id="edge17_Node000012_Node000005" class="edge">
<title>Node12&#45;&gt;Node5</title>
<g id="a_edge17_Node000012_Node000005"><a xlink:title=" ">
<path fill="none" stroke="#63b8ff" d="M208.7,-165.34C221.1,-157.39 239.41,-145.64 254.05,-136.25"/>
<polygon fill="#63b8ff" stroke="#63b8ff" points="255.67,-139.37 262.2,-131.02 251.89,-133.47 255.67,-139.37"/>
</a>
</g>
</g>
<!-- Node13&#45;&gt;Node2 -->
<g id="edge19_Node000013_Node000002" class="edge">
<title>Node13&#45;&gt;Node2</title>
<g id="a_edge19_Node000013_Node000002"><a xlink:title=" ">
<path fill="none" stroke="#63b8ff" d="M257.7,-165.58C250.17,-158.15 239.15,-147.29 229.89,-138.16"/>
<polygon fill="#63b8ff" stroke="#63b8ff" points="232.39,-135.7 222.81,-131.17 227.47,-140.69 232.39,-135.7"/>
</a>
</g>
</g>
<!-- Node13&#45;&gt;Node5 -->
<g id="edge20_Node000013_Node000005" class="edge">
<title>Node13&#45;&gt;Node5</title>
<g id="a_edge20_Node000013_Node000005"><a xlink:title=" ">
<path fill="none" stroke="#63b8ff" d="M268.44,-165.58C269.8,-158.99 271.71,-149.71 273.45,-141.32"/>
<polygon fill="#63b8ff" stroke="#63b8ff" points="276.86,-142.09 275.46,-131.59 270.01,-140.68 276.86,-142.09"/>
</a>
</g>
</g>
<!-- Node14&#45;&gt;Node2 -->
<g id="edge22_Node000014_Node000002" class="edge">
<title>Node14&#45;&gt;Node2</title>
<g id="a_edge22_Node000014_Node000002"><a xlink:title=" ">
<path fill="none" stroke="#63b8ff" d="M525.04,-167.61C521.87,-166.94 518.68,-166.31 515.62,-165.75 399.1,-144.62 368.2,-150.55 251.62,-129.75 250.24,-129.5 248.83,-129.24 247.41,-128.97"/>
<polygon fill="#63b8ff" stroke="#63b8ff" points="248.46,-125.61 237.96,-127.03 247.06,-132.47 248.46,-125.61"/>
</a>
</g>
</g>
<!-- Node14&#45;&gt;Node4 -->
<g id="edge24_Node000014_Node000004" class="edge">
<title>Node14&#45;&gt;Node4</title>
<g id="a_edge24_Node000014_Node000004"><a xlink:title=" ">
<path fill="none" stroke="#63b8ff" d="M536.32,-165.34C520.64,-157.16 497.27,-144.96 479.04,-135.44"/>
<polygon fill="#63b8ff" stroke="#63b8ff" points="480.83,-132.43 470.35,-130.9 477.59,-138.63 480.83,-132.43"/>
</a>
</g>
</g>
<!-- Node14&#45;&gt;Node15 -->
<g id="edge23_Node000014_Node000015" class="edge">
<title>Node14&#45;&gt;Node15</title>
<g id="a_edge23_Node000014_Node000015"><a xlink:title=" ">
<path fill="none" stroke="#63b8ff" d="M563.12,-165.34C571.05,-157.8 582.57,-146.85 592.16,-137.73"/>
<polygon fill="#63b8ff" stroke="#63b8ff" points="594.33,-140.49 599.16,-131.07 589.5,-135.42 594.33,-140.49"/>
</a>
</g>
</g>
<!-- Node16 -->
<g id="Node000016" class="node">
<title>Node16</title>
<g id="a_Node000016"><a xlink:href="io__common_8h.html" target="_top" xlink:title=" ">
<polygon fill="white" stroke="#666666" points="568.49,-129.75 494.74,-129.75 494.74,-110.5 568.49,-110.5 568.49,-129.75"/>
<text text-anchor="middle" x="531.62" y="-116.25" font-family="Helvetica,sans-Serif" font-size="10.00">io_common.h</text>
</a>
</g>
</g>
<!-- Node14&#45;&gt;Node16 -->
<g id="edge25_Node000014_Node000016" class="edge">
<title>Node14&#45;&gt;Node16</title>
<g id="a_edge25_Node000014_Node000016"><a xlink:title=" ">
<path fill="none" stroke="#63b8ff" d="M549.99,-165.58C547.2,-158.84 543.25,-149.27 539.72,-140.74"/>
<polygon fill="#63b8ff" stroke="#63b8ff" points="542.96,-139.41 535.91,-131.51 536.49,-142.09 542.96,-139.41"/>
</a>
</g>
</g>
<!-- Node19 -->
<g id="Node000019" class="node">
<title>Node19</title>
<g id="a_Node000019"><a xlink:href="iox__stat_8h.html" target="_top" xlink:title=" ">
<polygon fill="white" stroke="#666666" points="707.24,-129.75 649.99,-129.75 649.99,-110.5 707.24,-110.5 707.24,-129.75"/>
<text text-anchor="middle" x="678.62" y="-116.25" font-family="Helvetica,sans-Serif" font-size="10.00">iox_stat.h</text>
</a>
</g>
</g>
<!-- Node14&#45;&gt;Node19 -->
<g id="edge28_Node000014_Node000019" class="edge">
<title>Node14&#45;&gt;Node19</title>
<g id="a_edge28_Node000014_Node000019"><a xlink:title=" ">
<path fill="none" stroke="#63b8ff" d="M574.82,-165.34C594.58,-156.93 624.29,-144.27 646.87,-134.65"/>
<polygon fill="#63b8ff" stroke="#63b8ff" points="648.09,-137.93 655.92,-130.8 645.35,-131.49 648.09,-137.93"/>
</a>
</g>
</g>
<!-- Node17 -->
<g id="Node000017" class="node">
<title>Node17</title>
<g id="a_Node000017"><a xlink:href="fcntl_8h_source.html" target="_top" xlink:title=" ">
<polygon fill="white" stroke="#666666" points="523.74,-74.5 463.49,-74.5 463.49,-55.25 523.74,-55.25 523.74,-74.5"/>
<text text-anchor="middle" x="493.62" y="-61" font-family="Helvetica,sans-Serif" font-size="10.00">sys/fcntl.h</text>
</a>
</g>
</g>
<!-- Node16&#45;&gt;Node17 -->
<g id="edge26_Node000016_Node000017" class="edge">
<title>Node16&#45;&gt;Node17</title>
<g id="a_edge26_Node000016_Node000017"><a xlink:title=" ">
<path fill="none" stroke="#63b8ff" d="M525.34,-110.33C520.26,-103.21 512.92,-92.93 506.59,-84.05"/>
<polygon fill="#63b8ff" stroke="#63b8ff" points="509.57,-82.2 500.91,-76.09 503.87,-86.26 509.57,-82.2"/>
</a>
</g>
</g>
<!-- Node18 -->
<g id="Node000018" class="node">
<title>Node18</title>
<g id="a_Node000018"><a xlink:href="unistd_8h_source.html" target="_top" xlink:title=" ">
<polygon fill="white" stroke="#666666" points="609.49,-74.5 541.74,-74.5 541.74,-55.25 609.49,-55.25 609.49,-74.5"/>
<text text-anchor="middle" x="575.62" y="-61" font-family="Helvetica,sans-Serif" font-size="10.00">sys/unistd.h</text>
</a>
</g>
</g>
<!-- Node16&#45;&gt;Node18 -->
<g id="edge27_Node000016_Node000018" class="edge">
<title>Node16&#45;&gt;Node18</title>
<g id="a_edge27_Node000016_Node000018"><a xlink:title=" ">
<path fill="none" stroke="#63b8ff" d="M538.88,-110.33C544.9,-103.05 553.63,-92.48 561.07,-83.48"/>
<polygon fill="#63b8ff" stroke="#63b8ff" points="563.56,-85.96 567.23,-76.03 558.16,-81.51 563.56,-85.96"/>
</a>
</g>
</g>
<!-- Node20 -->
<g id="Node000020" class="node">
<title>Node20</title>
<g id="a_Node000020"><a xlink:href="time_8h.html" target="_top" xlink:title=" ">
<polygon fill="white" stroke="#666666" points="707.74,-74.5 647.49,-74.5 647.49,-55.25 707.74,-55.25 707.74,-74.5"/>
<text text-anchor="middle" x="677.62" y="-61" font-family="Helvetica,sans-Serif" font-size="10.00">sys/time.h</text>
</a>
</g>
</g>
<!-- Node19&#45;&gt;Node20 -->
<g id="edge29_Node000019_Node000020" class="edge">
<title>Node19&#45;&gt;Node20</title>
<g id="a_edge29_Node000019_Node000020"><a xlink:title=" ">
<path fill="none" stroke="#63b8ff" d="M678.45,-110.33C678.33,-103.82 678.16,-94.67 678,-86.37"/>
<polygon fill="#63b8ff" stroke="#63b8ff" points="681.5,-86.3 677.82,-76.37 674.5,-86.44 681.5,-86.3"/>
</a>
</g>
</g>
<!-- Node21&#45;&gt;Node2 -->
<g id="edge31_Node000021_Node000002" class="edge">
<title>Node21&#45;&gt;Node2</title>
<g id="a_edge31_Node000021_Node000002"><a xlink:title=" ">
<path fill="none" stroke="#63b8ff" d="M76.44,-165.34C104.48,-156.24 147.81,-142.17 178.04,-132.35"/>
<polygon fill="#63b8ff" stroke="#63b8ff" points="179.06,-135.7 187.49,-129.28 176.9,-129.04 179.06,-135.7"/>
</a>
</g>
</g>
<!-- Node21&#45;&gt;Node5 -->
<g id="edge32_Node000021_Node000005" class="edge">
<title>Node21&#45;&gt;Node5</title>
<g id="a_edge32_Node000021_Node000005"><a xlink:title=" ">
<path fill="none" stroke="#63b8ff" d="M78.91,-167.79C117.48,-159.34 186.14,-144.05 244.62,-129.75 246.24,-129.35 247.9,-128.94 249.57,-128.52"/>
<polygon fill="#63b8ff" stroke="#63b8ff" points="250.24,-131.96 259.05,-126.08 248.49,-125.18 250.24,-131.96"/>
</a>
</g>
</g>
<!-- Node22&#45;&gt;Node2 -->
<g id="edge34_Node000022_Node000002" class="edge">
<title>Node22&#45;&gt;Node2</title>
<g id="a_edge34_Node000022_Node000002"><a xlink:title=" ">
<path fill="none" stroke="#63b8ff" d="M320.57,-165.34C299.93,-156.89 268.84,-144.15 245.31,-134.52"/>
<polygon fill="#63b8ff" stroke="#63b8ff" points="246.76,-131.33 236.18,-130.78 244.11,-137.81 246.76,-131.33"/>
</a>
</g>
</g>
<!-- Node22&#45;&gt;Node4 -->
<g id="edge36_Node000022_Node000004" class="edge">
<title>Node22&#45;&gt;Node4</title>
<g id="a_edge36_Node000022_Node000004"><a xlink:title=" ">
<path fill="none" stroke="#63b8ff" d="M361.11,-165.34C378.02,-157.08 403.31,-144.73 422.86,-135.18"/>
<polygon fill="#63b8ff" stroke="#63b8ff" points="424.23,-138.4 431.68,-130.87 421.16,-132.11 424.23,-138.4"/>
</a>
</g>
</g>
<!-- Node22&#45;&gt;Node5 -->
<g id="edge35_Node000022_Node000005" class="edge">
<title>Node22&#45;&gt;Node5</title>
<g id="a_edge35_Node000022_Node000005"><a xlink:title=" ">
<path fill="none" stroke="#63b8ff" d="M331.59,-165.34C322.2,-157.65 308.47,-146.4 297.21,-137.18"/>
<polygon fill="#63b8ff" stroke="#63b8ff" points="299.61,-134.61 289.65,-130.98 295.17,-140.03 299.61,-134.61"/>
</a>
</g>
</g>
<!-- Node23&#45;&gt;Node2 -->
<g id="edge38_Node000023_Node000002" class="edge">
<title>Node23&#45;&gt;Node2</title>
<g id="a_edge38_Node000023_Node000002"><a xlink:title=" ">
<path fill="none" stroke="#63b8ff" d="M138.72,-165.34C152.14,-157.31 172.03,-145.41 187.79,-135.98"/>
<polygon fill="#63b8ff" stroke="#63b8ff" points="189.36,-139.12 196.15,-130.98 185.77,-133.11 189.36,-139.12"/>
</a>
</g>
</g>
<!-- Node23&#45;&gt;Node5 -->
<g id="edge39_Node000023_Node000005" class="edge">
<title>Node23&#45;&gt;Node5</title>
<g id="a_edge39_Node000023_Node000005"><a xlink:title=" ">
<path fill="none" stroke="#63b8ff" d="M149.74,-165.34C177.65,-155.69 221.69,-140.46 250.12,-130.63"/>
<polygon fill="#63b8ff" stroke="#63b8ff" points="251.16,-133.98 259.46,-127.4 248.87,-127.36 251.16,-133.98"/>
</a>
</g>
</g>
<!-- Node25&#45;&gt;Node8 -->
<g id="edge43_Node000025_Node000008" class="edge">
<title>Node25&#45;&gt;Node8</title>
<g id="a_edge43_Node000025_Node000008"><a xlink:title=" ">
<path fill="none" stroke="#63b8ff" d="M734.62,-165.36C738.97,-143.16 746.63,-85.44 716.62,-55.25 679,-17.41 519.84,-11.21 441.93,-10.49"/>
<polygon fill="#63b8ff" stroke="#63b8ff" points="442.14,-6.99 432.12,-10.43 442.1,-13.99 442.14,-6.99"/>
</a>
</g>
</g>
<!-- Node25&#45;&gt;Node19 -->
<g id="edge44_Node000025_Node000019" class="edge">
<title>Node25&#45;&gt;Node19</title>
<g id="a_edge44_Node000025_Node000019"><a xlink:title=" ">
<path fill="none" stroke="#63b8ff" d="M723.7,-165.58C716.17,-158.15 705.15,-147.29 695.89,-138.16"/>
<polygon fill="#63b8ff" stroke="#63b8ff" points="698.39,-135.7 688.81,-131.17 693.47,-140.69 698.39,-135.7"/>
</a>
</g>
</g>
</g>
</svg>
