<?xml version="1.0" encoding="UTF-8" standalone="no"?>
<!DOCTYPE svg PUBLIC "-//W3C//DTD SVG 1.1//EN"
 "http://www.w3.org/Graphics/SVG/1.1/DTD/svg11.dtd">
<!-- Generated by graphviz version 12.2.0 (20241103.1931)
 -->
<!-- Title: iop/usb/usbd/src/hcd.h Pages: 1 -->
<svg width="546pt" height="83pt"
 viewBox="0.00 0.00 545.88 82.50" xmlns="http://www.w3.org/2000/svg" xmlns:xlink="http://www.w3.org/1999/xlink">
<g id="graph0" class="graph" transform="scale(1 1) rotate(0) translate(4 78.5)">
<title>iop/usb/usbd/src/hcd.h</title>
<!-- Node1 -->
<g id="Node000001" class="node">
<title>Node1</title>
<g id="a_Node000001"><a xlink:title=" ">
<polygon fill="#999999" stroke="#666666" points="317.25,-74.5 203,-74.5 203,-55.25 317.25,-55.25 317.25,-74.5"/>
<text text-anchor="middle" x="260.12" y="-61" font-family="Helvetica,sans-Serif" font-size="10.00">iop/usb/usbd/src/hcd.h</text>
</a>
</g>
</g>
<!-- Node2 -->
<g id="Node000002" class="node">
<title>Node2</title>
<g id="a_Node000002"><a xlink:href="hcd_8c.html" target="_top" xlink:title=" ">
<polygon fill="white" stroke="#666666" points="114.25,-19.25 0,-19.25 0,0 114.25,0 114.25,-19.25"/>
<text text-anchor="middle" x="57.12" y="-5.75" font-family="Helvetica,sans-Serif" font-size="10.00">iop/usb/usbd/src/hcd.c</text>
</a>
</g>
</g>
<!-- Node1&#45;&gt;Node2 -->
<g id="edge1_Node000001_Node000002" class="edge">
<title>Node1&#45;&gt;Node2</title>
<g id="a_edge1_Node000001_Node000002"><a xlink:title=" ">
<path fill="none" stroke="#63b8ff" d="M214.65,-51.95C177.45,-42.19 125.62,-28.59 91.73,-19.7"/>
<polygon fill="#63b8ff" stroke="#63b8ff" points="213.66,-55.31 224.22,-54.46 215.44,-48.53 213.66,-55.31"/>
</a>
</g>
</g>
<!-- Node3 -->
<g id="Node000003" class="node">
<title>Node3</title>
<g id="a_Node000003"><a xlink:href="hub_8c.html" target="_top" xlink:title=" ">
<polygon fill="white" stroke="#666666" points="246.25,-19.25 132,-19.25 132,0 246.25,0 246.25,-19.25"/>
<text text-anchor="middle" x="189.12" y="-5.75" font-family="Helvetica,sans-Serif" font-size="10.00">iop/usb/usbd/src/hub.c</text>
</a>
</g>
</g>
<!-- Node1&#45;&gt;Node3 -->
<g id="edge2_Node000001_Node000003" class="edge">
<title>Node1&#45;&gt;Node3</title>
<g id="a_edge2_Node000001_Node000003"><a xlink:title=" ">
<path fill="none" stroke="#63b8ff" d="M238.88,-47.94C226.48,-38.64 211.3,-27.26 200.99,-19.52"/>
<polygon fill="#63b8ff" stroke="#63b8ff" points="236.77,-50.73 246.87,-53.93 240.97,-45.13 236.77,-50.73"/>
</a>
</g>
</g>
<!-- Node4 -->
<g id="Node000004" class="node">
<title>Node4</title>
<g id="a_Node000004"><a xlink:href="interface_8c.html" target="_top" xlink:title=" ">
<polygon fill="white" stroke="#666666" points="400.12,-19.25 264.12,-19.25 264.12,0 400.12,0 400.12,-19.25"/>
<text text-anchor="middle" x="332.12" y="-5.75" font-family="Helvetica,sans-Serif" font-size="10.00">iop/usb/usbd/src/interface.c</text>
</a>
</g>
</g>
<!-- Node1&#45;&gt;Node4 -->
<g id="edge3_Node000001_Node000004" class="edge">
<title>Node1&#45;&gt;Node4</title>
<g id="a_edge3_Node000001_Node000004"><a xlink:title=" ">
<path fill="none" stroke="#63b8ff" d="M281.3,-48.22C293.94,-38.87 309.53,-27.33 320.09,-19.52"/>
<polygon fill="#63b8ff" stroke="#63b8ff" points="279.51,-45.18 273.56,-53.94 283.68,-50.81 279.51,-45.18"/>
</a>
</g>
</g>
<!-- Node5 -->
<g id="Node000005" class="node">
<title>Node5</title>
<g id="a_Node000005"><a xlink:href="usbd_8c.html" target="_top" xlink:title=" ">
<polygon fill="white" stroke="#666666" points="537.88,-19.25 418.38,-19.25 418.38,0 537.88,0 537.88,-19.25"/>
<text text-anchor="middle" x="478.12" y="-5.75" font-family="Helvetica,sans-Serif" font-size="10.00">iop/usb/usbd/src/usbd.c</text>
</a>
</g>
</g>
<!-- Node1&#45;&gt;Node5 -->
<g id="edge4_Node000001_Node000005" class="edge">
<title>Node1&#45;&gt;Node5</title>
<g id="a_edge4_Node000001_Node000005"><a xlink:title=" ">
<path fill="none" stroke="#63b8ff" d="M308.19,-52.13C348.19,-42.36 404.33,-28.65 440.96,-19.7"/>
<polygon fill="#63b8ff" stroke="#63b8ff" points="307.46,-48.71 298.58,-54.48 309.12,-55.51 307.46,-48.71"/>
</a>
</g>
</g>
</g>
</svg>
