<?xml version="1.0" encoding="UTF-8" standalone="no"?>
<!DOCTYPE svg PUBLIC "-//W3C//DTD SVG 1.1//EN"
 "http://www.w3.org/Graphics/SVG/1.1/DTD/svg11.dtd">
<!-- Generated by graphviz version 12.2.0 (20241103.1931)
 -->
<!-- Title: iop/usb/usbd/src/hcd.h Pages: 1 -->
<svg width="183pt" height="304pt"
 viewBox="0.00 0.00 183.00 303.50" xmlns="http://www.w3.org/2000/svg" xmlns:xlink="http://www.w3.org/1999/xlink">

<svg id="main" version="1.1" xmlns="http://www.w3.org/2000/svg" xmlns:xlink="http://www.w3.org/1999/xlink" xml:space="preserve">

<style type="text/css"><![CDATA[
.node, .edge {opacity: 0.7;}
.node.selected, .edge.selected {opacity: 1;}
.edge:hover path { stroke: red; }
.edge:hover polygon { stroke: red; fill: red; }
]]></style>
<script type="application/ecmascript" xlink:href="svg.min.js"/>
<svg id="graph" class="graph">
<g id="graph0" class="graph" transform="scale(1 1) rotate(0) translate(4 299.5)">
<title>iop/usb/usbd/src/hcd.h</title>
<!-- Node1 -->
<g id="Node000001" class="node">
<title>Node1</title>
<g id="a_Node000001"><a xlink:title=" ">
<polygon fill="#999999" stroke="#666666" points="126.5,-295.5 12.25,-295.5 12.25,-276.25 126.5,-276.25 126.5,-295.5"/>
<text text-anchor="middle" x="69.38" y="-282" font-family="Helvetica,sans-Serif" font-size="10.00">iop/usb/usbd/src/hcd.h</text>
</a>
</g>
</g>
<!-- Node2 -->
<g id="Node000002" class="node">
<title>Node2</title>
<g id="a_Node000002"><a xlink:href="usbdpriv_8h.html" target="_top" xlink:title=" ">
<polygon fill="white" stroke="#666666" points="99.5,-240.25 39.25,-240.25 39.25,-221 99.5,-221 99.5,-240.25"/>
<text text-anchor="middle" x="69.38" y="-226.75" font-family="Helvetica,sans-Serif" font-size="10.00">usbdpriv.h</text>
</a>
</g>
</g>
<!-- Node1&#45;&gt;Node2 -->
<g id="edge1_Node000001_Node000002" class="edge">
<title>Node1&#45;&gt;Node2</title>
<g id="a_edge1_Node000001_Node000002"><a xlink:title=" ">
<path fill="none" stroke="#63b8ff" d="M69.38,-276.08C69.38,-269.57 69.38,-260.42 69.38,-252.12"/>
<polygon fill="#63b8ff" stroke="#63b8ff" points="72.88,-252.12 69.38,-242.12 65.88,-252.12 72.88,-252.12"/>
</a>
</g>
</g>
<!-- Node3 -->
<g id="Node000003" class="node">
<title>Node3</title>
<g id="a_Node000003"><a xlink:href="usbd_8h.html" target="_top" xlink:title=" ">
<polygon fill="white" stroke="#666666" points="91.62,-185 47.12,-185 47.12,-165.75 91.62,-165.75 91.62,-185"/>
<text text-anchor="middle" x="69.38" y="-171.5" font-family="Helvetica,sans-Serif" font-size="10.00">usbd.h</text>
</a>
</g>
</g>
<!-- Node2&#45;&gt;Node3 -->
<g id="edge2_Node000002_Node000003" class="edge">
<title>Node2&#45;&gt;Node3</title>
<g id="a_edge2_Node000002_Node000003"><a xlink:title=" ">
<path fill="none" stroke="#63b8ff" d="M69.38,-220.83C69.38,-214.32 69.38,-205.17 69.38,-196.87"/>
<polygon fill="#63b8ff" stroke="#63b8ff" points="72.88,-196.87 69.38,-186.87 65.88,-196.87 72.88,-196.87"/>
</a>
</g>
</g>
<!-- Node4 -->
<g id="Node000004" class="node">
<title>Node4</title>
<g id="a_Node000004"><a xlink:title=" ">
<polygon fill="#e0e0e0" stroke="#999999" points="46.75,-129.75 0,-129.75 0,-110.5 46.75,-110.5 46.75,-129.75"/>
<text text-anchor="middle" x="23.38" y="-116.25" font-family="Helvetica,sans-Serif" font-size="10.00">types.h</text>
</a>
</g>
</g>
<!-- Node2&#45;&gt;Node4 -->
<g id="edge8_Node000002_Node000004" class="edge">
<title>Node2&#45;&gt;Node4</title>
<g id="a_edge8_Node000002_Node000004"><a xlink:title=" ">
<path fill="none" stroke="#63b8ff" d="M61.62,-220.67C54.56,-212.07 44.36,-198.44 38.38,-185 32.19,-171.11 28.38,-154.33 26.14,-141.46"/>
<polygon fill="#63b8ff" stroke="#63b8ff" points="29.61,-140.99 24.64,-131.64 22.69,-142.05 29.61,-140.99"/>
</a>
</g>
</g>
<!-- Node9 -->
<g id="Node000009" class="node">
<title>Node9</title>
<g id="a_Node000009"><a xlink:href="defs_8h.html" target="_top" xlink:title=" ">
<polygon fill="white" stroke="#666666" points="151.5,-185 109.25,-185 109.25,-165.75 151.5,-165.75 151.5,-185"/>
<text text-anchor="middle" x="130.38" y="-171.5" font-family="Helvetica,sans-Serif" font-size="10.00">defs.h</text>
</a>
</g>
</g>
<!-- Node2&#45;&gt;Node9 -->
<g id="edge9_Node000002_Node000009" class="edge">
<title>Node2&#45;&gt;Node9</title>
<g id="a_edge9_Node000002_Node000009"><a xlink:title=" ">
<path fill="none" stroke="#63b8ff" d="M79.72,-220.59C88.45,-212.97 101.16,-201.87 111.67,-192.7"/>
<polygon fill="#63b8ff" stroke="#63b8ff" points="113.81,-195.48 119.04,-186.27 109.2,-190.21 113.81,-195.48"/>
</a>
</g>
</g>
<!-- Node3&#45;&gt;Node4 -->
<g id="edge3_Node000003_Node000004" class="edge">
<title>Node3&#45;&gt;Node4</title>
<g id="a_edge3_Node000003_Node000004"><a xlink:title=" ">
<path fill="none" stroke="#63b8ff" d="M61.78,-165.58C55.49,-158.3 46.36,-147.73 38.58,-138.73"/>
<polygon fill="#63b8ff" stroke="#63b8ff" points="41.31,-136.53 32.13,-131.25 36.01,-141.11 41.31,-136.53"/>
</a>
</g>
</g>
<!-- Node5 -->
<g id="Node000005" class="node">
<title>Node5</title>
<g id="a_Node000005"><a xlink:href="irx_8h.html" target="_top" xlink:title=" ">
<polygon fill="white" stroke="#666666" points="100,-129.75 66.75,-129.75 66.75,-110.5 100,-110.5 100,-129.75"/>
<text text-anchor="middle" x="83.38" y="-116.25" font-family="Helvetica,sans-Serif" font-size="10.00">irx.h</text>
</a>
</g>
</g>
<!-- Node3&#45;&gt;Node5 -->
<g id="edge4_Node000003_Node000005" class="edge">
<title>Node3&#45;&gt;Node5</title>
<g id="a_edge4_Node000003_Node000005"><a xlink:title=" ">
<path fill="none" stroke="#63b8ff" d="M71.69,-165.58C73.44,-158.92 75.92,-149.49 78.14,-141.03"/>
<polygon fill="#63b8ff" stroke="#63b8ff" points="81.47,-142.13 80.63,-131.57 74.7,-140.35 81.47,-142.13"/>
</a>
</g>
</g>
<!-- Node6 -->
<g id="Node000006" class="node">
<title>Node6</title>
<g id="a_Node000006"><a xlink:href="iop_2kernel_2include_2types_8h_source.html" target="_top" xlink:title=" ">
<polygon fill="white" stroke="#666666" points="128.75,-74.5 82,-74.5 82,-55.25 128.75,-55.25 128.75,-74.5"/>
<text text-anchor="middle" x="105.38" y="-61" font-family="Helvetica,sans-Serif" font-size="10.00">types.h</text>
</a>
</g>
</g>
<!-- Node5&#45;&gt;Node6 -->
<g id="edge5_Node000005_Node000006" class="edge">
<title>Node5&#45;&gt;Node6</title>
<g id="a_edge5_Node000005_Node000006"><a xlink:title=" ">
<path fill="none" stroke="#63b8ff" d="M87.01,-110.33C89.79,-103.59 93.75,-94.02 97.27,-85.49"/>
<polygon fill="#63b8ff" stroke="#63b8ff" points="100.5,-86.84 101.09,-76.26 94.03,-84.16 100.5,-86.84"/>
</a>
</g>
</g>
<!-- Node7 -->
<g id="Node000007" class="node">
<title>Node7</title>
<g id="a_Node000007"><a xlink:title=" ">
<polygon fill="#e0e0e0" stroke="#999999" points="93.62,-19.25 43.12,-19.25 43.12,0 93.62,0 93.62,-19.25"/>
<text text-anchor="middle" x="68.38" y="-5.75" font-family="Helvetica,sans-Serif" font-size="10.00">stddef.h</text>
</a>
</g>
</g>
<!-- Node6&#45;&gt;Node7 -->
<g id="edge6_Node000006_Node000007" class="edge">
<title>Node6&#45;&gt;Node7</title>
<g id="a_edge6_Node000006_Node000007"><a xlink:title=" ">
<path fill="none" stroke="#63b8ff" d="M99.27,-55.08C94.31,-47.96 87.17,-37.68 81,-28.8"/>
<polygon fill="#63b8ff" stroke="#63b8ff" points="84.06,-27.07 75.48,-20.85 78.31,-31.06 84.06,-27.07"/>
</a>
</g>
</g>
<!-- Node8 -->
<g id="Node000008" class="node">
<title>Node8</title>
<g id="a_Node000008"><a xlink:href="tamtypes_8h.html" target="_top" xlink:title=" ">
<polygon fill="white" stroke="#666666" points="175,-19.25 111.75,-19.25 111.75,0 175,0 175,-19.25"/>
<text text-anchor="middle" x="143.38" y="-5.75" font-family="Helvetica,sans-Serif" font-size="10.00">tamtypes.h</text>
</a>
</g>
</g>
<!-- Node6&#45;&gt;Node8 -->
<g id="edge7_Node000006_Node000008" class="edge">
<title>Node6&#45;&gt;Node8</title>
<g id="a_edge7_Node000006_Node000008"><a xlink:title=" ">
<path fill="none" stroke="#63b8ff" d="M111.65,-55.08C116.73,-47.96 124.07,-37.68 130.41,-28.8"/>
<polygon fill="#63b8ff" stroke="#63b8ff" points="133.12,-31.01 136.08,-20.84 127.43,-26.95 133.12,-31.01"/>
</a>
</g>
</g>
<!-- Node9&#45;&gt;Node6 -->
<g id="edge10_Node000009_Node000006" class="edge">
<title>Node9&#45;&gt;Node6</title>
<g id="a_edge10_Node000009_Node000006"><a xlink:title=" ">
<path fill="none" stroke="#63b8ff" d="M128.33,-165.5C124.36,-148.25 115.5,-109.83 110.03,-86.06"/>
<polygon fill="#63b8ff" stroke="#63b8ff" points="113.44,-85.31 107.79,-76.35 106.62,-86.88 113.44,-85.31"/>
</a>
</g>
</g>
</g>
</svg>
</svg>

<style type='text/css'>
<![CDATA[
[data-mouse-over-selected='false'] { opacity: 0.7; }
[data-mouse-over-selected='true']  { opacity: 1.0; }
]]>
</style>
<script type="application/ecmascript"><![CDATA[
document.addEventListener('DOMContentLoaded', (event) => {
  highlightEdges();
  highlightAdjacentNodes();
});
]]></script>
</svg>
