<?xml version="1.0" encoding="UTF-8" standalone="no"?>
<!DOCTYPE svg PUBLIC "-//W3C//DTD SVG 1.1//EN"
 "http://www.w3.org/Graphics/SVG/1.1/DTD/svg11.dtd">
<!-- Generated by graphviz version 12.2.0 (20241103.1931)
 -->
<!-- Title: iop/usb/usbd/src/hcd.c Pages: 1 -->
<svg width="658pt" height="359pt"
 viewBox="0.00 0.00 658.00 358.75" xmlns="http://www.w3.org/2000/svg" xmlns:xlink="http://www.w3.org/1999/xlink">
<g id="graph0" class="graph" transform="scale(1 1) rotate(0) translate(4 354.75)">
<title>iop/usb/usbd/src/hcd.c</title>
<!-- Node1 -->
<g id="Node000001" class="node">
<title>Node1</title>
<g id="a_Node000001"><a xlink:title=" ">
<polygon fill="#999999" stroke="#666666" points="382.25,-350.75 268,-350.75 268,-331.5 382.25,-331.5 382.25,-350.75"/>
<text text-anchor="middle" x="325.12" y="-337.25" font-family="Helvetica,sans-Serif" font-size="10.00">iop/usb/usbd/src/hcd.c</text>
</a>
</g>
</g>
<!-- Node2 -->
<g id="Node000002" class="node">
<title>Node2</title>
<g id="a_Node000002"><a xlink:href="usbdpriv_8h.html" target="_top" xlink:title=" ">
<polygon fill="white" stroke="#666666" points="125.25,-240.25 65,-240.25 65,-221 125.25,-221 125.25,-240.25"/>
<text text-anchor="middle" x="95.12" y="-226.75" font-family="Helvetica,sans-Serif" font-size="10.00">usbdpriv.h</text>
</a>
</g>
</g>
<!-- Node1&#45;&gt;Node2 -->
<g id="edge1_Node000001_Node000002" class="edge">
<title>Node1&#45;&gt;Node2</title>
<g id="a_edge1_Node000001_Node000002"><a xlink:title=" ">
<path fill="none" stroke="#63b8ff" d="M267.58,-338.67C198.51,-335.57 88.76,-325.87 63.12,-295.5 51.31,-281.5 63.77,-262.4 76.43,-248.74"/>
<polygon fill="#63b8ff" stroke="#63b8ff" points="78.86,-251.27 83.46,-241.73 73.91,-246.32 78.86,-251.27"/>
</a>
</g>
</g>
<!-- Node10 -->
<g id="Node000010" class="node">
<title>Node10</title>
<g id="a_Node000010"><a xlink:href="mem_8h.html" target="_top" xlink:title=" ">
<polygon fill="white" stroke="#666666" points="117.75,-295.5 72.5,-295.5 72.5,-276.25 117.75,-276.25 117.75,-295.5"/>
<text text-anchor="middle" x="95.12" y="-282" font-family="Helvetica,sans-Serif" font-size="10.00">mem.h</text>
</a>
</g>
</g>
<!-- Node1&#45;&gt;Node10 -->
<g id="edge11_Node000001_Node000010" class="edge">
<title>Node1&#45;&gt;Node10</title>
<g id="a_edge11_Node000001_Node000010"><a xlink:title=" ">
<path fill="none" stroke="#63b8ff" d="M281.5,-331.01C243.52,-322.92 186.75,-310.49 129.24,-296.2"/>
<polygon fill="#63b8ff" stroke="#63b8ff" points="130.13,-292.81 119.58,-293.78 128.43,-299.6 130.13,-292.81"/>
</a>
</g>
</g>
<!-- Node11 -->
<g id="Node000011" class="node">
<title>Node11</title>
<g id="a_Node000011"><a xlink:href="usbio_8h.html" target="_top" xlink:title=" ">
<polygon fill="white" stroke="#666666" points="570.5,-295.5 523.75,-295.5 523.75,-276.25 570.5,-276.25 570.5,-295.5"/>
<text text-anchor="middle" x="547.12" y="-282" font-family="Helvetica,sans-Serif" font-size="10.00">usbio.h</text>
</a>
</g>
</g>
<!-- Node1&#45;&gt;Node11 -->
<g id="edge13_Node000001_Node000011" class="edge">
<title>Node1&#45;&gt;Node11</title>
<g id="a_edge13_Node000001_Node000011"><a xlink:title=" ">
<path fill="none" stroke="#63b8ff" d="M363.04,-331.03C404.94,-320.98 471.87,-304.93 512.44,-295.2"/>
<polygon fill="#63b8ff" stroke="#63b8ff" points="513,-298.66 521.91,-292.92 511.37,-291.85 513,-298.66"/>
</a>
</g>
</g>
<!-- Node12 -->
<g id="Node000012" class="node">
<title>Node12</title>
<g id="a_Node000012"><a xlink:href="hub_8h.html" target="_top" xlink:title=" ">
<polygon fill="white" stroke="#666666" points="174.75,-295.5 135.5,-295.5 135.5,-276.25 174.75,-276.25 174.75,-295.5"/>
<text text-anchor="middle" x="155.12" y="-282" font-family="Helvetica,sans-Serif" font-size="10.00">hub.h</text>
</a>
</g>
</g>
<!-- Node1&#45;&gt;Node12 -->
<g id="edge14_Node000001_Node000012" class="edge">
<title>Node1&#45;&gt;Node12</title>
<g id="a_edge14_Node000001_Node000012"><a xlink:title=" ">
<path fill="none" stroke="#63b8ff" d="M296.29,-331.09C265.58,-321.47 217.16,-306.31 185.78,-296.48"/>
<polygon fill="#63b8ff" stroke="#63b8ff" points="187.08,-293.22 176.49,-293.57 184.99,-299.9 187.08,-293.22"/>
</a>
</g>
</g>
<!-- Node13 -->
<g id="Node000013" class="node">
<title>Node13</title>
<g id="a_Node000013"><a xlink:href="driver_8h.html" target="_top" xlink:title=" ">
<polygon fill="white" stroke="#666666" points="239.88,-295.5 192.38,-295.5 192.38,-276.25 239.88,-276.25 239.88,-295.5"/>
<text text-anchor="middle" x="216.12" y="-282" font-family="Helvetica,sans-Serif" font-size="10.00">driver.h</text>
</a>
</g>
</g>
<!-- Node1&#45;&gt;Node13 -->
<g id="edge16_Node000001_Node000013" class="edge">
<title>Node1&#45;&gt;Node13</title>
<g id="a_edge16_Node000001_Node000013"><a xlink:title=" ">
<path fill="none" stroke="#63b8ff" d="M306.63,-331.09C289.72,-322.83 264.44,-310.48 244.89,-300.93"/>
<polygon fill="#63b8ff" stroke="#63b8ff" points="246.59,-297.86 236.07,-296.62 243.51,-304.15 246.59,-297.86"/>
</a>
</g>
</g>
<!-- Node14 -->
<g id="Node000014" class="node">
<title>Node14</title>
<g id="a_Node000014"><a xlink:href="stdio_8h.html" target="_top" xlink:title=" ">
<polygon fill="white" stroke="#666666" points="275.38,-185 230.88,-185 230.88,-165.75 275.38,-165.75 275.38,-185"/>
<text text-anchor="middle" x="253.12" y="-171.5" font-family="Helvetica,sans-Serif" font-size="10.00">stdio.h</text>
</a>
</g>
</g>
<!-- Node1&#45;&gt;Node14 -->
<g id="edge18_Node000001_Node000014" class="edge">
<title>Node1&#45;&gt;Node14</title>
<g id="a_edge18_Node000001_Node000014"><a xlink:title=" ">
<path fill="none" stroke="#63b8ff" d="M321.25,-331.32C310.02,-305.78 277.23,-231.2 261.6,-195.65"/>
<polygon fill="#63b8ff" stroke="#63b8ff" points="264.85,-194.35 257.62,-186.61 258.45,-197.17 264.85,-194.35"/>
</a>
</g>
</g>
<!-- Node16 -->
<g id="Node000016" class="node">
<title>Node16</title>
<g id="a_Node000016"><a xlink:href="sysclib_8h.html" target="_top" xlink:title=" ">
<polygon fill="white" stroke="#666666" points="212.88,-185 159.38,-185 159.38,-165.75 212.88,-165.75 212.88,-185"/>
<text text-anchor="middle" x="186.12" y="-171.5" font-family="Helvetica,sans-Serif" font-size="10.00">sysclib.h</text>
</a>
</g>
</g>
<!-- Node1&#45;&gt;Node16 -->
<g id="edge21_Node000001_Node000016" class="edge">
<title>Node1&#45;&gt;Node16</title>
<g id="a_edge21_Node000001_Node000016"><a xlink:title=" ">
<path fill="none" stroke="#63b8ff" d="M317.65,-331.32C295.59,-305.33 230.45,-228.59 200.95,-193.84"/>
<polygon fill="#63b8ff" stroke="#63b8ff" points="203.75,-191.74 194.61,-186.38 198.42,-196.27 203.75,-191.74"/>
</a>
</g>
</g>
<!-- Node19 -->
<g id="Node000019" class="node">
<title>Node19</title>
<g id="a_Node000019"><a xlink:href="sysmem_8h.html" target="_top" xlink:title=" ">
<polygon fill="white" stroke="#666666" points="353.25,-185 293,-185 293,-165.75 353.25,-165.75 353.25,-185"/>
<text text-anchor="middle" x="323.12" y="-171.5" font-family="Helvetica,sans-Serif" font-size="10.00">sysmem.h</text>
</a>
</g>
</g>
<!-- Node1&#45;&gt;Node19 -->
<g id="edge28_Node000001_Node000019" class="edge">
<title>Node1&#45;&gt;Node19</title>
<g id="a_edge28_Node000001_Node000019"><a xlink:title=" ">
<path fill="none" stroke="#63b8ff" d="M325.02,-331.32C324.71,-306 323.81,-232.5 323.37,-196.59"/>
<polygon fill="#63b8ff" stroke="#63b8ff" points="326.87,-196.69 323.25,-186.74 319.87,-196.78 326.87,-196.69"/>
</a>
</g>
</g>
<!-- Node20 -->
<g id="Node000020" class="node">
<title>Node20</title>
<g id="a_Node000020"><a xlink:href="thbase_8h.html" target="_top" xlink:title=" ">
<polygon fill="white" stroke="#666666" points="424.5,-185 371.75,-185 371.75,-165.75 424.5,-165.75 424.5,-185"/>
<text text-anchor="middle" x="398.12" y="-171.5" font-family="Helvetica,sans-Serif" font-size="10.00">thbase.h</text>
</a>
</g>
</g>
<!-- Node1&#45;&gt;Node20 -->
<g id="edge32_Node000001_Node000020" class="edge">
<title>Node1&#45;&gt;Node20</title>
<g id="a_edge32_Node000001_Node000020"><a xlink:title=" ">
<path fill="none" stroke="#63b8ff" d="M329.05,-331.32C340.44,-305.78 373.68,-231.2 389.53,-195.65"/>
<polygon fill="#63b8ff" stroke="#63b8ff" points="392.69,-197.16 393.56,-186.6 386.3,-194.31 392.69,-197.16"/>
</a>
</g>
</g>
<!-- Node21 -->
<g id="Node000021" class="node">
<title>Node21</title>
<g id="a_Node000021"><a xlink:href="thevent_8h.html" target="_top" xlink:title=" ">
<polygon fill="white" stroke="#666666" points="498,-185 442.25,-185 442.25,-165.75 498,-165.75 498,-185"/>
<text text-anchor="middle" x="470.12" y="-171.5" font-family="Helvetica,sans-Serif" font-size="10.00">thevent.h</text>
</a>
</g>
</g>
<!-- Node1&#45;&gt;Node21 -->
<g id="edge35_Node000001_Node000021" class="edge">
<title>Node1&#45;&gt;Node21</title>
<g id="a_edge35_Node000001_Node000021"><a xlink:title=" ">
<path fill="none" stroke="#63b8ff" d="M332.92,-331.32C355.93,-305.33 423.88,-228.59 454.66,-193.84"/>
<polygon fill="#63b8ff" stroke="#63b8ff" points="457.28,-196.16 461.29,-186.36 452.04,-191.52 457.28,-196.16"/>
</a>
</g>
</g>
<!-- Node22 -->
<g id="Node000022" class="node">
<title>Node22</title>
<g id="a_Node000022"><a xlink:href="thsemap_8h.html" target="_top" xlink:title=" ">
<polygon fill="white" stroke="#666666" points="576.62,-185 515.62,-185 515.62,-165.75 576.62,-165.75 576.62,-185"/>
<text text-anchor="middle" x="546.12" y="-171.5" font-family="Helvetica,sans-Serif" font-size="10.00">thsemap.h</text>
</a>
</g>
</g>
<!-- Node1&#45;&gt;Node22 -->
<g id="edge38_Node000001_Node000022" class="edge">
<title>Node1&#45;&gt;Node22</title>
<g id="a_edge38_Node000001_Node000022"><a xlink:title=" ">
<path fill="none" stroke="#63b8ff" d="M338.06,-331.05C350.68,-322.14 370.37,-308.09 387.12,-295.5 430.02,-263.27 438.99,-252.91 482.12,-221 495.57,-211.06 510.93,-200.33 523.23,-191.88"/>
<polygon fill="#63b8ff" stroke="#63b8ff" points="525.2,-194.77 531.48,-186.24 521.25,-188.99 525.2,-194.77"/>
</a>
</g>
</g>
<!-- Node23 -->
<g id="Node000023" class="node">
<title>Node23</title>
<g id="a_Node000023"><a xlink:href="intrman_8h.html" target="_top" xlink:title=" ">
<polygon fill="white" stroke="#666666" points="650,-185 594.25,-185 594.25,-165.75 650,-165.75 650,-185"/>
<text text-anchor="middle" x="622.12" y="-171.5" font-family="Helvetica,sans-Serif" font-size="10.00">intrman.h</text>
</a>
</g>
</g>
<!-- Node1&#45;&gt;Node23 -->
<g id="edge41_Node000001_Node000023" class="edge">
<title>Node1&#45;&gt;Node23</title>
<g id="a_edge41_Node000001_Node000023"><a xlink:title=" ">
<path fill="none" stroke="#63b8ff" d="M343.46,-331.15C361.36,-322.32 389.29,-308.33 413.12,-295.5 480.48,-259.26 558.42,-213.9 597.34,-191.02"/>
<polygon fill="#63b8ff" stroke="#63b8ff" points="598.65,-194.31 605.5,-186.22 595.1,-188.28 598.65,-194.31"/>
</a>
</g>
</g>
<!-- Node3 -->
<g id="Node000003" class="node">
<title>Node3</title>
<g id="a_Node000003"><a xlink:href="usbd_8h.html" target="_top" xlink:title=" ">
<polygon fill="white" stroke="#666666" points="141.38,-185 96.88,-185 96.88,-165.75 141.38,-165.75 141.38,-185"/>
<text text-anchor="middle" x="119.12" y="-171.5" font-family="Helvetica,sans-Serif" font-size="10.00">usbd.h</text>
</a>
</g>
</g>
<!-- Node2&#45;&gt;Node3 -->
<g id="edge2_Node000002_Node000003" class="edge">
<title>Node2&#45;&gt;Node3</title>
<g id="a_edge2_Node000002_Node000003"><a xlink:title=" ">
<path fill="none" stroke="#63b8ff" d="M99.09,-220.83C102.16,-214.01 106.54,-204.31 110.41,-195.7"/>
<polygon fill="#63b8ff" stroke="#63b8ff" points="113.54,-197.29 114.45,-186.74 107.15,-194.42 113.54,-197.29"/>
</a>
</g>
</g>
<!-- Node4 -->
<g id="Node000004" class="node">
<title>Node4</title>
<g id="a_Node000004"><a xlink:title=" ">
<polygon fill="#e0e0e0" stroke="#999999" points="107.5,-129.75 60.75,-129.75 60.75,-110.5 107.5,-110.5 107.5,-129.75"/>
<text text-anchor="middle" x="84.12" y="-116.25" font-family="Helvetica,sans-Serif" font-size="10.00">types.h</text>
</a>
</g>
</g>
<!-- Node2&#45;&gt;Node4 -->
<g id="edge8_Node000002_Node000004" class="edge">
<title>Node2&#45;&gt;Node4</title>
<g id="a_edge8_Node000002_Node000004"><a xlink:title=" ">
<path fill="none" stroke="#63b8ff" d="M93.49,-220.77C91.88,-211.79 89.49,-197.47 88.12,-185 86.55,-170.57 85.54,-154.24 84.93,-141.7"/>
<polygon fill="#63b8ff" stroke="#63b8ff" points="88.43,-141.6 84.49,-131.76 81.43,-141.9 88.43,-141.6"/>
</a>
</g>
</g>
<!-- Node9 -->
<g id="Node000009" class="node">
<title>Node9</title>
<g id="a_Node000009"><a xlink:href="defs_8h.html" target="_top" xlink:title=" ">
<polygon fill="white" stroke="#666666" points="42.25,-129.75 0,-129.75 0,-110.5 42.25,-110.5 42.25,-129.75"/>
<text text-anchor="middle" x="21.12" y="-116.25" font-family="Helvetica,sans-Serif" font-size="10.00">defs.h</text>
</a>
</g>
</g>
<!-- Node2&#45;&gt;Node9 -->
<g id="edge9_Node000002_Node000009" class="edge">
<title>Node2&#45;&gt;Node9</title>
<g id="a_edge9_Node000002_Node000009"><a xlink:title=" ">
<path fill="none" stroke="#63b8ff" d="M89.07,-220.75C76.98,-203.02 49.65,-162.94 33.57,-139.38"/>
<polygon fill="#63b8ff" stroke="#63b8ff" points="36.64,-137.67 28.12,-131.38 30.86,-141.61 36.64,-137.67"/>
</a>
</g>
</g>
<!-- Node3&#45;&gt;Node4 -->
<g id="edge3_Node000003_Node000004" class="edge">
<title>Node3&#45;&gt;Node4</title>
<g id="a_edge3_Node000003_Node000004"><a xlink:title=" ">
<path fill="none" stroke="#63b8ff" d="M113.35,-165.58C108.71,-158.53 102.05,-148.4 96.26,-139.58"/>
<polygon fill="#63b8ff" stroke="#63b8ff" points="99.28,-137.81 90.86,-131.37 93.43,-141.65 99.28,-137.81"/>
</a>
</g>
</g>
<!-- Node5 -->
<g id="Node000005" class="node">
<title>Node5</title>
<g id="a_Node000005"><a xlink:href="irx_8h.html" target="_top" xlink:title=" ">
<polygon fill="white" stroke="#666666" points="404.75,-129.75 371.5,-129.75 371.5,-110.5 404.75,-110.5 404.75,-129.75"/>
<text text-anchor="middle" x="388.12" y="-116.25" font-family="Helvetica,sans-Serif" font-size="10.00">irx.h</text>
</a>
</g>
</g>
<!-- Node3&#45;&gt;Node5 -->
<g id="edge4_Node000003_Node000005" class="edge">
<title>Node3&#45;&gt;Node5</title>
<g id="a_edge4_Node000003_Node000005"><a xlink:title=" ">
<path fill="none" stroke="#63b8ff" d="M141.75,-167.84C144.56,-167.1 147.4,-166.38 150.12,-165.75 225.52,-148.23 315.57,-132.83 360.2,-125.56"/>
<polygon fill="#63b8ff" stroke="#63b8ff" points="360.48,-129.06 369.79,-124.01 359.36,-122.15 360.48,-129.06"/>
</a>
</g>
</g>
<!-- Node6 -->
<g id="Node000006" class="node">
<title>Node6</title>
<g id="a_Node000006"><a xlink:href="iop_2kernel_2include_2types_8h_source.html" target="_top" xlink:title=" ">
<polygon fill="white" stroke="#666666" points="411.5,-74.5 364.75,-74.5 364.75,-55.25 411.5,-55.25 411.5,-74.5"/>
<text text-anchor="middle" x="388.12" y="-61" font-family="Helvetica,sans-Serif" font-size="10.00">types.h</text>
</a>
</g>
</g>
<!-- Node5&#45;&gt;Node6 -->
<g id="edge5_Node000005_Node000006" class="edge">
<title>Node5&#45;&gt;Node6</title>
<g id="a_edge5_Node000005_Node000006"><a xlink:title=" ">
<path fill="none" stroke="#63b8ff" d="M388.12,-110.33C388.12,-103.82 388.12,-94.67 388.12,-86.37"/>
<polygon fill="#63b8ff" stroke="#63b8ff" points="391.63,-86.37 388.13,-76.37 384.63,-86.37 391.63,-86.37"/>
</a>
</g>
</g>
<!-- Node7 -->
<g id="Node000007" class="node">
<title>Node7</title>
<g id="a_Node000007"><a xlink:title=" ">
<polygon fill="#e0e0e0" stroke="#999999" points="413.38,-19.25 362.88,-19.25 362.88,0 413.38,0 413.38,-19.25"/>
<text text-anchor="middle" x="388.12" y="-5.75" font-family="Helvetica,sans-Serif" font-size="10.00">stddef.h</text>
</a>
</g>
</g>
<!-- Node6&#45;&gt;Node7 -->
<g id="edge6_Node000006_Node000007" class="edge">
<title>Node6&#45;&gt;Node7</title>
<g id="a_edge6_Node000006_Node000007"><a xlink:title=" ">
<path fill="none" stroke="#63b8ff" d="M388.12,-55.08C388.12,-48.57 388.12,-39.42 388.12,-31.12"/>
<polygon fill="#63b8ff" stroke="#63b8ff" points="391.63,-31.12 388.13,-21.12 384.63,-31.12 391.63,-31.12"/>
</a>
</g>
</g>
<!-- Node8 -->
<g id="Node000008" class="node">
<title>Node8</title>
<g id="a_Node000008"><a xlink:href="tamtypes_8h.html" target="_top" xlink:title=" ">
<polygon fill="white" stroke="#666666" points="300.75,-19.25 237.5,-19.25 237.5,0 300.75,0 300.75,-19.25"/>
<text text-anchor="middle" x="269.12" y="-5.75" font-family="Helvetica,sans-Serif" font-size="10.00">tamtypes.h</text>
</a>
</g>
</g>
<!-- Node6&#45;&gt;Node8 -->
<g id="edge7_Node000006_Node000008" class="edge">
<title>Node6&#45;&gt;Node8</title>
<g id="a_edge7_Node000006_Node000008"><a xlink:title=" ">
<path fill="none" stroke="#63b8ff" d="M367.94,-54.84C349.22,-46.47 321.1,-33.88 299.64,-24.28"/>
<polygon fill="#63b8ff" stroke="#63b8ff" points="301.35,-21.21 290.79,-20.32 298.49,-27.6 301.35,-21.21"/>
</a>
</g>
</g>
<!-- Node9&#45;&gt;Node6 -->
<g id="edge10_Node000009_Node000006" class="edge">
<title>Node9&#45;&gt;Node6</title>
<g id="a_edge10_Node000009_Node000006"><a xlink:title=" ">
<path fill="none" stroke="#63b8ff" d="M42.71,-112.71C45.85,-111.89 49.06,-111.13 52.12,-110.5 160.76,-88.29 291.52,-74.6 352.97,-68.92"/>
<polygon fill="#63b8ff" stroke="#63b8ff" points="353.16,-72.41 362.8,-68.02 352.53,-65.44 353.16,-72.41"/>
</a>
</g>
</g>
<!-- Node10&#45;&gt;Node2 -->
<g id="edge12_Node000010_Node000002" class="edge">
<title>Node10&#45;&gt;Node2</title>
<g id="a_edge12_Node000010_Node000002"><a xlink:title=" ">
<path fill="none" stroke="#63b8ff" d="M95.12,-276.08C95.12,-269.57 95.12,-260.42 95.12,-252.12"/>
<polygon fill="#63b8ff" stroke="#63b8ff" points="98.63,-252.12 95.13,-242.12 91.63,-252.12 98.63,-252.12"/>
</a>
</g>
</g>
<!-- Node12&#45;&gt;Node2 -->
<g id="edge15_Node000012_Node000002" class="edge">
<title>Node12&#45;&gt;Node2</title>
<g id="a_edge15_Node000012_Node000002"><a xlink:title=" ">
<path fill="none" stroke="#63b8ff" d="M144.95,-275.84C136.36,-268.22 123.86,-257.12 113.52,-247.95"/>
<polygon fill="#63b8ff" stroke="#63b8ff" points="116.09,-245.55 106.28,-241.53 111.44,-250.79 116.09,-245.55"/>
</a>
</g>
</g>
<!-- Node13&#45;&gt;Node2 -->
<g id="edge17_Node000013_Node000002" class="edge">
<title>Node13&#45;&gt;Node2</title>
<g id="a_edge17_Node000013_Node000002"><a xlink:title=" ">
<path fill="none" stroke="#63b8ff" d="M195.6,-275.84C176.56,-267.47 147.97,-254.88 126.15,-245.28"/>
<polygon fill="#63b8ff" stroke="#63b8ff" points="127.7,-242.14 117.14,-241.31 124.88,-248.54 127.7,-242.14"/>
</a>
</g>
</g>
<!-- Node14&#45;&gt;Node5 -->
<g id="edge20_Node000014_Node000005" class="edge">
<title>Node14&#45;&gt;Node5</title>
<g id="a_edge20_Node000014_Node000005"><a xlink:title=" ">
<path fill="none" stroke="#63b8ff" d="M275.72,-165.46C299.02,-156.27 335.39,-141.92 360.42,-132.05"/>
<polygon fill="#63b8ff" stroke="#63b8ff" points="361.6,-135.35 369.62,-128.42 359.03,-128.84 361.6,-135.35"/>
</a>
</g>
</g>
<!-- Node15 -->
<g id="Node000015" class="node">
<title>Node15</title>
<g id="a_Node000015"><a xlink:title=" ">
<polygon fill="#e0e0e0" stroke="#999999" points="315.38,-129.75 264.88,-129.75 264.88,-110.5 315.38,-110.5 315.38,-129.75"/>
<text text-anchor="middle" x="290.12" y="-116.25" font-family="Helvetica,sans-Serif" font-size="10.00">stdarg.h</text>
</a>
</g>
</g>
<!-- Node14&#45;&gt;Node15 -->
<g id="edge19_Node000014_Node000015" class="edge">
<title>Node14&#45;&gt;Node15</title>
<g id="a_edge19_Node000014_Node000015"><a xlink:title=" ">
<path fill="none" stroke="#63b8ff" d="M259.23,-165.58C264.19,-158.46 271.33,-148.18 277.5,-139.3"/>
<polygon fill="#63b8ff" stroke="#63b8ff" points="280.19,-141.56 283.02,-131.35 274.44,-137.57 280.19,-141.56"/>
</a>
</g>
</g>
<!-- Node16&#45;&gt;Node5 -->
<g id="edge23_Node000016_Node000005" class="edge">
<title>Node16&#45;&gt;Node5</title>
<g id="a_edge23_Node000016_Node000005"><a xlink:title=" ">
<path fill="none" stroke="#63b8ff" d="M213.37,-167.19C251.72,-157.08 321.28,-138.75 360.07,-128.52"/>
<polygon fill="#63b8ff" stroke="#63b8ff" points="360.81,-131.95 369.59,-126.01 359.03,-125.18 360.81,-131.95"/>
</a>
</g>
</g>
<!-- Node16&#45;&gt;Node6 -->
<g id="edge22_Node000016_Node000006" class="edge">
<title>Node16&#45;&gt;Node6</title>
<g id="a_edge22_Node000016_Node000006"><a xlink:title=" ">
<path fill="none" stroke="#63b8ff" d="M193.83,-165.26C205.83,-151.58 230.33,-125.71 256.12,-110.5 286.76,-92.44 325.73,-80.4 353.37,-73.43"/>
<polygon fill="#63b8ff" stroke="#63b8ff" points="354.1,-76.86 362.99,-71.11 352.45,-70.05 354.1,-76.86"/>
</a>
</g>
</g>
<!-- Node16&#45;&gt;Node15 -->
<g id="edge24_Node000016_Node000015" class="edge">
<title>Node16&#45;&gt;Node15</title>
<g id="a_edge24_Node000016_Node000015"><a xlink:title=" ">
<path fill="none" stroke="#63b8ff" d="M203.77,-165.34C219.75,-157.16 243.58,-144.96 262.16,-135.44"/>
<polygon fill="#63b8ff" stroke="#63b8ff" points="263.74,-138.57 271.05,-130.89 260.55,-132.33 263.74,-138.57"/>
</a>
</g>
</g>
<!-- Node17 -->
<g id="Node000017" class="node">
<title>Node17</title>
<g id="a_Node000017"><a xlink:href="setjmp_8h.html" target="_top" xlink:title=" ">
<polygon fill="white" stroke="#666666" points="206.5,-74.5 153.75,-74.5 153.75,-55.25 206.5,-55.25 206.5,-74.5"/>
<text text-anchor="middle" x="180.12" y="-61" font-family="Helvetica,sans-Serif" font-size="10.00">setjmp.h</text>
</a>
</g>
</g>
<!-- Node16&#45;&gt;Node17 -->
<g id="edge25_Node000016_Node000017" class="edge">
<title>Node16&#45;&gt;Node17</title>
<g id="a_edge25_Node000016_Node000017"><a xlink:title=" ">
<path fill="none" stroke="#63b8ff" d="M177.07,-165.42C169.29,-157.04 158.62,-143.73 154.12,-129.75 149.04,-113.92 157.12,-96.47 165.58,-83.81"/>
<polygon fill="#63b8ff" stroke="#63b8ff" points="168.2,-86.16 171.31,-76.03 162.56,-82.01 168.2,-86.16"/>
</a>
</g>
</g>
<!-- Node18 -->
<g id="Node000018" class="node">
<title>Node18</title>
<g id="a_Node000018"><a xlink:href="ctype_8h.html" target="_top" xlink:title=" ">
<polygon fill="white" stroke="#666666" points="209.5,-129.75 162.75,-129.75 162.75,-110.5 209.5,-110.5 209.5,-129.75"/>
<text text-anchor="middle" x="186.12" y="-116.25" font-family="Helvetica,sans-Serif" font-size="10.00">ctype.h</text>
</a>
</g>
</g>
<!-- Node16&#45;&gt;Node18 -->
<g id="edge27_Node000016_Node000018" class="edge">
<title>Node16&#45;&gt;Node18</title>
<g id="a_edge27_Node000016_Node000018"><a xlink:title=" ">
<path fill="none" stroke="#63b8ff" d="M186.12,-165.58C186.12,-159.07 186.12,-149.92 186.12,-141.62"/>
<polygon fill="#63b8ff" stroke="#63b8ff" points="189.63,-141.62 186.13,-131.62 182.63,-141.62 189.63,-141.62"/>
</a>
</g>
</g>
<!-- Node17&#45;&gt;Node8 -->
<g id="edge26_Node000017_Node000008" class="edge">
<title>Node17&#45;&gt;Node8</title>
<g id="a_edge26_Node000017_Node000008"><a xlink:title=" ">
<path fill="none" stroke="#63b8ff" d="M195.22,-54.84C208.65,-46.81 228.54,-34.91 244.3,-25.48"/>
<polygon fill="#63b8ff" stroke="#63b8ff" points="245.87,-28.62 252.65,-20.48 242.28,-22.61 245.87,-28.62"/>
</a>
</g>
</g>
<!-- Node19&#45;&gt;Node5 -->
<g id="edge30_Node000019_Node000005" class="edge">
<title>Node19&#45;&gt;Node5</title>
<g id="a_edge30_Node000019_Node000005"><a xlink:title=" ">
<path fill="none" stroke="#63b8ff" d="M334.15,-165.34C343.55,-157.65 357.27,-146.4 368.53,-137.18"/>
<polygon fill="#63b8ff" stroke="#63b8ff" points="370.57,-140.03 376.09,-130.98 366.14,-134.61 370.57,-140.03"/>
</a>
</g>
</g>
<!-- Node19&#45;&gt;Node6 -->
<g id="edge29_Node000019_Node000006" class="edge">
<title>Node19&#45;&gt;Node6</title>
<g id="a_edge29_Node000019_Node000006"><a xlink:title=" ">
<path fill="none" stroke="#63b8ff" d="M328.44,-165.5C339.01,-147.85 362.86,-108.05 377,-84.45"/>
<polygon fill="#63b8ff" stroke="#63b8ff" points="379.82,-86.55 381.95,-76.18 373.81,-82.95 379.82,-86.55"/>
</a>
</g>
</g>
<!-- Node19&#45;&gt;Node15 -->
<g id="edge31_Node000019_Node000015" class="edge">
<title>Node19&#45;&gt;Node15</title>
<g id="a_edge31_Node000019_Node000015"><a xlink:title=" ">
<path fill="none" stroke="#63b8ff" d="M317.68,-165.58C313.35,-158.61 307.16,-148.62 301.74,-139.87"/>
<polygon fill="#63b8ff" stroke="#63b8ff" points="304.73,-138.05 296.49,-131.4 298.78,-141.74 304.73,-138.05"/>
</a>
</g>
</g>
<!-- Node20&#45;&gt;Node5 -->
<g id="edge34_Node000020_Node000005" class="edge">
<title>Node20&#45;&gt;Node5</title>
<g id="a_edge34_Node000020_Node000005"><a xlink:title=" ">
<path fill="none" stroke="#63b8ff" d="M396.47,-165.58C395.24,-158.99 393.49,-149.71 391.92,-141.32"/>
<polygon fill="#63b8ff" stroke="#63b8ff" points="395.38,-140.78 390.09,-131.6 388.5,-142.07 395.38,-140.78"/>
</a>
</g>
</g>
<!-- Node20&#45;&gt;Node6 -->
<g id="edge33_Node000020_Node000006" class="edge">
<title>Node20&#45;&gt;Node6</title>
<g id="a_edge33_Node000020_Node000006"><a xlink:title=" ">
<path fill="none" stroke="#63b8ff" d="M403.37,-165.25C409.84,-152.83 419.37,-129.92 414.12,-110.5 411.62,-101.22 406.65,-91.88 401.72,-84.16"/>
<polygon fill="#63b8ff" stroke="#63b8ff" points="404.68,-82.29 396.12,-76.05 398.92,-86.27 404.68,-82.29"/>
</a>
</g>
</g>
<!-- Node21&#45;&gt;Node5 -->
<g id="edge37_Node000021_Node000005" class="edge">
<title>Node21&#45;&gt;Node5</title>
<g id="a_edge37_Node000021_Node000005"><a xlink:title=" ">
<path fill="none" stroke="#63b8ff" d="M456.21,-165.34C443.96,-157.39 425.87,-145.64 411.41,-136.25"/>
<polygon fill="#63b8ff" stroke="#63b8ff" points="413.67,-133.54 403.37,-131.03 409.85,-139.41 413.67,-133.54"/>
</a>
</g>
</g>
<!-- Node21&#45;&gt;Node6 -->
<g id="edge36_Node000021_Node000006" class="edge">
<title>Node21&#45;&gt;Node6</title>
<g id="a_edge36_Node000021_Node000006"><a xlink:title=" ">
<path fill="none" stroke="#63b8ff" d="M465.01,-165.37C457.67,-152.7 443.45,-129.07 429.12,-110.5 421.75,-100.94 412.74,-90.98 405.05,-82.9"/>
<polygon fill="#63b8ff" stroke="#63b8ff" points="407.62,-80.52 398.14,-75.79 402.6,-85.4 407.62,-80.52"/>
</a>
</g>
</g>
<!-- Node22&#45;&gt;Node5 -->
<g id="edge40_Node000022_Node000005" class="edge">
<title>Node22&#45;&gt;Node5</title>
<g id="a_edge40_Node000022_Node000005"><a xlink:title=" ">
<path fill="none" stroke="#63b8ff" d="M519.32,-165.34C490.41,-155.6 444.61,-140.16 415.48,-130.34"/>
<polygon fill="#63b8ff" stroke="#63b8ff" points="416.87,-127.12 406.28,-127.24 414.63,-133.75 416.87,-127.12"/>
</a>
</g>
</g>
<!-- Node22&#45;&gt;Node6 -->
<g id="edge39_Node000022_Node000006" class="edge">
<title>Node22&#45;&gt;Node6</title>
<g id="a_edge39_Node000022_Node000006"><a xlink:title=" ">
<path fill="none" stroke="#63b8ff" d="M532.93,-165.31C505.91,-146.76 444.03,-104.26 410.57,-81.29"/>
<polygon fill="#63b8ff" stroke="#63b8ff" points="412.65,-78.47 402.42,-75.69 408.69,-84.24 412.65,-78.47"/>
</a>
</g>
</g>
<!-- Node23&#45;&gt;Node5 -->
<g id="edge43_Node000023_Node000005" class="edge">
<title>Node23&#45;&gt;Node5</title>
<g id="a_edge43_Node000023_Node000005"><a xlink:title=" ">
<path fill="none" stroke="#63b8ff" d="M593.83,-167.56C591.23,-166.94 588.63,-166.33 586.12,-165.75 525.6,-151.68 454.51,-135.82 416.13,-127.31"/>
<polygon fill="#63b8ff" stroke="#63b8ff" points="417.09,-123.94 406.57,-125.2 415.58,-130.77 417.09,-123.94"/>
</a>
</g>
</g>
<!-- Node23&#45;&gt;Node6 -->
<g id="edge42_Node000023_Node000006" class="edge">
<title>Node23&#45;&gt;Node6</title>
<g id="a_edge42_Node000023_Node000006"><a xlink:title=" ">
<path fill="none" stroke="#63b8ff" d="M602.58,-165.31C561.63,-146.32 466.61,-102.27 417.98,-79.72"/>
<polygon fill="#63b8ff" stroke="#63b8ff" points="419.7,-76.66 409.16,-75.63 416.76,-83.01 419.7,-76.66"/>
</a>
</g>
</g>
</g>
</svg>
