<?xml version="1.0" encoding="UTF-8" standalone="no"?>
<!DOCTYPE svg PUBLIC "-//W3C//DTD SVG 1.1//EN"
 "http://www.w3.org/Graphics/SVG/1.1/DTD/svg11.dtd">
<!-- Generated by graphviz version 12.2.0 (20241103.1931)
 -->
<!-- Title: iop/usb/usbd/src/hub.c Pages: 1 -->
<svg width="450pt" height="359pt"
 viewBox="0.00 0.00 449.79 358.75" xmlns="http://www.w3.org/2000/svg" xmlns:xlink="http://www.w3.org/1999/xlink">
<g id="graph0" class="graph" transform="scale(1 1) rotate(0) translate(4 354.75)">
<title>iop/usb/usbd/src/hub.c</title>
<!-- Node1 -->
<g id="Node000001" class="node">
<title>Node1</title>
<g id="a_Node000001"><a xlink:title=" ">
<polygon fill="#999999" stroke="#666666" points="229.54,-350.75 115.29,-350.75 115.29,-331.5 229.54,-331.5 229.54,-350.75"/>
<text text-anchor="middle" x="172.41" y="-337.25" font-family="Helvetica,sans-Serif" font-size="10.00">iop/usb/usbd/src/hub.c</text>
</a>
</g>
</g>
<!-- Node2 -->
<g id="Node000002" class="node">
<title>Node2</title>
<g id="a_Node000002"><a xlink:href="usbdpriv_8h.html" target="_top" xlink:title=" ">
<polygon fill="white" stroke="#666666" points="140.54,-240.25 80.29,-240.25 80.29,-221 140.54,-221 140.54,-240.25"/>
<text text-anchor="middle" x="110.41" y="-226.75" font-family="Helvetica,sans-Serif" font-size="10.00">usbdpriv.h</text>
</a>
</g>
</g>
<!-- Node1&#45;&gt;Node2 -->
<g id="edge1_Node000001_Node000002" class="edge">
<title>Node1&#45;&gt;Node2</title>
<g id="a_edge1_Node000001_Node000002"><a xlink:title=" ">
<path fill="none" stroke="#63b8ff" d="M115.51,-331.07C76.41,-323.55 29.45,-311.5 17.41,-295.5 -0.68,-271.46 36.43,-253.27 69.01,-242.56"/>
<polygon fill="#63b8ff" stroke="#63b8ff" points="69.84,-245.97 78.35,-239.67 67.77,-239.29 69.84,-245.97"/>
</a>
</g>
</g>
<!-- Node9 -->
<g id="Node000009" class="node">
<title>Node9</title>
<g id="a_Node000009"><a xlink:href="defs_8h.html" target="_top" xlink:title=" ">
<polygon fill="white" stroke="#666666" points="82.54,-185 40.29,-185 40.29,-165.75 82.54,-165.75 82.54,-185"/>
<text text-anchor="middle" x="61.41" y="-171.5" font-family="Helvetica,sans-Serif" font-size="10.00">defs.h</text>
</a>
</g>
</g>
<!-- Node1&#45;&gt;Node9 -->
<g id="edge18_Node000001_Node000009" class="edge">
<title>Node1&#45;&gt;Node9</title>
<g id="a_edge18_Node000001_Node000009"><a xlink:title=" ">
<path fill="none" stroke="#63b8ff" d="M114.84,-331.97C73,-324.72 21.49,-312.61 8.41,-295.5 -16.32,-263.14 19.89,-217.43 43.59,-193.12"/>
<polygon fill="#63b8ff" stroke="#63b8ff" points="45.89,-195.77 50.55,-186.25 40.97,-190.79 45.89,-195.77"/>
</a>
</g>
</g>
<!-- Node10 -->
<g id="Node000010" class="node">
<title>Node10</title>
<g id="a_Node000010"><a xlink:href="hcd_8h.html" target="_top" xlink:title=" ">
<polygon fill="white" stroke="#666666" points="131.04,-295.5 91.79,-295.5 91.79,-276.25 131.04,-276.25 131.04,-295.5"/>
<text text-anchor="middle" x="111.41" y="-282" font-family="Helvetica,sans-Serif" font-size="10.00">hcd.h</text>
</a>
</g>
</g>
<!-- Node1&#45;&gt;Node10 -->
<g id="edge11_Node000001_Node000010" class="edge">
<title>Node1&#45;&gt;Node10</title>
<g id="a_edge11_Node000001_Node000010"><a xlink:title=" ">
<path fill="none" stroke="#63b8ff" d="M162.06,-331.09C153.34,-323.47 140.62,-312.37 130.12,-303.2"/>
<polygon fill="#63b8ff" stroke="#63b8ff" points="132.58,-300.71 122.75,-296.77 127.98,-305.98 132.58,-300.71"/>
</a>
</g>
</g>
<!-- Node11 -->
<g id="Node000011" class="node">
<title>Node11</title>
<g id="a_Node000011"><a xlink:href="mem_8h.html" target="_top" xlink:title=" ">
<polygon fill="white" stroke="#666666" points="259.04,-295.5 213.79,-295.5 213.79,-276.25 259.04,-276.25 259.04,-295.5"/>
<text text-anchor="middle" x="236.41" y="-282" font-family="Helvetica,sans-Serif" font-size="10.00">mem.h</text>
</a>
</g>
</g>
<!-- Node1&#45;&gt;Node11 -->
<g id="edge13_Node000001_Node000011" class="edge">
<title>Node1&#45;&gt;Node11</title>
<g id="a_edge13_Node000001_Node000011"><a xlink:title=" ">
<path fill="none" stroke="#63b8ff" d="M183.27,-331.09C192.52,-323.4 206.04,-312.15 217.12,-302.93"/>
<polygon fill="#63b8ff" stroke="#63b8ff" points="219.1,-305.83 224.55,-296.74 214.63,-300.45 219.1,-305.83"/>
</a>
</g>
</g>
<!-- Node12 -->
<g id="Node000012" class="node">
<title>Node12</title>
<g id="a_Node000012"><a xlink:href="usbio_8h.html" target="_top" xlink:title=" ">
<polygon fill="white" stroke="#666666" points="195.79,-295.5 149.04,-295.5 149.04,-276.25 195.79,-276.25 195.79,-295.5"/>
<text text-anchor="middle" x="172.41" y="-282" font-family="Helvetica,sans-Serif" font-size="10.00">usbio.h</text>
</a>
</g>
</g>
<!-- Node1&#45;&gt;Node12 -->
<g id="edge15_Node000001_Node000012" class="edge">
<title>Node1&#45;&gt;Node12</title>
<g id="a_edge15_Node000001_Node000012"><a xlink:title=" ">
<path fill="none" stroke="#63b8ff" d="M172.41,-331.33C172.41,-324.82 172.41,-315.67 172.41,-307.37"/>
<polygon fill="#63b8ff" stroke="#63b8ff" points="175.91,-307.37 172.41,-297.37 168.91,-307.37 175.91,-307.37"/>
</a>
</g>
</g>
<!-- Node13 -->
<g id="Node000013" class="node">
<title>Node13</title>
<g id="a_Node000013"><a xlink:href="driver_8h.html" target="_top" xlink:title=" ">
<polygon fill="white" stroke="#666666" points="74.16,-295.5 26.66,-295.5 26.66,-276.25 74.16,-276.25 74.16,-295.5"/>
<text text-anchor="middle" x="50.41" y="-282" font-family="Helvetica,sans-Serif" font-size="10.00">driver.h</text>
</a>
</g>
</g>
<!-- Node1&#45;&gt;Node13 -->
<g id="edge16_Node000001_Node000013" class="edge">
<title>Node1&#45;&gt;Node13</title>
<g id="a_edge16_Node000001_Node000013"><a xlink:title=" ">
<path fill="none" stroke="#63b8ff" d="M151.72,-331.09C132.52,-322.72 103.7,-310.13 81.7,-300.53"/>
<polygon fill="#63b8ff" stroke="#63b8ff" points="83.16,-297.35 72.6,-296.56 80.36,-303.77 83.16,-297.35"/>
</a>
</g>
</g>
<!-- Node14 -->
<g id="Node000014" class="node">
<title>Node14</title>
<g id="a_Node000014"><a xlink:href="stdio_8h.html" target="_top" xlink:title=" ">
<polygon fill="white" stroke="#666666" points="322.66,-185 278.16,-185 278.16,-165.75 322.66,-165.75 322.66,-185"/>
<text text-anchor="middle" x="300.41" y="-171.5" font-family="Helvetica,sans-Serif" font-size="10.00">stdio.h</text>
</a>
</g>
</g>
<!-- Node1&#45;&gt;Node14 -->
<g id="edge19_Node000001_Node000014" class="edge">
<title>Node1&#45;&gt;Node14</title>
<g id="a_edge19_Node000001_Node000014"><a xlink:title=" ">
<path fill="none" stroke="#63b8ff" d="M228.01,-331.02C249.49,-324.65 272.26,-313.84 286.41,-295.5 308.51,-266.87 307.07,-222.27 303.86,-196.53"/>
<polygon fill="#63b8ff" stroke="#63b8ff" points="307.34,-196.15 302.4,-186.77 300.41,-197.18 307.34,-196.15"/>
</a>
</g>
</g>
<!-- Node16 -->
<g id="Node000016" class="node">
<title>Node16</title>
<g id="a_Node000016"><a xlink:href="sysclib_8h.html" target="_top" xlink:title=" ">
<polygon fill="white" stroke="#666666" points="394.16,-185 340.66,-185 340.66,-165.75 394.16,-165.75 394.16,-185"/>
<text text-anchor="middle" x="367.41" y="-171.5" font-family="Helvetica,sans-Serif" font-size="10.00">sysclib.h</text>
</a>
</g>
</g>
<!-- Node1&#45;&gt;Node16 -->
<g id="edge22_Node000001_Node000016" class="edge">
<title>Node1&#45;&gt;Node16</title>
<g id="a_edge22_Node000001_Node000016"><a xlink:title=" ">
<path fill="none" stroke="#63b8ff" d="M229.3,-331.07C254.87,-324.65 284.03,-313.78 305.41,-295.5 336.62,-268.82 354.23,-222.47 362.19,-196.14"/>
<polygon fill="#63b8ff" stroke="#63b8ff" points="365.49,-197.33 364.84,-186.75 358.75,-195.42 365.49,-197.33"/>
</a>
</g>
</g>
<!-- Node19 -->
<g id="Node000019" class="node">
<title>Node19</title>
<g id="a_Node000019"><a xlink:href="sysmem_8h.html" target="_top" xlink:title=" ">
<polygon fill="white" stroke="#666666" points="260.54,-185 200.29,-185 200.29,-165.75 260.54,-165.75 260.54,-185"/>
<text text-anchor="middle" x="230.41" y="-171.5" font-family="Helvetica,sans-Serif" font-size="10.00">sysmem.h</text>
</a>
</g>
</g>
<!-- Node1&#45;&gt;Node19 -->
<g id="edge29_Node000001_Node000019" class="edge">
<title>Node1&#45;&gt;Node19</title>
<g id="a_edge29_Node000001_Node000019"><a xlink:title=" ">
<path fill="none" stroke="#63b8ff" d="M215.86,-331.14C235.44,-324.69 256.75,-313.78 268.41,-295.5 289.04,-263.17 263.1,-218.73 245.04,-194.29"/>
<polygon fill="#63b8ff" stroke="#63b8ff" points="247.99,-192.38 239.1,-186.61 242.45,-196.66 247.99,-192.38"/>
</a>
</g>
</g>
<!-- Node3 -->
<g id="Node000003" class="node">
<title>Node3</title>
<g id="a_Node000003"><a xlink:href="usbd_8h.html" target="_top" xlink:title=" ">
<polygon fill="white" stroke="#666666" points="182.66,-185 138.16,-185 138.16,-165.75 182.66,-165.75 182.66,-185"/>
<text text-anchor="middle" x="160.41" y="-171.5" font-family="Helvetica,sans-Serif" font-size="10.00">usbd.h</text>
</a>
</g>
</g>
<!-- Node2&#45;&gt;Node3 -->
<g id="edge2_Node000002_Node000003" class="edge">
<title>Node2&#45;&gt;Node3</title>
<g id="a_edge2_Node000002_Node000003"><a xlink:title=" ">
<path fill="none" stroke="#63b8ff" d="M118.67,-220.83C125.58,-213.48 135.64,-202.76 144.15,-193.69"/>
<polygon fill="#63b8ff" stroke="#63b8ff" points="146.65,-196.15 150.94,-186.46 141.54,-191.36 146.65,-196.15"/>
</a>
</g>
</g>
<!-- Node4 -->
<g id="Node000004" class="node">
<title>Node4</title>
<g id="a_Node000004"><a xlink:title=" ">
<polygon fill="#e0e0e0" stroke="#999999" points="157.79,-129.75 111.04,-129.75 111.04,-110.5 157.79,-110.5 157.79,-129.75"/>
<text text-anchor="middle" x="134.41" y="-116.25" font-family="Helvetica,sans-Serif" font-size="10.00">types.h</text>
</a>
</g>
</g>
<!-- Node2&#45;&gt;Node4 -->
<g id="edge8_Node000002_Node000004" class="edge">
<title>Node2&#45;&gt;Node4</title>
<g id="a_edge8_Node000002_Node000004"><a xlink:title=" ">
<path fill="none" stroke="#63b8ff" d="M112.38,-220.75C116.19,-203.5 124.69,-165.08 129.95,-141.31"/>
<polygon fill="#63b8ff" stroke="#63b8ff" points="133.35,-142.12 132.09,-131.6 126.52,-140.61 133.35,-142.12"/>
</a>
</g>
</g>
<!-- Node2&#45;&gt;Node9 -->
<g id="edge9_Node000002_Node000009" class="edge">
<title>Node2&#45;&gt;Node9</title>
<g id="a_edge9_Node000002_Node000009"><a xlink:title=" ">
<path fill="none" stroke="#63b8ff" d="M102.32,-220.83C95.55,-213.48 85.69,-202.76 77.35,-193.69"/>
<polygon fill="#63b8ff" stroke="#63b8ff" points="80.05,-191.46 70.7,-186.47 74.9,-196.2 80.05,-191.46"/>
</a>
</g>
</g>
<!-- Node3&#45;&gt;Node4 -->
<g id="edge3_Node000003_Node000004" class="edge">
<title>Node3&#45;&gt;Node4</title>
<g id="a_edge3_Node000003_Node000004"><a xlink:title=" ">
<path fill="none" stroke="#63b8ff" d="M156.12,-165.58C152.79,-158.76 148.05,-149.06 143.85,-140.45"/>
<polygon fill="#63b8ff" stroke="#63b8ff" points="147,-138.92 139.46,-131.47 140.71,-141.99 147,-138.92"/>
</a>
</g>
</g>
<!-- Node5 -->
<g id="Node000005" class="node">
<title>Node5</title>
<g id="a_Node000005"><a xlink:href="irx_8h.html" target="_top" xlink:title=" ">
<polygon fill="white" stroke="#666666" points="252.04,-129.75 218.79,-129.75 218.79,-110.5 252.04,-110.5 252.04,-129.75"/>
<text text-anchor="middle" x="235.41" y="-116.25" font-family="Helvetica,sans-Serif" font-size="10.00">irx.h</text>
</a>
</g>
</g>
<!-- Node3&#45;&gt;Node5 -->
<g id="edge4_Node000003_Node000005" class="edge">
<title>Node3&#45;&gt;Node5</title>
<g id="a_edge4_Node000003_Node000005"><a xlink:title=" ">
<path fill="none" stroke="#63b8ff" d="M173.14,-165.34C184.13,-157.54 200.25,-146.09 213.34,-136.79"/>
<polygon fill="#63b8ff" stroke="#63b8ff" points="215.27,-139.72 221.39,-131.08 211.21,-134.01 215.27,-139.72"/>
</a>
</g>
</g>
<!-- Node6 -->
<g id="Node000006" class="node">
<title>Node6</title>
<g id="a_Node000006"><a xlink:href="iop_2kernel_2include_2types_8h_source.html" target="_top" xlink:title=" ">
<polygon fill="white" stroke="#666666" points="258.79,-74.5 212.04,-74.5 212.04,-55.25 258.79,-55.25 258.79,-74.5"/>
<text text-anchor="middle" x="235.41" y="-61" font-family="Helvetica,sans-Serif" font-size="10.00">types.h</text>
</a>
</g>
</g>
<!-- Node5&#45;&gt;Node6 -->
<g id="edge5_Node000005_Node000006" class="edge">
<title>Node5&#45;&gt;Node6</title>
<g id="a_edge5_Node000005_Node000006"><a xlink:title=" ">
<path fill="none" stroke="#63b8ff" d="M235.41,-110.33C235.41,-103.82 235.41,-94.67 235.41,-86.37"/>
<polygon fill="#63b8ff" stroke="#63b8ff" points="238.91,-86.37 235.41,-76.37 231.91,-86.37 238.91,-86.37"/>
</a>
</g>
</g>
<!-- Node7 -->
<g id="Node000007" class="node">
<title>Node7</title>
<g id="a_Node000007"><a xlink:title=" ">
<polygon fill="#e0e0e0" stroke="#999999" points="260.66,-19.25 210.16,-19.25 210.16,0 260.66,0 260.66,-19.25"/>
<text text-anchor="middle" x="235.41" y="-5.75" font-family="Helvetica,sans-Serif" font-size="10.00">stddef.h</text>
</a>
</g>
</g>
<!-- Node6&#45;&gt;Node7 -->
<g id="edge6_Node000006_Node000007" class="edge">
<title>Node6&#45;&gt;Node7</title>
<g id="a_edge6_Node000006_Node000007"><a xlink:title=" ">
<path fill="none" stroke="#63b8ff" d="M235.41,-55.08C235.41,-48.57 235.41,-39.42 235.41,-31.12"/>
<polygon fill="#63b8ff" stroke="#63b8ff" points="238.91,-31.12 235.41,-21.12 231.91,-31.12 238.91,-31.12"/>
</a>
</g>
</g>
<!-- Node8 -->
<g id="Node000008" class="node">
<title>Node8</title>
<g id="a_Node000008"><a xlink:href="tamtypes_8h.html" target="_top" xlink:title=" ">
<polygon fill="white" stroke="#666666" points="412.04,-19.25 348.79,-19.25 348.79,0 412.04,0 412.04,-19.25"/>
<text text-anchor="middle" x="380.41" y="-5.75" font-family="Helvetica,sans-Serif" font-size="10.00">tamtypes.h</text>
</a>
</g>
</g>
<!-- Node6&#45;&gt;Node8 -->
<g id="edge7_Node000006_Node000008" class="edge">
<title>Node6&#45;&gt;Node8</title>
<g id="a_edge7_Node000006_Node000008"><a xlink:title=" ">
<path fill="none" stroke="#63b8ff" d="M259.03,-55.2C282.45,-46.6 318.6,-33.33 345.36,-23.5"/>
<polygon fill="#63b8ff" stroke="#63b8ff" points="346.23,-26.91 354.41,-20.17 343.82,-20.34 346.23,-26.91"/>
</a>
</g>
</g>
<!-- Node9&#45;&gt;Node6 -->
<g id="edge10_Node000009_Node000006" class="edge">
<title>Node9&#45;&gt;Node6</title>
<g id="a_edge10_Node000009_Node000006"><a xlink:title=" ">
<path fill="none" stroke="#63b8ff" d="M64.78,-165.6C70.47,-151.88 83.29,-125.4 102.41,-110.5 131.2,-88.07 171.86,-76.61 200.63,-70.96"/>
<polygon fill="#63b8ff" stroke="#63b8ff" points="201.07,-74.44 210.29,-69.21 199.82,-67.55 201.07,-74.44"/>
</a>
</g>
</g>
<!-- Node10&#45;&gt;Node2 -->
<g id="edge12_Node000010_Node000002" class="edge">
<title>Node10&#45;&gt;Node2</title>
<g id="a_edge12_Node000010_Node000002"><a xlink:title=" ">
<path fill="none" stroke="#63b8ff" d="M111.25,-276.08C111.13,-269.57 110.95,-260.42 110.8,-252.12"/>
<polygon fill="#63b8ff" stroke="#63b8ff" points="114.3,-252.05 110.61,-242.12 107.3,-252.19 114.3,-252.05"/>
</a>
</g>
</g>
<!-- Node11&#45;&gt;Node2 -->
<g id="edge14_Node000011_Node000002" class="edge">
<title>Node11&#45;&gt;Node2</title>
<g id="a_edge14_Node000011_Node000002"><a xlink:title=" ">
<path fill="none" stroke="#63b8ff" d="M215.04,-275.84C195.13,-267.43 165.17,-254.77 142.41,-245.15"/>
<polygon fill="#63b8ff" stroke="#63b8ff" points="143.86,-241.96 133.29,-241.29 141.13,-248.41 143.86,-241.96"/>
</a>
</g>
</g>
<!-- Node13&#45;&gt;Node2 -->
<g id="edge17_Node000013_Node000002" class="edge">
<title>Node13&#45;&gt;Node2</title>
<g id="a_edge17_Node000013_Node000002"><a xlink:title=" ">
<path fill="none" stroke="#63b8ff" d="M60.59,-275.84C69.18,-268.22 81.68,-257.12 92.02,-247.95"/>
<polygon fill="#63b8ff" stroke="#63b8ff" points="94.1,-250.79 99.25,-241.53 89.45,-245.55 94.1,-250.79"/>
</a>
</g>
</g>
<!-- Node14&#45;&gt;Node5 -->
<g id="edge21_Node000014_Node000005" class="edge">
<title>Node14&#45;&gt;Node5</title>
<g id="a_edge21_Node000014_Node000005"><a xlink:title=" ">
<path fill="none" stroke="#63b8ff" d="M289.39,-165.34C279.99,-157.65 266.26,-146.4 255,-137.18"/>
<polygon fill="#63b8ff" stroke="#63b8ff" points="257.4,-134.61 247.45,-130.98 252.96,-140.03 257.4,-134.61"/>
</a>
</g>
</g>
<!-- Node15 -->
<g id="Node000015" class="node">
<title>Node15</title>
<g id="a_Node000015"><a xlink:title=" ">
<polygon fill="#e0e0e0" stroke="#999999" points="320.66,-129.75 270.16,-129.75 270.16,-110.5 320.66,-110.5 320.66,-129.75"/>
<text text-anchor="middle" x="295.41" y="-116.25" font-family="Helvetica,sans-Serif" font-size="10.00">stdarg.h</text>
</a>
</g>
</g>
<!-- Node14&#45;&gt;Node15 -->
<g id="edge20_Node000014_Node000015" class="edge">
<title>Node14&#45;&gt;Node15</title>
<g id="a_edge20_Node000014_Node000015"><a xlink:title=" ">
<path fill="none" stroke="#63b8ff" d="M299.59,-165.58C298.97,-158.99 298.1,-149.71 297.31,-141.32"/>
<polygon fill="#63b8ff" stroke="#63b8ff" points="300.82,-141.25 296.4,-131.62 293.85,-141.9 300.82,-141.25"/>
</a>
</g>
</g>
<!-- Node16&#45;&gt;Node5 -->
<g id="edge24_Node000016_Node000005" class="edge">
<title>Node16&#45;&gt;Node5</title>
<g id="a_edge24_Node000016_Node000005"><a xlink:title=" ">
<path fill="none" stroke="#63b8ff" d="M345.02,-165.34C322.41,-156.22 287.46,-142.12 263.12,-132.3"/>
<polygon fill="#63b8ff" stroke="#63b8ff" points="264.43,-129.06 253.85,-128.56 261.81,-135.55 264.43,-129.06"/>
</a>
</g>
</g>
<!-- Node16&#45;&gt;Node6 -->
<g id="edge23_Node000016_Node000006" class="edge">
<title>Node16&#45;&gt;Node6</title>
<g id="a_edge23_Node000016_Node000006"><a xlink:title=" ">
<path fill="none" stroke="#63b8ff" d="M376.6,-165.4C388.84,-152.33 407.5,-127.77 394.41,-110.5 379.45,-90.76 312.27,-77.34 270.17,-70.7"/>
<polygon fill="#63b8ff" stroke="#63b8ff" points="270.93,-67.28 260.52,-69.24 269.88,-74.2 270.93,-67.28"/>
</a>
</g>
</g>
<!-- Node16&#45;&gt;Node15 -->
<g id="edge25_Node000016_Node000015" class="edge">
<title>Node16&#45;&gt;Node15</title>
<g id="a_edge25_Node000016_Node000015"><a xlink:title=" ">
<path fill="none" stroke="#63b8ff" d="M355.2,-165.34C344.58,-157.49 328.98,-145.95 316.37,-136.62"/>
<polygon fill="#63b8ff" stroke="#63b8ff" points="318.78,-134.06 308.66,-130.92 314.62,-139.69 318.78,-134.06"/>
</a>
</g>
</g>
<!-- Node17 -->
<g id="Node000017" class="node">
<title>Node17</title>
<g id="a_Node000017"><a xlink:href="setjmp_8h.html" target="_top" xlink:title=" ">
<polygon fill="white" stroke="#666666" points="441.79,-74.5 389.04,-74.5 389.04,-55.25 441.79,-55.25 441.79,-74.5"/>
<text text-anchor="middle" x="415.41" y="-61" font-family="Helvetica,sans-Serif" font-size="10.00">setjmp.h</text>
</a>
</g>
</g>
<!-- Node16&#45;&gt;Node17 -->
<g id="edge26_Node000016_Node000017" class="edge">
<title>Node16&#45;&gt;Node17</title>
<g id="a_edge26_Node000016_Node000017"><a xlink:title=" ">
<path fill="none" stroke="#63b8ff" d="M387.88,-165.35C401.83,-157.98 419.19,-146.11 427.41,-129.75 434.47,-115.71 430.3,-98.05 425.03,-84.86"/>
<polygon fill="#63b8ff" stroke="#63b8ff" points="428.32,-83.65 421,-76 421.95,-86.55 428.32,-83.65"/>
</a>
</g>
</g>
<!-- Node18 -->
<g id="Node000018" class="node">
<title>Node18</title>
<g id="a_Node000018"><a xlink:href="ctype_8h.html" target="_top" xlink:title=" ">
<polygon fill="white" stroke="#666666" points="385.79,-129.75 339.04,-129.75 339.04,-110.5 385.79,-110.5 385.79,-129.75"/>
<text text-anchor="middle" x="362.41" y="-116.25" font-family="Helvetica,sans-Serif" font-size="10.00">ctype.h</text>
</a>
</g>
</g>
<!-- Node16&#45;&gt;Node18 -->
<g id="edge28_Node000016_Node000018" class="edge">
<title>Node16&#45;&gt;Node18</title>
<g id="a_edge28_Node000016_Node000018"><a xlink:title=" ">
<path fill="none" stroke="#63b8ff" d="M366.59,-165.58C365.97,-158.99 365.1,-149.71 364.31,-141.32"/>
<polygon fill="#63b8ff" stroke="#63b8ff" points="367.82,-141.25 363.4,-131.62 360.85,-141.9 367.82,-141.25"/>
</a>
</g>
</g>
<!-- Node17&#45;&gt;Node8 -->
<g id="edge27_Node000017_Node000008" class="edge">
<title>Node17&#45;&gt;Node8</title>
<g id="a_edge27_Node000017_Node000008"><a xlink:title=" ">
<path fill="none" stroke="#63b8ff" d="M409.63,-55.08C405,-48.03 398.34,-37.9 392.55,-29.08"/>
<polygon fill="#63b8ff" stroke="#63b8ff" points="395.57,-27.31 387.15,-20.87 389.72,-31.15 395.57,-27.31"/>
</a>
</g>
</g>
<!-- Node19&#45;&gt;Node5 -->
<g id="edge31_Node000019_Node000005" class="edge">
<title>Node19&#45;&gt;Node5</title>
<g id="a_edge31_Node000019_Node000005"><a xlink:title=" ">
<path fill="none" stroke="#63b8ff" d="M231.24,-165.58C231.86,-158.99 232.73,-149.71 233.52,-141.32"/>
<polygon fill="#63b8ff" stroke="#63b8ff" points="236.98,-141.9 234.43,-131.62 230.01,-141.25 236.98,-141.9"/>
</a>
</g>
</g>
<!-- Node19&#45;&gt;Node6 -->
<g id="edge30_Node000019_Node000006" class="edge">
<title>Node19&#45;&gt;Node6</title>
<g id="a_edge30_Node000019_Node000006"><a xlink:title=" ">
<path fill="none" stroke="#63b8ff" d="M223.97,-165.37C215.99,-153.09 204.06,-130.33 209.41,-110.5 211.92,-101.22 216.89,-91.88 221.82,-84.16"/>
<polygon fill="#63b8ff" stroke="#63b8ff" points="224.62,-86.27 227.42,-76.05 218.86,-82.29 224.62,-86.27"/>
</a>
</g>
</g>
<!-- Node19&#45;&gt;Node15 -->
<g id="edge32_Node000019_Node000015" class="edge">
<title>Node19&#45;&gt;Node15</title>
<g id="a_edge32_Node000019_Node000015"><a xlink:title=" ">
<path fill="none" stroke="#63b8ff" d="M241.44,-165.34C250.83,-157.65 264.56,-146.4 275.82,-137.18"/>
<polygon fill="#63b8ff" stroke="#63b8ff" points="277.86,-140.03 283.38,-130.98 273.42,-134.61 277.86,-140.03"/>
</a>
</g>
</g>
</g>
</svg>
