<?xml version="1.0" encoding="UTF-8" standalone="no"?>
<!DOCTYPE svg PUBLIC "-//W3C//DTD SVG 1.1//EN"
 "http://www.w3.org/Graphics/SVG/1.1/DTD/svg11.dtd">
<!-- Generated by graphviz version 12.2.0 (20241103.1931)
 -->
<!-- Title: ee/iopreboot/src/imgdrv/src/imgdrv.c Pages: 1 -->
<svg width="313pt" height="260pt"
 viewBox="0.00 0.00 313.25 259.50" xmlns="http://www.w3.org/2000/svg" xmlns:xlink="http://www.w3.org/1999/xlink">

<svg id="main" version="1.1" xmlns="http://www.w3.org/2000/svg" xmlns:xlink="http://www.w3.org/1999/xlink" xml:space="preserve">

<style type="text/css"><![CDATA[
.node, .edge {opacity: 0.7;}
.node.selected, .edge.selected {opacity: 1;}
.edge:hover path { stroke: red; }
.edge:hover polygon { stroke: red; fill: red; }
]]></style>
<script type="application/ecmascript" xlink:href="svg.min.js"/>
<svg id="graph" class="graph">
<g id="graph0" class="graph" transform="scale(1 1) rotate(0) translate(4 255.5)">
<title>ee/iopreboot/src/imgdrv/src/imgdrv.c</title>
<!-- Node1 -->
<g id="Node000001" class="node">
<title>Node1</title>
<g id="a_Node000001"><a xlink:title=" ">
<polygon fill="#999999" stroke="#666666" points="237.62,-251.5 119.62,-251.5 119.62,-221 237.62,-221 237.62,-251.5"/>
<text text-anchor="start" x="127.62" y="-238" font-family="Helvetica,sans-Serif" font-size="10.00">ee/iopreboot/src/imgdrv</text>
<text text-anchor="middle" x="178.62" y="-226.75" font-family="Helvetica,sans-Serif" font-size="10.00">/src/imgdrv.c</text>
</a>
</g>
</g>
<!-- Node2 -->
<g id="Node000002" class="node">
<title>Node2</title>
<g id="a_Node000002"><a xlink:href="ioman_8h.html" target="_top" xlink:title=" ">
<polygon fill="white" stroke="#666666" points="130.5,-185 80.75,-185 80.75,-165.75 130.5,-165.75 130.5,-185"/>
<text text-anchor="middle" x="105.62" y="-171.5" font-family="Helvetica,sans-Serif" font-size="10.00">ioman.h</text>
</a>
</g>
</g>
<!-- Node1&#45;&gt;Node2 -->
<g id="edge1_Node000001_Node000002" class="edge">
<title>Node1&#45;&gt;Node2</title>
<g id="a_edge1_Node000001_Node000002"><a xlink:title=" ">
<path fill="none" stroke="#63b8ff" d="M160.58,-220.7C150,-212.16 136.61,-201.37 125.7,-192.56"/>
<polygon fill="#63b8ff" stroke="#63b8ff" points="128.04,-189.95 118.06,-186.4 123.64,-195.4 128.04,-189.95"/>
</a>
</g>
</g>
<!-- Node5 -->
<g id="Node000005" class="node">
<title>Node5</title>
<g id="a_Node000005"><a xlink:href="irx_8h.html" target="_top" xlink:title=" ">
<polygon fill="white" stroke="#666666" points="253.25,-129.75 220,-129.75 220,-110.5 253.25,-110.5 253.25,-129.75"/>
<text text-anchor="middle" x="236.62" y="-116.25" font-family="Helvetica,sans-Serif" font-size="10.00">irx.h</text>
</a>
</g>
</g>
<!-- Node1&#45;&gt;Node5 -->
<g id="edge11_Node000001_Node000005" class="edge">
<title>Node1&#45;&gt;Node5</title>
<g id="a_edge11_Node000001_Node000005"><a xlink:title=" ">
<path fill="none" stroke="#63b8ff" d="M192.15,-220.86C200.49,-211.31 210.86,-198.16 217.62,-185 224.76,-171.12 229.65,-154.13 232.68,-141.17"/>
<polygon fill="#63b8ff" stroke="#63b8ff" points="236.04,-142.19 234.71,-131.68 229.19,-140.72 236.04,-142.19"/>
</a>
</g>
</g>
<!-- Node12 -->
<g id="Node000012" class="node">
<title>Node12</title>
<g id="a_Node000012"><a xlink:href="loadcore_8h.html" target="_top" xlink:title=" ">
<polygon fill="white" stroke="#666666" points="208.75,-185 148.5,-185 148.5,-165.75 208.75,-165.75 208.75,-185"/>
<text text-anchor="middle" x="178.62" y="-171.5" font-family="Helvetica,sans-Serif" font-size="10.00">loadcore.h</text>
</a>
</g>
</g>
<!-- Node1&#45;&gt;Node12 -->
<g id="edge12_Node000001_Node000012" class="edge">
<title>Node1&#45;&gt;Node12</title>
<g id="a_edge12_Node000001_Node000012"><a xlink:title=" ">
<path fill="none" stroke="#63b8ff" d="M178.62,-220.7C178.62,-213.46 178.62,-204.59 178.62,-196.69"/>
<polygon fill="#63b8ff" stroke="#63b8ff" points="182.13,-196.96 178.63,-186.96 175.13,-196.96 182.13,-196.96"/>
</a>
</g>
</g>
<!-- Node3 -->
<g id="Node000003" class="node">
<title>Node3</title>
<g id="a_Node000003"><a xlink:href="errno_8h.html" target="_top" xlink:title=" ">
<polygon fill="white" stroke="#666666" points="45.25,-129.75 0,-129.75 0,-110.5 45.25,-110.5 45.25,-129.75"/>
<text text-anchor="middle" x="22.62" y="-116.25" font-family="Helvetica,sans-Serif" font-size="10.00">errno.h</text>
</a>
</g>
</g>
<!-- Node2&#45;&gt;Node3 -->
<g id="edge2_Node000002_Node000003" class="edge">
<title>Node2&#45;&gt;Node3</title>
<g id="a_edge2_Node000002_Node000003"><a xlink:title=" ">
<path fill="none" stroke="#63b8ff" d="M91.55,-165.34C79.14,-157.39 60.83,-145.64 46.2,-136.25"/>
<polygon fill="#63b8ff" stroke="#63b8ff" points="48.35,-133.47 38.05,-131.02 44.57,-139.37 48.35,-133.47"/>
</a>
</g>
</g>
<!-- Node4 -->
<g id="Node000004" class="node">
<title>Node4</title>
<g id="a_Node000004"><a xlink:title=" ">
<polygon fill="#e0e0e0" stroke="#999999" points="202,-129.75 155.25,-129.75 155.25,-110.5 202,-110.5 202,-129.75"/>
<text text-anchor="middle" x="178.62" y="-116.25" font-family="Helvetica,sans-Serif" font-size="10.00">types.h</text>
</a>
</g>
</g>
<!-- Node2&#45;&gt;Node4 -->
<g id="edge3_Node000002_Node000004" class="edge">
<title>Node2&#45;&gt;Node4</title>
<g id="a_edge3_Node000002_Node000004"><a xlink:title=" ">
<path fill="none" stroke="#63b8ff" d="M118.01,-165.34C128.77,-157.49 144.6,-145.95 157.38,-136.62"/>
<polygon fill="#63b8ff" stroke="#63b8ff" points="159.19,-139.64 165.2,-130.92 155.06,-133.98 159.19,-139.64"/>
</a>
</g>
</g>
<!-- Node2&#45;&gt;Node5 -->
<g id="edge4_Node000002_Node000005" class="edge">
<title>Node2&#45;&gt;Node5</title>
<g id="a_edge4_Node000002_Node000005"><a xlink:title=" ">
<path fill="none" stroke="#63b8ff" d="M127.85,-165.34C150.28,-156.22 184.98,-142.12 209.13,-132.3"/>
<polygon fill="#63b8ff" stroke="#63b8ff" points="210.37,-135.57 218.32,-128.57 207.74,-129.09 210.37,-135.57"/>
</a>
</g>
</g>
<!-- Node9 -->
<g id="Node000009" class="node">
<title>Node9</title>
<g id="a_Node000009"><a xlink:href="io__common_8h.html" target="_top" xlink:title=" ">
<polygon fill="white" stroke="#666666" points="137.5,-129.75 63.75,-129.75 63.75,-110.5 137.5,-110.5 137.5,-129.75"/>
<text text-anchor="middle" x="100.62" y="-116.25" font-family="Helvetica,sans-Serif" font-size="10.00">io_common.h</text>
</a>
</g>
</g>
<!-- Node2&#45;&gt;Node9 -->
<g id="edge8_Node000002_Node000009" class="edge">
<title>Node2&#45;&gt;Node9</title>
<g id="a_edge8_Node000002_Node000009"><a xlink:title=" ">
<path fill="none" stroke="#63b8ff" d="M104.8,-165.58C104.18,-158.99 103.31,-149.71 102.52,-141.32"/>
<polygon fill="#63b8ff" stroke="#63b8ff" points="106.03,-141.25 101.61,-131.62 99.06,-141.9 106.03,-141.25"/>
</a>
</g>
</g>
<!-- Node6 -->
<g id="Node000006" class="node">
<title>Node6</title>
<g id="a_Node000006"><a xlink:href="iop_2kernel_2include_2types_8h_source.html" target="_top" xlink:title=" ">
<polygon fill="white" stroke="#666666" points="260,-74.5 213.25,-74.5 213.25,-55.25 260,-55.25 260,-74.5"/>
<text text-anchor="middle" x="236.62" y="-61" font-family="Helvetica,sans-Serif" font-size="10.00">types.h</text>
</a>
</g>
</g>
<!-- Node5&#45;&gt;Node6 -->
<g id="edge5_Node000005_Node000006" class="edge">
<title>Node5&#45;&gt;Node6</title>
<g id="a_edge5_Node000005_Node000006"><a xlink:title=" ">
<path fill="none" stroke="#63b8ff" d="M236.62,-110.33C236.62,-103.82 236.62,-94.67 236.62,-86.37"/>
<polygon fill="#63b8ff" stroke="#63b8ff" points="240.13,-86.37 236.63,-76.37 233.13,-86.37 240.13,-86.37"/>
</a>
</g>
</g>
<!-- Node7 -->
<g id="Node000007" class="node">
<title>Node7</title>
<g id="a_Node000007"><a xlink:title=" ">
<polygon fill="#e0e0e0" stroke="#999999" points="223.88,-19.25 173.38,-19.25 173.38,0 223.88,0 223.88,-19.25"/>
<text text-anchor="middle" x="198.62" y="-5.75" font-family="Helvetica,sans-Serif" font-size="10.00">stddef.h</text>
</a>
</g>
</g>
<!-- Node6&#45;&gt;Node7 -->
<g id="edge6_Node000006_Node000007" class="edge">
<title>Node6&#45;&gt;Node7</title>
<g id="a_edge6_Node000006_Node000007"><a xlink:title=" ">
<path fill="none" stroke="#63b8ff" d="M230.35,-55.08C225.27,-47.96 217.93,-37.68 211.59,-28.8"/>
<polygon fill="#63b8ff" stroke="#63b8ff" points="214.57,-26.95 205.92,-20.84 208.88,-31.01 214.57,-26.95"/>
</a>
</g>
</g>
<!-- Node8 -->
<g id="Node000008" class="node">
<title>Node8</title>
<g id="a_Node000008"><a xlink:href="tamtypes_8h.html" target="_top" xlink:title=" ">
<polygon fill="white" stroke="#666666" points="305.25,-19.25 242,-19.25 242,0 305.25,0 305.25,-19.25"/>
<text text-anchor="middle" x="273.62" y="-5.75" font-family="Helvetica,sans-Serif" font-size="10.00">tamtypes.h</text>
</a>
</g>
</g>
<!-- Node6&#45;&gt;Node8 -->
<g id="edge7_Node000006_Node000008" class="edge">
<title>Node6&#45;&gt;Node8</title>
<g id="a_edge7_Node000006_Node000008"><a xlink:title=" ">
<path fill="none" stroke="#63b8ff" d="M242.73,-55.08C247.69,-47.96 254.83,-37.68 261,-28.8"/>
<polygon fill="#63b8ff" stroke="#63b8ff" points="263.69,-31.06 266.52,-20.85 257.94,-27.07 263.69,-31.06"/>
</a>
</g>
</g>
<!-- Node10 -->
<g id="Node000010" class="node">
<title>Node10</title>
<g id="a_Node000010"><a xlink:href="fcntl_8h_source.html" target="_top" xlink:title=" ">
<polygon fill="white" stroke="#666666" points="78.75,-74.5 18.5,-74.5 18.5,-55.25 78.75,-55.25 78.75,-74.5"/>
<text text-anchor="middle" x="48.62" y="-61" font-family="Helvetica,sans-Serif" font-size="10.00">sys/fcntl.h</text>
</a>
</g>
</g>
<!-- Node9&#45;&gt;Node10 -->
<g id="edge9_Node000009_Node000010" class="edge">
<title>Node9&#45;&gt;Node10</title>
<g id="a_edge9_Node000009_Node000010"><a xlink:title=" ">
<path fill="none" stroke="#63b8ff" d="M92.04,-110.33C84.78,-102.9 74.17,-92.04 65.26,-82.91"/>
<polygon fill="#63b8ff" stroke="#63b8ff" points="67.95,-80.65 58.46,-75.94 62.94,-85.54 67.95,-80.65"/>
</a>
</g>
</g>
<!-- Node11 -->
<g id="Node000011" class="node">
<title>Node11</title>
<g id="a_Node000011"><a xlink:href="unistd_8h_source.html" target="_top" xlink:title=" ">
<polygon fill="white" stroke="#666666" points="164.5,-74.5 96.75,-74.5 96.75,-55.25 164.5,-55.25 164.5,-74.5"/>
<text text-anchor="middle" x="130.62" y="-61" font-family="Helvetica,sans-Serif" font-size="10.00">sys/unistd.h</text>
</a>
</g>
</g>
<!-- Node9&#45;&gt;Node11 -->
<g id="edge10_Node000009_Node000011" class="edge">
<title>Node9&#45;&gt;Node11</title>
<g id="a_edge10_Node000009_Node000011"><a xlink:title=" ">
<path fill="none" stroke="#63b8ff" d="M105.58,-110.33C109.51,-103.36 115.14,-93.37 120.06,-84.62"/>
<polygon fill="#63b8ff" stroke="#63b8ff" points="122.96,-86.61 124.82,-76.18 116.86,-83.17 122.96,-86.61"/>
</a>
</g>
</g>
<!-- Node12&#45;&gt;Node4 -->
<g id="edge13_Node000012_Node000004" class="edge">
<title>Node12&#45;&gt;Node4</title>
<g id="a_edge13_Node000012_Node000004"><a xlink:title=" ">
<path fill="none" stroke="#63b8ff" d="M178.62,-165.58C178.62,-159.07 178.62,-149.92 178.62,-141.62"/>
<polygon fill="#63b8ff" stroke="#63b8ff" points="182.13,-141.62 178.63,-131.62 175.13,-141.62 182.13,-141.62"/>
</a>
</g>
</g>
<!-- Node12&#45;&gt;Node5 -->
<g id="edge14_Node000012_Node000005" class="edge">
<title>Node12&#45;&gt;Node5</title>
<g id="a_edge14_Node000012_Node000005"><a xlink:title=" ">
<path fill="none" stroke="#63b8ff" d="M188.46,-165.34C196.68,-157.8 208.61,-146.85 218.54,-137.73"/>
<polygon fill="#63b8ff" stroke="#63b8ff" points="220.82,-140.39 225.82,-131.05 216.08,-135.23 220.82,-140.39"/>
</a>
</g>
</g>
</g>
</svg>
</svg>

<style type='text/css'>
<![CDATA[
[data-mouse-over-selected='false'] { opacity: 0.7; }
[data-mouse-over-selected='true']  { opacity: 1.0; }
]]>
</style>
<script type="application/ecmascript"><![CDATA[
document.addEventListener('DOMContentLoaded', (event) => {
  highlightEdges();
  highlightAdjacentNodes();
});
]]></script>
</svg>
