<?xml version="1.0" encoding="UTF-8" standalone="no"?>
<!DOCTYPE svg PUBLIC "-//W3C//DTD SVG 1.1//EN"
 "http://www.w3.org/Graphics/SVG/1.1/DTD/svg11.dtd">
<!-- Generated by graphviz version 12.2.0 (20241103.1931)
 -->
<!-- Title: ee/kernel/src/initsys.c Pages: 1 -->
<svg width="340pt" height="304pt"
 viewBox="0.00 0.00 339.77 303.50" xmlns="http://www.w3.org/2000/svg" xmlns:xlink="http://www.w3.org/1999/xlink">
<g id="graph0" class="graph" transform="scale(1 1) rotate(0) translate(4 299.5)">
<title>ee/kernel/src/initsys.c</title>
<!-- Node1 -->
<g id="Node000001" class="node">
<title>Node1</title>
<g id="a_Node000001"><a xlink:title=" ">
<polygon fill="#999999" stroke="#666666" points="252.17,-295.5 141.67,-295.5 141.67,-276.25 252.17,-276.25 252.17,-295.5"/>
<text text-anchor="middle" x="196.92" y="-282" font-family="Helvetica,sans-Serif" font-size="10.00">ee/kernel/src/initsys.c</text>
</a>
</g>
</g>
<!-- Node2 -->
<g id="Node000002" class="node">
<title>Node2</title>
<g id="a_Node000002"><a xlink:href="kernel_8h.html" target="_top" xlink:title=" ">
<polygon fill="white" stroke="#666666" points="57.8,-185 8.05,-185 8.05,-165.75 57.8,-165.75 57.8,-185"/>
<text text-anchor="middle" x="32.92" y="-171.5" font-family="Helvetica,sans-Serif" font-size="10.00">kernel.h</text>
</a>
</g>
</g>
<!-- Node1&#45;&gt;Node2 -->
<g id="edge1_Node000001_Node000002" class="edge">
<title>Node1&#45;&gt;Node2</title>
<g id="a_edge1_Node000001_Node000002"><a xlink:title=" ">
<path fill="none" stroke="#63b8ff" d="M183.22,-275.81C155.05,-257.18 90.39,-214.4 55.78,-191.5"/>
<polygon fill="#63b8ff" stroke="#63b8ff" points="58,-188.77 47.73,-186.17 54.14,-194.61 58,-188.77"/>
</a>
</g>
</g>
<!-- Node7 -->
<g id="Node000007" class="node">
<title>Node7</title>
<g id="a_Node000007"><a xlink:href="timer_8h.html" target="_top" xlink:title=" ">
<polygon fill="white" stroke="#666666" points="311.55,-185 266.3,-185 266.3,-165.75 311.55,-165.75 311.55,-185"/>
<text text-anchor="middle" x="288.92" y="-171.5" font-family="Helvetica,sans-Serif" font-size="10.00">timer.h</text>
</a>
</g>
</g>
<!-- Node1&#45;&gt;Node7 -->
<g id="edge6_Node000001_Node000007" class="edge">
<title>Node1&#45;&gt;Node7</title>
<g id="a_edge6_Node000001_Node000007"><a xlink:title=" ">
<path fill="none" stroke="#63b8ff" d="M202.7,-275.83C210.99,-263.1 227.02,-239.41 242.92,-221 251.34,-211.25 261.56,-201.19 270.22,-193.1"/>
<polygon fill="#63b8ff" stroke="#63b8ff" points="272.42,-195.83 277.43,-186.49 267.69,-190.67 272.42,-195.83"/>
</a>
</g>
</g>
<!-- Node8 -->
<g id="Node000008" class="node">
<title>Node8</title>
<g id="a_Node000008"><a xlink:href="string_8h_source.html" target="_top" xlink:title=" ">
<polygon fill="white" stroke="#666666" points="189.67,-240.25 142.17,-240.25 142.17,-221 189.67,-221 189.67,-240.25"/>
<text text-anchor="middle" x="165.92" y="-226.75" font-family="Helvetica,sans-Serif" font-size="10.00">string.h</text>
</a>
</g>
</g>
<!-- Node1&#45;&gt;Node8 -->
<g id="edge8_Node000001_Node000008" class="edge">
<title>Node1&#45;&gt;Node8</title>
<g id="a_edge8_Node000001_Node000008"><a xlink:title=" ">
<path fill="none" stroke="#63b8ff" d="M191.8,-276.08C187.74,-269.11 181.93,-259.12 176.84,-250.37"/>
<polygon fill="#63b8ff" stroke="#63b8ff" points="179.97,-248.8 171.91,-241.92 173.92,-252.32 179.97,-248.8"/>
</a>
</g>
</g>
<!-- Node14 -->
<g id="Node000014" class="node">
<title>Node14</title>
<g id="a_Node000014"><a xlink:href="timer__alarm_8h_source.html" target="_top" xlink:title=" ">
<polygon fill="white" stroke="#666666" points="326.17,-240.25 251.67,-240.25 251.67,-221 326.17,-221 326.17,-240.25"/>
<text text-anchor="middle" x="288.92" y="-226.75" font-family="Helvetica,sans-Serif" font-size="10.00">timer_alarm.h</text>
</a>
</g>
</g>
<!-- Node1&#45;&gt;Node14 -->
<g id="edge19_Node000001_Node000014" class="edge">
<title>Node1&#45;&gt;Node14</title>
<g id="a_edge19_Node000001_Node000014"><a xlink:title=" ">
<path fill="none" stroke="#63b8ff" d="M212.53,-275.84C226.54,-267.73 247.36,-255.68 263.72,-246.21"/>
<polygon fill="#63b8ff" stroke="#63b8ff" points="265.03,-249.5 271.93,-241.46 261.52,-243.44 265.03,-249.5"/>
</a>
</g>
</g>
<!-- Node3 -->
<g id="Node000003" class="node">
<title>Node3</title>
<g id="a_Node000003"><a xlink:title=" ">
<polygon fill="#e0e0e0" stroke="#999999" points="82.17,-19.25 31.67,-19.25 31.67,0 82.17,0 82.17,-19.25"/>
<text text-anchor="middle" x="56.92" y="-5.75" font-family="Helvetica,sans-Serif" font-size="10.00">stddef.h</text>
</a>
</g>
</g>
<!-- Node2&#45;&gt;Node3 -->
<g id="edge2_Node000002_Node000003" class="edge">
<title>Node2&#45;&gt;Node3</title>
<g id="a_edge2_Node000002_Node000003"><a xlink:title=" ">
<path fill="none" stroke="#63b8ff" d="M27.1,-165.31C14.73,-144.86 -11.6,-93.87 5.92,-55.25 11.3,-43.4 21.56,-33.45 31.47,-25.98"/>
<polygon fill="#63b8ff" stroke="#63b8ff" points="33.22,-29.03 39.45,-20.46 29.24,-23.27 33.22,-29.03"/>
</a>
</g>
</g>
<!-- Node4 -->
<g id="Node000004" class="node">
<title>Node4</title>
<g id="a_Node000004"><a xlink:title=" ">
<polygon fill="#e0e0e0" stroke="#999999" points="84.17,-129.75 33.67,-129.75 33.67,-110.5 84.17,-110.5 84.17,-129.75"/>
<text text-anchor="middle" x="58.92" y="-116.25" font-family="Helvetica,sans-Serif" font-size="10.00">stdarg.h</text>
</a>
</g>
</g>
<!-- Node2&#45;&gt;Node4 -->
<g id="edge3_Node000002_Node000004" class="edge">
<title>Node2&#45;&gt;Node4</title>
<g id="a_edge3_Node000002_Node000004"><a xlink:title=" ">
<path fill="none" stroke="#63b8ff" d="M37.22,-165.58C40.55,-158.76 45.28,-149.06 49.49,-140.45"/>
<polygon fill="#63b8ff" stroke="#63b8ff" points="52.63,-141.99 53.87,-131.47 46.34,-138.92 52.63,-141.99"/>
</a>
</g>
</g>
<!-- Node5 -->
<g id="Node000005" class="node">
<title>Node5</title>
<g id="a_Node000005"><a xlink:href="sifdma_8h.html" target="_top" xlink:title=" ">
<polygon fill="white" stroke="#666666" points="67.3,-74.5 14.55,-74.5 14.55,-55.25 67.3,-55.25 67.3,-74.5"/>
<text text-anchor="middle" x="40.92" y="-61" font-family="Helvetica,sans-Serif" font-size="10.00">sifdma.h</text>
</a>
</g>
</g>
<!-- Node2&#45;&gt;Node5 -->
<g id="edge4_Node000002_Node000005" class="edge">
<title>Node2&#45;&gt;Node5</title>
<g id="a_edge4_Node000002_Node000005"><a xlink:title=" ">
<path fill="none" stroke="#63b8ff" d="M30.2,-165.66C26.71,-153.32 21.51,-130.1 24.92,-110.5 26.4,-101.99 29.36,-92.96 32.33,-85.27"/>
<polygon fill="#63b8ff" stroke="#63b8ff" points="35.47,-86.83 36.08,-76.25 29.01,-84.14 35.47,-86.83"/>
</a>
</g>
</g>
<!-- Node6 -->
<g id="Node000006" class="node">
<title>Node6</title>
<g id="a_Node000006"><a xlink:href="tamtypes_8h.html" target="_top" xlink:title=" ">
<polygon fill="white" stroke="#666666" points="281.55,-19.25 218.3,-19.25 218.3,0 281.55,0 281.55,-19.25"/>
<text text-anchor="middle" x="249.92" y="-5.75" font-family="Helvetica,sans-Serif" font-size="10.00">tamtypes.h</text>
</a>
</g>
</g>
<!-- Node5&#45;&gt;Node6 -->
<g id="edge5_Node000005_Node000006" class="edge">
<title>Node5&#45;&gt;Node6</title>
<g id="a_edge5_Node000005_Node000006"><a xlink:title=" ">
<path fill="none" stroke="#63b8ff" d="M67.39,-57.13C102.51,-48.18 164.93,-32.28 206.88,-21.59"/>
<polygon fill="#63b8ff" stroke="#63b8ff" points="207.56,-25.03 216.39,-19.17 205.84,-18.25 207.56,-25.03"/>
</a>
</g>
</g>
<!-- Node7&#45;&gt;Node6 -->
<g id="edge7_Node000007_Node000006" class="edge">
<title>Node7&#45;&gt;Node6</title>
<g id="a_edge7_Node000007_Node000006"><a xlink:title=" ">
<path fill="none" stroke="#63b8ff" d="M290.47,-165.35C293.56,-144.97 299.09,-94.14 284.92,-55.25 281.23,-45.12 274.3,-35.49 267.57,-27.79"/>
<polygon fill="#63b8ff" stroke="#63b8ff" points="270.14,-25.42 260.73,-20.55 265.05,-30.22 270.14,-25.42"/>
</a>
</g>
</g>
<!-- Node9 -->
<g id="Node000009" class="node">
<title>Node9</title>
<g id="a_Node000009"><a xlink:href="sysclib_8h.html" target="_top" xlink:title=" ">
<polygon fill="white" stroke="#666666" points="191.67,-185 138.17,-185 138.17,-165.75 191.67,-165.75 191.67,-185"/>
<text text-anchor="middle" x="164.92" y="-171.5" font-family="Helvetica,sans-Serif" font-size="10.00">sysclib.h</text>
</a>
</g>
</g>
<!-- Node8&#45;&gt;Node9 -->
<g id="edge9_Node000008_Node000009" class="edge">
<title>Node8&#45;&gt;Node9</title>
<g id="a_edge9_Node000008_Node000009"><a xlink:title=" ">
<path fill="none" stroke="#63b8ff" d="M165.76,-220.83C165.63,-214.32 165.46,-205.17 165.31,-196.87"/>
<polygon fill="#63b8ff" stroke="#63b8ff" points="168.81,-196.8 165.12,-186.87 161.81,-196.94 168.81,-196.8"/>
</a>
</g>
</g>
<!-- Node9&#45;&gt;Node4 -->
<g id="edge15_Node000009_Node000004" class="edge">
<title>Node9&#45;&gt;Node4</title>
<g id="a_edge15_Node000009_Node000004"><a xlink:title=" ">
<path fill="none" stroke="#63b8ff" d="M146.94,-165.34C130.57,-157.12 106.13,-144.84 87.16,-135.31"/>
<polygon fill="#63b8ff" stroke="#63b8ff" points="88.85,-132.24 78.34,-130.88 85.71,-138.5 88.85,-132.24"/>
</a>
</g>
</g>
<!-- Node10 -->
<g id="Node000010" class="node">
<title>Node10</title>
<g id="a_Node000010"><a xlink:href="iop_2kernel_2include_2types_8h_source.html" target="_top" xlink:title=" ">
<polygon fill="white" stroke="#666666" points="169.3,-74.5 122.55,-74.5 122.55,-55.25 169.3,-55.25 169.3,-74.5"/>
<text text-anchor="middle" x="145.92" y="-61" font-family="Helvetica,sans-Serif" font-size="10.00">types.h</text>
</a>
</g>
</g>
<!-- Node9&#45;&gt;Node10 -->
<g id="edge10_Node000009_Node000010" class="edge">
<title>Node9&#45;&gt;Node10</title>
<g id="a_edge10_Node000009_Node000010"><a xlink:title=" ">
<path fill="none" stroke="#63b8ff" d="M163.37,-165.5C160.35,-148.25 153.62,-109.83 149.46,-86.06"/>
<polygon fill="#63b8ff" stroke="#63b8ff" points="152.93,-85.61 147.76,-76.37 146.04,-86.82 152.93,-85.61"/>
</a>
</g>
</g>
<!-- Node11 -->
<g id="Node000011" class="node">
<title>Node11</title>
<g id="a_Node000011"><a xlink:href="irx_8h.html" target="_top" xlink:title=" ">
<polygon fill="white" stroke="#666666" points="135.55,-129.75 102.3,-129.75 102.3,-110.5 135.55,-110.5 135.55,-129.75"/>
<text text-anchor="middle" x="118.92" y="-116.25" font-family="Helvetica,sans-Serif" font-size="10.00">irx.h</text>
</a>
</g>
</g>
<!-- Node9&#45;&gt;Node11 -->
<g id="edge13_Node000009_Node000011" class="edge">
<title>Node9&#45;&gt;Node11</title>
<g id="a_edge13_Node000009_Node000011"><a xlink:title=" ">
<path fill="none" stroke="#63b8ff" d="M157.33,-165.58C151.04,-158.3 141.91,-147.73 134.13,-138.73"/>
<polygon fill="#63b8ff" stroke="#63b8ff" points="136.86,-136.53 127.67,-131.25 131.56,-141.11 136.86,-136.53"/>
</a>
</g>
</g>
<!-- Node12 -->
<g id="Node000012" class="node">
<title>Node12</title>
<g id="a_Node000012"><a xlink:href="setjmp_8h.html" target="_top" xlink:title=" ">
<polygon fill="white" stroke="#666666" points="276.3,-74.5 223.55,-74.5 223.55,-55.25 276.3,-55.25 276.3,-74.5"/>
<text text-anchor="middle" x="249.92" y="-61" font-family="Helvetica,sans-Serif" font-size="10.00">setjmp.h</text>
</a>
</g>
</g>
<!-- Node9&#45;&gt;Node12 -->
<g id="edge16_Node000009_Node000012" class="edge">
<title>Node9&#45;&gt;Node12</title>
<g id="a_edge16_Node000009_Node000012"><a xlink:title=" ">
<path fill="none" stroke="#63b8ff" d="M191.95,-167.31C210.81,-160.85 234.7,-149.25 246.92,-129.75 254.96,-116.92 255.29,-99.62 253.83,-86.27"/>
<polygon fill="#63b8ff" stroke="#63b8ff" points="257.3,-85.79 252.32,-76.44 250.38,-86.86 257.3,-85.79"/>
</a>
</g>
</g>
<!-- Node13 -->
<g id="Node000013" class="node">
<title>Node13</title>
<g id="a_Node000013"><a xlink:href="ctype_8h.html" target="_top" xlink:title=" ">
<polygon fill="white" stroke="#666666" points="238.3,-129.75 191.55,-129.75 191.55,-110.5 238.3,-110.5 238.3,-129.75"/>
<text text-anchor="middle" x="214.92" y="-116.25" font-family="Helvetica,sans-Serif" font-size="10.00">ctype.h</text>
</a>
</g>
</g>
<!-- Node9&#45;&gt;Node13 -->
<g id="edge18_Node000009_Node000013" class="edge">
<title>Node9&#45;&gt;Node13</title>
<g id="a_edge18_Node000009_Node000013"><a xlink:title=" ">
<path fill="none" stroke="#63b8ff" d="M173.18,-165.58C180.09,-158.23 190.15,-147.51 198.66,-138.44"/>
<polygon fill="#63b8ff" stroke="#63b8ff" points="201.16,-140.9 205.45,-131.21 196.05,-136.11 201.16,-140.9"/>
</a>
</g>
</g>
<!-- Node10&#45;&gt;Node3 -->
<g id="edge11_Node000010_Node000003" class="edge">
<title>Node10&#45;&gt;Node3</title>
<g id="a_edge11_Node000010_Node000003"><a xlink:title=" ">
<path fill="none" stroke="#63b8ff" d="M130.82,-54.84C117.4,-46.81 97.51,-34.91 81.75,-25.48"/>
<polygon fill="#63b8ff" stroke="#63b8ff" points="83.77,-22.61 73.39,-20.48 80.18,-28.62 83.77,-22.61"/>
</a>
</g>
</g>
<!-- Node10&#45;&gt;Node6 -->
<g id="edge12_Node000010_Node000006" class="edge">
<title>Node10&#45;&gt;Node6</title>
<g id="a_edge12_Node000010_Node000006"><a xlink:title=" ">
<path fill="none" stroke="#63b8ff" d="M163.56,-54.84C179.55,-46.66 203.38,-34.46 221.96,-24.94"/>
<polygon fill="#63b8ff" stroke="#63b8ff" points="223.54,-28.07 230.85,-20.39 220.35,-21.83 223.54,-28.07"/>
</a>
</g>
</g>
<!-- Node11&#45;&gt;Node10 -->
<g id="edge14_Node000011_Node000010" class="edge">
<title>Node11&#45;&gt;Node10</title>
<g id="a_edge14_Node000011_Node000010"><a xlink:title=" ">
<path fill="none" stroke="#63b8ff" d="M123.38,-110.33C126.88,-103.44 131.87,-93.59 136.27,-84.91"/>
<polygon fill="#63b8ff" stroke="#63b8ff" points="139.28,-86.71 140.68,-76.21 133.04,-83.55 139.28,-86.71"/>
</a>
</g>
</g>
<!-- Node12&#45;&gt;Node6 -->
<g id="edge17_Node000012_Node000006" class="edge">
<title>Node12&#45;&gt;Node6</title>
<g id="a_edge17_Node000012_Node000006"><a xlink:title=" ">
<path fill="none" stroke="#63b8ff" d="M249.92,-55.08C249.92,-48.57 249.92,-39.42 249.92,-31.12"/>
<polygon fill="#63b8ff" stroke="#63b8ff" points="253.42,-31.12 249.92,-21.12 246.42,-31.12 253.42,-31.12"/>
</a>
</g>
</g>
<!-- Node14&#45;&gt;Node6 -->
<g id="edge20_Node000014_Node000006" class="edge">
<title>Node14&#45;&gt;Node6</title>
<g id="a_edge20_Node000014_Node000006"><a xlink:title=" ">
<path fill="none" stroke="#63b8ff" d="M297.97,-220.67C305.76,-212.29 316.43,-198.98 320.92,-185 332.59,-148.71 343.1,-127.84 301.92,-55.25 295.34,-43.64 284.54,-33.64 274.49,-26.07"/>
<polygon fill="#63b8ff" stroke="#63b8ff" points="276.67,-23.32 266.48,-20.44 272.65,-29.05 276.67,-23.32"/>
</a>
</g>
</g>
<!-- Node14&#45;&gt;Node7 -->
<g id="edge21_Node000014_Node000007" class="edge">
<title>Node14&#45;&gt;Node7</title>
<g id="a_edge21_Node000014_Node000007"><a xlink:title=" ">
<path fill="none" stroke="#63b8ff" d="M288.92,-220.83C288.92,-214.32 288.92,-205.17 288.92,-196.87"/>
<polygon fill="#63b8ff" stroke="#63b8ff" points="292.42,-196.87 288.92,-186.87 285.42,-196.87 292.42,-196.87"/>
</a>
</g>
</g>
</g>
</svg>
