<?xml version="1.0" encoding="UTF-8" standalone="no"?>
<!DOCTYPE svg PUBLIC "-//W3C//DTD SVG 1.1//EN"
 "http://www.w3.org/Graphics/SVG/1.1/DTD/svg11.dtd">
<!-- Generated by graphviz version 12.2.0 (20241103.1931)
 -->
<!-- Title: iop/usb/usbd/src/interface.c Pages: 1 -->
<svg width="305pt" height="359pt"
 viewBox="0.00 0.00 304.53 358.75" xmlns="http://www.w3.org/2000/svg" xmlns:xlink="http://www.w3.org/1999/xlink">

<svg id="main" version="1.1" xmlns="http://www.w3.org/2000/svg" xmlns:xlink="http://www.w3.org/1999/xlink" xml:space="preserve">

<style type="text/css"><![CDATA[
.node, .edge {opacity: 0.7;}
.node.selected, .edge.selected {opacity: 1;}
.edge:hover path { stroke: red; }
.edge:hover polygon { stroke: red; fill: red; }
]]></style>
<script type="application/ecmascript" xlink:href="svg.min.js"/>
<svg id="graph" class="graph">
<g id="graph0" class="graph" transform="scale(1 1) rotate(0) translate(4 354.75)">
<title>iop/usb/usbd/src/interface.c</title>
<!-- Node1 -->
<g id="Node000001" class="node">
<title>Node1</title>
<g id="a_Node000001"><a xlink:title=" ">
<polygon fill="#999999" stroke="#666666" points="182.15,-350.75 46.15,-350.75 46.15,-331.5 182.15,-331.5 182.15,-350.75"/>
<text text-anchor="middle" x="114.15" y="-337.25" font-family="Helvetica,sans-Serif" font-size="10.00">iop/usb/usbd/src/interface.c</text>
</a>
</g>
</g>
<!-- Node2 -->
<g id="Node000002" class="node">
<title>Node2</title>
<g id="a_Node000002"><a xlink:href="defs_8h.html" target="_top" xlink:title=" ">
<polygon fill="white" stroke="#666666" points="49.28,-185 7.03,-185 7.03,-165.75 49.28,-165.75 49.28,-185"/>
<text text-anchor="middle" x="28.15" y="-171.5" font-family="Helvetica,sans-Serif" font-size="10.00">defs.h</text>
</a>
</g>
</g>
<!-- Node1&#45;&gt;Node2 -->
<g id="edge1_Node000001_Node000002" class="edge">
<title>Node1&#45;&gt;Node2</title>
<g id="a_edge1_Node000001_Node000002"><a xlink:title=" ">
<path fill="none" stroke="#63b8ff" d="M63.68,-331.01C43.49,-324.61 22.21,-313.79 10.15,-295.5 -10.01,-264.91 5.85,-220.41 17.87,-195.35"/>
<polygon fill="#63b8ff" stroke="#63b8ff" points="20.87,-197.18 22.3,-186.68 14.63,-194 20.87,-197.18"/>
</a>
</g>
</g>
<!-- Node6 -->
<g id="Node000006" class="node">
<title>Node6</title>
<g id="a_Node000006"><a xlink:href="thbase_8h.html" target="_top" xlink:title=" ">
<polygon fill="white" stroke="#666666" points="220.53,-185 167.78,-185 167.78,-165.75 220.53,-165.75 220.53,-185"/>
<text text-anchor="middle" x="194.15" y="-171.5" font-family="Helvetica,sans-Serif" font-size="10.00">thbase.h</text>
</a>
</g>
</g>
<!-- Node1&#45;&gt;Node6 -->
<g id="edge5_Node000001_Node000006" class="edge">
<title>Node1&#45;&gt;Node6</title>
<g id="a_edge5_Node000001_Node000006"><a xlink:title=" ">
<path fill="none" stroke="#63b8ff" d="M152.22,-331.16C171,-324.6 191.98,-313.59 203.15,-295.5 222.06,-264.86 211.19,-221 202.23,-195.94"/>
<polygon fill="#63b8ff" stroke="#63b8ff" points="205.53,-194.77 198.67,-186.69 199,-197.28 205.53,-194.77"/>
</a>
</g>
</g>
<!-- Node8 -->
<g id="Node000008" class="node">
<title>Node8</title>
<g id="a_Node000008"><a xlink:href="usbdpriv_8h.html" target="_top" xlink:title=" ">
<polygon fill="white" stroke="#666666" points="107.28,-240.25 47.03,-240.25 47.03,-221 107.28,-221 107.28,-240.25"/>
<text text-anchor="middle" x="77.15" y="-226.75" font-family="Helvetica,sans-Serif" font-size="10.00">usbdpriv.h</text>
</a>
</g>
</g>
<!-- Node1&#45;&gt;Node8 -->
<g id="edge9_Node000001_Node000008" class="edge">
<title>Node1&#45;&gt;Node8</title>
<g id="a_edge9_Node000001_Node000008"><a xlink:title=" ">
<path fill="none" stroke="#63b8ff" d="M69.51,-331.01C49.94,-324.56 28.8,-313.68 17.15,-295.5 5.02,-276.56 26.9,-258.2 47.56,-246.06"/>
<polygon fill="#63b8ff" stroke="#63b8ff" points="49.05,-249.24 56.12,-241.36 45.68,-243.1 49.05,-249.24"/>
</a>
</g>
</g>
<!-- Node11 -->
<g id="Node000011" class="node">
<title>Node11</title>
<g id="a_Node000011"><a xlink:href="driver_8h.html" target="_top" xlink:title=" ">
<polygon fill="white" stroke="#666666" points="73.9,-295.5 26.4,-295.5 26.4,-276.25 73.9,-276.25 73.9,-295.5"/>
<text text-anchor="middle" x="50.15" y="-282" font-family="Helvetica,sans-Serif" font-size="10.00">driver.h</text>
</a>
</g>
</g>
<!-- Node1&#45;&gt;Node11 -->
<g id="edge15_Node000001_Node000011" class="edge">
<title>Node1&#45;&gt;Node11</title>
<g id="a_edge15_Node000001_Node000011"><a xlink:title=" ">
<path fill="none" stroke="#63b8ff" d="M103.29,-331.09C94.04,-323.4 80.53,-312.15 69.44,-302.93"/>
<polygon fill="#63b8ff" stroke="#63b8ff" points="71.94,-300.45 62.01,-296.74 67.46,-305.83 71.94,-300.45"/>
</a>
</g>
</g>
<!-- Node12 -->
<g id="Node000012" class="node">
<title>Node12</title>
<g id="a_Node000012"><a xlink:href="mem_8h.html" target="_top" xlink:title=" ">
<polygon fill="white" stroke="#666666" points="136.78,-295.5 91.53,-295.5 91.53,-276.25 136.78,-276.25 136.78,-295.5"/>
<text text-anchor="middle" x="114.15" y="-282" font-family="Helvetica,sans-Serif" font-size="10.00">mem.h</text>
</a>
</g>
</g>
<!-- Node1&#45;&gt;Node12 -->
<g id="edge17_Node000001_Node000012" class="edge">
<title>Node1&#45;&gt;Node12</title>
<g id="a_edge17_Node000001_Node000012"><a xlink:title=" ">
<path fill="none" stroke="#63b8ff" d="M114.15,-331.33C114.15,-324.82 114.15,-315.67 114.15,-307.37"/>
<polygon fill="#63b8ff" stroke="#63b8ff" points="117.65,-307.37 114.15,-297.37 110.65,-307.37 117.65,-307.37"/>
</a>
</g>
</g>
<!-- Node13 -->
<g id="Node000013" class="node">
<title>Node13</title>
<g id="a_Node000013"><a xlink:href="hcd_8h.html" target="_top" xlink:title=" ">
<polygon fill="white" stroke="#666666" points="193.78,-295.5 154.53,-295.5 154.53,-276.25 193.78,-276.25 193.78,-295.5"/>
<text text-anchor="middle" x="174.15" y="-282" font-family="Helvetica,sans-Serif" font-size="10.00">hcd.h</text>
</a>
</g>
</g>
<!-- Node1&#45;&gt;Node13 -->
<g id="edge19_Node000001_Node000013" class="edge">
<title>Node1&#45;&gt;Node13</title>
<g id="a_edge19_Node000001_Node000013"><a xlink:title=" ">
<path fill="none" stroke="#63b8ff" d="M124.33,-331.09C132.92,-323.47 145.42,-312.37 155.75,-303.2"/>
<polygon fill="#63b8ff" stroke="#63b8ff" points="157.84,-306.04 162.99,-296.78 153.19,-300.8 157.84,-306.04"/>
</a>
</g>
</g>
<!-- Node14 -->
<g id="Node000014" class="node">
<title>Node14</title>
<g id="a_Node000014"><a xlink:href="usbio_8h.html" target="_top" xlink:title=" ">
<polygon fill="white" stroke="#666666" points="296.53,-295.5 249.78,-295.5 249.78,-276.25 296.53,-276.25 296.53,-295.5"/>
<text text-anchor="middle" x="273.15" y="-282" font-family="Helvetica,sans-Serif" font-size="10.00">usbio.h</text>
</a>
</g>
</g>
<!-- Node1&#45;&gt;Node14 -->
<g id="edge21_Node000001_Node000014" class="edge">
<title>Node1&#45;&gt;Node14</title>
<g id="a_edge21_Node000001_Node000014"><a xlink:title=" ">
<path fill="none" stroke="#63b8ff" d="M141.12,-331.09C168.07,-322.07 209.59,-308.16 238.86,-298.36"/>
<polygon fill="#63b8ff" stroke="#63b8ff" points="239.62,-301.8 247.99,-295.3 237.4,-295.16 239.62,-301.8"/>
</a>
</g>
</g>
<!-- Node3 -->
<g id="Node000003" class="node">
<title>Node3</title>
<g id="a_Node000003"><a xlink:href="iop_2kernel_2include_2types_8h_source.html" target="_top" xlink:title=" ">
<polygon fill="white" stroke="#666666" points="170.53,-74.5 123.78,-74.5 123.78,-55.25 170.53,-55.25 170.53,-74.5"/>
<text text-anchor="middle" x="147.15" y="-61" font-family="Helvetica,sans-Serif" font-size="10.00">types.h</text>
</a>
</g>
</g>
<!-- Node2&#45;&gt;Node3 -->
<g id="edge2_Node000002_Node000003" class="edge">
<title>Node2&#45;&gt;Node3</title>
<g id="a_edge2_Node000002_Node000003"><a xlink:title=" ">
<path fill="none" stroke="#63b8ff" d="M30,-165.44C33.19,-151.98 40.91,-126.41 56.15,-110.5 71.55,-94.43 93.94,-83.35 112.66,-76.25"/>
<polygon fill="#63b8ff" stroke="#63b8ff" points="113.77,-79.56 122.03,-72.93 111.44,-72.97 113.77,-79.56"/>
</a>
</g>
</g>
<!-- Node4 -->
<g id="Node000004" class="node">
<title>Node4</title>
<g id="a_Node000004"><a xlink:title=" ">
<polygon fill="#e0e0e0" stroke="#999999" points="135.4,-19.25 84.9,-19.25 84.9,0 135.4,0 135.4,-19.25"/>
<text text-anchor="middle" x="110.15" y="-5.75" font-family="Helvetica,sans-Serif" font-size="10.00">stddef.h</text>
</a>
</g>
</g>
<!-- Node3&#45;&gt;Node4 -->
<g id="edge3_Node000003_Node000004" class="edge">
<title>Node3&#45;&gt;Node4</title>
<g id="a_edge3_Node000003_Node000004"><a xlink:title=" ">
<path fill="none" stroke="#63b8ff" d="M141.04,-55.08C136.09,-47.96 128.95,-37.68 122.78,-28.8"/>
<polygon fill="#63b8ff" stroke="#63b8ff" points="125.84,-27.07 117.26,-20.85 120.09,-31.06 125.84,-27.07"/>
</a>
</g>
</g>
<!-- Node5 -->
<g id="Node000005" class="node">
<title>Node5</title>
<g id="a_Node000005"><a xlink:href="tamtypes_8h.html" target="_top" xlink:title=" ">
<polygon fill="white" stroke="#666666" points="216.78,-19.25 153.53,-19.25 153.53,0 216.78,0 216.78,-19.25"/>
<text text-anchor="middle" x="185.15" y="-5.75" font-family="Helvetica,sans-Serif" font-size="10.00">tamtypes.h</text>
</a>
</g>
</g>
<!-- Node3&#45;&gt;Node5 -->
<g id="edge4_Node000003_Node000005" class="edge">
<title>Node3&#45;&gt;Node5</title>
<g id="a_edge4_Node000003_Node000005"><a xlink:title=" ">
<path fill="none" stroke="#63b8ff" d="M153.43,-55.08C158.51,-47.96 165.85,-37.68 172.18,-28.8"/>
<polygon fill="#63b8ff" stroke="#63b8ff" points="174.9,-31.01 177.86,-20.84 169.2,-26.95 174.9,-31.01"/>
</a>
</g>
</g>
<!-- Node6&#45;&gt;Node3 -->
<g id="edge6_Node000006_Node000003" class="edge">
<title>Node6&#45;&gt;Node3</title>
<g id="a_edge6_Node000006_Node000003"><a xlink:title=" ">
<path fill="none" stroke="#63b8ff" d="M191.86,-165.48C188.5,-152.93 181.67,-129.45 173.15,-110.5 169.16,-101.62 163.87,-92.24 159.11,-84.38"/>
<polygon fill="#63b8ff" stroke="#63b8ff" points="162.19,-82.71 153.91,-76.09 156.26,-86.42 162.19,-82.71"/>
</a>
</g>
</g>
<!-- Node7 -->
<g id="Node000007" class="node">
<title>Node7</title>
<g id="a_Node000007"><a xlink:href="irx_8h.html" target="_top" xlink:title=" ">
<polygon fill="white" stroke="#666666" points="163.78,-129.75 130.53,-129.75 130.53,-110.5 163.78,-110.5 163.78,-129.75"/>
<text text-anchor="middle" x="147.15" y="-116.25" font-family="Helvetica,sans-Serif" font-size="10.00">irx.h</text>
</a>
</g>
</g>
<!-- Node6&#45;&gt;Node7 -->
<g id="edge7_Node000006_Node000007" class="edge">
<title>Node6&#45;&gt;Node7</title>
<g id="a_edge7_Node000006_Node000007"><a xlink:title=" ">
<path fill="none" stroke="#63b8ff" d="M186.39,-165.58C179.97,-158.3 170.64,-147.73 162.69,-138.73"/>
<polygon fill="#63b8ff" stroke="#63b8ff" points="165.32,-136.43 156.08,-131.24 160.08,-141.06 165.32,-136.43"/>
</a>
</g>
</g>
<!-- Node7&#45;&gt;Node3 -->
<g id="edge8_Node000007_Node000003" class="edge">
<title>Node7&#45;&gt;Node3</title>
<g id="a_edge8_Node000007_Node000003"><a xlink:title=" ">
<path fill="none" stroke="#63b8ff" d="M147.15,-110.33C147.15,-103.82 147.15,-94.67 147.15,-86.37"/>
<polygon fill="#63b8ff" stroke="#63b8ff" points="150.65,-86.37 147.15,-76.37 143.65,-86.37 150.65,-86.37"/>
</a>
</g>
</g>
<!-- Node8&#45;&gt;Node2 -->
<g id="edge14_Node000008_Node000002" class="edge">
<title>Node8&#45;&gt;Node2</title>
<g id="a_edge14_Node000008_Node000002"><a xlink:title=" ">
<path fill="none" stroke="#63b8ff" d="M69.06,-220.83C62.29,-213.48 52.43,-202.76 44.09,-193.69"/>
<polygon fill="#63b8ff" stroke="#63b8ff" points="46.79,-191.46 37.44,-186.47 41.64,-196.2 46.79,-191.46"/>
</a>
</g>
</g>
<!-- Node9 -->
<g id="Node000009" class="node">
<title>Node9</title>
<g id="a_Node000009"><a xlink:href="usbd_8h.html" target="_top" xlink:title=" ">
<polygon fill="white" stroke="#666666" points="149.4,-185 104.9,-185 104.9,-165.75 149.4,-165.75 149.4,-185"/>
<text text-anchor="middle" x="127.15" y="-171.5" font-family="Helvetica,sans-Serif" font-size="10.00">usbd.h</text>
</a>
</g>
</g>
<!-- Node8&#45;&gt;Node9 -->
<g id="edge10_Node000008_Node000009" class="edge">
<title>Node8&#45;&gt;Node9</title>
<g id="a_edge10_Node000008_Node000009"><a xlink:title=" ">
<path fill="none" stroke="#63b8ff" d="M85.41,-220.83C92.31,-213.48 102.38,-202.76 110.89,-193.69"/>
<polygon fill="#63b8ff" stroke="#63b8ff" points="113.39,-196.15 117.68,-186.46 108.28,-191.36 113.39,-196.15"/>
</a>
</g>
</g>
<!-- Node10 -->
<g id="Node000010" class="node">
<title>Node10</title>
<g id="a_Node000010"><a xlink:title=" ">
<polygon fill="#e0e0e0" stroke="#999999" points="111.53,-129.75 64.78,-129.75 64.78,-110.5 111.53,-110.5 111.53,-129.75"/>
<text text-anchor="middle" x="88.15" y="-116.25" font-family="Helvetica,sans-Serif" font-size="10.00">types.h</text>
</a>
</g>
</g>
<!-- Node8&#45;&gt;Node10 -->
<g id="edge13_Node000008_Node000010" class="edge">
<title>Node8&#45;&gt;Node10</title>
<g id="a_edge13_Node000008_Node000010"><a xlink:title=" ">
<path fill="none" stroke="#63b8ff" d="M78.05,-220.75C79.8,-203.5 83.7,-165.08 86.1,-141.31"/>
<polygon fill="#63b8ff" stroke="#63b8ff" points="89.56,-141.93 87.09,-131.63 82.6,-141.23 89.56,-141.93"/>
</a>
</g>
</g>
<!-- Node9&#45;&gt;Node7 -->
<g id="edge12_Node000009_Node000007" class="edge">
<title>Node9&#45;&gt;Node7</title>
<g id="a_edge12_Node000009_Node000007"><a xlink:title=" ">
<path fill="none" stroke="#63b8ff" d="M130.45,-165.58C132.99,-158.84 136.58,-149.27 139.78,-140.74"/>
<polygon fill="#63b8ff" stroke="#63b8ff" points="143.01,-142.12 143.25,-131.53 136.45,-139.66 143.01,-142.12"/>
</a>
</g>
</g>
<!-- Node9&#45;&gt;Node10 -->
<g id="edge11_Node000009_Node000010" class="edge">
<title>Node9&#45;&gt;Node10</title>
<g id="a_edge11_Node000009_Node000010"><a xlink:title=" ">
<path fill="none" stroke="#63b8ff" d="M120.71,-165.58C115.49,-158.46 107.96,-148.18 101.46,-139.3"/>
<polygon fill="#63b8ff" stroke="#63b8ff" points="104.36,-137.33 95.63,-131.33 98.71,-141.47 104.36,-137.33"/>
</a>
</g>
</g>
<!-- Node11&#45;&gt;Node8 -->
<g id="edge16_Node000011_Node000008" class="edge">
<title>Node11&#45;&gt;Node8</title>
<g id="a_edge16_Node000011_Node000008"><a xlink:title=" ">
<path fill="none" stroke="#63b8ff" d="M54.61,-276.08C58.11,-269.19 63.1,-259.34 67.5,-250.66"/>
<polygon fill="#63b8ff" stroke="#63b8ff" points="70.51,-252.46 71.91,-241.96 64.27,-249.3 70.51,-252.46"/>
</a>
</g>
</g>
<!-- Node12&#45;&gt;Node8 -->
<g id="edge18_Node000012_Node000008" class="edge">
<title>Node12&#45;&gt;Node8</title>
<g id="a_edge18_Node000012_Node000008"><a xlink:title=" ">
<path fill="none" stroke="#63b8ff" d="M108.04,-276.08C103.09,-268.96 95.95,-258.68 89.78,-249.8"/>
<polygon fill="#63b8ff" stroke="#63b8ff" points="92.84,-248.07 84.26,-241.85 87.09,-252.06 92.84,-248.07"/>
</a>
</g>
</g>
<!-- Node13&#45;&gt;Node8 -->
<g id="edge20_Node000013_Node000008" class="edge">
<title>Node13&#45;&gt;Node8</title>
<g id="a_edge20_Node000013_Node000008"><a xlink:title=" ">
<path fill="none" stroke="#63b8ff" d="M157.7,-275.84C142.93,-267.73 120.98,-255.68 103.72,-246.21"/>
<polygon fill="#63b8ff" stroke="#63b8ff" points="105.46,-243.18 95.01,-241.43 102.1,-249.31 105.46,-243.18"/>
</a>
</g>
</g>
</g>
</svg>
</svg>

<style type='text/css'>
<![CDATA[
[data-mouse-over-selected='false'] { opacity: 0.7; }
[data-mouse-over-selected='true']  { opacity: 1.0; }
]]>
</style>
<script type="application/ecmascript"><![CDATA[
document.addEventListener('DOMContentLoaded', (event) => {
  highlightEdges();
  highlightAdjacentNodes();
});
]]></script>
</svg>
