<?xml version="1.0" encoding="UTF-8" standalone="no"?>
<!DOCTYPE svg PUBLIC "-//W3C//DTD SVG 1.1//EN"
 "http://www.w3.org/Graphics/SVG/1.1/DTD/svg11.dtd">
<!-- Generated by graphviz version 12.2.0 (20241103.1931)
 -->
<!-- Title: iop/system/ioman/src/ioman.c Pages: 1 -->
<svg width="520pt" height="315pt"
 viewBox="0.00 0.00 520.12 314.75" xmlns="http://www.w3.org/2000/svg" xmlns:xlink="http://www.w3.org/1999/xlink">
<g id="graph0" class="graph" transform="scale(1 1) rotate(0) translate(4 310.75)">
<title>iop/system/ioman/src/ioman.c</title>
<!-- Node1 -->
<g id="Node000001" class="node">
<title>Node1</title>
<g id="a_Node000001"><a xlink:title=" ">
<polygon fill="#999999" stroke="#666666" points="288.75,-306.75 179.75,-306.75 179.75,-276.25 288.75,-276.25 288.75,-306.75"/>
<text text-anchor="start" x="187.75" y="-293.25" font-family="Helvetica,sans-Serif" font-size="10.00">iop/system/ioman/src</text>
<text text-anchor="middle" x="234.25" y="-282" font-family="Helvetica,sans-Serif" font-size="10.00">/ioman.c</text>
</a>
</g>
</g>
<!-- Node2 -->
<g id="Node000002" class="node">
<title>Node2</title>
<g id="a_Node000002"><a xlink:title=" ">
<polygon fill="#e0e0e0" stroke="#999999" points="217.62,-129.75 170.88,-129.75 170.88,-110.5 217.62,-110.5 217.62,-129.75"/>
<text text-anchor="middle" x="194.25" y="-116.25" font-family="Helvetica,sans-Serif" font-size="10.00">types.h</text>
</a>
</g>
</g>
<!-- Node1&#45;&gt;Node2 -->
<g id="edge1_Node000001_Node000002" class="edge">
<title>Node1&#45;&gt;Node2</title>
<g id="a_edge1_Node000001_Node000002"><a xlink:title=" ">
<path fill="none" stroke="#63b8ff" d="M227.58,-275.86C218.81,-255.82 203.77,-218.53 197.25,-185 194.45,-170.6 193.74,-154.06 193.71,-141.41"/>
<polygon fill="#63b8ff" stroke="#63b8ff" points="197.21,-141.46 193.84,-131.41 190.21,-141.36 197.21,-141.46"/>
</a>
</g>
</g>
<!-- Node3 -->
<g id="Node000003" class="node">
<title>Node3</title>
<g id="a_Node000003"><a xlink:href="ioman__mod_8h.html" target="_top" xlink:title=" ">
<polygon fill="white" stroke="#666666" points="354.12,-185 280.38,-185 280.38,-165.75 354.12,-165.75 354.12,-185"/>
<text text-anchor="middle" x="317.25" y="-171.5" font-family="Helvetica,sans-Serif" font-size="10.00">ioman_mod.h</text>
</a>
</g>
</g>
<!-- Node1&#45;&gt;Node3 -->
<g id="edge2_Node000001_Node000003" class="edge">
<title>Node1&#45;&gt;Node3</title>
<g id="a_edge2_Node000001_Node000003"><a xlink:title=" ">
<path fill="none" stroke="#63b8ff" d="M244.76,-276.05C259.82,-255.34 287.51,-217.26 303.97,-194.64"/>
<polygon fill="#63b8ff" stroke="#63b8ff" points="306.71,-196.82 309.76,-186.67 301.05,-192.7 306.71,-196.82"/>
</a>
</g>
</g>
<!-- Node13 -->
<g id="Node000013" class="node">
<title>Node13</title>
<g id="a_Node000013"><a xlink:href="string_8h_source.html" target="_top" xlink:title=" ">
<polygon fill="white" stroke="#666666" points="148,-240.25 100.5,-240.25 100.5,-221 148,-221 148,-240.25"/>
<text text-anchor="middle" x="124.25" y="-226.75" font-family="Helvetica,sans-Serif" font-size="10.00">string.h</text>
</a>
</g>
</g>
<!-- Node1&#45;&gt;Node13 -->
<g id="edge13_Node000001_Node000013" class="edge">
<title>Node1&#45;&gt;Node13</title>
<g id="a_edge13_Node000001_Node000013"><a xlink:title=" ">
<path fill="none" stroke="#63b8ff" d="M206.78,-275.8C189.7,-266.66 167.86,-254.97 150.94,-245.91"/>
<polygon fill="#63b8ff" stroke="#63b8ff" points="152.92,-243 142.45,-241.37 149.62,-249.17 152.92,-243"/>
</a>
</g>
</g>
<!-- Node15 -->
<g id="Node000015" class="node">
<title>Node15</title>
<g id="a_Node000015"><a xlink:title=" ">
<polygon fill="#e0e0e0" stroke="#999999" points="50.5,-129.75 0,-129.75 0,-110.5 50.5,-110.5 50.5,-129.75"/>
<text text-anchor="middle" x="25.25" y="-116.25" font-family="Helvetica,sans-Serif" font-size="10.00">stdarg.h</text>
</a>
</g>
</g>
<!-- Node1&#45;&gt;Node15 -->
<g id="edge21_Node000001_Node000015" class="edge">
<title>Node1&#45;&gt;Node15</title>
<g id="a_edge21_Node000001_Node000015"><a xlink:title=" ">
<path fill="none" stroke="#63b8ff" d="M179.28,-280.99C150.51,-273.75 116.18,-261.31 91.25,-240.25 59.44,-213.38 40.16,-167.11 31.23,-140.84"/>
<polygon fill="#63b8ff" stroke="#63b8ff" points="34.61,-139.91 28.22,-131.46 27.94,-142.05 34.61,-139.91"/>
</a>
</g>
</g>
<!-- Node18 -->
<g id="Node000018" class="node">
<title>Node18</title>
<g id="a_Node000018"><a xlink:href="intrman_8h.html" target="_top" xlink:title=" ">
<polygon fill="white" stroke="#666666" points="262.12,-185 206.38,-185 206.38,-165.75 262.12,-165.75 262.12,-185"/>
<text text-anchor="middle" x="234.25" y="-171.5" font-family="Helvetica,sans-Serif" font-size="10.00">intrman.h</text>
</a>
</g>
</g>
<!-- Node1&#45;&gt;Node18 -->
<g id="edge22_Node000001_Node000018" class="edge">
<title>Node1&#45;&gt;Node18</title>
<g id="a_edge22_Node000001_Node000018"><a xlink:title=" ">
<path fill="none" stroke="#63b8ff" d="M234.25,-276.05C234.25,-256 234.25,-219.65 234.25,-196.82"/>
<polygon fill="#63b8ff" stroke="#63b8ff" points="237.75,-196.96 234.25,-186.96 230.75,-196.96 237.75,-196.96"/>
</a>
</g>
</g>
<!-- Node19 -->
<g id="Node000019" class="node">
<title>Node19</title>
<g id="a_Node000019"><a xlink:href="errno_8h.html" target="_top" xlink:title=" ">
<polygon fill="white" stroke="#666666" points="499.88,-129.75 454.62,-129.75 454.62,-110.5 499.88,-110.5 499.88,-129.75"/>
<text text-anchor="middle" x="477.25" y="-116.25" font-family="Helvetica,sans-Serif" font-size="10.00">errno.h</text>
</a>
</g>
</g>
<!-- Node1&#45;&gt;Node19 -->
<g id="edge25_Node000001_Node000019" class="edge">
<title>Node1&#45;&gt;Node19</title>
<g id="a_edge25_Node000001_Node000019"><a xlink:title=" ">
<path fill="none" stroke="#63b8ff" d="M273.96,-275.9C316.39,-258.87 383.93,-227.54 431.25,-185 445.85,-171.88 458.54,-153.38 466.88,-139.66"/>
<polygon fill="#63b8ff" stroke="#63b8ff" points="469.8,-141.59 471.82,-131.19 463.76,-138.07 469.8,-141.59"/>
</a>
</g>
</g>
<!-- Node20 -->
<g id="Node000020" class="node">
<title>Node20</title>
<g id="a_Node000020"><a xlink:href="ioman_8h.html" target="_top" xlink:title=" ">
<polygon fill="white" stroke="#666666" points="422.12,-185 372.38,-185 372.38,-165.75 422.12,-165.75 422.12,-185"/>
<text text-anchor="middle" x="397.25" y="-171.5" font-family="Helvetica,sans-Serif" font-size="10.00">ioman.h</text>
</a>
</g>
</g>
<!-- Node1&#45;&gt;Node20 -->
<g id="edge26_Node000001_Node000020" class="edge">
<title>Node1&#45;&gt;Node20</title>
<g id="a_edge26_Node000001_Node000020"><a xlink:title=" ">
<path fill="none" stroke="#63b8ff" d="M255.23,-275.81C286.11,-254.19 343.54,-213.98 375.09,-191.89"/>
<polygon fill="#63b8ff" stroke="#63b8ff" points="376.93,-194.88 383.11,-186.27 372.91,-189.14 376.93,-194.88"/>
</a>
</g>
</g>
<!-- Node3&#45;&gt;Node2 -->
<g id="edge3_Node000003_Node000002" class="edge">
<title>Node3&#45;&gt;Node2</title>
<g id="a_edge3_Node000003_Node000002"><a xlink:title=" ">
<path fill="none" stroke="#63b8ff" d="M296.38,-165.34C276.95,-156.93 247.71,-144.27 225.49,-134.65"/>
<polygon fill="#63b8ff" stroke="#63b8ff" points="227.17,-131.56 216.61,-130.8 224.39,-137.99 227.17,-131.56"/>
</a>
</g>
</g>
<!-- Node4 -->
<g id="Node000004" class="node">
<title>Node4</title>
<g id="a_Node000004"><a xlink:href="irx_8h.html" target="_top" xlink:title=" ">
<polygon fill="white" stroke="#666666" points="268.88,-129.75 235.62,-129.75 235.62,-110.5 268.88,-110.5 268.88,-129.75"/>
<text text-anchor="middle" x="252.25" y="-116.25" font-family="Helvetica,sans-Serif" font-size="10.00">irx.h</text>
</a>
</g>
</g>
<!-- Node3&#45;&gt;Node4 -->
<g id="edge4_Node000003_Node000004" class="edge">
<title>Node3&#45;&gt;Node4</title>
<g id="a_edge4_Node000003_Node000004"><a xlink:title=" ">
<path fill="none" stroke="#63b8ff" d="M306.22,-165.34C296.83,-157.65 283.1,-146.4 271.84,-137.18"/>
<polygon fill="#63b8ff" stroke="#63b8ff" points="274.24,-134.61 264.28,-130.98 269.8,-140.03 274.24,-134.61"/>
</a>
</g>
</g>
<!-- Node8 -->
<g id="Node000008" class="node">
<title>Node8</title>
<g id="a_Node000008"><a xlink:href="io__common_8h.html" target="_top" xlink:title=" ">
<polygon fill="white" stroke="#666666" points="436.12,-129.75 362.38,-129.75 362.38,-110.5 436.12,-110.5 436.12,-129.75"/>
<text text-anchor="middle" x="399.25" y="-116.25" font-family="Helvetica,sans-Serif" font-size="10.00">io_common.h</text>
</a>
</g>
</g>
<!-- Node3&#45;&gt;Node8 -->
<g id="edge8_Node000003_Node000008" class="edge">
<title>Node3&#45;&gt;Node8</title>
<g id="a_edge8_Node000003_Node000008"><a xlink:title=" ">
<path fill="none" stroke="#63b8ff" d="M331.16,-165.34C343.41,-157.39 361.5,-145.64 375.96,-136.25"/>
<polygon fill="#63b8ff" stroke="#63b8ff" points="377.52,-139.41 384,-131.03 373.71,-133.54 377.52,-139.41"/>
</a>
</g>
</g>
<!-- Node11 -->
<g id="Node000011" class="node">
<title>Node11</title>
<g id="a_Node000011"><a xlink:href="iox__stat_8h.html" target="_top" xlink:title=" ">
<polygon fill="white" stroke="#666666" points="343.88,-129.75 286.62,-129.75 286.62,-110.5 343.88,-110.5 343.88,-129.75"/>
<text text-anchor="middle" x="315.25" y="-116.25" font-family="Helvetica,sans-Serif" font-size="10.00">iox_stat.h</text>
</a>
</g>
</g>
<!-- Node3&#45;&gt;Node11 -->
<g id="edge11_Node000003_Node000011" class="edge">
<title>Node3&#45;&gt;Node11</title>
<g id="a_edge11_Node000003_Node000011"><a xlink:title=" ">
<path fill="none" stroke="#63b8ff" d="M316.92,-165.58C316.67,-158.99 316.32,-149.71 316.01,-141.32"/>
<polygon fill="#63b8ff" stroke="#63b8ff" points="319.52,-141.48 315.64,-131.62 312.52,-141.75 319.52,-141.48"/>
</a>
</g>
</g>
<!-- Node5 -->
<g id="Node000005" class="node">
<title>Node5</title>
<g id="a_Node000005"><a xlink:href="iop_2kernel_2include_2types_8h_source.html" target="_top" xlink:title=" ">
<polygon fill="white" stroke="#666666" points="263.62,-74.5 216.88,-74.5 216.88,-55.25 263.62,-55.25 263.62,-74.5"/>
<text text-anchor="middle" x="240.25" y="-61" font-family="Helvetica,sans-Serif" font-size="10.00">types.h</text>
</a>
</g>
</g>
<!-- Node4&#45;&gt;Node5 -->
<g id="edge5_Node000004_Node000005" class="edge">
<title>Node4&#45;&gt;Node5</title>
<g id="a_edge5_Node000004_Node000005"><a xlink:title=" ">
<path fill="none" stroke="#63b8ff" d="M250.27,-110.33C248.78,-103.74 246.69,-94.46 244.8,-86.07"/>
<polygon fill="#63b8ff" stroke="#63b8ff" points="248.22,-85.32 242.61,-76.34 241.39,-86.86 248.22,-85.32"/>
</a>
</g>
</g>
<!-- Node6 -->
<g id="Node000006" class="node">
<title>Node6</title>
<g id="a_Node000006"><a xlink:title=" ">
<polygon fill="#e0e0e0" stroke="#999999" points="265.5,-19.25 215,-19.25 215,0 265.5,0 265.5,-19.25"/>
<text text-anchor="middle" x="240.25" y="-5.75" font-family="Helvetica,sans-Serif" font-size="10.00">stddef.h</text>
</a>
</g>
</g>
<!-- Node5&#45;&gt;Node6 -->
<g id="edge6_Node000005_Node000006" class="edge">
<title>Node5&#45;&gt;Node6</title>
<g id="a_edge6_Node000005_Node000006"><a xlink:title=" ">
<path fill="none" stroke="#63b8ff" d="M240.25,-55.08C240.25,-48.57 240.25,-39.42 240.25,-31.12"/>
<polygon fill="#63b8ff" stroke="#63b8ff" points="243.75,-31.12 240.25,-21.12 236.75,-31.12 243.75,-31.12"/>
</a>
</g>
</g>
<!-- Node7 -->
<g id="Node000007" class="node">
<title>Node7</title>
<g id="a_Node000007"><a xlink:href="tamtypes_8h.html" target="_top" xlink:title=" ">
<polygon fill="white" stroke="#666666" points="190.88,-19.25 127.62,-19.25 127.62,0 190.88,0 190.88,-19.25"/>
<text text-anchor="middle" x="159.25" y="-5.75" font-family="Helvetica,sans-Serif" font-size="10.00">tamtypes.h</text>
</a>
</g>
</g>
<!-- Node5&#45;&gt;Node7 -->
<g id="edge7_Node000005_Node000007" class="edge">
<title>Node5&#45;&gt;Node7</title>
<g id="a_edge7_Node000005_Node000007"><a xlink:title=" ">
<path fill="none" stroke="#63b8ff" d="M226.51,-54.84C214.52,-46.96 196.88,-35.36 182.67,-26.02"/>
<polygon fill="#63b8ff" stroke="#63b8ff" points="184.6,-23.1 174.32,-20.53 180.76,-28.95 184.6,-23.1"/>
</a>
</g>
</g>
<!-- Node9 -->
<g id="Node000009" class="node">
<title>Node9</title>
<g id="a_Node000009"><a xlink:href="fcntl_8h_source.html" target="_top" xlink:title=" ">
<polygon fill="white" stroke="#666666" points="426.38,-74.5 366.12,-74.5 366.12,-55.25 426.38,-55.25 426.38,-74.5"/>
<text text-anchor="middle" x="396.25" y="-61" font-family="Helvetica,sans-Serif" font-size="10.00">sys/fcntl.h</text>
</a>
</g>
</g>
<!-- Node8&#45;&gt;Node9 -->
<g id="edge9_Node000008_Node000009" class="edge">
<title>Node8&#45;&gt;Node9</title>
<g id="a_edge9_Node000008_Node000009"><a xlink:title=" ">
<path fill="none" stroke="#63b8ff" d="M398.75,-110.33C398.38,-103.74 397.86,-94.46 397.39,-86.07"/>
<polygon fill="#63b8ff" stroke="#63b8ff" points="400.9,-86.16 396.84,-76.37 393.91,-86.55 400.9,-86.16"/>
</a>
</g>
</g>
<!-- Node10 -->
<g id="Node000010" class="node">
<title>Node10</title>
<g id="a_Node000010"><a xlink:href="unistd_8h_source.html" target="_top" xlink:title=" ">
<polygon fill="white" stroke="#666666" points="512.12,-74.5 444.38,-74.5 444.38,-55.25 512.12,-55.25 512.12,-74.5"/>
<text text-anchor="middle" x="478.25" y="-61" font-family="Helvetica,sans-Serif" font-size="10.00">sys/unistd.h</text>
</a>
</g>
</g>
<!-- Node8&#45;&gt;Node10 -->
<g id="edge10_Node000008_Node000010" class="edge">
<title>Node8&#45;&gt;Node10</title>
<g id="a_edge10_Node000008_Node000010"><a xlink:title=" ">
<path fill="none" stroke="#63b8ff" d="M412.65,-110.09C424.34,-102.21 441.55,-90.61 455.41,-81.27"/>
<polygon fill="#63b8ff" stroke="#63b8ff" points="457.19,-84.29 463.53,-75.8 453.28,-78.49 457.19,-84.29"/>
</a>
</g>
</g>
<!-- Node12 -->
<g id="Node000012" class="node">
<title>Node12</title>
<g id="a_Node000012"><a xlink:href="time_8h.html" target="_top" xlink:title=" ">
<polygon fill="white" stroke="#666666" points="345.38,-74.5 285.12,-74.5 285.12,-55.25 345.38,-55.25 345.38,-74.5"/>
<text text-anchor="middle" x="315.25" y="-61" font-family="Helvetica,sans-Serif" font-size="10.00">sys/time.h</text>
</a>
</g>
</g>
<!-- Node11&#45;&gt;Node12 -->
<g id="edge12_Node000011_Node000012" class="edge">
<title>Node11&#45;&gt;Node12</title>
<g id="a_edge12_Node000011_Node000012"><a xlink:title=" ">
<path fill="none" stroke="#63b8ff" d="M315.25,-110.33C315.25,-103.82 315.25,-94.67 315.25,-86.37"/>
<polygon fill="#63b8ff" stroke="#63b8ff" points="318.75,-86.37 315.25,-76.37 311.75,-86.37 318.75,-86.37"/>
</a>
</g>
</g>
<!-- Node14 -->
<g id="Node000014" class="node">
<title>Node14</title>
<g id="a_Node000014"><a xlink:href="sysclib_8h.html" target="_top" xlink:title=" ">
<polygon fill="white" stroke="#666666" points="150,-185 96.5,-185 96.5,-165.75 150,-165.75 150,-185"/>
<text text-anchor="middle" x="123.25" y="-171.5" font-family="Helvetica,sans-Serif" font-size="10.00">sysclib.h</text>
</a>
</g>
</g>
<!-- Node13&#45;&gt;Node14 -->
<g id="edge14_Node000013_Node000014" class="edge">
<title>Node13&#45;&gt;Node14</title>
<g id="a_edge14_Node000013_Node000014"><a xlink:title=" ">
<path fill="none" stroke="#63b8ff" d="M124.08,-220.83C123.96,-214.32 123.79,-205.17 123.63,-196.87"/>
<polygon fill="#63b8ff" stroke="#63b8ff" points="127.13,-196.8 123.45,-186.87 120.14,-196.94 127.13,-196.8"/>
</a>
</g>
</g>
<!-- Node14&#45;&gt;Node2 -->
<g id="edge15_Node000014_Node000002" class="edge">
<title>Node14&#45;&gt;Node2</title>
<g id="a_edge15_Node000014_Node000002"><a xlink:title=" ">
<path fill="none" stroke="#63b8ff" d="M135.29,-165.34C145.66,-157.57 160.85,-146.17 173.22,-136.9"/>
<polygon fill="#63b8ff" stroke="#63b8ff" points="175.27,-139.73 181.17,-130.93 171.07,-134.13 175.27,-139.73"/>
</a>
</g>
</g>
<!-- Node14&#45;&gt;Node4 -->
<g id="edge16_Node000014_Node000004" class="edge">
<title>Node14&#45;&gt;Node4</title>
<g id="a_edge16_Node000014_Node000004"><a xlink:title=" ">
<path fill="none" stroke="#63b8ff" d="M145.13,-165.34C167.1,-156.27 201.01,-142.28 224.77,-132.47"/>
<polygon fill="#63b8ff" stroke="#63b8ff" points="225.91,-135.79 233.81,-128.74 223.24,-129.32 225.91,-135.79"/>
</a>
</g>
</g>
<!-- Node14&#45;&gt;Node15 -->
<g id="edge17_Node000014_Node000015" class="edge">
<title>Node14&#45;&gt;Node15</title>
<g id="a_edge17_Node000014_Node000015"><a xlink:title=" ">
<path fill="none" stroke="#63b8ff" d="M106.63,-165.34C91.56,-157.16 69.11,-144.96 51.6,-135.44"/>
<polygon fill="#63b8ff" stroke="#63b8ff" points="53.74,-132.62 43.29,-130.93 50.4,-138.77 53.74,-132.62"/>
</a>
</g>
</g>
<!-- Node16 -->
<g id="Node000016" class="node">
<title>Node16</title>
<g id="a_Node000016"><a xlink:href="setjmp_8h.html" target="_top" xlink:title=" ">
<polygon fill="white" stroke="#666666" points="173.62,-74.5 120.88,-74.5 120.88,-55.25 173.62,-55.25 173.62,-74.5"/>
<text text-anchor="middle" x="147.25" y="-61" font-family="Helvetica,sans-Serif" font-size="10.00">setjmp.h</text>
</a>
</g>
</g>
<!-- Node14&#45;&gt;Node16 -->
<g id="edge18_Node000014_Node000016" class="edge">
<title>Node14&#45;&gt;Node16</title>
<g id="a_edge18_Node000014_Node000016"><a xlink:title=" ">
<path fill="none" stroke="#63b8ff" d="M125.21,-165.5C129.03,-148.25 137.53,-109.83 142.78,-86.06"/>
<polygon fill="#63b8ff" stroke="#63b8ff" points="146.19,-86.87 144.93,-76.35 139.35,-85.36 146.19,-86.87"/>
</a>
</g>
</g>
<!-- Node17 -->
<g id="Node000017" class="node">
<title>Node17</title>
<g id="a_Node000017"><a xlink:href="ctype_8h.html" target="_top" xlink:title=" ">
<polygon fill="white" stroke="#666666" points="115.62,-129.75 68.88,-129.75 68.88,-110.5 115.62,-110.5 115.62,-129.75"/>
<text text-anchor="middle" x="92.25" y="-116.25" font-family="Helvetica,sans-Serif" font-size="10.00">ctype.h</text>
</a>
</g>
</g>
<!-- Node14&#45;&gt;Node17 -->
<g id="edge20_Node000014_Node000017" class="edge">
<title>Node14&#45;&gt;Node17</title>
<g id="a_edge20_Node000014_Node000017"><a xlink:title=" ">
<path fill="none" stroke="#63b8ff" d="M118.13,-165.58C114.07,-158.61 108.26,-148.62 103.16,-139.87"/>
<polygon fill="#63b8ff" stroke="#63b8ff" points="106.3,-138.3 98.24,-131.42 100.25,-141.82 106.3,-138.3"/>
</a>
</g>
</g>
<!-- Node16&#45;&gt;Node7 -->
<g id="edge19_Node000016_Node000007" class="edge">
<title>Node16&#45;&gt;Node7</title>
<g id="a_edge19_Node000016_Node000007"><a xlink:title=" ">
<path fill="none" stroke="#63b8ff" d="M149.23,-55.08C150.72,-48.49 152.81,-39.21 154.7,-30.82"/>
<polygon fill="#63b8ff" stroke="#63b8ff" points="158.11,-31.61 156.89,-21.09 151.28,-30.07 158.11,-31.61"/>
</a>
</g>
</g>
<!-- Node18&#45;&gt;Node2 -->
<g id="edge23_Node000018_Node000002" class="edge">
<title>Node18&#45;&gt;Node2</title>
<g id="a_edge23_Node000018_Node000002"><a xlink:title=" ">
<path fill="none" stroke="#63b8ff" d="M227.64,-165.58C222.29,-158.46 214.57,-148.18 207.9,-139.3"/>
<polygon fill="#63b8ff" stroke="#63b8ff" points="210.71,-137.21 201.91,-131.32 205.12,-141.42 210.71,-137.21"/>
</a>
</g>
</g>
<!-- Node18&#45;&gt;Node4 -->
<g id="edge24_Node000018_Node000004" class="edge">
<title>Node18&#45;&gt;Node4</title>
<g id="a_edge24_Node000018_Node000004"><a xlink:title=" ">
<path fill="none" stroke="#63b8ff" d="M237.22,-165.58C239.5,-158.84 242.74,-149.27 245.62,-140.74"/>
<polygon fill="#63b8ff" stroke="#63b8ff" points="248.84,-142.14 248.73,-131.54 242.21,-139.9 248.84,-142.14"/>
</a>
</g>
</g>
<!-- Node20&#45;&gt;Node2 -->
<g id="edge28_Node000020_Node000002" class="edge">
<title>Node20&#45;&gt;Node2</title>
<g id="a_edge28_Node000020_Node000002"><a xlink:title=" ">
<path fill="none" stroke="#63b8ff" d="M372.03,-167.86C340.67,-159.75 285.24,-145.36 228.91,-130.44"/>
<polygon fill="#63b8ff" stroke="#63b8ff" points="230.04,-127.12 219.47,-127.94 228.24,-133.89 230.04,-127.12"/>
</a>
</g>
</g>
<!-- Node20&#45;&gt;Node4 -->
<g id="edge29_Node000020_Node000004" class="edge">
<title>Node20&#45;&gt;Node4</title>
<g id="a_edge29_Node000020_Node000004"><a xlink:title=" ">
<path fill="none" stroke="#63b8ff" d="M372.65,-165.34C346.92,-155.89 306.61,-141.09 279.82,-131.25"/>
<polygon fill="#63b8ff" stroke="#63b8ff" points="281.26,-128.05 270.66,-127.89 278.84,-134.62 281.26,-128.05"/>
</a>
</g>
</g>
<!-- Node20&#45;&gt;Node8 -->
<g id="edge30_Node000020_Node000008" class="edge">
<title>Node20&#45;&gt;Node8</title>
<g id="a_edge30_Node000020_Node000008"><a xlink:title=" ">
<path fill="none" stroke="#63b8ff" d="M397.58,-165.58C397.83,-158.99 398.18,-149.71 398.49,-141.32"/>
<polygon fill="#63b8ff" stroke="#63b8ff" points="401.98,-141.75 398.86,-131.62 394.98,-141.48 401.98,-141.75"/>
</a>
</g>
</g>
<!-- Node20&#45;&gt;Node19 -->
<g id="edge27_Node000020_Node000019" class="edge">
<title>Node20&#45;&gt;Node19</title>
<g id="a_edge27_Node000020_Node000019"><a xlink:title=" ">
<path fill="none" stroke="#63b8ff" d="M410.82,-165.34C422.66,-157.46 440.09,-145.86 454.12,-136.52"/>
<polygon fill="#63b8ff" stroke="#63b8ff" points="455.97,-139.5 462.35,-131.04 452.09,-133.67 455.97,-139.5"/>
</a>
</g>
</g>
</g>
</svg>
