<?xml version="1.0" encoding="UTF-8" standalone="no"?>
<!DOCTYPE svg PUBLIC "-//W3C//DTD SVG 1.1//EN"
 "http://www.w3.org/Graphics/SVG/1.1/DTD/svg11.dtd">
<!-- Generated by graphviz version 12.2.0 (20241103.1931)
 -->
<!-- Title: iop/system/ioman/include/ioman.h Pages: 1 -->
<svg width="341pt" height="204pt"
 viewBox="0.00 0.00 340.50 204.25" xmlns="http://www.w3.org/2000/svg" xmlns:xlink="http://www.w3.org/1999/xlink">

<svg id="main" version="1.1" xmlns="http://www.w3.org/2000/svg" xmlns:xlink="http://www.w3.org/1999/xlink" xml:space="preserve">

<style type="text/css"><![CDATA[
.node, .edge {opacity: 0.7;}
.node.selected, .edge.selected {opacity: 1;}
.edge:hover path { stroke: red; }
.edge:hover polygon { stroke: red; fill: red; }
]]></style>
<script type="application/ecmascript" xlink:href="svg.min.js"/>
<svg id="graph" class="graph">
<g id="graph0" class="graph" transform="scale(1 1) rotate(0) translate(4 200.25)">
<title>iop/system/ioman/include/ioman.h</title>
<!-- Node1 -->
<g id="Node000001" class="node">
<title>Node1</title>
<g id="a_Node000001"><a xlink:title=" ">
<polygon fill="#999999" stroke="#666666" points="178.75,-196.25 52.5,-196.25 52.5,-165.75 178.75,-165.75 178.75,-196.25"/>
<text text-anchor="start" x="60.5" y="-182.75" font-family="Helvetica,sans-Serif" font-size="10.00">iop/system/ioman/include</text>
<text text-anchor="middle" x="115.62" y="-171.5" font-family="Helvetica,sans-Serif" font-size="10.00">/ioman.h</text>
</a>
</g>
</g>
<!-- Node2 -->
<g id="Node000002" class="node">
<title>Node2</title>
<g id="a_Node000002"><a xlink:href="errno_8h.html" target="_top" xlink:title=" ">
<polygon fill="white" stroke="#666666" points="45.25,-129.75 0,-129.75 0,-110.5 45.25,-110.5 45.25,-129.75"/>
<text text-anchor="middle" x="22.62" y="-116.25" font-family="Helvetica,sans-Serif" font-size="10.00">errno.h</text>
</a>
</g>
</g>
<!-- Node1&#45;&gt;Node2 -->
<g id="edge1_Node000001_Node000002" class="edge">
<title>Node1&#45;&gt;Node2</title>
<g id="a_edge1_Node000001_Node000002"><a xlink:title=" ">
<path fill="none" stroke="#63b8ff" d="M92.64,-165.45C78.61,-156.57 60.72,-145.24 46.53,-136.26"/>
<polygon fill="#63b8ff" stroke="#63b8ff" points="48.56,-133.4 38.24,-131.01 44.82,-139.32 48.56,-133.4"/>
</a>
</g>
</g>
<!-- Node3 -->
<g id="Node000003" class="node">
<title>Node3</title>
<g id="a_Node000003"><a xlink:title=" ">
<polygon fill="#e0e0e0" stroke="#999999" points="110,-129.75 63.25,-129.75 63.25,-110.5 110,-110.5 110,-129.75"/>
<text text-anchor="middle" x="86.62" y="-116.25" font-family="Helvetica,sans-Serif" font-size="10.00">types.h</text>
</a>
</g>
</g>
<!-- Node1&#45;&gt;Node3 -->
<g id="edge2_Node000001_Node000003" class="edge">
<title>Node1&#45;&gt;Node3</title>
<g id="a_edge2_Node000001_Node000003"><a xlink:title=" ">
<path fill="none" stroke="#63b8ff" d="M108.46,-165.45C104.72,-157.86 100.1,-148.49 96.08,-140.32"/>
<polygon fill="#63b8ff" stroke="#63b8ff" points="99.32,-138.98 91.76,-131.56 93.04,-142.08 99.32,-138.98"/>
</a>
</g>
</g>
<!-- Node4 -->
<g id="Node000004" class="node">
<title>Node4</title>
<g id="a_Node000004"><a xlink:href="irx_8h.html" target="_top" xlink:title=" ">
<polygon fill="white" stroke="#666666" points="161.25,-129.75 128,-129.75 128,-110.5 161.25,-110.5 161.25,-129.75"/>
<text text-anchor="middle" x="144.62" y="-116.25" font-family="Helvetica,sans-Serif" font-size="10.00">irx.h</text>
</a>
</g>
</g>
<!-- Node1&#45;&gt;Node4 -->
<g id="edge3_Node000001_Node000004" class="edge">
<title>Node1&#45;&gt;Node4</title>
<g id="a_edge3_Node000001_Node000004"><a xlink:title=" ">
<path fill="none" stroke="#63b8ff" d="M122.79,-165.45C126.53,-157.86 131.15,-148.49 135.17,-140.32"/>
<polygon fill="#63b8ff" stroke="#63b8ff" points="138.21,-142.08 139.49,-131.56 131.93,-138.98 138.21,-142.08"/>
</a>
</g>
</g>
<!-- Node8 -->
<g id="Node000008" class="node">
<title>Node8</title>
<g id="a_Node000008"><a xlink:href="io__common_8h.html" target="_top" xlink:title=" ">
<polygon fill="white" stroke="#666666" points="253.5,-129.75 179.75,-129.75 179.75,-110.5 253.5,-110.5 253.5,-129.75"/>
<text text-anchor="middle" x="216.62" y="-116.25" font-family="Helvetica,sans-Serif" font-size="10.00">io_common.h</text>
</a>
</g>
</g>
<!-- Node1&#45;&gt;Node8 -->
<g id="edge7_Node000001_Node000008" class="edge">
<title>Node1&#45;&gt;Node8</title>
<g id="a_edge7_Node000001_Node000008"><a xlink:title=" ">
<path fill="none" stroke="#63b8ff" d="M140.85,-165.3C156.23,-156.33 175.83,-144.91 191.24,-135.92"/>
<polygon fill="#63b8ff" stroke="#63b8ff" points="192.95,-138.98 199.83,-130.92 189.43,-132.93 192.95,-138.98"/>
</a>
</g>
</g>
<!-- Node5 -->
<g id="Node000005" class="node">
<title>Node5</title>
<g id="a_Node000005"><a xlink:href="iop_2kernel_2include_2types_8h_source.html" target="_top" xlink:title=" ">
<polygon fill="white" stroke="#666666" points="168,-74.5 121.25,-74.5 121.25,-55.25 168,-55.25 168,-74.5"/>
<text text-anchor="middle" x="144.62" y="-61" font-family="Helvetica,sans-Serif" font-size="10.00">types.h</text>
</a>
</g>
</g>
<!-- Node4&#45;&gt;Node5 -->
<g id="edge4_Node000004_Node000005" class="edge">
<title>Node4&#45;&gt;Node5</title>
<g id="a_edge4_Node000004_Node000005"><a xlink:title=" ">
<path fill="none" stroke="#63b8ff" d="M144.62,-110.33C144.62,-103.82 144.62,-94.67 144.62,-86.37"/>
<polygon fill="#63b8ff" stroke="#63b8ff" points="148.13,-86.37 144.63,-76.37 141.13,-86.37 148.13,-86.37"/>
</a>
</g>
</g>
<!-- Node6 -->
<g id="Node000006" class="node">
<title>Node6</title>
<g id="a_Node000006"><a xlink:title=" ">
<polygon fill="#e0e0e0" stroke="#999999" points="132.88,-19.25 82.38,-19.25 82.38,0 132.88,0 132.88,-19.25"/>
<text text-anchor="middle" x="107.62" y="-5.75" font-family="Helvetica,sans-Serif" font-size="10.00">stddef.h</text>
</a>
</g>
</g>
<!-- Node5&#45;&gt;Node6 -->
<g id="edge5_Node000005_Node000006" class="edge">
<title>Node5&#45;&gt;Node6</title>
<g id="a_edge5_Node000005_Node000006"><a xlink:title=" ">
<path fill="none" stroke="#63b8ff" d="M138.52,-55.08C133.56,-47.96 126.42,-37.68 120.25,-28.8"/>
<polygon fill="#63b8ff" stroke="#63b8ff" points="123.31,-27.07 114.73,-20.85 117.56,-31.06 123.31,-27.07"/>
</a>
</g>
</g>
<!-- Node7 -->
<g id="Node000007" class="node">
<title>Node7</title>
<g id="a_Node000007"><a xlink:href="tamtypes_8h.html" target="_top" xlink:title=" ">
<polygon fill="white" stroke="#666666" points="214.25,-19.25 151,-19.25 151,0 214.25,0 214.25,-19.25"/>
<text text-anchor="middle" x="182.62" y="-5.75" font-family="Helvetica,sans-Serif" font-size="10.00">tamtypes.h</text>
</a>
</g>
</g>
<!-- Node5&#45;&gt;Node7 -->
<g id="edge6_Node000005_Node000007" class="edge">
<title>Node5&#45;&gt;Node7</title>
<g id="a_edge6_Node000005_Node000007"><a xlink:title=" ">
<path fill="none" stroke="#63b8ff" d="M150.9,-55.08C155.98,-47.96 163.32,-37.68 169.66,-28.8"/>
<polygon fill="#63b8ff" stroke="#63b8ff" points="172.37,-31.01 175.33,-20.84 166.68,-26.95 172.37,-31.01"/>
</a>
</g>
</g>
<!-- Node9 -->
<g id="Node000009" class="node">
<title>Node9</title>
<g id="a_Node000009"><a xlink:href="fcntl_8h_source.html" target="_top" xlink:title=" ">
<polygon fill="white" stroke="#666666" points="246.75,-74.5 186.5,-74.5 186.5,-55.25 246.75,-55.25 246.75,-74.5"/>
<text text-anchor="middle" x="216.62" y="-61" font-family="Helvetica,sans-Serif" font-size="10.00">sys/fcntl.h</text>
</a>
</g>
</g>
<!-- Node8&#45;&gt;Node9 -->
<g id="edge8_Node000008_Node000009" class="edge">
<title>Node8&#45;&gt;Node9</title>
<g id="a_edge8_Node000008_Node000009"><a xlink:title=" ">
<path fill="none" stroke="#63b8ff" d="M216.62,-110.33C216.62,-103.82 216.62,-94.67 216.62,-86.37"/>
<polygon fill="#63b8ff" stroke="#63b8ff" points="220.13,-86.37 216.63,-76.37 213.13,-86.37 220.13,-86.37"/>
</a>
</g>
</g>
<!-- Node10 -->
<g id="Node000010" class="node">
<title>Node10</title>
<g id="a_Node000010"><a xlink:href="unistd_8h_source.html" target="_top" xlink:title=" ">
<polygon fill="white" stroke="#666666" points="332.5,-74.5 264.75,-74.5 264.75,-55.25 332.5,-55.25 332.5,-74.5"/>
<text text-anchor="middle" x="298.62" y="-61" font-family="Helvetica,sans-Serif" font-size="10.00">sys/unistd.h</text>
</a>
</g>
</g>
<!-- Node8&#45;&gt;Node10 -->
<g id="edge9_Node000008_Node000010" class="edge">
<title>Node8&#45;&gt;Node10</title>
<g id="a_edge9_Node000008_Node000010"><a xlink:title=" ">
<path fill="none" stroke="#63b8ff" d="M230.54,-110.09C242.79,-102.14 260.88,-90.39 275.34,-81"/>
<polygon fill="#63b8ff" stroke="#63b8ff" points="276.9,-84.16 283.38,-75.78 273.08,-78.29 276.9,-84.16"/>
</a>
</g>
</g>
</g>
</svg>
</svg>

<style type='text/css'>
<![CDATA[
[data-mouse-over-selected='false'] { opacity: 0.7; }
[data-mouse-over-selected='true']  { opacity: 1.0; }
]]>
</style>
<script type="application/ecmascript"><![CDATA[
document.addEventListener('DOMContentLoaded', (event) => {
  highlightEdges();
  highlightAdjacentNodes();
});
]]></script>
</svg>
