<?xml version="1.0" encoding="UTF-8" standalone="no"?>
<!DOCTYPE svg PUBLIC "-//W3C//DTD SVG 1.1//EN"
 "http://www.w3.org/Graphics/SVG/1.1/DTD/svg11.dtd">
<!-- Generated by graphviz version 12.2.0 (20241103.1931)
 -->
<!-- Title: iop/system/iomanx/include/iomanX.h Pages: 1 -->
<svg width="356pt" height="149pt"
 viewBox="0.00 0.00 355.50 149.00" xmlns="http://www.w3.org/2000/svg" xmlns:xlink="http://www.w3.org/1999/xlink">
<g id="graph0" class="graph" transform="scale(1 1) rotate(0) translate(4 145)">
<title>iop/system/iomanx/include/iomanX.h</title>
<!-- Node1 -->
<g id="Node000001" class="node">
<title>Node1</title>
<g id="a_Node000001"><a xlink:title=" ">
<polygon fill="#999999" stroke="#666666" points="218.75,-141 88,-141 88,-110.5 218.75,-110.5 218.75,-141"/>
<text text-anchor="start" x="96" y="-127.5" font-family="Helvetica,sans-Serif" font-size="10.00">iop/system/iomanx/include</text>
<text text-anchor="middle" x="153.38" y="-116.25" font-family="Helvetica,sans-Serif" font-size="10.00">/iomanX.h</text>
</a>
</g>
</g>
<!-- Node2 -->
<g id="Node000002" class="node">
<title>Node2</title>
<g id="a_Node000002"><a xlink:title=" ">
<polygon fill="#e0e0e0" stroke="#999999" points="46.75,-74.5 0,-74.5 0,-55.25 46.75,-55.25 46.75,-74.5"/>
<text text-anchor="middle" x="23.38" y="-61" font-family="Helvetica,sans-Serif" font-size="10.00">types.h</text>
</a>
</g>
</g>
<!-- Node1&#45;&gt;Node2 -->
<g id="edge1_Node000001_Node000002" class="edge">
<title>Node1&#45;&gt;Node2</title>
<g id="a_edge1_Node000001_Node000002"><a xlink:title=" ">
<path fill="none" stroke="#63b8ff" d="M120.91,-110.05C100.35,-100.73 73.94,-88.77 53.79,-79.65"/>
<polygon fill="#63b8ff" stroke="#63b8ff" points="55.24,-76.47 44.69,-75.53 52.36,-82.84 55.24,-76.47"/>
</a>
</g>
</g>
<!-- Node3 -->
<g id="Node000003" class="node">
<title>Node3</title>
<g id="a_Node000003"><a xlink:href="errno_8h.html" target="_top" xlink:title=" ">
<polygon fill="white" stroke="#666666" points="110,-74.5 64.75,-74.5 64.75,-55.25 110,-55.25 110,-74.5"/>
<text text-anchor="middle" x="87.38" y="-61" font-family="Helvetica,sans-Serif" font-size="10.00">errno.h</text>
</a>
</g>
</g>
<!-- Node1&#45;&gt;Node3 -->
<g id="edge2_Node000001_Node000003" class="edge">
<title>Node1&#45;&gt;Node3</title>
<g id="a_edge2_Node000001_Node000003"><a xlink:title=" ">
<path fill="none" stroke="#63b8ff" d="M137.06,-110.2C127.69,-101.84 115.88,-91.3 106.12,-82.6"/>
<polygon fill="#63b8ff" stroke="#63b8ff" points="108.47,-80 98.68,-75.96 103.81,-85.23 108.47,-80"/>
</a>
</g>
</g>
<!-- Node4 -->
<g id="Node000004" class="node">
<title>Node4</title>
<g id="a_Node000004"><a xlink:title=" ">
<polygon fill="#e0e0e0" stroke="#999999" points="178.62,-74.5 128.12,-74.5 128.12,-55.25 178.62,-55.25 178.62,-74.5"/>
<text text-anchor="middle" x="153.38" y="-61" font-family="Helvetica,sans-Serif" font-size="10.00">stdarg.h</text>
</a>
</g>
</g>
<!-- Node1&#45;&gt;Node4 -->
<g id="edge3_Node000001_Node000004" class="edge">
<title>Node1&#45;&gt;Node4</title>
<g id="a_edge3_Node000001_Node000004"><a xlink:title=" ">
<path fill="none" stroke="#63b8ff" d="M153.38,-110.2C153.38,-102.96 153.38,-94.09 153.38,-86.19"/>
<polygon fill="#63b8ff" stroke="#63b8ff" points="156.88,-86.46 153.38,-76.46 149.88,-86.46 156.88,-86.46"/>
</a>
</g>
</g>
<!-- Node5 -->
<g id="Node000005" class="node">
<title>Node5</title>
<g id="a_Node000005"><a xlink:href="io__common_8h.html" target="_top" xlink:title=" ">
<polygon fill="white" stroke="#666666" points="270.25,-74.5 196.5,-74.5 196.5,-55.25 270.25,-55.25 270.25,-74.5"/>
<text text-anchor="middle" x="233.38" y="-61" font-family="Helvetica,sans-Serif" font-size="10.00">io_common.h</text>
</a>
</g>
</g>
<!-- Node1&#45;&gt;Node5 -->
<g id="edge4_Node000001_Node000005" class="edge">
<title>Node1&#45;&gt;Node5</title>
<g id="a_edge4_Node000001_Node000005"><a xlink:title=" ">
<path fill="none" stroke="#63b8ff" d="M173.15,-110.2C184.98,-101.49 200.01,-90.43 212.1,-81.53"/>
<polygon fill="#63b8ff" stroke="#63b8ff" points="213.84,-84.59 219.82,-75.85 209.69,-78.96 213.84,-84.59"/>
</a>
</g>
</g>
<!-- Node8 -->
<g id="Node000008" class="node">
<title>Node8</title>
<g id="a_Node000008"><a xlink:href="iox__stat_8h.html" target="_top" xlink:title=" ">
<polygon fill="white" stroke="#666666" points="346,-74.5 288.75,-74.5 288.75,-55.25 346,-55.25 346,-74.5"/>
<text text-anchor="middle" x="317.38" y="-61" font-family="Helvetica,sans-Serif" font-size="10.00">iox_stat.h</text>
</a>
</g>
</g>
<!-- Node1&#45;&gt;Node8 -->
<g id="edge7_Node000001_Node000008" class="edge">
<title>Node1&#45;&gt;Node8</title>
<g id="a_edge7_Node000001_Node000008"><a xlink:title=" ">
<path fill="none" stroke="#63b8ff" d="M194.34,-110.05C221.11,-100.43 255.76,-88 281.46,-78.77"/>
<polygon fill="#63b8ff" stroke="#63b8ff" points="282.57,-82.09 290.8,-75.42 280.21,-75.5 282.57,-82.09"/>
</a>
</g>
</g>
<!-- Node6 -->
<g id="Node000006" class="node">
<title>Node6</title>
<g id="a_Node000006"><a xlink:href="fcntl_8h_source.html" target="_top" xlink:title=" ">
<polygon fill="white" stroke="#666666" points="182.5,-19.25 122.25,-19.25 122.25,0 182.5,0 182.5,-19.25"/>
<text text-anchor="middle" x="152.38" y="-5.75" font-family="Helvetica,sans-Serif" font-size="10.00">sys/fcntl.h</text>
</a>
</g>
</g>
<!-- Node5&#45;&gt;Node6 -->
<g id="edge5_Node000005_Node000006" class="edge">
<title>Node5&#45;&gt;Node6</title>
<g id="a_edge5_Node000005_Node000006"><a xlink:title=" ">
<path fill="none" stroke="#63b8ff" d="M219.63,-54.84C207.65,-46.96 190,-35.36 175.79,-26.02"/>
<polygon fill="#63b8ff" stroke="#63b8ff" points="177.73,-23.1 167.45,-20.53 173.88,-28.95 177.73,-23.1"/>
</a>
</g>
</g>
<!-- Node7 -->
<g id="Node000007" class="node">
<title>Node7</title>
<g id="a_Node000007"><a xlink:href="unistd_8h_source.html" target="_top" xlink:title=" ">
<polygon fill="white" stroke="#666666" points="268.25,-19.25 200.5,-19.25 200.5,0 268.25,0 268.25,-19.25"/>
<text text-anchor="middle" x="234.38" y="-5.75" font-family="Helvetica,sans-Serif" font-size="10.00">sys/unistd.h</text>
</a>
</g>
</g>
<!-- Node5&#45;&gt;Node7 -->
<g id="edge6_Node000005_Node000007" class="edge">
<title>Node5&#45;&gt;Node7</title>
<g id="a_edge6_Node000005_Node000007"><a xlink:title=" ">
<path fill="none" stroke="#63b8ff" d="M233.54,-55.08C233.66,-48.57 233.83,-39.42 233.99,-31.12"/>
<polygon fill="#63b8ff" stroke="#63b8ff" points="237.49,-31.19 234.18,-21.12 230.49,-31.05 237.49,-31.19"/>
</a>
</g>
</g>
<!-- Node9 -->
<g id="Node000009" class="node">
<title>Node9</title>
<g id="a_Node000009"><a xlink:href="time_8h.html" target="_top" xlink:title=" ">
<polygon fill="white" stroke="#666666" points="347.5,-19.25 287.25,-19.25 287.25,0 347.5,0 347.5,-19.25"/>
<text text-anchor="middle" x="317.38" y="-5.75" font-family="Helvetica,sans-Serif" font-size="10.00">sys/time.h</text>
</a>
</g>
</g>
<!-- Node8&#45;&gt;Node9 -->
<g id="edge8_Node000008_Node000009" class="edge">
<title>Node8&#45;&gt;Node9</title>
<g id="a_edge8_Node000008_Node000009"><a xlink:title=" ">
<path fill="none" stroke="#63b8ff" d="M317.38,-55.08C317.38,-48.57 317.38,-39.42 317.38,-31.12"/>
<polygon fill="#63b8ff" stroke="#63b8ff" points="320.88,-31.12 317.38,-21.12 313.88,-31.12 320.88,-31.12"/>
</a>
</g>
</g>
</g>
</svg>
