<?xml version="1.0" encoding="UTF-8" standalone="no"?>
<!DOCTYPE svg PUBLIC "-//W3C//DTD SVG 1.1//EN"
 "http://www.w3.org/Graphics/SVG/1.1/DTD/svg11.dtd">
<!-- Generated by graphviz version 12.2.0 (20241103.1931)
 -->
<!-- Title: iop/system/iomanx/src/iomanX.c Pages: 1 -->
<svg width="555pt" height="315pt"
 viewBox="0.00 0.00 554.83 314.75" xmlns="http://www.w3.org/2000/svg" xmlns:xlink="http://www.w3.org/1999/xlink">
<g id="graph0" class="graph" transform="scale(1 1) rotate(0) translate(4 310.75)">
<title>iop/system/iomanx/src/iomanX.c</title>
<!-- Node1 -->
<g id="Node000001" class="node">
<title>Node1</title>
<g id="a_Node000001"><a xlink:title=" ">
<polygon fill="#999999" stroke="#666666" points="274.95,-306.75 161.45,-306.75 161.45,-276.25 274.95,-276.25 274.95,-306.75"/>
<text text-anchor="start" x="169.45" y="-293.25" font-family="Helvetica,sans-Serif" font-size="10.00">iop/system/iomanx/src</text>
<text text-anchor="middle" x="218.2" y="-282" font-family="Helvetica,sans-Serif" font-size="10.00">/iomanX.c</text>
</a>
</g>
</g>
<!-- Node2 -->
<g id="Node000002" class="node">
<title>Node2</title>
<g id="a_Node000002"><a xlink:href="string_8h_source.html" target="_top" xlink:title=" ">
<polygon fill="white" stroke="#666666" points="181.95,-240.25 134.45,-240.25 134.45,-221 181.95,-221 181.95,-240.25"/>
<text text-anchor="middle" x="158.2" y="-226.75" font-family="Helvetica,sans-Serif" font-size="10.00">string.h</text>
</a>
</g>
</g>
<!-- Node1&#45;&gt;Node2 -->
<g id="edge1_Node000001_Node000002" class="edge">
<title>Node1&#45;&gt;Node2</title>
<g id="a_edge1_Node000001_Node000002"><a xlink:title=" ">
<path fill="none" stroke="#63b8ff" d="M203.37,-275.95C194.94,-267.67 184.33,-257.27 175.52,-248.62"/>
<polygon fill="#63b8ff" stroke="#63b8ff" points="178.12,-246.27 168.53,-241.76 173.22,-251.26 178.12,-246.27"/>
</a>
</g>
</g>
<!-- Node4 -->
<g id="Node000004" class="node">
<title>Node4</title>
<g id="a_Node000004"><a xlink:title=" ">
<polygon fill="#e0e0e0" stroke="#999999" points="66.58,-129.75 19.83,-129.75 19.83,-110.5 66.58,-110.5 66.58,-129.75"/>
<text text-anchor="middle" x="43.2" y="-116.25" font-family="Helvetica,sans-Serif" font-size="10.00">types.h</text>
</a>
</g>
</g>
<!-- Node1&#45;&gt;Node4 -->
<g id="edge12_Node000001_Node000004" class="edge">
<title>Node1&#45;&gt;Node4</title>
<g id="a_edge12_Node000001_Node000004"><a xlink:title=" ">
<path fill="none" stroke="#63b8ff" d="M160.97,-280.89C108.83,-268.68 35.21,-241.89 3.2,-185 -6.15,-168.38 8.11,-149.98 22.13,-137.21"/>
<polygon fill="#63b8ff" stroke="#63b8ff" points="24.07,-140.16 29.46,-131.04 19.56,-134.81 24.07,-140.16"/>
</a>
</g>
</g>
<!-- Node9 -->
<g id="Node000009" class="node">
<title>Node9</title>
<g id="a_Node000009"><a xlink:title=" ">
<polygon fill="#e0e0e0" stroke="#999999" points="292.45,-129.75 241.95,-129.75 241.95,-110.5 292.45,-110.5 292.45,-129.75"/>
<text text-anchor="middle" x="267.2" y="-116.25" font-family="Helvetica,sans-Serif" font-size="10.00">stdarg.h</text>
</a>
</g>
</g>
<!-- Node1&#45;&gt;Node9 -->
<g id="edge29_Node000001_Node000009" class="edge">
<title>Node1&#45;&gt;Node9</title>
<g id="a_edge29_Node000001_Node000009"><a xlink:title=" ">
<path fill="none" stroke="#63b8ff" d="M222.56,-275.84C228.61,-255.47 239.85,-217.47 249.2,-185 253.41,-170.39 258.06,-153.86 261.58,-141.28"/>
<polygon fill="#63b8ff" stroke="#63b8ff" points="264.94,-142.26 264.26,-131.69 258.2,-140.38 264.94,-142.26"/>
</a>
</g>
</g>
<!-- Node12 -->
<g id="Node000012" class="node">
<title>Node12</title>
<g id="a_Node000012"><a xlink:href="intrman_8h.html" target="_top" xlink:title=" ">
<polygon fill="white" stroke="#666666" points="68.08,-185 12.33,-185 12.33,-165.75 68.08,-165.75 68.08,-185"/>
<text text-anchor="middle" x="40.2" y="-171.5" font-family="Helvetica,sans-Serif" font-size="10.00">intrman.h</text>
</a>
</g>
</g>
<!-- Node1&#45;&gt;Node12 -->
<g id="edge13_Node000001_Node000012" class="edge">
<title>Node1&#45;&gt;Node12</title>
<g id="a_edge13_Node000001_Node000012"><a xlink:title=" ">
<path fill="none" stroke="#63b8ff" d="M188.24,-275.75C169.68,-266.27 145.6,-253.32 125.2,-240.25 101.94,-225.35 76.84,-206.04 59.98,-192.57"/>
<polygon fill="#63b8ff" stroke="#63b8ff" points="62.25,-189.91 52.27,-186.35 57.85,-195.35 62.25,-189.91"/>
</a>
</g>
</g>
<!-- Node13 -->
<g id="Node000013" class="node">
<title>Node13</title>
<g id="a_Node000013"><a xlink:href="stdio_8h.html" target="_top" xlink:title=" ">
<polygon fill="white" stroke="#666666" points="240.45,-185 195.95,-185 195.95,-165.75 240.45,-165.75 240.45,-185"/>
<text text-anchor="middle" x="218.2" y="-171.5" font-family="Helvetica,sans-Serif" font-size="10.00">stdio.h</text>
</a>
</g>
</g>
<!-- Node1&#45;&gt;Node13 -->
<g id="edge16_Node000001_Node000013" class="edge">
<title>Node1&#45;&gt;Node13</title>
<g id="a_edge16_Node000001_Node000013"><a xlink:title=" ">
<path fill="none" stroke="#63b8ff" d="M218.2,-276.05C218.2,-256 218.2,-219.65 218.2,-196.82"/>
<polygon fill="#63b8ff" stroke="#63b8ff" points="221.7,-196.96 218.2,-186.96 214.7,-196.96 221.7,-196.96"/>
</a>
</g>
</g>
<!-- Node14 -->
<g id="Node000014" class="node">
<title>Node14</title>
<g id="a_Node000014"><a xlink:href="ioman_x_8h.html" target="_top" xlink:title=" ">
<polygon fill="white" stroke="#666666" points="375.45,-240.25 318.95,-240.25 318.95,-221 375.45,-221 375.45,-240.25"/>
<text text-anchor="middle" x="347.2" y="-226.75" font-family="Helvetica,sans-Serif" font-size="10.00">iomanX.h</text>
</a>
</g>
</g>
<!-- Node1&#45;&gt;Node14 -->
<g id="edge19_Node000001_Node000014" class="edge">
<title>Node1&#45;&gt;Node14</title>
<g id="a_edge19_Node000001_Node000014"><a xlink:title=" ">
<path fill="none" stroke="#63b8ff" d="M250.42,-275.8C270.82,-266.48 297.03,-254.52 317.02,-245.4"/>
<polygon fill="#63b8ff" stroke="#63b8ff" points="318.4,-248.62 326.04,-241.28 315.49,-242.25 318.4,-248.62"/>
</a>
</g>
</g>
<!-- Node15 -->
<g id="Node000015" class="node">
<title>Node15</title>
<g id="a_Node000015"><a xlink:href="errno_8h.html" target="_top" xlink:title=" ">
<polygon fill="white" stroke="#666666" points="546.83,-185 501.58,-185 501.58,-165.75 546.83,-165.75 546.83,-185"/>
<text text-anchor="middle" x="524.2" y="-171.5" font-family="Helvetica,sans-Serif" font-size="10.00">errno.h</text>
</a>
</g>
</g>
<!-- Node1&#45;&gt;Node15 -->
<g id="edge28_Node000001_Node000015" class="edge">
<title>Node1&#45;&gt;Node15</title>
<g id="a_edge28_Node000001_Node000015"><a xlink:title=" ">
<path fill="none" stroke="#63b8ff" d="M273.4,-275.8C305.99,-266.62 347.86,-253.97 384.2,-240.25 423.92,-225.26 468.27,-204.26 496.2,-190.5"/>
<polygon fill="#63b8ff" stroke="#63b8ff" points="497.65,-193.69 505.05,-186.1 494.54,-187.42 497.65,-193.69"/>
</a>
</g>
</g>
<!-- Node3 -->
<g id="Node000003" class="node">
<title>Node3</title>
<g id="a_Node000003"><a xlink:href="sysclib_8h.html" target="_top" xlink:title=" ">
<polygon fill="white" stroke="#666666" points="177.95,-185 124.45,-185 124.45,-165.75 177.95,-165.75 177.95,-185"/>
<text text-anchor="middle" x="151.2" y="-171.5" font-family="Helvetica,sans-Serif" font-size="10.00">sysclib.h</text>
</a>
</g>
</g>
<!-- Node2&#45;&gt;Node3 -->
<g id="edge2_Node000002_Node000003" class="edge">
<title>Node2&#45;&gt;Node3</title>
<g id="a_edge2_Node000002_Node000003"><a xlink:title=" ">
<path fill="none" stroke="#63b8ff" d="M157.04,-220.83C156.18,-214.24 154.96,-204.96 153.86,-196.57"/>
<polygon fill="#63b8ff" stroke="#63b8ff" points="157.35,-196.32 152.58,-186.86 150.41,-197.23 157.35,-196.32"/>
</a>
</g>
</g>
<!-- Node3&#45;&gt;Node4 -->
<g id="edge3_Node000003_Node000004" class="edge">
<title>Node3&#45;&gt;Node4</title>
<g id="a_edge3_Node000003_Node000004"><a xlink:title=" ">
<path fill="none" stroke="#63b8ff" d="M132.88,-165.34C116.12,-157.08 91.07,-144.73 71.7,-135.18"/>
<polygon fill="#63b8ff" stroke="#63b8ff" points="73.49,-132.15 62.97,-130.87 70.39,-138.43 73.49,-132.15"/>
</a>
</g>
</g>
<!-- Node5 -->
<g id="Node000005" class="node">
<title>Node5</title>
<g id="a_Node000005"><a xlink:href="irx_8h.html" target="_top" xlink:title=" ">
<polygon fill="white" stroke="#666666" points="119.83,-129.75 86.58,-129.75 86.58,-110.5 119.83,-110.5 119.83,-129.75"/>
<text text-anchor="middle" x="103.2" y="-116.25" font-family="Helvetica,sans-Serif" font-size="10.00">irx.h</text>
</a>
</g>
</g>
<!-- Node3&#45;&gt;Node5 -->
<g id="edge4_Node000003_Node000005" class="edge">
<title>Node3&#45;&gt;Node5</title>
<g id="a_edge4_Node000003_Node000005"><a xlink:title=" ">
<path fill="none" stroke="#63b8ff" d="M143.27,-165.58C136.64,-158.23 126.98,-147.51 118.81,-138.44"/>
<polygon fill="#63b8ff" stroke="#63b8ff" points="121.61,-136.32 112.31,-131.23 116.41,-141 121.61,-136.32"/>
</a>
</g>
</g>
<!-- Node3&#45;&gt;Node9 -->
<g id="edge8_Node000003_Node000009" class="edge">
<title>Node3&#45;&gt;Node9</title>
<g id="a_edge8_Node000003_Node000009"><a xlink:title=" ">
<path fill="none" stroke="#63b8ff" d="M170.88,-165.34C189.04,-157 216.28,-144.5 237.17,-134.91"/>
<polygon fill="#63b8ff" stroke="#63b8ff" points="238.42,-138.19 246.05,-130.83 235.5,-131.83 238.42,-138.19"/>
</a>
</g>
</g>
<!-- Node10 -->
<g id="Node000010" class="node">
<title>Node10</title>
<g id="a_Node000010"><a xlink:href="setjmp_8h.html" target="_top" xlink:title=" ">
<polygon fill="white" stroke="#666666" points="186.58,-74.5 133.83,-74.5 133.83,-55.25 186.58,-55.25 186.58,-74.5"/>
<text text-anchor="middle" x="160.2" y="-61" font-family="Helvetica,sans-Serif" font-size="10.00">setjmp.h</text>
</a>
</g>
</g>
<!-- Node3&#45;&gt;Node10 -->
<g id="edge9_Node000003_Node000010" class="edge">
<title>Node3&#45;&gt;Node10</title>
<g id="a_edge9_Node000003_Node000010"><a xlink:title=" ">
<path fill="none" stroke="#63b8ff" d="M151.94,-165.5C153.37,-148.25 156.55,-109.83 158.53,-86.06"/>
<polygon fill="#63b8ff" stroke="#63b8ff" points="161.99,-86.64 159.33,-76.39 155.01,-86.06 161.99,-86.64"/>
</a>
</g>
</g>
<!-- Node11 -->
<g id="Node000011" class="node">
<title>Node11</title>
<g id="a_Node000011"><a xlink:href="ctype_8h.html" target="_top" xlink:title=" ">
<polygon fill="white" stroke="#666666" points="223.58,-129.75 176.83,-129.75 176.83,-110.5 223.58,-110.5 223.58,-129.75"/>
<text text-anchor="middle" x="200.2" y="-116.25" font-family="Helvetica,sans-Serif" font-size="10.00">ctype.h</text>
</a>
</g>
</g>
<!-- Node3&#45;&gt;Node11 -->
<g id="edge11_Node000003_Node000011" class="edge">
<title>Node3&#45;&gt;Node11</title>
<g id="a_edge11_Node000003_Node000011"><a xlink:title=" ">
<path fill="none" stroke="#63b8ff" d="M159.29,-165.58C166.06,-158.23 175.92,-147.51 184.26,-138.44"/>
<polygon fill="#63b8ff" stroke="#63b8ff" points="186.71,-140.95 190.91,-131.22 181.56,-136.21 186.71,-140.95"/>
</a>
</g>
</g>
<!-- Node6 -->
<g id="Node000006" class="node">
<title>Node6</title>
<g id="a_Node000006"><a xlink:href="iop_2kernel_2include_2types_8h_source.html" target="_top" xlink:title=" ">
<polygon fill="white" stroke="#666666" points="115.58,-74.5 68.83,-74.5 68.83,-55.25 115.58,-55.25 115.58,-74.5"/>
<text text-anchor="middle" x="92.2" y="-61" font-family="Helvetica,sans-Serif" font-size="10.00">types.h</text>
</a>
</g>
</g>
<!-- Node5&#45;&gt;Node6 -->
<g id="edge5_Node000005_Node000006" class="edge">
<title>Node5&#45;&gt;Node6</title>
<g id="a_edge5_Node000005_Node000006"><a xlink:title=" ">
<path fill="none" stroke="#63b8ff" d="M101.38,-110.33C100.02,-103.74 98.1,-94.46 96.37,-86.07"/>
<polygon fill="#63b8ff" stroke="#63b8ff" points="99.81,-85.43 94.36,-76.34 92.96,-86.84 99.81,-85.43"/>
</a>
</g>
</g>
<!-- Node7 -->
<g id="Node000007" class="node">
<title>Node7</title>
<g id="a_Node000007"><a xlink:title=" ">
<polygon fill="#e0e0e0" stroke="#999999" points="110.45,-19.25 59.95,-19.25 59.95,0 110.45,0 110.45,-19.25"/>
<text text-anchor="middle" x="85.2" y="-5.75" font-family="Helvetica,sans-Serif" font-size="10.00">stddef.h</text>
</a>
</g>
</g>
<!-- Node6&#45;&gt;Node7 -->
<g id="edge6_Node000006_Node000007" class="edge">
<title>Node6&#45;&gt;Node7</title>
<g id="a_edge6_Node000006_Node000007"><a xlink:title=" ">
<path fill="none" stroke="#63b8ff" d="M91.04,-55.08C90.18,-48.49 88.96,-39.21 87.86,-30.82"/>
<polygon fill="#63b8ff" stroke="#63b8ff" points="91.35,-30.57 86.58,-21.11 84.41,-31.48 91.35,-30.57"/>
</a>
</g>
</g>
<!-- Node8 -->
<g id="Node000008" class="node">
<title>Node8</title>
<g id="a_Node000008"><a xlink:href="tamtypes_8h.html" target="_top" xlink:title=" ">
<polygon fill="white" stroke="#666666" points="191.83,-19.25 128.58,-19.25 128.58,0 191.83,0 191.83,-19.25"/>
<text text-anchor="middle" x="160.2" y="-5.75" font-family="Helvetica,sans-Serif" font-size="10.00">tamtypes.h</text>
</a>
</g>
</g>
<!-- Node6&#45;&gt;Node8 -->
<g id="edge7_Node000006_Node000008" class="edge">
<title>Node6&#45;&gt;Node8</title>
<g id="a_edge7_Node000006_Node000008"><a xlink:title=" ">
<path fill="none" stroke="#63b8ff" d="M103.74,-54.84C113.66,-47.07 128.21,-35.67 140.06,-26.4"/>
<polygon fill="#63b8ff" stroke="#63b8ff" points="141.93,-29.38 147.64,-20.46 137.61,-23.87 141.93,-29.38"/>
</a>
</g>
</g>
<!-- Node10&#45;&gt;Node8 -->
<g id="edge10_Node000010_Node000008" class="edge">
<title>Node10&#45;&gt;Node8</title>
<g id="a_edge10_Node000010_Node000008"><a xlink:title=" ">
<path fill="none" stroke="#63b8ff" d="M160.2,-55.08C160.2,-48.57 160.2,-39.42 160.2,-31.12"/>
<polygon fill="#63b8ff" stroke="#63b8ff" points="163.7,-31.12 160.2,-21.12 156.7,-31.12 163.7,-31.12"/>
</a>
</g>
</g>
<!-- Node12&#45;&gt;Node4 -->
<g id="edge14_Node000012_Node000004" class="edge">
<title>Node12&#45;&gt;Node4</title>
<g id="a_edge14_Node000012_Node000004"><a xlink:title=" ">
<path fill="none" stroke="#63b8ff" d="M40.7,-165.58C41.07,-158.99 41.59,-149.71 42.06,-141.32"/>
<polygon fill="#63b8ff" stroke="#63b8ff" points="45.54,-141.8 42.61,-131.62 38.55,-141.41 45.54,-141.8"/>
</a>
</g>
</g>
<!-- Node12&#45;&gt;Node5 -->
<g id="edge15_Node000012_Node000005" class="edge">
<title>Node12&#45;&gt;Node5</title>
<g id="a_edge15_Node000012_Node000005"><a xlink:title=" ">
<path fill="none" stroke="#63b8ff" d="M50.89,-165.34C59.9,-157.72 73.03,-146.62 83.88,-137.45"/>
<polygon fill="#63b8ff" stroke="#63b8ff" points="86.14,-140.13 91.52,-131 81.62,-134.78 86.14,-140.13"/>
</a>
</g>
</g>
<!-- Node13&#45;&gt;Node5 -->
<g id="edge18_Node000013_Node000005" class="edge">
<title>Node13&#45;&gt;Node5</title>
<g id="a_edge18_Node000013_Node000005"><a xlink:title=" ">
<path fill="none" stroke="#63b8ff" d="M198.69,-165.34C179.92,-156.65 151.37,-143.43 130.37,-133.71"/>
<polygon fill="#63b8ff" stroke="#63b8ff" points="132.1,-130.65 121.55,-129.62 129.15,-137 132.1,-130.65"/>
</a>
</g>
</g>
<!-- Node13&#45;&gt;Node9 -->
<g id="edge17_Node000013_Node000009" class="edge">
<title>Node13&#45;&gt;Node9</title>
<g id="a_edge17_Node000013_Node000009"><a xlink:title=" ">
<path fill="none" stroke="#63b8ff" d="M226.29,-165.58C233.06,-158.23 242.92,-147.51 251.26,-138.44"/>
<polygon fill="#63b8ff" stroke="#63b8ff" points="253.71,-140.95 257.91,-131.22 248.56,-136.21 253.71,-140.95"/>
</a>
</g>
</g>
<!-- Node14&#45;&gt;Node4 -->
<g id="edge20_Node000014_Node000004" class="edge">
<title>Node14&#45;&gt;Node4</title>
<g id="a_edge20_Node000014_Node000004"><a xlink:title=" ">
<path fill="none" stroke="#63b8ff" d="M318.53,-228.94C273.13,-226.82 182.9,-218.36 115.2,-185 92.36,-173.75 71.2,-153.26 57.81,-138.52"/>
<polygon fill="#63b8ff" stroke="#63b8ff" points="60.76,-136.57 51.54,-131.35 55.49,-141.18 60.76,-136.57"/>
</a>
</g>
</g>
<!-- Node14&#45;&gt;Node9 -->
<g id="edge22_Node000014_Node000009" class="edge">
<title>Node14&#45;&gt;Node9</title>
<g id="a_edge22_Node000014_Node000009"><a xlink:title=" ">
<path fill="none" stroke="#63b8ff" d="M340.65,-220.75C327.59,-203.02 298.03,-162.94 280.66,-139.38"/>
<polygon fill="#63b8ff" stroke="#63b8ff" points="283.49,-137.32 274.74,-131.34 277.85,-141.47 283.49,-137.32"/>
</a>
</g>
</g>
<!-- Node14&#45;&gt;Node15 -->
<g id="edge21_Node000014_Node000015" class="edge">
<title>Node14&#45;&gt;Node15</title>
<g id="a_edge21_Node000014_Node000015"><a xlink:title=" ">
<path fill="none" stroke="#63b8ff" d="M375.64,-221.07C406.85,-211.68 456.92,-196.62 490.18,-186.61"/>
<polygon fill="#63b8ff" stroke="#63b8ff" points="491.17,-189.97 499.74,-183.73 489.16,-183.26 491.17,-189.97"/>
</a>
</g>
</g>
<!-- Node16 -->
<g id="Node000016" class="node">
<title>Node16</title>
<g id="a_Node000016"><a xlink:href="io__common_8h.html" target="_top" xlink:title=" ">
<polygon fill="white" stroke="#666666" points="408.08,-185 334.33,-185 334.33,-165.75 408.08,-165.75 408.08,-185"/>
<text text-anchor="middle" x="371.2" y="-171.5" font-family="Helvetica,sans-Serif" font-size="10.00">io_common.h</text>
</a>
</g>
</g>
<!-- Node14&#45;&gt;Node16 -->
<g id="edge23_Node000014_Node000016" class="edge">
<title>Node14&#45;&gt;Node16</title>
<g id="a_edge23_Node000014_Node000016"><a xlink:title=" ">
<path fill="none" stroke="#63b8ff" d="M351.16,-220.83C354.24,-214.01 358.61,-204.31 362.49,-195.7"/>
<polygon fill="#63b8ff" stroke="#63b8ff" points="365.61,-197.29 366.53,-186.74 359.23,-194.42 365.61,-197.29"/>
</a>
</g>
</g>
<!-- Node19 -->
<g id="Node000019" class="node">
<title>Node19</title>
<g id="a_Node000019"><a xlink:href="iox__stat_8h.html" target="_top" xlink:title=" ">
<polygon fill="white" stroke="#666666" points="483.83,-185 426.58,-185 426.58,-165.75 483.83,-165.75 483.83,-185"/>
<text text-anchor="middle" x="455.2" y="-171.5" font-family="Helvetica,sans-Serif" font-size="10.00">iox_stat.h</text>
</a>
</g>
</g>
<!-- Node14&#45;&gt;Node19 -->
<g id="edge26_Node000014_Node000019" class="edge">
<title>Node14&#45;&gt;Node19</title>
<g id="a_edge26_Node000014_Node000019"><a xlink:title=" ">
<path fill="none" stroke="#63b8ff" d="M365.52,-220.59C382.28,-212.33 407.33,-199.98 426.7,-190.43"/>
<polygon fill="#63b8ff" stroke="#63b8ff" points="428.01,-193.68 435.43,-186.12 424.92,-187.4 428.01,-193.68"/>
</a>
</g>
</g>
<!-- Node17 -->
<g id="Node000017" class="node">
<title>Node17</title>
<g id="a_Node000017"><a xlink:href="fcntl_8h_source.html" target="_top" xlink:title=" ">
<polygon fill="white" stroke="#666666" points="370.33,-129.75 310.08,-129.75 310.08,-110.5 370.33,-110.5 370.33,-129.75"/>
<text text-anchor="middle" x="340.2" y="-116.25" font-family="Helvetica,sans-Serif" font-size="10.00">sys/fcntl.h</text>
</a>
</g>
</g>
<!-- Node16&#45;&gt;Node17 -->
<g id="edge24_Node000016_Node000017" class="edge">
<title>Node16&#45;&gt;Node17</title>
<g id="a_edge24_Node000016_Node000017"><a xlink:title=" ">
<path fill="none" stroke="#63b8ff" d="M366.08,-165.58C362.02,-158.61 356.21,-148.62 351.11,-139.87"/>
<polygon fill="#63b8ff" stroke="#63b8ff" points="354.25,-138.3 346.19,-131.42 348.2,-141.82 354.25,-138.3"/>
</a>
</g>
</g>
<!-- Node18 -->
<g id="Node000018" class="node">
<title>Node18</title>
<g id="a_Node000018"><a xlink:href="unistd_8h_source.html" target="_top" xlink:title=" ">
<polygon fill="white" stroke="#666666" points="456.08,-129.75 388.33,-129.75 388.33,-110.5 456.08,-110.5 456.08,-129.75"/>
<text text-anchor="middle" x="422.2" y="-116.25" font-family="Helvetica,sans-Serif" font-size="10.00">sys/unistd.h</text>
</a>
</g>
</g>
<!-- Node16&#45;&gt;Node18 -->
<g id="edge25_Node000016_Node000018" class="edge">
<title>Node16&#45;&gt;Node18</title>
<g id="a_edge25_Node000016_Node000018"><a xlink:title=" ">
<path fill="none" stroke="#63b8ff" d="M379.62,-165.58C386.74,-158.15 397.14,-147.29 405.89,-138.16"/>
<polygon fill="#63b8ff" stroke="#63b8ff" points="408.16,-140.85 412.55,-131.2 403.1,-136 408.16,-140.85"/>
</a>
</g>
</g>
<!-- Node20 -->
<g id="Node000020" class="node">
<title>Node20</title>
<g id="a_Node000020"><a xlink:href="time_8h.html" target="_top" xlink:title=" ">
<polygon fill="white" stroke="#666666" points="534.33,-129.75 474.08,-129.75 474.08,-110.5 534.33,-110.5 534.33,-129.75"/>
<text text-anchor="middle" x="504.2" y="-116.25" font-family="Helvetica,sans-Serif" font-size="10.00">sys/time.h</text>
</a>
</g>
</g>
<!-- Node19&#45;&gt;Node20 -->
<g id="edge27_Node000019_Node000020" class="edge">
<title>Node19&#45;&gt;Node20</title>
<g id="a_edge27_Node000019_Node000020"><a xlink:title=" ">
<path fill="none" stroke="#63b8ff" d="M463.29,-165.58C470.06,-158.23 479.92,-147.51 488.26,-138.44"/>
<polygon fill="#63b8ff" stroke="#63b8ff" points="490.71,-140.95 494.91,-131.22 485.56,-136.21 490.71,-140.95"/>
</a>
</g>
</g>
</g>
</svg>
