<?xml version="1.0" encoding="UTF-8" standalone="no"?>
<!DOCTYPE svg PUBLIC "-//W3C//DTD SVG 1.1//EN"
 "http://www.w3.org/Graphics/SVG/1.1/DTD/svg11.dtd">
<!-- Generated by graphviz version 12.2.0 (20241103.1931)
 -->
<!-- Title: common/include/iop_mmio_hwport.h Pages: 1 -->
<svg width="358pt" height="105pt"
 viewBox="0.00 0.00 357.75 105.00" xmlns="http://www.w3.org/2000/svg" xmlns:xlink="http://www.w3.org/1999/xlink">
<g id="graph0" class="graph" transform="scale(1 1) rotate(0) translate(4 101)">
<title>common/include/iop_mmio_hwport.h</title>
<!-- Node1 -->
<g id="Node000001" class="node">
<title>Node1</title>
<g id="a_Node000001"><a xlink:title=" ">
<polygon fill="#999999" stroke="#666666" points="223.75,-97 120.75,-97 120.75,-66.5 223.75,-66.5 223.75,-97"/>
<text text-anchor="start" x="128.75" y="-83.5" font-family="Helvetica,sans-Serif" font-size="10.00">common/include/iop</text>
<text text-anchor="middle" x="172.25" y="-72.25" font-family="Helvetica,sans-Serif" font-size="10.00">_mmio_hwport.h</text>
</a>
</g>
</g>
<!-- Node2 -->
<g id="Node000002" class="node">
<title>Node2</title>
<g id="a_Node000002"><a xlink:href="intrman_8c_source.html" target="_top" xlink:title=" ">
<polygon fill="white" stroke="#666666" points="98.5,-30.5 0,-30.5 0,0 98.5,0 98.5,-30.5"/>
<text text-anchor="start" x="8" y="-17" font-family="Helvetica,sans-Serif" font-size="10.00">iop/system/intrman</text>
<text text-anchor="middle" x="49.25" y="-5.75" font-family="Helvetica,sans-Serif" font-size="10.00">/src/intrman.c</text>
</a>
</g>
</g>
<!-- Node1&#45;&gt;Node2 -->
<g id="edge1_Node000001_Node000002" class="edge">
<title>Node1&#45;&gt;Node2</title>
<g id="a_edge1_Node000001_Node000002"><a xlink:title=" ">
<path fill="none" stroke="#63b8ff" d="M134.19,-60.79C115.72,-51.11 93.93,-39.68 77.05,-30.83"/>
<polygon fill="#63b8ff" stroke="#63b8ff" points="132.52,-63.87 143,-65.41 135.77,-57.67 132.52,-63.87"/>
</a>
</g>
</g>
<!-- Node3 -->
<g id="Node000003" class="node">
<title>Node3</title>
<g id="a_Node000003"><a xlink:href="sifman_8c_source.html" target="_top" xlink:title=" ">
<polygon fill="white" stroke="#666666" points="228.25,-30.5 116.25,-30.5 116.25,0 228.25,0 228.25,-30.5"/>
<text text-anchor="start" x="124.25" y="-17" font-family="Helvetica,sans-Serif" font-size="10.00">iop/system/sifman/src</text>
<text text-anchor="middle" x="172.25" y="-5.75" font-family="Helvetica,sans-Serif" font-size="10.00">/sifman.c</text>
</a>
</g>
</g>
<!-- Node1&#45;&gt;Node3 -->
<g id="edge2_Node000001_Node000003" class="edge">
<title>Node1&#45;&gt;Node3</title>
<g id="a_edge2_Node000001_Node000003"><a xlink:title=" ">
<path fill="none" stroke="#63b8ff" d="M172.25,-54.81C172.25,-46.64 172.25,-37.91 172.25,-30.83"/>
<polygon fill="#63b8ff" stroke="#63b8ff" points="168.75,-54.6 172.25,-64.6 175.75,-54.6 168.75,-54.6"/>
</a>
</g>
</g>
<!-- Node4 -->
<g id="Node000004" class="node">
<title>Node4</title>
<g id="a_Node000004"><a xlink:href="sio2man_8c.html" target="_top" xlink:title=" ">
<polygon fill="white" stroke="#666666" points="349.75,-30.5 246.75,-30.5 246.75,0 349.75,0 349.75,-30.5"/>
<text text-anchor="start" x="254.75" y="-17" font-family="Helvetica,sans-Serif" font-size="10.00">iop/system/sio2man</text>
<text text-anchor="middle" x="298.25" y="-5.75" font-family="Helvetica,sans-Serif" font-size="10.00">/src/sio2man.c</text>
</a>
</g>
</g>
<!-- Node1&#45;&gt;Node4 -->
<g id="edge3_Node000001_Node000004" class="edge">
<title>Node1&#45;&gt;Node4</title>
<g id="a_edge3_Node000001_Node000004"><a xlink:title=" ">
<path fill="none" stroke="#63b8ff" d="M210.97,-60.93C229.95,-51.21 252.4,-39.72 269.77,-30.83"/>
<polygon fill="#63b8ff" stroke="#63b8ff" points="209.5,-57.75 202.19,-65.42 212.68,-63.98 209.5,-57.75"/>
</a>
</g>
</g>
</g>
</svg>
