<?xml version="1.0" encoding="UTF-8" standalone="no"?>
<!DOCTYPE svg PUBLIC "-//W3C//DTD SVG 1.1//EN"
 "http://www.w3.org/Graphics/SVG/1.1/DTD/svg11.dtd">
<!-- Generated by graphviz version 12.2.0 (20241103.1931)
 -->
<!-- Title: iop/system/iopmgr/src/main.c Pages: 1 -->
<!--zoomable 315 -->

<svg id="main" version="1.1" xmlns="http://www.w3.org/2000/svg" xmlns:xlink="http://www.w3.org/1999/xlink" xml:space="preserve" onload="init(evt)">

<style type="text/css"><![CDATA[
.node, .edge {opacity: 0.7;}
.node.selected, .edge.selected {opacity: 1;}
.edge:hover path { stroke: red; }
.edge:hover polygon { stroke: red; fill: red; }
]]></style>

<defs>
  <circle id="rim" cx="0" cy="0" r="7"/>
  <circle id="rim2" cx="0" cy="0" r="3.5"/>
  <g id="zoomPlus">
    <use xlink:href="#rim" fill="#404040"><set attributeName="fill" to="#808080" begin="zoomplus.mouseover" end="zoomplus.mouseout"/></use>
    <path d="M-4,0h8M0,-4v8" fill="none" stroke="white" stroke-width="1.5" pointer-events="none"/>
  </g>
  <g id="zoomMin">
    <use xlink:href="#rim" fill="#404040"><set attributeName="fill" to="#808080" begin="zoomminus.mouseover" end="zoomminus.mouseout"/></use>
    <path d="M-4,0h8" fill="none" stroke="white" stroke-width="1.5" pointer-events="none"/>
  </g>
  <g id="arrowUp" transform="translate(30 24)">
    <use xlink:href="#rim"/>
    <path pointer-events="none" fill="none" stroke="white" stroke-width="1.5" d="M0,-3.0v7 M-2.5,-0.5L0,-3.0L2.5,-0.5"/>
  </g>
  <g id="arrowRight" transform="rotate(90) translate(36 -43)">
    <use xlink:href="#rim"/>
    <path pointer-events="none" fill="none" stroke="white" stroke-width="1.5" d="M0,-3.0v7 M-2.5,-0.5L0,-3.0L2.5,-0.5"/>
  </g>
  <g id="arrowDown" transform="rotate(180) translate(-30 -48)">
    <use xlink:href="#rim"/>
    <path pointer-events="none" fill="none" stroke="white" stroke-width="1.5" d="M0,-3.0v7 M-2.5,-0.5L0,-3.0L2.5,-0.5"/>
  </g>
  <g id="arrowLeft" transform="rotate(270) translate(-36 17)">
    <use xlink:href="#rim"/>
    <path pointer-events="none" fill="none" stroke="white" stroke-width="1.5" d="M0,-3.0v7 M-2.5,-0.5L0,-3.0L2.5,-0.5"/>
  </g>
  <g id="resetDef">
    <use xlink:href="#rim2" fill="#404040"><set attributeName="fill" to="#808080" begin="reset.mouseover" end="reset.mouseout"/></use>
  </g>
</defs>
<script type="application/ecmascript">
var viewWidth = 557;
var viewHeight = 315;
var sectionId = 'dynsection-0';
</script>
<script type="application/ecmascript" xlink:href="svg.min.js"/>
<svg id="graph" class="graph">
<g id="viewport">
<title>iop/system/iopmgr/src/main.c</title>
<!-- Node1 -->
<g id="Node000001" class="node">
<title>Node1</title>
<g id="a_Node000001"><a xlink:title=" ">
<polygon fill="#999999" stroke="#666666" points="333.12,-306.75 221.12,-306.75 221.12,-276.25 333.12,-276.25 333.12,-306.75"/>
<text text-anchor="start" x="229.12" y="-293.25" font-family="Helvetica,sans-Serif" font-size="10.00">iop/system/iopmgr/src</text>
<text text-anchor="middle" x="277.12" y="-282" font-family="Helvetica,sans-Serif" font-size="10.00">/main.c</text>
</a>
</g>
</g>
<!-- Node2 -->
<g id="Node000002" class="node">
<title>Node2</title>
<g id="a_Node000002"><a xlink:title=" ">
<polygon fill="#e0e0e0" stroke="#999999" points="248.5,-129.75 201.75,-129.75 201.75,-110.5 248.5,-110.5 248.5,-129.75"/>
<text text-anchor="middle" x="225.12" y="-116.25" font-family="Helvetica,sans-Serif" font-size="10.00">types.h</text>
</a>
</g>
</g>
<!-- Node1&#45;&gt;Node2 -->
<g id="edge1_Node000001_Node000002" class="edge">
<title>Node1&#45;&gt;Node2</title>
<g id="a_edge1_Node000001_Node000002"><a xlink:title=" ">
<path fill="none" stroke="#63b8ff" d="M287.95,-276.02C304.73,-251.65 332.93,-201.62 311.12,-165.75 305.11,-155.85 280.67,-143.69 259.38,-134.56"/>
<polygon fill="#63b8ff" stroke="#63b8ff" points="260.93,-131.42 250.36,-130.8 258.24,-137.88 260.93,-131.42"/>
</a>
</g>
</g>
<!-- Node3 -->
<g id="Node000003" class="node">
<title>Node3</title>
<g id="a_Node000003"><a xlink:href="defs_8h.html" target="_top" xlink:title=" ">
<polygon fill="white" stroke="#666666" points="42.25,-240.25 0,-240.25 0,-221 42.25,-221 42.25,-240.25"/>
<text text-anchor="middle" x="21.12" y="-226.75" font-family="Helvetica,sans-Serif" font-size="10.00">defs.h</text>
</a>
</g>
</g>
<!-- Node1&#45;&gt;Node3 -->
<g id="edge2_Node000001_Node000003" class="edge">
<title>Node1&#45;&gt;Node3</title>
<g id="a_edge2_Node000001_Node000003"><a xlink:title=" ">
<path fill="none" stroke="#63b8ff" d="M220.74,-277.97C176.05,-267.97 112.03,-253.49 56.12,-240.25 55.3,-240.06 54.47,-239.86 53.63,-239.66"/>
<polygon fill="#63b8ff" stroke="#63b8ff" points="54.6,-236.29 44.05,-237.33 52.95,-243.09 54.6,-236.29"/>
</a>
</g>
</g>
<!-- Node7 -->
<g id="Node000007" class="node">
<title>Node7</title>
<g id="a_Node000007"><a xlink:href="irx_8h.html" target="_top" xlink:title=" ">
<polygon fill="white" stroke="#666666" points="144.75,-129.75 111.5,-129.75 111.5,-110.5 144.75,-110.5 144.75,-129.75"/>
<text text-anchor="middle" x="128.12" y="-116.25" font-family="Helvetica,sans-Serif" font-size="10.00">irx.h</text>
</a>
</g>
</g>
<!-- Node1&#45;&gt;Node7 -->
<g id="edge6_Node000001_Node000007" class="edge">
<title>Node1&#45;&gt;Node7</title>
<g id="a_edge6_Node000001_Node000007"><a xlink:title=" ">
<path fill="none" stroke="#63b8ff" d="M232.71,-275.79C193.78,-260.17 139.93,-231.25 117.12,-185 110.2,-170.95 114.06,-153.29 119.02,-140.1"/>
<polygon fill="#63b8ff" stroke="#63b8ff" points="122.09,-141.83 122.83,-131.26 115.66,-139.06 122.09,-141.83"/>
</a>
</g>
</g>
<!-- Node8 -->
<g id="Node000008" class="node">
<title>Node8</title>
<g id="a_Node000008"><a xlink:href="ioman_x_8h.html" target="_top" xlink:title=" ">
<polygon fill="white" stroke="#666666" points="477.38,-185 420.88,-185 420.88,-165.75 477.38,-165.75 477.38,-185"/>
<text text-anchor="middle" x="449.12" y="-171.5" font-family="Helvetica,sans-Serif" font-size="10.00">iomanX.h</text>
</a>
</g>
</g>
<!-- Node1&#45;&gt;Node8 -->
<g id="edge8_Node000001_Node000008" class="edge">
<title>Node1&#45;&gt;Node8</title>
<g id="a_edge8_Node000001_Node000008"><a xlink:title=" ">
<path fill="none" stroke="#63b8ff" d="M305.03,-275.79C322.62,-266.22 345.61,-253.16 365.12,-240.25 387.99,-225.12 412.82,-205.86 429.51,-192.46"/>
<polygon fill="#63b8ff" stroke="#63b8ff" points="431.58,-195.29 437.15,-186.28 427.17,-189.85 431.58,-195.29"/>
</a>
</g>
</g>
<!-- Node16 -->
<g id="Node000016" class="node">
<title>Node16</title>
<g id="a_Node000016"><a xlink:href="stdio_8h.html" target="_top" xlink:title=" ">
<polygon fill="white" stroke="#666666" points="402.38,-185 357.88,-185 357.88,-165.75 402.38,-165.75 402.38,-185"/>
<text text-anchor="middle" x="380.12" y="-171.5" font-family="Helvetica,sans-Serif" font-size="10.00">stdio.h</text>
</a>
</g>
</g>
<!-- Node1&#45;&gt;Node16 -->
<g id="edge17_Node000001_Node000016" class="edge">
<title>Node1&#45;&gt;Node16</title>
<g id="a_edge17_Node000001_Node000016"><a xlink:title=" ">
<path fill="none" stroke="#63b8ff" d="M301.42,-275.87C315.1,-266.8 331.85,-254.24 344.12,-240.25 355.81,-226.93 365.44,-209.21 371.78,-195.81"/>
<polygon fill="#63b8ff" stroke="#63b8ff" points="374.95,-197.3 375.86,-186.75 368.57,-194.43 374.95,-197.3"/>
</a>
</g>
</g>
<!-- Node17 -->
<g id="Node000017" class="node">
<title>Node17</title>
<g id="a_Node000017"><a xlink:href="iopmgr_8h.html" target="_top" xlink:title=" ">
<polygon fill="white" stroke="#666666" points="250.5,-240.25 197.75,-240.25 197.75,-221 250.5,-221 250.5,-240.25"/>
<text text-anchor="middle" x="224.12" y="-226.75" font-family="Helvetica,sans-Serif" font-size="10.00">iopmgr.h</text>
</a>
</g>
</g>
<!-- Node1&#45;&gt;Node17 -->
<g id="edge20_Node000001_Node000017" class="edge">
<title>Node1&#45;&gt;Node17</title>
<g id="a_edge20_Node000001_Node000017"><a xlink:title=" ">
<path fill="none" stroke="#63b8ff" d="M264.02,-275.95C256.73,-267.84 247.6,-257.7 239.91,-249.16"/>
<polygon fill="#63b8ff" stroke="#63b8ff" points="242.6,-246.92 233.31,-241.83 237.4,-251.6 242.6,-246.92"/>
</a>
</g>
</g>
<!-- Node4 -->
<g id="Node000004" class="node">
<title>Node4</title>
<g id="a_Node000004"><a xlink:href="iop_2kernel_2include_2types_8h_source.html" target="_top" xlink:title=" ">
<polygon fill="white" stroke="#666666" points="101.5,-74.5 54.75,-74.5 54.75,-55.25 101.5,-55.25 101.5,-74.5"/>
<text text-anchor="middle" x="78.12" y="-61" font-family="Helvetica,sans-Serif" font-size="10.00">types.h</text>
</a>
</g>
</g>
<!-- Node3&#45;&gt;Node4 -->
<g id="edge3_Node000003_Node000004" class="edge">
<title>Node3&#45;&gt;Node4</title>
<g id="a_edge3_Node000003_Node000004"><a xlink:title=" ">
<path fill="none" stroke="#63b8ff" d="M24.19,-220.82C33.08,-195.28 59.04,-120.7 71.41,-85.15"/>
<polygon fill="#63b8ff" stroke="#63b8ff" points="74.57,-86.75 74.55,-76.15 67.95,-84.45 74.57,-86.75"/>
</a>
</g>
</g>
<!-- Node5 -->
<g id="Node000005" class="node">
<title>Node5</title>
<g id="a_Node000005"><a xlink:title=" ">
<polygon fill="#e0e0e0" stroke="#999999" points="66.38,-19.25 15.88,-19.25 15.88,0 66.38,0 66.38,-19.25"/>
<text text-anchor="middle" x="41.12" y="-5.75" font-family="Helvetica,sans-Serif" font-size="10.00">stddef.h</text>
</a>
</g>
</g>
<!-- Node4&#45;&gt;Node5 -->
<g id="edge4_Node000004_Node000005" class="edge">
<title>Node4&#45;&gt;Node5</title>
<g id="a_edge4_Node000004_Node000005"><a xlink:title=" ">
<path fill="none" stroke="#63b8ff" d="M72.02,-55.08C67.06,-47.96 59.92,-37.68 53.75,-28.8"/>
<polygon fill="#63b8ff" stroke="#63b8ff" points="56.81,-27.07 48.23,-20.85 51.06,-31.06 56.81,-27.07"/>
</a>
</g>
</g>
<!-- Node6 -->
<g id="Node000006" class="node">
<title>Node6</title>
<g id="a_Node000006"><a xlink:href="tamtypes_8h.html" target="_top" xlink:title=" ">
<polygon fill="white" stroke="#666666" points="147.75,-19.25 84.5,-19.25 84.5,0 147.75,0 147.75,-19.25"/>
<text text-anchor="middle" x="116.12" y="-5.75" font-family="Helvetica,sans-Serif" font-size="10.00">tamtypes.h</text>
</a>
</g>
</g>
<!-- Node4&#45;&gt;Node6 -->
<g id="edge5_Node000004_Node000006" class="edge">
<title>Node4&#45;&gt;Node6</title>
<g id="a_edge5_Node000004_Node000006"><a xlink:title=" ">
<path fill="none" stroke="#63b8ff" d="M84.4,-55.08C89.48,-47.96 96.82,-37.68 103.16,-28.8"/>
<polygon fill="#63b8ff" stroke="#63b8ff" points="105.87,-31.01 108.83,-20.84 100.18,-26.95 105.87,-31.01"/>
</a>
</g>
</g>
<!-- Node7&#45;&gt;Node4 -->
<g id="edge7_Node000007_Node000004" class="edge">
<title>Node7&#45;&gt;Node4</title>
<g id="a_edge7_Node000007_Node000004"><a xlink:title=" ">
<path fill="none" stroke="#63b8ff" d="M119.87,-110.33C112.96,-102.98 102.9,-92.26 94.39,-83.19"/>
<polygon fill="#63b8ff" stroke="#63b8ff" points="96.99,-80.86 87.6,-75.96 91.89,-85.65 96.99,-80.86"/>
</a>
</g>
</g>
<!-- Node8&#45;&gt;Node2 -->
<g id="edge9_Node000008_Node000002" class="edge">
<title>Node8&#45;&gt;Node2</title>
<g id="a_edge9_Node000008_Node000002"><a xlink:title=" ">
<path fill="none" stroke="#63b8ff" d="M420.47,-167.84C378.81,-158.33 302.56,-140.83 259.94,-130.37"/>
<polygon fill="#63b8ff" stroke="#63b8ff" points="260.88,-127 250.34,-127.99 259.2,-133.8 260.88,-127"/>
</a>
</g>
</g>
<!-- Node9 -->
<g id="Node000009" class="node">
<title>Node9</title>
<g id="a_Node000009"><a xlink:href="errno_8h.html" target="_top" xlink:title=" ">
<polygon fill="white" stroke="#666666" points="403.75,-129.75 358.5,-129.75 358.5,-110.5 403.75,-110.5 403.75,-129.75"/>
<text text-anchor="middle" x="381.12" y="-116.25" font-family="Helvetica,sans-Serif" font-size="10.00">errno.h</text>
</a>
</g>
</g>
<!-- Node8&#45;&gt;Node9 -->
<g id="edge10_Node000008_Node000009" class="edge">
<title>Node8&#45;&gt;Node9</title>
<g id="a_edge10_Node000008_Node000009"><a xlink:title=" ">
<path fill="none" stroke="#63b8ff" d="M437.59,-165.34C427.66,-157.57 413.11,-146.17 401.27,-136.9"/>
<polygon fill="#63b8ff" stroke="#63b8ff" points="403.71,-134.37 393.68,-130.96 399.4,-139.88 403.71,-134.37"/>
</a>
</g>
</g>
<!-- Node10 -->
<g id="Node000010" class="node">
<title>Node10</title>
<g id="a_Node000010"><a xlink:title=" ">
<polygon fill="#e0e0e0" stroke="#999999" points="472.38,-129.75 421.88,-129.75 421.88,-110.5 472.38,-110.5 472.38,-129.75"/>
<text text-anchor="middle" x="447.12" y="-116.25" font-family="Helvetica,sans-Serif" font-size="10.00">stdarg.h</text>
</a>
</g>
</g>
<!-- Node8&#45;&gt;Node10 -->
<g id="edge11_Node000008_Node000010" class="edge">
<title>Node8&#45;&gt;Node10</title>
<g id="a_edge11_Node000008_Node000010"><a xlink:title=" ">
<path fill="none" stroke="#63b8ff" d="M448.79,-165.58C448.55,-158.99 448.2,-149.71 447.88,-141.32"/>
<polygon fill="#63b8ff" stroke="#63b8ff" points="451.39,-141.48 447.52,-131.62 444.4,-141.75 451.39,-141.48"/>
</a>
</g>
</g>
<!-- Node11 -->
<g id="Node000011" class="node">
<title>Node11</title>
<g id="a_Node000011"><a xlink:href="io__common_8h.html" target="_top" xlink:title=" ">
<polygon fill="white" stroke="#666666" points="340,-129.75 266.25,-129.75 266.25,-110.5 340,-110.5 340,-129.75"/>
<text text-anchor="middle" x="303.12" y="-116.25" font-family="Helvetica,sans-Serif" font-size="10.00">io_common.h</text>
</a>
</g>
</g>
<!-- Node8&#45;&gt;Node11 -->
<g id="edge12_Node000008_Node000011" class="edge">
<title>Node8&#45;&gt;Node11</title>
<g id="a_edge12_Node000008_Node000011"><a xlink:title=" ">
<path fill="none" stroke="#63b8ff" d="M424.36,-165.34C400.87,-156.77 365.31,-143.81 338.77,-134.13"/>
<polygon fill="#63b8ff" stroke="#63b8ff" points="340.03,-130.86 329.44,-130.72 337.63,-137.44 340.03,-130.86"/>
</a>
</g>
</g>
<!-- Node14 -->
<g id="Node000014" class="node">
<title>Node14</title>
<g id="a_Node000014"><a xlink:href="iox__stat_8h.html" target="_top" xlink:title=" ">
<polygon fill="white" stroke="#666666" points="547.75,-129.75 490.5,-129.75 490.5,-110.5 547.75,-110.5 547.75,-129.75"/>
<text text-anchor="middle" x="519.12" y="-116.25" font-family="Helvetica,sans-Serif" font-size="10.00">iox_stat.h</text>
</a>
</g>
</g>
<!-- Node8&#45;&gt;Node14 -->
<g id="edge15_Node000008_Node000014" class="edge">
<title>Node8&#45;&gt;Node14</title>
<g id="a_edge15_Node000008_Node000014"><a xlink:title=" ">
<path fill="none" stroke="#63b8ff" d="M461,-165.34C471.22,-157.57 486.2,-146.17 498.39,-136.9"/>
<polygon fill="#63b8ff" stroke="#63b8ff" points="500.38,-139.78 506.22,-130.94 496.14,-134.21 500.38,-139.78"/>
</a>
</g>
</g>
<!-- Node12 -->
<g id="Node000012" class="node">
<title>Node12</title>
<g id="a_Node000012"><a xlink:href="fcntl_8h_source.html" target="_top" xlink:title=" ">
<polygon fill="white" stroke="#666666" points="292.25,-74.5 232,-74.5 232,-55.25 292.25,-55.25 292.25,-74.5"/>
<text text-anchor="middle" x="262.12" y="-61" font-family="Helvetica,sans-Serif" font-size="10.00">sys/fcntl.h</text>
</a>
</g>
</g>
<!-- Node11&#45;&gt;Node12 -->
<g id="edge13_Node000011_Node000012" class="edge">
<title>Node11&#45;&gt;Node12</title>
<g id="a_edge13_Node000011_Node000012"><a xlink:title=" ">
<path fill="none" stroke="#63b8ff" d="M296.35,-110.33C290.81,-103.13 282.78,-92.71 275.9,-83.76"/>
<polygon fill="#63b8ff" stroke="#63b8ff" points="278.84,-81.85 269.97,-76.06 273.29,-86.12 278.84,-81.85"/>
</a>
</g>
</g>
<!-- Node13 -->
<g id="Node000013" class="node">
<title>Node13</title>
<g id="a_Node000013"><a xlink:href="unistd_8h_source.html" target="_top" xlink:title=" ">
<polygon fill="white" stroke="#666666" points="378,-74.5 310.25,-74.5 310.25,-55.25 378,-55.25 378,-74.5"/>
<text text-anchor="middle" x="344.12" y="-61" font-family="Helvetica,sans-Serif" font-size="10.00">sys/unistd.h</text>
</a>
</g>
</g>
<!-- Node11&#45;&gt;Node13 -->
<g id="edge14_Node000011_Node000013" class="edge">
<title>Node11&#45;&gt;Node13</title>
<g id="a_edge14_Node000011_Node000013"><a xlink:title=" ">
<path fill="none" stroke="#63b8ff" d="M309.9,-110.33C315.44,-103.13 323.47,-92.71 330.35,-83.76"/>
<polygon fill="#63b8ff" stroke="#63b8ff" points="332.96,-86.12 336.28,-76.06 327.41,-81.85 332.96,-86.12"/>
</a>
</g>
</g>
<!-- Node15 -->
<g id="Node000015" class="node">
<title>Node15</title>
<g id="a_Node000015"><a xlink:href="time_8h.html" target="_top" xlink:title=" ">
<polygon fill="white" stroke="#666666" points="549.25,-74.5 489,-74.5 489,-55.25 549.25,-55.25 549.25,-74.5"/>
<text text-anchor="middle" x="519.12" y="-61" font-family="Helvetica,sans-Serif" font-size="10.00">sys/time.h</text>
</a>
</g>
</g>
<!-- Node14&#45;&gt;Node15 -->
<g id="edge16_Node000014_Node000015" class="edge">
<title>Node14&#45;&gt;Node15</title>
<g id="a_edge16_Node000014_Node000015"><a xlink:title=" ">
<path fill="none" stroke="#63b8ff" d="M519.12,-110.33C519.12,-103.82 519.12,-94.67 519.12,-86.37"/>
<polygon fill="#63b8ff" stroke="#63b8ff" points="522.63,-86.37 519.13,-76.37 515.63,-86.37 522.63,-86.37"/>
</a>
</g>
</g>
<!-- Node16&#45;&gt;Node7 -->
<g id="edge19_Node000016_Node000007" class="edge">
<title>Node16&#45;&gt;Node7</title>
<g id="a_edge19_Node000016_Node000007"><a xlink:title=" ">
<path fill="none" stroke="#63b8ff" d="M357.76,-169.65C311.71,-159.92 206.37,-137.66 155.98,-127.01"/>
<polygon fill="#63b8ff" stroke="#63b8ff" points="156.97,-123.64 146.46,-125 155.52,-130.49 156.97,-123.64"/>
</a>
</g>
</g>
<!-- Node16&#45;&gt;Node10 -->
<g id="edge18_Node000016_Node000010" class="edge">
<title>Node16&#45;&gt;Node10</title>
<g id="a_edge18_Node000016_Node000010"><a xlink:title=" ">
<path fill="none" stroke="#63b8ff" d="M391.49,-165.34C401.17,-157.65 415.32,-146.4 426.93,-137.18"/>
<polygon fill="#63b8ff" stroke="#63b8ff" points="429.09,-139.93 434.74,-130.97 424.74,-134.45 429.09,-139.93"/>
</a>
</g>
</g>
<!-- Node17&#45;&gt;Node2 -->
<g id="edge21_Node000017_Node000002" class="edge">
<title>Node17&#45;&gt;Node2</title>
<g id="a_edge21_Node000017_Node000002"><a xlink:title=" ">
<path fill="none" stroke="#63b8ff" d="M224.21,-220.75C224.37,-203.5 224.72,-165.08 224.94,-141.31"/>
<polygon fill="#63b8ff" stroke="#63b8ff" points="228.44,-141.67 225.03,-131.64 221.44,-141.61 228.44,-141.67"/>
</a>
</g>
</g>
<!-- Node17&#45;&gt;Node7 -->
<g id="edge22_Node000017_Node000007" class="edge">
<title>Node17&#45;&gt;Node7</title>
<g id="a_edge22_Node000017_Node000007"><a xlink:title=" ">
<path fill="none" stroke="#63b8ff" d="M197.53,-225.46C174.5,-220.3 142.53,-209.04 127.12,-185 118.88,-172.13 119.8,-154.61 122.41,-141.17"/>
<polygon fill="#63b8ff" stroke="#63b8ff" points="125.75,-142.24 124.71,-131.7 118.95,-140.59 125.75,-142.24"/>
</a>
</g>
</g>
<!-- Node18 -->
<g id="Node000018" class="node">
<title>Node18</title>
<g id="a_Node000018"><a xlink:href="ioman_8h.html" target="_top" xlink:title=" ">
<polygon fill="white" stroke="#666666" points="302,-185 252.25,-185 252.25,-165.75 302,-165.75 302,-185"/>
<text text-anchor="middle" x="277.12" y="-171.5" font-family="Helvetica,sans-Serif" font-size="10.00">ioman.h</text>
</a>
</g>
</g>
<!-- Node17&#45;&gt;Node18 -->
<g id="edge23_Node000017_Node000018" class="edge">
<title>Node17&#45;&gt;Node18</title>
<g id="a_edge23_Node000017_Node000018"><a xlink:title=" ">
<path fill="none" stroke="#63b8ff" d="M232.88,-220.83C240.27,-213.4 251.09,-202.54 260.17,-193.41"/>
<polygon fill="#63b8ff" stroke="#63b8ff" points="262.54,-195.99 267.12,-186.43 257.58,-191.05 262.54,-195.99"/>
</a>
</g>
</g>
<!-- Node19 -->
<g id="Node000019" class="node">
<title>Node19</title>
<g id="a_Node000019"><a xlink:href="loadcore_8h.html" target="_top" xlink:title=" ">
<polygon fill="white" stroke="#666666" points="196.25,-185 136,-185 136,-165.75 196.25,-165.75 196.25,-185"/>
<text text-anchor="middle" x="166.12" y="-171.5" font-family="Helvetica,sans-Serif" font-size="10.00">loadcore.h</text>
</a>
</g>
</g>
<!-- Node17&#45;&gt;Node19 -->
<g id="edge28_Node000017_Node000019" class="edge">
<title>Node17&#45;&gt;Node19</title>
<g id="a_edge28_Node000017_Node000019"><a xlink:title=" ">
<path fill="none" stroke="#63b8ff" d="M214.29,-220.59C206.07,-213.05 194.14,-202.1 184.21,-192.98"/>
<polygon fill="#63b8ff" stroke="#63b8ff" points="186.67,-190.48 176.93,-186.3 181.93,-195.64 186.67,-190.48"/>
</a>
</g>
</g>
<!-- Node18&#45;&gt;Node2 -->
<g id="edge25_Node000018_Node000002" class="edge">
<title>Node18&#45;&gt;Node2</title>
<g id="a_edge25_Node000018_Node000002"><a xlink:title=" ">
<path fill="none" stroke="#63b8ff" d="M268.54,-165.58C261.28,-158.15 250.67,-147.29 241.76,-138.16"/>
<polygon fill="#63b8ff" stroke="#63b8ff" points="244.45,-135.9 234.96,-131.19 239.44,-140.79 244.45,-135.9"/>
</a>
</g>
</g>
<!-- Node18&#45;&gt;Node7 -->
<g id="edge26_Node000018_Node000007" class="edge">
<title>Node18&#45;&gt;Node7</title>
<g id="a_edge26_Node000018_Node000007"><a xlink:title=" ">
<path fill="none" stroke="#63b8ff" d="M251.85,-165.34C225.14,-155.8 183.15,-140.79 155.63,-130.96"/>
<polygon fill="#63b8ff" stroke="#63b8ff" points="157.18,-127.79 146.58,-127.72 154.82,-134.38 157.18,-127.79"/>
</a>
</g>
</g>
<!-- Node18&#45;&gt;Node9 -->
<g id="edge24_Node000018_Node000009" class="edge">
<title>Node18&#45;&gt;Node9</title>
<g id="a_edge24_Node000018_Node000009"><a xlink:title=" ">
<path fill="none" stroke="#63b8ff" d="M294.77,-165.34C310.75,-157.16 334.58,-144.96 353.16,-135.44"/>
<polygon fill="#63b8ff" stroke="#63b8ff" points="354.74,-138.57 362.05,-130.89 351.55,-132.33 354.74,-138.57"/>
</a>
</g>
</g>
<!-- Node18&#45;&gt;Node11 -->
<g id="edge27_Node000018_Node000011" class="edge">
<title>Node18&#45;&gt;Node11</title>
<g id="a_edge27_Node000018_Node000011"><a xlink:title=" ">
<path fill="none" stroke="#63b8ff" d="M281.42,-165.58C284.75,-158.76 289.49,-149.06 293.69,-140.45"/>
<polygon fill="#63b8ff" stroke="#63b8ff" points="296.83,-141.99 298.07,-131.47 290.54,-138.92 296.83,-141.99"/>
</a>
</g>
</g>
<!-- Node19&#45;&gt;Node2 -->
<g id="edge29_Node000019_Node000002" class="edge">
<title>Node19&#45;&gt;Node2</title>
<g id="a_edge29_Node000019_Node000002"><a xlink:title=" ">
<path fill="none" stroke="#63b8ff" d="M176.13,-165.34C184.49,-157.8 196.62,-146.85 206.73,-137.73"/>
<polygon fill="#63b8ff" stroke="#63b8ff" points="209.06,-140.34 214.14,-131.04 204.37,-135.14 209.06,-140.34"/>
</a>
</g>
</g>
<!-- Node19&#45;&gt;Node7 -->
<g id="edge30_Node000019_Node000007" class="edge">
<title>Node19&#45;&gt;Node7</title>
<g id="a_edge30_Node000019_Node000007"><a xlink:title=" ">
<path fill="none" stroke="#63b8ff" d="M159.85,-165.58C154.77,-158.46 147.43,-148.18 141.09,-139.3"/>
<polygon fill="#63b8ff" stroke="#63b8ff" points="144.07,-137.45 135.42,-131.34 138.38,-141.51 144.07,-137.45"/>
</a>
</g>
</g>
</g>
</svg>

<g id="navigator" transform="translate(0 0)" fill="#404254">
  <rect fill="#f2f5e9" fill-opacity="0.5" stroke="#606060" stroke-width=".5" x="0" y="0" width="60" height="60"/>
  <use id="zoomplus" xlink:href="#zoomPlus" x="17" y="9" onmousedown="handleZoom(evt,'in')"/>
  <use id="zoomminus" xlink:href="#zoomMin" x="42" y="9" onmousedown="handleZoom(evt,'out')"/>
  <use id="reset" xlink:href="#resetDef" x="30" y="36" onmousedown="handleReset()"/>
   <use id="arrowup" xlink:href="#arrowUp" x="0" y="0" onmousedown="handlePan(0,-1)"/>
  <use id="arrowright" xlink:href="#arrowRight" x="0" y="0" onmousedown="handlePan(1,0)"/>
  <use id="arrowdown" xlink:href="#arrowDown" x="0" y="0" onmousedown="handlePan(0,1)"/>
  <use id="arrowleft" xlink:href="#arrowLeft" x="0" y="0" onmousedown="handlePan(-1,0)"/>
</g>
<svg viewBox="0 0 15 15" width="100%" height="30px" preserveAspectRatio="xMaxYMin meet">
 <g id="arrow_out" transform="scale(0.3 0.3)">
  <a xlink:href="iop_2system_2iopmgr_2src_2main_8c__incl_org.svg" target="_base">
   <rect id="button" ry="5" rx="5" y="6" x="6" height="38" width="38"
        fill="#f2f5e9" fill-opacity="0.5" stroke="#606060" stroke-width="1.0"/>
   <path id="arrow"
     d="M 11.500037,31.436501 C 11.940474,20.09759 22.043105,11.32322 32.158766,21.979434 L 37.068811,17.246167 C 37.068811,17.246167 37.088388,32 37.088388,32 L 22.160133,31.978069 C 22.160133,31.978069 26.997745,27.140456 26.997745,27.140456 C 18.528582,18.264221 13.291696,25.230495 11.500037,31.436501 z"
     style="fill:#404040;"/>
  </a>
 </g>
</svg>

<style type='text/css'>
<![CDATA[
[data-mouse-over-selected='false'] { opacity: 0.7; }
[data-mouse-over-selected='true']  { opacity: 1.0; }
]]>
</style>
<script type="application/ecmascript"><![CDATA[
document.addEventListener('DOMContentLoaded', (event) => {
  highlightEdges();
  highlightAdjacentNodes();
});
]]></script>
</svg>
