<?xml version="1.0" encoding="UTF-8" standalone="no"?>
<!DOCTYPE svg PUBLIC "-//W3C//DTD SVG 1.1//EN"
 "http://www.w3.org/Graphics/SVG/1.1/DTD/svg11.dtd">
<!-- Generated by graphviz version 12.2.0 (20241103.1931)
 -->
<!-- Title: iop/system/iopmgr/src/smod.c Pages: 1 -->
<svg width="606pt" height="315pt"
 viewBox="0.00 0.00 606.38 314.75" xmlns="http://www.w3.org/2000/svg" xmlns:xlink="http://www.w3.org/1999/xlink">
<g id="graph0" class="graph" transform="scale(1 1) rotate(0) translate(4 310.75)">
<title>iop/system/iopmgr/src/smod.c</title>
<!-- Node1 -->
<g id="Node000001" class="node">
<title>Node1</title>
<g id="a_Node000001"><a xlink:title=" ">
<polygon fill="#999999" stroke="#666666" points="411.12,-306.75 299.12,-306.75 299.12,-276.25 411.12,-276.25 411.12,-306.75"/>
<text text-anchor="start" x="307.12" y="-293.25" font-family="Helvetica,sans-Serif" font-size="10.00">iop/system/iopmgr/src</text>
<text text-anchor="middle" x="355.12" y="-282" font-family="Helvetica,sans-Serif" font-size="10.00">/smod.c</text>
</a>
</g>
</g>
<!-- Node2 -->
<g id="Node000002" class="node">
<title>Node2</title>
<g id="a_Node000002"><a xlink:title=" ">
<polygon fill="#e0e0e0" stroke="#999999" points="249.5,-129.75 202.75,-129.75 202.75,-110.5 249.5,-110.5 249.5,-129.75"/>
<text text-anchor="middle" x="226.12" y="-116.25" font-family="Helvetica,sans-Serif" font-size="10.00">types.h</text>
</a>
</g>
</g>
<!-- Node1&#45;&gt;Node2 -->
<g id="edge1_Node000001_Node000002" class="edge">
<title>Node1&#45;&gt;Node2</title>
<g id="a_edge1_Node000001_Node000002"><a xlink:title=" ">
<path fill="none" stroke="#63b8ff" d="M298.93,-282.4C273.25,-275.62 245.07,-263.15 229.12,-240.25 208.6,-210.78 214.53,-166.5 220.48,-141.05"/>
<polygon fill="#63b8ff" stroke="#63b8ff" points="223.79,-142.24 222.9,-131.68 217.01,-140.48 223.79,-142.24"/>
</a>
</g>
</g>
<!-- Node3 -->
<g id="Node000003" class="node">
<title>Node3</title>
<g id="a_Node000003"><a xlink:href="defs_8h.html" target="_top" xlink:title=" ">
<polygon fill="white" stroke="#666666" points="445.25,-240.25 403,-240.25 403,-221 445.25,-221 445.25,-240.25"/>
<text text-anchor="middle" x="424.12" y="-226.75" font-family="Helvetica,sans-Serif" font-size="10.00">defs.h</text>
</a>
</g>
</g>
<!-- Node1&#45;&gt;Node3 -->
<g id="edge2_Node000001_Node000003" class="edge">
<title>Node1&#45;&gt;Node3</title>
<g id="a_edge2_Node000001_Node000003"><a xlink:title=" ">
<path fill="none" stroke="#63b8ff" d="M372.18,-275.95C382.08,-267.5 394.58,-256.83 404.84,-248.08"/>
<polygon fill="#63b8ff" stroke="#63b8ff" points="407,-250.84 412.34,-241.68 402.46,-245.51 407,-250.84"/>
</a>
</g>
</g>
<!-- Node7 -->
<g id="Node000007" class="node">
<title>Node7</title>
<g id="a_Node000007"><a xlink:href="irx_8h.html" target="_top" xlink:title=" ">
<polygon fill="white" stroke="#666666" points="389.75,-129.75 356.5,-129.75 356.5,-110.5 389.75,-110.5 389.75,-129.75"/>
<text text-anchor="middle" x="373.12" y="-116.25" font-family="Helvetica,sans-Serif" font-size="10.00">irx.h</text>
</a>
</g>
</g>
<!-- Node1&#45;&gt;Node7 -->
<g id="edge6_Node000001_Node000007" class="edge">
<title>Node1&#45;&gt;Node7</title>
<g id="a_edge6_Node000001_Node000007"><a xlink:title=" ">
<path fill="none" stroke="#63b8ff" d="M356.69,-275.77C359.91,-245.51 367.26,-176.3 370.94,-141.66"/>
<polygon fill="#63b8ff" stroke="#63b8ff" points="374.42,-142.05 372,-131.74 367.46,-141.31 374.42,-142.05"/>
</a>
</g>
</g>
<!-- Node8 -->
<g id="Node000008" class="node">
<title>Node8</title>
<g id="a_Node000008"><a xlink:href="loadcore_8h.html" target="_top" xlink:title=" ">
<polygon fill="white" stroke="#666666" points="352.25,-185 292,-185 292,-165.75 352.25,-165.75 352.25,-185"/>
<text text-anchor="middle" x="322.12" y="-171.5" font-family="Helvetica,sans-Serif" font-size="10.00">loadcore.h</text>
</a>
</g>
</g>
<!-- Node1&#45;&gt;Node8 -->
<g id="edge8_Node000001_Node000008" class="edge">
<title>Node1&#45;&gt;Node8</title>
<g id="a_edge8_Node000001_Node000008"><a xlink:title=" ">
<path fill="none" stroke="#63b8ff" d="M350.95,-276.05C345.12,-255.9 334.54,-219.31 327.95,-196.5"/>
<polygon fill="#63b8ff" stroke="#63b8ff" points="331.31,-195.54 325.17,-186.9 324.58,-197.48 331.31,-195.54"/>
</a>
</g>
</g>
<!-- Node9 -->
<g id="Node000009" class="node">
<title>Node9</title>
<g id="a_Node000009"><a xlink:href="ioman_8h.html" target="_top" xlink:title=" ">
<polygon fill="white" stroke="#666666" points="160,-185 110.25,-185 110.25,-165.75 160,-165.75 160,-185"/>
<text text-anchor="middle" x="135.12" y="-171.5" font-family="Helvetica,sans-Serif" font-size="10.00">ioman.h</text>
</a>
</g>
</g>
<!-- Node1&#45;&gt;Node9 -->
<g id="edge11_Node000001_Node000009" class="edge">
<title>Node1&#45;&gt;Node9</title>
<g id="a_edge11_Node000001_Node000009"><a xlink:title=" ">
<path fill="none" stroke="#63b8ff" d="M298.93,-285.72C260.55,-280.03 210.3,-267.57 174.12,-240.25 159.07,-228.88 148.55,-209.86 142.26,-195.53"/>
<polygon fill="#63b8ff" stroke="#63b8ff" points="145.67,-194.64 138.68,-186.68 139.18,-197.26 145.67,-194.64"/>
</a>
</g>
</g>
<!-- Node14 -->
<g id="Node000014" class="node">
<title>Node14</title>
<g id="a_Node000014"><a xlink:href="stdio_8h.html" target="_top" xlink:title=" ">
<polygon fill="white" stroke="#666666" points="562.38,-185 517.88,-185 517.88,-165.75 562.38,-165.75 562.38,-185"/>
<text text-anchor="middle" x="540.12" y="-171.5" font-family="Helvetica,sans-Serif" font-size="10.00">stdio.h</text>
</a>
</g>
</g>
<!-- Node1&#45;&gt;Node14 -->
<g id="edge18_Node000001_Node000014" class="edge">
<title>Node1&#45;&gt;Node14</title>
<g id="a_edge18_Node000001_Node000014"><a xlink:title=" ">
<path fill="none" stroke="#63b8ff" d="M399.9,-275.78C422.8,-267.2 450.53,-255.12 473.12,-240.25 493.17,-227.06 512.62,-207.53 525.35,-193.54"/>
<polygon fill="#63b8ff" stroke="#63b8ff" points="527.67,-196.21 531.69,-186.4 522.43,-191.56 527.67,-196.21"/>
</a>
</g>
</g>
<!-- Node16 -->
<g id="Node000016" class="node">
<title>Node16</title>
<g id="a_Node000016"><a xlink:href="sysclib_8h.html" target="_top" xlink:title=" ">
<polygon fill="white" stroke="#666666" points="499.88,-185 446.38,-185 446.38,-165.75 499.88,-165.75 499.88,-185"/>
<text text-anchor="middle" x="473.12" y="-171.5" font-family="Helvetica,sans-Serif" font-size="10.00">sysclib.h</text>
</a>
</g>
</g>
<!-- Node1&#45;&gt;Node16 -->
<g id="edge21_Node000001_Node000016" class="edge">
<title>Node1&#45;&gt;Node16</title>
<g id="a_edge21_Node000001_Node000016"><a xlink:title=" ">
<path fill="none" stroke="#63b8ff" d="M402.26,-275.78C420.72,-267.89 440.67,-256.38 454.12,-240.25 464.45,-227.87 469.16,-210.04 471.32,-196.37"/>
<polygon fill="#63b8ff" stroke="#63b8ff" points="474.75,-197.1 472.48,-186.75 467.8,-196.26 474.75,-197.1"/>
</a>
</g>
</g>
<!-- Node19 -->
<g id="Node000019" class="node">
<title>Node19</title>
<g id="a_Node000019"><a xlink:href="iopmgr_8h.html" target="_top" xlink:title=" ">
<polygon fill="white" stroke="#666666" points="290.5,-240.25 237.75,-240.25 237.75,-221 290.5,-221 290.5,-240.25"/>
<text text-anchor="middle" x="264.12" y="-226.75" font-family="Helvetica,sans-Serif" font-size="10.00">iopmgr.h</text>
</a>
</g>
</g>
<!-- Node1&#45;&gt;Node19 -->
<g id="edge28_Node000001_Node000019" class="edge">
<title>Node1&#45;&gt;Node19</title>
<g id="a_edge28_Node000001_Node000019"><a xlink:title=" ">
<path fill="none" stroke="#63b8ff" d="M332.63,-275.95C318.91,-267.07 301.4,-255.74 287.52,-246.76"/>
<polygon fill="#63b8ff" stroke="#63b8ff" points="289.72,-244.02 279.42,-241.52 285.92,-249.89 289.72,-244.02"/>
</a>
</g>
</g>
<!-- Node4 -->
<g id="Node000004" class="node">
<title>Node4</title>
<g id="a_Node000004"><a xlink:href="iop_2kernel_2include_2types_8h_source.html" target="_top" xlink:title=" ">
<polygon fill="white" stroke="#666666" points="441.5,-74.5 394.75,-74.5 394.75,-55.25 441.5,-55.25 441.5,-74.5"/>
<text text-anchor="middle" x="418.12" y="-61" font-family="Helvetica,sans-Serif" font-size="10.00">types.h</text>
</a>
</g>
</g>
<!-- Node3&#45;&gt;Node4 -->
<g id="edge3_Node000003_Node000004" class="edge">
<title>Node3&#45;&gt;Node4</title>
<g id="a_edge3_Node000003_Node000004"><a xlink:title=" ">
<path fill="none" stroke="#63b8ff" d="M423.8,-220.82C422.87,-195.5 420.18,-122 418.87,-86.09"/>
<polygon fill="#63b8ff" stroke="#63b8ff" points="422.37,-86.1 418.5,-76.23 415.37,-86.36 422.37,-86.1"/>
</a>
</g>
</g>
<!-- Node5 -->
<g id="Node000005" class="node">
<title>Node5</title>
<g id="a_Node000005"><a xlink:title=" ">
<polygon fill="#e0e0e0" stroke="#999999" points="443.38,-19.25 392.88,-19.25 392.88,0 443.38,0 443.38,-19.25"/>
<text text-anchor="middle" x="418.12" y="-5.75" font-family="Helvetica,sans-Serif" font-size="10.00">stddef.h</text>
</a>
</g>
</g>
<!-- Node4&#45;&gt;Node5 -->
<g id="edge4_Node000004_Node000005" class="edge">
<title>Node4&#45;&gt;Node5</title>
<g id="a_edge4_Node000004_Node000005"><a xlink:title=" ">
<path fill="none" stroke="#63b8ff" d="M418.12,-55.08C418.12,-48.57 418.12,-39.42 418.12,-31.12"/>
<polygon fill="#63b8ff" stroke="#63b8ff" points="421.63,-31.12 418.13,-21.12 414.63,-31.12 421.63,-31.12"/>
</a>
</g>
</g>
<!-- Node6 -->
<g id="Node000006" class="node">
<title>Node6</title>
<g id="a_Node000006"><a xlink:href="tamtypes_8h.html" target="_top" xlink:title=" ">
<polygon fill="white" stroke="#666666" points="537.75,-19.25 474.5,-19.25 474.5,0 537.75,0 537.75,-19.25"/>
<text text-anchor="middle" x="506.12" y="-5.75" font-family="Helvetica,sans-Serif" font-size="10.00">tamtypes.h</text>
</a>
</g>
</g>
<!-- Node4&#45;&gt;Node6 -->
<g id="edge5_Node000004_Node000006" class="edge">
<title>Node4&#45;&gt;Node6</title>
<g id="a_edge5_Node000004_Node000006"><a xlink:title=" ">
<path fill="none" stroke="#63b8ff" d="M433.05,-54.84C446.33,-46.81 465.99,-34.91 481.58,-25.48"/>
<polygon fill="#63b8ff" stroke="#63b8ff" points="483.09,-28.66 489.83,-20.49 479.46,-22.67 483.09,-28.66"/>
</a>
</g>
</g>
<!-- Node7&#45;&gt;Node4 -->
<g id="edge7_Node000007_Node000004" class="edge">
<title>Node7&#45;&gt;Node4</title>
<g id="a_edge7_Node000007_Node000004"><a xlink:title=" ">
<path fill="none" stroke="#63b8ff" d="M380.56,-110.33C386.71,-103.05 395.64,-92.48 403.25,-83.48"/>
<polygon fill="#63b8ff" stroke="#63b8ff" points="405.77,-85.91 409.56,-76.02 400.43,-81.39 405.77,-85.91"/>
</a>
</g>
</g>
<!-- Node8&#45;&gt;Node2 -->
<g id="edge9_Node000008_Node000002" class="edge">
<title>Node8&#45;&gt;Node2</title>
<g id="a_edge9_Node000008_Node000002"><a xlink:title=" ">
<path fill="none" stroke="#63b8ff" d="M305.84,-165.34C291.22,-157.23 269.5,-145.18 252.42,-135.71"/>
<polygon fill="#63b8ff" stroke="#63b8ff" points="254.26,-132.73 243.81,-130.94 250.86,-138.85 254.26,-132.73"/>
</a>
</g>
</g>
<!-- Node8&#45;&gt;Node7 -->
<g id="edge10_Node000008_Node000007" class="edge">
<title>Node8&#45;&gt;Node7</title>
<g id="a_edge10_Node000008_Node000007"><a xlink:title=" ">
<path fill="none" stroke="#63b8ff" d="M330.55,-165.58C337.66,-158.15 348.07,-147.29 356.81,-138.16"/>
<polygon fill="#63b8ff" stroke="#63b8ff" points="359.08,-140.85 363.47,-131.2 354.03,-136 359.08,-140.85"/>
</a>
</g>
</g>
<!-- Node9&#45;&gt;Node2 -->
<g id="edge13_Node000009_Node000002" class="edge">
<title>Node9&#45;&gt;Node2</title>
<g id="a_edge13_Node000009_Node000002"><a xlink:title=" ">
<path fill="none" stroke="#63b8ff" d="M150.56,-165.34C164.29,-157.31 184.62,-145.41 200.74,-135.98"/>
<polygon fill="#63b8ff" stroke="#63b8ff" points="202.44,-139.04 209.31,-130.97 198.91,-133 202.44,-139.04"/>
</a>
</g>
</g>
<!-- Node9&#45;&gt;Node7 -->
<g id="edge14_Node000009_Node000007" class="edge">
<title>Node9&#45;&gt;Node7</title>
<g id="a_edge14_Node000009_Node000007"><a xlink:title=" ">
<path fill="none" stroke="#63b8ff" d="M160.15,-168.78C204.83,-158.78 298.05,-137.92 344.93,-127.43"/>
<polygon fill="#63b8ff" stroke="#63b8ff" points="345.58,-130.87 354.58,-125.27 344.06,-124.04 345.58,-130.87"/>
</a>
</g>
</g>
<!-- Node10 -->
<g id="Node000010" class="node">
<title>Node10</title>
<g id="a_Node000010"><a xlink:href="errno_8h.html" target="_top" xlink:title=" ">
<polygon fill="white" stroke="#666666" points="171.75,-129.75 126.5,-129.75 126.5,-110.5 171.75,-110.5 171.75,-129.75"/>
<text text-anchor="middle" x="149.12" y="-116.25" font-family="Helvetica,sans-Serif" font-size="10.00">errno.h</text>
</a>
</g>
</g>
<!-- Node9&#45;&gt;Node10 -->
<g id="edge12_Node000009_Node000010" class="edge">
<title>Node9&#45;&gt;Node10</title>
<g id="a_edge12_Node000009_Node000010"><a xlink:title=" ">
<path fill="none" stroke="#63b8ff" d="M137.44,-165.58C139.19,-158.92 141.67,-149.49 143.89,-141.03"/>
<polygon fill="#63b8ff" stroke="#63b8ff" points="147.22,-142.13 146.38,-131.57 140.45,-140.35 147.22,-142.13"/>
</a>
</g>
</g>
<!-- Node11 -->
<g id="Node000011" class="node">
<title>Node11</title>
<g id="a_Node000011"><a xlink:href="io__common_8h.html" target="_top" xlink:title=" ">
<polygon fill="white" stroke="#666666" points="108,-129.75 34.25,-129.75 34.25,-110.5 108,-110.5 108,-129.75"/>
<text text-anchor="middle" x="71.12" y="-116.25" font-family="Helvetica,sans-Serif" font-size="10.00">io_common.h</text>
</a>
</g>
</g>
<!-- Node9&#45;&gt;Node11 -->
<g id="edge15_Node000009_Node000011" class="edge">
<title>Node9&#45;&gt;Node11</title>
<g id="a_edge15_Node000009_Node000011"><a xlink:title=" ">
<path fill="none" stroke="#63b8ff" d="M124.27,-165.34C115.02,-157.65 101.5,-146.4 90.42,-137.18"/>
<polygon fill="#63b8ff" stroke="#63b8ff" points="92.91,-134.7 82.98,-130.99 88.43,-140.08 92.91,-134.7"/>
</a>
</g>
</g>
<!-- Node12 -->
<g id="Node000012" class="node">
<title>Node12</title>
<g id="a_Node000012"><a xlink:href="fcntl_8h_source.html" target="_top" xlink:title=" ">
<polygon fill="white" stroke="#666666" points="60.25,-74.5 0,-74.5 0,-55.25 60.25,-55.25 60.25,-74.5"/>
<text text-anchor="middle" x="30.12" y="-61" font-family="Helvetica,sans-Serif" font-size="10.00">sys/fcntl.h</text>
</a>
</g>
</g>
<!-- Node11&#45;&gt;Node12 -->
<g id="edge16_Node000011_Node000012" class="edge">
<title>Node11&#45;&gt;Node12</title>
<g id="a_edge16_Node000011_Node000012"><a xlink:title=" ">
<path fill="none" stroke="#63b8ff" d="M64.35,-110.33C58.81,-103.13 50.78,-92.71 43.9,-83.76"/>
<polygon fill="#63b8ff" stroke="#63b8ff" points="46.84,-81.85 37.97,-76.06 41.29,-86.12 46.84,-81.85"/>
</a>
</g>
</g>
<!-- Node13 -->
<g id="Node000013" class="node">
<title>Node13</title>
<g id="a_Node000013"><a xlink:href="unistd_8h_source.html" target="_top" xlink:title=" ">
<polygon fill="white" stroke="#666666" points="146,-74.5 78.25,-74.5 78.25,-55.25 146,-55.25 146,-74.5"/>
<text text-anchor="middle" x="112.12" y="-61" font-family="Helvetica,sans-Serif" font-size="10.00">sys/unistd.h</text>
</a>
</g>
</g>
<!-- Node11&#45;&gt;Node13 -->
<g id="edge17_Node000011_Node000013" class="edge">
<title>Node11&#45;&gt;Node13</title>
<g id="a_edge17_Node000011_Node000013"><a xlink:title=" ">
<path fill="none" stroke="#63b8ff" d="M77.9,-110.33C83.44,-103.13 91.47,-92.71 98.35,-83.76"/>
<polygon fill="#63b8ff" stroke="#63b8ff" points="100.96,-86.12 104.28,-76.06 95.41,-81.85 100.96,-86.12"/>
</a>
</g>
</g>
<!-- Node14&#45;&gt;Node7 -->
<g id="edge20_Node000014_Node000007" class="edge">
<title>Node14&#45;&gt;Node7</title>
<g id="a_edge20_Node000014_Node000007"><a xlink:title=" ">
<path fill="none" stroke="#63b8ff" d="M517.6,-167.19C487.34,-157.54 433.58,-140.4 400.86,-129.97"/>
<polygon fill="#63b8ff" stroke="#63b8ff" points="402.27,-126.74 391.68,-127.04 400.14,-133.41 402.27,-126.74"/>
</a>
</g>
</g>
<!-- Node15 -->
<g id="Node000015" class="node">
<title>Node15</title>
<g id="a_Node000015"><a xlink:title=" ">
<polygon fill="#e0e0e0" stroke="#999999" points="598.38,-129.75 547.88,-129.75 547.88,-110.5 598.38,-110.5 598.38,-129.75"/>
<text text-anchor="middle" x="573.12" y="-116.25" font-family="Helvetica,sans-Serif" font-size="10.00">stdarg.h</text>
</a>
</g>
</g>
<!-- Node14&#45;&gt;Node15 -->
<g id="edge19_Node000014_Node000015" class="edge">
<title>Node14&#45;&gt;Node15</title>
<g id="a_edge19_Node000014_Node000015"><a xlink:title=" ">
<path fill="none" stroke="#63b8ff" d="M545.57,-165.58C549.9,-158.61 556.09,-148.62 561.51,-139.87"/>
<polygon fill="#63b8ff" stroke="#63b8ff" points="564.47,-141.74 566.76,-131.4 558.52,-138.05 564.47,-141.74"/>
</a>
</g>
</g>
<!-- Node16&#45;&gt;Node2 -->
<g id="edge22_Node000016_Node000002" class="edge">
<title>Node16&#45;&gt;Node2</title>
<g id="a_edge22_Node000016_Node000002"><a xlink:title=" ">
<path fill="none" stroke="#63b8ff" d="M446.22,-168.57C401.19,-158.87 310.62,-139.34 260.85,-128.61"/>
<polygon fill="#63b8ff" stroke="#63b8ff" points="261.7,-125.21 251.19,-126.53 260.23,-132.06 261.7,-125.21"/>
</a>
</g>
</g>
<!-- Node16&#45;&gt;Node7 -->
<g id="edge23_Node000016_Node000007" class="edge">
<title>Node16&#45;&gt;Node7</title>
<g id="a_edge23_Node000016_Node000007"><a xlink:title=" ">
<path fill="none" stroke="#63b8ff" d="M456.16,-165.34C440.86,-157.19 418.09,-145.07 400.26,-135.58"/>
<polygon fill="#63b8ff" stroke="#63b8ff" points="401.98,-132.52 391.51,-130.91 398.69,-138.7 401.98,-132.52"/>
</a>
</g>
</g>
<!-- Node16&#45;&gt;Node15 -->
<g id="edge24_Node000016_Node000015" class="edge">
<title>Node16&#45;&gt;Node15</title>
<g id="a_edge24_Node000016_Node000015"><a xlink:title=" ">
<path fill="none" stroke="#63b8ff" d="M490.09,-165.34C505.39,-157.19 528.16,-145.07 545.99,-135.58"/>
<polygon fill="#63b8ff" stroke="#63b8ff" points="547.56,-138.7 554.74,-130.91 544.27,-132.52 547.56,-138.7"/>
</a>
</g>
</g>
<!-- Node17 -->
<g id="Node000017" class="node">
<title>Node17</title>
<g id="a_Node000017"><a xlink:href="setjmp_8h.html" target="_top" xlink:title=" ">
<polygon fill="white" stroke="#666666" points="539.5,-74.5 486.75,-74.5 486.75,-55.25 539.5,-55.25 539.5,-74.5"/>
<text text-anchor="middle" x="513.12" y="-61" font-family="Helvetica,sans-Serif" font-size="10.00">setjmp.h</text>
</a>
</g>
</g>
<!-- Node16&#45;&gt;Node17 -->
<g id="edge25_Node000016_Node000017" class="edge">
<title>Node16&#45;&gt;Node17</title>
<g id="a_edge25_Node000016_Node000017"><a xlink:title=" ">
<path fill="none" stroke="#63b8ff" d="M480.22,-165.35C486.67,-156.7 495.93,-143.04 501.12,-129.75 506.61,-115.72 509.64,-98.95 511.28,-86.12"/>
<polygon fill="#63b8ff" stroke="#63b8ff" points="514.74,-86.66 512.34,-76.35 507.78,-85.91 514.74,-86.66"/>
</a>
</g>
</g>
<!-- Node18 -->
<g id="Node000018" class="node">
<title>Node18</title>
<g id="a_Node000018"><a xlink:href="ctype_8h.html" target="_top" xlink:title=" ">
<polygon fill="white" stroke="#666666" points="492.5,-129.75 445.75,-129.75 445.75,-110.5 492.5,-110.5 492.5,-129.75"/>
<text text-anchor="middle" x="469.12" y="-116.25" font-family="Helvetica,sans-Serif" font-size="10.00">ctype.h</text>
</a>
</g>
</g>
<!-- Node16&#45;&gt;Node18 -->
<g id="edge27_Node000016_Node000018" class="edge">
<title>Node16&#45;&gt;Node18</title>
<g id="a_edge27_Node000016_Node000018"><a xlink:title=" ">
<path fill="none" stroke="#63b8ff" d="M472.46,-165.58C471.97,-158.99 471.27,-149.71 470.64,-141.32"/>
<polygon fill="#63b8ff" stroke="#63b8ff" points="474.15,-141.33 469.91,-131.62 467.17,-141.85 474.15,-141.33"/>
</a>
</g>
</g>
<!-- Node17&#45;&gt;Node6 -->
<g id="edge26_Node000017_Node000006" class="edge">
<title>Node17&#45;&gt;Node6</title>
<g id="a_edge26_Node000017_Node000006"><a xlink:title=" ">
<path fill="none" stroke="#63b8ff" d="M511.97,-55.08C511.1,-48.49 509.88,-39.21 508.78,-30.82"/>
<polygon fill="#63b8ff" stroke="#63b8ff" points="512.28,-30.57 507.5,-21.11 505.34,-31.48 512.28,-30.57"/>
</a>
</g>
</g>
<!-- Node19&#45;&gt;Node2 -->
<g id="edge29_Node000019_Node000002" class="edge">
<title>Node19&#45;&gt;Node2</title>
<g id="a_edge29_Node000019_Node000002"><a xlink:title=" ">
<path fill="none" stroke="#63b8ff" d="M261.02,-220.75C254.95,-203.42 241.4,-164.73 233.08,-140.99"/>
<polygon fill="#63b8ff" stroke="#63b8ff" points="236.39,-139.84 229.78,-131.56 229.78,-142.15 236.39,-139.84"/>
</a>
</g>
</g>
<!-- Node19&#45;&gt;Node7 -->
<g id="edge30_Node000019_Node000007" class="edge">
<title>Node19&#45;&gt;Node7</title>
<g id="a_edge30_Node000019_Node000007"><a xlink:title=" ">
<path fill="none" stroke="#63b8ff" d="M264.57,-220.74C265.68,-207.35 269.56,-181.86 283.12,-165.75 299.18,-146.68 325.37,-134.99 345.36,-128.39"/>
<polygon fill="#63b8ff" stroke="#63b8ff" points="346.3,-131.76 354.85,-125.51 344.27,-125.07 346.3,-131.76"/>
</a>
</g>
</g>
<!-- Node19&#45;&gt;Node8 -->
<g id="edge32_Node000019_Node000008" class="edge">
<title>Node19&#45;&gt;Node8</title>
<g id="a_edge32_Node000019_Node000008"><a xlink:title=" ">
<path fill="none" stroke="#63b8ff" d="M273.96,-220.59C282.18,-213.05 294.11,-202.1 304.04,-192.98"/>
<polygon fill="#63b8ff" stroke="#63b8ff" points="306.32,-195.64 311.32,-186.3 301.58,-190.48 306.32,-195.64"/>
</a>
</g>
</g>
<!-- Node19&#45;&gt;Node9 -->
<g id="edge31_Node000019_Node000009" class="edge">
<title>Node19&#45;&gt;Node9</title>
<g id="a_edge31_Node000019_Node000009"><a xlink:title=" ">
<path fill="none" stroke="#63b8ff" d="M242.24,-220.59C221.76,-212.14 190.91,-199.4 167.57,-189.77"/>
<polygon fill="#63b8ff" stroke="#63b8ff" points="169.09,-186.61 158.51,-186.03 166.42,-193.08 169.09,-186.61"/>
</a>
</g>
</g>
</g>
</svg>
