<?xml version="1.0" encoding="UTF-8" standalone="no"?>
<!DOCTYPE svg PUBLIC "-//W3C//DTD SVG 1.1//EN"
 "http://www.w3.org/Graphics/SVG/1.1/DTD/svg11.dtd">
<!-- Generated by graphviz version 12.2.0 (20241103.1931)
 -->
<!-- Title: iop/system/iopmgr/include/iopmgr.h Pages: 1 -->
<svg width="323pt" height="260pt"
 viewBox="0.00 0.00 322.97 259.50" xmlns="http://www.w3.org/2000/svg" xmlns:xlink="http://www.w3.org/1999/xlink">

<svg id="main" version="1.1" xmlns="http://www.w3.org/2000/svg" xmlns:xlink="http://www.w3.org/1999/xlink" xml:space="preserve">

<style type="text/css"><![CDATA[
.node, .edge {opacity: 0.7;}
.node.selected, .edge.selected {opacity: 1;}
.edge:hover path { stroke: red; }
.edge:hover polygon { stroke: red; fill: red; }
]]></style>
<script type="application/ecmascript" xlink:href="svg.min.js"/>
<svg id="graph" class="graph">
<g id="graph0" class="graph" transform="scale(1 1) rotate(0) translate(4 255.5)">
<title>iop/system/iopmgr/include/iopmgr.h</title>
<!-- Node1 -->
<g id="Node000001" class="node">
<title>Node1</title>
<g id="a_Node000001"><a xlink:title=" ">
<polygon fill="#999999" stroke="#666666" points="135.47,-251.5 6.22,-251.5 6.22,-221 135.47,-221 135.47,-251.5"/>
<text text-anchor="start" x="14.22" y="-238" font-family="Helvetica,sans-Serif" font-size="10.00">iop/system/iopmgr/include</text>
<text text-anchor="middle" x="70.84" y="-226.75" font-family="Helvetica,sans-Serif" font-size="10.00">/iopmgr.h</text>
</a>
</g>
</g>
<!-- Node2 -->
<g id="Node000002" class="node">
<title>Node2</title>
<g id="a_Node000002"><a xlink:title=" ">
<polygon fill="#e0e0e0" stroke="#999999" points="63.22,-129.75 16.47,-129.75 16.47,-110.5 63.22,-110.5 63.22,-129.75"/>
<text text-anchor="middle" x="39.84" y="-116.25" font-family="Helvetica,sans-Serif" font-size="10.00">types.h</text>
</a>
</g>
</g>
<!-- Node1&#45;&gt;Node2 -->
<g id="edge1_Node000001_Node000002" class="edge">
<title>Node1&#45;&gt;Node2</title>
<g id="a_edge1_Node000001_Node000002"><a xlink:title=" ">
<path fill="none" stroke="#63b8ff" d="M39.67,-220.67C25.7,-212.35 10.64,-200.47 2.84,-185 -5.49,-168.48 7.34,-150.28 20.12,-137.54"/>
<polygon fill="#63b8ff" stroke="#63b8ff" points="22.18,-140.41 27.17,-131.06 17.44,-135.25 22.18,-140.41"/>
</a>
</g>
</g>
<!-- Node3 -->
<g id="Node000003" class="node">
<title>Node3</title>
<g id="a_Node000003"><a xlink:href="irx_8h.html" target="_top" xlink:title=" ">
<polygon fill="white" stroke="#666666" points="114.47,-129.75 81.22,-129.75 81.22,-110.5 114.47,-110.5 114.47,-129.75"/>
<text text-anchor="middle" x="97.84" y="-116.25" font-family="Helvetica,sans-Serif" font-size="10.00">irx.h</text>
</a>
</g>
</g>
<!-- Node1&#45;&gt;Node3 -->
<g id="edge2_Node000001_Node000003" class="edge">
<title>Node1&#45;&gt;Node3</title>
<g id="a_edge2_Node000001_Node000003"><a xlink:title=" ">
<path fill="none" stroke="#63b8ff" d="M74.26,-220.8C79.03,-200.65 87.69,-164.06 93.08,-141.25"/>
<polygon fill="#63b8ff" stroke="#63b8ff" points="96.45,-142.21 95.35,-131.67 89.64,-140.6 96.45,-142.21"/>
</a>
</g>
</g>
<!-- Node7 -->
<g id="Node000007" class="node">
<title>Node7</title>
<g id="a_Node000007"><a xlink:href="ioman_8h.html" target="_top" xlink:title=" ">
<polygon fill="white" stroke="#666666" points="177.72,-185 127.97,-185 127.97,-165.75 177.72,-165.75 177.72,-185"/>
<text text-anchor="middle" x="152.84" y="-171.5" font-family="Helvetica,sans-Serif" font-size="10.00">ioman.h</text>
</a>
</g>
</g>
<!-- Node1&#45;&gt;Node7 -->
<g id="edge6_Node000001_Node000007" class="edge">
<title>Node1&#45;&gt;Node7</title>
<g id="a_edge6_Node000001_Node000007"><a xlink:title=" ">
<path fill="none" stroke="#63b8ff" d="M91.11,-220.7C103.24,-211.99 118.65,-200.93 131.03,-192.03"/>
<polygon fill="#63b8ff" stroke="#63b8ff" points="132.89,-195.01 138.97,-186.33 128.81,-189.32 132.89,-195.01"/>
</a>
</g>
</g>
<!-- Node12 -->
<g id="Node000012" class="node">
<title>Node12</title>
<g id="a_Node000012"><a xlink:href="loadcore_8h.html" target="_top" xlink:title=" ">
<polygon fill="white" stroke="#666666" points="71.97,-185 11.72,-185 11.72,-165.75 71.97,-165.75 71.97,-185"/>
<text text-anchor="middle" x="41.84" y="-171.5" font-family="Helvetica,sans-Serif" font-size="10.00">loadcore.h</text>
</a>
</g>
</g>
<!-- Node1&#45;&gt;Node12 -->
<g id="edge13_Node000001_Node000012" class="edge">
<title>Node1&#45;&gt;Node12</title>
<g id="a_edge13_Node000001_Node000012"><a xlink:title=" ">
<path fill="none" stroke="#63b8ff" d="M63.68,-220.7C59.94,-213.11 55.32,-203.74 51.3,-195.57"/>
<polygon fill="#63b8ff" stroke="#63b8ff" points="54.54,-194.23 46.98,-186.81 48.26,-197.33 54.54,-194.23"/>
</a>
</g>
</g>
<!-- Node4 -->
<g id="Node000004" class="node">
<title>Node4</title>
<g id="a_Node000004"><a xlink:href="iop_2kernel_2include_2types_8h_source.html" target="_top" xlink:title=" ">
<polygon fill="white" stroke="#666666" points="121.22,-74.5 74.47,-74.5 74.47,-55.25 121.22,-55.25 121.22,-74.5"/>
<text text-anchor="middle" x="97.84" y="-61" font-family="Helvetica,sans-Serif" font-size="10.00">types.h</text>
</a>
</g>
</g>
<!-- Node3&#45;&gt;Node4 -->
<g id="edge3_Node000003_Node000004" class="edge">
<title>Node3&#45;&gt;Node4</title>
<g id="a_edge3_Node000003_Node000004"><a xlink:title=" ">
<path fill="none" stroke="#63b8ff" d="M97.84,-110.33C97.84,-103.82 97.84,-94.67 97.84,-86.37"/>
<polygon fill="#63b8ff" stroke="#63b8ff" points="101.34,-86.37 97.84,-76.37 94.34,-86.37 101.34,-86.37"/>
</a>
</g>
</g>
<!-- Node5 -->
<g id="Node000005" class="node">
<title>Node5</title>
<g id="a_Node000005"><a xlink:title=" ">
<polygon fill="#e0e0e0" stroke="#999999" points="86.09,-19.25 35.59,-19.25 35.59,0 86.09,0 86.09,-19.25"/>
<text text-anchor="middle" x="60.84" y="-5.75" font-family="Helvetica,sans-Serif" font-size="10.00">stddef.h</text>
</a>
</g>
</g>
<!-- Node4&#45;&gt;Node5 -->
<g id="edge4_Node000004_Node000005" class="edge">
<title>Node4&#45;&gt;Node5</title>
<g id="a_edge4_Node000004_Node000005"><a xlink:title=" ">
<path fill="none" stroke="#63b8ff" d="M91.73,-55.08C86.78,-47.96 79.64,-37.68 73.47,-28.8"/>
<polygon fill="#63b8ff" stroke="#63b8ff" points="76.53,-27.07 67.95,-20.85 70.78,-31.06 76.53,-27.07"/>
</a>
</g>
</g>
<!-- Node6 -->
<g id="Node000006" class="node">
<title>Node6</title>
<g id="a_Node000006"><a xlink:href="tamtypes_8h.html" target="_top" xlink:title=" ">
<polygon fill="white" stroke="#666666" points="167.47,-19.25 104.22,-19.25 104.22,0 167.47,0 167.47,-19.25"/>
<text text-anchor="middle" x="135.84" y="-5.75" font-family="Helvetica,sans-Serif" font-size="10.00">tamtypes.h</text>
</a>
</g>
</g>
<!-- Node4&#45;&gt;Node6 -->
<g id="edge5_Node000004_Node000006" class="edge">
<title>Node4&#45;&gt;Node6</title>
<g id="a_edge5_Node000004_Node000006"><a xlink:title=" ">
<path fill="none" stroke="#63b8ff" d="M104.12,-55.08C109.2,-47.96 116.54,-37.68 122.88,-28.8"/>
<polygon fill="#63b8ff" stroke="#63b8ff" points="125.59,-31.01 128.55,-20.84 119.9,-26.95 125.59,-31.01"/>
</a>
</g>
</g>
<!-- Node7&#45;&gt;Node2 -->
<g id="edge8_Node000007_Node000002" class="edge">
<title>Node7&#45;&gt;Node2</title>
<g id="a_edge8_Node000007_Node000002"><a xlink:title=" ">
<path fill="none" stroke="#63b8ff" d="M133.67,-165.34C116.06,-157.04 89.69,-144.61 69.38,-135.04"/>
<polygon fill="#63b8ff" stroke="#63b8ff" points="71.01,-131.94 60.48,-130.85 68.03,-138.28 71.01,-131.94"/>
</a>
</g>
</g>
<!-- Node7&#45;&gt;Node3 -->
<g id="edge9_Node000007_Node000003" class="edge">
<title>Node7&#45;&gt;Node3</title>
<g id="a_edge9_Node000007_Node000003"><a xlink:title=" ">
<path fill="none" stroke="#63b8ff" d="M143.76,-165.58C136.01,-158.07 124.63,-147.06 115.15,-137.88"/>
<polygon fill="#63b8ff" stroke="#63b8ff" points="117.83,-135.6 108.21,-131.16 112.96,-140.63 117.83,-135.6"/>
</a>
</g>
</g>
<!-- Node8 -->
<g id="Node000008" class="node">
<title>Node8</title>
<g id="a_Node000008"><a xlink:href="errno_8h.html" target="_top" xlink:title=" ">
<polygon fill="white" stroke="#666666" points="177.47,-129.75 132.22,-129.75 132.22,-110.5 177.47,-110.5 177.47,-129.75"/>
<text text-anchor="middle" x="154.84" y="-116.25" font-family="Helvetica,sans-Serif" font-size="10.00">errno.h</text>
</a>
</g>
</g>
<!-- Node7&#45;&gt;Node8 -->
<g id="edge7_Node000007_Node000008" class="edge">
<title>Node7&#45;&gt;Node8</title>
<g id="a_edge7_Node000007_Node000008"><a xlink:title=" ">
<path fill="none" stroke="#63b8ff" d="M153.17,-165.58C153.42,-158.99 153.77,-149.71 154.08,-141.32"/>
<polygon fill="#63b8ff" stroke="#63b8ff" points="157.57,-141.75 154.45,-131.62 150.58,-141.48 157.57,-141.75"/>
</a>
</g>
</g>
<!-- Node9 -->
<g id="Node000009" class="node">
<title>Node9</title>
<g id="a_Node000009"><a xlink:href="io__common_8h.html" target="_top" xlink:title=" ">
<polygon fill="white" stroke="#666666" points="269.72,-129.75 195.97,-129.75 195.97,-110.5 269.72,-110.5 269.72,-129.75"/>
<text text-anchor="middle" x="232.84" y="-116.25" font-family="Helvetica,sans-Serif" font-size="10.00">io_common.h</text>
</a>
</g>
</g>
<!-- Node7&#45;&gt;Node9 -->
<g id="edge10_Node000007_Node000009" class="edge">
<title>Node7&#45;&gt;Node9</title>
<g id="a_edge10_Node000007_Node000009"><a xlink:title=" ">
<path fill="none" stroke="#63b8ff" d="M166.41,-165.34C178.25,-157.46 195.68,-145.86 209.71,-136.52"/>
<polygon fill="#63b8ff" stroke="#63b8ff" points="211.56,-139.5 217.95,-131.04 207.68,-133.67 211.56,-139.5"/>
</a>
</g>
</g>
<!-- Node10 -->
<g id="Node000010" class="node">
<title>Node10</title>
<g id="a_Node000010"><a xlink:href="fcntl_8h_source.html" target="_top" xlink:title=" ">
<polygon fill="white" stroke="#666666" points="314.97,-74.5 254.72,-74.5 254.72,-55.25 314.97,-55.25 314.97,-74.5"/>
<text text-anchor="middle" x="284.84" y="-61" font-family="Helvetica,sans-Serif" font-size="10.00">sys/fcntl.h</text>
</a>
</g>
</g>
<!-- Node9&#45;&gt;Node10 -->
<g id="edge11_Node000009_Node000010" class="edge">
<title>Node9&#45;&gt;Node10</title>
<g id="a_edge11_Node000009_Node000010"><a xlink:title=" ">
<path fill="none" stroke="#63b8ff" d="M241.43,-110.33C248.69,-102.9 259.3,-92.04 268.21,-82.91"/>
<polygon fill="#63b8ff" stroke="#63b8ff" points="270.53,-85.54 275.01,-75.94 265.52,-80.65 270.53,-85.54"/>
</a>
</g>
</g>
<!-- Node11 -->
<g id="Node000011" class="node">
<title>Node11</title>
<g id="a_Node000011"><a xlink:href="unistd_8h_source.html" target="_top" xlink:title=" ">
<polygon fill="white" stroke="#666666" points="236.72,-74.5 168.97,-74.5 168.97,-55.25 236.72,-55.25 236.72,-74.5"/>
<text text-anchor="middle" x="202.84" y="-61" font-family="Helvetica,sans-Serif" font-size="10.00">sys/unistd.h</text>
</a>
</g>
</g>
<!-- Node9&#45;&gt;Node11 -->
<g id="edge12_Node000009_Node000011" class="edge">
<title>Node9&#45;&gt;Node11</title>
<g id="a_edge12_Node000009_Node000011"><a xlink:title=" ">
<path fill="none" stroke="#63b8ff" d="M227.89,-110.33C223.96,-103.36 218.33,-93.37 213.41,-84.62"/>
<polygon fill="#63b8ff" stroke="#63b8ff" points="216.61,-83.17 208.65,-76.18 210.51,-86.61 216.61,-83.17"/>
</a>
</g>
</g>
<!-- Node12&#45;&gt;Node2 -->
<g id="edge14_Node000012_Node000002" class="edge">
<title>Node12&#45;&gt;Node2</title>
<g id="a_edge14_Node000012_Node000002"><a xlink:title=" ">
<path fill="none" stroke="#63b8ff" d="M41.51,-165.58C41.27,-158.99 40.92,-149.71 40.6,-141.32"/>
<polygon fill="#63b8ff" stroke="#63b8ff" points="44.11,-141.48 40.24,-131.62 37.12,-141.75 44.11,-141.48"/>
</a>
</g>
</g>
<!-- Node12&#45;&gt;Node3 -->
<g id="edge15_Node000012_Node000003" class="edge">
<title>Node12&#45;&gt;Node3</title>
<g id="a_edge15_Node000012_Node000003"><a xlink:title=" ">
<path fill="none" stroke="#63b8ff" d="M51.34,-165.34C59.28,-157.8 70.79,-146.85 80.38,-137.73"/>
<polygon fill="#63b8ff" stroke="#63b8ff" points="82.55,-140.49 87.39,-131.07 77.73,-135.42 82.55,-140.49"/>
</a>
</g>
</g>
</g>
</svg>
</svg>

<style type='text/css'>
<![CDATA[
[data-mouse-over-selected='false'] { opacity: 0.7; }
[data-mouse-over-selected='true']  { opacity: 1.0; }
]]>
</style>
<script type="application/ecmascript"><![CDATA[
document.addEventListener('DOMContentLoaded', (event) => {
  highlightEdges();
  highlightAdjacentNodes();
});
]]></script>
</svg>
