<?xml version="1.0" encoding="UTF-8" standalone="no"?>
<!DOCTYPE svg PUBLIC "-//W3C//DTD SVG 1.1//EN"
 "http://www.w3.org/Graphics/SVG/1.1/DTD/svg11.dtd">
<!-- Generated by graphviz version 12.2.0 (20241103.1931)
 -->
<!-- Title: iop/usb/usbd/src/mem.c Pages: 1 -->
<svg width="174pt" height="359pt"
 viewBox="0.00 0.00 174.38 358.75" xmlns="http://www.w3.org/2000/svg" xmlns:xlink="http://www.w3.org/1999/xlink">
<g id="graph0" class="graph" transform="scale(1 1) rotate(0) translate(4 354.75)">
<title>iop/usb/usbd/src/mem.c</title>
<!-- Node1 -->
<g id="Node000001" class="node">
<title>Node1</title>
<g id="a_Node000001"><a xlink:title=" ">
<polygon fill="#999999" stroke="#666666" points="154.25,-350.75 34,-350.75 34,-331.5 154.25,-331.5 154.25,-350.75"/>
<text text-anchor="middle" x="94.12" y="-337.25" font-family="Helvetica,sans-Serif" font-size="10.00">iop/usb/usbd/src/mem.c</text>
</a>
</g>
</g>
<!-- Node2 -->
<g id="Node000002" class="node">
<title>Node2</title>
<g id="a_Node000002"><a xlink:href="usbdpriv_8h.html" target="_top" xlink:title=" ">
<polygon fill="white" stroke="#666666" points="87.25,-240.25 27,-240.25 27,-221 87.25,-221 87.25,-240.25"/>
<text text-anchor="middle" x="57.12" y="-226.75" font-family="Helvetica,sans-Serif" font-size="10.00">usbdpriv.h</text>
</a>
</g>
</g>
<!-- Node1&#45;&gt;Node2 -->
<g id="edge1_Node000001_Node000002" class="edge">
<title>Node1&#45;&gt;Node2</title>
<g id="a_edge1_Node000001_Node000002"><a xlink:title=" ">
<path fill="none" stroke="#63b8ff" d="M91.8,-331.36C88.45,-318.98 81.92,-295.69 75.12,-276.25 72.2,-267.87 68.6,-258.76 65.39,-250.97"/>
<polygon fill="#63b8ff" stroke="#63b8ff" points="68.65,-249.68 61.55,-241.82 62.19,-252.39 68.65,-249.68"/>
</a>
</g>
</g>
<!-- Node10 -->
<g id="Node000010" class="node">
<title>Node10</title>
<g id="a_Node000010"><a xlink:href="mem_8h.html" target="_top" xlink:title=" ">
<polygon fill="white" stroke="#666666" points="65.75,-295.5 20.5,-295.5 20.5,-276.25 65.75,-276.25 65.75,-295.5"/>
<text text-anchor="middle" x="43.12" y="-282" font-family="Helvetica,sans-Serif" font-size="10.00">mem.h</text>
</a>
</g>
</g>
<!-- Node1&#45;&gt;Node10 -->
<g id="edge11_Node000001_Node000010" class="edge">
<title>Node1&#45;&gt;Node10</title>
<g id="a_edge11_Node000001_Node000010"><a xlink:title=" ">
<path fill="none" stroke="#63b8ff" d="M85.7,-331.33C78.59,-323.9 68.18,-313.04 59.44,-303.91"/>
<polygon fill="#63b8ff" stroke="#63b8ff" points="62.22,-301.75 52.78,-296.95 57.17,-306.6 62.22,-301.75"/>
</a>
</g>
</g>
<!-- Node11 -->
<g id="Node000011" class="node">
<title>Node11</title>
<g id="a_Node000011"><a xlink:href="stdio_8h.html" target="_top" xlink:title=" ">
<polygon fill="white" stroke="#666666" points="166.38,-295.5 121.88,-295.5 121.88,-276.25 166.38,-276.25 166.38,-295.5"/>
<text text-anchor="middle" x="144.12" y="-282" font-family="Helvetica,sans-Serif" font-size="10.00">stdio.h</text>
</a>
</g>
</g>
<!-- Node1&#45;&gt;Node11 -->
<g id="edge13_Node000001_Node000011" class="edge">
<title>Node1&#45;&gt;Node11</title>
<g id="a_edge13_Node000001_Node000011"><a xlink:title=" ">
<path fill="none" stroke="#63b8ff" d="M102.38,-331.33C109.29,-323.98 119.35,-313.26 127.86,-304.19"/>
<polygon fill="#63b8ff" stroke="#63b8ff" points="130.36,-306.65 134.65,-296.96 125.26,-301.86 130.36,-306.65"/>
</a>
</g>
</g>
<!-- Node3 -->
<g id="Node000003" class="node">
<title>Node3</title>
<g id="a_Node000003"><a xlink:href="usbd_8h.html" target="_top" xlink:title=" ">
<polygon fill="white" stroke="#666666" points="142.38,-185 97.88,-185 97.88,-165.75 142.38,-165.75 142.38,-185"/>
<text text-anchor="middle" x="120.12" y="-171.5" font-family="Helvetica,sans-Serif" font-size="10.00">usbd.h</text>
</a>
</g>
</g>
<!-- Node2&#45;&gt;Node3 -->
<g id="edge2_Node000002_Node000003" class="edge">
<title>Node2&#45;&gt;Node3</title>
<g id="a_edge2_Node000002_Node000003"><a xlink:title=" ">
<path fill="none" stroke="#63b8ff" d="M67.81,-220.59C76.83,-212.97 89.96,-201.87 100.81,-192.7"/>
<polygon fill="#63b8ff" stroke="#63b8ff" points="103.06,-195.38 108.44,-186.25 98.54,-190.03 103.06,-195.38"/>
</a>
</g>
</g>
<!-- Node4 -->
<g id="Node000004" class="node">
<title>Node4</title>
<g id="a_Node000004"><a xlink:title=" ">
<polygon fill="#e0e0e0" stroke="#999999" points="95.5,-129.75 48.75,-129.75 48.75,-110.5 95.5,-110.5 95.5,-129.75"/>
<text text-anchor="middle" x="72.12" y="-116.25" font-family="Helvetica,sans-Serif" font-size="10.00">types.h</text>
</a>
</g>
</g>
<!-- Node2&#45;&gt;Node4 -->
<g id="edge8_Node000002_Node000004" class="edge">
<title>Node2&#45;&gt;Node4</title>
<g id="a_edge8_Node000002_Node000004"><a xlink:title=" ">
<path fill="none" stroke="#63b8ff" d="M58.35,-220.75C60.74,-203.5 66.05,-165.08 69.33,-141.31"/>
<polygon fill="#63b8ff" stroke="#63b8ff" points="72.77,-142.01 70.67,-131.63 65.84,-141.05 72.77,-142.01"/>
</a>
</g>
</g>
<!-- Node9 -->
<g id="Node000009" class="node">
<title>Node9</title>
<g id="a_Node000009"><a xlink:href="defs_8h.html" target="_top" xlink:title=" ">
<polygon fill="white" stroke="#666666" points="42.25,-185 0,-185 0,-165.75 42.25,-165.75 42.25,-185"/>
<text text-anchor="middle" x="21.12" y="-171.5" font-family="Helvetica,sans-Serif" font-size="10.00">defs.h</text>
</a>
</g>
</g>
<!-- Node2&#45;&gt;Node9 -->
<g id="edge9_Node000002_Node000009" class="edge">
<title>Node2&#45;&gt;Node9</title>
<g id="a_edge9_Node000002_Node000009"><a xlink:title=" ">
<path fill="none" stroke="#63b8ff" d="M51.18,-220.83C46.41,-213.78 39.56,-203.65 33.6,-194.83"/>
<polygon fill="#63b8ff" stroke="#63b8ff" points="36.55,-192.94 28.05,-186.61 30.75,-196.86 36.55,-192.94"/>
</a>
</g>
</g>
<!-- Node3&#45;&gt;Node4 -->
<g id="edge3_Node000003_Node000004" class="edge">
<title>Node3&#45;&gt;Node4</title>
<g id="a_edge3_Node000003_Node000004"><a xlink:title=" ">
<path fill="none" stroke="#63b8ff" d="M112.2,-165.58C105.57,-158.23 95.91,-147.51 87.74,-138.44"/>
<polygon fill="#63b8ff" stroke="#63b8ff" points="90.53,-136.32 81.24,-131.23 85.33,-141 90.53,-136.32"/>
</a>
</g>
</g>
<!-- Node5 -->
<g id="Node000005" class="node">
<title>Node5</title>
<g id="a_Node000005"><a xlink:href="irx_8h.html" target="_top" xlink:title=" ">
<polygon fill="white" stroke="#666666" points="146.75,-129.75 113.5,-129.75 113.5,-110.5 146.75,-110.5 146.75,-129.75"/>
<text text-anchor="middle" x="130.12" y="-116.25" font-family="Helvetica,sans-Serif" font-size="10.00">irx.h</text>
</a>
</g>
</g>
<!-- Node3&#45;&gt;Node5 -->
<g id="edge4_Node000003_Node000005" class="edge">
<title>Node3&#45;&gt;Node5</title>
<g id="a_edge4_Node000003_Node000005"><a xlink:title=" ">
<path fill="none" stroke="#63b8ff" d="M121.78,-165.58C123.01,-158.99 124.76,-149.71 126.33,-141.32"/>
<polygon fill="#63b8ff" stroke="#63b8ff" points="129.75,-142.07 128.16,-131.6 122.87,-140.78 129.75,-142.07"/>
</a>
</g>
</g>
<!-- Node6 -->
<g id="Node000006" class="node">
<title>Node6</title>
<g id="a_Node000006"><a xlink:href="iop_2kernel_2include_2types_8h_source.html" target="_top" xlink:title=" ">
<polygon fill="white" stroke="#666666" points="98.5,-74.5 51.75,-74.5 51.75,-55.25 98.5,-55.25 98.5,-74.5"/>
<text text-anchor="middle" x="75.12" y="-61" font-family="Helvetica,sans-Serif" font-size="10.00">types.h</text>
</a>
</g>
</g>
<!-- Node5&#45;&gt;Node6 -->
<g id="edge5_Node000005_Node000006" class="edge">
<title>Node5&#45;&gt;Node6</title>
<g id="a_edge5_Node000005_Node000006"><a xlink:title=" ">
<path fill="none" stroke="#63b8ff" d="M121.04,-110.33C113.29,-102.82 101.91,-91.81 92.43,-82.63"/>
<polygon fill="#63b8ff" stroke="#63b8ff" points="95.11,-80.35 85.49,-75.91 90.24,-85.38 95.11,-80.35"/>
</a>
</g>
</g>
<!-- Node7 -->
<g id="Node000007" class="node">
<title>Node7</title>
<g id="a_Node000007"><a xlink:title=" ">
<polygon fill="#e0e0e0" stroke="#999999" points="63.38,-19.25 12.88,-19.25 12.88,0 63.38,0 63.38,-19.25"/>
<text text-anchor="middle" x="38.12" y="-5.75" font-family="Helvetica,sans-Serif" font-size="10.00">stddef.h</text>
</a>
</g>
</g>
<!-- Node6&#45;&gt;Node7 -->
<g id="edge6_Node000006_Node000007" class="edge">
<title>Node6&#45;&gt;Node7</title>
<g id="a_edge6_Node000006_Node000007"><a xlink:title=" ">
<path fill="none" stroke="#63b8ff" d="M69.02,-55.08C64.06,-47.96 56.92,-37.68 50.75,-28.8"/>
<polygon fill="#63b8ff" stroke="#63b8ff" points="53.81,-27.07 45.23,-20.85 48.06,-31.06 53.81,-27.07"/>
</a>
</g>
</g>
<!-- Node8 -->
<g id="Node000008" class="node">
<title>Node8</title>
<g id="a_Node000008"><a xlink:href="tamtypes_8h.html" target="_top" xlink:title=" ">
<polygon fill="white" stroke="#666666" points="144.75,-19.25 81.5,-19.25 81.5,0 144.75,0 144.75,-19.25"/>
<text text-anchor="middle" x="113.12" y="-5.75" font-family="Helvetica,sans-Serif" font-size="10.00">tamtypes.h</text>
</a>
</g>
</g>
<!-- Node6&#45;&gt;Node8 -->
<g id="edge7_Node000006_Node000008" class="edge">
<title>Node6&#45;&gt;Node8</title>
<g id="a_edge7_Node000006_Node000008"><a xlink:title=" ">
<path fill="none" stroke="#63b8ff" d="M81.4,-55.08C86.48,-47.96 93.82,-37.68 100.16,-28.8"/>
<polygon fill="#63b8ff" stroke="#63b8ff" points="102.87,-31.01 105.83,-20.84 97.18,-26.95 102.87,-31.01"/>
</a>
</g>
</g>
<!-- Node9&#45;&gt;Node6 -->
<g id="edge10_Node000009_Node000006" class="edge">
<title>Node9&#45;&gt;Node6</title>
<g id="a_edge10_Node000009_Node000006"><a xlink:title=" ">
<path fill="none" stroke="#63b8ff" d="M22.71,-165.29C25.18,-152.53 30.67,-128.79 40.12,-110.5 45.14,-100.8 52.38,-91.13 58.97,-83.28"/>
<polygon fill="#63b8ff" stroke="#63b8ff" points="61.52,-85.69 65.5,-75.87 56.27,-81.06 61.52,-85.69"/>
</a>
</g>
</g>
<!-- Node10&#45;&gt;Node2 -->
<g id="edge12_Node000010_Node000002" class="edge">
<title>Node10&#45;&gt;Node2</title>
<g id="a_edge12_Node000010_Node000002"><a xlink:title=" ">
<path fill="none" stroke="#63b8ff" d="M45.44,-276.08C47.19,-269.42 49.67,-259.99 51.89,-251.53"/>
<polygon fill="#63b8ff" stroke="#63b8ff" points="55.22,-252.63 54.38,-242.07 48.45,-250.85 55.22,-252.63"/>
</a>
</g>
</g>
<!-- Node11&#45;&gt;Node5 -->
<g id="edge15_Node000011_Node000005" class="edge">
<title>Node11&#45;&gt;Node5</title>
<g id="a_edge15_Node000011_Node000005"><a xlink:title=" ">
<path fill="none" stroke="#63b8ff" d="M149.44,-276.03C154.36,-267.29 161.32,-253.37 164.12,-240.25 171.82,-204.28 154.06,-163.21 141.42,-139.9"/>
<polygon fill="#63b8ff" stroke="#63b8ff" points="144.51,-138.25 136.51,-131.3 138.43,-141.72 144.51,-138.25"/>
</a>
</g>
</g>
<!-- Node12 -->
<g id="Node000012" class="node">
<title>Node12</title>
<g id="a_Node000012"><a xlink:title=" ">
<polygon fill="#e0e0e0" stroke="#999999" points="155.38,-240.25 104.88,-240.25 104.88,-221 155.38,-221 155.38,-240.25"/>
<text text-anchor="middle" x="130.12" y="-226.75" font-family="Helvetica,sans-Serif" font-size="10.00">stdarg.h</text>
</a>
</g>
</g>
<!-- Node11&#45;&gt;Node12 -->
<g id="edge14_Node000011_Node000012" class="edge">
<title>Node11&#45;&gt;Node12</title>
<g id="a_edge14_Node000011_Node000012"><a xlink:title=" ">
<path fill="none" stroke="#63b8ff" d="M141.81,-276.08C140.06,-269.42 137.58,-259.99 135.36,-251.53"/>
<polygon fill="#63b8ff" stroke="#63b8ff" points="138.8,-250.85 132.87,-242.07 132.03,-252.63 138.8,-250.85"/>
</a>
</g>
</g>
</g>
</svg>
