<?xml version="1.0" encoding="UTF-8" standalone="no"?>
<!DOCTYPE svg PUBLIC "-//W3C//DTD SVG 1.1//EN"
 "http://www.w3.org/Graphics/SVG/1.1/DTD/svg11.dtd">
<!-- Generated by graphviz version 12.2.0 (20241103.1931)
 -->
<!-- Title: ee/kernel/src/osd_config.c Pages: 1 -->
<svg width="701pt" height="304pt"
 viewBox="0.00 0.00 700.96 303.50" xmlns="http://www.w3.org/2000/svg" xmlns:xlink="http://www.w3.org/1999/xlink">
<g id="graph0" class="graph" transform="scale(1 1) rotate(0) translate(4 299.5)">
<title>ee/kernel/src/osd_config.c</title>
<!-- Node1 -->
<g id="Node000001" class="node">
<title>Node1</title>
<g id="a_Node000001"><a xlink:title=" ">
<polygon fill="#999999" stroke="#666666" points="501.71,-295.5 372.46,-295.5 372.46,-276.25 501.71,-276.25 501.71,-295.5"/>
<text text-anchor="middle" x="437.09" y="-282" font-family="Helvetica,sans-Serif" font-size="10.00">ee/kernel/src/osd_config.c</text>
</a>
</g>
</g>
<!-- Node2 -->
<g id="Node000002" class="node">
<title>Node2</title>
<g id="a_Node000002"><a xlink:href="tamtypes_8h.html" target="_top" xlink:title=" ">
<polygon fill="white" stroke="#666666" points="308.71,-19.25 245.46,-19.25 245.46,0 308.71,0 308.71,-19.25"/>
<text text-anchor="middle" x="277.09" y="-5.75" font-family="Helvetica,sans-Serif" font-size="10.00">tamtypes.h</text>
</a>
</g>
</g>
<!-- Node1&#45;&gt;Node2 -->
<g id="edge1_Node000001_Node000002" class="edge">
<title>Node1&#45;&gt;Node2</title>
<g id="a_edge1_Node000001_Node000002"><a xlink:title=" ">
<path fill="none" stroke="#63b8ff" d="M446.35,-275.97C463.42,-258.57 498.09,-218.08 498.09,-176.38 498.09,-176.38 498.09,-176.38 498.09,-119.12 498.09,-40.66 384.45,-18.94 320.15,-12.92"/>
<polygon fill="#63b8ff" stroke="#63b8ff" points="320.52,-9.44 310.26,-12.1 319.94,-16.42 320.52,-9.44"/>
</a>
</g>
</g>
<!-- Node3 -->
<g id="Node000003" class="node">
<title>Node3</title>
<g id="a_Node000003"><a xlink:href="kernel_8h.html" target="_top" xlink:title=" ">
<polygon fill="white" stroke="#666666" points="54.96,-185 5.21,-185 5.21,-165.75 54.96,-165.75 54.96,-185"/>
<text text-anchor="middle" x="30.09" y="-171.5" font-family="Helvetica,sans-Serif" font-size="10.00">kernel.h</text>
</a>
</g>
</g>
<!-- Node1&#45;&gt;Node3 -->
<g id="edge2_Node000001_Node000003" class="edge">
<title>Node1&#45;&gt;Node3</title>
<g id="a_edge2_Node000001_Node000003"><a xlink:title=" ">
<path fill="none" stroke="#63b8ff" d="M372.09,-276.47C322.48,-269.22 252.73,-257.22 193.09,-240.25 145.23,-226.63 91.93,-204.31 59.71,-189.99"/>
<polygon fill="#63b8ff" stroke="#63b8ff" points="61.18,-186.81 50.62,-185.9 58.31,-193.19 61.18,-186.81"/>
</a>
</g>
</g>
<!-- Node7 -->
<g id="Node000007" class="node">
<title>Node7</title>
<g id="a_Node000007"><a xlink:href="stdio_8h.html" target="_top" xlink:title=" ">
<polygon fill="white" stroke="#666666" points="141.34,-185 96.84,-185 96.84,-165.75 141.34,-165.75 141.34,-185"/>
<text text-anchor="middle" x="119.09" y="-171.5" font-family="Helvetica,sans-Serif" font-size="10.00">stdio.h</text>
</a>
</g>
</g>
<!-- Node1&#45;&gt;Node7 -->
<g id="edge7_Node000001_Node000007" class="edge">
<title>Node1&#45;&gt;Node7</title>
<g id="a_edge7_Node000001_Node000007"><a xlink:title=" ">
<path fill="none" stroke="#63b8ff" d="M377.09,-275.81C336.95,-268.69 283.38,-257.12 238.09,-240.25 203.22,-227.26 165.85,-205.83 142.48,-191.41"/>
<polygon fill="#63b8ff" stroke="#63b8ff" points="144.41,-188.49 134.07,-186.14 140.69,-194.42 144.41,-188.49"/>
</a>
</g>
</g>
<!-- Node10 -->
<g id="Node000010" class="node">
<title>Node10</title>
<g id="a_Node000010"><a xlink:href="fcntl_8h_source.html" target="_top" xlink:title=" ">
<polygon fill="white" stroke="#666666" points="593.21,-129.75 532.96,-129.75 532.96,-110.5 593.21,-110.5 593.21,-129.75"/>
<text text-anchor="middle" x="563.09" y="-116.25" font-family="Helvetica,sans-Serif" font-size="10.00">sys/fcntl.h</text>
</a>
</g>
</g>
<!-- Node1&#45;&gt;Node10 -->
<g id="edge13_Node000001_Node000010" class="edge">
<title>Node1&#45;&gt;Node10</title>
<g id="a_edge13_Node000001_Node000010"><a xlink:title=" ">
<path fill="none" stroke="#63b8ff" d="M460.03,-275.84C476.39,-268.4 497.91,-256.44 512.09,-240.25 537.82,-210.87 552.1,-166.56 558.64,-141.08"/>
<polygon fill="#63b8ff" stroke="#63b8ff" points="561.96,-142.24 560.88,-131.7 555.15,-140.61 561.96,-142.24"/>
</a>
</g>
</g>
<!-- Node11 -->
<g id="Node000011" class="node">
<title>Node11</title>
<g id="a_Node000011"><a xlink:href="unistd_8h_source.html" target="_top" xlink:title=" ">
<polygon fill="white" stroke="#666666" points="692.96,-129.75 625.21,-129.75 625.21,-110.5 692.96,-110.5 692.96,-129.75"/>
<text text-anchor="middle" x="659.09" y="-116.25" font-family="Helvetica,sans-Serif" font-size="10.00">sys/unistd.h</text>
</a>
</g>
</g>
<!-- Node1&#45;&gt;Node11 -->
<g id="edge14_Node000001_Node000011" class="edge">
<title>Node1&#45;&gt;Node11</title>
<g id="a_edge14_Node000001_Node000011"><a xlink:title=" ">
<path fill="none" stroke="#63b8ff" d="M502.2,-284.07C541.9,-280.32 591.33,-269.42 625.09,-240.25 653.76,-215.48 659.07,-168.39 659.6,-141.43"/>
<polygon fill="#63b8ff" stroke="#63b8ff" points="663.1,-141.49 659.56,-131.51 656.1,-141.52 663.1,-141.49"/>
</a>
</g>
</g>
<!-- Node12 -->
<g id="Node000012" class="node">
<title>Node12</title>
<g id="a_Node000012"><a xlink:href="string_8h_source.html" target="_top" xlink:title=" ">
<polygon fill="white" stroke="#666666" points="294.84,-240.25 247.34,-240.25 247.34,-221 294.84,-221 294.84,-240.25"/>
<text text-anchor="middle" x="271.09" y="-226.75" font-family="Helvetica,sans-Serif" font-size="10.00">string.h</text>
</a>
</g>
</g>
<!-- Node1&#45;&gt;Node12 -->
<g id="edge15_Node000001_Node000012" class="edge">
<title>Node1&#45;&gt;Node12</title>
<g id="a_edge15_Node000001_Node000012"><a xlink:title=" ">
<path fill="none" stroke="#63b8ff" d="M408.93,-275.84C380.51,-266.72 336.55,-252.63 305.95,-242.81"/>
<polygon fill="#63b8ff" stroke="#63b8ff" points="307.36,-239.59 296.77,-239.86 305.22,-246.25 307.36,-239.59"/>
</a>
</g>
</g>
<!-- Node16 -->
<g id="Node000016" class="node">
<title>Node16</title>
<g id="a_Node000016"><a xlink:href="osd__config_8h.html" target="_top" xlink:title=" ">
<polygon fill="white" stroke="#666666" points="402.09,-240.25 332.09,-240.25 332.09,-221 402.09,-221 402.09,-240.25"/>
<text text-anchor="middle" x="367.09" y="-226.75" font-family="Helvetica,sans-Serif" font-size="10.00">osd_config.h</text>
</a>
</g>
</g>
<!-- Node1&#45;&gt;Node16 -->
<g id="edge23_Node000001_Node000016" class="edge">
<title>Node1&#45;&gt;Node16</title>
<g id="a_edge23_Node000001_Node000016"><a xlink:title=" ">
<path fill="none" stroke="#63b8ff" d="M425.21,-275.84C415,-268.07 400.02,-256.67 387.82,-247.4"/>
<polygon fill="#63b8ff" stroke="#63b8ff" points="390.07,-244.71 379.99,-241.44 385.83,-250.28 390.07,-244.71"/>
</a>
</g>
</g>
<!-- Node17 -->
<g id="Node000017" class="node">
<title>Node17</title>
<g id="a_Node000017"><a xlink:href="rom0__info_8h.html" target="_top" xlink:title=" ">
<polygon fill="white" stroke="#666666" points="470.21,-185 403.96,-185 403.96,-165.75 470.21,-165.75 470.21,-185"/>
<text text-anchor="middle" x="437.09" y="-171.5" font-family="Helvetica,sans-Serif" font-size="10.00">rom0_info.h</text>
</a>
</g>
</g>
<!-- Node1&#45;&gt;Node17 -->
<g id="edge29_Node000001_Node000017" class="edge">
<title>Node1&#45;&gt;Node17</title>
<g id="a_edge29_Node000001_Node000017"><a xlink:title=" ">
<path fill="none" stroke="#63b8ff" d="M437.09,-276C437.09,-258.75 437.09,-220.33 437.09,-196.56"/>
<polygon fill="#63b8ff" stroke="#63b8ff" points="440.59,-196.89 437.09,-186.89 433.59,-196.89 440.59,-196.89"/>
</a>
</g>
</g>
<!-- Node20 -->
<g id="Node000020" class="node">
<title>Node20</title>
<g id="a_Node000020"><a xlink:href="fileio_8h.html" target="_top" xlink:title=" ">
<polygon fill="white" stroke="#666666" points="615.59,-240.25 572.59,-240.25 572.59,-221 615.59,-221 615.59,-240.25"/>
<text text-anchor="middle" x="594.09" y="-226.75" font-family="Helvetica,sans-Serif" font-size="10.00">fileio.h</text>
</a>
</g>
</g>
<!-- Node1&#45;&gt;Node20 -->
<g id="edge30_Node000001_Node000020" class="edge">
<title>Node1&#45;&gt;Node20</title>
<g id="a_edge30_Node000001_Node000020"><a xlink:title=" ">
<path fill="none" stroke="#63b8ff" d="M463.72,-275.84C490.75,-266.67 532.64,-252.47 561.6,-242.64"/>
<polygon fill="#63b8ff" stroke="#63b8ff" points="562.61,-246 570.96,-239.47 560.36,-239.37 562.61,-246"/>
</a>
</g>
</g>
<!-- Node4 -->
<g id="Node000004" class="node">
<title>Node4</title>
<g id="a_Node000004"><a xlink:title=" ">
<polygon fill="#e0e0e0" stroke="#999999" points="82.34,-19.25 31.84,-19.25 31.84,0 82.34,0 82.34,-19.25"/>
<text text-anchor="middle" x="57.09" y="-5.75" font-family="Helvetica,sans-Serif" font-size="10.00">stddef.h</text>
</a>
</g>
</g>
<!-- Node3&#45;&gt;Node4 -->
<g id="edge3_Node000003_Node000004" class="edge">
<title>Node3&#45;&gt;Node4</title>
<g id="a_edge3_Node000003_Node000004"><a xlink:title=" ">
<path fill="none" stroke="#63b8ff" d="M24.64,-165.28C13.11,-144.77 -11.35,-93.67 6.09,-55.25 11.47,-43.4 21.72,-33.45 31.64,-25.98"/>
<polygon fill="#63b8ff" stroke="#63b8ff" points="33.39,-29.03 39.62,-20.46 29.4,-23.27 33.39,-29.03"/>
</a>
</g>
</g>
<!-- Node5 -->
<g id="Node000005" class="node">
<title>Node5</title>
<g id="a_Node000005"><a xlink:title=" ">
<polygon fill="#e0e0e0" stroke="#999999" points="84.34,-129.75 33.84,-129.75 33.84,-110.5 84.34,-110.5 84.34,-129.75"/>
<text text-anchor="middle" x="59.09" y="-116.25" font-family="Helvetica,sans-Serif" font-size="10.00">stdarg.h</text>
</a>
</g>
</g>
<!-- Node3&#45;&gt;Node5 -->
<g id="edge4_Node000003_Node000005" class="edge">
<title>Node3&#45;&gt;Node5</title>
<g id="a_edge4_Node000003_Node000005"><a xlink:title=" ">
<path fill="none" stroke="#63b8ff" d="M34.88,-165.58C38.63,-158.69 44,-148.84 48.72,-140.16"/>
<polygon fill="#63b8ff" stroke="#63b8ff" points="51.76,-141.89 53.47,-131.44 45.62,-138.55 51.76,-141.89"/>
</a>
</g>
</g>
<!-- Node6 -->
<g id="Node000006" class="node">
<title>Node6</title>
<g id="a_Node000006"><a xlink:href="sifdma_8h.html" target="_top" xlink:title=" ">
<polygon fill="white" stroke="#666666" points="67.46,-74.5 14.71,-74.5 14.71,-55.25 67.46,-55.25 67.46,-74.5"/>
<text text-anchor="middle" x="41.09" y="-61" font-family="Helvetica,sans-Serif" font-size="10.00">sifdma.h</text>
</a>
</g>
</g>
<!-- Node3&#45;&gt;Node6 -->
<g id="edge5_Node000003_Node000006" class="edge">
<title>Node3&#45;&gt;Node6</title>
<g id="a_edge5_Node000003_Node000006"><a xlink:title=" ">
<path fill="none" stroke="#63b8ff" d="M28.03,-165.63C25.44,-153.27 21.7,-130.01 25.09,-110.5 26.57,-101.99 29.52,-92.96 32.49,-85.27"/>
<polygon fill="#63b8ff" stroke="#63b8ff" points="35.64,-86.83 36.25,-76.25 29.17,-84.14 35.64,-86.83"/>
</a>
</g>
</g>
<!-- Node6&#45;&gt;Node2 -->
<g id="edge6_Node000006_Node000002" class="edge">
<title>Node6&#45;&gt;Node2</title>
<g id="a_edge6_Node000006_Node000002"><a xlink:title=" ">
<path fill="none" stroke="#63b8ff" d="M67.7,-57.87C108.21,-48.73 185.75,-31.23 234.26,-20.29"/>
<polygon fill="#63b8ff" stroke="#63b8ff" points="234.87,-23.74 243.85,-18.12 233.33,-16.91 234.87,-23.74"/>
</a>
</g>
</g>
<!-- Node7&#45;&gt;Node5 -->
<g id="edge8_Node000007_Node000005" class="edge">
<title>Node7&#45;&gt;Node5</title>
<g id="a_edge8_Node000007_Node000005"><a xlink:title=" ">
<path fill="none" stroke="#63b8ff" d="M108.91,-165.34C100.33,-157.72 87.82,-146.62 77.49,-137.45"/>
<polygon fill="#63b8ff" stroke="#63b8ff" points="80.05,-135.05 70.25,-131.03 75.4,-140.29 80.05,-135.05"/>
</a>
</g>
</g>
<!-- Node8 -->
<g id="Node000008" class="node">
<title>Node8</title>
<g id="a_Node000008"><a xlink:href="irx_8h.html" target="_top" xlink:title=" ">
<polygon fill="white" stroke="#666666" points="135.71,-129.75 102.46,-129.75 102.46,-110.5 135.71,-110.5 135.71,-129.75"/>
<text text-anchor="middle" x="119.09" y="-116.25" font-family="Helvetica,sans-Serif" font-size="10.00">irx.h</text>
</a>
</g>
</g>
<!-- Node7&#45;&gt;Node8 -->
<g id="edge9_Node000007_Node000008" class="edge">
<title>Node7&#45;&gt;Node8</title>
<g id="a_edge9_Node000007_Node000008"><a xlink:title=" ">
<path fill="none" stroke="#63b8ff" d="M119.09,-165.58C119.09,-159.07 119.09,-149.92 119.09,-141.62"/>
<polygon fill="#63b8ff" stroke="#63b8ff" points="122.59,-141.62 119.09,-131.62 115.59,-141.62 122.59,-141.62"/>
</a>
</g>
</g>
<!-- Node9 -->
<g id="Node000009" class="node">
<title>Node9</title>
<g id="a_Node000009"><a xlink:href="iop_2kernel_2include_2types_8h_source.html" target="_top" xlink:title=" ">
<polygon fill="white" stroke="#666666" points="169.46,-74.5 122.71,-74.5 122.71,-55.25 169.46,-55.25 169.46,-74.5"/>
<text text-anchor="middle" x="146.09" y="-61" font-family="Helvetica,sans-Serif" font-size="10.00">types.h</text>
</a>
</g>
</g>
<!-- Node8&#45;&gt;Node9 -->
<g id="edge10_Node000008_Node000009" class="edge">
<title>Node8&#45;&gt;Node9</title>
<g id="a_edge10_Node000008_Node000009"><a xlink:title=" ">
<path fill="none" stroke="#63b8ff" d="M123.55,-110.33C127.04,-103.44 132.04,-93.59 136.44,-84.91"/>
<polygon fill="#63b8ff" stroke="#63b8ff" points="139.45,-86.71 140.85,-76.21 133.21,-83.55 139.45,-86.71"/>
</a>
</g>
</g>
<!-- Node9&#45;&gt;Node2 -->
<g id="edge12_Node000009_Node000002" class="edge">
<title>Node9&#45;&gt;Node2</title>
<g id="a_edge12_Node000009_Node000002"><a xlink:title=" ">
<path fill="none" stroke="#63b8ff" d="M168.31,-54.84C189.11,-46.39 220.44,-33.65 244.14,-24.02"/>
<polygon fill="#63b8ff" stroke="#63b8ff" points="245.41,-27.28 253.36,-20.27 242.77,-20.8 245.41,-27.28"/>
</a>
</g>
</g>
<!-- Node9&#45;&gt;Node4 -->
<g id="edge11_Node000009_Node000004" class="edge">
<title>Node9&#45;&gt;Node4</title>
<g id="a_edge11_Node000009_Node000004"><a xlink:title=" ">
<path fill="none" stroke="#63b8ff" d="M130.99,-54.84C117.57,-46.81 97.68,-34.91 81.91,-25.48"/>
<polygon fill="#63b8ff" stroke="#63b8ff" points="83.94,-22.61 73.56,-20.48 80.34,-28.62 83.94,-22.61"/>
</a>
</g>
</g>
<!-- Node13 -->
<g id="Node000013" class="node">
<title>Node13</title>
<g id="a_Node000013"><a xlink:href="sysclib_8h.html" target="_top" xlink:title=" ">
<polygon fill="white" stroke="#666666" points="227.84,-185 174.34,-185 174.34,-165.75 227.84,-165.75 227.84,-185"/>
<text text-anchor="middle" x="201.09" y="-171.5" font-family="Helvetica,sans-Serif" font-size="10.00">sysclib.h</text>
</a>
</g>
</g>
<!-- Node12&#45;&gt;Node13 -->
<g id="edge16_Node000012_Node000013" class="edge">
<title>Node12&#45;&gt;Node13</title>
<g id="a_edge16_Node000012_Node000013"><a xlink:title=" ">
<path fill="none" stroke="#63b8ff" d="M259.21,-220.59C249,-212.82 234.02,-201.42 221.82,-192.15"/>
<polygon fill="#63b8ff" stroke="#63b8ff" points="224.07,-189.46 213.99,-186.19 219.83,-195.03 224.07,-189.46"/>
</a>
</g>
</g>
<!-- Node13&#45;&gt;Node5 -->
<g id="edge19_Node000013_Node000005" class="edge">
<title>Node13&#45;&gt;Node5</title>
<g id="a_edge19_Node000013_Node000005"><a xlink:title=" ">
<path fill="none" stroke="#63b8ff" d="M177,-165.34C154.15,-156.77 119.57,-143.81 93.76,-134.13"/>
<polygon fill="#63b8ff" stroke="#63b8ff" points="95.3,-130.97 84.71,-130.73 92.85,-137.52 95.3,-130.97"/>
</a>
</g>
</g>
<!-- Node13&#45;&gt;Node8 -->
<g id="edge18_Node000013_Node000008" class="edge">
<title>Node13&#45;&gt;Node8</title>
<g id="a_edge18_Node000013_Node000008"><a xlink:title=" ">
<path fill="none" stroke="#63b8ff" d="M187.18,-165.34C174.93,-157.39 156.83,-145.64 142.38,-136.25"/>
<polygon fill="#63b8ff" stroke="#63b8ff" points="144.63,-133.54 134.34,-131.03 140.82,-139.41 144.63,-133.54"/>
</a>
</g>
</g>
<!-- Node13&#45;&gt;Node9 -->
<g id="edge17_Node000013_Node000009" class="edge">
<title>Node13&#45;&gt;Node9</title>
<g id="a_edge17_Node000013_Node000009"><a xlink:title=" ">
<path fill="none" stroke="#63b8ff" d="M196.59,-165.5C187.72,-148.01 167.83,-108.77 155.83,-85.09"/>
<polygon fill="#63b8ff" stroke="#63b8ff" points="158.98,-83.56 151.34,-76.23 152.74,-86.73 158.98,-83.56"/>
</a>
</g>
</g>
<!-- Node14 -->
<g id="Node000014" class="node">
<title>Node14</title>
<g id="a_Node000014"><a xlink:href="setjmp_8h.html" target="_top" xlink:title=" ">
<polygon fill="white" stroke="#666666" points="276.46,-74.5 223.71,-74.5 223.71,-55.25 276.46,-55.25 276.46,-74.5"/>
<text text-anchor="middle" x="250.09" y="-61" font-family="Helvetica,sans-Serif" font-size="10.00">setjmp.h</text>
</a>
</g>
</g>
<!-- Node13&#45;&gt;Node14 -->
<g id="edge20_Node000013_Node000014" class="edge">
<title>Node13&#45;&gt;Node14</title>
<g id="a_edge20_Node000013_Node000014"><a xlink:title=" ">
<path fill="none" stroke="#63b8ff" d="M215.13,-165.26C226,-157.33 240.32,-144.76 247.09,-129.75 253.25,-116.09 253.75,-99.07 252.84,-86.04"/>
<polygon fill="#63b8ff" stroke="#63b8ff" points="256.32,-85.68 251.79,-76.11 249.36,-86.42 256.32,-85.68"/>
</a>
</g>
</g>
<!-- Node15 -->
<g id="Node000015" class="node">
<title>Node15</title>
<g id="a_Node000015"><a xlink:href="ctype_8h.html" target="_top" xlink:title=" ">
<polygon fill="white" stroke="#666666" points="238.46,-129.75 191.71,-129.75 191.71,-110.5 238.46,-110.5 238.46,-129.75"/>
<text text-anchor="middle" x="215.09" y="-116.25" font-family="Helvetica,sans-Serif" font-size="10.00">ctype.h</text>
</a>
</g>
</g>
<!-- Node13&#45;&gt;Node15 -->
<g id="edge22_Node000013_Node000015" class="edge">
<title>Node13&#45;&gt;Node15</title>
<g id="a_edge22_Node000013_Node000015"><a xlink:title=" ">
<path fill="none" stroke="#63b8ff" d="M203.4,-165.58C205.15,-158.92 207.63,-149.49 209.86,-141.03"/>
<polygon fill="#63b8ff" stroke="#63b8ff" points="213.18,-142.13 212.34,-131.57 206.41,-140.35 213.18,-142.13"/>
</a>
</g>
</g>
<!-- Node14&#45;&gt;Node2 -->
<g id="edge21_Node000014_Node000002" class="edge">
<title>Node14&#45;&gt;Node2</title>
<g id="a_edge21_Node000014_Node000002"><a xlink:title=" ">
<path fill="none" stroke="#63b8ff" d="M254.55,-55.08C258.04,-48.19 263.04,-38.34 267.44,-29.66"/>
<polygon fill="#63b8ff" stroke="#63b8ff" points="270.45,-31.46 271.85,-20.96 264.21,-28.3 270.45,-31.46"/>
</a>
</g>
</g>
<!-- Node16&#45;&gt;Node2 -->
<g id="edge24_Node000016_Node000002" class="edge">
<title>Node16&#45;&gt;Node2</title>
<g id="a_edge24_Node000016_Node000002"><a xlink:title=" ">
<path fill="none" stroke="#63b8ff" d="M355.26,-220.63C345.26,-212.41 331.28,-199.37 323.09,-185 307.91,-158.37 289.04,-70.46 281,-30.6"/>
<polygon fill="#63b8ff" stroke="#63b8ff" points="284.47,-30.09 279.09,-20.96 277.61,-31.45 284.47,-30.09"/>
</a>
</g>
</g>
<!-- Node16&#45;&gt;Node17 -->
<g id="edge25_Node000016_Node000017" class="edge">
<title>Node16&#45;&gt;Node17</title>
<g id="a_edge25_Node000016_Node000017"><a xlink:title=" ">
<path fill="none" stroke="#63b8ff" d="M378.96,-220.59C389.18,-212.82 404.16,-201.42 416.35,-192.15"/>
<polygon fill="#63b8ff" stroke="#63b8ff" points="418.35,-195.03 424.19,-186.19 414.11,-189.46 418.35,-195.03"/>
</a>
</g>
</g>
<!-- Node18 -->
<g id="Node000018" class="node">
<title>Node18</title>
<g id="a_Node000018"><a xlink:href="libcdvd_8h.html" target="_top" xlink:title=" ">
<polygon fill="white" stroke="#666666" points="386.21,-185 331.96,-185 331.96,-165.75 386.21,-165.75 386.21,-185"/>
<text text-anchor="middle" x="359.09" y="-171.5" font-family="Helvetica,sans-Serif" font-size="10.00">libcdvd.h</text>
</a>
</g>
</g>
<!-- Node16&#45;&gt;Node18 -->
<g id="edge26_Node000016_Node000018" class="edge">
<title>Node16&#45;&gt;Node18</title>
<g id="a_edge26_Node000016_Node000018"><a xlink:title=" ">
<path fill="none" stroke="#63b8ff" d="M365.77,-220.83C364.78,-214.24 363.38,-204.96 362.12,-196.57"/>
<polygon fill="#63b8ff" stroke="#63b8ff" points="365.61,-196.22 360.66,-186.86 358.69,-197.26 365.61,-196.22"/>
</a>
</g>
</g>
<!-- Node19 -->
<g id="Node000019" class="node">
<title>Node19</title>
<g id="a_Node000019"><a xlink:href="libcdvd-common_8h.html" target="_top" xlink:title=" ">
<polygon fill="white" stroke="#666666" points="426.46,-74.5 331.71,-74.5 331.71,-55.25 426.46,-55.25 426.46,-74.5"/>
<text text-anchor="middle" x="379.09" y="-61" font-family="Helvetica,sans-Serif" font-size="10.00">libcdvd&#45;common.h</text>
</a>
</g>
</g>
<!-- Node18&#45;&gt;Node19 -->
<g id="edge27_Node000018_Node000019" class="edge">
<title>Node18&#45;&gt;Node19</title>
<g id="a_edge27_Node000018_Node000019"><a xlink:title=" ">
<path fill="none" stroke="#63b8ff" d="M360.73,-165.5C363.9,-148.25 370.99,-109.83 375.37,-86.06"/>
<polygon fill="#63b8ff" stroke="#63b8ff" points="378.78,-86.83 377.16,-76.37 371.9,-85.56 378.78,-86.83"/>
</a>
</g>
</g>
<!-- Node19&#45;&gt;Node2 -->
<g id="edge28_Node000019_Node000002" class="edge">
<title>Node19&#45;&gt;Node2</title>
<g id="a_edge28_Node000019_Node000002"><a xlink:title=" ">
<path fill="none" stroke="#63b8ff" d="M361.79,-54.84C346.11,-46.66 322.74,-34.46 304.51,-24.94"/>
<polygon fill="#63b8ff" stroke="#63b8ff" points="306.3,-21.93 295.82,-20.4 303.06,-28.13 306.3,-21.93"/>
</a>
</g>
</g>
<!-- Node21 -->
<g id="Node000021" class="node">
<title>Node21</title>
<g id="a_Node000021"><a xlink:href="io__common_8h.html" target="_top" xlink:title=" ">
<polygon fill="white" stroke="#666666" points="637.96,-185 564.21,-185 564.21,-165.75 637.96,-165.75 637.96,-185"/>
<text text-anchor="middle" x="601.09" y="-171.5" font-family="Helvetica,sans-Serif" font-size="10.00">io_common.h</text>
</a>
</g>
</g>
<!-- Node20&#45;&gt;Node21 -->
<g id="edge31_Node000020_Node000021" class="edge">
<title>Node20&#45;&gt;Node21</title>
<g id="a_edge31_Node000020_Node000021"><a xlink:title=" ">
<path fill="none" stroke="#63b8ff" d="M595.24,-220.83C596.11,-214.24 597.33,-204.96 598.43,-196.57"/>
<polygon fill="#63b8ff" stroke="#63b8ff" points="601.88,-197.23 599.71,-186.86 594.94,-196.32 601.88,-197.23"/>
</a>
</g>
</g>
<!-- Node21&#45;&gt;Node10 -->
<g id="edge32_Node000021_Node000010" class="edge">
<title>Node21&#45;&gt;Node10</title>
<g id="a_edge32_Node000021_Node000010"><a xlink:title=" ">
<path fill="none" stroke="#63b8ff" d="M594.81,-165.58C589.73,-158.46 582.39,-148.18 576.06,-139.3"/>
<polygon fill="#63b8ff" stroke="#63b8ff" points="579.04,-137.45 570.38,-131.34 573.34,-141.51 579.04,-137.45"/>
</a>
</g>
</g>
<!-- Node21&#45;&gt;Node11 -->
<g id="edge33_Node000021_Node000011" class="edge">
<title>Node21&#45;&gt;Node11</title>
<g id="a_edge33_Node000021_Node000011"><a xlink:title=" ">
<path fill="none" stroke="#63b8ff" d="M610.93,-165.34C619.14,-157.8 631.07,-146.85 641,-137.73"/>
<polygon fill="#63b8ff" stroke="#63b8ff" points="643.28,-140.39 648.28,-131.05 638.55,-135.23 643.28,-140.39"/>
</a>
</g>
</g>
</g>
</svg>
