<?xml version="1.0" encoding="UTF-8" standalone="no"?>
<!DOCTYPE svg PUBLIC "-//W3C//DTD SVG 1.1//EN"
 "http://www.w3.org/Graphics/SVG/1.1/DTD/svg11.dtd">
<!-- Generated by graphviz version 12.2.0 (20241103.1931)
 -->
<!-- Title: iop/fs/netfs/src/ps2_fio.c Pages: 1 -->
<svg width="1172pt" height="315pt"
 viewBox="0.00 0.00 1171.50 314.75" xmlns="http://www.w3.org/2000/svg" xmlns:xlink="http://www.w3.org/1999/xlink">
<g id="graph0" class="graph" transform="scale(1 1) rotate(0) translate(4 310.75)">
<title>iop/fs/netfs/src/ps2_fio.c</title>
<!-- Node1 -->
<g id="Node000001" class="node">
<title>Node1</title>
<g id="a_Node000001"><a xlink:title=" ">
<polygon fill="#999999" stroke="#666666" points="652.12,-306.75 552.12,-306.75 552.12,-276.25 652.12,-276.25 652.12,-306.75"/>
<text text-anchor="start" x="560.12" y="-293.25" font-family="Helvetica,sans-Serif" font-size="10.00">iop/fs/netfs/src/ps2</text>
<text text-anchor="middle" x="602.12" y="-282" font-family="Helvetica,sans-Serif" font-size="10.00">_fio.c</text>
</a>
</g>
</g>
<!-- Node2 -->
<g id="Node000002" class="node">
<title>Node2</title>
<g id="a_Node000002"><a xlink:title=" ">
<polygon fill="#e0e0e0" stroke="#999999" points="359.5,-129.75 312.75,-129.75 312.75,-110.5 359.5,-110.5 359.5,-129.75"/>
<text text-anchor="middle" x="336.12" y="-116.25" font-family="Helvetica,sans-Serif" font-size="10.00">types.h</text>
</a>
</g>
</g>
<!-- Node1&#45;&gt;Node2 -->
<g id="edge1_Node000001_Node000002" class="edge">
<title>Node1&#45;&gt;Node2</title>
<g id="a_edge1_Node000001_Node000002"><a xlink:title=" ">
<path fill="none" stroke="#63b8ff" d="M552.02,-288.87C432.77,-283.74 138.32,-263.22 89.12,-185 84.57,-177.76 83.64,-172.32 89.12,-165.75 115.71,-133.93 239.27,-124.76 300.93,-122.15"/>
<polygon fill="#63b8ff" stroke="#63b8ff" points="301.02,-125.65 310.88,-121.76 300.76,-118.65 301.02,-125.65"/>
</a>
</g>
</g>
<!-- Node3 -->
<g id="Node000003" class="node">
<title>Node3</title>
<g id="a_Node000003"><a xlink:href="defs_8h.html" target="_top" xlink:title=" ">
<polygon fill="white" stroke="#666666" points="42.25,-240.25 0,-240.25 0,-221 42.25,-221 42.25,-240.25"/>
<text text-anchor="middle" x="21.12" y="-226.75" font-family="Helvetica,sans-Serif" font-size="10.00">defs.h</text>
</a>
</g>
</g>
<!-- Node1&#45;&gt;Node3 -->
<g id="edge2_Node000001_Node000003" class="edge">
<title>Node1&#45;&gt;Node3</title>
<g id="a_edge2_Node000001_Node000003"><a xlink:title=" ">
<path fill="none" stroke="#63b8ff" d="M551.74,-288.39C455.06,-283.78 237.06,-270.69 56.12,-240.25 55.29,-240.11 54.45,-239.96 53.6,-239.8"/>
<polygon fill="#63b8ff" stroke="#63b8ff" points="54.48,-236.41 43.97,-237.74 53.02,-243.26 54.48,-236.41"/>
</a>
</g>
</g>
<!-- Node7 -->
<g id="Node000007" class="node">
<title>Node7</title>
<g id="a_Node000007"><a xlink:href="irx_8h.html" target="_top" xlink:title=" ">
<polygon fill="white" stroke="#666666" points="416.75,-129.75 383.5,-129.75 383.5,-110.5 416.75,-110.5 416.75,-129.75"/>
<text text-anchor="middle" x="400.12" y="-116.25" font-family="Helvetica,sans-Serif" font-size="10.00">irx.h</text>
</a>
</g>
</g>
<!-- Node1&#45;&gt;Node7 -->
<g id="edge6_Node000001_Node000007" class="edge">
<title>Node1&#45;&gt;Node7</title>
<g id="a_edge6_Node000001_Node000007"><a xlink:title=" ">
<path fill="none" stroke="#63b8ff" d="M566.61,-275.86C528.87,-258.8 469.48,-227.44 431.12,-185 419.49,-172.13 411.28,-154.1 406.24,-140.48"/>
<polygon fill="#63b8ff" stroke="#63b8ff" points="409.66,-139.65 403.12,-131.31 403.03,-141.91 409.66,-139.65"/>
</a>
</g>
</g>
<!-- Node8 -->
<g id="Node000008" class="node">
<title>Node8</title>
<g id="a_Node000008"><a xlink:href="loadcore_8h.html" target="_top" xlink:title=" ">
<polygon fill="white" stroke="#666666" points="308.25,-185 248,-185 248,-165.75 308.25,-165.75 308.25,-185"/>
<text text-anchor="middle" x="278.12" y="-171.5" font-family="Helvetica,sans-Serif" font-size="10.00">loadcore.h</text>
</a>
</g>
</g>
<!-- Node1&#45;&gt;Node8 -->
<g id="edge8_Node000001_Node000008" class="edge">
<title>Node1&#45;&gt;Node8</title>
<g id="a_edge8_Node000001_Node000008"><a xlink:title=" ">
<path fill="none" stroke="#63b8ff" d="M551.67,-286.02C481.87,-279.06 360.27,-263.93 323.12,-240.25 306.17,-229.44 293.77,-209.74 286.32,-195.06"/>
<polygon fill="#63b8ff" stroke="#63b8ff" points="289.68,-193.97 282.25,-186.42 283.35,-196.96 289.68,-193.97"/>
</a>
</g>
</g>
<!-- Node9 -->
<g id="Node000009" class="node">
<title>Node9</title>
<g id="a_Node000009"><a xlink:href="ioman__mod_8h.html" target="_top" xlink:title=" ">
<polygon fill="white" stroke="#666666" points="582,-185 508.25,-185 508.25,-165.75 582,-165.75 582,-185"/>
<text text-anchor="middle" x="545.12" y="-171.5" font-family="Helvetica,sans-Serif" font-size="10.00">ioman_mod.h</text>
</a>
</g>
</g>
<!-- Node1&#45;&gt;Node9 -->
<g id="edge11_Node000001_Node000009" class="edge">
<title>Node1&#45;&gt;Node9</title>
<g id="a_edge11_Node000001_Node000009"><a xlink:title=" ">
<path fill="none" stroke="#63b8ff" d="M594.91,-276.05C584.71,-255.62 566.06,-218.29 554.71,-195.56"/>
<polygon fill="#63b8ff" stroke="#63b8ff" points="557.93,-194.18 550.33,-186.8 551.67,-197.31 557.93,-194.18"/>
</a>
</g>
</g>
<!-- Node15 -->
<g id="Node000015" class="node">
<title>Node15</title>
<g id="a_Node000015"><a xlink:href="ioman_x_8h.html" target="_top" xlink:title=" ">
<polygon fill="white" stroke="#666666" points="656.38,-185 599.88,-185 599.88,-165.75 656.38,-165.75 656.38,-185"/>
<text text-anchor="middle" x="628.12" y="-171.5" font-family="Helvetica,sans-Serif" font-size="10.00">iomanX.h</text>
</a>
</g>
</g>
<!-- Node1&#45;&gt;Node15 -->
<g id="edge19_Node000001_Node000015" class="edge">
<title>Node1&#45;&gt;Node15</title>
<g id="a_edge19_Node000001_Node000015"><a xlink:title=" ">
<path fill="none" stroke="#63b8ff" d="M601.64,-275.87C601.52,-261.63 602.29,-239.49 607.12,-221 609.43,-212.21 613.43,-203.03 617.33,-195.31"/>
<polygon fill="#63b8ff" stroke="#63b8ff" points="620.37,-197.03 622.04,-186.57 614.21,-193.71 620.37,-197.03"/>
</a>
</g>
</g>
<!-- Node16 -->
<g id="Node000016" class="node">
<title>Node16</title>
<g id="a_Node000016"><a xlink:href="errno_8h.html" target="_top" xlink:title=" ">
<polygon fill="white" stroke="#666666" points="653.75,-129.75 608.5,-129.75 608.5,-110.5 653.75,-110.5 653.75,-129.75"/>
<text text-anchor="middle" x="631.12" y="-116.25" font-family="Helvetica,sans-Serif" font-size="10.00">errno.h</text>
</a>
</g>
</g>
<!-- Node1&#45;&gt;Node16 -->
<g id="edge41_Node000001_Node000016" class="edge">
<title>Node1&#45;&gt;Node16</title>
<g id="a_edge41_Node000001_Node000016"><a xlink:title=" ">
<path fill="none" stroke="#63b8ff" d="M617.09,-275.85C632.09,-261.4 656.06,-238.93 678.12,-221 699.38,-203.73 715.64,-209.37 728.12,-185 732.03,-177.39 732.74,-172.95 728.12,-165.75 720.76,-154.26 689.79,-141.23 664.8,-132.23"/>
<polygon fill="#63b8ff" stroke="#63b8ff" points="666.21,-129.01 655.62,-129.01 663.9,-135.62 666.21,-129.01"/>
</a>
</g>
</g>
<!-- Node18 -->
<g id="Node000018" class="node">
<title>Node18</title>
<g id="a_Node000018"><a xlink:href="thbase_8h.html" target="_top" xlink:title=" ">
<polygon fill="white" stroke="#666666" points="150.5,-185 97.75,-185 97.75,-165.75 150.5,-165.75 150.5,-185"/>
<text text-anchor="middle" x="124.12" y="-171.5" font-family="Helvetica,sans-Serif" font-size="10.00">thbase.h</text>
</a>
</g>
</g>
<!-- Node1&#45;&gt;Node18 -->
<g id="edge25_Node000001_Node000018" class="edge">
<title>Node1&#45;&gt;Node18</title>
<g id="a_edge25_Node000001_Node000018"><a xlink:title=" ">
<path fill="none" stroke="#63b8ff" d="M551.67,-287.94C483.52,-283.4 358.87,-271.3 257.12,-240.25 217.5,-228.16 174.87,-205.85 148.83,-191.06"/>
<polygon fill="#63b8ff" stroke="#63b8ff" points="150.79,-188.15 140.38,-186.18 147.29,-194.22 150.79,-188.15"/>
</a>
</g>
</g>
<!-- Node19 -->
<g id="Node000019" class="node">
<title>Node19</title>
<g id="a_Node000019"><a xlink:href="thsemap_8h.html" target="_top" xlink:title=" ">
<polygon fill="white" stroke="#666666" points="229.62,-185 168.62,-185 168.62,-165.75 229.62,-165.75 229.62,-185"/>
<text text-anchor="middle" x="199.12" y="-171.5" font-family="Helvetica,sans-Serif" font-size="10.00">thsemap.h</text>
</a>
</g>
</g>
<!-- Node1&#45;&gt;Node19 -->
<g id="edge28_Node000001_Node000019" class="edge">
<title>Node1&#45;&gt;Node19</title>
<g id="a_edge28_Node000001_Node000019"><a xlink:title=" ">
<path fill="none" stroke="#63b8ff" d="M551.71,-288.33C490.23,-284.3 384.01,-272.82 299.12,-240.25 268.99,-228.69 238.28,-207.35 218.99,-192.53"/>
<polygon fill="#63b8ff" stroke="#63b8ff" points="221.22,-189.84 211.2,-186.4 216.89,-195.34 221.22,-189.84"/>
</a>
</g>
</g>
<!-- Node20 -->
<g id="Node000020" class="node">
<title>Node20</title>
<g id="a_Node000020"><a xlink:href="stdio_8h.html" target="_top" xlink:title=" ">
<polygon fill="white" stroke="#666666" points="719.38,-185 674.88,-185 674.88,-165.75 719.38,-165.75 719.38,-185"/>
<text text-anchor="middle" x="697.12" y="-171.5" font-family="Helvetica,sans-Serif" font-size="10.00">stdio.h</text>
</a>
</g>
</g>
<!-- Node1&#45;&gt;Node20 -->
<g id="edge31_Node000001_Node000020" class="edge">
<title>Node1&#45;&gt;Node20</title>
<g id="a_edge31_Node000001_Node000020"><a xlink:title=" ">
<path fill="none" stroke="#63b8ff" d="M609.5,-275.79C617.26,-261.08 630.36,-238.25 645.12,-221 654.15,-210.45 665.75,-200.25 675.71,-192.26"/>
<polygon fill="#63b8ff" stroke="#63b8ff" points="677.66,-195.18 683.42,-186.28 673.37,-189.65 677.66,-195.18"/>
</a>
</g>
</g>
<!-- Node21 -->
<g id="Node000021" class="node">
<title>Node21</title>
<g id="a_Node000021"><a xlink:href="sysclib_8h.html" target="_top" xlink:title=" ">
<polygon fill="white" stroke="#666666" points="828.88,-185 775.38,-185 775.38,-165.75 828.88,-165.75 828.88,-185"/>
<text text-anchor="middle" x="802.12" y="-171.5" font-family="Helvetica,sans-Serif" font-size="10.00">sysclib.h</text>
</a>
</g>
</g>
<!-- Node1&#45;&gt;Node21 -->
<g id="edge34_Node000001_Node000021" class="edge">
<title>Node1&#45;&gt;Node21</title>
<g id="a_edge34_Node000001_Node000021"><a xlink:title=" ">
<path fill="none" stroke="#63b8ff" d="M652.39,-278.69C680.31,-270.65 714.81,-258.17 742.12,-240.25 760.94,-227.91 778.04,-208.51 789.12,-194.33"/>
<polygon fill="#63b8ff" stroke="#63b8ff" points="791.65,-196.79 794.88,-186.7 786.06,-192.58 791.65,-196.79"/>
</a>
</g>
</g>
<!-- Node24 -->
<g id="Node000024" class="node">
<title>Node24</title>
<g id="a_Node000024"><a xlink:title=" ">
<polygon fill="#e0e0e0" stroke="#999999" points="733.5,-240.25 686.75,-240.25 686.75,-221 733.5,-221 733.5,-240.25"/>
<text text-anchor="middle" x="710.12" y="-226.75" font-family="Helvetica,sans-Serif" font-size="10.00">ps2ip.h</text>
</a>
</g>
</g>
<!-- Node1&#45;&gt;Node24 -->
<g id="edge42_Node000001_Node000024" class="edge">
<title>Node1&#45;&gt;Node24</title>
<g id="a_edge42_Node000001_Node000024"><a xlink:title=" ">
<path fill="none" stroke="#63b8ff" d="M629.1,-275.8C645.7,-266.74 666.9,-255.19 683.45,-246.16"/>
<polygon fill="#63b8ff" stroke="#63b8ff" points="685.13,-249.24 692.23,-241.38 681.78,-243.09 685.13,-249.24"/>
</a>
</g>
</g>
<!-- Node25 -->
<g id="Node000025" class="node">
<title>Node25</title>
<g id="a_Node000025"><a xlink:href="iopmgr_8h.html" target="_top" xlink:title=" ">
<polygon fill="white" stroke="#666666" points="384.5,-240.25 331.75,-240.25 331.75,-221 384.5,-221 384.5,-240.25"/>
<text text-anchor="middle" x="358.12" y="-226.75" font-family="Helvetica,sans-Serif" font-size="10.00">iopmgr.h</text>
</a>
</g>
</g>
<!-- Node1&#45;&gt;Node25 -->
<g id="edge43_Node000001_Node000025" class="edge">
<title>Node1&#45;&gt;Node25</title>
<g id="a_edge43_Node000001_Node000025"><a xlink:title=" ">
<path fill="none" stroke="#63b8ff" d="M551.86,-278.37C505.57,-267.2 437.92,-250.88 396.02,-240.77"/>
<polygon fill="#63b8ff" stroke="#63b8ff" points="396.95,-237.39 386.4,-238.45 395.3,-244.2 396.95,-237.39"/>
</a>
</g>
</g>
<!-- Node27 -->
<g id="Node000027" class="node">
<title>Node27</title>
<g id="a_Node000027"><a xlink:href="ps2__fio_8h.html" target="_top" xlink:title=" ">
<polygon fill="white" stroke="#666666" points="843.25,-240.25 789,-240.25 789,-221 843.25,-221 843.25,-240.25"/>
<text text-anchor="middle" x="816.12" y="-226.75" font-family="Helvetica,sans-Serif" font-size="10.00">ps2_fio.h</text>
</a>
</g>
</g>
<!-- Node1&#45;&gt;Node27 -->
<g id="edge52_Node000001_Node000027" class="edge">
<title>Node1&#45;&gt;Node27</title>
<g id="a_edge52_Node000001_Node000027"><a xlink:title=" ">
<path fill="none" stroke="#63b8ff" d="M652.57,-276.62C690.93,-266.07 742.89,-251.77 777.86,-242.15"/>
<polygon fill="#63b8ff" stroke="#63b8ff" points="778.41,-245.63 787.12,-239.6 776.55,-238.88 778.41,-245.63"/>
</a>
</g>
</g>
<!-- Node28 -->
<g id="Node000028" class="node">
<title>Node28</title>
<g id="a_Node000028"><a xlink:href="ps2fs_8h.html" target="_top" xlink:title=" ">
<polygon fill="white" stroke="#666666" points="908.88,-240.25 861.38,-240.25 861.38,-221 908.88,-221 908.88,-240.25"/>
<text text-anchor="middle" x="885.12" y="-226.75" font-family="Helvetica,sans-Serif" font-size="10.00">ps2fs.h</text>
</a>
</g>
</g>
<!-- Node1&#45;&gt;Node28 -->
<g id="edge53_Node000001_Node000028" class="edge">
<title>Node1&#45;&gt;Node28</title>
<g id="a_edge53_Node000001_Node000028"><a xlink:title=" ">
<path fill="none" stroke="#63b8ff" d="M652.59,-281.24C700.84,-272.18 775.88,-257.59 850.08,-240.62"/>
<polygon fill="#63b8ff" stroke="#63b8ff" points="850.58,-244.09 859.54,-238.44 849.01,-237.27 850.58,-244.09"/>
</a>
</g>
</g>
<!-- Node29 -->
<g id="Node000029" class="node">
<title>Node29</title>
<g id="a_Node000029"><a xlink:href="byteorder_8h.html" target="_top" xlink:title=" ">
<polygon fill="white" stroke="#666666" points="989.75,-240.25 926.5,-240.25 926.5,-221 989.75,-221 989.75,-240.25"/>
<text text-anchor="middle" x="958.12" y="-226.75" font-family="Helvetica,sans-Serif" font-size="10.00">byteorder.h</text>
</a>
</g>
</g>
<!-- Node1&#45;&gt;Node29 -->
<g id="edge54_Node000001_Node000029" class="edge">
<title>Node1&#45;&gt;Node29</title>
<g id="a_edge54_Node000001_Node000029"><a xlink:title=" ">
<path fill="none" stroke="#63b8ff" d="M652.62,-283.34C712.87,-274.6 816.89,-258.91 915.25,-240.71"/>
<polygon fill="#63b8ff" stroke="#63b8ff" points="915.6,-244.21 924.79,-238.93 914.32,-237.33 915.6,-244.21"/>
</a>
</g>
</g>
<!-- Node31 -->
<g id="Node000031" class="node">
<title>Node31</title>
<g id="a_Node000031"><a xlink:href="devscan_8h.html" target="_top" xlink:title=" ">
<polygon fill="white" stroke="#666666" points="1068.25,-240.25 1008,-240.25 1008,-221 1068.25,-221 1068.25,-240.25"/>
<text text-anchor="middle" x="1038.12" y="-226.75" font-family="Helvetica,sans-Serif" font-size="10.00">devscan.h</text>
</a>
</g>
</g>
<!-- Node1&#45;&gt;Node31 -->
<g id="edge56_Node000001_Node000031" class="edge">
<title>Node1&#45;&gt;Node31</title>
<g id="a_edge56_Node000001_Node000031"><a xlink:title=" ">
<path fill="none" stroke="#63b8ff" d="M652.48,-285.62C725.93,-278.18 866.95,-262.66 996.25,-240.62"/>
<polygon fill="#63b8ff" stroke="#63b8ff" points="996.77,-244.08 1006.03,-238.93 995.58,-237.18 996.77,-244.08"/>
</a>
</g>
</g>
<!-- Node32 -->
<g id="Node000032" class="node">
<title>Node32</title>
<g id="a_Node000032"><a xlink:href="fs_2netfs_2src_2debug__printf_8h_source.html" target="_top" xlink:title=" ">
<polygon fill="white" stroke="#666666" points="1163.5,-240.25 1086.75,-240.25 1086.75,-221 1163.5,-221 1163.5,-240.25"/>
<text text-anchor="middle" x="1125.12" y="-226.75" font-family="Helvetica,sans-Serif" font-size="10.00">debug_printf.h</text>
</a>
</g>
</g>
<!-- Node1&#45;&gt;Node32 -->
<g id="edge57_Node000001_Node000032" class="edge">
<title>Node1&#45;&gt;Node32</title>
<g id="a_edge57_Node000001_Node000032"><a xlink:title=" ">
<path fill="none" stroke="#63b8ff" d="M652.54,-286.37C737.5,-279.16 914.79,-262.97 1075.35,-240.4"/>
<polygon fill="#63b8ff" stroke="#63b8ff" points="1075.48,-243.92 1084.89,-239.05 1074.5,-236.99 1075.48,-243.92"/>
</a>
</g>
</g>
<!-- Node4 -->
<g id="Node000004" class="node">
<title>Node4</title>
<g id="a_Node000004"><a xlink:href="iop_2kernel_2include_2types_8h_source.html" target="_top" xlink:title=" ">
<polygon fill="white" stroke="#666666" points="386.5,-74.5 339.75,-74.5 339.75,-55.25 386.5,-55.25 386.5,-74.5"/>
<text text-anchor="middle" x="363.12" y="-61" font-family="Helvetica,sans-Serif" font-size="10.00">types.h</text>
</a>
</g>
</g>
<!-- Node3&#45;&gt;Node4 -->
<g id="edge3_Node000003_Node000004" class="edge">
<title>Node3&#45;&gt;Node4</title>
<g id="a_edge3_Node000003_Node000004"><a xlink:title=" ">
<path fill="none" stroke="#63b8ff" d="M27.13,-220.94C36.94,-207.36 57.69,-181.06 81.12,-165.75 161.51,-113.25 272.84,-84.5 328.51,-72.57"/>
<polygon fill="#63b8ff" stroke="#63b8ff" points="328.96,-76.05 338.04,-70.58 327.53,-69.2 328.96,-76.05"/>
</a>
</g>
</g>
<!-- Node5 -->
<g id="Node000005" class="node">
<title>Node5</title>
<g id="a_Node000005"><a xlink:title=" ">
<polygon fill="#e0e0e0" stroke="#999999" points="388.38,-19.25 337.88,-19.25 337.88,0 388.38,0 388.38,-19.25"/>
<text text-anchor="middle" x="363.12" y="-5.75" font-family="Helvetica,sans-Serif" font-size="10.00">stddef.h</text>
</a>
</g>
</g>
<!-- Node4&#45;&gt;Node5 -->
<g id="edge4_Node000004_Node000005" class="edge">
<title>Node4&#45;&gt;Node5</title>
<g id="a_edge4_Node000004_Node000005"><a xlink:title=" ">
<path fill="none" stroke="#63b8ff" d="M363.12,-55.08C363.12,-48.57 363.12,-39.42 363.12,-31.12"/>
<polygon fill="#63b8ff" stroke="#63b8ff" points="366.63,-31.12 363.13,-21.12 359.63,-31.12 366.63,-31.12"/>
</a>
</g>
</g>
<!-- Node6 -->
<g id="Node000006" class="node">
<title>Node6</title>
<g id="a_Node000006"><a xlink:href="tamtypes_8h.html" target="_top" xlink:title=" ">
<polygon fill="white" stroke="#666666" points="587.75,-19.25 524.5,-19.25 524.5,0 587.75,0 587.75,-19.25"/>
<text text-anchor="middle" x="556.12" y="-5.75" font-family="Helvetica,sans-Serif" font-size="10.00">tamtypes.h</text>
</a>
</g>
</g>
<!-- Node4&#45;&gt;Node6 -->
<g id="edge5_Node000004_Node000006" class="edge">
<title>Node4&#45;&gt;Node6</title>
<g id="a_edge5_Node000004_Node000006"><a xlink:title=" ">
<path fill="none" stroke="#63b8ff" d="M386.79,-57.35C418.21,-48.68 474.27,-33.21 513.24,-22.46"/>
<polygon fill="#63b8ff" stroke="#63b8ff" points="514.07,-25.86 522.78,-19.82 512.21,-19.11 514.07,-25.86"/>
</a>
</g>
</g>
<!-- Node7&#45;&gt;Node4 -->
<g id="edge7_Node000007_Node000004" class="edge">
<title>Node7&#45;&gt;Node4</title>
<g id="a_edge7_Node000007_Node000004"><a xlink:title=" ">
<path fill="none" stroke="#63b8ff" d="M394.02,-110.33C389.06,-103.21 381.92,-92.93 375.75,-84.05"/>
<polygon fill="#63b8ff" stroke="#63b8ff" points="378.81,-82.32 370.23,-76.1 373.06,-86.31 378.81,-82.32"/>
</a>
</g>
</g>
<!-- Node8&#45;&gt;Node2 -->
<g id="edge9_Node000008_Node000002" class="edge">
<title>Node8&#45;&gt;Node2</title>
<g id="a_edge9_Node000008_Node000002"><a xlink:title=" ">
<path fill="none" stroke="#63b8ff" d="M287.96,-165.34C296.18,-157.8 308.11,-146.85 318.04,-137.73"/>
<polygon fill="#63b8ff" stroke="#63b8ff" points="320.32,-140.39 325.32,-131.05 315.58,-135.23 320.32,-140.39"/>
</a>
</g>
</g>
<!-- Node8&#45;&gt;Node7 -->
<g id="edge10_Node000008_Node000007" class="edge">
<title>Node8&#45;&gt;Node7</title>
<g id="a_edge10_Node000008_Node000007"><a xlink:title=" ">
<path fill="none" stroke="#63b8ff" d="M298.82,-165.34C319.18,-156.46 350.37,-142.84 372.76,-133.07"/>
<polygon fill="#63b8ff" stroke="#63b8ff" points="374.11,-136.3 381.88,-129.09 371.31,-129.88 374.11,-136.3"/>
</a>
</g>
</g>
<!-- Node9&#45;&gt;Node2 -->
<g id="edge12_Node000009_Node000002" class="edge">
<title>Node9&#45;&gt;Node2</title>
<g id="a_edge12_Node000009_Node000002"><a xlink:title=" ">
<path fill="none" stroke="#63b8ff" d="M509.67,-165.34C470.94,-155.47 409.29,-139.77 370.85,-129.97"/>
<polygon fill="#63b8ff" stroke="#63b8ff" points="371.74,-126.59 361.18,-127.51 370.01,-133.37 371.74,-126.59"/>
</a>
</g>
</g>
<!-- Node9&#45;&gt;Node7 -->
<g id="edge13_Node000009_Node000007" class="edge">
<title>Node9&#45;&gt;Node7</title>
<g id="a_edge13_Node000009_Node000007"><a xlink:title=" ">
<path fill="none" stroke="#63b8ff" d="M520.53,-165.34C494.79,-155.89 454.48,-141.09 427.69,-131.25"/>
<polygon fill="#63b8ff" stroke="#63b8ff" points="429.13,-128.05 418.54,-127.89 426.72,-134.62 429.13,-128.05"/>
</a>
</g>
</g>
<!-- Node10 -->
<g id="Node000010" class="node">
<title>Node10</title>
<g id="a_Node000010"><a xlink:href="io__common_8h.html" target="_top" xlink:title=" ">
<polygon fill="white" stroke="#666666" points="515,-129.75 441.25,-129.75 441.25,-110.5 515,-110.5 515,-129.75"/>
<text text-anchor="middle" x="478.12" y="-116.25" font-family="Helvetica,sans-Serif" font-size="10.00">io_common.h</text>
</a>
</g>
</g>
<!-- Node9&#45;&gt;Node10 -->
<g id="edge14_Node000009_Node000010" class="edge">
<title>Node9&#45;&gt;Node10</title>
<g id="a_edge14_Node000009_Node000010"><a xlink:title=" ">
<path fill="none" stroke="#63b8ff" d="M533.76,-165.34C524.08,-157.65 509.93,-146.4 498.32,-137.18"/>
<polygon fill="#63b8ff" stroke="#63b8ff" points="500.51,-134.45 490.51,-130.97 496.16,-139.93 500.51,-134.45"/>
</a>
</g>
</g>
<!-- Node13 -->
<g id="Node000013" class="node">
<title>Node13</title>
<g id="a_Node000013"><a xlink:href="iox__stat_8h.html" target="_top" xlink:title=" ">
<polygon fill="white" stroke="#666666" points="590.75,-129.75 533.5,-129.75 533.5,-110.5 590.75,-110.5 590.75,-129.75"/>
<text text-anchor="middle" x="562.12" y="-116.25" font-family="Helvetica,sans-Serif" font-size="10.00">iox_stat.h</text>
</a>
</g>
</g>
<!-- Node9&#45;&gt;Node13 -->
<g id="edge17_Node000009_Node000013" class="edge">
<title>Node9&#45;&gt;Node13</title>
<g id="a_edge17_Node000009_Node000013"><a xlink:title=" ">
<path fill="none" stroke="#63b8ff" d="M547.93,-165.58C550.06,-158.92 553.07,-149.49 555.77,-141.03"/>
<polygon fill="#63b8ff" stroke="#63b8ff" points="559.09,-142.14 558.8,-131.55 552.42,-140.01 559.09,-142.14"/>
</a>
</g>
</g>
<!-- Node11 -->
<g id="Node000011" class="node">
<title>Node11</title>
<g id="a_Node000011"><a xlink:href="fcntl_8h_source.html" target="_top" xlink:title=" ">
<polygon fill="white" stroke="#666666" points="465.25,-74.5 405,-74.5 405,-55.25 465.25,-55.25 465.25,-74.5"/>
<text text-anchor="middle" x="435.12" y="-61" font-family="Helvetica,sans-Serif" font-size="10.00">sys/fcntl.h</text>
</a>
</g>
</g>
<!-- Node10&#45;&gt;Node11 -->
<g id="edge15_Node000010_Node000011" class="edge">
<title>Node10&#45;&gt;Node11</title>
<g id="a_edge15_Node000010_Node000011"><a xlink:title=" ">
<path fill="none" stroke="#63b8ff" d="M471.02,-110.33C465.21,-103.13 456.79,-92.71 449.57,-83.76"/>
<polygon fill="#63b8ff" stroke="#63b8ff" points="452.34,-81.62 443.33,-76.04 446.89,-86.02 452.34,-81.62"/>
</a>
</g>
</g>
<!-- Node12 -->
<g id="Node000012" class="node">
<title>Node12</title>
<g id="a_Node000012"><a xlink:href="unistd_8h_source.html" target="_top" xlink:title=" ">
<polygon fill="white" stroke="#666666" points="551,-74.5 483.25,-74.5 483.25,-55.25 551,-55.25 551,-74.5"/>
<text text-anchor="middle" x="517.12" y="-61" font-family="Helvetica,sans-Serif" font-size="10.00">sys/unistd.h</text>
</a>
</g>
</g>
<!-- Node10&#45;&gt;Node12 -->
<g id="edge16_Node000010_Node000012" class="edge">
<title>Node10&#45;&gt;Node12</title>
<g id="a_edge16_Node000010_Node000012"><a xlink:title=" ">
<path fill="none" stroke="#63b8ff" d="M484.57,-110.33C489.78,-103.21 497.31,-92.93 503.82,-84.05"/>
<polygon fill="#63b8ff" stroke="#63b8ff" points="506.57,-86.22 509.65,-76.08 500.92,-82.08 506.57,-86.22"/>
</a>
</g>
</g>
<!-- Node14 -->
<g id="Node000014" class="node">
<title>Node14</title>
<g id="a_Node000014"><a xlink:href="time_8h.html" target="_top" xlink:title=" ">
<polygon fill="white" stroke="#666666" points="629.25,-74.5 569,-74.5 569,-55.25 629.25,-55.25 629.25,-74.5"/>
<text text-anchor="middle" x="599.12" y="-61" font-family="Helvetica,sans-Serif" font-size="10.00">sys/time.h</text>
</a>
</g>
</g>
<!-- Node13&#45;&gt;Node14 -->
<g id="edge18_Node000013_Node000014" class="edge">
<title>Node13&#45;&gt;Node14</title>
<g id="a_edge18_Node000013_Node000014"><a xlink:title=" ">
<path fill="none" stroke="#63b8ff" d="M568.23,-110.33C573.19,-103.21 580.33,-92.93 586.5,-84.05"/>
<polygon fill="#63b8ff" stroke="#63b8ff" points="589.19,-86.31 592.02,-76.1 583.44,-82.32 589.19,-86.31"/>
</a>
</g>
</g>
<!-- Node15&#45;&gt;Node2 -->
<g id="edge20_Node000015_Node000002" class="edge">
<title>Node15&#45;&gt;Node2</title>
<g id="a_edge20_Node000015_Node000002"><a xlink:title=" ">
<path fill="none" stroke="#63b8ff" d="M599.48,-167.51C596.66,-166.89 593.84,-166.29 591.12,-165.75 495.25,-146.64 470.06,-148.58 374.12,-129.75 373.11,-129.55 372.08,-129.34 371.04,-129.13"/>
<polygon fill="#63b8ff" stroke="#63b8ff" points="371.79,-125.71 361.28,-127.04 370.32,-132.56 371.79,-125.71"/>
</a>
</g>
</g>
<!-- Node15&#45;&gt;Node10 -->
<g id="edge23_Node000015_Node000010" class="edge">
<title>Node15&#45;&gt;Node10</title>
<g id="a_edge23_Node000015_Node000010"><a xlink:title=" ">
<path fill="none" stroke="#63b8ff" d="M602.68,-165.34C578.44,-156.74 541.69,-143.69 514.39,-134"/>
<polygon fill="#63b8ff" stroke="#63b8ff" points="515.72,-130.76 505.12,-130.71 513.37,-137.35 515.72,-130.76"/>
</a>
</g>
</g>
<!-- Node15&#45;&gt;Node13 -->
<g id="edge24_Node000015_Node000013" class="edge">
<title>Node15&#45;&gt;Node13</title>
<g id="a_edge24_Node000015_Node000013"><a xlink:title=" ">
<path fill="none" stroke="#63b8ff" d="M616.93,-165.34C607.39,-157.65 593.45,-146.4 582.02,-137.18"/>
<polygon fill="#63b8ff" stroke="#63b8ff" points="584.31,-134.53 574.33,-130.98 579.92,-139.98 584.31,-134.53"/>
</a>
</g>
</g>
<!-- Node15&#45;&gt;Node16 -->
<g id="edge21_Node000015_Node000016" class="edge">
<title>Node15&#45;&gt;Node16</title>
<g id="a_edge21_Node000015_Node000016"><a xlink:title=" ">
<path fill="none" stroke="#63b8ff" d="M628.62,-165.58C628.99,-158.99 629.51,-149.71 629.99,-141.32"/>
<polygon fill="#63b8ff" stroke="#63b8ff" points="633.47,-141.8 630.53,-131.62 626.48,-141.41 633.47,-141.8"/>
</a>
</g>
</g>
<!-- Node17 -->
<g id="Node000017" class="node">
<title>Node17</title>
<g id="a_Node000017"><a xlink:title=" ">
<polygon fill="#e0e0e0" stroke="#999999" points="722.38,-129.75 671.88,-129.75 671.88,-110.5 722.38,-110.5 722.38,-129.75"/>
<text text-anchor="middle" x="697.12" y="-116.25" font-family="Helvetica,sans-Serif" font-size="10.00">stdarg.h</text>
</a>
</g>
</g>
<!-- Node15&#45;&gt;Node17 -->
<g id="edge22_Node000015_Node000017" class="edge">
<title>Node15&#45;&gt;Node17</title>
<g id="a_edge22_Node000015_Node000017"><a xlink:title=" ">
<path fill="none" stroke="#63b8ff" d="M639.83,-165.34C649.9,-157.57 664.67,-146.17 676.69,-136.9"/>
<polygon fill="#63b8ff" stroke="#63b8ff" points="678.62,-139.83 684.39,-130.95 674.34,-134.29 678.62,-139.83"/>
</a>
</g>
</g>
<!-- Node18&#45;&gt;Node2 -->
<g id="edge26_Node000018_Node000002" class="edge">
<title>Node18&#45;&gt;Node2</title>
<g id="a_edge26_Node000018_Node000002"><a xlink:title=" ">
<path fill="none" stroke="#63b8ff" d="M150.97,-167.63C189.17,-158.04 259.21,-140.45 301.33,-129.86"/>
<polygon fill="#63b8ff" stroke="#63b8ff" points="302.11,-133.28 310.96,-127.45 300.41,-126.49 302.11,-133.28"/>
</a>
</g>
</g>
<!-- Node18&#45;&gt;Node7 -->
<g id="edge27_Node000018_Node000007" class="edge">
<title>Node18&#45;&gt;Node7</title>
<g id="a_edge27_Node000018_Node000007"><a xlink:title=" ">
<path fill="none" stroke="#63b8ff" d="M150.83,-167.59C153.63,-166.94 156.43,-166.31 159.12,-165.75 251.39,-146.46 276.08,-150.04 368.12,-129.75 369.52,-129.44 370.94,-129.12 372.37,-128.77"/>
<polygon fill="#63b8ff" stroke="#63b8ff" points="372.97,-132.23 381.79,-126.36 371.24,-125.45 372.97,-132.23"/>
</a>
</g>
</g>
<!-- Node19&#45;&gt;Node2 -->
<g id="edge29_Node000019_Node000002" class="edge">
<title>Node19&#45;&gt;Node2</title>
<g id="a_edge29_Node000019_Node000002"><a xlink:title=" ">
<path fill="none" stroke="#63b8ff" d="M222.37,-165.34C244.31,-156.81 277.47,-143.92 302.34,-134.26"/>
<polygon fill="#63b8ff" stroke="#63b8ff" points="303.31,-137.64 311.36,-130.75 300.77,-131.11 303.31,-137.64"/>
</a>
</g>
</g>
<!-- Node19&#45;&gt;Node7 -->
<g id="edge30_Node000019_Node000007" class="edge">
<title>Node19&#45;&gt;Node7</title>
<g id="a_edge30_Node000019_Node000007"><a xlink:title=" ">
<path fill="none" stroke="#63b8ff" d="M229.98,-166.28C263.87,-157.37 319.89,-142.62 368.12,-129.75 369.5,-129.38 370.91,-129.01 372.33,-128.63"/>
<polygon fill="#63b8ff" stroke="#63b8ff" points="372.98,-132.08 381.73,-126.1 371.16,-125.32 372.98,-132.08"/>
</a>
</g>
</g>
<!-- Node20&#45;&gt;Node7 -->
<g id="edge33_Node000020_Node000007" class="edge">
<title>Node20&#45;&gt;Node7</title>
<g id="a_edge33_Node000020_Node000007"><a xlink:title=" ">
<path fill="none" stroke="#63b8ff" d="M674.47,-167.94C671.35,-167.15 668.16,-166.39 665.12,-165.75 562.61,-144.08 534.64,-151.42 432.12,-129.75 430.73,-129.46 429.31,-129.14 427.87,-128.8"/>
<polygon fill="#63b8ff" stroke="#63b8ff" points="429,-125.48 418.45,-126.41 427.28,-132.26 429,-125.48"/>
</a>
</g>
</g>
<!-- Node20&#45;&gt;Node17 -->
<g id="edge32_Node000020_Node000017" class="edge">
<title>Node20&#45;&gt;Node17</title>
<g id="a_edge32_Node000020_Node000017"><a xlink:title=" ">
<path fill="none" stroke="#63b8ff" d="M697.12,-165.58C697.12,-159.07 697.12,-149.92 697.12,-141.62"/>
<polygon fill="#63b8ff" stroke="#63b8ff" points="700.63,-141.62 697.13,-131.62 693.63,-141.62 700.63,-141.62"/>
</a>
</g>
</g>
<!-- Node21&#45;&gt;Node2 -->
<g id="edge35_Node000021_Node000002" class="edge">
<title>Node21&#45;&gt;Node2</title>
<g id="a_edge35_Node000021_Node000002"><a xlink:title=" ">
<path fill="none" stroke="#63b8ff" d="M775.07,-171.13C761.07,-169.47 743.68,-167.45 728.12,-165.75 570.91,-148.6 530.19,-155.3 374.12,-129.75 373.1,-129.58 372.07,-129.4 371.02,-129.22"/>
<polygon fill="#63b8ff" stroke="#63b8ff" points="371.73,-125.79 361.24,-127.25 370.35,-132.65 371.73,-125.79"/>
</a>
</g>
</g>
<!-- Node21&#45;&gt;Node7 -->
<g id="edge36_Node000021_Node000007" class="edge">
<title>Node21&#45;&gt;Node7</title>
<g id="a_edge36_Node000021_Node000007"><a xlink:title=" ">
<path fill="none" stroke="#63b8ff" d="M774.88,-171.2C692.23,-161.54 448.98,-133.02 432.12,-129.75 430.73,-129.48 429.3,-129.18 427.86,-128.86"/>
<polygon fill="#63b8ff" stroke="#63b8ff" points="428.98,-125.53 418.43,-126.51 427.29,-132.32 428.98,-125.53"/>
</a>
</g>
</g>
<!-- Node21&#45;&gt;Node17 -->
<g id="edge37_Node000021_Node000017" class="edge">
<title>Node21&#45;&gt;Node17</title>
<g id="a_edge37_Node000021_Node000017"><a xlink:title=" ">
<path fill="none" stroke="#63b8ff" d="M784.31,-165.34C768.1,-157.12 743.89,-144.84 725.09,-135.31"/>
<polygon fill="#63b8ff" stroke="#63b8ff" points="726.88,-132.29 716.37,-130.89 723.71,-138.53 726.88,-132.29"/>
</a>
</g>
</g>
<!-- Node22 -->
<g id="Node000022" class="node">
<title>Node22</title>
<g id="a_Node000022"><a xlink:href="setjmp_8h.html" target="_top" xlink:title=" ">
<polygon fill="white" stroke="#666666" points="789.5,-74.5 736.75,-74.5 736.75,-55.25 789.5,-55.25 789.5,-74.5"/>
<text text-anchor="middle" x="763.12" y="-61" font-family="Helvetica,sans-Serif" font-size="10.00">setjmp.h</text>
</a>
</g>
</g>
<!-- Node21&#45;&gt;Node22 -->
<g id="edge38_Node000021_Node000022" class="edge">
<title>Node21&#45;&gt;Node22</title>
<g id="a_edge38_Node000021_Node000022"><a xlink:title=" ">
<path fill="none" stroke="#63b8ff" d="M802.77,-165.36C803.34,-152.67 803.21,-129.02 796.12,-110.5 792.4,-100.75 785.92,-91.27 779.69,-83.57"/>
<polygon fill="#63b8ff" stroke="#63b8ff" points="782.33,-81.28 773.14,-76.02 777.05,-85.87 782.33,-81.28"/>
</a>
</g>
</g>
<!-- Node23 -->
<g id="Node000023" class="node">
<title>Node23</title>
<g id="a_Node000023"><a xlink:href="ctype_8h.html" target="_top" xlink:title=" ">
<polygon fill="white" stroke="#666666" points="787.5,-129.75 740.75,-129.75 740.75,-110.5 787.5,-110.5 787.5,-129.75"/>
<text text-anchor="middle" x="764.12" y="-116.25" font-family="Helvetica,sans-Serif" font-size="10.00">ctype.h</text>
</a>
</g>
</g>
<!-- Node21&#45;&gt;Node23 -->
<g id="edge40_Node000021_Node000023" class="edge">
<title>Node21&#45;&gt;Node23</title>
<g id="a_edge40_Node000021_Node000023"><a xlink:title=" ">
<path fill="none" stroke="#63b8ff" d="M795.85,-165.58C790.77,-158.46 783.43,-148.18 777.09,-139.3"/>
<polygon fill="#63b8ff" stroke="#63b8ff" points="780.07,-137.45 771.42,-131.34 774.38,-141.51 780.07,-137.45"/>
</a>
</g>
</g>
<!-- Node22&#45;&gt;Node6 -->
<g id="edge39_Node000022_Node000006" class="edge">
<title>Node22&#45;&gt;Node6</title>
<g id="a_edge39_Node000022_Node000006"><a xlink:title=" ">
<path fill="none" stroke="#63b8ff" d="M736.49,-57.02C701.75,-48.09 640.56,-32.35 599.19,-21.7"/>
<polygon fill="#63b8ff" stroke="#63b8ff" points="600.11,-18.33 589.56,-19.22 598.37,-25.11 600.11,-18.33"/>
</a>
</g>
</g>
<!-- Node25&#45;&gt;Node2 -->
<g id="edge44_Node000025_Node000002" class="edge">
<title>Node25&#45;&gt;Node2</title>
<g id="a_edge44_Node000025_Node000002"><a xlink:title=" ">
<path fill="none" stroke="#63b8ff" d="M356.32,-220.75C352.83,-203.5 345.04,-165.08 340.22,-141.31"/>
<polygon fill="#63b8ff" stroke="#63b8ff" points="343.67,-140.72 338.25,-131.61 336.81,-142.11 343.67,-140.72"/>
</a>
</g>
</g>
<!-- Node25&#45;&gt;Node7 -->
<g id="edge45_Node000025_Node000007" class="edge">
<title>Node25&#45;&gt;Node7</title>
<g id="a_edge45_Node000025_Node000007"><a xlink:title=" ">
<path fill="none" stroke="#63b8ff" d="M361.56,-220.75C368.3,-203.34 383.38,-164.37 392.56,-140.66"/>
<polygon fill="#63b8ff" stroke="#63b8ff" points="395.75,-142.13 396.09,-131.54 389.22,-139.6 395.75,-142.13"/>
</a>
</g>
</g>
<!-- Node25&#45;&gt;Node8 -->
<g id="edge51_Node000025_Node000008" class="edge">
<title>Node25&#45;&gt;Node8</title>
<g id="a_edge51_Node000025_Node000008"><a xlink:title=" ">
<path fill="none" stroke="#63b8ff" d="M344.55,-220.59C332.72,-212.71 315.29,-201.11 301.25,-191.77"/>
<polygon fill="#63b8ff" stroke="#63b8ff" points="303.29,-188.92 293.02,-186.29 299.41,-194.75 303.29,-188.92"/>
</a>
</g>
</g>
<!-- Node26 -->
<g id="Node000026" class="node">
<title>Node26</title>
<g id="a_Node000026"><a xlink:href="ioman_8h.html" target="_top" xlink:title=" ">
<polygon fill="white" stroke="#666666" points="490,-185 440.25,-185 440.25,-165.75 490,-165.75 490,-185"/>
<text text-anchor="middle" x="465.12" y="-171.5" font-family="Helvetica,sans-Serif" font-size="10.00">ioman.h</text>
</a>
</g>
</g>
<!-- Node25&#45;&gt;Node26 -->
<g id="edge46_Node000025_Node000026" class="edge">
<title>Node25&#45;&gt;Node26</title>
<g id="a_edge46_Node000025_Node000026"><a xlink:title=" ">
<path fill="none" stroke="#63b8ff" d="M376.28,-220.59C392.8,-212.37 417.47,-200.09 436.62,-190.56"/>
<polygon fill="#63b8ff" stroke="#63b8ff" points="438.14,-193.72 445.53,-186.13 435.02,-187.45 438.14,-193.72"/>
</a>
</g>
</g>
<!-- Node26&#45;&gt;Node2 -->
<g id="edge48_Node000026_Node000002" class="edge">
<title>Node26&#45;&gt;Node2</title>
<g id="a_edge48_Node000026_Node000002"><a xlink:title=" ">
<path fill="none" stroke="#63b8ff" d="M443.24,-165.34C422.76,-156.89 391.91,-144.15 368.57,-134.52"/>
<polygon fill="#63b8ff" stroke="#63b8ff" points="370.09,-131.36 359.51,-130.78 367.42,-137.83 370.09,-131.36"/>
</a>
</g>
</g>
<!-- Node26&#45;&gt;Node7 -->
<g id="edge49_Node000026_Node000007" class="edge">
<title>Node26&#45;&gt;Node7</title>
<g id="a_edge49_Node000026_Node000007"><a xlink:title=" ">
<path fill="none" stroke="#63b8ff" d="M454.1,-165.34C444.7,-157.65 430.98,-146.4 419.72,-137.18"/>
<polygon fill="#63b8ff" stroke="#63b8ff" points="422.11,-134.61 412.16,-130.98 417.68,-140.03 422.11,-134.61"/>
</a>
</g>
</g>
<!-- Node26&#45;&gt;Node10 -->
<g id="edge50_Node000026_Node000010" class="edge">
<title>Node26&#45;&gt;Node10</title>
<g id="a_edge50_Node000026_Node000010"><a xlink:title=" ">
<path fill="none" stroke="#63b8ff" d="M467.27,-165.58C468.9,-158.92 471.2,-149.49 473.27,-141.03"/>
<polygon fill="#63b8ff" stroke="#63b8ff" points="476.6,-142.12 475.57,-131.58 469.8,-140.46 476.6,-142.12"/>
</a>
</g>
</g>
<!-- Node26&#45;&gt;Node16 -->
<g id="edge47_Node000026_Node000016" class="edge">
<title>Node26&#45;&gt;Node16</title>
<g id="a_edge47_Node000026_Node000016"><a xlink:title=" ">
<path fill="none" stroke="#63b8ff" d="M490.34,-166.29C518.85,-157.14 565.43,-142.2 597.14,-132.03"/>
<polygon fill="#63b8ff" stroke="#63b8ff" points="598.19,-135.36 606.65,-128.98 596.06,-128.7 598.19,-135.36"/>
</a>
</g>
</g>
<!-- Node30 -->
<g id="Node000030" class="node">
<title>Node30</title>
<g id="a_Node000030"><a xlink:title=" ">
<polygon fill="#e0e0e0" stroke="#999999" points="981.88,-185 934.38,-185 934.38,-165.75 981.88,-165.75 981.88,-185"/>
<text text-anchor="middle" x="958.12" y="-171.5" font-family="Helvetica,sans-Serif" font-size="10.00">stdint.h</text>
</a>
</g>
</g>
<!-- Node29&#45;&gt;Node30 -->
<g id="edge55_Node000029_Node000030" class="edge">
<title>Node29&#45;&gt;Node30</title>
<g id="a_edge55_Node000029_Node000030"><a xlink:title=" ">
<path fill="none" stroke="#63b8ff" d="M958.12,-220.83C958.12,-214.32 958.12,-205.17 958.12,-196.87"/>
<polygon fill="#63b8ff" stroke="#63b8ff" points="961.63,-196.87 958.13,-186.87 954.63,-196.87 961.63,-196.87"/>
</a>
</g>
</g>
</g>
</svg>
