<?xml version="1.0" encoding="UTF-8" standalone="no"?>
<!DOCTYPE svg PUBLIC "-//W3C//DTD SVG 1.1//EN"
 "http://www.w3.org/Graphics/SVG/1.1/DTD/svg11.dtd">
<!-- Generated by graphviz version 12.2.0 (20241103.1931)
 -->
<!-- Title: iop/fs/netfs/src/ps2_fio.c Pages: 1 -->
<svg width="1081pt" height="315pt"
 viewBox="0.00 0.00 1081.24 314.75" xmlns="http://www.w3.org/2000/svg" xmlns:xlink="http://www.w3.org/1999/xlink">
<g id="graph0" class="graph" transform="scale(1 1) rotate(0) translate(4 310.75)">
<title>iop/fs/netfs/src/ps2_fio.c</title>
<!-- Node1 -->
<g id="Node000001" class="node">
<title>Node1</title>
<g id="a_Node000001"><a xlink:title=" ">
<polygon fill="#999999" stroke="#666666" points="534.86,-306.75 434.86,-306.75 434.86,-276.25 534.86,-276.25 534.86,-306.75"/>
<text text-anchor="start" x="442.86" y="-293.25" font-family="Helvetica,sans-Serif" font-size="10.00">iop/fs/netfs/src/ps2</text>
<text text-anchor="middle" x="484.86" y="-282" font-family="Helvetica,sans-Serif" font-size="10.00">_fio.c</text>
</a>
</g>
</g>
<!-- Node2 -->
<g id="Node000002" class="node">
<title>Node2</title>
<g id="a_Node000002"><a xlink:title=" ">
<polygon fill="#e0e0e0" stroke="#999999" points="139.24,-185 92.49,-185 92.49,-165.75 139.24,-165.75 139.24,-185"/>
<text text-anchor="middle" x="115.86" y="-171.5" font-family="Helvetica,sans-Serif" font-size="10.00">types.h</text>
</a>
</g>
</g>
<!-- Node1&#45;&gt;Node2 -->
<g id="edge1_Node000001_Node000002" class="edge">
<title>Node1&#45;&gt;Node2</title>
<g id="a_edge1_Node000001_Node000002"><a xlink:title=" ">
<path fill="none" stroke="#63b8ff" d="M434.46,-288.27C376.68,-284.21 280.13,-272.71 203.86,-240.25 176.89,-228.77 150.27,-207.72 133.49,-192.93"/>
<polygon fill="#63b8ff" stroke="#63b8ff" points="136.13,-190.6 126.36,-186.48 131.43,-195.79 136.13,-190.6"/>
</a>
</g>
</g>
<!-- Node3 -->
<g id="Node000003" class="node">
<title>Node3</title>
<g id="a_Node000003"><a xlink:href="defs_8h.html" target="_top" xlink:title=" ">
<polygon fill="white" stroke="#666666" points="51.99,-129.75 9.74,-129.75 9.74,-110.5 51.99,-110.5 51.99,-129.75"/>
<text text-anchor="middle" x="30.86" y="-116.25" font-family="Helvetica,sans-Serif" font-size="10.00">defs.h</text>
</a>
</g>
</g>
<!-- Node1&#45;&gt;Node3 -->
<g id="edge2_Node000001_Node000003" class="edge">
<title>Node1&#45;&gt;Node3</title>
<g id="a_edge2_Node000001_Node000003"><a xlink:title=" ">
<path fill="none" stroke="#63b8ff" d="M434.38,-288.68C362.45,-284.96 226.98,-273.74 116.86,-240.25 63.38,-223.98 33.46,-232.42 3.86,-185 -5.27,-170.37 4.27,-152.12 14.44,-138.87"/>
<polygon fill="#63b8ff" stroke="#63b8ff" points="16.97,-141.3 20.73,-131.4 11.62,-136.8 16.97,-141.3"/>
</a>
</g>
</g>
<!-- Node7 -->
<g id="Node000007" class="node">
<title>Node7</title>
<g id="a_Node000007"><a xlink:href="irx_8h.html" target="_top" xlink:title=" ">
<polygon fill="white" stroke="#666666" points="322.49,-129.75 289.24,-129.75 289.24,-110.5 322.49,-110.5 322.49,-129.75"/>
<text text-anchor="middle" x="305.86" y="-116.25" font-family="Helvetica,sans-Serif" font-size="10.00">irx.h</text>
</a>
</g>
</g>
<!-- Node1&#45;&gt;Node7 -->
<g id="edge6_Node000001_Node000007" class="edge">
<title>Node1&#45;&gt;Node7</title>
<g id="a_edge6_Node000001_Node000007"><a xlink:title=" ">
<path fill="none" stroke="#63b8ff" d="M468.57,-276.11C457.34,-266.13 442.1,-252.49 428.86,-240.25 390.34,-204.64 346.49,-161.52 322.95,-138.17"/>
<polygon fill="#63b8ff" stroke="#63b8ff" points="325.61,-135.88 316.05,-131.31 320.67,-140.84 325.61,-135.88"/>
</a>
</g>
</g>
<!-- Node8 -->
<g id="Node000008" class="node">
<title>Node8</title>
<g id="a_Node000008"><a xlink:href="loadcore_8h.html" target="_top" xlink:title=" ">
<polygon fill="white" stroke="#666666" points="217.99,-185 157.74,-185 157.74,-165.75 217.99,-165.75 217.99,-185"/>
<text text-anchor="middle" x="187.86" y="-171.5" font-family="Helvetica,sans-Serif" font-size="10.00">loadcore.h</text>
</a>
</g>
</g>
<!-- Node1&#45;&gt;Node8 -->
<g id="edge8_Node000001_Node000008" class="edge">
<title>Node1&#45;&gt;Node8</title>
<g id="a_edge8_Node000001_Node000008"><a xlink:title=" ">
<path fill="none" stroke="#63b8ff" d="M434.45,-285.64C368.89,-278.49 258.83,-263.44 225.86,-240.25 210.54,-229.47 200.37,-210.38 194.44,-195.86"/>
<polygon fill="#63b8ff" stroke="#63b8ff" points="197.87,-195.03 191.1,-186.87 191.3,-197.46 197.87,-195.03"/>
</a>
</g>
</g>
<!-- Node9 -->
<g id="Node000009" class="node">
<title>Node9</title>
<g id="a_Node000009"><a xlink:href="ioman__mod_8h.html" target="_top" xlink:title=" ">
<polygon fill="white" stroke="#666666" points="658.74,-185 584.99,-185 584.99,-165.75 658.74,-165.75 658.74,-185"/>
<text text-anchor="middle" x="621.86" y="-171.5" font-family="Helvetica,sans-Serif" font-size="10.00">ioman_mod.h</text>
</a>
</g>
</g>
<!-- Node1&#45;&gt;Node9 -->
<g id="edge11_Node000001_Node000009" class="edge">
<title>Node1&#45;&gt;Node9</title>
<g id="a_edge11_Node000001_Node000009"><a xlink:title=" ">
<path fill="none" stroke="#63b8ff" d="M490.94,-275.75C497.91,-260.38 510.63,-236.42 527.86,-221 543.24,-207.23 563.63,-196.86 581.48,-189.6"/>
<polygon fill="#63b8ff" stroke="#63b8ff" points="582.71,-192.88 590.79,-186.02 580.2,-186.35 582.71,-192.88"/>
</a>
</g>
</g>
<!-- Node15 -->
<g id="Node000015" class="node">
<title>Node15</title>
<g id="a_Node000015"><a xlink:href="ioman_x_8h.html" target="_top" xlink:title=" ">
<polygon fill="white" stroke="#666666" points="733.11,-185 676.61,-185 676.61,-165.75 733.11,-165.75 733.11,-185"/>
<text text-anchor="middle" x="704.86" y="-171.5" font-family="Helvetica,sans-Serif" font-size="10.00">iomanX.h</text>
</a>
</g>
</g>
<!-- Node1&#45;&gt;Node15 -->
<g id="edge19_Node000001_Node000015" class="edge">
<title>Node1&#45;&gt;Node15</title>
<g id="a_edge19_Node000001_Node000015"><a xlink:title=" ">
<path fill="none" stroke="#63b8ff" d="M497.14,-275.96C511.09,-260.3 535.27,-235.67 560.86,-221 578.81,-210.71 629.54,-196.1 665.69,-186.44"/>
<polygon fill="#63b8ff" stroke="#63b8ff" points="666.16,-189.94 674.93,-184 664.37,-183.17 666.16,-189.94"/>
</a>
</g>
</g>
<!-- Node17 -->
<g id="Node000017" class="node">
<title>Node17</title>
<g id="a_Node000017"><a xlink:href="thbase_8h.html" target="_top" xlink:title=" ">
<polygon fill="white" stroke="#666666" points="432.24,-185 379.49,-185 379.49,-165.75 432.24,-165.75 432.24,-185"/>
<text text-anchor="middle" x="405.86" y="-171.5" font-family="Helvetica,sans-Serif" font-size="10.00">thbase.h</text>
</a>
</g>
</g>
<!-- Node1&#45;&gt;Node17 -->
<g id="edge24_Node000001_Node000017" class="edge">
<title>Node1&#45;&gt;Node17</title>
<g id="a_edge24_Node000001_Node000017"><a xlink:title=" ">
<path fill="none" stroke="#63b8ff" d="M472.86,-275.84C464.93,-265.97 454.46,-252.56 445.86,-240.25 435.44,-225.33 424.54,-207.77 416.75,-194.85"/>
<polygon fill="#63b8ff" stroke="#63b8ff" points="419.92,-193.33 411.8,-186.53 413.91,-196.92 419.92,-193.33"/>
</a>
</g>
</g>
<!-- Node18 -->
<g id="Node000018" class="node">
<title>Node18</title>
<g id="a_Node000018"><a xlink:href="thsemap_8h.html" target="_top" xlink:title=" ">
<polygon fill="white" stroke="#666666" points="74.36,-185 13.36,-185 13.36,-165.75 74.36,-165.75 74.36,-185"/>
<text text-anchor="middle" x="43.86" y="-171.5" font-family="Helvetica,sans-Serif" font-size="10.00">thsemap.h</text>
</a>
</g>
</g>
<!-- Node1&#45;&gt;Node18 -->
<g id="edge27_Node000001_Node000018" class="edge">
<title>Node1&#45;&gt;Node18</title>
<g id="a_edge27_Node000001_Node000018"><a xlink:title=" ">
<path fill="none" stroke="#63b8ff" d="M434.49,-287.64C370.6,-282.87 257.68,-270.61 165.86,-240.25 129.48,-228.22 90.83,-206.22 67.01,-191.44"/>
<polygon fill="#63b8ff" stroke="#63b8ff" points="69.07,-188.6 58.75,-186.22 65.34,-194.52 69.07,-188.6"/>
</a>
</g>
</g>
<!-- Node19 -->
<g id="Node000019" class="node">
<title>Node19</title>
<g id="a_Node000019"><a xlink:href="stdio_8h.html" target="_top" xlink:title=" ">
<polygon fill="white" stroke="#666666" points="495.11,-185 450.61,-185 450.61,-165.75 495.11,-165.75 495.11,-185"/>
<text text-anchor="middle" x="472.86" y="-171.5" font-family="Helvetica,sans-Serif" font-size="10.00">stdio.h</text>
</a>
</g>
</g>
<!-- Node1&#45;&gt;Node19 -->
<g id="edge30_Node000001_Node000019" class="edge">
<title>Node1&#45;&gt;Node19</title>
<g id="a_edge30_Node000001_Node000019"><a xlink:title=" ">
<path fill="none" stroke="#63b8ff" d="M471.91,-275.84C464.46,-266.4 455.81,-253.45 451.86,-240.25 447.31,-225.03 453.53,-207.93 460.36,-195.26"/>
<polygon fill="#63b8ff" stroke="#63b8ff" points="463.34,-197.1 465.49,-186.72 457.34,-193.5 463.34,-197.1"/>
</a>
</g>
</g>
<!-- Node20 -->
<g id="Node000020" class="node">
<title>Node20</title>
<g id="a_Node000020"><a xlink:href="sysclib_8h.html" target="_top" xlink:title=" ">
<polygon fill="white" stroke="#666666" points="566.61,-185 513.11,-185 513.11,-165.75 566.61,-165.75 566.61,-185"/>
<text text-anchor="middle" x="539.86" y="-171.5" font-family="Helvetica,sans-Serif" font-size="10.00">sysclib.h</text>
</a>
</g>
</g>
<!-- Node1&#45;&gt;Node20 -->
<g id="edge33_Node000001_Node000020" class="edge">
<title>Node1&#45;&gt;Node20</title>
<g id="a_edge33_Node000001_Node000020"><a xlink:title=" ">
<path fill="none" stroke="#63b8ff" d="M482.84,-275.84C481.5,-261.18 481.32,-238.37 489.86,-221 495.56,-209.41 505.72,-199.48 515.39,-191.95"/>
<polygon fill="#63b8ff" stroke="#63b8ff" points="517.42,-194.81 523.5,-186.13 513.33,-189.12 517.42,-194.81"/>
</a>
</g>
</g>
<!-- Node23 -->
<g id="Node000023" class="node">
<title>Node23</title>
<g id="a_Node000023"><a xlink:href="errno_8h.html" target="_top" xlink:title=" ">
<polygon fill="white" stroke="#666666" points="615.49,-240.25 570.24,-240.25 570.24,-221 615.49,-221 615.49,-240.25"/>
<text text-anchor="middle" x="592.86" y="-226.75" font-family="Helvetica,sans-Serif" font-size="10.00">errno.h</text>
</a>
</g>
</g>
<!-- Node1&#45;&gt;Node23 -->
<g id="edge40_Node000001_Node000023" class="edge">
<title>Node1&#45;&gt;Node23</title>
<g id="a_edge40_Node000001_Node000023"><a xlink:title=" ">
<path fill="none" stroke="#63b8ff" d="M511.83,-275.8C528.44,-266.74 549.64,-255.19 566.19,-246.16"/>
<polygon fill="#63b8ff" stroke="#63b8ff" points="567.86,-249.24 574.97,-241.38 564.51,-243.09 567.86,-249.24"/>
</a>
</g>
</g>
<!-- Node24 -->
<g id="Node000024" class="node">
<title>Node24</title>
<g id="a_Node000024"><a xlink:title=" ">
<polygon fill="#e0e0e0" stroke="#999999" points="680.24,-240.25 633.49,-240.25 633.49,-221 680.24,-221 680.24,-240.25"/>
<text text-anchor="middle" x="656.86" y="-226.75" font-family="Helvetica,sans-Serif" font-size="10.00">ps2ip.h</text>
</a>
</g>
</g>
<!-- Node1&#45;&gt;Node24 -->
<g id="edge41_Node000001_Node000024" class="edge">
<title>Node1&#45;&gt;Node24</title>
<g id="a_edge41_Node000001_Node000024"><a xlink:title=" ">
<path fill="none" stroke="#63b8ff" d="M527.82,-275.8C557.2,-265.74 595.62,-252.59 622.87,-243.26"/>
<polygon fill="#63b8ff" stroke="#63b8ff" points="623.69,-246.68 632.02,-240.13 621.42,-240.06 623.69,-246.68"/>
</a>
</g>
</g>
<!-- Node25 -->
<g id="Node000025" class="node">
<title>Node25</title>
<g id="a_Node000025"><a xlink:href="iopmgr_8h.html" target="_top" xlink:title=" ">
<polygon fill="white" stroke="#666666" points="287.24,-240.25 234.49,-240.25 234.49,-221 287.24,-221 287.24,-240.25"/>
<text text-anchor="middle" x="260.86" y="-226.75" font-family="Helvetica,sans-Serif" font-size="10.00">iopmgr.h</text>
</a>
</g>
</g>
<!-- Node1&#45;&gt;Node25 -->
<g id="edge42_Node000001_Node000025" class="edge">
<title>Node1&#45;&gt;Node25</title>
<g id="a_edge42_Node000001_Node000025"><a xlink:title=" ">
<path fill="none" stroke="#63b8ff" d="M434.59,-277.29C393.33,-266.44 335.8,-251.32 298.45,-241.5"/>
<polygon fill="#63b8ff" stroke="#63b8ff" points="299.57,-238.18 289.01,-239.02 297.79,-244.95 299.57,-238.18"/>
</a>
</g>
</g>
<!-- Node27 -->
<g id="Node000027" class="node">
<title>Node27</title>
<g id="a_Node000027"><a xlink:href="ps2__fio_8h.html" target="_top" xlink:title=" ">
<polygon fill="white" stroke="#666666" points="752.99,-240.25 698.74,-240.25 698.74,-221 752.99,-221 752.99,-240.25"/>
<text text-anchor="middle" x="725.86" y="-226.75" font-family="Helvetica,sans-Serif" font-size="10.00">ps2_fio.h</text>
</a>
</g>
</g>
<!-- Node1&#45;&gt;Node27 -->
<g id="edge50_Node000001_Node000027" class="edge">
<title>Node1&#45;&gt;Node27</title>
<g id="a_edge50_Node000001_Node000027"><a xlink:title=" ">
<path fill="none" stroke="#63b8ff" d="M535.09,-278.23C580.48,-267.14 646.33,-251.05 687.59,-240.98"/>
<polygon fill="#63b8ff" stroke="#63b8ff" points="688.18,-244.43 697.06,-238.66 686.52,-237.63 688.18,-244.43"/>
</a>
</g>
</g>
<!-- Node28 -->
<g id="Node000028" class="node">
<title>Node28</title>
<g id="a_Node000028"><a xlink:href="ps2fs_8h.html" target="_top" xlink:title=" ">
<polygon fill="white" stroke="#666666" points="818.61,-240.25 771.11,-240.25 771.11,-221 818.61,-221 818.61,-240.25"/>
<text text-anchor="middle" x="794.86" y="-226.75" font-family="Helvetica,sans-Serif" font-size="10.00">ps2fs.h</text>
</a>
</g>
</g>
<!-- Node1&#45;&gt;Node28 -->
<g id="edge51_Node000001_Node000028" class="edge">
<title>Node1&#45;&gt;Node28</title>
<g id="a_edge51_Node000001_Node000028"><a xlink:title=" ">
<path fill="none" stroke="#63b8ff" d="M535.13,-282.56C588.47,-273.88 675.43,-258.97 759.7,-240.59"/>
<polygon fill="#63b8ff" stroke="#63b8ff" points="760.27,-244.05 769.28,-238.48 758.76,-237.21 760.27,-244.05"/>
</a>
</g>
</g>
<!-- Node29 -->
<g id="Node000029" class="node">
<title>Node29</title>
<g id="a_Node000029"><a xlink:href="byteorder_8h.html" target="_top" xlink:title=" ">
<polygon fill="white" stroke="#666666" points="899.49,-240.25 836.24,-240.25 836.24,-221 899.49,-221 899.49,-240.25"/>
<text text-anchor="middle" x="867.86" y="-226.75" font-family="Helvetica,sans-Serif" font-size="10.00">byteorder.h</text>
</a>
</g>
</g>
<!-- Node1&#45;&gt;Node29 -->
<g id="edge52_Node000001_Node000029" class="edge">
<title>Node1&#45;&gt;Node29</title>
<g id="a_edge52_Node000001_Node000029"><a xlink:title=" ">
<path fill="none" stroke="#63b8ff" d="M535.31,-284.18C600.11,-275.83 716.32,-260.06 824.87,-240.7"/>
<polygon fill="#63b8ff" stroke="#63b8ff" points="825.31,-244.18 834.53,-238.96 824.07,-237.29 825.31,-244.18"/>
</a>
</g>
</g>
<!-- Node31 -->
<g id="Node000031" class="node">
<title>Node31</title>
<g id="a_Node000031"><a xlink:href="devscan_8h.html" target="_top" xlink:title=" ">
<polygon fill="white" stroke="#666666" points="977.99,-240.25 917.74,-240.25 917.74,-221 977.99,-221 977.99,-240.25"/>
<text text-anchor="middle" x="947.86" y="-226.75" font-family="Helvetica,sans-Serif" font-size="10.00">devscan.h</text>
</a>
</g>
</g>
<!-- Node1&#45;&gt;Node31 -->
<g id="edge54_Node000001_Node000031" class="edge">
<title>Node1&#45;&gt;Node31</title>
<g id="a_edge54_Node000001_Node000031"><a xlink:title=" ">
<path fill="none" stroke="#63b8ff" d="M535.35,-286.16C612.95,-279.13 766.38,-263.8 905.95,-240.6"/>
<polygon fill="#63b8ff" stroke="#63b8ff" points="906.49,-244.06 915.77,-238.95 905.33,-237.15 906.49,-244.06"/>
</a>
</g>
</g>
<!-- Node32 -->
<g id="Node000032" class="node">
<title>Node32</title>
<g id="a_Node000032"><a xlink:href="fs_2netfs_2src_2debug__printf_8h_source.html" target="_top" xlink:title=" ">
<polygon fill="white" stroke="#666666" points="1073.24,-240.25 996.49,-240.25 996.49,-221 1073.24,-221 1073.24,-240.25"/>
<text text-anchor="middle" x="1034.86" y="-226.75" font-family="Helvetica,sans-Serif" font-size="10.00">debug_printf.h</text>
</a>
</g>
</g>
<!-- Node1&#45;&gt;Node32 -->
<g id="edge55_Node000001_Node000032" class="edge">
<title>Node1&#45;&gt;Node32</title>
<g id="a_edge55_Node000001_Node000032"><a xlink:title=" ">
<path fill="none" stroke="#63b8ff" d="M535.25,-286.77C623.92,-279.91 813.87,-263.95 984.89,-240.41"/>
<polygon fill="#63b8ff" stroke="#63b8ff" points="985.21,-243.9 994.63,-239.06 984.24,-236.97 985.21,-243.9"/>
</a>
</g>
</g>
<!-- Node4 -->
<g id="Node000004" class="node">
<title>Node4</title>
<g id="a_Node000004"><a xlink:href="iop_2kernel_2include_2types_8h_source.html" target="_top" xlink:title=" ">
<polygon fill="white" stroke="#666666" points="352.24,-74.5 305.49,-74.5 305.49,-55.25 352.24,-55.25 352.24,-74.5"/>
<text text-anchor="middle" x="328.86" y="-61" font-family="Helvetica,sans-Serif" font-size="10.00">types.h</text>
</a>
</g>
</g>
<!-- Node3&#45;&gt;Node4 -->
<g id="edge3_Node000003_Node000004" class="edge">
<title>Node3&#45;&gt;Node4</title>
<g id="a_edge3_Node000003_Node000004"><a xlink:title=" ">
<path fill="none" stroke="#63b8ff" d="M52.29,-115.3C103.19,-106.2 231.74,-83.23 294,-72.1"/>
<polygon fill="#63b8ff" stroke="#63b8ff" points="294.45,-75.58 303.68,-70.37 293.22,-68.69 294.45,-75.58"/>
</a>
</g>
</g>
<!-- Node5 -->
<g id="Node000005" class="node">
<title>Node5</title>
<g id="a_Node000005"><a xlink:title=" ">
<polygon fill="#e0e0e0" stroke="#999999" points="354.11,-19.25 303.61,-19.25 303.61,0 354.11,0 354.11,-19.25"/>
<text text-anchor="middle" x="328.86" y="-5.75" font-family="Helvetica,sans-Serif" font-size="10.00">stddef.h</text>
</a>
</g>
</g>
<!-- Node4&#45;&gt;Node5 -->
<g id="edge4_Node000004_Node000005" class="edge">
<title>Node4&#45;&gt;Node5</title>
<g id="a_edge4_Node000004_Node000005"><a xlink:title=" ">
<path fill="none" stroke="#63b8ff" d="M328.86,-55.08C328.86,-48.57 328.86,-39.42 328.86,-31.12"/>
<polygon fill="#63b8ff" stroke="#63b8ff" points="332.36,-31.12 328.86,-21.12 325.36,-31.12 332.36,-31.12"/>
</a>
</g>
</g>
<!-- Node6 -->
<g id="Node000006" class="node">
<title>Node6</title>
<g id="a_Node000006"><a xlink:href="tamtypes_8h.html" target="_top" xlink:title=" ">
<polygon fill="white" stroke="#666666" points="457.49,-19.25 394.24,-19.25 394.24,0 457.49,0 457.49,-19.25"/>
<text text-anchor="middle" x="425.86" y="-5.75" font-family="Helvetica,sans-Serif" font-size="10.00">tamtypes.h</text>
</a>
</g>
</g>
<!-- Node4&#45;&gt;Node6 -->
<g id="edge5_Node000004_Node000006" class="edge">
<title>Node4&#45;&gt;Node6</title>
<g id="a_edge5_Node000004_Node000006"><a xlink:title=" ">
<path fill="none" stroke="#63b8ff" d="M345.31,-54.84C360.09,-46.73 382.04,-34.68 399.29,-25.21"/>
<polygon fill="#63b8ff" stroke="#63b8ff" points="400.92,-28.31 408,-20.43 397.55,-22.18 400.92,-28.31"/>
</a>
</g>
</g>
<!-- Node7&#45;&gt;Node4 -->
<g id="edge7_Node000007_Node000004" class="edge">
<title>Node7&#45;&gt;Node4</title>
<g id="a_edge7_Node000007_Node000004"><a xlink:title=" ">
<path fill="none" stroke="#63b8ff" d="M309.66,-110.33C312.6,-103.51 316.8,-93.81 320.51,-85.2"/>
<polygon fill="#63b8ff" stroke="#63b8ff" points="323.63,-86.82 324.38,-76.25 317.2,-84.04 323.63,-86.82"/>
</a>
</g>
</g>
<!-- Node8&#45;&gt;Node4 -->
<g id="edge9_Node000008_Node000004" class="edge">
<title>Node8&#45;&gt;Node4</title>
<g id="a_edge9_Node000008_Node000004"><a xlink:title=" ">
<path fill="none" stroke="#63b8ff" d="M198.7,-165.29C213.78,-152.72 242.04,-129.44 266.86,-110.5 279.87,-100.57 294.75,-89.84 306.67,-81.39"/>
<polygon fill="#63b8ff" stroke="#63b8ff" points="308.49,-84.39 314.65,-75.77 304.46,-78.67 308.49,-84.39"/>
</a>
</g>
</g>
<!-- Node8&#45;&gt;Node7 -->
<g id="edge10_Node000008_Node000007" class="edge">
<title>Node8&#45;&gt;Node7</title>
<g id="a_edge10_Node000008_Node000007"><a xlink:title=" ">
<path fill="none" stroke="#63b8ff" d="M207.88,-165.34C227.25,-156.6 256.78,-143.28 278.35,-133.54"/>
<polygon fill="#63b8ff" stroke="#63b8ff" points="279.76,-136.74 287.43,-129.44 276.88,-130.36 279.76,-136.74"/>
</a>
</g>
</g>
<!-- Node9&#45;&gt;Node4 -->
<g id="edge12_Node000009_Node000004" class="edge">
<title>Node9&#45;&gt;Node4</title>
<g id="a_edge12_Node000009_Node000004"><a xlink:title=" ">
<path fill="none" stroke="#63b8ff" d="M618.51,-165.7C612.6,-151.64 598.91,-124.07 577.86,-110.5 560.05,-99.02 427.58,-79.49 363.45,-70.57"/>
<polygon fill="#63b8ff" stroke="#63b8ff" points="364.2,-67.14 353.82,-69.24 363.24,-74.07 364.2,-67.14"/>
</a>
</g>
</g>
<!-- Node9&#45;&gt;Node7 -->
<g id="edge13_Node000009_Node000007" class="edge">
<title>Node9&#45;&gt;Node7</title>
<g id="a_edge13_Node000009_Node000007"><a xlink:title=" ">
<path fill="none" stroke="#63b8ff" d="M584.72,-167.34C581.72,-166.79 578.74,-166.26 575.86,-165.75 487.87,-150.23 383.45,-133.43 334.22,-125.61"/>
<polygon fill="#63b8ff" stroke="#63b8ff" points="334.86,-122.16 324.44,-124.05 333.76,-129.08 334.86,-122.16"/>
</a>
</g>
</g>
<!-- Node10 -->
<g id="Node000010" class="node">
<title>Node10</title>
<g id="a_Node000010"><a xlink:href="io__common_8h.html" target="_top" xlink:title=" ">
<polygon fill="white" stroke="#666666" points="698.74,-129.75 624.99,-129.75 624.99,-110.5 698.74,-110.5 698.74,-129.75"/>
<text text-anchor="middle" x="661.86" y="-116.25" font-family="Helvetica,sans-Serif" font-size="10.00">io_common.h</text>
</a>
</g>
</g>
<!-- Node9&#45;&gt;Node10 -->
<g id="edge14_Node000009_Node000010" class="edge">
<title>Node9&#45;&gt;Node10</title>
<g id="a_edge14_Node000009_Node000010"><a xlink:title=" ">
<path fill="none" stroke="#63b8ff" d="M628.47,-165.58C633.82,-158.46 641.54,-148.18 648.21,-139.3"/>
<polygon fill="#63b8ff" stroke="#63b8ff" points="650.99,-141.42 654.2,-131.32 645.4,-137.21 650.99,-141.42"/>
</a>
</g>
</g>
<!-- Node13 -->
<g id="Node000013" class="node">
<title>Node13</title>
<g id="a_Node000013"><a xlink:href="iox__stat_8h.html" target="_top" xlink:title=" ">
<polygon fill="white" stroke="#666666" points="774.49,-129.75 717.24,-129.75 717.24,-110.5 774.49,-110.5 774.49,-129.75"/>
<text text-anchor="middle" x="745.86" y="-116.25" font-family="Helvetica,sans-Serif" font-size="10.00">iox_stat.h</text>
</a>
</g>
</g>
<!-- Node9&#45;&gt;Node13 -->
<g id="edge17_Node000009_Node000013" class="edge">
<title>Node9&#45;&gt;Node13</title>
<g id="a_edge17_Node000009_Node000013"><a xlink:title=" ">
<path fill="none" stroke="#63b8ff" d="M642.9,-165.34C662.49,-156.93 691.97,-144.27 714.37,-134.65"/>
<polygon fill="#63b8ff" stroke="#63b8ff" points="715.52,-137.96 723.33,-130.8 712.76,-131.53 715.52,-137.96"/>
</a>
</g>
</g>
<!-- Node11 -->
<g id="Node000011" class="node">
<title>Node11</title>
<g id="a_Node000011"><a xlink:href="fcntl_8h_source.html" target="_top" xlink:title=" ">
<polygon fill="white" stroke="#666666" points="694.99,-74.5 634.74,-74.5 634.74,-55.25 694.99,-55.25 694.99,-74.5"/>
<text text-anchor="middle" x="664.86" y="-61" font-family="Helvetica,sans-Serif" font-size="10.00">sys/fcntl.h</text>
</a>
</g>
</g>
<!-- Node10&#45;&gt;Node11 -->
<g id="edge15_Node000010_Node000011" class="edge">
<title>Node10&#45;&gt;Node11</title>
<g id="a_edge15_Node000010_Node000011"><a xlink:title=" ">
<path fill="none" stroke="#63b8ff" d="M662.36,-110.33C662.73,-103.74 663.25,-94.46 663.72,-86.07"/>
<polygon fill="#63b8ff" stroke="#63b8ff" points="667.2,-86.55 664.27,-76.37 660.21,-86.16 667.2,-86.55"/>
</a>
</g>
</g>
<!-- Node12 -->
<g id="Node000012" class="node">
<title>Node12</title>
<g id="a_Node000012"><a xlink:href="unistd_8h_source.html" target="_top" xlink:title=" ">
<polygon fill="white" stroke="#666666" points="616.74,-74.5 548.99,-74.5 548.99,-55.25 616.74,-55.25 616.74,-74.5"/>
<text text-anchor="middle" x="582.86" y="-61" font-family="Helvetica,sans-Serif" font-size="10.00">sys/unistd.h</text>
</a>
</g>
</g>
<!-- Node10&#45;&gt;Node12 -->
<g id="edge16_Node000010_Node000012" class="edge">
<title>Node10&#45;&gt;Node12</title>
<g id="a_edge16_Node000010_Node000012"><a xlink:title=" ">
<path fill="none" stroke="#63b8ff" d="M648.46,-110.09C636.77,-102.21 619.56,-90.61 605.7,-81.27"/>
<polygon fill="#63b8ff" stroke="#63b8ff" points="607.83,-78.49 597.58,-75.8 603.92,-84.29 607.83,-78.49"/>
</a>
</g>
</g>
<!-- Node14 -->
<g id="Node000014" class="node">
<title>Node14</title>
<g id="a_Node000014"><a xlink:href="time_8h.html" target="_top" xlink:title=" ">
<polygon fill="white" stroke="#666666" points="775.99,-74.5 715.74,-74.5 715.74,-55.25 775.99,-55.25 775.99,-74.5"/>
<text text-anchor="middle" x="745.86" y="-61" font-family="Helvetica,sans-Serif" font-size="10.00">sys/time.h</text>
</a>
</g>
</g>
<!-- Node13&#45;&gt;Node14 -->
<g id="edge18_Node000013_Node000014" class="edge">
<title>Node13&#45;&gt;Node14</title>
<g id="a_edge18_Node000013_Node000014"><a xlink:title=" ">
<path fill="none" stroke="#63b8ff" d="M745.86,-110.33C745.86,-103.82 745.86,-94.67 745.86,-86.37"/>
<polygon fill="#63b8ff" stroke="#63b8ff" points="749.36,-86.37 745.86,-76.37 742.36,-86.37 749.36,-86.37"/>
</a>
</g>
</g>
<!-- Node15&#45;&gt;Node4 -->
<g id="edge20_Node000015_Node000004" class="edge">
<title>Node15&#45;&gt;Node4</title>
<g id="a_edge20_Node000015_Node000004"><a xlink:title=" ">
<path fill="none" stroke="#63b8ff" d="M731.91,-165.31C762.07,-153.83 804.13,-132.83 783.86,-110.5 756.02,-79.83 454.07,-78.62 412.86,-74.5 396.75,-72.89 378.9,-71.06 363.81,-69.51"/>
<polygon fill="#63b8ff" stroke="#63b8ff" points="364.2,-66.03 353.9,-68.48 363.48,-72.99 364.2,-66.03"/>
</a>
</g>
</g>
<!-- Node15&#45;&gt;Node10 -->
<g id="edge22_Node000015_Node000010" class="edge">
<title>Node15&#45;&gt;Node10</title>
<g id="a_edge22_Node000015_Node000010"><a xlink:title=" ">
<path fill="none" stroke="#63b8ff" d="M697.76,-165.58C691.94,-158.38 683.53,-147.96 676.3,-139.01"/>
<polygon fill="#63b8ff" stroke="#63b8ff" points="679.07,-136.87 670.07,-131.29 673.63,-141.27 679.07,-136.87"/>
</a>
</g>
</g>
<!-- Node15&#45;&gt;Node13 -->
<g id="edge23_Node000015_Node000013" class="edge">
<title>Node15&#45;&gt;Node13</title>
<g id="a_edge23_Node000015_Node000013"><a xlink:title=" ">
<path fill="none" stroke="#63b8ff" d="M711.63,-165.58C717.18,-158.38 725.2,-147.96 732.09,-139.01"/>
<polygon fill="#63b8ff" stroke="#63b8ff" points="734.69,-141.37 738.02,-131.31 729.15,-137.1 734.69,-141.37"/>
</a>
</g>
</g>
<!-- Node16 -->
<g id="Node000016" class="node">
<title>Node16</title>
<g id="a_Node000016"><a xlink:title=" ">
<polygon fill="#e0e0e0" stroke="#999999" points="569.11,-129.75 518.61,-129.75 518.61,-110.5 569.11,-110.5 569.11,-129.75"/>
<text text-anchor="middle" x="543.86" y="-116.25" font-family="Helvetica,sans-Serif" font-size="10.00">stdarg.h</text>
</a>
</g>
</g>
<!-- Node15&#45;&gt;Node16 -->
<g id="edge21_Node000015_Node000016" class="edge">
<title>Node15&#45;&gt;Node16</title>
<g id="a_edge21_Node000015_Node000016"><a xlink:title=" ">
<path fill="none" stroke="#63b8ff" d="M677.55,-165.34C650.74,-156.47 609.69,-142.9 580.15,-133.13"/>
<polygon fill="#63b8ff" stroke="#63b8ff" points="581.47,-129.88 570.88,-130.06 579.27,-136.52 581.47,-129.88"/>
</a>
</g>
</g>
<!-- Node17&#45;&gt;Node4 -->
<g id="edge25_Node000017_Node000004" class="edge">
<title>Node17&#45;&gt;Node4</title>
<g id="a_edge25_Node000017_Node000004"><a xlink:title=" ">
<path fill="none" stroke="#63b8ff" d="M398.12,-165.37C390.62,-156.52 379.06,-142.51 369.86,-129.75 359.14,-114.89 347.97,-97.32 340,-84.38"/>
<polygon fill="#63b8ff" stroke="#63b8ff" points="343.12,-82.77 334.93,-76.05 337.14,-86.41 343.12,-82.77"/>
</a>
</g>
</g>
<!-- Node17&#45;&gt;Node7 -->
<g id="edge26_Node000017_Node000007" class="edge">
<title>Node17&#45;&gt;Node7</title>
<g id="a_edge26_Node000017_Node000007"><a xlink:title=" ">
<path fill="none" stroke="#63b8ff" d="M388.9,-165.34C373.6,-157.19 350.83,-145.07 333,-135.58"/>
<polygon fill="#63b8ff" stroke="#63b8ff" points="334.71,-132.52 324.24,-130.91 331.42,-138.7 334.71,-132.52"/>
</a>
</g>
</g>
<!-- Node18&#45;&gt;Node4 -->
<g id="edge28_Node000018_Node000004" class="edge">
<title>Node18&#45;&gt;Node4</title>
<g id="a_edge28_Node000018_Node000004"><a xlink:title=" ">
<path fill="none" stroke="#63b8ff" d="M67.67,-165.31C118.19,-146.08 236.29,-101.12 294.79,-78.85"/>
<polygon fill="#63b8ff" stroke="#63b8ff" points="295.8,-82.2 303.91,-75.38 293.31,-75.66 295.8,-82.2"/>
</a>
</g>
</g>
<!-- Node18&#45;&gt;Node7 -->
<g id="edge29_Node000018_Node000007" class="edge">
<title>Node18&#45;&gt;Node7</title>
<g id="a_edge29_Node000018_Node000007"><a xlink:title=" ">
<path fill="none" stroke="#63b8ff" d="M74.86,-167.65C77.9,-167 80.94,-166.36 83.86,-165.75 153.39,-151.27 235.35,-135 277.57,-126.68"/>
<polygon fill="#63b8ff" stroke="#63b8ff" points="278.23,-130.12 287.37,-124.75 276.88,-123.25 278.23,-130.12"/>
</a>
</g>
</g>
<!-- Node19&#45;&gt;Node7 -->
<g id="edge32_Node000019_Node000007" class="edge">
<title>Node19&#45;&gt;Node7</title>
<g id="a_edge32_Node000019_Node000007"><a xlink:title=" ">
<path fill="none" stroke="#63b8ff" d="M450.34,-167.19C420.07,-157.54 366.31,-140.4 333.59,-129.97"/>
<polygon fill="#63b8ff" stroke="#63b8ff" points="335,-126.74 324.41,-127.04 332.88,-133.41 335,-126.74"/>
</a>
</g>
</g>
<!-- Node19&#45;&gt;Node16 -->
<g id="edge31_Node000019_Node000016" class="edge">
<title>Node19&#45;&gt;Node16</title>
<g id="a_edge31_Node000019_Node000016"><a xlink:title=" ">
<path fill="none" stroke="#63b8ff" d="M484.9,-165.34C495.27,-157.57 510.46,-146.17 522.83,-136.9"/>
<polygon fill="#63b8ff" stroke="#63b8ff" points="524.88,-139.73 530.78,-130.93 520.68,-134.13 524.88,-139.73"/>
</a>
</g>
</g>
<!-- Node20&#45;&gt;Node4 -->
<g id="edge34_Node000020_Node000004" class="edge">
<title>Node20&#45;&gt;Node4</title>
<g id="a_edge34_Node000020_Node000004"><a xlink:title=" ">
<path fill="none" stroke="#63b8ff" d="M526.16,-165.26C506.29,-152.25 468.11,-127.99 433.86,-110.5 410.83,-98.74 383.99,-87.37 363.21,-79.05"/>
<polygon fill="#63b8ff" stroke="#63b8ff" points="364.64,-75.85 354.05,-75.43 362.07,-82.36 364.64,-75.85"/>
</a>
</g>
</g>
<!-- Node20&#45;&gt;Node7 -->
<g id="edge35_Node000020_Node000007" class="edge">
<title>Node20&#45;&gt;Node7</title>
<g id="a_edge35_Node000020_Node000007"><a xlink:title=" ">
<path fill="none" stroke="#63b8ff" d="M512.74,-167.84C509.75,-167.13 506.74,-166.42 503.86,-165.75 443.34,-151.68 372.25,-135.82 333.86,-127.31"/>
<polygon fill="#63b8ff" stroke="#63b8ff" points="334.83,-123.94 324.31,-125.2 333.31,-130.77 334.83,-123.94"/>
</a>
</g>
</g>
<!-- Node20&#45;&gt;Node16 -->
<g id="edge36_Node000020_Node000016" class="edge">
<title>Node20&#45;&gt;Node16</title>
<g id="a_edge36_Node000020_Node000016"><a xlink:title=" ">
<path fill="none" stroke="#63b8ff" d="M540.52,-165.58C541.02,-158.99 541.71,-149.71 542.34,-141.32"/>
<polygon fill="#63b8ff" stroke="#63b8ff" points="545.81,-141.85 543.07,-131.62 538.83,-141.33 545.81,-141.85"/>
</a>
</g>
</g>
<!-- Node21 -->
<g id="Node000021" class="node">
<title>Node21</title>
<g id="a_Node000021"><a xlink:href="setjmp_8h.html" target="_top" xlink:title=" ">
<polygon fill="white" stroke="#666666" points="474.24,-74.5 421.49,-74.5 421.49,-55.25 474.24,-55.25 474.24,-74.5"/>
<text text-anchor="middle" x="447.86" y="-61" font-family="Helvetica,sans-Serif" font-size="10.00">setjmp.h</text>
</a>
</g>
</g>
<!-- Node20&#45;&gt;Node21 -->
<g id="edge37_Node000020_Node000021" class="edge">
<title>Node20&#45;&gt;Node21</title>
<g id="a_edge37_Node000020_Node000021"><a xlink:title=" ">
<path fill="none" stroke="#63b8ff" d="M532.33,-165.5C517.17,-147.61 482.71,-106.97 462.8,-83.5"/>
<polygon fill="#63b8ff" stroke="#63b8ff" points="465.61,-81.39 456.47,-76.03 460.27,-85.92 465.61,-81.39"/>
</a>
</g>
</g>
<!-- Node22 -->
<g id="Node000022" class="node">
<title>Node22</title>
<g id="a_Node000022"><a xlink:href="ctype_8h.html" target="_top" xlink:title=" ">
<polygon fill="white" stroke="#666666" points="425.24,-129.75 378.49,-129.75 378.49,-110.5 425.24,-110.5 425.24,-129.75"/>
<text text-anchor="middle" x="401.86" y="-116.25" font-family="Helvetica,sans-Serif" font-size="10.00">ctype.h</text>
</a>
</g>
</g>
<!-- Node20&#45;&gt;Node22 -->
<g id="edge39_Node000020_Node000022" class="edge">
<title>Node20&#45;&gt;Node22</title>
<g id="a_edge39_Node000020_Node000022"><a xlink:title=" ">
<path fill="none" stroke="#63b8ff" d="M516.45,-165.34C494.35,-156.81 460.94,-143.92 435.89,-134.26"/>
<polygon fill="#63b8ff" stroke="#63b8ff" points="437.39,-131.08 426.8,-130.75 434.87,-137.61 437.39,-131.08"/>
</a>
</g>
</g>
<!-- Node21&#45;&gt;Node6 -->
<g id="edge38_Node000021_Node000006" class="edge">
<title>Node21&#45;&gt;Node6</title>
<g id="a_edge38_Node000021_Node000006"><a xlink:title=" ">
<path fill="none" stroke="#63b8ff" d="M444.23,-55.08C441.44,-48.34 437.49,-38.77 433.96,-30.24"/>
<polygon fill="#63b8ff" stroke="#63b8ff" points="437.2,-28.91 430.15,-21.01 430.73,-31.59 437.2,-28.91"/>
</a>
</g>
</g>
<!-- Node25&#45;&gt;Node2 -->
<g id="edge43_Node000025_Node000002" class="edge">
<title>Node25&#45;&gt;Node2</title>
<g id="a_edge43_Node000025_Node000002"><a xlink:title=" ">
<path fill="none" stroke="#63b8ff" d="M236.26,-220.59C212.65,-211.92 176.76,-198.74 150.31,-189.03"/>
<polygon fill="#63b8ff" stroke="#63b8ff" points="151.63,-185.78 141.03,-185.62 149.22,-192.35 151.63,-185.78"/>
</a>
</g>
</g>
<!-- Node25&#45;&gt;Node7 -->
<g id="edge44_Node000025_Node000007" class="edge">
<title>Node25&#45;&gt;Node7</title>
<g id="a_edge44_Node000025_Node000007"><a xlink:title=" ">
<path fill="none" stroke="#63b8ff" d="M269.9,-220.57C277.78,-212.11 288.87,-198.75 294.86,-185 300.86,-171.23 303.59,-154.45 304.84,-141.54"/>
<polygon fill="#63b8ff" stroke="#63b8ff" points="308.32,-141.92 305.54,-131.7 301.34,-141.42 308.32,-141.92"/>
</a>
</g>
</g>
<!-- Node25&#45;&gt;Node8 -->
<g id="edge49_Node000025_Node000008" class="edge">
<title>Node25&#45;&gt;Node8</title>
<g id="a_edge49_Node000025_Node000008"><a xlink:title=" ">
<path fill="none" stroke="#63b8ff" d="M248.48,-220.59C237.71,-212.74 221.89,-201.2 209.11,-191.87"/>
<polygon fill="#63b8ff" stroke="#63b8ff" points="211.43,-189.23 201.28,-186.17 207.3,-194.89 211.43,-189.23"/>
</a>
</g>
</g>
<!-- Node26 -->
<g id="Node000026" class="node">
<title>Node26</title>
<g id="a_Node000026"><a xlink:href="ioman_8h.html" target="_top" xlink:title=" ">
<polygon fill="white" stroke="#666666" points="285.74,-185 235.99,-185 235.99,-165.75 285.74,-165.75 285.74,-185"/>
<text text-anchor="middle" x="260.86" y="-171.5" font-family="Helvetica,sans-Serif" font-size="10.00">ioman.h</text>
</a>
</g>
</g>
<!-- Node25&#45;&gt;Node26 -->
<g id="edge45_Node000025_Node000026" class="edge">
<title>Node25&#45;&gt;Node26</title>
<g id="a_edge45_Node000025_Node000026"><a xlink:title=" ">
<path fill="none" stroke="#63b8ff" d="M260.86,-220.83C260.86,-214.32 260.86,-205.17 260.86,-196.87"/>
<polygon fill="#63b8ff" stroke="#63b8ff" points="264.36,-196.87 260.86,-186.87 257.36,-196.87 264.36,-196.87"/>
</a>
</g>
</g>
<!-- Node26&#45;&gt;Node4 -->
<g id="edge46_Node000026_Node000004" class="edge">
<title>Node26&#45;&gt;Node4</title>
<g id="a_edge46_Node000026_Node000004"><a xlink:title=" ">
<path fill="none" stroke="#63b8ff" d="M261.96,-165.49C263.89,-152.55 268.79,-128.14 279.86,-110.5 286.74,-99.54 297.04,-89.59 306.42,-81.89"/>
<polygon fill="#63b8ff" stroke="#63b8ff" points="308.38,-84.79 314.14,-75.9 304.09,-79.26 308.38,-84.79"/>
</a>
</g>
</g>
<!-- Node26&#45;&gt;Node7 -->
<g id="edge47_Node000026_Node000007" class="edge">
<title>Node26&#45;&gt;Node7</title>
<g id="a_edge47_Node000026_Node000007"><a xlink:title=" ">
<path fill="none" stroke="#63b8ff" d="M268.29,-165.58C274.44,-158.3 283.37,-147.73 290.99,-138.73"/>
<polygon fill="#63b8ff" stroke="#63b8ff" points="293.51,-141.16 297.29,-131.27 288.16,-136.64 293.51,-141.16"/>
</a>
</g>
</g>
<!-- Node26&#45;&gt;Node10 -->
<g id="edge48_Node000026_Node000010" class="edge">
<title>Node26&#45;&gt;Node10</title>
<g id="a_edge48_Node000026_Node000010"><a xlink:title=" ">
<path fill="none" stroke="#63b8ff" d="M285.94,-171.04C351.27,-162.37 527.52,-138.96 613.45,-127.55"/>
<polygon fill="#63b8ff" stroke="#63b8ff" points="613.75,-131.04 623.2,-126.26 612.83,-124.11 613.75,-131.04"/>
</a>
</g>
</g>
<!-- Node30 -->
<g id="Node000030" class="node">
<title>Node30</title>
<g id="a_Node000030"><a xlink:title=" ">
<polygon fill="#e0e0e0" stroke="#999999" points="891.61,-185 844.11,-185 844.11,-165.75 891.61,-165.75 891.61,-185"/>
<text text-anchor="middle" x="867.86" y="-171.5" font-family="Helvetica,sans-Serif" font-size="10.00">stdint.h</text>
</a>
</g>
</g>
<!-- Node29&#45;&gt;Node30 -->
<g id="edge53_Node000029_Node000030" class="edge">
<title>Node29&#45;&gt;Node30</title>
<g id="a_edge53_Node000029_Node000030"><a xlink:title=" ">
<path fill="none" stroke="#63b8ff" d="M867.86,-220.83C867.86,-214.32 867.86,-205.17 867.86,-196.87"/>
<polygon fill="#63b8ff" stroke="#63b8ff" points="871.36,-196.87 867.86,-186.87 864.36,-196.87 871.36,-196.87"/>
</a>
</g>
</g>
</g>
</svg>
