<?xml version="1.0" encoding="UTF-8" standalone="no"?>
<!DOCTYPE svg PUBLIC "-//W3C//DTD SVG 1.1//EN"
 "http://www.w3.org/Graphics/SVG/1.1/DTD/svg11.dtd">
<!-- Generated by graphviz version 12.2.0 (20241103.1931)
 -->
<!-- Title: iop/usb/camera/src/ps2cam.c Pages: 1 -->
<!--zoomable 315 -->

<svg id="main" version="1.1" xmlns="http://www.w3.org/2000/svg" xmlns:xlink="http://www.w3.org/1999/xlink" xml:space="preserve" onload="init(evt)">

<style type="text/css"><![CDATA[
.node, .edge {opacity: 0.7;}
.node.selected, .edge.selected {opacity: 1;}
.edge:hover path { stroke: red; }
.edge:hover polygon { stroke: red; fill: red; }
]]></style>

<defs>
  <circle id="rim" cx="0" cy="0" r="7"/>
  <circle id="rim2" cx="0" cy="0" r="3.5"/>
  <g id="zoomPlus">
    <use xlink:href="#rim" fill="#404040"><set attributeName="fill" to="#808080" begin="zoomplus.mouseover" end="zoomplus.mouseout"/></use>
    <path d="M-4,0h8M0,-4v8" fill="none" stroke="white" stroke-width="1.5" pointer-events="none"/>
  </g>
  <g id="zoomMin">
    <use xlink:href="#rim" fill="#404040"><set attributeName="fill" to="#808080" begin="zoomminus.mouseover" end="zoomminus.mouseout"/></use>
    <path d="M-4,0h8" fill="none" stroke="white" stroke-width="1.5" pointer-events="none"/>
  </g>
  <g id="arrowUp" transform="translate(30 24)">
    <use xlink:href="#rim"/>
    <path pointer-events="none" fill="none" stroke="white" stroke-width="1.5" d="M0,-3.0v7 M-2.5,-0.5L0,-3.0L2.5,-0.5"/>
  </g>
  <g id="arrowRight" transform="rotate(90) translate(36 -43)">
    <use xlink:href="#rim"/>
    <path pointer-events="none" fill="none" stroke="white" stroke-width="1.5" d="M0,-3.0v7 M-2.5,-0.5L0,-3.0L2.5,-0.5"/>
  </g>
  <g id="arrowDown" transform="rotate(180) translate(-30 -48)">
    <use xlink:href="#rim"/>
    <path pointer-events="none" fill="none" stroke="white" stroke-width="1.5" d="M0,-3.0v7 M-2.5,-0.5L0,-3.0L2.5,-0.5"/>
  </g>
  <g id="arrowLeft" transform="rotate(270) translate(-36 17)">
    <use xlink:href="#rim"/>
    <path pointer-events="none" fill="none" stroke="white" stroke-width="1.5" d="M0,-3.0v7 M-2.5,-0.5L0,-3.0L2.5,-0.5"/>
  </g>
  <g id="resetDef">
    <use xlink:href="#rim2" fill="#404040"><set attributeName="fill" to="#808080" begin="reset.mouseover" end="reset.mouseout"/></use>
  </g>
</defs>
<script type="application/ecmascript">
var viewWidth = 726;
var viewHeight = 315;
var sectionId = 'dynsection-0';
</script>
<script type="application/ecmascript" xlink:href="svg.min.js"/>
<svg id="graph" class="graph">
<g id="viewport">
<title>iop/usb/camera/src/ps2cam.c</title>
<!-- Node1 -->
<g id="Node000001" class="node">
<title>Node1</title>
<g id="a_Node000001"><a xlink:title=" ">
<polygon fill="#999999" stroke="#666666" points="365.62,-306.75 266.38,-306.75 266.38,-276.25 365.62,-276.25 365.62,-306.75"/>
<text text-anchor="start" x="274.38" y="-293.25" font-family="Helvetica,sans-Serif" font-size="10.00">iop/usb/camera/src</text>
<text text-anchor="middle" x="316" y="-282" font-family="Helvetica,sans-Serif" font-size="10.00">/ps2cam.c</text>
</a>
</g>
</g>
<!-- Node2 -->
<g id="Node000002" class="node">
<title>Node2</title>
<g id="a_Node000002"><a xlink:href="stdio_8h.html" target="_top" xlink:title=" ">
<polygon fill="white" stroke="#666666" points="158.25,-185 113.75,-185 113.75,-165.75 158.25,-165.75 158.25,-185"/>
<text text-anchor="middle" x="136" y="-171.5" font-family="Helvetica,sans-Serif" font-size="10.00">stdio.h</text>
</a>
</g>
</g>
<!-- Node1&#45;&gt;Node2 -->
<g id="edge1_Node000001_Node000002" class="edge">
<title>Node1&#45;&gt;Node2</title>
<g id="a_edge1_Node000001_Node000002"><a xlink:title=" ">
<path fill="none" stroke="#63b8ff" d="M265.91,-284.25C215.28,-276.79 142.11,-262.45 125,-240.25 115.23,-227.58 119.71,-209.28 125.62,-195.51"/>
<polygon fill="#63b8ff" stroke="#63b8ff" points="128.73,-197.12 129.98,-186.6 122.44,-194.04 128.73,-197.12"/>
</a>
</g>
</g>
<!-- Node7 -->
<g id="Node000007" class="node">
<title>Node7</title>
<g id="a_Node000007"><a xlink:href="tamtypes_8h.html" target="_top" xlink:title=" ">
<polygon fill="white" stroke="#666666" points="85.62,-19.25 22.38,-19.25 22.38,0 85.62,0 85.62,-19.25"/>
<text text-anchor="middle" x="54" y="-5.75" font-family="Helvetica,sans-Serif" font-size="10.00">tamtypes.h</text>
</a>
</g>
</g>
<!-- Node1&#45;&gt;Node7 -->
<g id="edge14_Node000001_Node000007" class="edge">
<title>Node1&#45;&gt;Node7</title>
<g id="a_edge14_Node000001_Node000007"><a xlink:title=" ">
<path fill="none" stroke="#63b8ff" d="M265.93,-283.05C176.83,-268.38 0,-232.23 0,-176.38 0,-176.38 0,-176.38 0,-119.12 0,-89.51 5.4,-81.56 19,-55.25 24.01,-45.55 31.25,-35.88 37.85,-28.03"/>
<polygon fill="#63b8ff" stroke="#63b8ff" points="40.39,-30.44 44.38,-20.62 35.14,-25.81 40.39,-30.44"/>
</a>
</g>
</g>
<!-- Node8 -->
<g id="Node000008" class="node">
<title>Node8</title>
<g id="a_Node000008"><a xlink:href="sysclib_8h.html" target="_top" xlink:title=" ">
<polygon fill="white" stroke="#666666" points="95.75,-185 42.25,-185 42.25,-165.75 95.75,-165.75 95.75,-185"/>
<text text-anchor="middle" x="69" y="-171.5" font-family="Helvetica,sans-Serif" font-size="10.00">sysclib.h</text>
</a>
</g>
</g>
<!-- Node1&#45;&gt;Node8 -->
<g id="edge7_Node000001_Node000008" class="edge">
<title>Node1&#45;&gt;Node8</title>
<g id="a_edge7_Node000001_Node000008"><a xlink:title=" ">
<path fill="none" stroke="#63b8ff" d="M266.27,-287.6C223.04,-282.97 160.4,-271.03 115,-240.25 98.42,-229.01 85.74,-209.69 77.93,-195.23"/>
<polygon fill="#63b8ff" stroke="#63b8ff" points="81.25,-194.04 73.61,-186.69 75,-197.2 81.25,-194.04"/>
</a>
</g>
</g>
<!-- Node12 -->
<g id="Node000012" class="node">
<title>Node12</title>
<g id="a_Node000012"><a xlink:href="thbase_8h.html" target="_top" xlink:title=" ">
<polygon fill="white" stroke="#666666" points="448.38,-185 395.62,-185 395.62,-165.75 448.38,-165.75 448.38,-185"/>
<text text-anchor="middle" x="422" y="-171.5" font-family="Helvetica,sans-Serif" font-size="10.00">thbase.h</text>
</a>
</g>
</g>
<!-- Node1&#45;&gt;Node12 -->
<g id="edge15_Node000001_Node000012" class="edge">
<title>Node1&#45;&gt;Node12</title>
<g id="a_edge15_Node000001_Node000012"><a xlink:title=" ">
<path fill="none" stroke="#63b8ff" d="M362.68,-275.89C380.41,-268.06 399.17,-256.56 411,-240.25 420.11,-227.69 422.6,-210.12 422.95,-196.59"/>
<polygon fill="#63b8ff" stroke="#63b8ff" points="426.45,-196.61 422.81,-186.66 419.45,-196.71 426.45,-196.61"/>
</a>
</g>
</g>
<!-- Node13 -->
<g id="Node000013" class="node">
<title>Node13</title>
<g id="a_Node000013"><a xlink:title=" ">
<polygon fill="#e0e0e0" stroke="#999999" points="194.38,-240.25 141.62,-240.25 141.62,-221 194.38,-221 194.38,-240.25"/>
<text text-anchor="middle" x="168" y="-226.75" font-family="Helvetica,sans-Serif" font-size="10.00">sifcmd.h</text>
</a>
</g>
</g>
<!-- Node1&#45;&gt;Node13 -->
<g id="edge18_Node000001_Node000013" class="edge">
<title>Node1&#45;&gt;Node13</title>
<g id="a_edge18_Node000001_Node000013"><a xlink:title=" ">
<path fill="none" stroke="#63b8ff" d="M279.04,-275.8C255.2,-266.31 224.45,-254.08 201.35,-244.89"/>
<polygon fill="#63b8ff" stroke="#63b8ff" points="202.69,-241.66 192.1,-241.21 200.1,-248.16 202.69,-241.66"/>
</a>
</g>
</g>
<!-- Node14 -->
<g id="Node000014" class="node">
<title>Node14</title>
<g id="a_Node000014"><a xlink:title=" ">
<polygon fill="#e0e0e0" stroke="#999999" points="259.75,-240.25 212.25,-240.25 212.25,-221 259.75,-221 259.75,-240.25"/>
<text text-anchor="middle" x="236" y="-226.75" font-family="Helvetica,sans-Serif" font-size="10.00">sifrpc.h</text>
</a>
</g>
</g>
<!-- Node1&#45;&gt;Node14 -->
<g id="edge19_Node000001_Node000014" class="edge">
<title>Node1&#45;&gt;Node14</title>
<g id="a_edge19_Node000001_Node000014"><a xlink:title=" ">
<path fill="none" stroke="#63b8ff" d="M296.22,-275.95C284.4,-267.24 269.36,-256.18 257.28,-247.28"/>
<polygon fill="#63b8ff" stroke="#63b8ff" points="259.68,-244.71 249.55,-241.6 255.53,-250.34 259.68,-244.71"/>
</a>
</g>
</g>
<!-- Node15 -->
<g id="Node000015" class="node">
<title>Node15</title>
<g id="a_Node000015"><a xlink:href="loadcore_8h.html" target="_top" xlink:title=" ">
<polygon fill="white" stroke="#666666" points="527.12,-185 466.88,-185 466.88,-165.75 527.12,-165.75 527.12,-185"/>
<text text-anchor="middle" x="497" y="-171.5" font-family="Helvetica,sans-Serif" font-size="10.00">loadcore.h</text>
</a>
</g>
</g>
<!-- Node1&#45;&gt;Node15 -->
<g id="edge20_Node000001_Node000015" class="edge">
<title>Node1&#45;&gt;Node15</title>
<g id="a_edge20_Node000001_Node000015"><a xlink:title=" ">
<path fill="none" stroke="#63b8ff" d="M357.73,-275.84C379.84,-267.13 406.91,-254.92 429,-240.25 449.14,-226.87 468.92,-207.37 481.91,-193.44"/>
<polygon fill="#63b8ff" stroke="#63b8ff" points="484.23,-196.08 488.38,-186.33 479.06,-191.37 484.23,-196.08"/>
</a>
</g>
</g>
<!-- Node16 -->
<g id="Node000016" class="node">
<title>Node16</title>
<g id="a_Node000016"><a xlink:href="ioman_8h.html" target="_top" xlink:title=" ">
<polygon fill="white" stroke="#666666" points="632.88,-185 583.12,-185 583.12,-165.75 632.88,-165.75 632.88,-185"/>
<text text-anchor="middle" x="608" y="-171.5" font-family="Helvetica,sans-Serif" font-size="10.00">ioman.h</text>
</a>
</g>
</g>
<!-- Node1&#45;&gt;Node16 -->
<g id="edge23_Node000001_Node000016" class="edge">
<title>Node1&#45;&gt;Node16</title>
<g id="a_edge23_Node000001_Node000016"><a xlink:title=" ">
<path fill="none" stroke="#63b8ff" d="M365.84,-287.68C435.99,-282.69 558.91,-269.89 591,-240.25 603,-229.17 606.91,-210.67 608.02,-196.42"/>
<polygon fill="#63b8ff" stroke="#63b8ff" points="611.5,-196.92 608.35,-186.8 604.51,-196.68 611.5,-196.92"/>
</a>
</g>
</g>
<!-- Node21 -->
<g id="Node000021" class="node">
<title>Node21</title>
<g id="a_Node000021"><a xlink:href="usbd_8h.html" target="_top" xlink:title=" ">
<polygon fill="white" stroke="#666666" points="298.25,-185 253.75,-185 253.75,-165.75 298.25,-165.75 298.25,-185"/>
<text text-anchor="middle" x="276" y="-171.5" font-family="Helvetica,sans-Serif" font-size="10.00">usbd.h</text>
</a>
</g>
</g>
<!-- Node1&#45;&gt;Node21 -->
<g id="edge30_Node000001_Node000021" class="edge">
<title>Node1&#45;&gt;Node21</title>
<g id="a_edge30_Node000001_Node000021"><a xlink:title=" ">
<path fill="none" stroke="#63b8ff" d="M337.33,-275.85C354.8,-261.96 374.85,-240.39 363,-221 356.75,-210.78 330.95,-198.26 309.05,-189.09"/>
<polygon fill="#63b8ff" stroke="#63b8ff" points="310.38,-185.85 299.8,-185.32 307.74,-192.33 310.38,-185.85"/>
</a>
</g>
</g>
<!-- Node22 -->
<g id="Node000022" class="node">
<title>Node22</title>
<g id="a_Node000022"><a xlink:href="usbd__macro_8h.html" target="_top" xlink:title=" ">
<polygon fill="white" stroke="#666666" points="354.38,-240.25 277.62,-240.25 277.62,-221 354.38,-221 354.38,-240.25"/>
<text text-anchor="middle" x="316" y="-226.75" font-family="Helvetica,sans-Serif" font-size="10.00">usbd_macro.h</text>
</a>
</g>
</g>
<!-- Node1&#45;&gt;Node22 -->
<g id="edge33_Node000001_Node000022" class="edge">
<title>Node1&#45;&gt;Node22</title>
<g id="a_edge33_Node000001_Node000022"><a xlink:title=" ">
<path fill="none" stroke="#63b8ff" d="M316,-275.95C316,-268.71 316,-259.84 316,-251.94"/>
<polygon fill="#63b8ff" stroke="#63b8ff" points="319.5,-252.21 316,-242.21 312.5,-252.21 319.5,-252.21"/>
</a>
</g>
</g>
<!-- Node23 -->
<g id="Node000023" class="node">
<title>Node23</title>
<g id="a_Node000023"><a xlink:href="thsemap_8h.html" target="_top" xlink:title=" ">
<polygon fill="white" stroke="#666666" points="377.5,-185 316.5,-185 316.5,-165.75 377.5,-165.75 377.5,-185"/>
<text text-anchor="middle" x="347" y="-171.5" font-family="Helvetica,sans-Serif" font-size="10.00">thsemap.h</text>
</a>
</g>
</g>
<!-- Node1&#45;&gt;Node23 -->
<g id="edge35_Node000001_Node000023" class="edge">
<title>Node1&#45;&gt;Node23</title>
<g id="a_edge35_Node000001_Node000023"><a xlink:title=" ">
<path fill="none" stroke="#63b8ff" d="M355.03,-275.95C370.69,-267.95 387.11,-256.33 396,-240.25 405.87,-222.4 388.55,-204.13 371.84,-191.74"/>
<polygon fill="#63b8ff" stroke="#63b8ff" points="374.26,-189.15 364.05,-186.35 370.29,-194.91 374.26,-189.15"/>
</a>
</g>
</g>
<!-- Node24 -->
<g id="Node000024" class="node">
<title>Node24</title>
<g id="a_Node000024"><a xlink:href="sysmem_8h.html" target="_top" xlink:title=" ">
<polygon fill="white" stroke="#666666" points="236.12,-185 175.88,-185 175.88,-165.75 236.12,-165.75 236.12,-185"/>
<text text-anchor="middle" x="206" y="-171.5" font-family="Helvetica,sans-Serif" font-size="10.00">sysmem.h</text>
</a>
</g>
</g>
<!-- Node1&#45;&gt;Node24 -->
<g id="edge38_Node000001_Node000024" class="edge">
<title>Node1&#45;&gt;Node24</title>
<g id="a_edge38_Node000001_Node000024"><a xlink:title=" ">
<path fill="none" stroke="#63b8ff" d="M266.19,-283.66C217.74,-275.87 149.13,-261.41 133,-240.25 117.74,-220.24 145.16,-201.83 170.64,-189.97"/>
<polygon fill="#63b8ff" stroke="#63b8ff" points="171.8,-193.28 179.56,-186.06 168.99,-186.87 171.8,-193.28"/>
</a>
</g>
</g>
<!-- Node25 -->
<g id="Node000025" class="node">
<title>Node25</title>
<g id="a_Node000025"><a xlink:href="ps2cam_8h.html" target="_top" xlink:title=" ">
<polygon fill="white" stroke="#666666" points="582,-240.25 524,-240.25 524,-221 582,-221 582,-240.25"/>
<text text-anchor="middle" x="553" y="-226.75" font-family="Helvetica,sans-Serif" font-size="10.00">ps2cam.h</text>
</a>
</g>
</g>
<!-- Node1&#45;&gt;Node25 -->
<g id="edge42_Node000001_Node000025" class="edge">
<title>Node1&#45;&gt;Node25</title>
<g id="a_edge42_Node000001_Node000025"><a xlink:title=" ">
<path fill="none" stroke="#63b8ff" d="M365.97,-278.09C409.57,-267.25 472.04,-251.74 512.56,-241.67"/>
<polygon fill="#63b8ff" stroke="#63b8ff" points="513.3,-245.09 522.16,-239.29 511.61,-238.3 513.3,-245.09"/>
</a>
</g>
</g>
<!-- Node3 -->
<g id="Node000003" class="node">
<title>Node3</title>
<g id="a_Node000003"><a xlink:title=" ">
<polygon fill="#e0e0e0" stroke="#999999" points="189.25,-129.75 138.75,-129.75 138.75,-110.5 189.25,-110.5 189.25,-129.75"/>
<text text-anchor="middle" x="164" y="-116.25" font-family="Helvetica,sans-Serif" font-size="10.00">stdarg.h</text>
</a>
</g>
</g>
<!-- Node2&#45;&gt;Node3 -->
<g id="edge2_Node000002_Node000003" class="edge">
<title>Node2&#45;&gt;Node3</title>
<g id="a_edge2_Node000002_Node000003"><a xlink:title=" ">
<path fill="none" stroke="#63b8ff" d="M140.62,-165.58C144.25,-158.69 149.43,-148.84 153.99,-140.16"/>
<polygon fill="#63b8ff" stroke="#63b8ff" points="157.02,-141.93 158.57,-131.45 150.82,-138.67 157.02,-141.93"/>
</a>
</g>
</g>
<!-- Node4 -->
<g id="Node000004" class="node">
<title>Node4</title>
<g id="a_Node000004"><a xlink:href="irx_8h.html" target="_top" xlink:title=" ">
<polygon fill="white" stroke="#666666" points="292.62,-129.75 259.38,-129.75 259.38,-110.5 292.62,-110.5 292.62,-129.75"/>
<text text-anchor="middle" x="276" y="-116.25" font-family="Helvetica,sans-Serif" font-size="10.00">irx.h</text>
</a>
</g>
</g>
<!-- Node2&#45;&gt;Node4 -->
<g id="edge3_Node000002_Node000004" class="edge">
<title>Node2&#45;&gt;Node4</title>
<g id="a_edge3_Node000002_Node000004"><a xlink:title=" ">
<path fill="none" stroke="#63b8ff" d="M158.49,-165.82C183,-156.5 222.22,-141.58 248.53,-131.57"/>
<polygon fill="#63b8ff" stroke="#63b8ff" points="249.76,-134.85 257.86,-128.03 247.27,-128.31 249.76,-134.85"/>
</a>
</g>
</g>
<!-- Node5 -->
<g id="Node000005" class="node">
<title>Node5</title>
<g id="a_Node000005"><a xlink:href="iop_2kernel_2include_2types_8h_source.html" target="_top" xlink:title=" ">
<polygon fill="white" stroke="#666666" points="225.38,-74.5 178.62,-74.5 178.62,-55.25 225.38,-55.25 225.38,-74.5"/>
<text text-anchor="middle" x="202" y="-61" font-family="Helvetica,sans-Serif" font-size="10.00">types.h</text>
</a>
</g>
</g>
<!-- Node4&#45;&gt;Node5 -->
<g id="edge4_Node000004_Node000005" class="edge">
<title>Node4&#45;&gt;Node5</title>
<g id="a_edge4_Node000004_Node000005"><a xlink:title=" ">
<path fill="none" stroke="#63b8ff" d="M263.45,-110.09C252.54,-102.24 236.5,-90.7 223.54,-81.37"/>
<polygon fill="#63b8ff" stroke="#63b8ff" points="225.76,-78.66 215.6,-75.66 221.67,-84.34 225.76,-78.66"/>
</a>
</g>
</g>
<!-- Node6 -->
<g id="Node000006" class="node">
<title>Node6</title>
<g id="a_Node000006"><a xlink:title=" ">
<polygon fill="#e0e0e0" stroke="#999999" points="227.25,-19.25 176.75,-19.25 176.75,0 227.25,0 227.25,-19.25"/>
<text text-anchor="middle" x="202" y="-5.75" font-family="Helvetica,sans-Serif" font-size="10.00">stddef.h</text>
</a>
</g>
</g>
<!-- Node5&#45;&gt;Node6 -->
<g id="edge5_Node000005_Node000006" class="edge">
<title>Node5&#45;&gt;Node6</title>
<g id="a_edge5_Node000005_Node000006"><a xlink:title=" ">
<path fill="none" stroke="#63b8ff" d="M202,-55.08C202,-48.57 202,-39.42 202,-31.12"/>
<polygon fill="#63b8ff" stroke="#63b8ff" points="205.5,-31.12 202,-21.12 198.5,-31.12 205.5,-31.12"/>
</a>
</g>
</g>
<!-- Node5&#45;&gt;Node7 -->
<g id="edge6_Node000005_Node000007" class="edge">
<title>Node5&#45;&gt;Node7</title>
<g id="a_edge6_Node000005_Node000007"><a xlink:title=" ">
<path fill="none" stroke="#63b8ff" d="M178.22,-55.32C154.38,-46.74 117.36,-33.42 89.94,-23.56"/>
<polygon fill="#63b8ff" stroke="#63b8ff" points="91.22,-20.3 80.63,-20.21 88.85,-26.89 91.22,-20.3"/>
</a>
</g>
</g>
<!-- Node8&#45;&gt;Node3 -->
<g id="edge10_Node000008_Node000003" class="edge">
<title>Node8&#45;&gt;Node3</title>
<g id="a_edge10_Node000008_Node000003"><a xlink:title=" ">
<path fill="none" stroke="#63b8ff" d="M85.12,-165.34C99.58,-157.23 121.08,-145.18 137.98,-135.71"/>
<polygon fill="#63b8ff" stroke="#63b8ff" points="139.47,-138.89 146.49,-130.94 136.05,-132.78 139.47,-138.89"/>
</a>
</g>
</g>
<!-- Node8&#45;&gt;Node4 -->
<g id="edge9_Node000008_Node000004" class="edge">
<title>Node8&#45;&gt;Node4</title>
<g id="a_edge9_Node000008_Node000004"><a xlink:title=" ">
<path fill="none" stroke="#63b8ff" d="M96.06,-167.41C135.38,-157.3 207.94,-138.63 247.85,-128.37"/>
<polygon fill="#63b8ff" stroke="#63b8ff" points="248.61,-131.79 257.42,-125.9 246.86,-125.01 248.61,-131.79"/>
</a>
</g>
</g>
<!-- Node9 -->
<g id="Node000009" class="node">
<title>Node9</title>
<g id="a_Node000009"><a xlink:title=" ">
<polygon fill="#e0e0e0" stroke="#999999" points="407.38,-129.75 360.62,-129.75 360.62,-110.5 407.38,-110.5 407.38,-129.75"/>
<text text-anchor="middle" x="384" y="-116.25" font-family="Helvetica,sans-Serif" font-size="10.00">types.h</text>
</a>
</g>
</g>
<!-- Node8&#45;&gt;Node9 -->
<g id="edge8_Node000008_Node000009" class="edge">
<title>Node8&#45;&gt;Node9</title>
<g id="a_edge8_Node000008_Node000009"><a xlink:title=" ">
<path fill="none" stroke="#63b8ff" d="M96.08,-167.65C99.08,-166.98 102.1,-166.33 105,-165.75 192.43,-148.31 296.35,-133.14 349.27,-125.81"/>
<polygon fill="#63b8ff" stroke="#63b8ff" points="349.45,-129.32 358.88,-124.49 348.49,-122.38 349.45,-129.32"/>
</a>
</g>
</g>
<!-- Node10 -->
<g id="Node000010" class="node">
<title>Node10</title>
<g id="a_Node000010"><a xlink:href="setjmp_8h.html" target="_top" xlink:title=" ">
<polygon fill="white" stroke="#666666" points="80.38,-74.5 27.62,-74.5 27.62,-55.25 80.38,-55.25 80.38,-74.5"/>
<text text-anchor="middle" x="54" y="-61" font-family="Helvetica,sans-Serif" font-size="10.00">setjmp.h</text>
</a>
</g>
</g>
<!-- Node8&#45;&gt;Node10 -->
<g id="edge11_Node000008_Node000010" class="edge">
<title>Node8&#45;&gt;Node10</title>
<g id="a_edge11_Node000008_Node000010"><a xlink:title=" ">
<path fill="none" stroke="#63b8ff" d="M67.77,-165.5C65.39,-148.25 60.08,-109.83 56.79,-86.06"/>
<polygon fill="#63b8ff" stroke="#63b8ff" points="60.29,-85.8 55.45,-76.38 53.35,-86.76 60.29,-85.8"/>
</a>
</g>
</g>
<!-- Node11 -->
<g id="Node000011" class="node">
<title>Node11</title>
<g id="a_Node000011"><a xlink:href="ctype_8h.html" target="_top" xlink:title=" ">
<polygon fill="white" stroke="#666666" points="120.38,-129.75 73.62,-129.75 73.62,-110.5 120.38,-110.5 120.38,-129.75"/>
<text text-anchor="middle" x="97" y="-116.25" font-family="Helvetica,sans-Serif" font-size="10.00">ctype.h</text>
</a>
</g>
</g>
<!-- Node8&#45;&gt;Node11 -->
<g id="edge13_Node000008_Node000011" class="edge">
<title>Node8&#45;&gt;Node11</title>
<g id="a_edge13_Node000008_Node000011"><a xlink:title=" ">
<path fill="none" stroke="#63b8ff" d="M73.62,-165.58C77.25,-158.69 82.43,-148.84 86.99,-140.16"/>
<polygon fill="#63b8ff" stroke="#63b8ff" points="90.02,-141.93 91.57,-131.45 83.82,-138.67 90.02,-141.93"/>
</a>
</g>
</g>
<!-- Node10&#45;&gt;Node7 -->
<g id="edge12_Node000010_Node000007" class="edge">
<title>Node10&#45;&gt;Node7</title>
<g id="a_edge12_Node000010_Node000007"><a xlink:title=" ">
<path fill="none" stroke="#63b8ff" d="M54,-55.08C54,-48.57 54,-39.42 54,-31.12"/>
<polygon fill="#63b8ff" stroke="#63b8ff" points="57.5,-31.12 54,-21.12 50.5,-31.12 57.5,-31.12"/>
</a>
</g>
</g>
<!-- Node12&#45;&gt;Node4 -->
<g id="edge17_Node000012_Node000004" class="edge">
<title>Node12&#45;&gt;Node4</title>
<g id="a_edge17_Node000012_Node000004"><a xlink:title=" ">
<path fill="none" stroke="#63b8ff" d="M397.23,-165.34C371.32,-155.89 330.73,-141.09 303.76,-131.25"/>
<polygon fill="#63b8ff" stroke="#63b8ff" points="305.13,-128.02 294.53,-127.88 302.73,-134.6 305.13,-128.02"/>
</a>
</g>
</g>
<!-- Node12&#45;&gt;Node9 -->
<g id="edge16_Node000012_Node000009" class="edge">
<title>Node12&#45;&gt;Node9</title>
<g id="a_edge16_Node000012_Node000009"><a xlink:title=" ">
<path fill="none" stroke="#63b8ff" d="M415.73,-165.58C410.64,-158.46 403.3,-148.18 396.97,-139.3"/>
<polygon fill="#63b8ff" stroke="#63b8ff" points="399.95,-137.45 391.29,-131.34 394.25,-141.51 399.95,-137.45"/>
</a>
</g>
</g>
<!-- Node15&#45;&gt;Node4 -->
<g id="edge22_Node000015_Node000004" class="edge">
<title>Node15&#45;&gt;Node4</title>
<g id="a_edge22_Node000015_Node000004"><a xlink:title=" ">
<path fill="none" stroke="#63b8ff" d="M466.73,-167.08C423.71,-156.72 345.48,-137.87 303.83,-127.83"/>
<polygon fill="#63b8ff" stroke="#63b8ff" points="304.89,-124.49 294.35,-125.55 303.25,-131.29 304.89,-124.49"/>
</a>
</g>
</g>
<!-- Node15&#45;&gt;Node9 -->
<g id="edge21_Node000015_Node000009" class="edge">
<title>Node15&#45;&gt;Node9</title>
<g id="a_edge21_Node000015_Node000009"><a xlink:title=" ">
<path fill="none" stroke="#63b8ff" d="M477.83,-165.34C460.22,-157.04 433.84,-144.61 413.54,-135.04"/>
<polygon fill="#63b8ff" stroke="#63b8ff" points="415.17,-131.94 404.63,-130.85 412.19,-138.28 415.17,-131.94"/>
</a>
</g>
</g>
<!-- Node16&#45;&gt;Node4 -->
<g id="edge26_Node000016_Node000004" class="edge">
<title>Node16&#45;&gt;Node4</title>
<g id="a_edge26_Node000016_Node000004"><a xlink:title=" ">
<path fill="none" stroke="#63b8ff" d="M582.77,-170.33C521.93,-160.57 367.45,-135.79 303.93,-125.6"/>
<polygon fill="#63b8ff" stroke="#63b8ff" points="304.76,-122.19 294.33,-124.06 303.65,-129.1 304.76,-122.19"/>
</a>
</g>
</g>
<!-- Node16&#45;&gt;Node9 -->
<g id="edge25_Node000016_Node000009" class="edge">
<title>Node16&#45;&gt;Node9</title>
<g id="a_edge25_Node000016_Node000009"><a xlink:title=" ">
<path fill="none" stroke="#63b8ff" d="M582.74,-168.37C542.64,-158.84 464.31,-140.22 418.88,-129.42"/>
<polygon fill="#63b8ff" stroke="#63b8ff" points="419.82,-126.04 409.28,-127.14 418.2,-132.85 419.82,-126.04"/>
</a>
</g>
</g>
<!-- Node17 -->
<g id="Node000017" class="node">
<title>Node17</title>
<g id="a_Node000017"><a xlink:href="errno_8h.html" target="_top" xlink:title=" ">
<polygon fill="white" stroke="#666666" points="591.62,-129.75 546.38,-129.75 546.38,-110.5 591.62,-110.5 591.62,-129.75"/>
<text text-anchor="middle" x="569" y="-116.25" font-family="Helvetica,sans-Serif" font-size="10.00">errno.h</text>
</a>
</g>
</g>
<!-- Node16&#45;&gt;Node17 -->
<g id="edge24_Node000016_Node000017" class="edge">
<title>Node16&#45;&gt;Node17</title>
<g id="a_edge24_Node000016_Node000017"><a xlink:title=" ">
<path fill="none" stroke="#63b8ff" d="M601.56,-165.58C596.34,-158.46 588.81,-148.18 582.31,-139.3"/>
<polygon fill="#63b8ff" stroke="#63b8ff" points="585.21,-137.33 576.47,-131.33 579.56,-141.47 585.21,-137.33"/>
</a>
</g>
</g>
<!-- Node18 -->
<g id="Node000018" class="node">
<title>Node18</title>
<g id="a_Node000018"><a xlink:href="io__common_8h.html" target="_top" xlink:title=" ">
<polygon fill="white" stroke="#666666" points="683.88,-129.75 610.12,-129.75 610.12,-110.5 683.88,-110.5 683.88,-129.75"/>
<text text-anchor="middle" x="647" y="-116.25" font-family="Helvetica,sans-Serif" font-size="10.00">io_common.h</text>
</a>
</g>
</g>
<!-- Node16&#45;&gt;Node18 -->
<g id="edge27_Node000016_Node000018" class="edge">
<title>Node16&#45;&gt;Node18</title>
<g id="a_edge27_Node000016_Node000018"><a xlink:title=" ">
<path fill="none" stroke="#63b8ff" d="M614.44,-165.58C619.66,-158.46 627.19,-148.18 633.69,-139.3"/>
<polygon fill="#63b8ff" stroke="#63b8ff" points="636.44,-141.47 639.53,-131.33 630.79,-137.33 636.44,-141.47"/>
</a>
</g>
</g>
<!-- Node19 -->
<g id="Node000019" class="node">
<title>Node19</title>
<g id="a_Node000019"><a xlink:href="fcntl_8h_source.html" target="_top" xlink:title=" ">
<polygon fill="white" stroke="#666666" points="718.12,-74.5 657.88,-74.5 657.88,-55.25 718.12,-55.25 718.12,-74.5"/>
<text text-anchor="middle" x="688" y="-61" font-family="Helvetica,sans-Serif" font-size="10.00">sys/fcntl.h</text>
</a>
</g>
</g>
<!-- Node18&#45;&gt;Node19 -->
<g id="edge28_Node000018_Node000019" class="edge">
<title>Node18&#45;&gt;Node19</title>
<g id="a_edge28_Node000018_Node000019"><a xlink:title=" ">
<path fill="none" stroke="#63b8ff" d="M653.77,-110.33C659.32,-103.13 667.34,-92.71 674.23,-83.76"/>
<polygon fill="#63b8ff" stroke="#63b8ff" points="676.83,-86.12 680.16,-76.06 671.29,-81.85 676.83,-86.12"/>
</a>
</g>
</g>
<!-- Node20 -->
<g id="Node000020" class="node">
<title>Node20</title>
<g id="a_Node000020"><a xlink:href="unistd_8h_source.html" target="_top" xlink:title=" ">
<polygon fill="white" stroke="#666666" points="639.88,-74.5 572.12,-74.5 572.12,-55.25 639.88,-55.25 639.88,-74.5"/>
<text text-anchor="middle" x="606" y="-61" font-family="Helvetica,sans-Serif" font-size="10.00">sys/unistd.h</text>
</a>
</g>
</g>
<!-- Node18&#45;&gt;Node20 -->
<g id="edge29_Node000018_Node000020" class="edge">
<title>Node18&#45;&gt;Node20</title>
<g id="a_edge29_Node000018_Node000020"><a xlink:title=" ">
<path fill="none" stroke="#63b8ff" d="M640.23,-110.33C634.68,-103.13 626.66,-92.71 619.77,-83.76"/>
<polygon fill="#63b8ff" stroke="#63b8ff" points="622.71,-81.85 613.84,-76.06 617.17,-86.12 622.71,-81.85"/>
</a>
</g>
</g>
<!-- Node21&#45;&gt;Node4 -->
<g id="edge32_Node000021_Node000004" class="edge">
<title>Node21&#45;&gt;Node4</title>
<g id="a_edge32_Node000021_Node000004"><a xlink:title=" ">
<path fill="none" stroke="#63b8ff" d="M276,-165.58C276,-159.07 276,-149.92 276,-141.62"/>
<polygon fill="#63b8ff" stroke="#63b8ff" points="279.5,-141.62 276,-131.62 272.5,-141.62 279.5,-141.62"/>
</a>
</g>
</g>
<!-- Node21&#45;&gt;Node9 -->
<g id="edge31_Node000021_Node000009" class="edge">
<title>Node21&#45;&gt;Node9</title>
<g id="a_edge31_Node000021_Node000009"><a xlink:title=" ">
<path fill="none" stroke="#63b8ff" d="M294.32,-165.34C311.08,-157.08 336.13,-144.73 355.5,-135.18"/>
<polygon fill="#63b8ff" stroke="#63b8ff" points="356.81,-138.43 364.23,-130.87 353.72,-132.15 356.81,-138.43"/>
</a>
</g>
</g>
<!-- Node22&#45;&gt;Node21 -->
<g id="edge34_Node000022_Node000021" class="edge">
<title>Node22&#45;&gt;Node21</title>
<g id="a_edge34_Node000022_Node000021"><a xlink:title=" ">
<path fill="none" stroke="#63b8ff" d="M309.39,-220.83C304.04,-213.71 296.32,-203.43 289.65,-194.55"/>
<polygon fill="#63b8ff" stroke="#63b8ff" points="292.46,-192.46 283.66,-186.57 286.87,-196.67 292.46,-192.46"/>
</a>
</g>
</g>
<!-- Node23&#45;&gt;Node4 -->
<g id="edge37_Node000023_Node000004" class="edge">
<title>Node23&#45;&gt;Node4</title>
<g id="a_edge37_Node000023_Node000004"><a xlink:title=" ">
<path fill="none" stroke="#63b8ff" d="M334.96,-165.34C324.59,-157.57 309.4,-146.17 297.03,-136.9"/>
<polygon fill="#63b8ff" stroke="#63b8ff" points="299.18,-134.13 289.08,-130.93 294.98,-139.73 299.18,-134.13"/>
</a>
</g>
</g>
<!-- Node23&#45;&gt;Node9 -->
<g id="edge36_Node000023_Node000009" class="edge">
<title>Node23&#45;&gt;Node9</title>
<g id="a_edge36_Node000023_Node000009"><a xlink:title=" ">
<path fill="none" stroke="#63b8ff" d="M353.11,-165.58C358.06,-158.46 365.2,-148.18 371.37,-139.3"/>
<polygon fill="#63b8ff" stroke="#63b8ff" points="374.06,-141.56 376.89,-131.35 368.31,-137.57 374.06,-141.56"/>
</a>
</g>
</g>
<!-- Node24&#45;&gt;Node3 -->
<g id="edge41_Node000024_Node000003" class="edge">
<title>Node24&#45;&gt;Node3</title>
<g id="a_edge41_Node000024_Node000003"><a xlink:title=" ">
<path fill="none" stroke="#63b8ff" d="M199.06,-165.58C193.38,-158.38 185.16,-147.96 178.11,-139.01"/>
<polygon fill="#63b8ff" stroke="#63b8ff" points="180.96,-136.98 172.02,-131.3 175.47,-141.32 180.96,-136.98"/>
</a>
</g>
</g>
<!-- Node24&#45;&gt;Node4 -->
<g id="edge40_Node000024_Node000004" class="edge">
<title>Node24&#45;&gt;Node4</title>
<g id="a_edge40_Node000024_Node000004"><a xlink:title=" ">
<path fill="none" stroke="#63b8ff" d="M217.87,-165.34C228.09,-157.57 243.07,-146.17 255.26,-136.9"/>
<polygon fill="#63b8ff" stroke="#63b8ff" points="257.26,-139.78 263.1,-130.94 253.02,-134.21 257.26,-139.78"/>
</a>
</g>
</g>
<!-- Node24&#45;&gt;Node9 -->
<g id="edge39_Node000024_Node000009" class="edge">
<title>Node24&#45;&gt;Node9</title>
<g id="a_edge39_Node000024_Node000009"><a xlink:title=" ">
<path fill="none" stroke="#63b8ff" d="M236.2,-165.34C267.52,-155.97 316.42,-141.34 349.31,-131.5"/>
<polygon fill="#63b8ff" stroke="#63b8ff" points="350.19,-134.89 358.77,-128.67 348.19,-128.19 350.19,-134.89"/>
</a>
</g>
</g>
<!-- Node25&#45;&gt;Node9 -->
<g id="edge43_Node000025_Node000009" class="edge">
<title>Node25&#45;&gt;Node9</title>
<g id="a_edge43_Node000025_Node000009"><a xlink:title=" ">
<path fill="none" stroke="#63b8ff" d="M553.22,-220.9C553.07,-207.25 550.74,-180.87 536,-165.75 505.26,-134.22 453.51,-124.67 419.06,-121.95"/>
<polygon fill="#63b8ff" stroke="#63b8ff" points="419.36,-118.46 409.17,-121.33 418.93,-125.44 419.36,-118.46"/>
</a>
</g>
</g>
</g>
</svg>

<g id="navigator" transform="translate(0 0)" fill="#404254">
  <rect fill="#f2f5e9" fill-opacity="0.5" stroke="#606060" stroke-width=".5" x="0" y="0" width="60" height="60"/>
  <use id="zoomplus" xlink:href="#zoomPlus" x="17" y="9" onmousedown="handleZoom(evt,'in')"/>
  <use id="zoomminus" xlink:href="#zoomMin" x="42" y="9" onmousedown="handleZoom(evt,'out')"/>
  <use id="reset" xlink:href="#resetDef" x="30" y="36" onmousedown="handleReset()"/>
   <use id="arrowup" xlink:href="#arrowUp" x="0" y="0" onmousedown="handlePan(0,-1)"/>
  <use id="arrowright" xlink:href="#arrowRight" x="0" y="0" onmousedown="handlePan(1,0)"/>
  <use id="arrowdown" xlink:href="#arrowDown" x="0" y="0" onmousedown="handlePan(0,1)"/>
  <use id="arrowleft" xlink:href="#arrowLeft" x="0" y="0" onmousedown="handlePan(-1,0)"/>
</g>
<svg viewBox="0 0 15 15" width="100%" height="30px" preserveAspectRatio="xMaxYMin meet">
 <g id="arrow_out" transform="scale(0.3 0.3)">
  <a xlink:href="ps2cam_8c__incl_org.svg" target="_base">
   <rect id="button" ry="5" rx="5" y="6" x="6" height="38" width="38"
        fill="#f2f5e9" fill-opacity="0.5" stroke="#606060" stroke-width="1.0"/>
   <path id="arrow"
     d="M 11.500037,31.436501 C 11.940474,20.09759 22.043105,11.32322 32.158766,21.979434 L 37.068811,17.246167 C 37.068811,17.246167 37.088388,32 37.088388,32 L 22.160133,31.978069 C 22.160133,31.978069 26.997745,27.140456 26.997745,27.140456 C 18.528582,18.264221 13.291696,25.230495 11.500037,31.436501 z"
     style="fill:#404040;"/>
  </a>
 </g>
</svg>

<style type='text/css'>
<![CDATA[
[data-mouse-over-selected='false'] { opacity: 0.7; }
[data-mouse-over-selected='true']  { opacity: 1.0; }
]]>
</style>
<script type="application/ecmascript"><![CDATA[
document.addEventListener('DOMContentLoaded', (event) => {
  highlightEdges();
  highlightAdjacentNodes();
});
]]></script>
</svg>
