<?xml version="1.0" encoding="UTF-8" standalone="no"?>
<!DOCTYPE svg PUBLIC "-//W3C//DTD SVG 1.1//EN"
 "http://www.w3.org/Graphics/SVG/1.1/DTD/svg11.dtd">
<!-- Generated by graphviz version 12.2.0 (20241103.1931)
 -->
<!-- Title: iop/usb/keyboard/src/ps2kbd.c Pages: 1 -->
<!--zoomable 315 -->

<svg id="main" version="1.1" xmlns="http://www.w3.org/2000/svg" xmlns:xlink="http://www.w3.org/1999/xlink" xml:space="preserve" onload="init(evt)">

<style type="text/css"><![CDATA[
.node, .edge {opacity: 0.7;}
.node.selected, .edge.selected {opacity: 1;}
.edge:hover path { stroke: red; }
.edge:hover polygon { stroke: red; fill: red; }
]]></style>

<defs>
  <circle id="rim" cx="0" cy="0" r="7"/>
  <circle id="rim2" cx="0" cy="0" r="3.5"/>
  <g id="zoomPlus">
    <use xlink:href="#rim" fill="#404040"><set attributeName="fill" to="#808080" begin="zoomplus.mouseover" end="zoomplus.mouseout"/></use>
    <path d="M-4,0h8M0,-4v8" fill="none" stroke="white" stroke-width="1.5" pointer-events="none"/>
  </g>
  <g id="zoomMin">
    <use xlink:href="#rim" fill="#404040"><set attributeName="fill" to="#808080" begin="zoomminus.mouseover" end="zoomminus.mouseout"/></use>
    <path d="M-4,0h8" fill="none" stroke="white" stroke-width="1.5" pointer-events="none"/>
  </g>
  <g id="arrowUp" transform="translate(30 24)">
    <use xlink:href="#rim"/>
    <path pointer-events="none" fill="none" stroke="white" stroke-width="1.5" d="M0,-3.0v7 M-2.5,-0.5L0,-3.0L2.5,-0.5"/>
  </g>
  <g id="arrowRight" transform="rotate(90) translate(36 -43)">
    <use xlink:href="#rim"/>
    <path pointer-events="none" fill="none" stroke="white" stroke-width="1.5" d="M0,-3.0v7 M-2.5,-0.5L0,-3.0L2.5,-0.5"/>
  </g>
  <g id="arrowDown" transform="rotate(180) translate(-30 -48)">
    <use xlink:href="#rim"/>
    <path pointer-events="none" fill="none" stroke="white" stroke-width="1.5" d="M0,-3.0v7 M-2.5,-0.5L0,-3.0L2.5,-0.5"/>
  </g>
  <g id="arrowLeft" transform="rotate(270) translate(-36 17)">
    <use xlink:href="#rim"/>
    <path pointer-events="none" fill="none" stroke="white" stroke-width="1.5" d="M0,-3.0v7 M-2.5,-0.5L0,-3.0L2.5,-0.5"/>
  </g>
  <g id="resetDef">
    <use xlink:href="#rim2" fill="#404040"><set attributeName="fill" to="#808080" begin="reset.mouseover" end="reset.mouseout"/></use>
  </g>
</defs>
<script type="application/ecmascript">
var viewWidth = 922;
var viewHeight = 315;
var sectionId = 'dynsection-0';
</script>
<script type="application/ecmascript" xlink:href="svg.min.js"/>
<svg id="graph" class="graph">
<g id="viewport">
<title>iop/usb/keyboard/src/ps2kbd.c</title>
<!-- Node1 -->
<g id="Node000001" class="node">
<title>Node1</title>
<g id="a_Node000001"><a xlink:title=" ">
<polygon fill="#999999" stroke="#666666" points="494,-306.75 388,-306.75 388,-276.25 494,-276.25 494,-306.75"/>
<text text-anchor="start" x="396" y="-293.25" font-family="Helvetica,sans-Serif" font-size="10.00">iop/usb/keyboard/src</text>
<text text-anchor="middle" x="441" y="-282" font-family="Helvetica,sans-Serif" font-size="10.00">/ps2kbd.c</text>
</a>
</g>
</g>
<!-- Node2 -->
<g id="Node000002" class="node">
<title>Node2</title>
<g id="a_Node000002"><a xlink:title=" ">
<polygon fill="#e0e0e0" stroke="#999999" points="226.38,-129.75 179.63,-129.75 179.63,-110.5 226.38,-110.5 226.38,-129.75"/>
<text text-anchor="middle" x="203" y="-116.25" font-family="Helvetica,sans-Serif" font-size="10.00">types.h</text>
</a>
</g>
</g>
<!-- Node1&#45;&gt;Node2 -->
<g id="edge1_Node000001_Node000002" class="edge">
<title>Node1&#45;&gt;Node2</title>
<g id="a_edge1_Node000001_Node000002"><a xlink:title=" ">
<path fill="none" stroke="#63b8ff" d="M387.65,-286.22C281.3,-276.39 49.44,-248.04 7,-185 -31.93,-127.16 101.88,-120.36 168.08,-120.42"/>
<polygon fill="#63b8ff" stroke="#63b8ff" points="167.69,-123.91 177.71,-120.48 167.73,-116.91 167.69,-123.91"/>
</a>
</g>
</g>
<!-- Node3 -->
<g id="Node000003" class="node">
<title>Node3</title>
<g id="a_Node000003"><a xlink:href="ioman_8h.html" target="_top" xlink:title=" ">
<polygon fill="white" stroke="#666666" points="537.88,-240.25 488.13,-240.25 488.13,-221 537.88,-221 537.88,-240.25"/>
<text text-anchor="middle" x="513" y="-226.75" font-family="Helvetica,sans-Serif" font-size="10.00">ioman.h</text>
</a>
</g>
</g>
<!-- Node1&#45;&gt;Node3 -->
<g id="edge2_Node000001_Node000003" class="edge">
<title>Node1&#45;&gt;Node3</title>
<g id="a_edge2_Node000001_Node000003"><a xlink:title=" ">
<path fill="none" stroke="#63b8ff" d="M458.8,-275.95C469.24,-267.41 482.44,-256.62 493.2,-247.81"/>
<polygon fill="#63b8ff" stroke="#63b8ff" points="495.21,-250.7 500.73,-241.66 490.77,-245.28 495.21,-250.7"/>
</a>
</g>
</g>
<!-- Node4 -->
<g id="Node000004" class="node">
<title>Node4</title>
<g id="a_Node000004"><a xlink:href="errno_8h.html" target="_top" xlink:title=" ">
<polygon fill="white" stroke="#666666" points="515.63,-185 470.38,-185 470.38,-165.75 515.63,-165.75 515.63,-185"/>
<text text-anchor="middle" x="493" y="-171.5" font-family="Helvetica,sans-Serif" font-size="10.00">errno.h</text>
</a>
</g>
</g>
<!-- Node1&#45;&gt;Node4 -->
<g id="edge27_Node000001_Node000004" class="edge">
<title>Node1&#45;&gt;Node4</title>
<g id="a_edge27_Node000001_Node000004"><a xlink:title=" ">
<path fill="none" stroke="#63b8ff" d="M447.59,-276.05C456.85,-255.72 473.75,-218.63 484.12,-195.87"/>
<polygon fill="#63b8ff" stroke="#63b8ff" points="487.28,-197.38 488.24,-186.83 480.91,-194.47 487.28,-197.38"/>
</a>
</g>
</g>
<!-- Node12 -->
<g id="Node000012" class="node">
<title>Node12</title>
<g id="a_Node000012"><a xlink:href="loadcore_8h.html" target="_top" xlink:title=" ">
<polygon fill="white" stroke="#666666" points="312.13,-185 251.88,-185 251.88,-165.75 312.13,-165.75 312.13,-185"/>
<text text-anchor="middle" x="282" y="-171.5" font-family="Helvetica,sans-Serif" font-size="10.00">loadcore.h</text>
</a>
</g>
</g>
<!-- Node1&#45;&gt;Node12 -->
<g id="edge12_Node000001_Node000012" class="edge">
<title>Node1&#45;&gt;Node12</title>
<g id="a_edge12_Node000001_Node000012"><a xlink:title=" ">
<path fill="none" stroke="#63b8ff" d="M387.87,-281.88C343.44,-273.47 285.14,-259.17 271,-240.25 261.43,-227.43 265.88,-209.15 271.73,-195.42"/>
<polygon fill="#63b8ff" stroke="#63b8ff" points="274.82,-197.07 276.04,-186.55 268.53,-194.02 274.82,-197.07"/>
</a>
</g>
</g>
<!-- Node13 -->
<g id="Node000013" class="node">
<title>Node13</title>
<g id="a_Node000013"><a xlink:href="stdio_8h.html" target="_top" xlink:title=" ">
<polygon fill="white" stroke="#666666" points="616.25,-185 571.75,-185 571.75,-165.75 616.25,-165.75 616.25,-185"/>
<text text-anchor="middle" x="594" y="-171.5" font-family="Helvetica,sans-Serif" font-size="10.00">stdio.h</text>
</a>
</g>
</g>
<!-- Node1&#45;&gt;Node13 -->
<g id="edge15_Node000001_Node000013" class="edge">
<title>Node1&#45;&gt;Node13</title>
<g id="a_edge15_Node000001_Node000013"><a xlink:title=" ">
<path fill="none" stroke="#63b8ff" d="M484.04,-275.76C504.49,-267.41 528.46,-255.54 547,-240.25 562.26,-227.67 575.19,-209.1 583.6,-195.23"/>
<polygon fill="#63b8ff" stroke="#63b8ff" points="586.6,-197.02 588.58,-186.62 580.54,-193.52 586.6,-197.02"/>
</a>
</g>
</g>
<!-- Node15 -->
<g id="Node000015" class="node">
<title>Node15</title>
<g id="a_Node000015"><a xlink:title=" ">
<polygon fill="#e0e0e0" stroke="#999999" points="684.38,-240.25 631.63,-240.25 631.63,-221 684.38,-221 684.38,-240.25"/>
<text text-anchor="middle" x="658" y="-226.75" font-family="Helvetica,sans-Serif" font-size="10.00">sifcmd.h</text>
</a>
</g>
</g>
<!-- Node1&#45;&gt;Node15 -->
<g id="edge18_Node000001_Node000015" class="edge">
<title>Node1&#45;&gt;Node15</title>
<g id="a_edge18_Node000001_Node000015"><a xlink:title=" ">
<path fill="none" stroke="#63b8ff" d="M494.36,-276.02C533.37,-265.44 585.34,-251.34 620.14,-241.9"/>
<polygon fill="#63b8ff" stroke="#63b8ff" points="621.05,-245.28 629.78,-239.28 619.22,-238.52 621.05,-245.28"/>
</a>
</g>
</g>
<!-- Node16 -->
<g id="Node000016" class="node">
<title>Node16</title>
<g id="a_Node000016"><a xlink:title=" ">
<polygon fill="#e0e0e0" stroke="#999999" points="749.75,-240.25 702.25,-240.25 702.25,-221 749.75,-221 749.75,-240.25"/>
<text text-anchor="middle" x="726" y="-226.75" font-family="Helvetica,sans-Serif" font-size="10.00">sifrpc.h</text>
</a>
</g>
</g>
<!-- Node1&#45;&gt;Node16 -->
<g id="edge19_Node000001_Node000016" class="edge">
<title>Node1&#45;&gt;Node16</title>
<g id="a_edge19_Node000001_Node000016"><a xlink:title=" ">
<path fill="none" stroke="#63b8ff" d="M494.29,-280.82C543.03,-271.75 617.37,-257.39 691.03,-240.6"/>
<polygon fill="#63b8ff" stroke="#63b8ff" points="691.45,-244.09 700.42,-238.44 689.89,-237.27 691.45,-244.09"/>
</a>
</g>
</g>
<!-- Node17 -->
<g id="Node000017" class="node">
<title>Node17</title>
<g id="a_Node000017"><a xlink:href="sysclib_8h.html" target="_top" xlink:title=" ">
<polygon fill="white" stroke="#666666" points="687.75,-185 634.25,-185 634.25,-165.75 687.75,-165.75 687.75,-185"/>
<text text-anchor="middle" x="661" y="-171.5" font-family="Helvetica,sans-Serif" font-size="10.00">sysclib.h</text>
</a>
</g>
</g>
<!-- Node1&#45;&gt;Node17 -->
<g id="edge20_Node000001_Node000017" class="edge">
<title>Node1&#45;&gt;Node17</title>
<g id="a_edge20_Node000001_Node000017"><a xlink:title=" ">
<path fill="none" stroke="#63b8ff" d="M486.36,-275.85C511.64,-266.95 543.31,-254.55 570,-240.25 595.99,-226.33 623.35,-206.29 641.21,-192.38"/>
<polygon fill="#63b8ff" stroke="#63b8ff" points="643.22,-195.25 648.89,-186.3 638.88,-189.76 643.22,-195.25"/>
</a>
</g>
</g>
<!-- Node20 -->
<g id="Node000020" class="node">
<title>Node20</title>
<g id="a_Node000020"><a xlink:href="sysmem_8h.html" target="_top" xlink:title=" ">
<polygon fill="white" stroke="#666666" points="452.13,-185 391.88,-185 391.88,-165.75 452.13,-165.75 452.13,-185"/>
<text text-anchor="middle" x="422" y="-171.5" font-family="Helvetica,sans-Serif" font-size="10.00">sysmem.h</text>
</a>
</g>
</g>
<!-- Node1&#45;&gt;Node20 -->
<g id="edge28_Node000001_Node000020" class="edge">
<title>Node1&#45;&gt;Node20</title>
<g id="a_edge28_Node000001_Node000020"><a xlink:title=" ">
<path fill="none" stroke="#63b8ff" d="M438.6,-276.05C435.24,-255.9 429.15,-219.31 425.35,-196.5"/>
<polygon fill="#63b8ff" stroke="#63b8ff" points="428.86,-196.23 423.76,-186.94 421.95,-197.38 428.86,-196.23"/>
</a>
</g>
</g>
<!-- Node21 -->
<g id="Node000021" class="node">
<title>Node21</title>
<g id="a_Node000021"><a xlink:href="usbd_8h.html" target="_top" xlink:title=" ">
<polygon fill="white" stroke="#666666" points="374.25,-185 329.75,-185 329.75,-165.75 374.25,-165.75 374.25,-185"/>
<text text-anchor="middle" x="352" y="-171.5" font-family="Helvetica,sans-Serif" font-size="10.00">usbd.h</text>
</a>
</g>
</g>
<!-- Node1&#45;&gt;Node21 -->
<g id="edge32_Node000001_Node000021" class="edge">
<title>Node1&#45;&gt;Node21</title>
<g id="a_edge32_Node000001_Node000021"><a xlink:title=" ">
<path fill="none" stroke="#63b8ff" d="M429.73,-276.05C413.51,-255.25 383.62,-216.92 366.01,-194.33"/>
<polygon fill="#63b8ff" stroke="#63b8ff" points="368.92,-192.37 360.01,-186.64 363.4,-196.68 368.92,-192.37"/>
</a>
</g>
</g>
<!-- Node22 -->
<g id="Node000022" class="node">
<title>Node22</title>
<g id="a_Node000022"><a xlink:href="usbd__macro_8h.html" target="_top" xlink:title=" ">
<polygon fill="white" stroke="#666666" points="356.38,-240.25 279.63,-240.25 279.63,-221 356.38,-221 356.38,-240.25"/>
<text text-anchor="middle" x="318" y="-226.75" font-family="Helvetica,sans-Serif" font-size="10.00">usbd_macro.h</text>
</a>
</g>
</g>
<!-- Node1&#45;&gt;Node22 -->
<g id="edge35_Node000001_Node000022" class="edge">
<title>Node1&#45;&gt;Node22</title>
<g id="a_edge35_Node000001_Node000022"><a xlink:title=" ">
<path fill="none" stroke="#63b8ff" d="M410.28,-275.8C390.92,-266.53 366.07,-254.63 347.04,-245.52"/>
<polygon fill="#63b8ff" stroke="#63b8ff" points="348.76,-242.47 338.23,-241.31 345.74,-248.78 348.76,-242.47"/>
</a>
</g>
</g>
<!-- Node23 -->
<g id="Node000023" class="node">
<title>Node23</title>
<g id="a_Node000023"><a xlink:href="thbase_8h.html" target="_top" xlink:title=" ">
<polygon fill="white" stroke="#666666" points="81.38,-185 28.63,-185 28.63,-165.75 81.38,-165.75 81.38,-185"/>
<text text-anchor="middle" x="55" y="-171.5" font-family="Helvetica,sans-Serif" font-size="10.00">thbase.h</text>
</a>
</g>
</g>
<!-- Node1&#45;&gt;Node23 -->
<g id="edge37_Node000001_Node000023" class="edge">
<title>Node1&#45;&gt;Node23</title>
<g id="a_edge37_Node000001_Node000023"><a xlink:title=" ">
<path fill="none" stroke="#63b8ff" d="M387.57,-283.26C336.92,-275.56 259.1,-261.52 194,-240.25 153.22,-226.93 108.55,-204.98 81.15,-190.6"/>
<polygon fill="#63b8ff" stroke="#63b8ff" points="83,-187.63 72.53,-186.02 79.72,-193.81 83,-187.63"/>
</a>
</g>
</g>
<!-- Node24 -->
<g id="Node000024" class="node">
<title>Node24</title>
<g id="a_Node000024"><a xlink:href="thevent_8h.html" target="_top" xlink:title=" ">
<polygon fill="white" stroke="#666666" points="154.88,-185 99.13,-185 99.13,-165.75 154.88,-165.75 154.88,-185"/>
<text text-anchor="middle" x="127" y="-171.5" font-family="Helvetica,sans-Serif" font-size="10.00">thevent.h</text>
</a>
</g>
</g>
<!-- Node1&#45;&gt;Node24 -->
<g id="edge40_Node000001_Node000024" class="edge">
<title>Node1&#45;&gt;Node24</title>
<g id="a_edge40_Node000001_Node000024"><a xlink:title=" ">
<path fill="none" stroke="#63b8ff" d="M387.59,-281.95C345.19,-274.1 284.95,-260.59 235,-240.25 203.27,-227.33 169.77,-206.18 148.65,-191.78"/>
<polygon fill="#63b8ff" stroke="#63b8ff" points="150.79,-189.01 140.58,-186.19 146.8,-194.76 150.79,-189.01"/>
</a>
</g>
</g>
<!-- Node25 -->
<g id="Node000025" class="node">
<title>Node25</title>
<g id="a_Node000025"><a xlink:href="thsemap_8h.html" target="_top" xlink:title=" ">
<polygon fill="white" stroke="#666666" points="233.5,-185 172.5,-185 172.5,-165.75 233.5,-165.75 233.5,-185"/>
<text text-anchor="middle" x="203" y="-171.5" font-family="Helvetica,sans-Serif" font-size="10.00">thsemap.h</text>
</a>
</g>
</g>
<!-- Node1&#45;&gt;Node25 -->
<g id="edge43_Node000001_Node000025" class="edge">
<title>Node1&#45;&gt;Node25</title>
<g id="a_edge43_Node000001_Node000025"><a xlink:title=" ">
<path fill="none" stroke="#63b8ff" d="M387.83,-283.66C350.23,-276.99 299.8,-264.19 261,-240.25 242.13,-228.6 225.69,-209.06 215.17,-194.65"/>
<polygon fill="#63b8ff" stroke="#63b8ff" points="218.08,-192.7 209.49,-186.5 212.34,-196.7 218.08,-192.7"/>
</a>
</g>
</g>
<!-- Node26 -->
<g id="Node000026" class="node">
<title>Node26</title>
<g id="a_Node000026"><a xlink:title=" ">
<polygon fill="#e0e0e0" stroke="#999999" points="822.5,-240.25 767.5,-240.25 767.5,-221 822.5,-221 822.5,-240.25"/>
<text text-anchor="middle" x="795" y="-226.75" font-family="Helvetica,sans-Serif" font-size="10.00">ps2kbd.h</text>
</a>
</g>
</g>
<!-- Node1&#45;&gt;Node26 -->
<g id="edge46_Node000001_Node000026" class="edge">
<title>Node1&#45;&gt;Node26</title>
<g id="a_edge46_Node000001_Node000026"><a xlink:title=" ">
<path fill="none" stroke="#63b8ff" d="M494.4,-283.37C555.41,-274.93 658.48,-259.79 755.91,-240.75"/>
<polygon fill="#63b8ff" stroke="#63b8ff" points="756.52,-244.19 765.66,-238.82 755.17,-237.33 756.52,-244.19"/>
</a>
</g>
</g>
<!-- Node27 -->
<g id="Node000027" class="node">
<title>Node27</title>
<g id="a_Node000027"><a xlink:href="us__keymap_8h.html" target="_top" xlink:title=" ">
<polygon fill="white" stroke="#666666" points="913.5,-240.25 840.5,-240.25 840.5,-221 913.5,-221 913.5,-240.25"/>
<text text-anchor="middle" x="877" y="-226.75" font-family="Helvetica,sans-Serif" font-size="10.00">us_keymap.h</text>
</a>
</g>
</g>
<!-- Node1&#45;&gt;Node27 -->
<g id="edge47_Node000001_Node000027" class="edge">
<title>Node1&#45;&gt;Node27</title>
<g id="a_edge47_Node000001_Node000027"><a xlink:title=" ">
<path fill="none" stroke="#63b8ff" d="M494.28,-284.71C567.46,-276.52 703.44,-260.47 828.87,-240.67"/>
<polygon fill="#63b8ff" stroke="#63b8ff" points="829.38,-244.14 838.7,-239.11 828.28,-237.22 829.38,-244.14"/>
</a>
</g>
</g>
<!-- Node3&#45;&gt;Node2 -->
<g id="edge4_Node000003_Node000002" class="edge">
<title>Node3&#45;&gt;Node2</title>
<g id="a_edge4_Node000003_Node000002"><a xlink:title=" ">
<path fill="none" stroke="#63b8ff" d="M487.65,-227.79C387.97,-220.53 27.99,-193.74 20,-185 -24.01,-136.82 103.68,-124.98 168.18,-122.07"/>
<polygon fill="#63b8ff" stroke="#63b8ff" points="168.07,-125.58 177.92,-121.69 167.79,-118.58 168.07,-125.58"/>
</a>
</g>
</g>
<!-- Node3&#45;&gt;Node4 -->
<g id="edge3_Node000003_Node000004" class="edge">
<title>Node3&#45;&gt;Node4</title>
<g id="a_edge3_Node000003_Node000004"><a xlink:title=" ">
<path fill="none" stroke="#63b8ff" d="M509.7,-220.83C507.17,-214.09 503.57,-204.52 500.37,-195.99"/>
<polygon fill="#63b8ff" stroke="#63b8ff" points="503.7,-194.91 496.91,-186.78 497.15,-197.37 503.7,-194.91"/>
</a>
</g>
</g>
<!-- Node5 -->
<g id="Node000005" class="node">
<title>Node5</title>
<g id="a_Node000005"><a xlink:href="irx_8h.html" target="_top" xlink:title=" ">
<polygon fill="white" stroke="#666666" points="385.63,-129.75 352.38,-129.75 352.38,-110.5 385.63,-110.5 385.63,-129.75"/>
<text text-anchor="middle" x="369" y="-116.25" font-family="Helvetica,sans-Serif" font-size="10.00">irx.h</text>
</a>
</g>
</g>
<!-- Node3&#45;&gt;Node5 -->
<g id="edge5_Node000003_Node000005" class="edge">
<title>Node3&#45;&gt;Node5</title>
<g id="a_edge5_Node000003_Node000005"><a xlink:title=" ">
<path fill="none" stroke="#63b8ff" d="M518.53,-220.81C526.09,-207.51 537.37,-182.15 525,-165.75 509.64,-145.37 437.88,-131.49 397.25,-125.11"/>
<polygon fill="#63b8ff" stroke="#63b8ff" points="397.88,-121.67 387.47,-123.63 396.83,-128.59 397.88,-121.67"/>
</a>
</g>
</g>
<!-- Node9 -->
<g id="Node000009" class="node">
<title>Node9</title>
<g id="a_Node000009"><a xlink:href="io__common_8h.html" target="_top" xlink:title=" ">
<polygon fill="white" stroke="#666666" points="779.88,-185 706.13,-185 706.13,-165.75 779.88,-165.75 779.88,-185"/>
<text text-anchor="middle" x="743" y="-171.5" font-family="Helvetica,sans-Serif" font-size="10.00">io_common.h</text>
</a>
</g>
</g>
<!-- Node3&#45;&gt;Node9 -->
<g id="edge9_Node000003_Node000009" class="edge">
<title>Node3&#45;&gt;Node9</title>
<g id="a_edge9_Node000003_Node000009"><a xlink:title=" ">
<path fill="none" stroke="#63b8ff" d="M538.05,-223.82C575.56,-215.14 647.02,-198.6 694.84,-187.52"/>
<polygon fill="#63b8ff" stroke="#63b8ff" points="695.43,-190.98 704.39,-185.32 693.85,-184.16 695.43,-190.98"/>
</a>
</g>
</g>
<!-- Node6 -->
<g id="Node000006" class="node">
<title>Node6</title>
<g id="a_Node000006"><a xlink:href="iop_2kernel_2include_2types_8h_source.html" target="_top" xlink:title=" ">
<polygon fill="white" stroke="#666666" points="509.38,-74.5 462.63,-74.5 462.63,-55.25 509.38,-55.25 509.38,-74.5"/>
<text text-anchor="middle" x="486" y="-61" font-family="Helvetica,sans-Serif" font-size="10.00">types.h</text>
</a>
</g>
</g>
<!-- Node5&#45;&gt;Node6 -->
<g id="edge6_Node000005_Node000006" class="edge">
<title>Node5&#45;&gt;Node6</title>
<g id="a_edge6_Node000005_Node000006"><a xlink:title=" ">
<path fill="none" stroke="#63b8ff" d="M386.02,-111.38C404.32,-103.05 433.78,-89.64 455.99,-79.54"/>
<polygon fill="#63b8ff" stroke="#63b8ff" points="457.2,-82.83 464.85,-75.5 454.3,-76.46 457.2,-82.83"/>
</a>
</g>
</g>
<!-- Node7 -->
<g id="Node000007" class="node">
<title>Node7</title>
<g id="a_Node000007"><a xlink:title=" ">
<polygon fill="#e0e0e0" stroke="#999999" points="511.25,-19.25 460.75,-19.25 460.75,0 511.25,0 511.25,-19.25"/>
<text text-anchor="middle" x="486" y="-5.75" font-family="Helvetica,sans-Serif" font-size="10.00">stddef.h</text>
</a>
</g>
</g>
<!-- Node6&#45;&gt;Node7 -->
<g id="edge7_Node000006_Node000007" class="edge">
<title>Node6&#45;&gt;Node7</title>
<g id="a_edge7_Node000006_Node000007"><a xlink:title=" ">
<path fill="none" stroke="#63b8ff" d="M486,-55.08C486,-48.57 486,-39.42 486,-31.12"/>
<polygon fill="#63b8ff" stroke="#63b8ff" points="489.5,-31.12 486,-21.12 482.5,-31.12 489.5,-31.12"/>
</a>
</g>
</g>
<!-- Node8 -->
<g id="Node000008" class="node">
<title>Node8</title>
<g id="a_Node000008"><a xlink:href="tamtypes_8h.html" target="_top" xlink:title=" ">
<polygon fill="white" stroke="#666666" points="650.63,-19.25 587.38,-19.25 587.38,0 650.63,0 650.63,-19.25"/>
<text text-anchor="middle" x="619" y="-5.75" font-family="Helvetica,sans-Serif" font-size="10.00">tamtypes.h</text>
</a>
</g>
</g>
<!-- Node6&#45;&gt;Node8 -->
<g id="edge8_Node000006_Node000008" class="edge">
<title>Node6&#45;&gt;Node8</title>
<g id="a_edge8_Node000006_Node000008"><a xlink:title=" ">
<path fill="none" stroke="#63b8ff" d="M508.56,-54.84C529.77,-46.35 561.77,-33.54 585.88,-23.89"/>
<polygon fill="#63b8ff" stroke="#63b8ff" points="586.94,-27.23 594.93,-20.27 584.34,-20.73 586.94,-27.23"/>
</a>
</g>
</g>
<!-- Node10 -->
<g id="Node000010" class="node">
<title>Node10</title>
<g id="a_Node000010"><a xlink:href="fcntl_8h_source.html" target="_top" xlink:title=" ">
<polygon fill="white" stroke="#666666" points="850.13,-129.75 789.88,-129.75 789.88,-110.5 850.13,-110.5 850.13,-129.75"/>
<text text-anchor="middle" x="820" y="-116.25" font-family="Helvetica,sans-Serif" font-size="10.00">sys/fcntl.h</text>
</a>
</g>
</g>
<!-- Node9&#45;&gt;Node10 -->
<g id="edge10_Node000009_Node000010" class="edge">
<title>Node9&#45;&gt;Node10</title>
<g id="a_edge10_Node000009_Node000010"><a xlink:title=" ">
<path fill="none" stroke="#63b8ff" d="M756.06,-165.34C767.46,-157.46 784.23,-145.86 797.74,-136.52"/>
<polygon fill="#63b8ff" stroke="#63b8ff" points="799.4,-139.63 805.63,-131.06 795.42,-133.87 799.4,-139.63"/>
</a>
</g>
</g>
<!-- Node11 -->
<g id="Node000011" class="node">
<title>Node11</title>
<g id="a_Node000011"><a xlink:href="unistd_8h_source.html" target="_top" xlink:title=" ">
<polygon fill="white" stroke="#666666" points="771.88,-129.75 704.13,-129.75 704.13,-110.5 771.88,-110.5 771.88,-129.75"/>
<text text-anchor="middle" x="738" y="-116.25" font-family="Helvetica,sans-Serif" font-size="10.00">sys/unistd.h</text>
</a>
</g>
</g>
<!-- Node9&#45;&gt;Node11 -->
<g id="edge11_Node000009_Node000011" class="edge">
<title>Node9&#45;&gt;Node11</title>
<g id="a_edge11_Node000009_Node000011"><a xlink:title=" ">
<path fill="none" stroke="#63b8ff" d="M742.18,-165.58C741.56,-158.99 740.69,-149.71 739.9,-141.32"/>
<polygon fill="#63b8ff" stroke="#63b8ff" points="743.41,-141.25 738.99,-131.62 736.44,-141.9 743.41,-141.25"/>
</a>
</g>
</g>
<!-- Node12&#45;&gt;Node2 -->
<g id="edge13_Node000012_Node000002" class="edge">
<title>Node12&#45;&gt;Node2</title>
<g id="a_edge13_Node000012_Node000002"><a xlink:title=" ">
<path fill="none" stroke="#63b8ff" d="M268.6,-165.34C256.91,-157.46 239.7,-145.86 225.84,-136.52"/>
<polygon fill="#63b8ff" stroke="#63b8ff" points="227.97,-133.74 217.72,-131.05 224.06,-139.54 227.97,-133.74"/>
</a>
</g>
</g>
<!-- Node12&#45;&gt;Node5 -->
<g id="edge14_Node000012_Node000005" class="edge">
<title>Node12&#45;&gt;Node5</title>
<g id="a_edge14_Node000012_Node000005"><a xlink:title=" ">
<path fill="none" stroke="#63b8ff" d="M296.76,-165.34C309.88,-157.31 329.33,-145.41 344.73,-135.98"/>
<polygon fill="#63b8ff" stroke="#63b8ff" points="346.18,-139.2 352.88,-130.99 342.52,-133.23 346.18,-139.2"/>
</a>
</g>
</g>
<!-- Node13&#45;&gt;Node5 -->
<g id="edge17_Node000013_Node000005" class="edge">
<title>Node13&#45;&gt;Node5</title>
<g id="a_edge17_Node000013_Node000005"><a xlink:title=" ">
<path fill="none" stroke="#63b8ff" d="M571.54,-168.98C567.05,-167.91 562.38,-166.79 558,-165.75 500.73,-152.13 433.66,-136.33 396.8,-127.66"/>
<polygon fill="#63b8ff" stroke="#63b8ff" points="397.96,-124.34 387.42,-125.45 396.36,-131.15 397.96,-124.34"/>
</a>
</g>
</g>
<!-- Node14 -->
<g id="Node000014" class="node">
<title>Node14</title>
<g id="a_Node000014"><a xlink:title=" ">
<polygon fill="#e0e0e0" stroke="#999999" points="573.25,-129.75 522.75,-129.75 522.75,-110.5 573.25,-110.5 573.25,-129.75"/>
<text text-anchor="middle" x="548" y="-116.25" font-family="Helvetica,sans-Serif" font-size="10.00">stdarg.h</text>
</a>
</g>
</g>
<!-- Node13&#45;&gt;Node14 -->
<g id="edge16_Node000013_Node000014" class="edge">
<title>Node13&#45;&gt;Node14</title>
<g id="a_edge16_Node000013_Node000014"><a xlink:title=" ">
<path fill="none" stroke="#63b8ff" d="M586.41,-165.58C580.12,-158.3 570.99,-147.73 563.21,-138.73"/>
<polygon fill="#63b8ff" stroke="#63b8ff" points="565.94,-136.53 556.75,-131.25 560.64,-141.11 565.94,-136.53"/>
</a>
</g>
</g>
<!-- Node17&#45;&gt;Node2 -->
<g id="edge21_Node000017_Node000002" class="edge">
<title>Node17&#45;&gt;Node2</title>
<g id="a_edge21_Node000017_Node000002"><a xlink:title=" ">
<path fill="none" stroke="#63b8ff" d="M633.95,-167.5C630.94,-166.85 627.92,-166.25 625,-165.75 482.29,-141.21 309.95,-128.05 237.61,-123.26"/>
<polygon fill="#63b8ff" stroke="#63b8ff" points="238.2,-119.79 227.99,-122.63 237.74,-126.77 238.2,-119.79"/>
</a>
</g>
</g>
<!-- Node17&#45;&gt;Node5 -->
<g id="edge22_Node000017_Node000005" class="edge">
<title>Node17&#45;&gt;Node5</title>
<g id="a_edge22_Node000017_Node000005"><a xlink:title=" ">
<path fill="none" stroke="#63b8ff" d="M633.92,-167.69C630.91,-167.01 627.9,-166.35 625,-165.75 542.5,-148.69 444.14,-132.78 396.96,-125.41"/>
<polygon fill="#63b8ff" stroke="#63b8ff" points="397.76,-121.99 387.34,-123.92 396.69,-128.91 397.76,-121.99"/>
</a>
</g>
</g>
<!-- Node17&#45;&gt;Node14 -->
<g id="edge23_Node000017_Node000014" class="edge">
<title>Node17&#45;&gt;Node14</title>
<g id="a_edge23_Node000017_Node000014"><a xlink:title=" ">
<path fill="none" stroke="#63b8ff" d="M641.83,-165.34C624.22,-157.04 597.84,-144.61 577.54,-135.04"/>
<polygon fill="#63b8ff" stroke="#63b8ff" points="579.17,-131.94 568.63,-130.85 576.19,-138.28 579.17,-131.94"/>
</a>
</g>
</g>
<!-- Node18 -->
<g id="Node000018" class="node">
<title>Node18</title>
<g id="a_Node000018"><a xlink:href="setjmp_8h.html" target="_top" xlink:title=" ">
<polygon fill="white" stroke="#666666" points="674.38,-74.5 621.63,-74.5 621.63,-55.25 674.38,-55.25 674.38,-74.5"/>
<text text-anchor="middle" x="648" y="-61" font-family="Helvetica,sans-Serif" font-size="10.00">setjmp.h</text>
</a>
</g>
</g>
<!-- Node17&#45;&gt;Node18 -->
<g id="edge24_Node000017_Node000018" class="edge">
<title>Node17&#45;&gt;Node18</title>
<g id="a_edge24_Node000017_Node000018"><a xlink:title=" ">
<path fill="none" stroke="#63b8ff" d="M659.94,-165.5C657.87,-148.25 653.27,-109.83 650.42,-86.06"/>
<polygon fill="#63b8ff" stroke="#63b8ff" points="653.93,-85.89 649.26,-76.38 646.98,-86.72 653.93,-85.89"/>
</a>
</g>
</g>
<!-- Node19 -->
<g id="Node000019" class="node">
<title>Node19</title>
<g id="a_Node000019"><a xlink:href="ctype_8h.html" target="_top" xlink:title=" ">
<polygon fill="white" stroke="#666666" points="638.38,-129.75 591.63,-129.75 591.63,-110.5 638.38,-110.5 638.38,-129.75"/>
<text text-anchor="middle" x="615" y="-116.25" font-family="Helvetica,sans-Serif" font-size="10.00">ctype.h</text>
</a>
</g>
</g>
<!-- Node17&#45;&gt;Node19 -->
<g id="edge26_Node000017_Node000019" class="edge">
<title>Node17&#45;&gt;Node19</title>
<g id="a_edge26_Node000017_Node000019"><a xlink:title=" ">
<path fill="none" stroke="#63b8ff" d="M653.41,-165.58C647.12,-158.3 637.99,-147.73 630.21,-138.73"/>
<polygon fill="#63b8ff" stroke="#63b8ff" points="632.94,-136.53 623.75,-131.25 627.64,-141.11 632.94,-136.53"/>
</a>
</g>
</g>
<!-- Node18&#45;&gt;Node8 -->
<g id="edge25_Node000018_Node000008" class="edge">
<title>Node18&#45;&gt;Node8</title>
<g id="a_edge25_Node000018_Node000008"><a xlink:title=" ">
<path fill="none" stroke="#63b8ff" d="M643.21,-55.08C639.46,-48.19 634.09,-38.34 629.37,-29.66"/>
<polygon fill="#63b8ff" stroke="#63b8ff" points="632.48,-28.05 624.62,-20.94 626.33,-31.39 632.48,-28.05"/>
</a>
</g>
</g>
<!-- Node20&#45;&gt;Node2 -->
<g id="edge29_Node000020_Node000002" class="edge">
<title>Node20&#45;&gt;Node2</title>
<g id="a_edge29_Node000020_Node000002"><a xlink:title=" ">
<path fill="none" stroke="#63b8ff" d="M391.55,-166.97C351.27,-157.18 280.41,-139.95 237.98,-129.63"/>
<polygon fill="#63b8ff" stroke="#63b8ff" points="238.82,-126.23 228.28,-127.27 237.17,-133.04 238.82,-126.23"/>
</a>
</g>
</g>
<!-- Node20&#45;&gt;Node5 -->
<g id="edge30_Node000020_Node000005" class="edge">
<title>Node20&#45;&gt;Node5</title>
<g id="a_edge30_Node000020_Node000005"><a xlink:title=" ">
<path fill="none" stroke="#63b8ff" d="M413.25,-165.58C405.85,-158.15 395.04,-147.29 385.96,-138.16"/>
<polygon fill="#63b8ff" stroke="#63b8ff" points="388.55,-135.8 379.01,-131.18 383.59,-140.74 388.55,-135.8"/>
</a>
</g>
</g>
<!-- Node20&#45;&gt;Node14 -->
<g id="edge31_Node000020_Node000014" class="edge">
<title>Node20&#45;&gt;Node14</title>
<g id="a_edge31_Node000020_Node000014"><a xlink:title=" ">
<path fill="none" stroke="#63b8ff" d="M443.38,-165.34C463.29,-156.93 493.24,-144.27 516,-134.65"/>
<polygon fill="#63b8ff" stroke="#63b8ff" points="517.28,-137.91 525.13,-130.79 514.56,-131.46 517.28,-137.91"/>
</a>
</g>
</g>
<!-- Node21&#45;&gt;Node2 -->
<g id="edge33_Node000021_Node000002" class="edge">
<title>Node21&#45;&gt;Node2</title>
<g id="a_edge33_Node000021_Node000002"><a xlink:title=" ">
<path fill="none" stroke="#63b8ff" d="M329.37,-166.29C304.94,-157.55 265.72,-143.54 237.45,-133.44"/>
<polygon fill="#63b8ff" stroke="#63b8ff" points="238.85,-130.22 228.26,-130.15 236.5,-136.81 238.85,-130.22"/>
</a>
</g>
</g>
<!-- Node21&#45;&gt;Node5 -->
<g id="edge34_Node000021_Node000005" class="edge">
<title>Node21&#45;&gt;Node5</title>
<g id="a_edge34_Node000021_Node000005"><a xlink:title=" ">
<path fill="none" stroke="#63b8ff" d="M354.81,-165.58C356.94,-158.92 359.95,-149.49 362.65,-141.03"/>
<polygon fill="#63b8ff" stroke="#63b8ff" points="365.97,-142.14 365.67,-131.55 359.3,-140.01 365.97,-142.14"/>
</a>
</g>
</g>
<!-- Node22&#45;&gt;Node21 -->
<g id="edge36_Node000022_Node000021" class="edge">
<title>Node22&#45;&gt;Node21</title>
<g id="a_edge36_Node000022_Node000021"><a xlink:title=" ">
<path fill="none" stroke="#63b8ff" d="M323.62,-220.83C328.12,-213.78 334.59,-203.65 340.22,-194.83"/>
<polygon fill="#63b8ff" stroke="#63b8ff" points="343.02,-196.95 345.45,-186.63 337.12,-193.18 343.02,-196.95"/>
</a>
</g>
</g>
<!-- Node23&#45;&gt;Node2 -->
<g id="edge38_Node000023_Node000002" class="edge">
<title>Node23&#45;&gt;Node2</title>
<g id="a_edge38_Node000023_Node000002"><a xlink:title=" ">
<path fill="none" stroke="#63b8ff" d="M80.11,-165.34C104.46,-156.58 141.61,-143.21 168.69,-133.47"/>
<polygon fill="#63b8ff" stroke="#63b8ff" points="169.6,-136.86 177.82,-130.19 167.23,-130.28 169.6,-136.86"/>
</a>
</g>
</g>
<!-- Node23&#45;&gt;Node5 -->
<g id="edge39_Node000023_Node000005" class="edge">
<title>Node23&#45;&gt;Node5</title>
<g id="a_edge39_Node000023_Node000005"><a xlink:title=" ">
<path fill="none" stroke="#63b8ff" d="M81.7,-167.55C84.5,-166.91 87.3,-166.3 90,-165.75 181.05,-147.28 290.08,-131.72 340.65,-124.87"/>
<polygon fill="#63b8ff" stroke="#63b8ff" points="340.98,-128.35 350.43,-123.55 340.05,-121.42 340.98,-128.35"/>
</a>
</g>
</g>
<!-- Node24&#45;&gt;Node2 -->
<g id="edge41_Node000024_Node000002" class="edge">
<title>Node24&#45;&gt;Node2</title>
<g id="a_edge41_Node000024_Node000002"><a xlink:title=" ">
<path fill="none" stroke="#63b8ff" d="M139.89,-165.34C151.03,-157.54 167.38,-146.09 180.64,-136.79"/>
<polygon fill="#63b8ff" stroke="#63b8ff" points="182.63,-139.68 188.81,-131.07 178.61,-133.94 182.63,-139.68"/>
</a>
</g>
</g>
<!-- Node24&#45;&gt;Node5 -->
<g id="edge42_Node000024_Node000005" class="edge">
<title>Node24&#45;&gt;Node5</title>
<g id="a_edge42_Node000024_Node000005"><a xlink:title=" ">
<path fill="none" stroke="#63b8ff" d="M155.29,-167.54C157.89,-166.93 160.5,-166.32 163,-165.75 226.37,-151.3 300.98,-135.42 340.72,-127.05"/>
<polygon fill="#63b8ff" stroke="#63b8ff" points="341.34,-130.49 350.4,-125.01 339.9,-123.64 341.34,-130.49"/>
</a>
</g>
</g>
<!-- Node25&#45;&gt;Node2 -->
<g id="edge44_Node000025_Node000002" class="edge">
<title>Node25&#45;&gt;Node2</title>
<g id="a_edge44_Node000025_Node000002"><a xlink:title=" ">
<path fill="none" stroke="#63b8ff" d="M203,-165.58C203,-159.07 203,-149.92 203,-141.62"/>
<polygon fill="#63b8ff" stroke="#63b8ff" points="206.5,-141.62 203,-131.62 199.5,-141.62 206.5,-141.62"/>
</a>
</g>
</g>
<!-- Node25&#45;&gt;Node5 -->
<g id="edge45_Node000025_Node000005" class="edge">
<title>Node25&#45;&gt;Node5</title>
<g id="a_edge45_Node000025_Node000005"><a xlink:title=" ">
<path fill="none" stroke="#63b8ff" d="M231.16,-165.34C261.84,-155.5 310.61,-139.86 341.16,-130.06"/>
<polygon fill="#63b8ff" stroke="#63b8ff" points="342,-133.46 350.46,-127.07 339.87,-126.8 342,-133.46"/>
</a>
</g>
</g>
</g>
</svg>

<g id="navigator" transform="translate(0 0)" fill="#404254">
  <rect fill="#f2f5e9" fill-opacity="0.5" stroke="#606060" stroke-width=".5" x="0" y="0" width="60" height="60"/>
  <use id="zoomplus" xlink:href="#zoomPlus" x="17" y="9" onmousedown="handleZoom(evt,'in')"/>
  <use id="zoomminus" xlink:href="#zoomMin" x="42" y="9" onmousedown="handleZoom(evt,'out')"/>
  <use id="reset" xlink:href="#resetDef" x="30" y="36" onmousedown="handleReset()"/>
   <use id="arrowup" xlink:href="#arrowUp" x="0" y="0" onmousedown="handlePan(0,-1)"/>
  <use id="arrowright" xlink:href="#arrowRight" x="0" y="0" onmousedown="handlePan(1,0)"/>
  <use id="arrowdown" xlink:href="#arrowDown" x="0" y="0" onmousedown="handlePan(0,1)"/>
  <use id="arrowleft" xlink:href="#arrowLeft" x="0" y="0" onmousedown="handlePan(-1,0)"/>
</g>
<svg viewBox="0 0 15 15" width="100%" height="30px" preserveAspectRatio="xMaxYMin meet">
 <g id="arrow_out" transform="scale(0.3 0.3)">
  <a xlink:href="ps2kbd_8c__incl_org.svg" target="_base">
   <rect id="button" ry="5" rx="5" y="6" x="6" height="38" width="38"
        fill="#f2f5e9" fill-opacity="0.5" stroke="#606060" stroke-width="1.0"/>
   <path id="arrow"
     d="M 11.500037,31.436501 C 11.940474,20.09759 22.043105,11.32322 32.158766,21.979434 L 37.068811,17.246167 C 37.068811,17.246167 37.088388,32 37.088388,32 L 22.160133,31.978069 C 22.160133,31.978069 26.997745,27.140456 26.997745,27.140456 C 18.528582,18.264221 13.291696,25.230495 11.500037,31.436501 z"
     style="fill:#404040;"/>
  </a>
 </g>
</svg>

<style type='text/css'>
<![CDATA[
[data-mouse-over-selected='false'] { opacity: 0.7; }
[data-mouse-over-selected='true']  { opacity: 1.0; }
]]>
</style>
<script type="application/ecmascript"><![CDATA[
document.addEventListener('DOMContentLoaded', (event) => {
  highlightEdges();
  highlightAdjacentNodes();
});
]]></script>
</svg>
