<?xml version="1.0" encoding="UTF-8" standalone="no"?>
<!DOCTYPE svg PUBLIC "-//W3C//DTD SVG 1.1//EN"
 "http://www.w3.org/Graphics/SVG/1.1/DTD/svg11.dtd">
<!-- Generated by graphviz version 12.2.0 (20241103.1931)
 -->
<!-- Title: iop/usb/mouse/src/ps2mouse.c Pages: 1 -->
<svg width="813pt" height="304pt"
 viewBox="0.00 0.00 812.91 303.50" xmlns="http://www.w3.org/2000/svg" xmlns:xlink="http://www.w3.org/1999/xlink">
<g id="graph0" class="graph" transform="scale(1 1) rotate(0) translate(4 299.5)">
<title>iop/usb/mouse/src/ps2mouse.c</title>
<!-- Node1 -->
<g id="Node000001" class="node">
<title>Node1</title>
<g id="a_Node000001"><a xlink:title=" ">
<polygon fill="#999999" stroke="#666666" points="426.66,-295.5 274.91,-295.5 274.91,-276.25 426.66,-276.25 426.66,-295.5"/>
<text text-anchor="middle" x="350.78" y="-282" font-family="Helvetica,sans-Serif" font-size="10.00">iop/usb/mouse/src/ps2mouse.c</text>
</a>
</g>
</g>
<!-- Node2 -->
<g id="Node000002" class="node">
<title>Node2</title>
<g id="a_Node000002"><a xlink:title=" ">
<polygon fill="#e0e0e0" stroke="#999999" points="283.16,-129.75 236.41,-129.75 236.41,-110.5 283.16,-110.5 283.16,-129.75"/>
<text text-anchor="middle" x="259.78" y="-116.25" font-family="Helvetica,sans-Serif" font-size="10.00">types.h</text>
</a>
</g>
</g>
<!-- Node1&#45;&gt;Node2 -->
<g id="edge1_Node000001_Node000002" class="edge">
<title>Node1&#45;&gt;Node2</title>
<g id="a_edge1_Node000001_Node000002"><a xlink:title=" ">
<path fill="none" stroke="#63b8ff" d="M274.44,-279.75C221.47,-274.29 150.08,-263.1 90.78,-240.25 48.04,-223.78 25.84,-225.14 3.78,-185 -0.34,-177.5 -1.72,-172.3 3.78,-165.75 31.6,-132.66 161.24,-124.1 224.66,-121.89"/>
<polygon fill="#63b8ff" stroke="#63b8ff" points="224.65,-125.4 234.54,-121.59 224.44,-118.4 224.65,-125.4"/>
</a>
</g>
</g>
<!-- Node3 -->
<g id="Node000003" class="node">
<title>Node3</title>
<g id="a_Node000003"><a xlink:href="ioman_x_8h.html" target="_top" xlink:title=" ">
<polygon fill="white" stroke="#666666" points="646.03,-185 589.53,-185 589.53,-165.75 646.03,-165.75 646.03,-185"/>
<text text-anchor="middle" x="617.78" y="-171.5" font-family="Helvetica,sans-Serif" font-size="10.00">iomanX.h</text>
</a>
</g>
</g>
<!-- Node1&#45;&gt;Node3 -->
<g id="edge2_Node000001_Node000003" class="edge">
<title>Node1&#45;&gt;Node3</title>
<g id="a_edge2_Node000001_Node000003"><a xlink:title=" ">
<path fill="none" stroke="#63b8ff" d="M374.33,-275.86C396.91,-267.1 431.88,-253.27 461.78,-240.25 480.24,-232.21 484.28,-228.92 502.78,-221 529.18,-209.7 559.46,-198 582.33,-189.41"/>
<polygon fill="#63b8ff" stroke="#63b8ff" points="583.35,-192.77 591.49,-185.99 580.9,-186.21 583.35,-192.77"/>
</a>
</g>
</g>
<!-- Node11 -->
<g id="Node000011" class="node">
<title>Node11</title>
<g id="a_Node000011"><a xlink:href="loadcore_8h.html" target="_top" xlink:title=" ">
<polygon fill="white" stroke="#666666" points="152.91,-185 92.66,-185 92.66,-165.75 152.91,-165.75 152.91,-185"/>
<text text-anchor="middle" x="122.78" y="-171.5" font-family="Helvetica,sans-Serif" font-size="10.00">loadcore.h</text>
</a>
</g>
</g>
<!-- Node1&#45;&gt;Node11 -->
<g id="edge11_Node000001_Node000011" class="edge">
<title>Node1&#45;&gt;Node11</title>
<g id="a_edge11_Node000001_Node000011"><a xlink:title=" ">
<path fill="none" stroke="#63b8ff" d="M274.49,-276.61C223.38,-269.59 162.06,-257.83 142.78,-240.25 130.56,-229.11 125.75,-210.61 123.88,-196.39"/>
<polygon fill="#63b8ff" stroke="#63b8ff" points="127.4,-196.43 123.02,-186.78 120.43,-197.05 127.4,-196.43"/>
</a>
</g>
</g>
<!-- Node16 -->
<g id="Node000016" class="node">
<title>Node16</title>
<g id="a_Node000016"><a xlink:href="stdio_8h.html" target="_top" xlink:title=" ">
<polygon fill="white" stroke="#666666" points="500.03,-185 455.53,-185 455.53,-165.75 500.03,-165.75 500.03,-185"/>
<text text-anchor="middle" x="477.78" y="-171.5" font-family="Helvetica,sans-Serif" font-size="10.00">stdio.h</text>
</a>
</g>
</g>
<!-- Node1&#45;&gt;Node16 -->
<g id="edge17_Node000001_Node000016" class="edge">
<title>Node1&#45;&gt;Node16</title>
<g id="a_edge17_Node000001_Node000016"><a xlink:title=" ">
<path fill="none" stroke="#63b8ff" d="M361.18,-276C382.48,-257.8 431.38,-216.02 458.6,-192.76"/>
<polygon fill="#63b8ff" stroke="#63b8ff" points="460.77,-195.52 466.1,-186.36 456.22,-190.19 460.77,-195.52"/>
</a>
</g>
</g>
<!-- Node17 -->
<g id="Node000017" class="node">
<title>Node17</title>
<g id="a_Node000017"><a xlink:title=" ">
<polygon fill="#e0e0e0" stroke="#999999" points="564.16,-240.25 511.41,-240.25 511.41,-221 564.16,-221 564.16,-240.25"/>
<text text-anchor="middle" x="537.78" y="-226.75" font-family="Helvetica,sans-Serif" font-size="10.00">sifcmd.h</text>
</a>
</g>
</g>
<!-- Node1&#45;&gt;Node17 -->
<g id="edge20_Node000001_Node000017" class="edge">
<title>Node1&#45;&gt;Node17</title>
<g id="a_edge20_Node000001_Node000017"><a xlink:title=" ">
<path fill="none" stroke="#63b8ff" d="M382.51,-275.84C414.99,-266.59 465.49,-252.21 500.02,-242.38"/>
<polygon fill="#63b8ff" stroke="#63b8ff" points="500.95,-245.75 509.61,-239.65 499.03,-239.02 500.95,-245.75"/>
</a>
</g>
</g>
<!-- Node18 -->
<g id="Node000018" class="node">
<title>Node18</title>
<g id="a_Node000018"><a xlink:title=" ">
<polygon fill="#e0e0e0" stroke="#999999" points="629.53,-240.25 582.03,-240.25 582.03,-221 629.53,-221 629.53,-240.25"/>
<text text-anchor="middle" x="605.78" y="-226.75" font-family="Helvetica,sans-Serif" font-size="10.00">sifrpc.h</text>
</a>
</g>
</g>
<!-- Node1&#45;&gt;Node18 -->
<g id="edge21_Node000001_Node000018" class="edge">
<title>Node1&#45;&gt;Node18</title>
<g id="a_edge21_Node000001_Node000018"><a xlink:title=" ">
<path fill="none" stroke="#63b8ff" d="M400.33,-275.76C442.97,-267.72 506.39,-255.32 570.54,-240.66"/>
<polygon fill="#63b8ff" stroke="#63b8ff" points="571.24,-244.09 580.2,-238.44 569.67,-237.27 571.24,-244.09"/>
</a>
</g>
</g>
<!-- Node19 -->
<g id="Node000019" class="node">
<title>Node19</title>
<g id="a_Node000019"><a xlink:href="sysclib_8h.html" target="_top" xlink:title=" ">
<polygon fill="white" stroke="#666666" points="571.53,-185 518.03,-185 518.03,-165.75 571.53,-165.75 571.53,-185"/>
<text text-anchor="middle" x="544.78" y="-171.5" font-family="Helvetica,sans-Serif" font-size="10.00">sysclib.h</text>
</a>
</g>
</g>
<!-- Node1&#45;&gt;Node19 -->
<g id="edge22_Node000001_Node000019" class="edge">
<title>Node1&#45;&gt;Node19</title>
<g id="a_edge22_Node000001_Node000019"><a xlink:title=" ">
<path fill="none" stroke="#63b8ff" d="M366.99,-275.81C400.51,-257.06 477.73,-213.87 518.49,-191.08"/>
<polygon fill="#63b8ff" stroke="#63b8ff" points="520.15,-194.16 527.17,-186.23 516.73,-188.05 520.15,-194.16"/>
</a>
</g>
</g>
<!-- Node22 -->
<g id="Node000022" class="node">
<title>Node22</title>
<g id="a_Node000022"><a xlink:href="sysmem_8h.html" target="_top" xlink:title=" ">
<polygon fill="white" stroke="#666666" points="437.91,-185 377.66,-185 377.66,-165.75 437.91,-165.75 437.91,-185"/>
<text text-anchor="middle" x="407.78" y="-171.5" font-family="Helvetica,sans-Serif" font-size="10.00">sysmem.h</text>
</a>
</g>
</g>
<!-- Node1&#45;&gt;Node22 -->
<g id="edge29_Node000001_Node000022" class="edge">
<title>Node1&#45;&gt;Node22</title>
<g id="a_edge29_Node000001_Node000022"><a xlink:title=" ">
<path fill="none" stroke="#63b8ff" d="M355.45,-276C364.67,-258.43 385.44,-218.91 397.86,-195.27"/>
<polygon fill="#63b8ff" stroke="#63b8ff" points="400.8,-197.2 402.35,-186.72 394.6,-193.94 400.8,-197.2"/>
</a>
</g>
</g>
<!-- Node23 -->
<g id="Node000023" class="node">
<title>Node23</title>
<g id="a_Node000023"><a xlink:href="usbd_8h.html" target="_top" xlink:title=" ">
<polygon fill="white" stroke="#666666" points="215.03,-185 170.53,-185 170.53,-165.75 215.03,-165.75 215.03,-185"/>
<text text-anchor="middle" x="192.78" y="-171.5" font-family="Helvetica,sans-Serif" font-size="10.00">usbd.h</text>
</a>
</g>
</g>
<!-- Node1&#45;&gt;Node23 -->
<g id="edge33_Node000001_Node000023" class="edge">
<title>Node1&#45;&gt;Node23</title>
<g id="a_edge33_Node000001_Node000023"><a xlink:title=" ">
<path fill="none" stroke="#63b8ff" d="M337.58,-275.81C310.56,-257.26 248.68,-214.76 215.23,-191.79"/>
<polygon fill="#63b8ff" stroke="#63b8ff" points="217.31,-188.97 207.08,-186.19 213.34,-194.74 217.31,-188.97"/>
</a>
</g>
</g>
<!-- Node24 -->
<g id="Node000024" class="node">
<title>Node24</title>
<g id="a_Node000024"><a xlink:href="usbd__macro_8h.html" target="_top" xlink:title=" ">
<polygon fill="white" stroke="#666666" points="228.16,-240.25 151.41,-240.25 151.41,-221 228.16,-221 228.16,-240.25"/>
<text text-anchor="middle" x="189.78" y="-226.75" font-family="Helvetica,sans-Serif" font-size="10.00">usbd_macro.h</text>
</a>
</g>
</g>
<!-- Node1&#45;&gt;Node24 -->
<g id="edge36_Node000001_Node000024" class="edge">
<title>Node1&#45;&gt;Node24</title>
<g id="a_edge36_Node000001_Node000024"><a xlink:title=" ">
<path fill="none" stroke="#63b8ff" d="M323.47,-275.84C297.22,-267.16 257.31,-253.96 227.92,-244.24"/>
<polygon fill="#63b8ff" stroke="#63b8ff" points="229.26,-240.99 218.67,-241.18 227.06,-247.64 229.26,-240.99"/>
</a>
</g>
</g>
<!-- Node25 -->
<g id="Node000025" class="node">
<title>Node25</title>
<g id="a_Node000025"><a xlink:href="thbase_8h.html" target="_top" xlink:title=" ">
<polygon fill="white" stroke="#666666" points="286.16,-185 233.41,-185 233.41,-165.75 286.16,-165.75 286.16,-185"/>
<text text-anchor="middle" x="259.78" y="-171.5" font-family="Helvetica,sans-Serif" font-size="10.00">thbase.h</text>
</a>
</g>
</g>
<!-- Node1&#45;&gt;Node25 -->
<g id="edge38_Node000001_Node000025" class="edge">
<title>Node1&#45;&gt;Node25</title>
<g id="a_edge38_Node000001_Node000025"><a xlink:title=" ">
<path fill="none" stroke="#63b8ff" d="M343.34,-276C328.34,-258.11 294.25,-217.47 274.56,-194"/>
<polygon fill="#63b8ff" stroke="#63b8ff" points="277.41,-191.95 268.31,-186.54 272.05,-196.45 277.41,-191.95"/>
</a>
</g>
</g>
<!-- Node26 -->
<g id="Node000026" class="node">
<title>Node26</title>
<g id="a_Node000026"><a xlink:href="thevent_8h.html" target="_top" xlink:title=" ">
<polygon fill="white" stroke="#666666" points="359.66,-185 303.91,-185 303.91,-165.75 359.66,-165.75 359.66,-185"/>
<text text-anchor="middle" x="331.78" y="-171.5" font-family="Helvetica,sans-Serif" font-size="10.00">thevent.h</text>
</a>
</g>
</g>
<!-- Node1&#45;&gt;Node26 -->
<g id="edge41_Node000001_Node000026" class="edge">
<title>Node1&#45;&gt;Node26</title>
<g id="a_edge41_Node000001_Node000026"><a xlink:title=" ">
<path fill="none" stroke="#63b8ff" d="M349.23,-276C346.21,-258.75 339.48,-220.33 335.32,-196.56"/>
<polygon fill="#63b8ff" stroke="#63b8ff" points="338.79,-196.11 333.62,-186.87 331.9,-197.32 338.79,-196.11"/>
</a>
</g>
</g>
<!-- Node27 -->
<g id="Node000027" class="node">
<title>Node27</title>
<g id="a_Node000027"><a xlink:href="thsemap_8h.html" target="_top" xlink:title=" ">
<polygon fill="white" stroke="#666666" points="74.28,-185 13.28,-185 13.28,-165.75 74.28,-165.75 74.28,-185"/>
<text text-anchor="middle" x="43.78" y="-171.5" font-family="Helvetica,sans-Serif" font-size="10.00">thsemap.h</text>
</a>
</g>
</g>
<!-- Node1&#45;&gt;Node27 -->
<g id="edge44_Node000001_Node000027" class="edge">
<title>Node1&#45;&gt;Node27</title>
<g id="a_edge44_Node000001_Node000027"><a xlink:title=" ">
<path fill="none" stroke="#63b8ff" d="M274.48,-278.44C229.87,-272.57 173.36,-261.4 126.78,-240.25 101.32,-228.69 76.49,-207.96 60.73,-193.25"/>
<polygon fill="#63b8ff" stroke="#63b8ff" points="63.29,-190.86 53.65,-186.46 58.44,-195.91 63.29,-190.86"/>
</a>
</g>
</g>
<!-- Node28 -->
<g id="Node000028" class="node">
<title>Node28</title>
<g id="a_Node000028"><a xlink:title=" ">
<polygon fill="#e0e0e0" stroke="#999999" points="716.03,-240.25 647.53,-240.25 647.53,-221 716.03,-221 716.03,-240.25"/>
<text text-anchor="middle" x="681.78" y="-226.75" font-family="Helvetica,sans-Serif" font-size="10.00">ps2mouse.h</text>
</a>
</g>
</g>
<!-- Node1&#45;&gt;Node28 -->
<g id="edge47_Node000001_Node000028" class="edge">
<title>Node1&#45;&gt;Node28</title>
<g id="a_edge47_Node000001_Node000028"><a xlink:title=" ">
<path fill="none" stroke="#63b8ff" d="M414.97,-275.76C470.92,-267.63 554.5,-255.02 636.1,-240.67"/>
<polygon fill="#63b8ff" stroke="#63b8ff" points="636.35,-244.18 645.58,-238.99 635.13,-237.29 636.35,-244.18"/>
</a>
</g>
</g>
<!-- Node3&#45;&gt;Node2 -->
<g id="edge3_Node000003_Node000002" class="edge">
<title>Node3&#45;&gt;Node2</title>
<g id="a_edge3_Node000003_Node000002"><a xlink:title=" ">
<path fill="none" stroke="#63b8ff" d="M589.16,-167.41C586.34,-166.81 583.51,-166.24 580.78,-165.75 459.5,-143.73 427.52,-149.12 305.78,-129.75 302.17,-129.18 298.41,-128.54 294.66,-127.87"/>
<polygon fill="#63b8ff" stroke="#63b8ff" points="295.57,-124.48 285.1,-126.12 294.31,-131.37 295.57,-124.48"/>
</a>
</g>
</g>
<!-- Node4 -->
<g id="Node000004" class="node">
<title>Node4</title>
<g id="a_Node000004"><a xlink:href="errno_8h.html" target="_top" xlink:title=" ">
<polygon fill="white" stroke="#666666" points="635.41,-129.75 590.16,-129.75 590.16,-110.5 635.41,-110.5 635.41,-129.75"/>
<text text-anchor="middle" x="612.78" y="-116.25" font-family="Helvetica,sans-Serif" font-size="10.00">errno.h</text>
</a>
</g>
</g>
<!-- Node3&#45;&gt;Node4 -->
<g id="edge4_Node000003_Node000004" class="edge">
<title>Node3&#45;&gt;Node4</title>
<g id="a_edge4_Node000003_Node000004"><a xlink:title=" ">
<path fill="none" stroke="#63b8ff" d="M616.96,-165.58C616.34,-158.99 615.47,-149.71 614.68,-141.32"/>
<polygon fill="#63b8ff" stroke="#63b8ff" points="618.19,-141.25 613.77,-131.62 611.22,-141.9 618.19,-141.25"/>
</a>
</g>
</g>
<!-- Node5 -->
<g id="Node000005" class="node">
<title>Node5</title>
<g id="a_Node000005"><a xlink:title=" ">
<polygon fill="#e0e0e0" stroke="#999999" points="470.03,-129.75 419.53,-129.75 419.53,-110.5 470.03,-110.5 470.03,-129.75"/>
<text text-anchor="middle" x="444.78" y="-116.25" font-family="Helvetica,sans-Serif" font-size="10.00">stdarg.h</text>
</a>
</g>
</g>
<!-- Node3&#45;&gt;Node5 -->
<g id="edge5_Node000003_Node000005" class="edge">
<title>Node3&#45;&gt;Node5</title>
<g id="a_edge5_Node000003_Node000005"><a xlink:title=" ">
<path fill="none" stroke="#63b8ff" d="M589.22,-165.58C559.6,-156.47 513.21,-142.19 481.03,-132.28"/>
<polygon fill="#63b8ff" stroke="#63b8ff" points="482.32,-129.02 471.74,-129.42 480.26,-135.71 482.32,-129.02"/>
</a>
</g>
</g>
<!-- Node6 -->
<g id="Node000006" class="node">
<title>Node6</title>
<g id="a_Node000006"><a xlink:href="io__common_8h.html" target="_top" xlink:title=" ">
<polygon fill="white" stroke="#666666" points="727.66,-129.75 653.91,-129.75 653.91,-110.5 727.66,-110.5 727.66,-129.75"/>
<text text-anchor="middle" x="690.78" y="-116.25" font-family="Helvetica,sans-Serif" font-size="10.00">io_common.h</text>
</a>
</g>
</g>
<!-- Node3&#45;&gt;Node6 -->
<g id="edge6_Node000003_Node000006" class="edge">
<title>Node3&#45;&gt;Node6</title>
<g id="a_edge6_Node000003_Node000006"><a xlink:title=" ">
<path fill="none" stroke="#63b8ff" d="M630.17,-165.34C640.93,-157.49 656.75,-145.95 669.54,-136.62"/>
<polygon fill="#63b8ff" stroke="#63b8ff" points="671.34,-139.64 677.36,-130.92 667.22,-133.98 671.34,-139.64"/>
</a>
</g>
</g>
<!-- Node9 -->
<g id="Node000009" class="node">
<title>Node9</title>
<g id="a_Node000009"><a xlink:href="iox__stat_8h.html" target="_top" xlink:title=" ">
<polygon fill="white" stroke="#666666" points="803.41,-129.75 746.16,-129.75 746.16,-110.5 803.41,-110.5 803.41,-129.75"/>
<text text-anchor="middle" x="774.78" y="-116.25" font-family="Helvetica,sans-Serif" font-size="10.00">iox_stat.h</text>
</a>
</g>
</g>
<!-- Node3&#45;&gt;Node9 -->
<g id="edge9_Node000003_Node000009" class="edge">
<title>Node3&#45;&gt;Node9</title>
<g id="a_edge9_Node000003_Node000009"><a xlink:title=" ">
<path fill="none" stroke="#63b8ff" d="M644.42,-165.34C669.9,-156.7 708.59,-143.57 737.21,-133.87"/>
<polygon fill="#63b8ff" stroke="#63b8ff" points="738.24,-137.22 746.59,-130.69 735.99,-130.59 738.24,-137.22"/>
</a>
</g>
</g>
<!-- Node7 -->
<g id="Node000007" class="node">
<title>Node7</title>
<g id="a_Node000007"><a xlink:href="fcntl_8h_source.html" target="_top" xlink:title=" ">
<polygon fill="white" stroke="#666666" points="639.91,-74.5 579.66,-74.5 579.66,-55.25 639.91,-55.25 639.91,-74.5"/>
<text text-anchor="middle" x="609.78" y="-61" font-family="Helvetica,sans-Serif" font-size="10.00">sys/fcntl.h</text>
</a>
</g>
</g>
<!-- Node6&#45;&gt;Node7 -->
<g id="edge7_Node000006_Node000007" class="edge">
<title>Node6&#45;&gt;Node7</title>
<g id="a_edge7_Node000006_Node000007"><a xlink:title=" ">
<path fill="none" stroke="#63b8ff" d="M677.04,-110.09C665.06,-102.21 647.41,-90.61 633.2,-81.27"/>
<polygon fill="#63b8ff" stroke="#63b8ff" points="635.13,-78.35 624.86,-75.78 631.29,-84.2 635.13,-78.35"/>
</a>
</g>
</g>
<!-- Node8 -->
<g id="Node000008" class="node">
<title>Node8</title>
<g id="a_Node000008"><a xlink:href="unistd_8h_source.html" target="_top" xlink:title=" ">
<polygon fill="white" stroke="#666666" points="725.66,-74.5 657.91,-74.5 657.91,-55.25 725.66,-55.25 725.66,-74.5"/>
<text text-anchor="middle" x="691.78" y="-61" font-family="Helvetica,sans-Serif" font-size="10.00">sys/unistd.h</text>
</a>
</g>
</g>
<!-- Node6&#45;&gt;Node8 -->
<g id="edge8_Node000006_Node000008" class="edge">
<title>Node6&#45;&gt;Node8</title>
<g id="a_edge8_Node000006_Node000008"><a xlink:title=" ">
<path fill="none" stroke="#63b8ff" d="M690.95,-110.33C691.07,-103.82 691.24,-94.67 691.4,-86.37"/>
<polygon fill="#63b8ff" stroke="#63b8ff" points="694.9,-86.44 691.59,-76.37 687.9,-86.3 694.9,-86.44"/>
</a>
</g>
</g>
<!-- Node10 -->
<g id="Node000010" class="node">
<title>Node10</title>
<g id="a_Node000010"><a xlink:href="time_8h.html" target="_top" xlink:title=" ">
<polygon fill="white" stroke="#666666" points="804.91,-74.5 744.66,-74.5 744.66,-55.25 804.91,-55.25 804.91,-74.5"/>
<text text-anchor="middle" x="774.78" y="-61" font-family="Helvetica,sans-Serif" font-size="10.00">sys/time.h</text>
</a>
</g>
</g>
<!-- Node9&#45;&gt;Node10 -->
<g id="edge10_Node000009_Node000010" class="edge">
<title>Node9&#45;&gt;Node10</title>
<g id="a_edge10_Node000009_Node000010"><a xlink:title=" ">
<path fill="none" stroke="#63b8ff" d="M774.78,-110.33C774.78,-103.82 774.78,-94.67 774.78,-86.37"/>
<polygon fill="#63b8ff" stroke="#63b8ff" points="778.28,-86.37 774.78,-76.37 771.28,-86.37 778.28,-86.37"/>
</a>
</g>
</g>
<!-- Node11&#45;&gt;Node2 -->
<g id="edge12_Node000011_Node000002" class="edge">
<title>Node11&#45;&gt;Node2</title>
<g id="a_edge12_Node000011_Node000002"><a xlink:title=" ">
<path fill="none" stroke="#63b8ff" d="M146.02,-165.34C167.97,-156.81 201.13,-143.92 226,-134.26"/>
<polygon fill="#63b8ff" stroke="#63b8ff" points="226.97,-137.64 235.02,-130.75 224.43,-131.11 226.97,-137.64"/>
</a>
</g>
</g>
<!-- Node12 -->
<g id="Node000012" class="node">
<title>Node12</title>
<g id="a_Node000012"><a xlink:href="irx_8h.html" target="_top" xlink:title=" ">
<polygon fill="white" stroke="#666666" points="348.41,-129.75 315.16,-129.75 315.16,-110.5 348.41,-110.5 348.41,-129.75"/>
<text text-anchor="middle" x="331.78" y="-116.25" font-family="Helvetica,sans-Serif" font-size="10.00">irx.h</text>
</a>
</g>
</g>
<!-- Node11&#45;&gt;Node12 -->
<g id="edge13_Node000011_Node000012" class="edge">
<title>Node11&#45;&gt;Node12</title>
<g id="a_edge13_Node000011_Node000012"><a xlink:title=" ">
<path fill="none" stroke="#63b8ff" d="M153.17,-166.63C193.6,-156.33 264.51,-138.27 303.72,-128.28"/>
<polygon fill="#63b8ff" stroke="#63b8ff" points="304.51,-131.69 313.34,-125.82 302.78,-124.9 304.51,-131.69"/>
</a>
</g>
</g>
<!-- Node13 -->
<g id="Node000013" class="node">
<title>Node13</title>
<g id="a_Node000013"><a xlink:href="iop_2kernel_2include_2types_8h_source.html" target="_top" xlink:title=" ">
<polygon fill="white" stroke="#666666" points="370.16,-74.5 323.41,-74.5 323.41,-55.25 370.16,-55.25 370.16,-74.5"/>
<text text-anchor="middle" x="346.78" y="-61" font-family="Helvetica,sans-Serif" font-size="10.00">types.h</text>
</a>
</g>
</g>
<!-- Node12&#45;&gt;Node13 -->
<g id="edge14_Node000012_Node000013" class="edge">
<title>Node12&#45;&gt;Node13</title>
<g id="a_edge14_Node000012_Node000013"><a xlink:title=" ">
<path fill="none" stroke="#63b8ff" d="M334.26,-110.33C336.14,-103.67 338.79,-94.24 341.18,-85.78"/>
<polygon fill="#63b8ff" stroke="#63b8ff" points="344.5,-86.89 343.84,-76.32 337.76,-84.99 344.5,-86.89"/>
</a>
</g>
</g>
<!-- Node14 -->
<g id="Node000014" class="node">
<title>Node14</title>
<g id="a_Node000014"><a xlink:title=" ">
<polygon fill="#e0e0e0" stroke="#999999" points="372.03,-19.25 321.53,-19.25 321.53,0 372.03,0 372.03,-19.25"/>
<text text-anchor="middle" x="346.78" y="-5.75" font-family="Helvetica,sans-Serif" font-size="10.00">stddef.h</text>
</a>
</g>
</g>
<!-- Node13&#45;&gt;Node14 -->
<g id="edge15_Node000013_Node000014" class="edge">
<title>Node13&#45;&gt;Node14</title>
<g id="a_edge15_Node000013_Node000014"><a xlink:title=" ">
<path fill="none" stroke="#63b8ff" d="M346.78,-55.08C346.78,-48.57 346.78,-39.42 346.78,-31.12"/>
<polygon fill="#63b8ff" stroke="#63b8ff" points="350.28,-31.12 346.78,-21.12 343.28,-31.12 350.28,-31.12"/>
</a>
</g>
</g>
<!-- Node15 -->
<g id="Node000015" class="node">
<title>Node15</title>
<g id="a_Node000015"><a xlink:href="tamtypes_8h.html" target="_top" xlink:title=" ">
<polygon fill="white" stroke="#666666" points="475.41,-19.25 412.16,-19.25 412.16,0 475.41,0 475.41,-19.25"/>
<text text-anchor="middle" x="443.78" y="-5.75" font-family="Helvetica,sans-Serif" font-size="10.00">tamtypes.h</text>
</a>
</g>
</g>
<!-- Node13&#45;&gt;Node15 -->
<g id="edge16_Node000013_Node000015" class="edge">
<title>Node13&#45;&gt;Node15</title>
<g id="a_edge16_Node000013_Node000015"><a xlink:title=" ">
<path fill="none" stroke="#63b8ff" d="M363.24,-54.84C378.01,-46.73 399.96,-34.68 417.22,-25.21"/>
<polygon fill="#63b8ff" stroke="#63b8ff" points="418.84,-28.31 425.92,-20.43 415.47,-22.18 418.84,-28.31"/>
</a>
</g>
</g>
<!-- Node16&#45;&gt;Node5 -->
<g id="edge18_Node000016_Node000005" class="edge">
<title>Node16&#45;&gt;Node5</title>
<g id="a_edge18_Node000016_Node000005"><a xlink:title=" ">
<path fill="none" stroke="#63b8ff" d="M472.33,-165.58C468.01,-158.61 461.82,-148.62 456.4,-139.87"/>
<polygon fill="#63b8ff" stroke="#63b8ff" points="459.39,-138.05 451.15,-131.4 453.44,-141.74 459.39,-138.05"/>
</a>
</g>
</g>
<!-- Node16&#45;&gt;Node12 -->
<g id="edge19_Node000016_Node000012" class="edge">
<title>Node16&#45;&gt;Node12</title>
<g id="a_edge19_Node000016_Node000012"><a xlink:title=" ">
<path fill="none" stroke="#63b8ff" d="M455.29,-166.17C429.42,-156.74 386.95,-141.24 359.17,-131.11"/>
<polygon fill="#63b8ff" stroke="#63b8ff" points="360.63,-127.92 350.03,-127.78 358.23,-134.5 360.63,-127.92"/>
</a>
</g>
</g>
<!-- Node19&#45;&gt;Node2 -->
<g id="edge23_Node000019_Node000002" class="edge">
<title>Node19&#45;&gt;Node2</title>
<g id="a_edge23_Node000019_Node000002"><a xlink:title=" ">
<path fill="none" stroke="#63b8ff" d="M517.7,-167.7C514.69,-167.02 511.68,-166.35 508.78,-165.75 419.08,-147.07 395.93,-146.19 305.78,-129.75 302.19,-129.09 298.43,-128.4 294.69,-127.71"/>
<polygon fill="#63b8ff" stroke="#63b8ff" points="295.61,-124.32 285.14,-125.92 294.33,-131.2 295.61,-124.32"/>
</a>
</g>
</g>
<!-- Node19&#45;&gt;Node5 -->
<g id="edge25_Node000019_Node000005" class="edge">
<title>Node19&#45;&gt;Node5</title>
<g id="a_edge25_Node000019_Node000005"><a xlink:title=" ">
<path fill="none" stroke="#63b8ff" d="M527.82,-165.34C512.52,-157.19 489.75,-145.07 471.92,-135.58"/>
<polygon fill="#63b8ff" stroke="#63b8ff" points="473.64,-132.52 463.17,-130.91 470.35,-138.7 473.64,-132.52"/>
</a>
</g>
</g>
<!-- Node19&#45;&gt;Node12 -->
<g id="edge24_Node000019_Node000012" class="edge">
<title>Node19&#45;&gt;Node12</title>
<g id="a_edge24_Node000019_Node000012"><a xlink:title=" ">
<path fill="none" stroke="#63b8ff" d="M517.81,-167.63C477.26,-157.49 400.97,-138.42 359.81,-128.13"/>
<polygon fill="#63b8ff" stroke="#63b8ff" points="360.74,-124.76 350.19,-125.73 359.04,-131.55 360.74,-124.76"/>
</a>
</g>
</g>
<!-- Node20 -->
<g id="Node000020" class="node">
<title>Node20</title>
<g id="a_Node000020"><a xlink:href="setjmp_8h.html" target="_top" xlink:title=" ">
<polygon fill="white" stroke="#666666" points="481.16,-74.5 428.41,-74.5 428.41,-55.25 481.16,-55.25 481.16,-74.5"/>
<text text-anchor="middle" x="454.78" y="-61" font-family="Helvetica,sans-Serif" font-size="10.00">setjmp.h</text>
</a>
</g>
</g>
<!-- Node19&#45;&gt;Node20 -->
<g id="edge26_Node000019_Node000020" class="edge">
<title>Node19&#45;&gt;Node20</title>
<g id="a_edge26_Node000019_Node000020"><a xlink:title=" ">
<path fill="none" stroke="#63b8ff" d="M537.42,-165.5C522.58,-147.61 488.87,-106.97 469.4,-83.5"/>
<polygon fill="#63b8ff" stroke="#63b8ff" points="472.29,-81.5 463.22,-76.04 466.91,-85.97 472.29,-81.5"/>
</a>
</g>
</g>
<!-- Node21 -->
<g id="Node000021" class="node">
<title>Node21</title>
<g id="a_Node000021"><a xlink:href="ctype_8h.html" target="_top" xlink:title=" ">
<polygon fill="white" stroke="#666666" points="572.16,-129.75 525.41,-129.75 525.41,-110.5 572.16,-110.5 572.16,-129.75"/>
<text text-anchor="middle" x="548.78" y="-116.25" font-family="Helvetica,sans-Serif" font-size="10.00">ctype.h</text>
</a>
</g>
</g>
<!-- Node19&#45;&gt;Node21 -->
<g id="edge28_Node000019_Node000021" class="edge">
<title>Node19&#45;&gt;Node21</title>
<g id="a_edge28_Node000019_Node000021"><a xlink:title=" ">
<path fill="none" stroke="#63b8ff" d="M545.44,-165.58C545.94,-158.99 546.64,-149.71 547.27,-141.32"/>
<polygon fill="#63b8ff" stroke="#63b8ff" points="550.74,-141.85 547.99,-131.62 543.76,-141.33 550.74,-141.85"/>
</a>
</g>
</g>
<!-- Node20&#45;&gt;Node15 -->
<g id="edge27_Node000020_Node000015" class="edge">
<title>Node20&#45;&gt;Node15</title>
<g id="a_edge27_Node000020_Node000015"><a xlink:title=" ">
<path fill="none" stroke="#63b8ff" d="M452.97,-55.08C451.61,-48.49 449.69,-39.21 447.96,-30.82"/>
<polygon fill="#63b8ff" stroke="#63b8ff" points="451.4,-30.18 445.95,-21.09 444.54,-31.59 451.4,-30.18"/>
</a>
</g>
</g>
<!-- Node22&#45;&gt;Node2 -->
<g id="edge30_Node000022_Node000002" class="edge">
<title>Node22&#45;&gt;Node2</title>
<g id="a_edge30_Node000022_Node000002"><a xlink:title=" ">
<path fill="none" stroke="#63b8ff" d="M382.68,-165.34C358.32,-156.58 321.18,-143.21 294.1,-133.47"/>
<polygon fill="#63b8ff" stroke="#63b8ff" points="295.56,-130.28 284.97,-130.19 293.19,-136.86 295.56,-130.28"/>
</a>
</g>
</g>
<!-- Node22&#45;&gt;Node5 -->
<g id="edge32_Node000022_Node000005" class="edge">
<title>Node22&#45;&gt;Node5</title>
<g id="a_edge32_Node000022_Node000005"><a xlink:title=" ">
<path fill="none" stroke="#63b8ff" d="M413.89,-165.58C418.84,-158.46 425.99,-148.18 432.16,-139.3"/>
<polygon fill="#63b8ff" stroke="#63b8ff" points="434.84,-141.56 437.68,-131.35 429.1,-137.57 434.84,-141.56"/>
</a>
</g>
</g>
<!-- Node22&#45;&gt;Node12 -->
<g id="edge31_Node000022_Node000012" class="edge">
<title>Node22&#45;&gt;Node12</title>
<g id="a_edge31_Node000022_Node000012"><a xlink:title=" ">
<path fill="none" stroke="#63b8ff" d="M394.89,-165.34C383.75,-157.54 367.41,-146.09 354.14,-136.79"/>
<polygon fill="#63b8ff" stroke="#63b8ff" points="356.18,-133.94 345.98,-131.07 352.16,-139.68 356.18,-133.94"/>
</a>
</g>
</g>
<!-- Node23&#45;&gt;Node2 -->
<g id="edge34_Node000023_Node000002" class="edge">
<title>Node23&#45;&gt;Node2</title>
<g id="a_edge34_Node000023_Node000002"><a xlink:title=" ">
<path fill="none" stroke="#63b8ff" d="M204.15,-165.34C213.83,-157.65 227.98,-146.4 239.59,-137.18"/>
<polygon fill="#63b8ff" stroke="#63b8ff" points="241.75,-139.93 247.4,-130.97 237.39,-134.45 241.75,-139.93"/>
</a>
</g>
</g>
<!-- Node23&#45;&gt;Node12 -->
<g id="edge35_Node000023_Node000012" class="edge">
<title>Node23&#45;&gt;Node12</title>
<g id="a_edge35_Node000023_Node000012"><a xlink:title=" ">
<path fill="none" stroke="#63b8ff" d="M215.43,-165.7C239.68,-156.41 278.2,-141.65 304.21,-131.69"/>
<polygon fill="#63b8ff" stroke="#63b8ff" points="305.34,-135 313.43,-128.16 302.84,-128.46 305.34,-135"/>
</a>
</g>
</g>
<!-- Node24&#45;&gt;Node23 -->
<g id="edge37_Node000024_Node000023" class="edge">
<title>Node24&#45;&gt;Node23</title>
<g id="a_edge37_Node000024_Node000023"><a xlink:title=" ">
<path fill="none" stroke="#63b8ff" d="M190.28,-220.83C190.65,-214.24 191.17,-204.96 191.65,-196.57"/>
<polygon fill="#63b8ff" stroke="#63b8ff" points="195.12,-197.05 192.19,-186.87 188.13,-196.66 195.12,-197.05"/>
</a>
</g>
</g>
<!-- Node25&#45;&gt;Node2 -->
<g id="edge39_Node000025_Node000002" class="edge">
<title>Node25&#45;&gt;Node2</title>
<g id="a_edge39_Node000025_Node000002"><a xlink:title=" ">
<path fill="none" stroke="#63b8ff" d="M259.78,-165.58C259.78,-159.07 259.78,-149.92 259.78,-141.62"/>
<polygon fill="#63b8ff" stroke="#63b8ff" points="263.28,-141.62 259.78,-131.62 256.28,-141.62 263.28,-141.62"/>
</a>
</g>
</g>
<!-- Node25&#45;&gt;Node12 -->
<g id="edge40_Node000025_Node000012" class="edge">
<title>Node25&#45;&gt;Node12</title>
<g id="a_edge40_Node000025_Node000012"><a xlink:title=" ">
<path fill="none" stroke="#63b8ff" d="M272,-165.34C282.61,-157.49 298.22,-145.95 310.83,-136.62"/>
<polygon fill="#63b8ff" stroke="#63b8ff" points="312.57,-139.69 318.53,-130.92 308.41,-134.06 312.57,-139.69"/>
</a>
</g>
</g>
<!-- Node26&#45;&gt;Node2 -->
<g id="edge42_Node000026_Node000002" class="edge">
<title>Node26&#45;&gt;Node2</title>
<g id="a_edge42_Node000026_Node000002"><a xlink:title=" ">
<path fill="none" stroke="#63b8ff" d="M319.57,-165.34C308.95,-157.49 293.35,-145.95 280.74,-136.62"/>
<polygon fill="#63b8ff" stroke="#63b8ff" points="283.15,-134.06 273.03,-130.92 278.99,-139.69 283.15,-134.06"/>
</a>
</g>
</g>
<!-- Node26&#45;&gt;Node12 -->
<g id="edge43_Node000026_Node000012" class="edge">
<title>Node26&#45;&gt;Node12</title>
<g id="a_edge43_Node000026_Node000012"><a xlink:title=" ">
<path fill="none" stroke="#63b8ff" d="M331.78,-165.58C331.78,-159.07 331.78,-149.92 331.78,-141.62"/>
<polygon fill="#63b8ff" stroke="#63b8ff" points="335.28,-141.62 331.78,-131.62 328.28,-141.62 335.28,-141.62"/>
</a>
</g>
</g>
<!-- Node27&#45;&gt;Node2 -->
<g id="edge45_Node000027_Node000002" class="edge">
<title>Node27&#45;&gt;Node2</title>
<g id="a_edge45_Node000027_Node000002"><a xlink:title=" ">
<path fill="none" stroke="#63b8ff" d="M74.73,-166.75C114.61,-156.91 183.73,-139.87 225.27,-129.63"/>
<polygon fill="#63b8ff" stroke="#63b8ff" points="225.87,-133.09 234.74,-127.3 224.19,-126.29 225.87,-133.09"/>
</a>
</g>
</g>
<!-- Node27&#45;&gt;Node12 -->
<g id="edge46_Node000027_Node000012" class="edge">
<title>Node27&#45;&gt;Node12</title>
<g id="a_edge46_Node000027_Node000012"><a xlink:title=" ">
<path fill="none" stroke="#63b8ff" d="M74.77,-167.56C77.81,-166.93 80.85,-166.32 83.78,-165.75 175.88,-147.86 199.69,-147.64 291.78,-129.75 295.67,-129 299.75,-128.16 303.77,-127.32"/>
<polygon fill="#63b8ff" stroke="#63b8ff" points="304.16,-130.81 313.21,-125.29 302.69,-123.97 304.16,-130.81"/>
</a>
</g>
</g>
</g>
</svg>
