<?xml version="1.0" encoding="UTF-8" standalone="no"?>
<!DOCTYPE svg PUBLIC "-//W3C//DTD SVG 1.1//EN"
 "http://www.w3.org/Graphics/SVG/1.1/DTD/svg11.dtd">
<!-- Generated by graphviz version 12.2.0 (20241103.1931)
 -->
<!-- Title: iop/fs/netfs/src/ps2netfs.c Pages: 1 -->
<svg width="670pt" height="304pt"
 viewBox="0.00 0.00 669.50 303.50" xmlns="http://www.w3.org/2000/svg" xmlns:xlink="http://www.w3.org/1999/xlink">
<g id="graph0" class="graph" transform="scale(1 1) rotate(0) translate(4 299.5)">
<title>iop/fs/netfs/src/ps2netfs.c</title>
<!-- Node1 -->
<g id="Node000001" class="node">
<title>Node1</title>
<g id="a_Node000001"><a xlink:title=" ">
<polygon fill="#999999" stroke="#666666" points="405.75,-295.5 276.5,-295.5 276.5,-276.25 405.75,-276.25 405.75,-295.5"/>
<text text-anchor="middle" x="341.12" y="-282" font-family="Helvetica,sans-Serif" font-size="10.00">iop/fs/netfs/src/ps2netfs.c</text>
</a>
</g>
</g>
<!-- Node2 -->
<g id="Node000002" class="node">
<title>Node2</title>
<g id="a_Node000002"><a xlink:title=" ">
<polygon fill="#e0e0e0" stroke="#999999" points="356.5,-129.75 309.75,-129.75 309.75,-110.5 356.5,-110.5 356.5,-129.75"/>
<text text-anchor="middle" x="333.12" y="-116.25" font-family="Helvetica,sans-Serif" font-size="10.00">types.h</text>
</a>
</g>
</g>
<!-- Node1&#45;&gt;Node2 -->
<g id="edge1_Node000001_Node000002" class="edge">
<title>Node1&#45;&gt;Node2</title>
<g id="a_edge1_Node000001_Node000002"><a xlink:title=" ">
<path fill="none" stroke="#63b8ff" d="M343.19,-276.05C345.16,-267.09 348.01,-252.79 349.12,-240.25 352.24,-205.19 344.31,-164.61 338.53,-141.01"/>
<polygon fill="#63b8ff" stroke="#63b8ff" points="341.97,-140.33 336.08,-131.53 335.19,-142.08 341.97,-140.33"/>
</a>
</g>
</g>
<!-- Node3 -->
<g id="Node000003" class="node">
<title>Node3</title>
<g id="a_Node000003"><a xlink:href="defs_8h.html" target="_top" xlink:title=" ">
<polygon fill="white" stroke="#666666" points="42.25,-185 0,-185 0,-165.75 42.25,-165.75 42.25,-185"/>
<text text-anchor="middle" x="21.12" y="-171.5" font-family="Helvetica,sans-Serif" font-size="10.00">defs.h</text>
</a>
</g>
</g>
<!-- Node1&#45;&gt;Node3 -->
<g id="edge2_Node000001_Node000003" class="edge">
<title>Node1&#45;&gt;Node3</title>
<g id="a_edge2_Node000001_Node000003"><a xlink:title=" ">
<path fill="none" stroke="#63b8ff" d="M276.1,-281.3C203.2,-276.16 90.65,-264.51 56.12,-240.25 41.09,-229.69 31.85,-210.54 26.66,-195.95"/>
<polygon fill="#63b8ff" stroke="#63b8ff" points="30.03,-194.98 23.68,-186.5 23.35,-197.09 30.03,-194.98"/>
</a>
</g>
</g>
<!-- Node7 -->
<g id="Node000007" class="node">
<title>Node7</title>
<g id="a_Node000007"><a xlink:href="irx_8h.html" target="_top" xlink:title=" ">
<polygon fill="white" stroke="#666666" points="221.75,-129.75 188.5,-129.75 188.5,-110.5 221.75,-110.5 221.75,-129.75"/>
<text text-anchor="middle" x="205.12" y="-116.25" font-family="Helvetica,sans-Serif" font-size="10.00">irx.h</text>
</a>
</g>
</g>
<!-- Node1&#45;&gt;Node7 -->
<g id="edge6_Node000001_Node000007" class="edge">
<title>Node1&#45;&gt;Node7</title>
<g id="a_edge6_Node000001_Node000007"><a xlink:title=" ">
<path fill="none" stroke="#63b8ff" d="M276.04,-282.82C211.64,-276.65 118.54,-255.34 89.12,-185 73.09,-146.65 137.56,-130.61 176.82,-124.5"/>
<polygon fill="#63b8ff" stroke="#63b8ff" points="177.17,-127.98 186.58,-123.11 176.19,-121.05 177.17,-127.98"/>
</a>
</g>
</g>
<!-- Node8 -->
<g id="Node000008" class="node">
<title>Node8</title>
<g id="a_Node000008"><a xlink:href="loadcore_8h.html" target="_top" xlink:title=" ">
<polygon fill="white" stroke="#666666" points="264.25,-185 204,-185 204,-165.75 264.25,-165.75 264.25,-185"/>
<text text-anchor="middle" x="234.12" y="-171.5" font-family="Helvetica,sans-Serif" font-size="10.00">loadcore.h</text>
</a>
</g>
</g>
<!-- Node1&#45;&gt;Node8 -->
<g id="edge8_Node000001_Node000008" class="edge">
<title>Node1&#45;&gt;Node8</title>
<g id="a_edge8_Node000001_Node000008"><a xlink:title=" ">
<path fill="none" stroke="#63b8ff" d="M325.76,-275.86C312.51,-267.62 293.31,-254.58 279.12,-240.25 265.57,-226.56 253.2,-208.4 244.88,-194.94"/>
<polygon fill="#63b8ff" stroke="#63b8ff" points="248.05,-193.41 239.9,-186.63 242.04,-197.01 248.05,-193.41"/>
</a>
</g>
</g>
<!-- Node9 -->
<g id="Node000009" class="node">
<title>Node9</title>
<g id="a_Node000009"><a xlink:href="ioman_8h.html" target="_top" xlink:title=" ">
<polygon fill="white" stroke="#666666" points="446,-185 396.25,-185 396.25,-165.75 446,-165.75 446,-185"/>
<text text-anchor="middle" x="421.12" y="-171.5" font-family="Helvetica,sans-Serif" font-size="10.00">ioman.h</text>
</a>
</g>
</g>
<!-- Node1&#45;&gt;Node9 -->
<g id="edge11_Node000001_Node000009" class="edge">
<title>Node1&#45;&gt;Node9</title>
<g id="a_edge11_Node000001_Node000009"><a xlink:title=" ">
<path fill="none" stroke="#63b8ff" d="M350.49,-275.77C359.19,-267.06 372.25,-253.36 382.12,-240.25 393,-225.82 403.57,-208.22 410.95,-195.15"/>
<polygon fill="#63b8ff" stroke="#63b8ff" points="413.83,-197.17 415.61,-186.73 407.71,-193.78 413.83,-197.17"/>
</a>
</g>
</g>
<!-- Node14 -->
<g id="Node000014" class="node">
<title>Node14</title>
<g id="a_Node000014"><a xlink:href="stdio_8h.html" target="_top" xlink:title=" ">
<polygon fill="white" stroke="#666666" points="198.38,-240.25 153.88,-240.25 153.88,-221 198.38,-221 198.38,-240.25"/>
<text text-anchor="middle" x="176.12" y="-226.75" font-family="Helvetica,sans-Serif" font-size="10.00">stdio.h</text>
</a>
</g>
</g>
<!-- Node1&#45;&gt;Node14 -->
<g id="edge18_Node000001_Node000014" class="edge">
<title>Node1&#45;&gt;Node14</title>
<g id="a_edge18_Node000001_Node000014"><a xlink:title=" ">
<path fill="none" stroke="#63b8ff" d="M313.13,-275.84C284.52,-266.61 240.06,-252.26 209.6,-242.43"/>
<polygon fill="#63b8ff" stroke="#63b8ff" points="210.71,-239.11 200.11,-239.37 208.56,-245.77 210.71,-239.11"/>
</a>
</g>
</g>
<!-- Node16 -->
<g id="Node000016" class="node">
<title>Node16</title>
<g id="a_Node000016"><a xlink:href="iopmgr_8h.html" target="_top" xlink:title=" ">
<polygon fill="white" stroke="#666666" points="340.5,-240.25 287.75,-240.25 287.75,-221 340.5,-221 340.5,-240.25"/>
<text text-anchor="middle" x="314.12" y="-226.75" font-family="Helvetica,sans-Serif" font-size="10.00">iopmgr.h</text>
</a>
</g>
</g>
<!-- Node1&#45;&gt;Node16 -->
<g id="edge21_Node000001_Node000016" class="edge">
<title>Node1&#45;&gt;Node16</title>
<g id="a_edge21_Node000001_Node000016"><a xlink:title=" ">
<path fill="none" stroke="#63b8ff" d="M336.67,-276.08C333.17,-269.19 328.18,-259.34 323.78,-250.66"/>
<polygon fill="#63b8ff" stroke="#63b8ff" points="327.01,-249.3 319.36,-241.96 320.77,-252.46 327.01,-249.3"/>
</a>
</g>
</g>
<!-- Node17 -->
<g id="Node000017" class="node">
<title>Node17</title>
<g id="a_Node000017"><a xlink:href="ps2__fio_8h.html" target="_top" xlink:title=" ">
<polygon fill="white" stroke="#666666" points="488.25,-240.25 434,-240.25 434,-221 488.25,-221 488.25,-240.25"/>
<text text-anchor="middle" x="461.12" y="-226.75" font-family="Helvetica,sans-Serif" font-size="10.00">ps2_fio.h</text>
</a>
</g>
</g>
<!-- Node1&#45;&gt;Node17 -->
<g id="edge26_Node000001_Node000017" class="edge">
<title>Node1&#45;&gt;Node17</title>
<g id="a_edge26_Node000001_Node000017"><a xlink:title=" ">
<path fill="none" stroke="#63b8ff" d="M361.48,-275.84C380.36,-267.47 408.71,-254.88 430.35,-245.28"/>
<polygon fill="#63b8ff" stroke="#63b8ff" points="431.56,-248.57 439.29,-241.32 428.73,-242.17 431.56,-248.57"/>
</a>
</g>
</g>
<!-- Node18 -->
<g id="Node000018" class="node">
<title>Node18</title>
<g id="a_Node000018"><a xlink:href="devscan_8h.html" target="_top" xlink:title=" ">
<polygon fill="white" stroke="#666666" points="566.25,-240.25 506,-240.25 506,-221 566.25,-221 566.25,-240.25"/>
<text text-anchor="middle" x="536.12" y="-226.75" font-family="Helvetica,sans-Serif" font-size="10.00">devscan.h</text>
</a>
</g>
</g>
<!-- Node1&#45;&gt;Node18 -->
<g id="edge27_Node000001_Node000018" class="edge">
<title>Node1&#45;&gt;Node18</title>
<g id="a_edge27_Node000001_Node000018"><a xlink:title=" ">
<path fill="none" stroke="#63b8ff" d="M374.2,-275.84C407.44,-266.77 458.76,-252.75 494.69,-242.94"/>
<polygon fill="#63b8ff" stroke="#63b8ff" points="495.59,-246.32 504.31,-240.31 493.75,-239.57 495.59,-246.32"/>
</a>
</g>
</g>
<!-- Node19 -->
<g id="Node000019" class="node">
<title>Node19</title>
<g id="a_Node000019"><a xlink:href="fs_2netfs_2src_2debug__printf_8h_source.html" target="_top" xlink:title=" ">
<polygon fill="white" stroke="#666666" points="661.5,-240.25 584.75,-240.25 584.75,-221 661.5,-221 661.5,-240.25"/>
<text text-anchor="middle" x="623.12" y="-226.75" font-family="Helvetica,sans-Serif" font-size="10.00">debug_printf.h</text>
</a>
</g>
</g>
<!-- Node1&#45;&gt;Node19 -->
<g id="edge28_Node000001_Node000019" class="edge">
<title>Node1&#45;&gt;Node19</title>
<g id="a_edge28_Node000001_Node000019"><a xlink:title=" ">
<path fill="none" stroke="#63b8ff" d="M389.28,-275.78C440.62,-266.09 521.5,-250.81 573.42,-241.01"/>
<polygon fill="#63b8ff" stroke="#63b8ff" points="574.01,-244.46 583.19,-239.17 572.72,-237.58 574.01,-244.46"/>
</a>
</g>
</g>
<!-- Node4 -->
<g id="Node000004" class="node">
<title>Node4</title>
<g id="a_Node000004"><a xlink:href="iop_2kernel_2include_2types_8h_source.html" target="_top" xlink:title=" ">
<polygon fill="white" stroke="#666666" points="164.5,-74.5 117.75,-74.5 117.75,-55.25 164.5,-55.25 164.5,-74.5"/>
<text text-anchor="middle" x="141.12" y="-61" font-family="Helvetica,sans-Serif" font-size="10.00">types.h</text>
</a>
</g>
</g>
<!-- Node3&#45;&gt;Node4 -->
<g id="edge3_Node000003_Node000004" class="edge">
<title>Node3&#45;&gt;Node4</title>
<g id="a_edge3_Node000003_Node000004"><a xlink:title=" ">
<path fill="none" stroke="#63b8ff" d="M30.95,-165.5C50.99,-147.38 96.88,-105.88 122.66,-82.57"/>
<polygon fill="#63b8ff" stroke="#63b8ff" points="124.98,-85.19 130.05,-75.89 120.28,-80 124.98,-85.19"/>
</a>
</g>
</g>
<!-- Node5 -->
<g id="Node000005" class="node">
<title>Node5</title>
<g id="a_Node000005"><a xlink:title=" ">
<polygon fill="#e0e0e0" stroke="#999999" points="129.38,-19.25 78.88,-19.25 78.88,0 129.38,0 129.38,-19.25"/>
<text text-anchor="middle" x="104.12" y="-5.75" font-family="Helvetica,sans-Serif" font-size="10.00">stddef.h</text>
</a>
</g>
</g>
<!-- Node4&#45;&gt;Node5 -->
<g id="edge4_Node000004_Node000005" class="edge">
<title>Node4&#45;&gt;Node5</title>
<g id="a_edge4_Node000004_Node000005"><a xlink:title=" ">
<path fill="none" stroke="#63b8ff" d="M135.02,-55.08C130.06,-47.96 122.92,-37.68 116.75,-28.8"/>
<polygon fill="#63b8ff" stroke="#63b8ff" points="119.81,-27.07 111.23,-20.85 114.06,-31.06 119.81,-27.07"/>
</a>
</g>
</g>
<!-- Node6 -->
<g id="Node000006" class="node">
<title>Node6</title>
<g id="a_Node000006"><a xlink:href="tamtypes_8h.html" target="_top" xlink:title=" ">
<polygon fill="white" stroke="#666666" points="210.75,-19.25 147.5,-19.25 147.5,0 210.75,0 210.75,-19.25"/>
<text text-anchor="middle" x="179.12" y="-5.75" font-family="Helvetica,sans-Serif" font-size="10.00">tamtypes.h</text>
</a>
</g>
</g>
<!-- Node4&#45;&gt;Node6 -->
<g id="edge5_Node000004_Node000006" class="edge">
<title>Node4&#45;&gt;Node6</title>
<g id="a_edge5_Node000004_Node000006"><a xlink:title=" ">
<path fill="none" stroke="#63b8ff" d="M147.4,-55.08C152.48,-47.96 159.82,-37.68 166.16,-28.8"/>
<polygon fill="#63b8ff" stroke="#63b8ff" points="168.87,-31.01 171.83,-20.84 163.18,-26.95 168.87,-31.01"/>
</a>
</g>
</g>
<!-- Node7&#45;&gt;Node4 -->
<g id="edge7_Node000007_Node000004" class="edge">
<title>Node7&#45;&gt;Node4</title>
<g id="a_edge7_Node000007_Node000004"><a xlink:title=" ">
<path fill="none" stroke="#63b8ff" d="M194.27,-110.09C185.02,-102.4 171.5,-91.15 160.42,-81.93"/>
<polygon fill="#63b8ff" stroke="#63b8ff" points="162.91,-79.45 152.98,-75.74 158.43,-84.83 162.91,-79.45"/>
</a>
</g>
</g>
<!-- Node8&#45;&gt;Node2 -->
<g id="edge9_Node000008_Node000002" class="edge">
<title>Node8&#45;&gt;Node2</title>
<g id="a_edge9_Node000008_Node000002"><a xlink:title=" ">
<path fill="none" stroke="#63b8ff" d="M250.92,-165.34C266.14,-157.16 288.82,-144.96 306.51,-135.44"/>
<polygon fill="#63b8ff" stroke="#63b8ff" points="307.77,-138.74 314.92,-130.92 304.45,-132.57 307.77,-138.74"/>
</a>
</g>
</g>
<!-- Node8&#45;&gt;Node7 -->
<g id="edge10_Node000008_Node000007" class="edge">
<title>Node8&#45;&gt;Node7</title>
<g id="a_edge10_Node000008_Node000007"><a xlink:title=" ">
<path fill="none" stroke="#63b8ff" d="M229.34,-165.58C225.58,-158.69 220.22,-148.84 215.49,-140.16"/>
<polygon fill="#63b8ff" stroke="#63b8ff" points="218.6,-138.55 210.74,-131.44 212.45,-141.89 218.6,-138.55"/>
</a>
</g>
</g>
<!-- Node9&#45;&gt;Node2 -->
<g id="edge13_Node000009_Node000002" class="edge">
<title>Node9&#45;&gt;Node2</title>
<g id="a_edge13_Node000009_Node000002"><a xlink:title=" ">
<path fill="none" stroke="#63b8ff" d="M406.2,-165.34C392.92,-157.31 373.26,-145.41 357.67,-135.98"/>
<polygon fill="#63b8ff" stroke="#63b8ff" points="359.79,-133.17 349.42,-130.99 356.16,-139.16 359.79,-133.17"/>
</a>
</g>
</g>
<!-- Node9&#45;&gt;Node7 -->
<g id="edge14_Node000009_Node000007" class="edge">
<title>Node9&#45;&gt;Node7</title>
<g id="a_edge14_Node000009_Node000007"><a xlink:title=" ">
<path fill="none" stroke="#63b8ff" d="M395.92,-168.16C355.32,-158.15 275.7,-138.52 233.29,-128.07"/>
<polygon fill="#63b8ff" stroke="#63b8ff" points="234.15,-124.68 223.6,-125.68 232.47,-131.47 234.15,-124.68"/>
</a>
</g>
</g>
<!-- Node10 -->
<g id="Node000010" class="node">
<title>Node10</title>
<g id="a_Node000010"><a xlink:href="errno_8h.html" target="_top" xlink:title=" ">
<polygon fill="white" stroke="#666666" points="517.75,-129.75 472.5,-129.75 472.5,-110.5 517.75,-110.5 517.75,-129.75"/>
<text text-anchor="middle" x="495.12" y="-116.25" font-family="Helvetica,sans-Serif" font-size="10.00">errno.h</text>
</a>
</g>
</g>
<!-- Node9&#45;&gt;Node10 -->
<g id="edge12_Node000009_Node000010" class="edge">
<title>Node9&#45;&gt;Node10</title>
<g id="a_edge12_Node000009_Node000010"><a xlink:title=" ">
<path fill="none" stroke="#63b8ff" d="M433.68,-165.34C444.59,-157.49 460.63,-145.95 473.59,-136.62"/>
<polygon fill="#63b8ff" stroke="#63b8ff" points="475.46,-139.59 481.53,-130.91 471.37,-133.91 475.46,-139.59"/>
</a>
</g>
</g>
<!-- Node11 -->
<g id="Node000011" class="node">
<title>Node11</title>
<g id="a_Node000011"><a xlink:href="io__common_8h.html" target="_top" xlink:title=" ">
<polygon fill="white" stroke="#666666" points="454,-129.75 380.25,-129.75 380.25,-110.5 454,-110.5 454,-129.75"/>
<text text-anchor="middle" x="417.12" y="-116.25" font-family="Helvetica,sans-Serif" font-size="10.00">io_common.h</text>
</a>
</g>
</g>
<!-- Node9&#45;&gt;Node11 -->
<g id="edge15_Node000009_Node000011" class="edge">
<title>Node9&#45;&gt;Node11</title>
<g id="a_edge15_Node000009_Node000011"><a xlink:title=" ">
<path fill="none" stroke="#63b8ff" d="M420.46,-165.58C419.97,-158.99 419.27,-149.71 418.64,-141.32"/>
<polygon fill="#63b8ff" stroke="#63b8ff" points="422.15,-141.33 417.91,-131.62 415.17,-141.85 422.15,-141.33"/>
</a>
</g>
</g>
<!-- Node12 -->
<g id="Node000012" class="node">
<title>Node12</title>
<g id="a_Node000012"><a xlink:href="fcntl_8h_source.html" target="_top" xlink:title=" ">
<polygon fill="white" stroke="#666666" points="488.25,-74.5 428,-74.5 428,-55.25 488.25,-55.25 488.25,-74.5"/>
<text text-anchor="middle" x="458.12" y="-61" font-family="Helvetica,sans-Serif" font-size="10.00">sys/fcntl.h</text>
</a>
</g>
</g>
<!-- Node11&#45;&gt;Node12 -->
<g id="edge16_Node000011_Node000012" class="edge">
<title>Node11&#45;&gt;Node12</title>
<g id="a_edge16_Node000011_Node000012"><a xlink:title=" ">
<path fill="none" stroke="#63b8ff" d="M423.9,-110.33C429.44,-103.13 437.47,-92.71 444.35,-83.76"/>
<polygon fill="#63b8ff" stroke="#63b8ff" points="446.96,-86.12 450.28,-76.06 441.41,-81.85 446.96,-86.12"/>
</a>
</g>
</g>
<!-- Node13 -->
<g id="Node000013" class="node">
<title>Node13</title>
<g id="a_Node000013"><a xlink:href="unistd_8h_source.html" target="_top" xlink:title=" ">
<polygon fill="white" stroke="#666666" points="410,-74.5 342.25,-74.5 342.25,-55.25 410,-55.25 410,-74.5"/>
<text text-anchor="middle" x="376.12" y="-61" font-family="Helvetica,sans-Serif" font-size="10.00">sys/unistd.h</text>
</a>
</g>
</g>
<!-- Node11&#45;&gt;Node13 -->
<g id="edge17_Node000011_Node000013" class="edge">
<title>Node11&#45;&gt;Node13</title>
<g id="a_edge17_Node000011_Node000013"><a xlink:title=" ">
<path fill="none" stroke="#63b8ff" d="M410.35,-110.33C404.81,-103.13 396.78,-92.71 389.9,-83.76"/>
<polygon fill="#63b8ff" stroke="#63b8ff" points="392.84,-81.85 383.97,-76.06 387.29,-86.12 392.84,-81.85"/>
</a>
</g>
</g>
<!-- Node14&#45;&gt;Node7 -->
<g id="edge20_Node000014_Node000007" class="edge">
<title>Node14&#45;&gt;Node7</title>
<g id="a_edge20_Node000014_Node000007"><a xlink:title=" ">
<path fill="none" stroke="#63b8ff" d="M178.5,-220.75C183.13,-203.42 193.47,-164.73 199.82,-140.99"/>
<polygon fill="#63b8ff" stroke="#63b8ff" points="203.13,-142.15 202.33,-131.59 196.36,-140.35 203.13,-142.15"/>
</a>
</g>
</g>
<!-- Node15 -->
<g id="Node000015" class="node">
<title>Node15</title>
<g id="a_Node000015"><a xlink:title=" ">
<polygon fill="#e0e0e0" stroke="#999999" points="148.38,-185 97.88,-185 97.88,-165.75 148.38,-165.75 148.38,-185"/>
<text text-anchor="middle" x="123.12" y="-171.5" font-family="Helvetica,sans-Serif" font-size="10.00">stdarg.h</text>
</a>
</g>
</g>
<!-- Node14&#45;&gt;Node15 -->
<g id="edge19_Node000014_Node000015" class="edge">
<title>Node14&#45;&gt;Node15</title>
<g id="a_edge19_Node000014_Node000015"><a xlink:title=" ">
<path fill="none" stroke="#63b8ff" d="M167.37,-220.83C159.98,-213.4 149.16,-202.54 140.08,-193.41"/>
<polygon fill="#63b8ff" stroke="#63b8ff" points="142.67,-191.05 133.13,-186.43 137.71,-195.99 142.67,-191.05"/>
</a>
</g>
</g>
<!-- Node16&#45;&gt;Node2 -->
<g id="edge22_Node000016_Node000002" class="edge">
<title>Node16&#45;&gt;Node2</title>
<g id="a_edge22_Node000016_Node000002"><a xlink:title=" ">
<path fill="none" stroke="#63b8ff" d="M315.68,-220.75C318.7,-203.5 325.43,-165.08 329.59,-141.31"/>
<polygon fill="#63b8ff" stroke="#63b8ff" points="333.01,-142.07 331.29,-131.62 326.12,-140.86 333.01,-142.07"/>
</a>
</g>
</g>
<!-- Node16&#45;&gt;Node7 -->
<g id="edge23_Node000016_Node000007" class="edge">
<title>Node16&#45;&gt;Node7</title>
<g id="a_edge23_Node000016_Node000007"><a xlink:title=" ">
<path fill="none" stroke="#63b8ff" d="M309.84,-220.54C303.3,-207.34 289.81,-182.61 273.12,-165.75 261.09,-153.59 245.22,-142.95 231.84,-135.11"/>
<polygon fill="#63b8ff" stroke="#63b8ff" points="233.95,-132.28 223.52,-130.43 230.51,-138.38 233.95,-132.28"/>
</a>
</g>
</g>
<!-- Node16&#45;&gt;Node8 -->
<g id="edge25_Node000016_Node000008" class="edge">
<title>Node16&#45;&gt;Node8</title>
<g id="a_edge25_Node000016_Node000008"><a xlink:title=" ">
<path fill="none" stroke="#63b8ff" d="M300.55,-220.59C288.72,-212.71 271.29,-201.11 257.25,-191.77"/>
<polygon fill="#63b8ff" stroke="#63b8ff" points="259.29,-188.92 249.02,-186.29 255.41,-194.75 259.29,-188.92"/>
</a>
</g>
</g>
<!-- Node16&#45;&gt;Node9 -->
<g id="edge24_Node000016_Node000009" class="edge">
<title>Node16&#45;&gt;Node9</title>
<g id="a_edge24_Node000016_Node000009"><a xlink:title=" ">
<path fill="none" stroke="#63b8ff" d="M332.28,-220.59C348.8,-212.37 373.47,-200.09 392.62,-190.56"/>
<polygon fill="#63b8ff" stroke="#63b8ff" points="394.14,-193.72 401.53,-186.13 391.02,-187.45 394.14,-193.72"/>
</a>
</g>
</g>
</g>
</svg>
