<?xml version="1.0" encoding="UTF-8" standalone="no"?>
<!DOCTYPE svg PUBLIC "-//W3C//DTD SVG 1.1//EN"
 "http://www.w3.org/Graphics/SVG/1.1/DTD/svg11.dtd">
<!-- Generated by graphviz version 12.2.0 (20241103.1931)
 -->
<!-- Title: iop/fs/netfs/src/ps2netfs.c Pages: 1 -->
<svg width="632pt" height="304pt"
 viewBox="0.00 0.00 631.99 303.50" xmlns="http://www.w3.org/2000/svg" xmlns:xlink="http://www.w3.org/1999/xlink">
<g id="graph0" class="graph" transform="scale(1 1) rotate(0) translate(4 299.5)">
<title>iop/fs/netfs/src/ps2netfs.c</title>
<!-- Node1 -->
<g id="Node000001" class="node">
<title>Node1</title>
<g id="a_Node000001"><a xlink:title=" ">
<polygon fill="#999999" stroke="#666666" points="369.24,-295.5 239.99,-295.5 239.99,-276.25 369.24,-276.25 369.24,-295.5"/>
<text text-anchor="middle" x="304.61" y="-282" font-family="Helvetica,sans-Serif" font-size="10.00">iop/fs/netfs/src/ps2netfs.c</text>
</a>
</g>
</g>
<!-- Node2 -->
<g id="Node000002" class="node">
<title>Node2</title>
<g id="a_Node000002"><a xlink:title=" ">
<polygon fill="#e0e0e0" stroke="#999999" points="58.99,-185 12.24,-185 12.24,-165.75 58.99,-165.75 58.99,-185"/>
<text text-anchor="middle" x="35.61" y="-171.5" font-family="Helvetica,sans-Serif" font-size="10.00">types.h</text>
</a>
</g>
</g>
<!-- Node1&#45;&gt;Node2 -->
<g id="edge1_Node000001_Node000002" class="edge">
<title>Node1&#45;&gt;Node2</title>
<g id="a_edge1_Node000001_Node000002"><a xlink:title=" ">
<path fill="none" stroke="#63b8ff" d="M239.64,-278.26C200.1,-272.29 149.5,-261.09 108.61,-240.25 85.75,-228.6 64.24,-208.19 50.58,-193.57"/>
<polygon fill="#63b8ff" stroke="#63b8ff" points="53.46,-191.54 44.15,-186.47 48.27,-196.24 53.46,-191.54"/>
</a>
</g>
</g>
<!-- Node3 -->
<g id="Node000003" class="node">
<title>Node3</title>
<g id="a_Node000003"><a xlink:href="defs_8h.html" target="_top" xlink:title=" ">
<polygon fill="white" stroke="#666666" points="358.74,-129.75 316.49,-129.75 316.49,-110.5 358.74,-110.5 358.74,-129.75"/>
<text text-anchor="middle" x="337.61" y="-116.25" font-family="Helvetica,sans-Serif" font-size="10.00">defs.h</text>
</a>
</g>
</g>
<!-- Node1&#45;&gt;Node3 -->
<g id="edge2_Node000001_Node000003" class="edge">
<title>Node1&#45;&gt;Node3</title>
<g id="a_edge2_Node000001_Node000003"><a xlink:title=" ">
<path fill="none" stroke="#63b8ff" d="M311.39,-275.87C323.55,-259.08 348.64,-221.4 357.61,-185 361.4,-169.64 355.5,-152.56 349.15,-139.92"/>
<polygon fill="#63b8ff" stroke="#63b8ff" points="352.35,-138.47 344.42,-131.44 346.24,-141.88 352.35,-138.47"/>
</a>
</g>
</g>
<!-- Node7 -->
<g id="Node000007" class="node">
<title>Node7</title>
<g id="a_Node000007"><a xlink:href="irx_8h.html" target="_top" xlink:title=" ">
<polygon fill="white" stroke="#666666" points="216.24,-129.75 182.99,-129.75 182.99,-110.5 216.24,-110.5 216.24,-129.75"/>
<text text-anchor="middle" x="199.61" y="-116.25" font-family="Helvetica,sans-Serif" font-size="10.00">irx.h</text>
</a>
</g>
</g>
<!-- Node1&#45;&gt;Node7 -->
<g id="edge6_Node000001_Node000007" class="edge">
<title>Node1&#45;&gt;Node7</title>
<g id="a_edge6_Node000001_Node000007"><a xlink:title=" ">
<path fill="none" stroke="#63b8ff" d="M239.52,-280.21C192.32,-274.95 127.87,-263.8 75.61,-240.25 38.84,-223.67 21.45,-221.18 3.61,-185 -0.17,-177.33 -1.72,-172.44 3.61,-165.75 24.28,-139.85 122.14,-127.82 171.3,-123.33"/>
<polygon fill="#63b8ff" stroke="#63b8ff" points="171.5,-126.83 181.16,-122.48 170.9,-119.85 171.5,-126.83"/>
</a>
</g>
</g>
<!-- Node8 -->
<g id="Node000008" class="node">
<title>Node8</title>
<g id="a_Node000008"><a xlink:href="loadcore_8h.html" target="_top" xlink:title=" ">
<polygon fill="white" stroke="#666666" points="280.74,-185 220.49,-185 220.49,-165.75 280.74,-165.75 280.74,-185"/>
<text text-anchor="middle" x="250.61" y="-171.5" font-family="Helvetica,sans-Serif" font-size="10.00">loadcore.h</text>
</a>
</g>
</g>
<!-- Node1&#45;&gt;Node8 -->
<g id="edge8_Node000001_Node000008" class="edge">
<title>Node1&#45;&gt;Node8</title>
<g id="a_edge8_Node000001_Node000008"><a xlink:title=" ">
<path fill="none" stroke="#63b8ff" d="M300.19,-276C291.49,-258.51 271.96,-219.27 260.18,-195.59"/>
<polygon fill="#63b8ff" stroke="#63b8ff" points="263.36,-194.12 255.77,-186.73 257.09,-197.24 263.36,-194.12"/>
</a>
</g>
</g>
<!-- Node9 -->
<g id="Node000009" class="node">
<title>Node9</title>
<g id="a_Node000009"><a xlink:href="ioman_8h.html" target="_top" xlink:title=" ">
<polygon fill="white" stroke="#666666" points="348.49,-185 298.74,-185 298.74,-165.75 348.49,-165.75 348.49,-185"/>
<text text-anchor="middle" x="323.61" y="-171.5" font-family="Helvetica,sans-Serif" font-size="10.00">ioman.h</text>
</a>
</g>
</g>
<!-- Node1&#45;&gt;Node9 -->
<g id="edge11_Node000001_Node000009" class="edge">
<title>Node1&#45;&gt;Node9</title>
<g id="a_edge11_Node000001_Node000009"><a xlink:title=" ">
<path fill="none" stroke="#63b8ff" d="M306.17,-276C309.19,-258.75 315.92,-220.33 320.08,-196.56"/>
<polygon fill="#63b8ff" stroke="#63b8ff" points="323.5,-197.32 321.78,-186.87 316.6,-196.11 323.5,-197.32"/>
</a>
</g>
</g>
<!-- Node13 -->
<g id="Node000013" class="node">
<title>Node13</title>
<g id="a_Node000013"><a xlink:href="stdio_8h.html" target="_top" xlink:title=" ">
<polygon fill="white" stroke="#666666" points="161.86,-240.25 117.36,-240.25 117.36,-221 161.86,-221 161.86,-240.25"/>
<text text-anchor="middle" x="139.61" y="-226.75" font-family="Helvetica,sans-Serif" font-size="10.00">stdio.h</text>
</a>
</g>
</g>
<!-- Node1&#45;&gt;Node13 -->
<g id="edge17_Node000001_Node000013" class="edge">
<title>Node1&#45;&gt;Node13</title>
<g id="a_edge17_Node000001_Node000013"><a xlink:title=" ">
<path fill="none" stroke="#63b8ff" d="M276.62,-275.84C248.01,-266.61 203.55,-252.26 173.09,-242.43"/>
<polygon fill="#63b8ff" stroke="#63b8ff" points="174.2,-239.11 163.6,-239.37 172.05,-245.77 174.2,-239.11"/>
</a>
</g>
</g>
<!-- Node15 -->
<g id="Node000015" class="node">
<title>Node15</title>
<g id="a_Node000015"><a xlink:href="iopmgr_8h.html" target="_top" xlink:title=" ">
<polygon fill="white" stroke="#666666" points="257.99,-240.25 205.24,-240.25 205.24,-221 257.99,-221 257.99,-240.25"/>
<text text-anchor="middle" x="231.61" y="-226.75" font-family="Helvetica,sans-Serif" font-size="10.00">iopmgr.h</text>
</a>
</g>
</g>
<!-- Node1&#45;&gt;Node15 -->
<g id="edge20_Node000001_Node000015" class="edge">
<title>Node1&#45;&gt;Node15</title>
<g id="a_edge20_Node000001_Node000015"><a xlink:title=" ">
<path fill="none" stroke="#63b8ff" d="M292.23,-275.84C281.47,-267.99 265.64,-256.45 252.86,-247.12"/>
<polygon fill="#63b8ff" stroke="#63b8ff" points="255.18,-244.48 245.04,-241.42 251.05,-250.14 255.18,-244.48"/>
</a>
</g>
</g>
<!-- Node16 -->
<g id="Node000016" class="node">
<title>Node16</title>
<g id="a_Node000016"><a xlink:href="ps2__fio_8h.html" target="_top" xlink:title=" ">
<polygon fill="white" stroke="#666666" points="450.74,-240.25 396.49,-240.25 396.49,-221 450.74,-221 450.74,-240.25"/>
<text text-anchor="middle" x="423.61" y="-226.75" font-family="Helvetica,sans-Serif" font-size="10.00">ps2_fio.h</text>
</a>
</g>
</g>
<!-- Node1&#45;&gt;Node16 -->
<g id="edge25_Node000001_Node000016" class="edge">
<title>Node1&#45;&gt;Node16</title>
<g id="a_edge25_Node000001_Node000016"><a xlink:title=" ">
<path fill="none" stroke="#63b8ff" d="M324.8,-275.84C343.52,-267.47 371.64,-254.88 393.1,-245.28"/>
<polygon fill="#63b8ff" stroke="#63b8ff" points="394.25,-248.6 401.95,-241.32 391.39,-242.21 394.25,-248.6"/>
</a>
</g>
</g>
<!-- Node17 -->
<g id="Node000017" class="node">
<title>Node17</title>
<g id="a_Node000017"><a xlink:href="devscan_8h.html" target="_top" xlink:title=" ">
<polygon fill="white" stroke="#666666" points="528.74,-240.25 468.49,-240.25 468.49,-221 528.74,-221 528.74,-240.25"/>
<text text-anchor="middle" x="498.61" y="-226.75" font-family="Helvetica,sans-Serif" font-size="10.00">devscan.h</text>
</a>
</g>
</g>
<!-- Node1&#45;&gt;Node17 -->
<g id="edge26_Node000001_Node000017" class="edge">
<title>Node1&#45;&gt;Node17</title>
<g id="a_edge26_Node000001_Node000017"><a xlink:title=" ">
<path fill="none" stroke="#63b8ff" d="M337.52,-275.84C370.49,-266.79 421.35,-252.83 457.08,-243.03"/>
<polygon fill="#63b8ff" stroke="#63b8ff" points="457.93,-246.42 466.65,-240.4 456.08,-239.67 457.93,-246.42"/>
</a>
</g>
</g>
<!-- Node18 -->
<g id="Node000018" class="node">
<title>Node18</title>
<g id="a_Node000018"><a xlink:href="fs_2netfs_2src_2debug__printf_8h_source.html" target="_top" xlink:title=" ">
<polygon fill="white" stroke="#666666" points="623.99,-240.25 547.24,-240.25 547.24,-221 623.99,-221 623.99,-240.25"/>
<text text-anchor="middle" x="585.61" y="-226.75" font-family="Helvetica,sans-Serif" font-size="10.00">debug_printf.h</text>
</a>
</g>
</g>
<!-- Node1&#45;&gt;Node18 -->
<g id="edge27_Node000001_Node000018" class="edge">
<title>Node1&#45;&gt;Node18</title>
<g id="a_edge27_Node000001_Node000018"><a xlink:title=" ">
<path fill="none" stroke="#63b8ff" d="M352.6,-275.78C403.61,-266.12 483.89,-250.9 535.64,-241.09"/>
<polygon fill="#63b8ff" stroke="#63b8ff" points="536.21,-244.55 545.38,-239.25 534.91,-237.67 536.21,-244.55"/>
</a>
</g>
</g>
<!-- Node4 -->
<g id="Node000004" class="node">
<title>Node4</title>
<g id="a_Node000004"><a xlink:href="iop_2kernel_2include_2types_8h_source.html" target="_top" xlink:title=" ">
<polygon fill="white" stroke="#666666" points="293.99,-74.5 247.24,-74.5 247.24,-55.25 293.99,-55.25 293.99,-74.5"/>
<text text-anchor="middle" x="270.61" y="-61" font-family="Helvetica,sans-Serif" font-size="10.00">types.h</text>
</a>
</g>
</g>
<!-- Node3&#45;&gt;Node4 -->
<g id="edge3_Node000003_Node000004" class="edge">
<title>Node3&#45;&gt;Node4</title>
<g id="a_edge3_Node000003_Node000004"><a xlink:title=" ">
<path fill="none" stroke="#63b8ff" d="M326.25,-110.09C316.56,-102.4 302.41,-91.15 290.81,-81.93"/>
<polygon fill="#63b8ff" stroke="#63b8ff" points="293,-79.2 283,-75.72 288.65,-84.68 293,-79.2"/>
</a>
</g>
</g>
<!-- Node5 -->
<g id="Node000005" class="node">
<title>Node5</title>
<g id="a_Node000005"><a xlink:title=" ">
<polygon fill="#e0e0e0" stroke="#999999" points="258.86,-19.25 208.36,-19.25 208.36,0 258.86,0 258.86,-19.25"/>
<text text-anchor="middle" x="233.61" y="-5.75" font-family="Helvetica,sans-Serif" font-size="10.00">stddef.h</text>
</a>
</g>
</g>
<!-- Node4&#45;&gt;Node5 -->
<g id="edge4_Node000004_Node000005" class="edge">
<title>Node4&#45;&gt;Node5</title>
<g id="a_edge4_Node000004_Node000005"><a xlink:title=" ">
<path fill="none" stroke="#63b8ff" d="M264.5,-55.08C259.55,-47.96 252.41,-37.68 246.24,-28.8"/>
<polygon fill="#63b8ff" stroke="#63b8ff" points="249.3,-27.07 240.72,-20.85 243.55,-31.06 249.3,-27.07"/>
</a>
</g>
</g>
<!-- Node6 -->
<g id="Node000006" class="node">
<title>Node6</title>
<g id="a_Node000006"><a xlink:href="tamtypes_8h.html" target="_top" xlink:title=" ">
<polygon fill="white" stroke="#666666" points="340.24,-19.25 276.99,-19.25 276.99,0 340.24,0 340.24,-19.25"/>
<text text-anchor="middle" x="308.61" y="-5.75" font-family="Helvetica,sans-Serif" font-size="10.00">tamtypes.h</text>
</a>
</g>
</g>
<!-- Node4&#45;&gt;Node6 -->
<g id="edge5_Node000004_Node000006" class="edge">
<title>Node4&#45;&gt;Node6</title>
<g id="a_edge5_Node000004_Node000006"><a xlink:title=" ">
<path fill="none" stroke="#63b8ff" d="M276.89,-55.08C281.97,-47.96 289.31,-37.68 295.65,-28.8"/>
<polygon fill="#63b8ff" stroke="#63b8ff" points="298.36,-31.01 301.32,-20.84 292.67,-26.95 298.36,-31.01"/>
</a>
</g>
</g>
<!-- Node7&#45;&gt;Node4 -->
<g id="edge7_Node000007_Node000004" class="edge">
<title>Node7&#45;&gt;Node4</title>
<g id="a_edge7_Node000007_Node000004"><a xlink:title=" ">
<path fill="none" stroke="#63b8ff" d="M211.66,-110.09C222.02,-102.32 237.22,-90.92 249.58,-81.65"/>
<polygon fill="#63b8ff" stroke="#63b8ff" points="251.64,-84.48 257.54,-75.68 247.44,-78.88 251.64,-84.48"/>
</a>
</g>
</g>
<!-- Node8&#45;&gt;Node4 -->
<g id="edge9_Node000008_Node000004" class="edge">
<title>Node8&#45;&gt;Node4</title>
<g id="a_edge9_Node000008_Node000004"><a xlink:title=" ">
<path fill="none" stroke="#63b8ff" d="M252.25,-165.5C255.43,-148.25 262.51,-109.83 266.89,-86.06"/>
<polygon fill="#63b8ff" stroke="#63b8ff" points="270.31,-86.83 268.68,-76.37 263.43,-85.56 270.31,-86.83"/>
</a>
</g>
</g>
<!-- Node8&#45;&gt;Node7 -->
<g id="edge10_Node000008_Node000007" class="edge">
<title>Node8&#45;&gt;Node7</title>
<g id="a_edge10_Node000008_Node000007"><a xlink:title=" ">
<path fill="none" stroke="#63b8ff" d="M242.19,-165.58C235.07,-158.15 224.67,-147.29 215.93,-138.16"/>
<polygon fill="#63b8ff" stroke="#63b8ff" points="218.71,-136 209.27,-131.2 213.65,-140.85 218.71,-136"/>
</a>
</g>
</g>
<!-- Node9&#45;&gt;Node4 -->
<g id="edge12_Node000009_Node000004" class="edge">
<title>Node9&#45;&gt;Node4</title>
<g id="a_edge12_Node000009_Node000004"><a xlink:title=" ">
<path fill="none" stroke="#63b8ff" d="M319.28,-165.5C310.74,-148.01 291.57,-108.77 280,-85.09"/>
<polygon fill="#63b8ff" stroke="#63b8ff" points="283.21,-83.69 275.68,-76.24 276.92,-86.76 283.21,-83.69"/>
</a>
</g>
</g>
<!-- Node9&#45;&gt;Node7 -->
<g id="edge13_Node000009_Node000007" class="edge">
<title>Node9&#45;&gt;Node7</title>
<g id="a_edge13_Node000009_Node000007"><a xlink:title=" ">
<path fill="none" stroke="#63b8ff" d="M302.58,-165.34C281.68,-156.37 249.53,-142.56 226.73,-132.77"/>
<polygon fill="#63b8ff" stroke="#63b8ff" points="228.33,-129.65 217.76,-128.92 225.57,-136.08 228.33,-129.65"/>
</a>
</g>
</g>
<!-- Node10 -->
<g id="Node000010" class="node">
<title>Node10</title>
<g id="a_Node000010"><a xlink:href="io__common_8h.html" target="_top" xlink:title=" ">
<polygon fill="white" stroke="#666666" points="450.49,-129.75 376.74,-129.75 376.74,-110.5 450.49,-110.5 450.49,-129.75"/>
<text text-anchor="middle" x="413.61" y="-116.25" font-family="Helvetica,sans-Serif" font-size="10.00">io_common.h</text>
</a>
</g>
</g>
<!-- Node9&#45;&gt;Node10 -->
<g id="edge14_Node000009_Node000010" class="edge">
<title>Node9&#45;&gt;Node10</title>
<g id="a_edge14_Node000009_Node000010"><a xlink:title=" ">
<path fill="none" stroke="#63b8ff" d="M338.88,-165.34C352.46,-157.31 372.57,-145.41 388.51,-135.98"/>
<polygon fill="#63b8ff" stroke="#63b8ff" points="390.15,-139.08 396.97,-130.97 386.58,-133.05 390.15,-139.08"/>
</a>
</g>
</g>
<!-- Node11 -->
<g id="Node000011" class="node">
<title>Node11</title>
<g id="a_Node000011"><a xlink:href="fcntl_8h_source.html" target="_top" xlink:title=" ">
<polygon fill="white" stroke="#666666" points="460.74,-74.5 400.49,-74.5 400.49,-55.25 460.74,-55.25 460.74,-74.5"/>
<text text-anchor="middle" x="430.61" y="-61" font-family="Helvetica,sans-Serif" font-size="10.00">sys/fcntl.h</text>
</a>
</g>
</g>
<!-- Node10&#45;&gt;Node11 -->
<g id="edge15_Node000010_Node000011" class="edge">
<title>Node10&#45;&gt;Node11</title>
<g id="a_edge15_Node000010_Node000011"><a xlink:title=" ">
<path fill="none" stroke="#63b8ff" d="M416.42,-110.33C418.55,-103.67 421.56,-94.24 424.26,-85.78"/>
<polygon fill="#63b8ff" stroke="#63b8ff" points="427.58,-86.89 427.29,-76.3 420.91,-84.76 427.58,-86.89"/>
</a>
</g>
</g>
<!-- Node12 -->
<g id="Node000012" class="node">
<title>Node12</title>
<g id="a_Node000012"><a xlink:href="unistd_8h_source.html" target="_top" xlink:title=" ">
<polygon fill="white" stroke="#666666" points="382.49,-74.5 314.74,-74.5 314.74,-55.25 382.49,-55.25 382.49,-74.5"/>
<text text-anchor="middle" x="348.61" y="-61" font-family="Helvetica,sans-Serif" font-size="10.00">sys/unistd.h</text>
</a>
</g>
</g>
<!-- Node10&#45;&gt;Node12 -->
<g id="edge16_Node000010_Node000012" class="edge">
<title>Node10&#45;&gt;Node12</title>
<g id="a_edge16_Node000010_Node000012"><a xlink:title=" ">
<path fill="none" stroke="#63b8ff" d="M402.59,-110.09C393.19,-102.4 379.47,-91.15 368.21,-81.93"/>
<polygon fill="#63b8ff" stroke="#63b8ff" points="370.6,-79.36 360.65,-75.73 366.17,-84.78 370.6,-79.36"/>
</a>
</g>
</g>
<!-- Node13&#45;&gt;Node7 -->
<g id="edge19_Node000013_Node000007" class="edge">
<title>Node13&#45;&gt;Node7</title>
<g id="a_edge19_Node000013_Node000007"><a xlink:title=" ">
<path fill="none" stroke="#63b8ff" d="M128.74,-220.71C114.77,-208.15 93.66,-184.65 105.61,-165.75 120.02,-142.97 149.56,-131.59 171.7,-126.05"/>
<polygon fill="#63b8ff" stroke="#63b8ff" points="172.3,-129.5 181.31,-123.93 170.79,-122.67 172.3,-129.5"/>
</a>
</g>
</g>
<!-- Node14 -->
<g id="Node000014" class="node">
<title>Node14</title>
<g id="a_Node000014"><a xlink:title=" ">
<polygon fill="#e0e0e0" stroke="#999999" points="164.86,-185 114.36,-185 114.36,-165.75 164.86,-165.75 164.86,-185"/>
<text text-anchor="middle" x="139.61" y="-171.5" font-family="Helvetica,sans-Serif" font-size="10.00">stdarg.h</text>
</a>
</g>
</g>
<!-- Node13&#45;&gt;Node14 -->
<g id="edge18_Node000013_Node000014" class="edge">
<title>Node13&#45;&gt;Node14</title>
<g id="a_edge18_Node000013_Node000014"><a xlink:title=" ">
<path fill="none" stroke="#63b8ff" d="M139.61,-220.83C139.61,-214.32 139.61,-205.17 139.61,-196.87"/>
<polygon fill="#63b8ff" stroke="#63b8ff" points="143.11,-196.87 139.61,-186.87 136.11,-196.87 143.11,-196.87"/>
</a>
</g>
</g>
<!-- Node15&#45;&gt;Node2 -->
<g id="edge21_Node000015_Node000002" class="edge">
<title>Node15&#45;&gt;Node2</title>
<g id="a_edge21_Node000015_Node000002"><a xlink:title=" ">
<path fill="none" stroke="#63b8ff" d="M204.77,-222.33C169.75,-212.82 108.43,-196.16 70.03,-185.72"/>
<polygon fill="#63b8ff" stroke="#63b8ff" points="71.4,-182.47 60.83,-183.23 69.57,-189.23 71.4,-182.47"/>
</a>
</g>
</g>
<!-- Node15&#45;&gt;Node7 -->
<g id="edge22_Node000015_Node000007" class="edge">
<title>Node15&#45;&gt;Node7</title>
<g id="a_edge22_Node000015_Node000007"><a xlink:title=" ">
<path fill="none" stroke="#63b8ff" d="M226.83,-220.64C222.3,-211.8 215.62,-197.8 211.61,-185 207.11,-170.63 204.04,-153.87 202.13,-141.13"/>
<polygon fill="#63b8ff" stroke="#63b8ff" points="205.64,-140.9 200.81,-131.46 198.7,-141.85 205.64,-140.9"/>
</a>
</g>
</g>
<!-- Node15&#45;&gt;Node8 -->
<g id="edge24_Node000015_Node000008" class="edge">
<title>Node15&#45;&gt;Node8</title>
<g id="a_edge24_Node000015_Node000008"><a xlink:title=" ">
<path fill="none" stroke="#63b8ff" d="M234.75,-220.83C237.16,-214.09 240.57,-204.52 243.61,-195.99"/>
<polygon fill="#63b8ff" stroke="#63b8ff" points="246.84,-197.38 246.9,-186.78 240.24,-195.03 246.84,-197.38"/>
</a>
</g>
</g>
<!-- Node15&#45;&gt;Node9 -->
<g id="edge23_Node000015_Node000009" class="edge">
<title>Node15&#45;&gt;Node9</title>
<g id="a_edge23_Node000015_Node000009"><a xlink:title=" ">
<path fill="none" stroke="#63b8ff" d="M247.22,-220.59C261.23,-212.48 282.05,-200.43 298.42,-190.96"/>
<polygon fill="#63b8ff" stroke="#63b8ff" points="299.72,-194.25 306.62,-186.21 296.21,-188.19 299.72,-194.25"/>
</a>
</g>
</g>
</g>
</svg>
