<?xml version="1.0" encoding="UTF-8" standalone="no"?>
<!DOCTYPE svg PUBLIC "-//W3C//DTD SVG 1.1//EN"
 "http://www.w3.org/Graphics/SVG/1.1/DTD/svg11.dtd">
<!-- Generated by graphviz version 12.2.0 (20241103.1931)
 -->
<!-- Title: iop/system/sio2man/include/sio2man.h Pages: 1 -->
<!--zoomable 238 -->

<svg id="main" version="1.1" xmlns="http://www.w3.org/2000/svg" xmlns:xlink="http://www.w3.org/1999/xlink" xml:space="preserve" onload="init(evt)">

<style type="text/css"><![CDATA[
.node, .edge {opacity: 0.7;}
.node.selected, .edge.selected {opacity: 1;}
.edge:hover path { stroke: red; }
.edge:hover polygon { stroke: red; fill: red; }
]]></style>

<defs>
  <circle id="rim" cx="0" cy="0" r="7"/>
  <circle id="rim2" cx="0" cy="0" r="3.5"/>
  <g id="zoomPlus">
    <use xlink:href="#rim" fill="#404040"><set attributeName="fill" to="#808080" begin="zoomplus.mouseover" end="zoomplus.mouseout"/></use>
    <path d="M-4,0h8M0,-4v8" fill="none" stroke="white" stroke-width="1.5" pointer-events="none"/>
  </g>
  <g id="zoomMin">
    <use xlink:href="#rim" fill="#404040"><set attributeName="fill" to="#808080" begin="zoomminus.mouseover" end="zoomminus.mouseout"/></use>
    <path d="M-4,0h8" fill="none" stroke="white" stroke-width="1.5" pointer-events="none"/>
  </g>
  <g id="arrowUp" transform="translate(30 24)">
    <use xlink:href="#rim"/>
    <path pointer-events="none" fill="none" stroke="white" stroke-width="1.5" d="M0,-3.0v7 M-2.5,-0.5L0,-3.0L2.5,-0.5"/>
  </g>
  <g id="arrowRight" transform="rotate(90) translate(36 -43)">
    <use xlink:href="#rim"/>
    <path pointer-events="none" fill="none" stroke="white" stroke-width="1.5" d="M0,-3.0v7 M-2.5,-0.5L0,-3.0L2.5,-0.5"/>
  </g>
  <g id="arrowDown" transform="rotate(180) translate(-30 -48)">
    <use xlink:href="#rim"/>
    <path pointer-events="none" fill="none" stroke="white" stroke-width="1.5" d="M0,-3.0v7 M-2.5,-0.5L0,-3.0L2.5,-0.5"/>
  </g>
  <g id="arrowLeft" transform="rotate(270) translate(-36 17)">
    <use xlink:href="#rim"/>
    <path pointer-events="none" fill="none" stroke="white" stroke-width="1.5" d="M0,-3.0v7 M-2.5,-0.5L0,-3.0L2.5,-0.5"/>
  </g>
  <g id="resetDef">
    <use xlink:href="#rim2" fill="#404040"><set attributeName="fill" to="#808080" begin="reset.mouseover" end="reset.mouseout"/></use>
  </g>
</defs>
<script type="application/ecmascript">
var viewWidth = 1827;
var viewHeight = 238;
var sectionId = 'dynsection-1';
</script>
<script type="application/ecmascript" xlink:href="svg.min.js"/>
<svg id="graph" class="graph">
<g id="viewport">
<title>iop/system/sio2man/include/sio2man.h</title>
<!-- Node1 -->
<g id="Node000001" class="node">
<title>Node1</title>
<g id="a_Node000001"><a xlink:title=" ">
<polygon fill="#999999" stroke="#666666" points="1304.62,-230 1201.62,-230 1201.62,-199.5 1304.62,-199.5 1304.62,-230"/>
<text text-anchor="start" x="1209.62" y="-216.5" font-family="Helvetica,sans-Serif" font-size="10.00">iop/system/sio2man</text>
<text text-anchor="middle" x="1253.12" y="-205.25" font-family="Helvetica,sans-Serif" font-size="10.00">/include/sio2man.h</text>
</a>
</g>
</g>
<!-- Node2 -->
<g id="Node000002" class="node">
<title>Node2</title>
<g id="a_Node000002"><a xlink:href="secrman_8h.html" target="_top" xlink:title=" ">
<polygon fill="white" stroke="#666666" points="826,-163.5 734.25,-163.5 734.25,-133 826,-133 826,-163.5"/>
<text text-anchor="start" x="742.25" y="-150" font-family="Helvetica,sans-Serif" font-size="10.00">iop/kernel/include</text>
<text text-anchor="middle" x="780.12" y="-138.75" font-family="Helvetica,sans-Serif" font-size="10.00">/secrman.h</text>
</a>
</g>
</g>
<!-- Node1&#45;&gt;Node2 -->
<g id="edge1_Node000001_Node000002" class="edge">
<title>Node1&#45;&gt;Node2</title>
<g id="a_edge1_Node000001_Node000002"><a xlink:title=" ">
<path fill="none" stroke="#63b8ff" d="M1189.81,-205.12C1093.21,-191.94 911.3,-167.14 826.21,-155.53"/>
<polygon fill="#63b8ff" stroke="#63b8ff" points="1189.27,-208.58 1199.65,-206.46 1190.22,-201.64 1189.27,-208.58"/>
</a>
</g>
</g>
<!-- Node3 -->
<g id="Node000003" class="node">
<title>Node3</title>
<g id="a_Node000003"><a xlink:href="iop_2memorycard_2mcman_2src_2irx__imports_8h_source.html" target="_top" xlink:title=" ">
<polygon fill="white" stroke="#666666" points="327.25,-97 207,-97 207,-66.5 327.25,-66.5 327.25,-97"/>
<text text-anchor="start" x="215" y="-83.5" font-family="Helvetica,sans-Serif" font-size="10.00">iop/memorycard/mcman</text>
<text text-anchor="middle" x="267.12" y="-72.25" font-family="Helvetica,sans-Serif" font-size="10.00">/src/irx_imports.h</text>
</a>
</g>
</g>
<!-- Node1&#45;&gt;Node3 -->
<g id="edge24_Node000001_Node000003" class="edge">
<title>Node1&#45;&gt;Node3</title>
<g id="a_edge24_Node000001_Node000003"><a xlink:title=" ">
<path fill="none" stroke="#63b8ff" d="M1190.1,-212.57C1071.52,-209.56 807.39,-199.1 588.12,-163.5 489.57,-147.5 376.93,-116.02 314.72,-97.45"/>
<polygon fill="#63b8ff" stroke="#63b8ff" points="1189.86,-216.07 1199.95,-212.81 1190.03,-209.07 1189.86,-216.07"/>
</a>
</g>
</g>
<!-- Node4 -->
<g id="Node000004" class="node">
<title>Node4</title>
<g id="a_Node000004"><a xlink:href="mcman-internal_8h_source.html" target="_top" xlink:title=" ">
<polygon fill="white" stroke="#666666" points="465.25,-97 345,-97 345,-66.5 465.25,-66.5 465.25,-97"/>
<text text-anchor="start" x="353" y="-83.5" font-family="Helvetica,sans-Serif" font-size="10.00">iop/memorycard/mcman</text>
<text text-anchor="middle" x="405.12" y="-72.25" font-family="Helvetica,sans-Serif" font-size="10.00">/src/mcman&#45;internal.h</text>
</a>
</g>
</g>
<!-- Node1&#45;&gt;Node4 -->
<g id="edge25_Node000001_Node000004" class="edge">
<title>Node1&#45;&gt;Node4</title>
<g id="a_edge25_Node000001_Node000004"><a xlink:title=" ">
<path fill="none" stroke="#63b8ff" d="M1190.11,-210.86C1090.69,-205.61 891.61,-192.26 725.12,-163.5 627.59,-146.65 515.97,-115.77 453.69,-97.47"/>
<polygon fill="#63b8ff" stroke="#63b8ff" points="1189.76,-214.35 1199.93,-211.37 1190.12,-207.36 1189.76,-214.35"/>
</a>
</g>
</g>
<!-- Node14 -->
<g id="Node000014" class="node">
<title>Node14</title>
<g id="a_Node000014"><a xlink:href="secrman_8c_source.html" target="_top" xlink:title=" ">
<polygon fill="white" stroke="#666666" points="1193.12,-97 1087.12,-97 1087.12,-66.5 1193.12,-66.5 1193.12,-97"/>
<text text-anchor="start" x="1095.12" y="-83.5" font-family="Helvetica,sans-Serif" font-size="10.00">iop/security/secrman</text>
<text text-anchor="middle" x="1140.12" y="-72.25" font-family="Helvetica,sans-Serif" font-size="10.00">/src/secrman.c</text>
</a>
</g>
</g>
<!-- Node1&#45;&gt;Node14 -->
<g id="edge26_Node000001_Node000014" class="edge">
<title>Node1&#45;&gt;Node14</title>
<g id="a_edge26_Node000001_Node000014"><a xlink:title=" ">
<path fill="none" stroke="#63b8ff" d="M1226.54,-191.48C1217.15,-183.1 1206.79,-173.24 1198.12,-163.5 1178.97,-141.96 1160.13,-114.16 1149.34,-97.43"/>
<polygon fill="#63b8ff" stroke="#63b8ff" points="1224.18,-194.06 1234.01,-198 1228.78,-188.79 1224.18,-194.06"/>
</a>
</g>
</g>
<!-- Node17 -->
<g id="Node000017" class="node">
<title>Node17</title>
<g id="a_Node000017"><a xlink:href="xsio2man_8h.html" target="_top" xlink:title=" ">
<polygon fill="white" stroke="#666666" points="1299,-163.5 1207.25,-163.5 1207.25,-133 1299,-133 1299,-163.5"/>
<text text-anchor="start" x="1215.25" y="-150" font-family="Helvetica,sans-Serif" font-size="10.00">iop/kernel/include</text>
<text text-anchor="middle" x="1253.12" y="-138.75" font-family="Helvetica,sans-Serif" font-size="10.00">/xsio2man.h</text>
</a>
</g>
</g>
<!-- Node1&#45;&gt;Node17 -->
<g id="edge16_Node000001_Node000017" class="edge">
<title>Node1&#45;&gt;Node17</title>
<g id="a_edge16_Node000001_Node000017"><a xlink:title=" ">
<path fill="none" stroke="#63b8ff" d="M1253.12,-187.81C1253.12,-179.64 1253.12,-170.91 1253.12,-163.83"/>
<polygon fill="#63b8ff" stroke="#63b8ff" points="1249.63,-187.6 1253.13,-197.6 1256.63,-187.6 1249.63,-187.6"/>
</a>
</g>
</g>
<!-- Node25 -->
<g id="Node000025" class="node">
<title>Node25</title>
<g id="a_Node000025"><a xlink:href="sio2man__hook_8c_source.html" target="_top" xlink:title=" ">
<polygon fill="white" stroke="#666666" points="1427.38,-163.5 1316.88,-163.5 1316.88,-133 1427.38,-133 1427.38,-163.5"/>
<text text-anchor="start" x="1324.88" y="-150" font-family="Helvetica,sans-Serif" font-size="10.00">iop/sio/mx4sio_bd/src</text>
<text text-anchor="middle" x="1372.12" y="-138.75" font-family="Helvetica,sans-Serif" font-size="10.00">/sio2man_hook.c</text>
</a>
</g>
</g>
<!-- Node1&#45;&gt;Node25 -->
<g id="edge27_Node000001_Node000025" class="edge">
<title>Node1&#45;&gt;Node25</title>
<g id="a_edge27_Node000001_Node000025"><a xlink:title=" ">
<path fill="none" stroke="#63b8ff" d="M1290.2,-193.66C1308.01,-184 1328.97,-172.64 1345.23,-163.83"/>
<polygon fill="#63b8ff" stroke="#63b8ff" points="1288.58,-190.55 1281.46,-198.39 1291.92,-196.7 1288.58,-190.55"/>
</a>
</g>
</g>
<!-- Node26 -->
<g id="Node000026" class="node">
<title>Node26</title>
<g id="a_Node000026"><a xlink:href="iop_2system_2padman_2src_2irx__imports_8h_source.html" target="_top" xlink:title=" ">
<polygon fill="white" stroke="#666666" points="1562.75,-163.5 1445.5,-163.5 1445.5,-133 1562.75,-133 1562.75,-163.5"/>
<text text-anchor="start" x="1453.5" y="-150" font-family="Helvetica,sans-Serif" font-size="10.00">iop/system/padman/src</text>
<text text-anchor="middle" x="1504.12" y="-138.75" font-family="Helvetica,sans-Serif" font-size="10.00">/irx_imports.h</text>
</a>
</g>
</g>
<!-- Node1&#45;&gt;Node26 -->
<g id="edge28_Node000001_Node000026" class="edge">
<title>Node1&#45;&gt;Node26</title>
<g id="a_edge28_Node000001_Node000026"><a xlink:title=" ">
<path fill="none" stroke="#63b8ff" d="M1315.83,-197.64C1356,-187.31 1407.72,-174.02 1446.8,-163.98"/>
<polygon fill="#63b8ff" stroke="#63b8ff" points="1315.11,-194.21 1306.29,-200.09 1316.85,-200.99 1315.11,-194.21"/>
</a>
</g>
</g>
<!-- Node27 -->
<g id="Node000027" class="node">
<title>Node27</title>
<g id="a_Node000027"><a xlink:href="pad_data_8c.html" target="_top" xlink:title=" ">
<polygon fill="white" stroke="#666666" points="1697.75,-163.5 1580.5,-163.5 1580.5,-133 1697.75,-133 1697.75,-163.5"/>
<text text-anchor="start" x="1588.5" y="-150" font-family="Helvetica,sans-Serif" font-size="10.00">iop/system/padman/src</text>
<text text-anchor="middle" x="1639.12" y="-138.75" font-family="Helvetica,sans-Serif" font-size="10.00">/padData.c</text>
</a>
</g>
</g>
<!-- Node1&#45;&gt;Node27 -->
<g id="edge29_Node000001_Node000027" class="edge">
<title>Node1&#45;&gt;Node27</title>
<g id="a_edge29_Node000001_Node000027"><a xlink:title=" ">
<path fill="none" stroke="#63b8ff" d="M1316.11,-204.84C1380.58,-195.48 1483.58,-179.88 1572.12,-163.5 1574.81,-163 1577.56,-162.48 1580.33,-161.94"/>
<polygon fill="#63b8ff" stroke="#63b8ff" points="1315.82,-201.35 1306.43,-206.24 1316.83,-208.27 1315.82,-201.35"/>
</a>
</g>
</g>
<!-- Node28 -->
<g id="Node000028" class="node">
<title>Node28</title>
<g id="a_Node000028"><a xlink:href="log_8h.html" target="_top" xlink:title=" ">
<polygon fill="white" stroke="#666666" points="1818.62,-163.5 1715.62,-163.5 1715.62,-133 1818.62,-133 1818.62,-163.5"/>
<text text-anchor="start" x="1723.62" y="-150" font-family="Helvetica,sans-Serif" font-size="10.00">iop/system/sio2man</text>
<text text-anchor="middle" x="1767.12" y="-138.75" font-family="Helvetica,sans-Serif" font-size="10.00">/include/log.h</text>
</a>
</g>
</g>
<!-- Node1&#45;&gt;Node28 -->
<g id="edge30_Node000001_Node000028" class="edge">
<title>Node1&#45;&gt;Node28</title>
<g id="a_edge30_Node000001_Node000028"><a xlink:title=" ">
<path fill="none" stroke="#63b8ff" d="M1316.2,-209.23C1404.2,-202.37 1568.6,-187.52 1707.12,-163.5 1709.76,-163.04 1712.46,-162.54 1715.17,-162"/>
<polygon fill="#63b8ff" stroke="#63b8ff" points="1316.03,-205.74 1306.33,-209.99 1316.57,-212.71 1316.03,-205.74"/>
</a>
</g>
</g>
<!-- Node2&#45;&gt;Node3 -->
<g id="edge2_Node000002_Node000003" class="edge">
<title>Node2&#45;&gt;Node3</title>
<g id="a_edge2_Node000002_Node000003"><a xlink:title=" ">
<path fill="none" stroke="#63b8ff" d="M722.47,-142.41C637.56,-134.91 474.04,-119 336.12,-97 333.35,-96.56 330.51,-96.08 327.65,-95.57"/>
<polygon fill="#63b8ff" stroke="#63b8ff" points="722.14,-145.9 732.41,-143.28 722.75,-138.92 722.14,-145.9"/>
</a>
</g>
</g>
<!-- Node2&#45;&gt;Node4 -->
<g id="edge3_Node000002_Node000004" class="edge">
<title>Node2&#45;&gt;Node4</title>
<g id="a_edge3_Node000002_Node000004"><a xlink:title=" ">
<path fill="none" stroke="#63b8ff" d="M722.86,-138.56C661.28,-129.05 560.59,-113.02 474.12,-97 471.36,-96.49 468.53,-95.95 465.68,-95.4"/>
<polygon fill="#63b8ff" stroke="#63b8ff" points="721.97,-141.97 732.39,-140.03 723.04,-135.05 721.97,-141.97"/>
</a>
</g>
</g>
<!-- Node11 -->
<g id="Node000011" class="node">
<title>Node11</title>
<g id="a_Node000011"><a xlink:href="_card_auth_8c_source.html" target="_top" xlink:title=" ">
<polygon fill="white" stroke="#666666" points="1069.12,-97 963.12,-97 963.12,-66.5 1069.12,-66.5 1069.12,-97"/>
<text text-anchor="start" x="971.12" y="-83.5" font-family="Helvetica,sans-Serif" font-size="10.00">iop/security/secrman</text>
<text text-anchor="middle" x="1016.12" y="-72.25" font-family="Helvetica,sans-Serif" font-size="10.00">/src/CardAuth.c</text>
</a>
</g>
</g>
<!-- Node2&#45;&gt;Node11 -->
<g id="edge10_Node000002_Node000011" class="edge">
<title>Node2&#45;&gt;Node11</title>
<g id="a_edge10_Node000002_Node000011"><a xlink:title=" ">
<path fill="none" stroke="#63b8ff" d="M837.42,-131.59C875.64,-121.15 925.53,-107.51 962.88,-97.3"/>
<polygon fill="#63b8ff" stroke="#63b8ff" points="836.65,-128.17 827.93,-134.18 838.5,-134.92 836.65,-128.17"/>
</a>
</g>
</g>
<!-- Node12 -->
<g id="Node000012" class="node">
<title>Node12</title>
<g id="a_Node000012"><a xlink:href="_mecha_auth_8c_source.html" target="_top" xlink:title=" ">
<polygon fill="white" stroke="#666666" points="589.12,-97 483.12,-97 483.12,-66.5 589.12,-66.5 589.12,-97"/>
<text text-anchor="start" x="491.12" y="-83.5" font-family="Helvetica,sans-Serif" font-size="10.00">iop/security/secrman</text>
<text text-anchor="middle" x="536.12" y="-72.25" font-family="Helvetica,sans-Serif" font-size="10.00">/src/MechaAuth.c</text>
</a>
</g>
</g>
<!-- Node2&#45;&gt;Node12 -->
<g id="edge11_Node000002_Node000012" class="edge">
<title>Node2&#45;&gt;Node12</title>
<g id="a_edge11_Node000002_Node000012"><a xlink:title=" ">
<path fill="none" stroke="#63b8ff" d="M722.93,-132.13C682.54,-121.45 628.8,-107.25 589.33,-96.82"/>
<polygon fill="#63b8ff" stroke="#63b8ff" points="721.92,-135.48 732.48,-134.66 723.71,-128.72 721.92,-135.48"/>
</a>
</g>
</g>
<!-- Node13 -->
<g id="Node000013" class="node">
<title>Node13</title>
<g id="a_Node000013"><a xlink:href="keyman_8c_source.html" target="_top" xlink:title=" ">
<polygon fill="white" stroke="#666666" points="713.12,-97 607.12,-97 607.12,-66.5 713.12,-66.5 713.12,-97"/>
<text text-anchor="start" x="615.12" y="-83.5" font-family="Helvetica,sans-Serif" font-size="10.00">iop/security/secrman</text>
<text text-anchor="middle" x="660.12" y="-72.25" font-family="Helvetica,sans-Serif" font-size="10.00">/src/keyman.c</text>
</a>
</g>
</g>
<!-- Node2&#45;&gt;Node13 -->
<g id="edge12_Node000002_Node000013" class="edge">
<title>Node2&#45;&gt;Node13</title>
<g id="a_edge12_Node000002_Node000013"><a xlink:title=" ">
<path fill="none" stroke="#63b8ff" d="M743,-127.29C724.98,-117.61 703.72,-106.18 687.25,-97.33"/>
<polygon fill="#63b8ff" stroke="#63b8ff" points="741.1,-130.25 751.56,-131.9 744.41,-124.08 741.1,-130.25"/>
</a>
</g>
</g>
<!-- Node2&#45;&gt;Node14 -->
<g id="edge13_Node000002_Node000014" class="edge">
<title>Node2&#45;&gt;Node14</title>
<g id="a_edge13_Node000002_Node000014"><a xlink:title=" ">
<path fill="none" stroke="#63b8ff" d="M837.64,-138.58C897.79,-129.27 994.86,-113.57 1078.12,-97 1080.94,-96.44 1083.83,-95.85 1086.73,-95.23"/>
<polygon fill="#63b8ff" stroke="#63b8ff" points="837.33,-135.09 827.98,-140.07 838.39,-142.01 837.33,-135.09"/>
</a>
</g>
</g>
<!-- Node15 -->
<g id="Node000015" class="node">
<title>Node15</title>
<g id="a_Node000015"><a xlink:href="iop_2security_2secrsif_2src_2irx__imports_8h_source.html" target="_top" xlink:title=" ">
<polygon fill="white" stroke="#666666" points="829,-97 731.25,-97 731.25,-66.5 829,-66.5 829,-97"/>
<text text-anchor="start" x="739.25" y="-83.5" font-family="Helvetica,sans-Serif" font-size="10.00">iop/security/secrsif</text>
<text text-anchor="middle" x="780.12" y="-72.25" font-family="Helvetica,sans-Serif" font-size="10.00">/src/irx_imports.h</text>
</a>
</g>
</g>
<!-- Node2&#45;&gt;Node15 -->
<g id="edge14_Node000002_Node000015" class="edge">
<title>Node2&#45;&gt;Node15</title>
<g id="a_edge14_Node000002_Node000015"><a xlink:title=" ">
<path fill="none" stroke="#63b8ff" d="M780.12,-121.31C780.12,-113.14 780.12,-104.41 780.12,-97.33"/>
<polygon fill="#63b8ff" stroke="#63b8ff" points="776.63,-121.1 780.13,-131.1 783.63,-121.1 776.63,-121.1"/>
</a>
</g>
</g>
<!-- Node16 -->
<g id="Node000016" class="node">
<title>Node16</title>
<g id="a_Node000016"><a xlink:href="secrsif_8c_source.html" target="_top" xlink:title=" ">
<polygon fill="white" stroke="#666666" points="945,-97 847.25,-97 847.25,-66.5 945,-66.5 945,-97"/>
<text text-anchor="start" x="855.25" y="-83.5" font-family="Helvetica,sans-Serif" font-size="10.00">iop/security/secrsif</text>
<text text-anchor="middle" x="896.12" y="-72.25" font-family="Helvetica,sans-Serif" font-size="10.00">/src/secrsif.c</text>
</a>
</g>
</g>
<!-- Node2&#45;&gt;Node16 -->
<g id="edge15_Node000002_Node000016" class="edge">
<title>Node2&#45;&gt;Node16</title>
<g id="a_edge15_Node000002_Node000016"><a xlink:title=" ">
<path fill="none" stroke="#63b8ff" d="M816.26,-127.16C833.63,-117.5 854.06,-106.14 869.91,-97.33"/>
<polygon fill="#63b8ff" stroke="#63b8ff" points="814.81,-123.96 807.77,-131.88 818.21,-130.08 814.81,-123.96"/>
</a>
</g>
</g>
<!-- Node5 -->
<g id="Node000005" class="node">
<title>Node5</title>
<g id="a_Node000005"><a xlink:href="iop_2memorycard_2mcman_2src_2main_8c_source.html" target="_top" xlink:title=" ">
<polygon fill="white" stroke="#666666" points="534.25,-30.5 414,-30.5 414,0 534.25,0 534.25,-30.5"/>
<text text-anchor="start" x="422" y="-17" font-family="Helvetica,sans-Serif" font-size="10.00">iop/memorycard/mcman</text>
<text text-anchor="middle" x="474.12" y="-5.75" font-family="Helvetica,sans-Serif" font-size="10.00">/src/main.c</text>
</a>
</g>
</g>
<!-- Node4&#45;&gt;Node5 -->
<g id="edge4_Node000004_Node000005" class="edge">
<title>Node4&#45;&gt;Node5</title>
<g id="a_edge4_Node000004_Node000005"><a xlink:title=" ">
<path fill="none" stroke="#63b8ff" d="M428.97,-58.46C438.75,-49.32 449.81,-38.98 458.53,-30.83"/>
<polygon fill="#63b8ff" stroke="#63b8ff" points="426.8,-55.69 421.89,-65.08 431.58,-60.81 426.8,-55.69"/>
</a>
</g>
</g>
<!-- Node6 -->
<g id="Node000006" class="node">
<title>Node6</title>
<g id="a_Node000006"><a xlink:href="mcdev_8c_source.html" target="_top" xlink:title=" ">
<polygon fill="white" stroke="#666666" points="672.25,-30.5 552,-30.5 552,0 672.25,0 672.25,-30.5"/>
<text text-anchor="start" x="560" y="-17" font-family="Helvetica,sans-Serif" font-size="10.00">iop/memorycard/mcman</text>
<text text-anchor="middle" x="612.12" y="-5.75" font-family="Helvetica,sans-Serif" font-size="10.00">/src/mcdev.c</text>
</a>
</g>
</g>
<!-- Node4&#45;&gt;Node6 -->
<g id="edge5_Node000004_Node000006" class="edge">
<title>Node4&#45;&gt;Node6</title>
<g id="a_edge5_Node000004_Node000006"><a xlink:title=" ">
<path fill="none" stroke="#63b8ff" d="M462.98,-62.72C495.2,-52.68 534.8,-40.34 565.1,-30.9"/>
<polygon fill="#63b8ff" stroke="#63b8ff" points="462.31,-59.27 453.8,-65.58 464.39,-65.95 462.31,-59.27"/>
</a>
</g>
</g>
<!-- Node7 -->
<g id="Node000007" class="node">
<title>Node7</title>
<g id="a_Node000007"><a xlink:href="mciomanx__backing_8c_source.html" target="_top" xlink:title=" ">
<polygon fill="white" stroke="#666666" points="816.25,-30.5 690,-30.5 690,0 816.25,0 816.25,-30.5"/>
<text text-anchor="start" x="698" y="-17" font-family="Helvetica,sans-Serif" font-size="10.00">iop/memorycard/mcman</text>
<text text-anchor="middle" x="753.12" y="-5.75" font-family="Helvetica,sans-Serif" font-size="10.00">/src/mciomanx_backing.c</text>
</a>
</g>
</g>
<!-- Node4&#45;&gt;Node7 -->
<g id="edge6_Node000004_Node000007" class="edge">
<title>Node4&#45;&gt;Node7</title>
<g id="a_edge6_Node000004_Node000007"><a xlink:title=" ">
<path fill="none" stroke="#63b8ff" d="M476.81,-66.03C567.75,-48.92 592.81,-46.92 681.12,-30.5 683.88,-29.99 686.7,-29.46 689.54,-28.92"/>
<polygon fill="#63b8ff" stroke="#63b8ff" points="476.35,-62.55 467.17,-67.85 477.65,-69.43 476.35,-62.55"/>
</a>
</g>
</g>
<!-- Node8 -->
<g id="Node000008" class="node">
<title>Node8</title>
<g id="a_Node000008"><a xlink:href="mcsio2_8c_source.html" target="_top" xlink:title=" ">
<polygon fill="white" stroke="#666666" points="120.25,-30.5 0,-30.5 0,0 120.25,0 120.25,-30.5"/>
<text text-anchor="start" x="8" y="-17" font-family="Helvetica,sans-Serif" font-size="10.00">iop/memorycard/mcman</text>
<text text-anchor="middle" x="60.12" y="-5.75" font-family="Helvetica,sans-Serif" font-size="10.00">/src/mcsio2.c</text>
</a>
</g>
</g>
<!-- Node4&#45;&gt;Node8 -->
<g id="edge7_Node000004_Node000008" class="edge">
<title>Node4&#45;&gt;Node8</title>
<g id="a_edge7_Node000004_Node000008"><a xlink:title=" ">
<path fill="none" stroke="#63b8ff" d="M333.44,-66.03C242.5,-48.95 217.37,-47.28 129.12,-30.5 126.36,-29.97 123.54,-29.43 120.69,-28.87"/>
<polygon fill="#63b8ff" stroke="#63b8ff" points="332.6,-69.43 343.08,-67.85 333.9,-62.55 332.6,-69.43"/>
</a>
</g>
</g>
<!-- Node9 -->
<g id="Node000009" class="node">
<title>Node9</title>
<g id="a_Node000009"><a xlink:href="ps1mc__fio_8c_source.html" target="_top" xlink:title=" ">
<polygon fill="white" stroke="#666666" points="258.25,-30.5 138,-30.5 138,0 258.25,0 258.25,-30.5"/>
<text text-anchor="start" x="146" y="-17" font-family="Helvetica,sans-Serif" font-size="10.00">iop/memorycard/mcman</text>
<text text-anchor="middle" x="198.12" y="-5.75" font-family="Helvetica,sans-Serif" font-size="10.00">/src/ps1mc_fio.c</text>
</a>
</g>
</g>
<!-- Node4&#45;&gt;Node9 -->
<g id="edge8_Node000004_Node000009" class="edge">
<title>Node4&#45;&gt;Node9</title>
<g id="a_edge8_Node000004_Node000009"><a xlink:title=" ">
<path fill="none" stroke="#63b8ff" d="M347.27,-62.72C315.05,-52.68 275.45,-40.34 245.15,-30.9"/>
<polygon fill="#63b8ff" stroke="#63b8ff" points="345.86,-65.95 356.45,-65.58 347.94,-59.27 345.86,-65.95"/>
</a>
</g>
</g>
<!-- Node10 -->
<g id="Node000010" class="node">
<title>Node10</title>
<g id="a_Node000010"><a xlink:href="ps2mc__fio_8c_source.html" target="_top" xlink:title=" ">
<polygon fill="white" stroke="#666666" points="396.25,-30.5 276,-30.5 276,0 396.25,0 396.25,-30.5"/>
<text text-anchor="start" x="284" y="-17" font-family="Helvetica,sans-Serif" font-size="10.00">iop/memorycard/mcman</text>
<text text-anchor="middle" x="336.12" y="-5.75" font-family="Helvetica,sans-Serif" font-size="10.00">/src/ps2mc_fio.c</text>
</a>
</g>
</g>
<!-- Node4&#45;&gt;Node10 -->
<g id="edge9_Node000004_Node000010" class="edge">
<title>Node4&#45;&gt;Node10</title>
<g id="a_edge9_Node000004_Node000010"><a xlink:title=" ">
<path fill="none" stroke="#63b8ff" d="M381.28,-58.46C371.5,-49.32 360.44,-38.98 351.72,-30.83"/>
<polygon fill="#63b8ff" stroke="#63b8ff" points="378.67,-60.81 388.36,-65.08 383.45,-55.69 378.67,-60.81"/>
</a>
</g>
</g>
<!-- Node18 -->
<g id="Node000018" class="node">
<title>Node18</title>
<g id="a_Node000018"><a xlink:href="mx4sio_8c_source.html" target="_top" xlink:title=" ">
<polygon fill="white" stroke="#666666" points="1321.38,-97 1210.88,-97 1210.88,-66.5 1321.38,-66.5 1321.38,-97"/>
<text text-anchor="start" x="1218.88" y="-83.5" font-family="Helvetica,sans-Serif" font-size="10.00">iop/sio/mx4sio_bd/src</text>
<text text-anchor="middle" x="1266.12" y="-72.25" font-family="Helvetica,sans-Serif" font-size="10.00">/mx4sio.c</text>
</a>
</g>
</g>
<!-- Node17&#45;&gt;Node18 -->
<g id="edge17_Node000017_Node000018" class="edge">
<title>Node17&#45;&gt;Node18</title>
<g id="a_edge17_Node000017_Node000018"><a xlink:title=" ">
<path fill="none" stroke="#63b8ff" d="M1258.3,-121.59C1259.96,-113.34 1261.74,-104.49 1263.19,-97.33"/>
<polygon fill="#63b8ff" stroke="#63b8ff" points="1254.92,-120.64 1256.37,-131.13 1261.78,-122.02 1254.92,-120.64"/>
</a>
</g>
</g>
<!-- Node19 -->
<g id="Node000019" class="node">
<title>Node19</title>
<g id="a_Node000019"><a xlink:href="freemtap_8c.html" target="_top" xlink:title=" ">
<polygon fill="white" stroke="#666666" points="1446.5,-97 1339.75,-97 1339.75,-66.5 1446.5,-66.5 1446.5,-97"/>
<text text-anchor="start" x="1347.75" y="-83.5" font-family="Helvetica,sans-Serif" font-size="10.00">iop/system/mtapman</text>
<text text-anchor="middle" x="1393.12" y="-72.25" font-family="Helvetica,sans-Serif" font-size="10.00">/src/freemtap.c</text>
</a>
</g>
</g>
<!-- Node17&#45;&gt;Node19 -->
<g id="edge18_Node000017_Node000019" class="edge">
<title>Node17&#45;&gt;Node19</title>
<g id="a_edge18_Node000017_Node000019"><a xlink:title=" ">
<path fill="none" stroke="#63b8ff" d="M1295.27,-127.83C1316.54,-118.03 1341.91,-106.35 1361.48,-97.33"/>
<polygon fill="#63b8ff" stroke="#63b8ff" points="1293.89,-124.62 1286.27,-131.98 1296.81,-130.98 1293.89,-124.62"/>
</a>
</g>
</g>
<!-- Node20 -->
<g id="Node000020" class="node">
<title>Node20</title>
<g id="a_Node000020"><a xlink:href="iop_2system_2mtapman_2src_2irx__imports_8h_source.html" target="_top" xlink:title=" ">
<polygon fill="white" stroke="#666666" points="1571.5,-97 1464.75,-97 1464.75,-66.5 1571.5,-66.5 1571.5,-97"/>
<text text-anchor="start" x="1472.75" y="-83.5" font-family="Helvetica,sans-Serif" font-size="10.00">iop/system/mtapman</text>
<text text-anchor="middle" x="1518.12" y="-72.25" font-family="Helvetica,sans-Serif" font-size="10.00">/src/irx_imports.h</text>
</a>
</g>
</g>
<!-- Node17&#45;&gt;Node20 -->
<g id="edge19_Node000017_Node000020" class="edge">
<title>Node17&#45;&gt;Node20</title>
<g id="a_edge19_Node000017_Node000020"><a xlink:title=" ">
<path fill="none" stroke="#63b8ff" d="M1310.19,-132.51C1368.3,-118.09 1424.56,-104.7 1464.54,-95.28"/>
<polygon fill="#63b8ff" stroke="#63b8ff" points="1309.65,-129.04 1300.79,-134.85 1311.34,-135.83 1309.65,-129.04"/>
</a>
</g>
</g>
<!-- Node21 -->
<g id="Node000021" class="node">
<title>Node21</title>
<g id="a_Node000021"><a xlink:href="rsio2man_8h.html" target="_top" xlink:title=" ">
<polygon fill="white" stroke="#666666" points="1692.62,-97 1589.62,-97 1589.62,-66.5 1692.62,-66.5 1692.62,-97"/>
<text text-anchor="start" x="1597.62" y="-83.5" font-family="Helvetica,sans-Serif" font-size="10.00">iop/system/sio2man</text>
<text text-anchor="middle" x="1641.12" y="-72.25" font-family="Helvetica,sans-Serif" font-size="10.00">/include/rsio2man.h</text>
</a>
</g>
</g>
<!-- Node17&#45;&gt;Node21 -->
<g id="edge20_Node000017_Node000021" class="edge">
<title>Node17&#45;&gt;Node21</title>
<g id="a_edge20_Node000017_Node000021"><a xlink:title=" ">
<path fill="none" stroke="#63b8ff" d="M1310.3,-132.74C1429.79,-110.18 1463.68,-118.25 1580.12,-97 1583.12,-96.45 1586.19,-95.86 1589.28,-95.22"/>
<polygon fill="#63b8ff" stroke="#63b8ff" points="1309.89,-129.25 1300.73,-134.58 1311.21,-136.13 1309.89,-129.25"/>
</a>
</g>
</g>
<!-- Node22 -->
<g id="Node000022" class="node">
<title>Node22</title>
<g id="a_Node000022"><a xlink:href="iop_2system_2rmman_2src_2irx__imports_8h_source.html" target="_top" xlink:title=" ">
<polygon fill="white" stroke="#666666" points="1566.5,-30.5 1453.75,-30.5 1453.75,0 1566.5,0 1566.5,-30.5"/>
<text text-anchor="start" x="1461.75" y="-17" font-family="Helvetica,sans-Serif" font-size="10.00">iop/system/rmman/src</text>
<text text-anchor="middle" x="1510.12" y="-5.75" font-family="Helvetica,sans-Serif" font-size="10.00">/irx_imports.h</text>
</a>
</g>
</g>
<!-- Node21&#45;&gt;Node22 -->
<g id="edge21_Node000021_Node000022" class="edge">
<title>Node21&#45;&gt;Node22</title>
<g id="a_edge21_Node000021_Node000022"><a xlink:title=" ">
<path fill="none" stroke="#63b8ff" d="M1601.14,-61.06C1581.35,-51.32 1557.88,-39.76 1539.73,-30.83"/>
<polygon fill="#63b8ff" stroke="#63b8ff" points="1599.52,-64.17 1610.04,-65.45 1602.62,-57.89 1599.52,-64.17"/>
</a>
</g>
</g>
<!-- Node23 -->
<g id="Node000023" class="node">
<title>Node23</title>
<g id="a_Node000023"><a xlink:href="rmman_8c_source.html" target="_top" xlink:title=" ">
<polygon fill="white" stroke="#666666" points="1697.5,-30.5 1584.75,-30.5 1584.75,0 1697.5,0 1697.5,-30.5"/>
<text text-anchor="start" x="1592.75" y="-17" font-family="Helvetica,sans-Serif" font-size="10.00">iop/system/rmman/src</text>
<text text-anchor="middle" x="1641.12" y="-5.75" font-family="Helvetica,sans-Serif" font-size="10.00">/rmman.c</text>
</a>
</g>
</g>
<!-- Node21&#45;&gt;Node23 -->
<g id="edge22_Node000021_Node000023" class="edge">
<title>Node21&#45;&gt;Node23</title>
<g id="a_edge22_Node000021_Node000023"><a xlink:title=" ">
<path fill="none" stroke="#63b8ff" d="M1641.12,-54.81C1641.12,-46.64 1641.12,-37.91 1641.12,-30.83"/>
<polygon fill="#63b8ff" stroke="#63b8ff" points="1637.63,-54.6 1641.13,-64.6 1644.63,-54.6 1637.63,-54.6"/>
</a>
</g>
</g>
<!-- Node24 -->
<g id="Node000024" class="node">
<title>Node24</title>
<g id="a_Node000024"><a xlink:href="sio2man_8c.html" target="_top" xlink:title=" ">
<polygon fill="white" stroke="#666666" points="1818.62,-30.5 1715.62,-30.5 1715.62,0 1818.62,0 1818.62,-30.5"/>
<text text-anchor="start" x="1723.62" y="-17" font-family="Helvetica,sans-Serif" font-size="10.00">iop/system/sio2man</text>
<text text-anchor="middle" x="1767.12" y="-5.75" font-family="Helvetica,sans-Serif" font-size="10.00">/src/sio2man.c</text>
</a>
</g>
</g>
<!-- Node21&#45;&gt;Node24 -->
<g id="edge23_Node000021_Node000024" class="edge">
<title>Node21&#45;&gt;Node24</title>
<g id="a_edge23_Node000021_Node000024"><a xlink:title=" ">
<path fill="none" stroke="#63b8ff" d="M1679.85,-60.93C1698.82,-51.21 1721.27,-39.72 1738.65,-30.83"/>
<polygon fill="#63b8ff" stroke="#63b8ff" points="1678.37,-57.75 1671.06,-65.42 1681.56,-63.98 1678.37,-57.75"/>
</a>
</g>
</g>
</g>
</svg>

<g id="navigator" transform="translate(0 0)" fill="#404254">
  <rect fill="#f2f5e9" fill-opacity="0.5" stroke="#606060" stroke-width=".5" x="0" y="0" width="60" height="60"/>
  <use id="zoomplus" xlink:href="#zoomPlus" x="17" y="9" onmousedown="handleZoom(evt,'in')"/>
  <use id="zoomminus" xlink:href="#zoomMin" x="42" y="9" onmousedown="handleZoom(evt,'out')"/>
  <use id="reset" xlink:href="#resetDef" x="30" y="36" onmousedown="handleReset()"/>
   <use id="arrowup" xlink:href="#arrowUp" x="0" y="0" onmousedown="handlePan(0,-1)"/>
  <use id="arrowright" xlink:href="#arrowRight" x="0" y="0" onmousedown="handlePan(1,0)"/>
  <use id="arrowdown" xlink:href="#arrowDown" x="0" y="0" onmousedown="handlePan(0,1)"/>
  <use id="arrowleft" xlink:href="#arrowLeft" x="0" y="0" onmousedown="handlePan(-1,0)"/>
</g>
<svg viewBox="0 0 15 15" width="100%" height="30px" preserveAspectRatio="xMaxYMin meet">
 <g id="arrow_out" transform="scale(0.3 0.3)">
  <a xlink:href="sio2man_8h__dep__incl_org.svg" target="_base">
   <rect id="button" ry="5" rx="5" y="6" x="6" height="38" width="38"
        fill="#f2f5e9" fill-opacity="0.5" stroke="#606060" stroke-width="1.0"/>
   <path id="arrow"
     d="M 11.500037,31.436501 C 11.940474,20.09759 22.043105,11.32322 32.158766,21.979434 L 37.068811,17.246167 C 37.068811,17.246167 37.088388,32 37.088388,32 L 22.160133,31.978069 C 22.160133,31.978069 26.997745,27.140456 26.997745,27.140456 C 18.528582,18.264221 13.291696,25.230495 11.500037,31.436501 z"
     style="fill:#404040;"/>
  </a>
 </g>
</svg>

<style type='text/css'>
<![CDATA[
[data-mouse-over-selected='false'] { opacity: 0.7; }
[data-mouse-over-selected='true']  { opacity: 1.0; }
]]>
</style>
<script type="application/ecmascript"><![CDATA[
document.addEventListener('DOMContentLoaded', (event) => {
  highlightEdges();
  highlightAdjacentNodes();
});
]]></script>
</svg>
