<?xml version="1.0" encoding="UTF-8" standalone="no"?>
<!DOCTYPE svg PUBLIC "-//W3C//DTD SVG 1.1//EN"
 "http://www.w3.org/Graphics/SVG/1.1/DTD/svg11.dtd">
<!-- Generated by graphviz version 12.2.0 (20241103.1931)
 -->
<!-- Title: iop/system/sio2man/src/sio2man.c Pages: 1 -->
<svg width="435pt" height="370pt"
 viewBox="0.00 0.00 435.12 370.00" xmlns="http://www.w3.org/2000/svg" xmlns:xlink="http://www.w3.org/1999/xlink">

<svg id="main" version="1.1" xmlns="http://www.w3.org/2000/svg" xmlns:xlink="http://www.w3.org/1999/xlink" xml:space="preserve">

<style type="text/css"><![CDATA[
.node, .edge {opacity: 0.7;}
.node.selected, .edge.selected {opacity: 1;}
.edge:hover path { stroke: red; }
.edge:hover polygon { stroke: red; fill: red; }
]]></style>
<script type="application/ecmascript" xlink:href="svg.min.js"/>
<svg id="graph" class="graph">
<g id="graph0" class="graph" transform="scale(1 1) rotate(0) translate(4 366)">
<title>iop/system/sio2man/src/sio2man.c</title>
<!-- Node1 -->
<g id="Node000001" class="node">
<title>Node1</title>
<g id="a_Node000001"><a xlink:title=" ">
<polygon fill="#999999" stroke="#666666" points="328.62,-362 225.62,-362 225.62,-331.5 328.62,-331.5 328.62,-362"/>
<text text-anchor="start" x="233.62" y="-348.5" font-family="Helvetica,sans-Serif" font-size="10.00">iop/system/sio2man</text>
<text text-anchor="middle" x="277.12" y="-337.25" font-family="Helvetica,sans-Serif" font-size="10.00">/src/sio2man.c</text>
</a>
</g>
</g>
<!-- Node2 -->
<g id="Node000002" class="node">
<title>Node2</title>
<g id="a_Node000002"><a xlink:href="iop_2system_2sio2man_2src_2irx__imports_8h_source.html" target="_top" xlink:title=" ">
<polygon fill="white" stroke="#666666" points="233.5,-240.25 162.75,-240.25 162.75,-221 233.5,-221 233.5,-240.25"/>
<text text-anchor="middle" x="198.12" y="-226.75" font-family="Helvetica,sans-Serif" font-size="10.00">irx_imports.h</text>
</a>
</g>
</g>
<!-- Node1&#45;&gt;Node2 -->
<g id="edge1_Node000001_Node000002" class="edge">
<title>Node1&#45;&gt;Node2</title>
<g id="a_edge1_Node000001_Node000002"><a xlink:title=" ">
<path fill="none" stroke="#63b8ff" d="M264.33,-331.25C255.93,-321.44 244.9,-308.05 236.12,-295.5 225.94,-280.94 215.72,-263.57 208.45,-250.62"/>
<polygon fill="#63b8ff" stroke="#63b8ff" points="211.52,-248.95 203.62,-241.88 205.39,-252.33 211.52,-248.95"/>
</a>
</g>
</g>
<!-- Node11 -->
<g id="Node000011" class="node">
<title>Node11</title>
<g id="a_Node000011"><a xlink:href="iop__mmio__hwport_8h.html" target="_top" xlink:title=" ">
<polygon fill="white" stroke="#666666" points="427.12,-295.5 327.12,-295.5 327.12,-276.25 427.12,-276.25 427.12,-295.5"/>
<text text-anchor="middle" x="377.12" y="-282" font-family="Helvetica,sans-Serif" font-size="10.00">iop_mmio_hwport.h</text>
</a>
</g>
</g>
<!-- Node1&#45;&gt;Node11 -->
<g id="edge18_Node000001_Node000011" class="edge">
<title>Node1&#45;&gt;Node11</title>
<g id="a_edge18_Node000001_Node000011"><a xlink:title=" ">
<path fill="none" stroke="#63b8ff" d="M302.1,-331.05C317.33,-322.08 336.73,-310.66 351.99,-301.67"/>
<polygon fill="#63b8ff" stroke="#63b8ff" points="353.64,-304.76 360.48,-296.67 350.09,-298.73 353.64,-304.76"/>
</a>
</g>
</g>
<!-- Node12 -->
<g id="Node000012" class="node">
<title>Node12</title>
<g id="a_Node000012"><a xlink:href="rsio2man_8h.html" target="_top" xlink:title=" ">
<polygon fill="white" stroke="#666666" points="308.75,-295.5 245.5,-295.5 245.5,-276.25 308.75,-276.25 308.75,-295.5"/>
<text text-anchor="middle" x="277.12" y="-282" font-family="Helvetica,sans-Serif" font-size="10.00">rsio2man.h</text>
</a>
</g>
</g>
<!-- Node1&#45;&gt;Node12 -->
<g id="edge19_Node000001_Node000012" class="edge">
<title>Node1&#45;&gt;Node12</title>
<g id="a_edge19_Node000001_Node000012"><a xlink:title=" ">
<path fill="none" stroke="#63b8ff" d="M277.12,-331.2C277.12,-323.96 277.12,-315.09 277.12,-307.19"/>
<polygon fill="#63b8ff" stroke="#63b8ff" points="280.63,-307.46 277.13,-297.46 273.63,-307.46 280.63,-307.46"/>
</a>
</g>
</g>
<!-- Node3 -->
<g id="Node000003" class="node">
<title>Node3</title>
<g id="a_Node000003"><a xlink:href="irx_8h.html" target="_top" xlink:title=" ">
<polygon fill="white" stroke="#666666" points="188.75,-129.75 155.5,-129.75 155.5,-110.5 188.75,-110.5 188.75,-129.75"/>
<text text-anchor="middle" x="172.12" y="-116.25" font-family="Helvetica,sans-Serif" font-size="10.00">irx.h</text>
</a>
</g>
</g>
<!-- Node2&#45;&gt;Node3 -->
<g id="edge2_Node000002_Node000003" class="edge">
<title>Node2&#45;&gt;Node3</title>
<g id="a_edge2_Node000002_Node000003"><a xlink:title=" ">
<path fill="none" stroke="#63b8ff" d="M195.9,-220.74C193.66,-211.74 190.11,-197.41 187.12,-185 183.61,-170.38 179.73,-153.86 176.8,-141.28"/>
<polygon fill="#63b8ff" stroke="#63b8ff" points="180.25,-140.65 174.57,-131.7 173.43,-142.24 180.25,-140.65"/>
</a>
</g>
</g>
<!-- Node7 -->
<g id="Node000007" class="node">
<title>Node7</title>
<g id="a_Node000007"><a xlink:href="dmacman_8h.html" target="_top" xlink:title=" ">
<polygon fill="white" stroke="#666666" points="262.25,-185 196,-185 196,-165.75 262.25,-165.75 262.25,-185"/>
<text text-anchor="middle" x="229.12" y="-171.5" font-family="Helvetica,sans-Serif" font-size="10.00">dmacman.h</text>
</a>
</g>
</g>
<!-- Node2&#45;&gt;Node7 -->
<g id="edge6_Node000002_Node000007" class="edge">
<title>Node2&#45;&gt;Node7</title>
<g id="a_edge6_Node000002_Node000007"><a xlink:title=" ">
<path fill="none" stroke="#63b8ff" d="M203.24,-220.83C207.3,-213.86 213.12,-203.87 218.21,-195.12"/>
<polygon fill="#63b8ff" stroke="#63b8ff" points="221.13,-197.07 223.13,-186.67 215.08,-193.55 221.13,-197.07"/>
</a>
</g>
</g>
<!-- Node8 -->
<g id="Node000008" class="node">
<title>Node8</title>
<g id="a_Node000008"><a xlink:href="intrman_8h.html" target="_top" xlink:title=" ">
<polygon fill="white" stroke="#666666" points="336,-185 280.25,-185 280.25,-165.75 336,-165.75 336,-185"/>
<text text-anchor="middle" x="308.12" y="-171.5" font-family="Helvetica,sans-Serif" font-size="10.00">intrman.h</text>
</a>
</g>
</g>
<!-- Node2&#45;&gt;Node8 -->
<g id="edge9_Node000002_Node000008" class="edge">
<title>Node2&#45;&gt;Node8</title>
<g id="a_edge9_Node000002_Node000008"><a xlink:title=" ">
<path fill="none" stroke="#63b8ff" d="M216.79,-220.59C233.85,-212.33 259.37,-199.98 279.1,-190.43"/>
<polygon fill="#63b8ff" stroke="#63b8ff" points="280.54,-193.62 288.01,-186.11 277.49,-187.32 280.54,-193.62"/>
</a>
</g>
</g>
<!-- Node9 -->
<g id="Node000009" class="node">
<title>Node9</title>
<g id="a_Node000009"><a xlink:href="loadcore_8h.html" target="_top" xlink:title=" ">
<polygon fill="white" stroke="#666666" points="60.25,-185 0,-185 0,-165.75 60.25,-165.75 60.25,-185"/>
<text text-anchor="middle" x="30.12" y="-171.5" font-family="Helvetica,sans-Serif" font-size="10.00">loadcore.h</text>
</a>
</g>
</g>
<!-- Node2&#45;&gt;Node9 -->
<g id="edge12_Node000002_Node000009" class="edge">
<title>Node2&#45;&gt;Node9</title>
<g id="a_edge12_Node000002_Node000009"><a xlink:title=" ">
<path fill="none" stroke="#63b8ff" d="M169.63,-220.59C142.11,-211.87 100.22,-198.59 69.52,-188.86"/>
<polygon fill="#63b8ff" stroke="#63b8ff" points="70.8,-185.59 60.21,-185.91 68.68,-192.27 70.8,-185.59"/>
</a>
</g>
</g>
<!-- Node10 -->
<g id="Node000010" class="node">
<title>Node10</title>
<g id="a_Node000010"><a xlink:href="thsemap_8h.html" target="_top" xlink:title=" ">
<polygon fill="white" stroke="#666666" points="139.62,-185 78.62,-185 78.62,-165.75 139.62,-165.75 139.62,-185"/>
<text text-anchor="middle" x="109.12" y="-171.5" font-family="Helvetica,sans-Serif" font-size="10.00">thsemap.h</text>
</a>
</g>
</g>
<!-- Node2&#45;&gt;Node10 -->
<g id="edge15_Node000002_Node000010" class="edge">
<title>Node2&#45;&gt;Node10</title>
<g id="a_edge15_Node000002_Node000010"><a xlink:title=" ">
<path fill="none" stroke="#63b8ff" d="M183.03,-220.59C169.6,-212.56 149.71,-200.66 133.95,-191.23"/>
<polygon fill="#63b8ff" stroke="#63b8ff" points="135.97,-188.36 125.6,-186.23 132.38,-194.37 135.97,-188.36"/>
</a>
</g>
</g>
<!-- Node4 -->
<g id="Node000004" class="node">
<title>Node4</title>
<g id="a_Node000004"><a xlink:href="iop_2kernel_2include_2types_8h_source.html" target="_top" xlink:title=" ">
<polygon fill="white" stroke="#666666" points="195.5,-74.5 148.75,-74.5 148.75,-55.25 195.5,-55.25 195.5,-74.5"/>
<text text-anchor="middle" x="172.12" y="-61" font-family="Helvetica,sans-Serif" font-size="10.00">types.h</text>
</a>
</g>
</g>
<!-- Node3&#45;&gt;Node4 -->
<g id="edge3_Node000003_Node000004" class="edge">
<title>Node3&#45;&gt;Node4</title>
<g id="a_edge3_Node000003_Node000004"><a xlink:title=" ">
<path fill="none" stroke="#63b8ff" d="M172.12,-110.33C172.12,-103.82 172.12,-94.67 172.12,-86.37"/>
<polygon fill="#63b8ff" stroke="#63b8ff" points="175.63,-86.37 172.13,-76.37 168.63,-86.37 175.63,-86.37"/>
</a>
</g>
</g>
<!-- Node5 -->
<g id="Node000005" class="node">
<title>Node5</title>
<g id="a_Node000005"><a xlink:title=" ">
<polygon fill="#e0e0e0" stroke="#999999" points="160.38,-19.25 109.88,-19.25 109.88,0 160.38,0 160.38,-19.25"/>
<text text-anchor="middle" x="135.12" y="-5.75" font-family="Helvetica,sans-Serif" font-size="10.00">stddef.h</text>
</a>
</g>
</g>
<!-- Node4&#45;&gt;Node5 -->
<g id="edge4_Node000004_Node000005" class="edge">
<title>Node4&#45;&gt;Node5</title>
<g id="a_edge4_Node000004_Node000005"><a xlink:title=" ">
<path fill="none" stroke="#63b8ff" d="M166.02,-55.08C161.06,-47.96 153.92,-37.68 147.75,-28.8"/>
<polygon fill="#63b8ff" stroke="#63b8ff" points="150.81,-27.07 142.23,-20.85 145.06,-31.06 150.81,-27.07"/>
</a>
</g>
</g>
<!-- Node6 -->
<g id="Node000006" class="node">
<title>Node6</title>
<g id="a_Node000006"><a xlink:href="tamtypes_8h.html" target="_top" xlink:title=" ">
<polygon fill="white" stroke="#666666" points="241.75,-19.25 178.5,-19.25 178.5,0 241.75,0 241.75,-19.25"/>
<text text-anchor="middle" x="210.12" y="-5.75" font-family="Helvetica,sans-Serif" font-size="10.00">tamtypes.h</text>
</a>
</g>
</g>
<!-- Node4&#45;&gt;Node6 -->
<g id="edge5_Node000004_Node000006" class="edge">
<title>Node4&#45;&gt;Node6</title>
<g id="a_edge5_Node000004_Node000006"><a xlink:title=" ">
<path fill="none" stroke="#63b8ff" d="M178.4,-55.08C183.48,-47.96 190.82,-37.68 197.16,-28.8"/>
<polygon fill="#63b8ff" stroke="#63b8ff" points="199.87,-31.01 202.83,-20.84 194.18,-26.95 199.87,-31.01"/>
</a>
</g>
</g>
<!-- Node7&#45;&gt;Node3 -->
<g id="edge8_Node000007_Node000003" class="edge">
<title>Node7&#45;&gt;Node3</title>
<g id="a_edge8_Node000007_Node000003"><a xlink:title=" ">
<path fill="none" stroke="#63b8ff" d="M219.46,-165.34C211.38,-157.8 199.66,-146.85 189.9,-137.73"/>
<polygon fill="#63b8ff" stroke="#63b8ff" points="192.45,-135.33 182.76,-131.06 187.68,-140.44 192.45,-135.33"/>
</a>
</g>
</g>
<!-- Node7&#45;&gt;Node4 -->
<g id="edge7_Node000007_Node000004" class="edge">
<title>Node7&#45;&gt;Node4</title>
<g id="a_edge7_Node000007_Node000004"><a xlink:title=" ">
<path fill="none" stroke="#63b8ff" d="M225.12,-165.59C219.4,-153.18 208.45,-129.86 198.12,-110.5 193.54,-101.9 188.17,-92.57 183.5,-84.67"/>
<polygon fill="#63b8ff" stroke="#63b8ff" points="186.62,-83.07 178.49,-76.29 180.62,-86.67 186.62,-83.07"/>
</a>
</g>
</g>
<!-- Node8&#45;&gt;Node3 -->
<g id="edge11_Node000008_Node000003" class="edge">
<title>Node8&#45;&gt;Node3</title>
<g id="a_edge11_Node000008_Node000003"><a xlink:title=" ">
<path fill="none" stroke="#63b8ff" d="M285.05,-165.34C261.4,-156.08 224.6,-141.67 199.49,-131.84"/>
<polygon fill="#63b8ff" stroke="#63b8ff" points="200.86,-128.62 190.27,-128.23 198.31,-135.13 200.86,-128.62"/>
</a>
</g>
</g>
<!-- Node8&#45;&gt;Node4 -->
<g id="edge10_Node000008_Node000004" class="edge">
<title>Node8&#45;&gt;Node4</title>
<g id="a_edge10_Node000008_Node000004"><a xlink:title=" ">
<path fill="none" stroke="#63b8ff" d="M297,-165.5C274.08,-147.22 221.36,-105.15 192.28,-81.96"/>
<polygon fill="#63b8ff" stroke="#63b8ff" points="194.59,-79.32 184.59,-75.82 190.23,-84.79 194.59,-79.32"/>
</a>
</g>
</g>
<!-- Node9&#45;&gt;Node3 -->
<g id="edge14_Node000009_Node000003" class="edge">
<title>Node9&#45;&gt;Node3</title>
<g id="a_edge14_Node000009_Node000003"><a xlink:title=" ">
<path fill="none" stroke="#63b8ff" d="M54.21,-165.34C79.17,-155.98 118.11,-141.38 144.34,-131.54"/>
<polygon fill="#63b8ff" stroke="#63b8ff" points="145.52,-134.84 153.65,-128.05 143.06,-128.29 145.52,-134.84"/>
</a>
</g>
</g>
<!-- Node9&#45;&gt;Node4 -->
<g id="edge13_Node000009_Node000004" class="edge">
<title>Node9&#45;&gt;Node4</title>
<g id="a_edge13_Node000009_Node000004"><a xlink:title=" ">
<path fill="none" stroke="#63b8ff" d="M41.75,-165.5C65.77,-147.14 121.2,-104.79 151.47,-81.66"/>
<polygon fill="#63b8ff" stroke="#63b8ff" points="153.32,-84.65 159.14,-75.8 149.07,-79.09 153.32,-84.65"/>
</a>
</g>
</g>
<!-- Node10&#45;&gt;Node3 -->
<g id="edge17_Node000010_Node000003" class="edge">
<title>Node10&#45;&gt;Node3</title>
<g id="a_edge17_Node000010_Node000003"><a xlink:title=" ">
<path fill="none" stroke="#63b8ff" d="M119.81,-165.34C128.83,-157.72 141.96,-146.62 152.81,-137.45"/>
<polygon fill="#63b8ff" stroke="#63b8ff" points="155.06,-140.13 160.44,-131 150.54,-134.78 155.06,-140.13"/>
</a>
</g>
</g>
<!-- Node10&#45;&gt;Node4 -->
<g id="edge16_Node000010_Node000004" class="edge">
<title>Node10&#45;&gt;Node4</title>
<g id="a_edge16_Node000010_Node000004"><a xlink:title=" ">
<path fill="none" stroke="#63b8ff" d="M114.39,-165.27C121.56,-152.88 134.79,-130 146.12,-110.5 151.08,-101.97 156.58,-92.53 161.24,-84.54"/>
<polygon fill="#63b8ff" stroke="#63b8ff" points="164.16,-86.47 166.18,-76.07 158.12,-82.94 164.16,-86.47"/>
</a>
</g>
</g>
<!-- Node13 -->
<g id="Node000013" class="node">
<title>Node13</title>
<g id="a_Node000013"><a xlink:href="xsio2man_8h.html" target="_top" xlink:title=" ">
<polygon fill="white" stroke="#666666" points="366.5,-240.25 301.75,-240.25 301.75,-221 366.5,-221 366.5,-240.25"/>
<text text-anchor="middle" x="334.12" y="-226.75" font-family="Helvetica,sans-Serif" font-size="10.00">xsio2man.h</text>
</a>
</g>
</g>
<!-- Node12&#45;&gt;Node13 -->
<g id="edge20_Node000012_Node000013" class="edge">
<title>Node12&#45;&gt;Node13</title>
<g id="a_edge20_Node000012_Node000013"><a xlink:title=" ">
<path fill="none" stroke="#63b8ff" d="M286.79,-275.84C294.87,-268.3 306.59,-257.35 316.35,-248.23"/>
<polygon fill="#63b8ff" stroke="#63b8ff" points="318.57,-250.94 323.49,-241.56 313.8,-245.83 318.57,-250.94"/>
</a>
</g>
</g>
<!-- Node14 -->
<g id="Node000014" class="node">
<title>Node14</title>
<g id="a_Node000014"><a xlink:href="sio2man_8h.html" target="_top" xlink:title=" ">
<polygon fill="white" stroke="#666666" points="414.25,-185 354,-185 354,-165.75 414.25,-165.75 414.25,-185"/>
<text text-anchor="middle" x="384.12" y="-171.5" font-family="Helvetica,sans-Serif" font-size="10.00">sio2man.h</text>
</a>
</g>
</g>
<!-- Node13&#45;&gt;Node14 -->
<g id="edge21_Node000013_Node000014" class="edge">
<title>Node13&#45;&gt;Node14</title>
<g id="a_edge21_Node000013_Node000014"><a xlink:title=" ">
<path fill="none" stroke="#63b8ff" d="M342.38,-220.83C349.29,-213.48 359.35,-202.76 367.86,-193.69"/>
<polygon fill="#63b8ff" stroke="#63b8ff" points="370.36,-196.15 374.65,-186.46 365.26,-191.36 370.36,-196.15"/>
</a>
</g>
</g>
<!-- Node14&#45;&gt;Node3 -->
<g id="edge23_Node000014_Node000003" class="edge">
<title>Node14&#45;&gt;Node3</title>
<g id="a_edge23_Node000014_Node000003"><a xlink:title=" ">
<path fill="none" stroke="#63b8ff" d="M353.75,-166.75C312.68,-156.43 240,-138.17 200.16,-128.17"/>
<polygon fill="#63b8ff" stroke="#63b8ff" points="201.18,-124.81 190.63,-125.77 199.47,-131.6 201.18,-124.81"/>
</a>
</g>
</g>
<!-- Node15 -->
<g id="Node000015" class="node">
<title>Node15</title>
<g id="a_Node000015"><a xlink:title=" ">
<polygon fill="#e0e0e0" stroke="#999999" points="407.5,-129.75 360.75,-129.75 360.75,-110.5 407.5,-110.5 407.5,-129.75"/>
<text text-anchor="middle" x="384.12" y="-116.25" font-family="Helvetica,sans-Serif" font-size="10.00">types.h</text>
</a>
</g>
</g>
<!-- Node14&#45;&gt;Node15 -->
<g id="edge22_Node000014_Node000015" class="edge">
<title>Node14&#45;&gt;Node15</title>
<g id="a_edge22_Node000014_Node000015"><a xlink:title=" ">
<path fill="none" stroke="#63b8ff" d="M384.12,-165.58C384.12,-159.07 384.12,-149.92 384.12,-141.62"/>
<polygon fill="#63b8ff" stroke="#63b8ff" points="387.63,-141.62 384.13,-131.62 380.63,-141.62 387.63,-141.62"/>
</a>
</g>
</g>
</g>
</svg>
</svg>

<style type='text/css'>
<![CDATA[
[data-mouse-over-selected='false'] { opacity: 0.7; }
[data-mouse-over-selected='true']  { opacity: 1.0; }
]]>
</style>
<script type="application/ecmascript"><![CDATA[
document.addEventListener('DOMContentLoaded', (event) => {
  highlightEdges();
  highlightAdjacentNodes();
});
]]></script>
</svg>
