<?xml version="1.0" encoding="UTF-8" standalone="no"?>
<!DOCTYPE svg PUBLIC "-//W3C//DTD SVG 1.1//EN"
 "http://www.w3.org/Graphics/SVG/1.1/DTD/svg11.dtd">
<!-- Generated by graphviz version 12.2.0 (20241103.1931)
 -->
<!-- Title: iop/usb/usbd/include/usbd.h Pages: 1 -->
<!--zoomable 172 -->

<svg id="main" version="1.1" xmlns="http://www.w3.org/2000/svg" xmlns:xlink="http://www.w3.org/1999/xlink" xml:space="preserve" onload="init(evt)">

<style type="text/css"><![CDATA[
.node, .edge {opacity: 0.7;}
.node.selected, .edge.selected {opacity: 1;}
.edge:hover path { stroke: red; }
.edge:hover polygon { stroke: red; fill: red; }
]]></style>

<defs>
  <circle id="rim" cx="0" cy="0" r="7"/>
  <circle id="rim2" cx="0" cy="0" r="3.5"/>
  <g id="zoomPlus">
    <use xlink:href="#rim" fill="#404040"><set attributeName="fill" to="#808080" begin="zoomplus.mouseover" end="zoomplus.mouseout"/></use>
    <path d="M-4,0h8M0,-4v8" fill="none" stroke="white" stroke-width="1.5" pointer-events="none"/>
  </g>
  <g id="zoomMin">
    <use xlink:href="#rim" fill="#404040"><set attributeName="fill" to="#808080" begin="zoomminus.mouseover" end="zoomminus.mouseout"/></use>
    <path d="M-4,0h8" fill="none" stroke="white" stroke-width="1.5" pointer-events="none"/>
  </g>
  <g id="arrowUp" transform="translate(30 24)">
    <use xlink:href="#rim"/>
    <path pointer-events="none" fill="none" stroke="white" stroke-width="1.5" d="M0,-3.0v7 M-2.5,-0.5L0,-3.0L2.5,-0.5"/>
  </g>
  <g id="arrowRight" transform="rotate(90) translate(36 -43)">
    <use xlink:href="#rim"/>
    <path pointer-events="none" fill="none" stroke="white" stroke-width="1.5" d="M0,-3.0v7 M-2.5,-0.5L0,-3.0L2.5,-0.5"/>
  </g>
  <g id="arrowDown" transform="rotate(180) translate(-30 -48)">
    <use xlink:href="#rim"/>
    <path pointer-events="none" fill="none" stroke="white" stroke-width="1.5" d="M0,-3.0v7 M-2.5,-0.5L0,-3.0L2.5,-0.5"/>
  </g>
  <g id="arrowLeft" transform="rotate(270) translate(-36 17)">
    <use xlink:href="#rim"/>
    <path pointer-events="none" fill="none" stroke="white" stroke-width="1.5" d="M0,-3.0v7 M-2.5,-0.5L0,-3.0L2.5,-0.5"/>
  </g>
  <g id="resetDef">
    <use xlink:href="#rim2" fill="#404040"><set attributeName="fill" to="#808080" begin="reset.mouseover" end="reset.mouseout"/></use>
  </g>
</defs>
<script type="application/ecmascript">
var viewWidth = 1624;
var viewHeight = 172;
var sectionId = 'dynsection-1';
</script>
<script type="application/ecmascript" xlink:href="svg.min.js"/>
<svg id="graph" class="graph">
<g id="viewport">
<title>iop/usb/usbd/include/usbd.h</title>
<!-- Node1 -->
<g id="Node000001" class="node">
<title>Node1</title>
<g id="a_Node000001"><a xlink:title=" ">
<polygon fill="#999999" stroke="#666666" points="536.25,-163.5 431,-163.5 431,-133 536.25,-133 536.25,-163.5"/>
<text text-anchor="start" x="439" y="-150" font-family="Helvetica,sans-Serif" font-size="10.00">iop/usb/usbd/include</text>
<text text-anchor="middle" x="483.62" y="-138.75" font-family="Helvetica,sans-Serif" font-size="10.00">/usbd.h</text>
</a>
</g>
</g>
<!-- Node2 -->
<g id="Node000002" class="node">
<title>Node2</title>
<g id="a_Node000002"><a xlink:href="iop_2usb_2camera_2src_2irx__imports_8h_source.html" target="_top" xlink:title=" ">
<polygon fill="white" stroke="#666666" points="198.25,-97 99,-97 99,-66.5 198.25,-66.5 198.25,-97"/>
<text text-anchor="start" x="107" y="-83.5" font-family="Helvetica,sans-Serif" font-size="10.00">iop/usb/camera/src</text>
<text text-anchor="middle" x="148.62" y="-72.25" font-family="Helvetica,sans-Serif" font-size="10.00">/irx_imports.h</text>
</a>
</g>
</g>
<!-- Node1&#45;&gt;Node2 -->
<g id="edge1_Node000001_Node000002" class="edge">
<title>Node1&#45;&gt;Node2</title>
<g id="a_edge1_Node000001_Node000002"><a xlink:title=" ">
<path fill="none" stroke="#63b8ff" d="M419.23,-135.98C364.24,-126.19 283.1,-111.37 212.62,-97 208.05,-96.07 203.3,-95.07 198.55,-94.05"/>
<polygon fill="#63b8ff" stroke="#63b8ff" points="418.6,-139.42 429.06,-137.72 419.82,-132.53 418.6,-139.42"/>
</a>
</g>
</g>
<!-- Node3 -->
<g id="Node000003" class="node">
<title>Node3</title>
<g id="a_Node000003"><a xlink:href="ps2cam_8c.html" target="_top" xlink:title=" ">
<polygon fill="white" stroke="#666666" points="99.25,-30.5 0,-30.5 0,0 99.25,0 99.25,-30.5"/>
<text text-anchor="start" x="8" y="-17" font-family="Helvetica,sans-Serif" font-size="10.00">iop/usb/camera/src</text>
<text text-anchor="middle" x="49.62" y="-5.75" font-family="Helvetica,sans-Serif" font-size="10.00">/ps2cam.c</text>
</a>
</g>
</g>
<!-- Node1&#45;&gt;Node3 -->
<g id="edge2_Node000001_Node000003" class="edge">
<title>Node1&#45;&gt;Node3</title>
<g id="a_edge2_Node000001_Node000003"><a xlink:title=" ">
<path fill="none" stroke="#63b8ff" d="M419.49,-143.42C368.6,-138.21 296.9,-125.94 240.62,-97 222.86,-87.87 224.89,-76.54 207.62,-66.5 189.09,-55.71 138.61,-40.46 99.64,-29.6"/>
<polygon fill="#63b8ff" stroke="#63b8ff" points="418.88,-146.87 429.16,-144.34 419.54,-139.91 418.88,-146.87"/>
</a>
</g>
</g>
<!-- Node4 -->
<g id="Node000004" class="node">
<title>Node4</title>
<g id="a_Node000004"><a xlink:href="iop_2usb_2keyboard_2src_2irx__imports_8h_source.html" target="_top" xlink:title=" ">
<polygon fill="white" stroke="#666666" points="636.62,-97 530.62,-97 530.62,-66.5 636.62,-66.5 636.62,-97"/>
<text text-anchor="start" x="538.62" y="-83.5" font-family="Helvetica,sans-Serif" font-size="10.00">iop/usb/keyboard/src</text>
<text text-anchor="middle" x="583.62" y="-72.25" font-family="Helvetica,sans-Serif" font-size="10.00">/irx_imports.h</text>
</a>
</g>
</g>
<!-- Node1&#45;&gt;Node4 -->
<g id="edge3_Node000001_Node000004" class="edge">
<title>Node1&#45;&gt;Node4</title>
<g id="a_edge3_Node000001_Node000004"><a xlink:title=" ">
<path fill="none" stroke="#63b8ff" d="M515.62,-126.61C530.4,-117.08 547.62,-105.98 561.02,-97.33"/>
<polygon fill="#63b8ff" stroke="#63b8ff" points="514.09,-123.43 507.59,-131.79 517.89,-129.31 514.09,-123.43"/>
</a>
</g>
</g>
<!-- Node5 -->
<g id="Node000005" class="node">
<title>Node5</title>
<g id="a_Node000005"><a xlink:href="ps2kbd_8c.html" target="_top" xlink:title=" ">
<polygon fill="white" stroke="#666666" points="223.62,-30.5 117.62,-30.5 117.62,0 223.62,0 223.62,-30.5"/>
<text text-anchor="start" x="125.62" y="-17" font-family="Helvetica,sans-Serif" font-size="10.00">iop/usb/keyboard/src</text>
<text text-anchor="middle" x="170.62" y="-5.75" font-family="Helvetica,sans-Serif" font-size="10.00">/ps2kbd.c</text>
</a>
</g>
</g>
<!-- Node1&#45;&gt;Node5 -->
<g id="edge4_Node000001_Node000005" class="edge">
<title>Node1&#45;&gt;Node5</title>
<g id="a_edge4_Node000001_Node000005"><a xlink:title=" ">
<path fill="none" stroke="#63b8ff" d="M419.56,-137.47C379.27,-129.81 326.89,-117.02 283.62,-97 282.35,-96.41 223.28,-54.05 191.07,-30.93"/>
<polygon fill="#63b8ff" stroke="#63b8ff" points="418.9,-140.91 429.37,-139.27 420.16,-134.02 418.9,-140.91"/>
</a>
</g>
</g>
<!-- Node6 -->
<g id="Node000006" class="node">
<title>Node6</title>
<g id="a_Node000006"><a xlink:href="iop_2usb_2mouse_2src_2irx__imports_8h_source.html" target="_top" xlink:title=" ">
<polygon fill="white" stroke="#666666" points="764.12,-97 655.12,-97 655.12,-66.5 764.12,-66.5 764.12,-97"/>
<text text-anchor="start" x="663.12" y="-83.5" font-family="Helvetica,sans-Serif" font-size="10.00">iop/usb/mouse/src/irx</text>
<text text-anchor="middle" x="709.62" y="-72.25" font-family="Helvetica,sans-Serif" font-size="10.00">_imports.h</text>
</a>
</g>
</g>
<!-- Node1&#45;&gt;Node6 -->
<g id="edge5_Node000001_Node000006" class="edge">
<title>Node1&#45;&gt;Node6</title>
<g id="a_edge5_Node000001_Node000006"><a xlink:title=" ">
<path fill="none" stroke="#63b8ff" d="M545.87,-129.49C581.21,-119.4 624.91,-106.93 658.28,-97.4"/>
<polygon fill="#63b8ff" stroke="#63b8ff" points="545.3,-126.01 536.65,-132.12 547.22,-132.74 545.3,-126.01"/>
</a>
</g>
</g>
<!-- Node7 -->
<g id="Node000007" class="node">
<title>Node7</title>
<g id="a_Node000007"><a xlink:href="ps2mouse_8c.html" target="_top" xlink:title=" ">
<polygon fill="white" stroke="#666666" points="393.5,-24.88 241.75,-24.88 241.75,-5.63 393.5,-5.63 393.5,-24.88"/>
<text text-anchor="middle" x="317.62" y="-11.38" font-family="Helvetica,sans-Serif" font-size="10.00">iop/usb/mouse/src/ps2mouse.c</text>
</a>
</g>
</g>
<!-- Node1&#45;&gt;Node7 -->
<g id="edge6_Node000001_Node000007" class="edge">
<title>Node1&#45;&gt;Node7</title>
<g id="a_edge6_Node000001_Node000007"><a xlink:title=" ">
<path fill="none" stroke="#63b8ff" d="M464.84,-123.69C450.38,-106.51 429.27,-83.38 407.62,-66.5 385.47,-49.22 356.64,-34.23 337.65,-25.23"/>
<polygon fill="#63b8ff" stroke="#63b8ff" points="462.12,-125.89 471.18,-131.38 467.52,-121.44 462.12,-125.89"/>
</a>
</g>
</g>
<!-- Node8 -->
<g id="Node000008" class="node">
<title>Node8</title>
<g id="a_Node000008"><a xlink:href="usbd__macro_8h.html" target="_top" xlink:title=" ">
<polygon fill="white" stroke="#666666" points="398.25,-97 293,-97 293,-66.5 398.25,-66.5 398.25,-97"/>
<text text-anchor="start" x="301" y="-83.5" font-family="Helvetica,sans-Serif" font-size="10.00">iop/usb/usbd/include</text>
<text text-anchor="middle" x="345.62" y="-72.25" font-family="Helvetica,sans-Serif" font-size="10.00">/usbd_macro.h</text>
</a>
</g>
</g>
<!-- Node1&#45;&gt;Node8 -->
<g id="edge7_Node000001_Node000008" class="edge">
<title>Node1&#45;&gt;Node8</title>
<g id="a_edge7_Node000001_Node000008"><a xlink:title=" ">
<path fill="none" stroke="#63b8ff" d="M442.08,-127.83C421.11,-118.03 396.11,-106.35 376.82,-97.33"/>
<polygon fill="#63b8ff" stroke="#63b8ff" points="440.4,-130.91 450.94,-131.97 443.36,-124.57 440.4,-130.91"/>
</a>
</g>
</g>
<!-- Node9 -->
<g id="Node000009" class="node">
<title>Node9</title>
<g id="a_Node000009"><a xlink:href="usb__driver_8c_source.html" target="_top" xlink:title=" ">
<polygon fill="white" stroke="#666666" points="518,-30.5 411.25,-30.5 411.25,0 518,0 518,-30.5"/>
<text text-anchor="start" x="419.25" y="-17" font-family="Helvetica,sans-Serif" font-size="10.00">iop/usb/usbhdfsd/src</text>
<text text-anchor="middle" x="464.62" y="-5.75" font-family="Helvetica,sans-Serif" font-size="10.00">/usb_driver.c</text>
</a>
</g>
</g>
<!-- Node1&#45;&gt;Node9 -->
<g id="edge22_Node000001_Node000009" class="edge">
<title>Node1&#45;&gt;Node9</title>
<g id="a_edge22_Node000001_Node000009"><a xlink:title=" ">
<path fill="none" stroke="#63b8ff" d="M479.88,-121.43C475.95,-94.34 469.91,-52.71 466.74,-30.83"/>
<polygon fill="#63b8ff" stroke="#63b8ff" points="476.4,-121.84 481.3,-131.23 483.33,-120.83 476.4,-121.84"/>
</a>
</g>
</g>
<!-- Node10 -->
<g id="Node000010" class="node">
<title>Node10</title>
<g id="a_Node000010"><a xlink:href="usb__mass_8c_source.html" target="_top" xlink:title=" ">
<polygon fill="white" stroke="#666666" points="641.62,-30.5 535.62,-30.5 535.62,0 641.62,0 641.62,-30.5"/>
<text text-anchor="start" x="543.62" y="-17" font-family="Helvetica,sans-Serif" font-size="10.00">iop/usb/usbmass_bd</text>
<text text-anchor="middle" x="588.62" y="-5.75" font-family="Helvetica,sans-Serif" font-size="10.00">/src/usb_mass.c</text>
</a>
</g>
</g>
<!-- Node1&#45;&gt;Node10 -->
<g id="edge24_Node000001_Node000010" class="edge">
<title>Node1&#45;&gt;Node10</title>
<g id="a_edge24_Node000001_Node000010"><a xlink:title=" ">
<path fill="none" stroke="#63b8ff" d="M491.89,-121.91C498.23,-105.03 508.19,-82.99 521.62,-66.5 533.2,-52.3 549.61,-39.9 563.29,-30.98"/>
<polygon fill="#63b8ff" stroke="#63b8ff" points="488.63,-120.62 488.59,-131.22 495.23,-122.97 488.63,-120.62"/>
</a>
</g>
</g>
<!-- Node11 -->
<g id="Node000011" class="node">
<title>Node11</title>
<g id="a_Node000011"><a xlink:href="usbdpriv_8h.html" target="_top" xlink:title=" ">
<polygon fill="white" stroke="#666666" points="988.25,-91.38 853,-91.38 853,-72.12 988.25,-72.12 988.25,-91.38"/>
<text text-anchor="middle" x="920.62" y="-77.88" font-family="Helvetica,sans-Serif" font-size="10.00">iop/usb/usbd/src/usbdpriv.h</text>
</a>
</g>
</g>
<!-- Node1&#45;&gt;Node11 -->
<g id="edge13_Node000001_Node000011" class="edge">
<title>Node1&#45;&gt;Node11</title>
<g id="a_edge13_Node000001_Node000011"><a xlink:title=" ">
<path fill="none" stroke="#63b8ff" d="M547.71,-137.79C631.3,-125.45 776.55,-104.02 858.94,-91.86"/>
<polygon fill="#63b8ff" stroke="#63b8ff" points="547.22,-134.33 537.83,-139.25 548.24,-141.25 547.22,-134.33"/>
</a>
</g>
</g>
<!-- Node19 -->
<g id="Node000019" class="node">
<title>Node19</title>
<g id="a_Node000019"><a xlink:href="iop_2usb_2usbhdfsd_2src_2irx__imports_8h_source.html" target="_top" xlink:title=" ">
<polygon fill="white" stroke="#666666" points="1113,-97 1006.25,-97 1006.25,-66.5 1113,-66.5 1113,-97"/>
<text text-anchor="start" x="1014.25" y="-83.5" font-family="Helvetica,sans-Serif" font-size="10.00">iop/usb/usbhdfsd/src</text>
<text text-anchor="middle" x="1059.62" y="-72.25" font-family="Helvetica,sans-Serif" font-size="10.00">/irx_imports.h</text>
</a>
</g>
</g>
<!-- Node1&#45;&gt;Node19 -->
<g id="edge21_Node000001_Node000019" class="edge">
<title>Node1&#45;&gt;Node19</title>
<g id="a_edge21_Node000001_Node000019"><a xlink:title=" ">
<path fill="none" stroke="#63b8ff" d="M547.88,-143.63C645.53,-137.52 836.91,-123.21 997.62,-97 1000.35,-96.56 1003.13,-96.06 1005.94,-95.53"/>
<polygon fill="#63b8ff" stroke="#63b8ff" points="547.73,-140.13 537.96,-144.24 548.16,-147.12 547.73,-140.13"/>
</a>
</g>
</g>
<!-- Node20 -->
<g id="Node000020" class="node">
<title>Node20</title>
<g id="a_Node000020"><a xlink:href="iop_2usb_2usbmass__bd_2src_2irx__imports_8h_source.html" target="_top" xlink:title=" ">
<polygon fill="white" stroke="#666666" points="1236.62,-97 1130.62,-97 1130.62,-66.5 1236.62,-66.5 1236.62,-97"/>
<text text-anchor="start" x="1138.62" y="-83.5" font-family="Helvetica,sans-Serif" font-size="10.00">iop/usb/usbmass_bd</text>
<text text-anchor="middle" x="1183.62" y="-72.25" font-family="Helvetica,sans-Serif" font-size="10.00">/src/irx_imports.h</text>
</a>
</g>
</g>
<!-- Node1&#45;&gt;Node20 -->
<g id="edge23_Node000001_Node000020" class="edge">
<title>Node1&#45;&gt;Node20</title>
<g id="a_edge23_Node000001_Node000020"><a xlink:title=" ">
<path fill="none" stroke="#63b8ff" d="M547.86,-145.32C663.3,-141.15 913.26,-128.97 1121.62,-97 1124.46,-96.56 1127.36,-96.07 1130.29,-95.53"/>
<polygon fill="#63b8ff" stroke="#63b8ff" points="547.83,-141.82 537.96,-145.67 548.07,-148.81 547.83,-141.82"/>
</a>
</g>
</g>
<!-- Node8&#45;&gt;Node3 -->
<g id="edge8_Node000008_Node000003" class="edge">
<title>Node8&#45;&gt;Node3</title>
<g id="a_edge8_Node000008_Node000003"><a xlink:title=" ">
<path fill="none" stroke="#63b8ff" d="M281.71,-67.71C233.96,-57.84 167.11,-43.76 108.62,-30.5 105.64,-29.82 102.58,-29.12 99.5,-28.4"/>
<polygon fill="#63b8ff" stroke="#63b8ff" points="280.84,-71.1 291.34,-69.69 282.25,-64.24 280.84,-71.1"/>
</a>
</g>
</g>
<!-- Node8&#45;&gt;Node5 -->
<g id="edge9_Node000008_Node000005" class="edge">
<title>Node8&#45;&gt;Node5</title>
<g id="a_edge9_Node000008_Node000005"><a xlink:title=" ">
<path fill="none" stroke="#63b8ff" d="M295.15,-62.15C268.24,-52.23 235.59,-40.2 210.48,-30.94"/>
<polygon fill="#63b8ff" stroke="#63b8ff" points="293.9,-65.42 304.49,-65.59 296.32,-58.85 293.9,-65.42"/>
</a>
</g>
</g>
<!-- Node8&#45;&gt;Node7 -->
<g id="edge10_Node000008_Node000007" class="edge">
<title>Node8&#45;&gt;Node7</title>
<g id="a_edge10_Node000008_Node000007"><a xlink:title=" ">
<path fill="none" stroke="#63b8ff" d="M334.82,-55.86C330.11,-45.01 324.89,-32.99 321.45,-25.07"/>
<polygon fill="#63b8ff" stroke="#63b8ff" points="331.48,-56.95 338.67,-64.73 337.9,-54.16 331.48,-56.95"/>
</a>
</g>
</g>
<!-- Node8&#45;&gt;Node9 -->
<g id="edge11_Node000008_Node000009" class="edge">
<title>Node8&#45;&gt;Node9</title>
<g id="a_edge11_Node000008_Node000009"><a xlink:title=" ">
<path fill="none" stroke="#63b8ff" d="M382.7,-60.66C400.51,-51 421.47,-39.64 437.73,-30.83"/>
<polygon fill="#63b8ff" stroke="#63b8ff" points="381.08,-57.55 373.96,-65.39 384.42,-63.7 381.08,-57.55"/>
</a>
</g>
</g>
<!-- Node8&#45;&gt;Node10 -->
<g id="edge12_Node000008_Node000010" class="edge">
<title>Node8&#45;&gt;Node10</title>
<g id="a_edge12_Node000008_Node000010"><a xlink:title=" ">
<path fill="none" stroke="#63b8ff" d="M409.66,-63.75C448.8,-53.36 498.28,-40.23 535.29,-30.41"/>
<polygon fill="#63b8ff" stroke="#63b8ff" points="408.88,-60.34 400.11,-66.29 410.68,-67.1 408.88,-60.34"/>
</a>
</g>
</g>
<!-- Node12 -->
<g id="Node000012" class="node">
<title>Node12</title>
<g id="a_Node000012"><a xlink:href="driver_8c.html" target="_top" xlink:title=" ">
<polygon fill="white" stroke="#666666" points="1615.88,-24.88 1493.38,-24.88 1493.38,-5.63 1615.88,-5.63 1615.88,-24.88"/>
<text text-anchor="middle" x="1554.62" y="-11.38" font-family="Helvetica,sans-Serif" font-size="10.00">iop/usb/usbd/src/driver.c</text>
</a>
</g>
</g>
<!-- Node11&#45;&gt;Node12 -->
<g id="edge14_Node000011_Node000012" class="edge">
<title>Node11&#45;&gt;Node12</title>
<g id="a_edge14_Node000011_Node000012"><a xlink:title=" ">
<path fill="none" stroke="#63b8ff" d="M976.62,-69.65C983.67,-68.47 990.81,-67.38 997.62,-66.5 1212.87,-38.71 1269.63,-60.21 1484.62,-30.5 1494.33,-29.16 1504.71,-27.29 1514.43,-25.34"/>
<polygon fill="#63b8ff" stroke="#63b8ff" points="976.02,-66.2 966.77,-71.37 977.23,-73.1 976.02,-66.2"/>
</a>
</g>
</g>
<!-- Node13 -->
<g id="Node000013" class="node">
<title>Node13</title>
<g id="a_Node000013"><a xlink:href="hcd_8c.html" target="_top" xlink:title=" ">
<polygon fill="white" stroke="#666666" points="773.75,-24.88 659.5,-24.88 659.5,-5.63 773.75,-5.63 773.75,-24.88"/>
<text text-anchor="middle" x="716.62" y="-11.38" font-family="Helvetica,sans-Serif" font-size="10.00">iop/usb/usbd/src/hcd.c</text>
</a>
</g>
</g>
<!-- Node11&#45;&gt;Node13 -->
<g id="edge15_Node000011_Node000013" class="edge">
<title>Node11&#45;&gt;Node13</title>
<g id="a_edge15_Node000011_Node000013"><a xlink:title=" ">
<path fill="none" stroke="#63b8ff" d="M880.92,-68.2C841.08,-55.6 780.67,-36.5 745.27,-25.31"/>
<polygon fill="#63b8ff" stroke="#63b8ff" points="879.8,-71.51 890.39,-71.19 881.91,-64.84 879.8,-71.51"/>
</a>
</g>
</g>
<!-- Node14 -->
<g id="Node000014" class="node">
<title>Node14</title>
<g id="a_Node000014"><a xlink:href="hub_8c.html" target="_top" xlink:title=" ">
<polygon fill="white" stroke="#666666" points="905.75,-24.88 791.5,-24.88 791.5,-5.63 905.75,-5.63 905.75,-24.88"/>
<text text-anchor="middle" x="848.62" y="-11.38" font-family="Helvetica,sans-Serif" font-size="10.00">iop/usb/usbd/src/hub.c</text>
</a>
</g>
</g>
<!-- Node11&#45;&gt;Node14 -->
<g id="edge16_Node000011_Node000014" class="edge">
<title>Node11&#45;&gt;Node14</title>
<g id="a_edge16_Node000011_Node000014"><a xlink:title=" ">
<path fill="none" stroke="#63b8ff" d="M902.27,-64.31C888.37,-51.86 869.8,-35.22 858.55,-25.14"/>
<polygon fill="#63b8ff" stroke="#63b8ff" points="899.7,-66.71 909.49,-70.77 904.37,-61.49 899.7,-66.71"/>
</a>
</g>
</g>
<!-- Node15 -->
<g id="Node000015" class="node">
<title>Node15</title>
<g id="a_Node000015"><a xlink:href="interface_8c.html" target="_top" xlink:title=" ">
<polygon fill="white" stroke="#666666" points="1059.62,-24.88 923.62,-24.88 923.62,-5.63 1059.62,-5.63 1059.62,-24.88"/>
<text text-anchor="middle" x="991.62" y="-11.38" font-family="Helvetica,sans-Serif" font-size="10.00">iop/usb/usbd/src/interface.c</text>
</a>
</g>
</g>
<!-- Node11&#45;&gt;Node15 -->
<g id="edge17_Node000011_Node000015" class="edge">
<title>Node11&#45;&gt;Node15</title>
<g id="a_edge17_Node000011_Node000015"><a xlink:title=" ">
<path fill="none" stroke="#63b8ff" d="M938.72,-64.31C952.43,-51.86 970.75,-35.22 981.84,-25.14"/>
<polygon fill="#63b8ff" stroke="#63b8ff" points="936.67,-61.45 931.62,-70.76 941.37,-66.63 936.67,-61.45"/>
</a>
</g>
</g>
<!-- Node16 -->
<g id="Node000016" class="node">
<title>Node16</title>
<g id="a_Node000016"><a xlink:href="mem_8c.html" target="_top" xlink:title=" ">
<polygon fill="white" stroke="#666666" points="1197.75,-24.88 1077.5,-24.88 1077.5,-5.63 1197.75,-5.63 1197.75,-24.88"/>
<text text-anchor="middle" x="1137.62" y="-11.38" font-family="Helvetica,sans-Serif" font-size="10.00">iop/usb/usbd/src/mem.c</text>
</a>
</g>
</g>
<!-- Node11&#45;&gt;Node16 -->
<g id="edge18_Node000011_Node000016" class="edge">
<title>Node11&#45;&gt;Node16</title>
<g id="a_edge18_Node000011_Node000016"><a xlink:title=" ">
<path fill="none" stroke="#63b8ff" d="M962.04,-68.44C1004.42,-55.84 1069.26,-36.57 1107.15,-25.31"/>
<polygon fill="#63b8ff" stroke="#63b8ff" points="961.29,-65.01 952.71,-71.21 963.29,-71.72 961.29,-65.01"/>
</a>
</g>
</g>
<!-- Node17 -->
<g id="Node000017" class="node">
<title>Node17</title>
<g id="a_Node000017"><a xlink:href="usbd_8c.html" target="_top" xlink:title=" ">
<polygon fill="white" stroke="#666666" points="1335.38,-24.88 1215.88,-24.88 1215.88,-5.63 1335.38,-5.63 1335.38,-24.88"/>
<text text-anchor="middle" x="1275.62" y="-11.38" font-family="Helvetica,sans-Serif" font-size="10.00">iop/usb/usbd/src/usbd.c</text>
</a>
</g>
</g>
<!-- Node11&#45;&gt;Node17 -->
<g id="edge19_Node000011_Node000017" class="edge">
<title>Node11&#45;&gt;Node17</title>
<g id="a_edge19_Node000011_Node000017"><a xlink:title=" ">
<path fill="none" stroke="#63b8ff" d="M980.28,-69.63C986.14,-68.56 992,-67.51 997.62,-66.5 1090.41,-49.92 1114.01,-48.03 1206.62,-30.5 1215.04,-28.91 1224.01,-27.12 1232.6,-25.36"/>
<polygon fill="#63b8ff" stroke="#63b8ff" points="979.77,-66.17 970.57,-71.42 981.03,-73.05 979.77,-66.17"/>
</a>
</g>
</g>
<!-- Node18 -->
<g id="Node000018" class="node">
<title>Node18</title>
<g id="a_Node000018"><a xlink:href="usbio_8c.html" target="_top" xlink:title=" ">
<polygon fill="white" stroke="#666666" points="1475.5,-24.88 1353.75,-24.88 1353.75,-5.63 1475.5,-5.63 1475.5,-24.88"/>
<text text-anchor="middle" x="1414.62" y="-11.38" font-family="Helvetica,sans-Serif" font-size="10.00">iop/usb/usbd/src/usbio.c</text>
</a>
</g>
</g>
<!-- Node11&#45;&gt;Node18 -->
<g id="edge20_Node000011_Node000018" class="edge">
<title>Node11&#45;&gt;Node18</title>
<g id="a_edge20_Node000011_Node000018"><a xlink:title=" ">
<path fill="none" stroke="#63b8ff" d="M977.71,-69.66C984.41,-68.52 991.16,-67.43 997.62,-66.5 1151.09,-44.37 1191.37,-53.99 1344.62,-30.5 1353.94,-29.07 1363.9,-27.24 1373.29,-25.36"/>
<polygon fill="#63b8ff" stroke="#63b8ff" points="977.27,-66.19 968.03,-71.37 978.48,-73.08 977.27,-66.19"/>
</a>
</g>
</g>
</g>
</svg>

<g id="navigator" transform="translate(0 0)" fill="#404254">
  <rect fill="#f2f5e9" fill-opacity="0.5" stroke="#606060" stroke-width=".5" x="0" y="0" width="60" height="60"/>
  <use id="zoomplus" xlink:href="#zoomPlus" x="17" y="9" onmousedown="handleZoom(evt,'in')"/>
  <use id="zoomminus" xlink:href="#zoomMin" x="42" y="9" onmousedown="handleZoom(evt,'out')"/>
  <use id="reset" xlink:href="#resetDef" x="30" y="36" onmousedown="handleReset()"/>
   <use id="arrowup" xlink:href="#arrowUp" x="0" y="0" onmousedown="handlePan(0,-1)"/>
  <use id="arrowright" xlink:href="#arrowRight" x="0" y="0" onmousedown="handlePan(1,0)"/>
  <use id="arrowdown" xlink:href="#arrowDown" x="0" y="0" onmousedown="handlePan(0,1)"/>
  <use id="arrowleft" xlink:href="#arrowLeft" x="0" y="0" onmousedown="handlePan(-1,0)"/>
</g>
<svg viewBox="0 0 15 15" width="100%" height="30px" preserveAspectRatio="xMaxYMin meet">
 <g id="arrow_out" transform="scale(0.3 0.3)">
  <a xlink:href="usbd_8h__dep__incl_org.svg" target="_base">
   <rect id="button" ry="5" rx="5" y="6" x="6" height="38" width="38"
        fill="#f2f5e9" fill-opacity="0.5" stroke="#606060" stroke-width="1.0"/>
   <path id="arrow"
     d="M 11.500037,31.436501 C 11.940474,20.09759 22.043105,11.32322 32.158766,21.979434 L 37.068811,17.246167 C 37.068811,17.246167 37.088388,32 37.088388,32 L 22.160133,31.978069 C 22.160133,31.978069 26.997745,27.140456 26.997745,27.140456 C 18.528582,18.264221 13.291696,25.230495 11.500037,31.436501 z"
     style="fill:#404040;"/>
  </a>
 </g>
</svg>

<style type='text/css'>
<![CDATA[
[data-mouse-over-selected='false'] { opacity: 0.7; }
[data-mouse-over-selected='true']  { opacity: 1.0; }
]]>
</style>
<script type="application/ecmascript"><![CDATA[
document.addEventListener('DOMContentLoaded', (event) => {
  highlightEdges();
  highlightAdjacentNodes();
});
]]></script>
</svg>
