<?xml version="1.0" encoding="UTF-8" standalone="no"?>
<!DOCTYPE svg PUBLIC "-//W3C//DTD SVG 1.1//EN"
 "http://www.w3.org/Graphics/SVG/1.1/DTD/svg11.dtd">
<!-- Generated by graphviz version 12.2.0 (20241103.1931)
 -->
<!-- Title: iop/usb/usbd/src/usbd.c Pages: 1 -->
<svg width="479pt" height="359pt"
 viewBox="0.00 0.00 479.00 358.75" xmlns="http://www.w3.org/2000/svg" xmlns:xlink="http://www.w3.org/1999/xlink">
<g id="graph0" class="graph" transform="scale(1 1) rotate(0) translate(4 354.75)">
<title>iop/usb/usbd/src/usbd.c</title>
<!-- Node1 -->
<g id="Node000001" class="node">
<title>Node1</title>
<g id="a_Node000001"><a xlink:title=" ">
<polygon fill="#999999" stroke="#666666" points="286.38,-350.75 166.88,-350.75 166.88,-331.5 286.38,-331.5 286.38,-350.75"/>
<text text-anchor="middle" x="226.62" y="-337.25" font-family="Helvetica,sans-Serif" font-size="10.00">iop/usb/usbd/src/usbd.c</text>
</a>
</g>
</g>
<!-- Node2 -->
<g id="Node000002" class="node">
<title>Node2</title>
<g id="a_Node000002"><a xlink:href="usbdpriv_8h.html" target="_top" xlink:title=" ">
<polygon fill="white" stroke="#666666" points="106.75,-240.25 46.5,-240.25 46.5,-221 106.75,-221 106.75,-240.25"/>
<text text-anchor="middle" x="76.62" y="-226.75" font-family="Helvetica,sans-Serif" font-size="10.00">usbdpriv.h</text>
</a>
</g>
</g>
<!-- Node1&#45;&gt;Node2 -->
<g id="edge1_Node000001_Node000002" class="edge">
<title>Node1&#45;&gt;Node2</title>
<g id="a_edge1_Node000001_Node000002"><a xlink:title=" ">
<path fill="none" stroke="#63b8ff" d="M206.28,-331.08C188.91,-322.92 163.62,-310 143.62,-295.5 124.41,-281.57 105.08,-262.46 92.15,-248.78"/>
<polygon fill="#63b8ff" stroke="#63b8ff" points="95.04,-246.75 85.67,-241.79 89.9,-251.5 95.04,-246.75"/>
</a>
</g>
</g>
<!-- Node10 -->
<g id="Node000010" class="node">
<title>Node10</title>
<g id="a_Node000010"><a xlink:href="mem_8h.html" target="_top" xlink:title=" ">
<polygon fill="white" stroke="#666666" points="198.25,-295.5 153,-295.5 153,-276.25 198.25,-276.25 198.25,-295.5"/>
<text text-anchor="middle" x="175.62" y="-282" font-family="Helvetica,sans-Serif" font-size="10.00">mem.h</text>
</a>
</g>
</g>
<!-- Node1&#45;&gt;Node10 -->
<g id="edge11_Node000001_Node000010" class="edge">
<title>Node1&#45;&gt;Node10</title>
<g id="a_edge11_Node000001_Node000010"><a xlink:title=" ">
<path fill="none" stroke="#63b8ff" d="M218.2,-331.33C211.09,-323.9 200.68,-313.04 191.94,-303.91"/>
<polygon fill="#63b8ff" stroke="#63b8ff" points="194.72,-301.75 185.28,-296.95 189.67,-306.6 194.72,-301.75"/>
</a>
</g>
</g>
<!-- Node11 -->
<g id="Node000011" class="node">
<title>Node11</title>
<g id="a_Node000011"><a xlink:href="hcd_8h.html" target="_top" xlink:title=" ">
<polygon fill="white" stroke="#666666" points="39.25,-295.5 0,-295.5 0,-276.25 39.25,-276.25 39.25,-295.5"/>
<text text-anchor="middle" x="19.62" y="-282" font-family="Helvetica,sans-Serif" font-size="10.00">hcd.h</text>
</a>
</g>
</g>
<!-- Node1&#45;&gt;Node11 -->
<g id="edge13_Node000001_Node000011" class="edge">
<title>Node1&#45;&gt;Node11</title>
<g id="a_edge13_Node000001_Node000011"><a xlink:title=" ">
<path fill="none" stroke="#63b8ff" d="M187.71,-331.07C153.68,-323.01 102.71,-310.59 50.31,-296.15"/>
<polygon fill="#63b8ff" stroke="#63b8ff" points="51.5,-292.84 40.93,-293.54 49.63,-299.59 51.5,-292.84"/>
</a>
</g>
</g>
<!-- Node12 -->
<g id="Node000012" class="node">
<title>Node12</title>
<g id="a_Node000012"><a xlink:href="hub_8h.html" target="_top" xlink:title=" ">
<polygon fill="white" stroke="#666666" points="96.25,-295.5 57,-295.5 57,-276.25 96.25,-276.25 96.25,-295.5"/>
<text text-anchor="middle" x="76.62" y="-282" font-family="Helvetica,sans-Serif" font-size="10.00">hub.h</text>
</a>
</g>
</g>
<!-- Node1&#45;&gt;Node12 -->
<g id="edge15_Node000001_Node000012" class="edge">
<title>Node1&#45;&gt;Node12</title>
<g id="a_edge15_Node000001_Node000012"><a xlink:title=" ">
<path fill="none" stroke="#63b8ff" d="M201.18,-331.09C175.17,-321.86 134.78,-307.52 107.09,-297.69"/>
<polygon fill="#63b8ff" stroke="#63b8ff" points="108.46,-294.46 97.86,-294.41 106.11,-301.06 108.46,-294.46"/>
</a>
</g>
</g>
<!-- Node13 -->
<g id="Node000013" class="node">
<title>Node13</title>
<g id="a_Node000013"><a xlink:href="usbio_8h.html" target="_top" xlink:title=" ">
<polygon fill="white" stroke="#666666" points="415,-295.5 368.25,-295.5 368.25,-276.25 415,-276.25 415,-295.5"/>
<text text-anchor="middle" x="391.62" y="-282" font-family="Helvetica,sans-Serif" font-size="10.00">usbio.h</text>
</a>
</g>
</g>
<!-- Node1&#45;&gt;Node13 -->
<g id="edge17_Node000001_Node000013" class="edge">
<title>Node1&#45;&gt;Node13</title>
<g id="a_edge17_Node000001_Node000013"><a xlink:title=" ">
<path fill="none" stroke="#63b8ff" d="M254.62,-331.09C282.82,-321.99 326.42,-307.92 356.84,-298.1"/>
<polygon fill="#63b8ff" stroke="#63b8ff" points="357.91,-301.43 366.35,-295.03 355.76,-294.77 357.91,-301.43"/>
</a>
</g>
</g>
<!-- Node14 -->
<g id="Node000014" class="node">
<title>Node14</title>
<g id="a_Node000014"><a xlink:href="stdio_8h.html" target="_top" xlink:title=" ">
<polygon fill="white" stroke="#666666" points="356.88,-185 312.38,-185 312.38,-165.75 356.88,-165.75 356.88,-185"/>
<text text-anchor="middle" x="334.62" y="-171.5" font-family="Helvetica,sans-Serif" font-size="10.00">stdio.h</text>
</a>
</g>
</g>
<!-- Node1&#45;&gt;Node14 -->
<g id="edge18_Node000001_Node000014" class="edge">
<title>Node1&#45;&gt;Node14</title>
<g id="a_edge18_Node000001_Node000014"><a xlink:title=" ">
<path fill="none" stroke="#63b8ff" d="M232.63,-331.26C238.71,-322.27 248.37,-307.95 256.62,-295.5 280.21,-259.95 307.44,-218.2 322.69,-194.76"/>
<polygon fill="#63b8ff" stroke="#63b8ff" points="325.45,-196.93 327.97,-186.63 319.58,-193.11 325.45,-196.93"/>
</a>
</g>
</g>
<!-- Node16 -->
<g id="Node000016" class="node">
<title>Node16</title>
<g id="a_Node000016"><a xlink:href="sysclib_8h.html" target="_top" xlink:title=" ">
<polygon fill="white" stroke="#666666" points="428.38,-185 374.88,-185 374.88,-165.75 428.38,-165.75 428.38,-185"/>
<text text-anchor="middle" x="401.62" y="-171.5" font-family="Helvetica,sans-Serif" font-size="10.00">sysclib.h</text>
</a>
</g>
</g>
<!-- Node1&#45;&gt;Node16 -->
<g id="edge21_Node000001_Node000016" class="edge">
<title>Node1&#45;&gt;Node16</title>
<g id="a_edge21_Node000001_Node000016"><a xlink:title=" ">
<path fill="none" stroke="#63b8ff" d="M236.67,-331.33C246.83,-322.4 262.94,-308.12 276.62,-295.5 315.51,-259.64 360.18,-216.62 384.18,-193.34"/>
<polygon fill="#63b8ff" stroke="#63b8ff" points="386.49,-195.98 391.23,-186.5 381.62,-190.96 386.49,-195.98"/>
</a>
</g>
</g>
<!-- Node19 -->
<g id="Node000019" class="node">
<title>Node19</title>
<g id="a_Node000019"><a xlink:href="thsemap_8h.html" target="_top" xlink:title=" ">
<polygon fill="white" stroke="#666666" points="216.12,-185 155.12,-185 155.12,-165.75 216.12,-165.75 216.12,-185"/>
<text text-anchor="middle" x="185.62" y="-171.5" font-family="Helvetica,sans-Serif" font-size="10.00">thsemap.h</text>
</a>
</g>
</g>
<!-- Node1&#45;&gt;Node19 -->
<g id="edge28_Node000001_Node000019" class="edge">
<title>Node1&#45;&gt;Node19</title>
<g id="a_edge28_Node000001_Node000019"><a xlink:title=" ">
<path fill="none" stroke="#63b8ff" d="M224.42,-331.32C218.05,-305.89 199.52,-231.85 190.57,-196.12"/>
<polygon fill="#63b8ff" stroke="#63b8ff" points="194.03,-195.54 188.21,-186.69 187.24,-197.24 194.03,-195.54"/>
</a>
</g>
</g>
<!-- Node20 -->
<g id="Node000020" class="node">
<title>Node20</title>
<g id="a_Node000020"><a xlink:href="loadcore_8h.html" target="_top" xlink:title=" ">
<polygon fill="white" stroke="#666666" points="294.75,-185 234.5,-185 234.5,-165.75 294.75,-165.75 294.75,-185"/>
<text text-anchor="middle" x="264.62" y="-171.5" font-family="Helvetica,sans-Serif" font-size="10.00">loadcore.h</text>
</a>
</g>
</g>
<!-- Node1&#45;&gt;Node20 -->
<g id="edge31_Node000001_Node000020" class="edge">
<title>Node1&#45;&gt;Node20</title>
<g id="a_edge31_Node000001_Node000020"><a xlink:title=" ">
<path fill="none" stroke="#63b8ff" d="M229.69,-331.31C232.73,-322.37 237.39,-308.08 240.62,-295.5 249.48,-261.03 257.08,-220.27 261.24,-196.47"/>
<polygon fill="#63b8ff" stroke="#63b8ff" points="264.64,-197.35 262.88,-186.91 257.74,-196.17 264.64,-197.35"/>
</a>
</g>
</g>
<!-- Node3 -->
<g id="Node000003" class="node">
<title>Node3</title>
<g id="a_Node000003"><a xlink:href="usbd_8h.html" target="_top" xlink:title=" ">
<polygon fill="white" stroke="#666666" points="136.88,-185 92.38,-185 92.38,-165.75 136.88,-165.75 136.88,-185"/>
<text text-anchor="middle" x="114.62" y="-171.5" font-family="Helvetica,sans-Serif" font-size="10.00">usbd.h</text>
</a>
</g>
</g>
<!-- Node2&#45;&gt;Node3 -->
<g id="edge2_Node000002_Node000003" class="edge">
<title>Node2&#45;&gt;Node3</title>
<g id="a_edge2_Node000002_Node000003"><a xlink:title=" ">
<path fill="none" stroke="#63b8ff" d="M82.9,-220.83C87.98,-213.71 95.32,-203.43 101.66,-194.55"/>
<polygon fill="#63b8ff" stroke="#63b8ff" points="104.37,-196.76 107.33,-186.59 98.68,-192.7 104.37,-196.76"/>
</a>
</g>
</g>
<!-- Node4 -->
<g id="Node000004" class="node">
<title>Node4</title>
<g id="a_Node000004"><a xlink:title=" ">
<polygon fill="#e0e0e0" stroke="#999999" points="132,-129.75 85.25,-129.75 85.25,-110.5 132,-110.5 132,-129.75"/>
<text text-anchor="middle" x="108.62" y="-116.25" font-family="Helvetica,sans-Serif" font-size="10.00">types.h</text>
</a>
</g>
</g>
<!-- Node2&#45;&gt;Node4 -->
<g id="edge8_Node000002_Node000004" class="edge">
<title>Node2&#45;&gt;Node4</title>
<g id="a_edge8_Node000002_Node000004"><a xlink:title=" ">
<path fill="none" stroke="#63b8ff" d="M76.49,-220.72C76.55,-208.16 77.57,-184.66 83.62,-165.75 86.5,-156.78 91.28,-147.59 95.89,-139.89"/>
<polygon fill="#63b8ff" stroke="#63b8ff" points="98.84,-141.78 101.28,-131.47 92.94,-138.01 98.84,-141.78"/>
</a>
</g>
</g>
<!-- Node9 -->
<g id="Node000009" class="node">
<title>Node9</title>
<g id="a_Node000009"><a xlink:href="defs_8h.html" target="_top" xlink:title=" ">
<polygon fill="white" stroke="#666666" points="54.75,-129.75 12.5,-129.75 12.5,-110.5 54.75,-110.5 54.75,-129.75"/>
<text text-anchor="middle" x="33.62" y="-116.25" font-family="Helvetica,sans-Serif" font-size="10.00">defs.h</text>
</a>
</g>
</g>
<!-- Node2&#45;&gt;Node9 -->
<g id="edge9_Node000002_Node000009" class="edge">
<title>Node2&#45;&gt;Node9</title>
<g id="a_edge9_Node000002_Node000009"><a xlink:title=" ">
<path fill="none" stroke="#63b8ff" d="M73.11,-220.75C66.21,-203.34 50.76,-164.37 41.37,-140.66"/>
<polygon fill="#63b8ff" stroke="#63b8ff" points="44.69,-139.54 37.75,-131.53 38.18,-142.12 44.69,-139.54"/>
</a>
</g>
</g>
<!-- Node3&#45;&gt;Node4 -->
<g id="edge3_Node000003_Node000004" class="edge">
<title>Node3&#45;&gt;Node4</title>
<g id="a_edge3_Node000003_Node000004"><a xlink:title=" ">
<path fill="none" stroke="#63b8ff" d="M113.63,-165.58C112.89,-158.99 111.85,-149.71 110.9,-141.32"/>
<polygon fill="#63b8ff" stroke="#63b8ff" points="114.4,-141.16 109.81,-131.61 107.45,-141.94 114.4,-141.16"/>
</a>
</g>
</g>
<!-- Node5 -->
<g id="Node000005" class="node">
<title>Node5</title>
<g id="a_Node000005"><a xlink:href="irx_8h.html" target="_top" xlink:title=" ">
<polygon fill="white" stroke="#666666" points="247.25,-129.75 214,-129.75 214,-110.5 247.25,-110.5 247.25,-129.75"/>
<text text-anchor="middle" x="230.62" y="-116.25" font-family="Helvetica,sans-Serif" font-size="10.00">irx.h</text>
</a>
</g>
</g>
<!-- Node3&#45;&gt;Node5 -->
<g id="edge4_Node000003_Node000005" class="edge">
<title>Node3&#45;&gt;Node5</title>
<g id="a_edge4_Node000003_Node000005"><a xlink:title=" ">
<path fill="none" stroke="#63b8ff" d="M134.3,-165.34C153.24,-156.65 182.04,-143.43 203.21,-133.71"/>
<polygon fill="#63b8ff" stroke="#63b8ff" points="204.5,-136.97 212.13,-129.62 201.58,-130.61 204.5,-136.97"/>
</a>
</g>
</g>
<!-- Node6 -->
<g id="Node000006" class="node">
<title>Node6</title>
<g id="a_Node000006"><a xlink:href="iop_2kernel_2include_2types_8h_source.html" target="_top" xlink:title=" ">
<polygon fill="white" stroke="#666666" points="276,-74.5 229.25,-74.5 229.25,-55.25 276,-55.25 276,-74.5"/>
<text text-anchor="middle" x="252.62" y="-61" font-family="Helvetica,sans-Serif" font-size="10.00">types.h</text>
</a>
</g>
</g>
<!-- Node5&#45;&gt;Node6 -->
<g id="edge5_Node000005_Node000006" class="edge">
<title>Node5&#45;&gt;Node6</title>
<g id="a_edge5_Node000005_Node000006"><a xlink:title=" ">
<path fill="none" stroke="#63b8ff" d="M234.26,-110.33C237.04,-103.59 241,-94.02 244.52,-85.49"/>
<polygon fill="#63b8ff" stroke="#63b8ff" points="247.75,-86.84 248.34,-76.26 241.28,-84.16 247.75,-86.84"/>
</a>
</g>
</g>
<!-- Node7 -->
<g id="Node000007" class="node">
<title>Node7</title>
<g id="a_Node000007"><a xlink:title=" ">
<polygon fill="#e0e0e0" stroke="#999999" points="277.88,-19.25 227.38,-19.25 227.38,0 277.88,0 277.88,-19.25"/>
<text text-anchor="middle" x="252.62" y="-5.75" font-family="Helvetica,sans-Serif" font-size="10.00">stddef.h</text>
</a>
</g>
</g>
<!-- Node6&#45;&gt;Node7 -->
<g id="edge6_Node000006_Node000007" class="edge">
<title>Node6&#45;&gt;Node7</title>
<g id="a_edge6_Node000006_Node000007"><a xlink:title=" ">
<path fill="none" stroke="#63b8ff" d="M252.62,-55.08C252.62,-48.57 252.62,-39.42 252.62,-31.12"/>
<polygon fill="#63b8ff" stroke="#63b8ff" points="256.13,-31.12 252.63,-21.12 249.13,-31.12 256.13,-31.12"/>
</a>
</g>
</g>
<!-- Node8 -->
<g id="Node000008" class="node">
<title>Node8</title>
<g id="a_Node000008"><a xlink:href="tamtypes_8h.html" target="_top" xlink:title=" ">
<polygon fill="white" stroke="#666666" points="437.25,-19.25 374,-19.25 374,0 437.25,0 437.25,-19.25"/>
<text text-anchor="middle" x="405.62" y="-5.75" font-family="Helvetica,sans-Serif" font-size="10.00">tamtypes.h</text>
</a>
</g>
</g>
<!-- Node6&#45;&gt;Node8 -->
<g id="edge7_Node000006_Node000008" class="edge">
<title>Node6&#45;&gt;Node8</title>
<g id="a_edge7_Node000006_Node000008"><a xlink:title=" ">
<path fill="none" stroke="#63b8ff" d="M276.2,-55.67C300.84,-47.09 339.85,-33.52 368.61,-23.51"/>
<polygon fill="#63b8ff" stroke="#63b8ff" points="369.74,-26.82 378.03,-20.23 367.44,-20.21 369.74,-26.82"/>
</a>
</g>
</g>
<!-- Node9&#45;&gt;Node6 -->
<g id="edge10_Node000009_Node000006" class="edge">
<title>Node9&#45;&gt;Node6</title>
<g id="a_edge10_Node000009_Node000006"><a xlink:title=" ">
<path fill="none" stroke="#63b8ff" d="M55.02,-113.92C92.84,-104.73 171.83,-85.52 217.66,-74.38"/>
<polygon fill="#63b8ff" stroke="#63b8ff" points="218.47,-77.78 227.36,-72.02 216.81,-70.98 218.47,-77.78"/>
</a>
</g>
</g>
<!-- Node10&#45;&gt;Node2 -->
<g id="edge12_Node000010_Node000002" class="edge">
<title>Node10&#45;&gt;Node2</title>
<g id="a_edge12_Node000010_Node000002"><a xlink:title=" ">
<path fill="none" stroke="#63b8ff" d="M158.83,-275.84C143.61,-267.66 120.93,-255.46 103.24,-245.94"/>
<polygon fill="#63b8ff" stroke="#63b8ff" points="105.3,-243.07 94.83,-241.42 101.98,-249.24 105.3,-243.07"/>
</a>
</g>
</g>
<!-- Node11&#45;&gt;Node2 -->
<g id="edge14_Node000011_Node000002" class="edge">
<title>Node11&#45;&gt;Node2</title>
<g id="a_edge14_Node000011_Node000002"><a xlink:title=" ">
<path fill="none" stroke="#63b8ff" d="M29.29,-275.84C37.37,-268.3 49.09,-257.35 58.85,-248.23"/>
<polygon fill="#63b8ff" stroke="#63b8ff" points="61.07,-250.94 65.99,-241.56 56.3,-245.83 61.07,-250.94"/>
</a>
</g>
</g>
<!-- Node12&#45;&gt;Node2 -->
<g id="edge16_Node000012_Node000002" class="edge">
<title>Node12&#45;&gt;Node2</title>
<g id="a_edge16_Node000012_Node000002"><a xlink:title=" ">
<path fill="none" stroke="#63b8ff" d="M76.62,-276.08C76.62,-269.57 76.62,-260.42 76.62,-252.12"/>
<polygon fill="#63b8ff" stroke="#63b8ff" points="80.13,-252.12 76.63,-242.12 73.13,-252.12 80.13,-252.12"/>
</a>
</g>
</g>
<!-- Node14&#45;&gt;Node5 -->
<g id="edge20_Node000014_Node000005" class="edge">
<title>Node14&#45;&gt;Node5</title>
<g id="a_edge20_Node000014_Node000005"><a xlink:title=" ">
<path fill="none" stroke="#63b8ff" d="M316.98,-165.34C300.73,-157.02 276.36,-144.54 257.65,-134.96"/>
<polygon fill="#63b8ff" stroke="#63b8ff" points="259.51,-131.98 249.01,-130.54 256.32,-138.21 259.51,-131.98"/>
</a>
</g>
</g>
<!-- Node15 -->
<g id="Node000015" class="node">
<title>Node15</title>
<g id="a_Node000015"><a xlink:title=" ">
<polygon fill="#e0e0e0" stroke="#999999" points="353.88,-129.75 303.38,-129.75 303.38,-110.5 353.88,-110.5 353.88,-129.75"/>
<text text-anchor="middle" x="328.62" y="-116.25" font-family="Helvetica,sans-Serif" font-size="10.00">stdarg.h</text>
</a>
</g>
</g>
<!-- Node14&#45;&gt;Node15 -->
<g id="edge19_Node000014_Node000015" class="edge">
<title>Node14&#45;&gt;Node15</title>
<g id="a_edge19_Node000014_Node000015"><a xlink:title=" ">
<path fill="none" stroke="#63b8ff" d="M333.63,-165.58C332.89,-158.99 331.85,-149.71 330.9,-141.32"/>
<polygon fill="#63b8ff" stroke="#63b8ff" points="334.4,-141.16 329.81,-131.61 327.45,-141.94 334.4,-141.16"/>
</a>
</g>
</g>
<!-- Node16&#45;&gt;Node5 -->
<g id="edge23_Node000016_Node000005" class="edge">
<title>Node16&#45;&gt;Node5</title>
<g id="a_edge23_Node000016_Node000005"><a xlink:title=" ">
<path fill="none" stroke="#63b8ff" d="M374.53,-165.94C342.83,-156.06 290.6,-139.8 258.54,-129.82"/>
<polygon fill="#63b8ff" stroke="#63b8ff" points="259.75,-126.53 249.17,-126.9 257.67,-133.21 259.75,-126.53"/>
</a>
</g>
</g>
<!-- Node16&#45;&gt;Node6 -->
<g id="edge22_Node000016_Node000006" class="edge">
<title>Node16&#45;&gt;Node6</title>
<g id="a_edge22_Node000016_Node000006"><a xlink:title=" ">
<path fill="none" stroke="#63b8ff" d="M398.25,-165.29C392.76,-151.63 380.65,-125.81 362.62,-110.5 340.89,-92.04 310.52,-80.5 287.19,-73.79"/>
<polygon fill="#63b8ff" stroke="#63b8ff" points="288.41,-70.49 277.84,-71.27 286.58,-77.25 288.41,-70.49"/>
</a>
</g>
</g>
<!-- Node16&#45;&gt;Node15 -->
<g id="edge24_Node000016_Node000015" class="edge">
<title>Node16&#45;&gt;Node15</title>
<g id="a_edge24_Node000016_Node000015"><a xlink:title=" ">
<path fill="none" stroke="#63b8ff" d="M389.24,-165.34C378.48,-157.49 362.65,-145.95 349.87,-136.62"/>
<polygon fill="#63b8ff" stroke="#63b8ff" points="352.19,-133.98 342.05,-130.92 348.06,-139.64 352.19,-133.98"/>
</a>
</g>
</g>
<!-- Node17 -->
<g id="Node000017" class="node">
<title>Node17</title>
<g id="a_Node000017"><a xlink:href="setjmp_8h.html" target="_top" xlink:title=" ">
<polygon fill="white" stroke="#666666" points="471,-74.5 418.25,-74.5 418.25,-55.25 471,-55.25 471,-74.5"/>
<text text-anchor="middle" x="444.62" y="-61" font-family="Helvetica,sans-Serif" font-size="10.00">setjmp.h</text>
</a>
</g>
</g>
<!-- Node16&#45;&gt;Node17 -->
<g id="edge25_Node000016_Node000017" class="edge">
<title>Node16&#45;&gt;Node17</title>
<g id="a_edge25_Node000016_Node000017"><a xlink:title=" ">
<path fill="none" stroke="#63b8ff" d="M423.71,-165.3C438.23,-158.03 456.07,-146.3 464.62,-129.75 472.12,-115.25 465.37,-97.44 457.75,-84.31"/>
<polygon fill="#63b8ff" stroke="#63b8ff" points="460.89,-82.71 452.53,-76.21 455.01,-86.51 460.89,-82.71"/>
</a>
</g>
</g>
<!-- Node18 -->
<g id="Node000018" class="node">
<title>Node18</title>
<g id="a_Node000018"><a xlink:href="ctype_8h.html" target="_top" xlink:title=" ">
<polygon fill="white" stroke="#666666" points="456,-129.75 409.25,-129.75 409.25,-110.5 456,-110.5 456,-129.75"/>
<text text-anchor="middle" x="432.62" y="-116.25" font-family="Helvetica,sans-Serif" font-size="10.00">ctype.h</text>
</a>
</g>
</g>
<!-- Node16&#45;&gt;Node18 -->
<g id="edge27_Node000016_Node000018" class="edge">
<title>Node16&#45;&gt;Node18</title>
<g id="a_edge27_Node000016_Node000018"><a xlink:title=" ">
<path fill="none" stroke="#63b8ff" d="M406.74,-165.58C410.8,-158.61 416.62,-148.62 421.71,-139.87"/>
<polygon fill="#63b8ff" stroke="#63b8ff" points="424.63,-141.82 426.63,-131.42 418.58,-138.3 424.63,-141.82"/>
</a>
</g>
</g>
<!-- Node17&#45;&gt;Node8 -->
<g id="edge26_Node000017_Node000008" class="edge">
<title>Node17&#45;&gt;Node8</title>
<g id="a_edge26_Node000017_Node000008"><a xlink:title=" ">
<path fill="none" stroke="#63b8ff" d="M438.18,-55.08C432.97,-47.96 425.44,-37.68 418.93,-28.8"/>
<polygon fill="#63b8ff" stroke="#63b8ff" points="421.83,-26.83 413.1,-20.83 416.18,-30.97 421.83,-26.83"/>
</a>
</g>
</g>
<!-- Node19&#45;&gt;Node5 -->
<g id="edge30_Node000019_Node000005" class="edge">
<title>Node19&#45;&gt;Node5</title>
<g id="a_edge30_Node000019_Node000005"><a xlink:title=" ">
<path fill="none" stroke="#63b8ff" d="M193.06,-165.58C199.21,-158.3 208.14,-147.73 215.75,-138.73"/>
<polygon fill="#63b8ff" stroke="#63b8ff" points="218.27,-141.16 222.06,-131.27 212.93,-136.64 218.27,-141.16"/>
</a>
</g>
</g>
<!-- Node19&#45;&gt;Node6 -->
<g id="edge29_Node000019_Node000006" class="edge">
<title>Node19&#45;&gt;Node6</title>
<g id="a_edge29_Node000019_Node000006"><a xlink:title=" ">
<path fill="none" stroke="#63b8ff" d="M186.75,-165.51C188.71,-152.58 193.64,-128.19 204.62,-110.5 211.47,-99.48 221.73,-89.42 231.02,-81.66"/>
<polygon fill="#63b8ff" stroke="#63b8ff" points="232.95,-84.6 238.62,-75.65 228.61,-79.1 232.95,-84.6"/>
</a>
</g>
</g>
<!-- Node20&#45;&gt;Node5 -->
<g id="edge33_Node000020_Node000005" class="edge">
<title>Node20&#45;&gt;Node5</title>
<g id="a_edge33_Node000020_Node000005"><a xlink:title=" ">
<path fill="none" stroke="#63b8ff" d="M259.01,-165.58C254.51,-158.53 248.04,-148.4 242.41,-139.58"/>
<polygon fill="#63b8ff" stroke="#63b8ff" points="245.51,-137.93 237.18,-131.38 239.61,-141.7 245.51,-137.93"/>
</a>
</g>
</g>
<!-- Node20&#45;&gt;Node6 -->
<g id="edge32_Node000020_Node000006" class="edge">
<title>Node20&#45;&gt;Node6</title>
<g id="a_edge32_Node000020_Node000006"><a xlink:title=" ">
<path fill="none" stroke="#63b8ff" d="M263.64,-165.5C261.74,-148.25 257.49,-109.83 254.86,-86.06"/>
<polygon fill="#63b8ff" stroke="#63b8ff" points="258.37,-85.94 253.79,-76.38 251.41,-86.71 258.37,-85.94"/>
</a>
</g>
</g>
</g>
</svg>
